<?xml version="1.0" standalone="no"?>
<!--Created with Sketsa SVG Editor (http://www.kiyut.com)-->
<svg contentScriptType="text/ecmascript" width="650.0px" xmlns:xlink="http://www.w3.org/1999/xlink"
    baseProfile="full" zoomAndPan="magnify" contentStyleType="text/css" height="800.0px"
    preserveAspectRatio="xMidYMid meet" xmlns="http://www.w3.org/2000/svg" version="1.0">
    <path fill="#FFFFFF" id="path3223" d="M 305.02798 516.35913 c 0.0 0.0 -400.757 -353.80276 
        -111.94606 -455.3457 c 289.19354 -101.680435 175.91496 437.66296 175.91496 437.66296 L 
        305.02798 516.35913 z" stroke-width="2" stroke="#000000" stroke-linejoin="round"/>
    <path stroke-linecap="round" fill="#FFFFFF" stroke-linejoin="round" d="M 647.70575 533.09576 c 0.04522705 139.84058 -102.44147 253.24146 -228.90546 253.29144 c -126.46771 0.047912598 
        -229.02417 -113.27374 -229.0694 -253.11224 c 0.0 -0.060424805 0.0 -0.12084961 0.0 
        -0.17919922 c -0.04335022 -139.84058 102.44147 -253.24146 228.90546 -253.29147 c 126.46771 
        -0.05001831 229.02606 113.27167 229.0694 253.11221 C 647.70575 532.9728 647.70575 533.0353 
        647.70575 533.09576 z" id="path2385" stroke="#000000" stroke-width="2"/>
    <path id="path3302" d="M 418.69855 279.90015 c -46.186676 0.0 -89.17313 15.119415 -125.15787 
        41.158997 c 16.093536 62.701324 67.75528 108.876526 129.33817 110.06232 c 2.0354614 3.859558 
        3.9748535 6.9188843 5.182953 7.879608 c 3.7957764 3.0155334 24.235474 4.1763306 28.035034 
        0.7168884 c 1.8583069 -1.6963806 5.2507935 -7.7483215 8.01001 -14.652618 c 42.360718 
        -13.833588 76.202545 -49.77426 90.64322 -95.6702 C 516.7053 298.2623 469.62717 279.90015 
        418.69855 279.90015 z" fill-opacity="0.3137"/>
    <path id="path3242" d="M 406.74197 496.409 c 0.0 26.443909 -19.388 47.884094 -43.304962 
        47.884094 c -23.916962 0.0 -43.306854 -21.43811 -43.306854 -47.884094 c 0.0 -26.448029 
        19.388 -47.888214 43.306854 -47.888214 C 387.35394 448.52286 406.74197 469.96097 406.74197 
        496.409 L 406.74197 496.409 z" fill-opacity="0.3137"/>
    <path id="path3276" d="M 418.70987 279.896 c -24.361755 0.0 -47.824493 4.2450867 -69.851074 
        12.047607 c 19.815826 -5.1183167 40.71347 -7.879608 62.312256 -7.879608 c 59.251465 0.0 
        113.28421 20.585754 153.9581 54.379883 C 525.4296 301.88846 474.37097 279.896 418.70987 
        279.896 z M 635.5701 451.56757 c 3.0061035 13.520996 4.5949097 27.48172 4.5949097 41.81131 c 
        0.0 115.54324 -102.592224 209.31284 -228.99213 209.31284 c -105.70203 0.0 -194.71118 
        -65.56061 -221.04056 -154.60785 c 7.0186462 132.80292 106.7254 238.22833 228.57938 238.22833 
        c 126.3999 0.0 228.99213 -113.44049 228.99213 -253.206 C 647.702 504.5866 643.43884 
        477.14868 635.5701 451.56757 z" fill-opacity="0.3137"/>
    <path stroke-linecap="round" fill="#FFFFFF" stroke-linejoin="round" d="M 319.4592 110.40426 c -20.83545 0.0 -37.752594 18.705986 -37.752594 41.744606 c 0.0 14.908936 7.082733 27.979782 
        17.72757 35.363403 c -11.253601 21.994537 -17.72757 47.379745 -17.72757 74.438385 c 0.0 
        83.63928 61.352936 151.54642 136.99573 151.54642 c 75.6409 0.0 137.05414 -67.90506 137.05414 
        -151.54642 c 0.0 -27.05864 -6.473938 -52.443848 -17.72754 -74.438385 c 10.622192 -7.387787 
        17.72754 -20.47322 17.72754 -35.363403 c 0.0 -23.04071 -16.917114 -41.744606 -37.752563 
        -41.744606 c -13.46814 0.0 -25.241913 7.8587646 -31.923218 19.602104 c -19.902527 -12.460236 
        -42.89032 -19.602104 -67.37836 -19.602104 c -24.480469 0.0 -47.421143 7.148117 -67.319916 
        19.602104 C 344.7011 118.26094 332.92545 110.40426 319.4592 110.40426 z" id="path2479"
        stroke="#000000" stroke-width="4"/>
    <path stroke-linecap="round" fill="#FFFFFF" stroke-linejoin="round" d="M 529.6721 641.9931 c -57.306458 0.0 -103.83615 51.449768 -103.83615 114.81592 c 0.0 13.099976 1.9959106 25.649841 
        5.654114 37.38275 h 196.30374 c 3.6619873 -11.73291 5.654114 -24.28064 5.654114 -37.38275 C 
        633.4498 693.4408 586.9786 641.9931 529.6721 641.9931 z" id="path3163" stroke="#000000"
        stroke-width="4"/>
    <path stroke-linecap="round" fill="#FFFFFF" stroke-linejoin="round" d="M 322.00168 641.9931 c -57.306458 0.0 -103.777725 51.449768 -103.777725 114.81592 c 0.0 13.099976 1.9940186 
        25.649841 5.654129 37.38275 h 196.30374 c 3.6619873 -11.73291 5.654114 -24.28064 5.654114 
        -37.38275 C 425.83594 693.4408 379.30814 641.9931 322.00168 641.9931 z" id="path3165"
        stroke="#000000" stroke-width="4"/>
    <path stroke-linecap="round" fill="#FFFFFF" stroke-linejoin="round" d="M 415.1591 232.00775 c 0.0 23.54712 -17.263947 42.636566 -38.561157 42.636566 c -21.295319 0.0 -38.559265 
        -19.089447 -38.559265 -42.636566 s 17.263947 -42.63655 38.559265 -42.63655 C 397.89514 
        189.3712 415.1591 208.46063 415.1591 232.00775 z" id="path3177" stroke="#000000"
        stroke-width="1.8462"/>
    <path stroke-linecap="round" fill="#FFFFFF" stroke-linejoin="round" d="M 500.58542 232.00775 c 0.0 23.54712 -17.263947 42.636566 -38.559265 42.636566 c -21.29721 0.0 -38.559265 -19.089447 
        -38.559265 -42.636566 s 17.262054 -42.63655 38.559265 -42.63655 C 483.31958 189.3712 
        500.58542 208.46063 500.58542 232.00775 z" id="path3179" stroke="#000000" stroke-width="1.8462"/>
    <path id="path3183" d="M 465.1359 240.20204 c 0.0 7.6086884 -5.5787354 13.775238 -12.457916 
        13.775238 s -12.457916 -6.1665497 -12.457916 -13.775238 c 0.0 -7.606598 5.5787354 -13.775238 
        12.457916 -13.775238 S 465.1359 232.59544 465.1359 240.20204 L 465.1359 240.20204 z"/>
    <path id="path3192" d="M 383.99542 319.5816 c 7.8064575 -14.567139 55.69879 -15.2673645 
        65.716034 -0.9940491 c 9.5121155 13.552246 -14.286102 52.12918 -32.858032 50.5495 C 
        398.33615 367.5636 376.03625 334.44052 383.99542 319.5816 z"/>
    <path stroke-linecap="round" fill="#FFFFFF" stroke-linejoin="round" d="M 312.81372 761.077 c 0.0 20.14392 -12.446625 36.46997 -27.799469 36.46997 c -15.352814 0.0 -27.799438 -16.32605 
        -27.799438 -36.46997 c 0.0 -20.13977 12.446625 -36.47003 27.799438 -36.47003 C 300.3671 
        724.607 312.81372 740.93726 312.81372 761.077 L 312.81372 761.077 z" id="path3220" stroke="#000000"
        stroke-width="4"/>
    <path stroke-linecap="round" fill="#FFFFFF" stroke-linejoin="round" d="M 382.54794 761.077 c 0.0 20.14392 -12.446625 36.46997 -27.799469 36.46997 c -15.352844 0.0 -27.799438 -16.32605 
        -27.799438 -36.46997 c 0.0 -20.13977 12.446594 -36.47003 27.799438 -36.47003 C 370.10135 
        724.607 382.54794 740.93726 382.54794 761.077 L 382.54794 761.077 z" id="path3224" stroke="#000000"
        stroke-width="4"/>
    <path stroke-linecap="round" fill="#FFFFFF" stroke-linejoin="round" d="M 349.56552 761.077 c 0.0 20.14392 -12.446594 36.46997 -27.799438 36.46997 c -15.352844 0.0 -27.799469 -16.32605 
        -27.799469 -36.46997 c 0.0 -20.13977 12.446625 -36.47003 27.799469 -36.47003 C 337.11893 
        724.607 349.56552 740.93726 349.56552 761.077 L 349.56552 761.077 z" id="path3222" stroke="#000000"
        stroke-width="4"/>
    <path stroke-linecap="round" fill="#FFFFFF" stroke-linejoin="round" d="M 526.7282 761.077 c 0.0 20.14392 -12.446655 36.46997 -27.7995 36.46997 s -27.799438 -16.32605 -27.799438 -36.46997 c 
        0.0 -20.13977 12.446625 -36.47003 27.799438 -36.47003 S 526.7282 740.93726 526.7282 761.077 
        L 526.7282 761.077 z" id="path3226" stroke="#000000" stroke-width="4"/>
    <path stroke-linecap="round" fill="#FFFFFF" stroke-linejoin="round" d="M 596.4624 761.077 c 0.0 20.14392 -12.446594 36.46997 -27.799438 36.46997 s -27.799438 -16.32605 -27.799438 -36.46997 
        c 0.0 -20.13977 12.446594 -36.47003 27.799438 -36.47003 S 596.4624 740.93726 596.4624 
        761.077 L 596.4624 761.077 z" id="path3228" stroke="#000000" stroke-width="4"/>
    <path stroke-linecap="round" fill="#FFFFFF" stroke-linejoin="round" d="M 563.48 761.077 c 0.0 20.14392 -12.446594 36.46997 -27.799438 36.46997 s -27.799438 -16.32605 -27.799438 -36.46997 
        c 0.0 -20.13977 12.446594 -36.47003 27.799438 -36.47003 S 563.48 740.93726 563.48 761.077 L 
        563.48 761.077 z" id="path3230" stroke="#000000" stroke-width="4"/>
    <path id="path3244" d="M 527.1711 506.96863 c -6.189392 25.54358 -29.936707 40.702637 -53.03946 
        33.858765 s -36.812164 -33.102264 -30.622772 -58.64795 c 6.191284 -25.545654 29.938599 
        -40.70468 53.04138 -33.86081 C 519.6511 455.16455 533.3605 481.42297 527.1711 506.96863 L 
        527.1711 506.96863 z" fill-opacity="0.3137"/>
    <path stroke-linecap="round" fill="#FFFFFF" stroke-linejoin="round" d="M 393.7921 461.2561 c 11.960358 22.903168 4.862549 52.189636 -15.850403 65.4126 c -20.712952 13.225037 -47.19876 
        5.376709 -59.157227 -17.526459 c -11.958496 -22.903137 -4.862549 -52.189606 15.852264 
        -65.4126 C 355.34784 430.50668 381.83554 438.35504 393.7921 461.2561 L 393.7921 461.2561 z"
        id="path3159" stroke="#000000" stroke-width="2"/>
    <path stroke-linecap="round" fill="#FFFFFF" stroke-linejoin="round" d="M 508.3146 517.7867 c -16.913391 18.699707 -44.332123 18.699707 -61.245514 0.0 c -16.911499 -18.701843 -16.911499 
        -49.019867 0.0 -67.72168 c 16.913391 -18.699738 44.332123 -18.699738 61.245514 0.0 C 
        525.2261 468.76685 525.2261 499.08694 508.3146 517.7867 L 508.3146 517.7867 z" id="path3161"
        stroke="#000000" stroke-width="2"/>
    <path stroke-linecap="round" fill="#FFFFFF" stroke-linejoin="round" d="M 364.76947 502.1129 c 4.683502 8.971619 2.7026978 19.931396 -4.4271545 24.48285 c -7.1279907 4.5514526 -16.704193 
        0.9690552 -21.387695 -8.002563 s -2.7026672 -19.931396 4.427185 -24.48285 C 350.51166 
        489.5589 360.08597 493.1413 364.76947 502.1129 L 364.76947 502.1129 z" id="path3264" stroke="#000000"
        stroke-width="2"/>
    <path stroke-linecap="round" fill="#FFFFFF" stroke-linejoin="round" d="M 397.1488 481.44382 c 4.683502 8.971619 2.7045593 19.931366 -4.427185 24.482819 c -7.1260986 4.5514526 -16.704163 
        0.9690552 -21.387665 -8.002563 c -4.6853943 -8.971619 -2.7026978 -19.931366 4.425293 
        -24.482819 C 382.88907 468.88977 392.4634 472.4722 397.1488 481.44382 L 397.1488 481.44382 
        z" id="path3266" stroke="#000000" stroke-width="2"/>
    <path stroke-linecap="round" fill="#FFFFFF" stroke-linejoin="round" d="M 385.60495 500.59787 c 4.683502 8.971619 2.7026672 19.931366 -4.427185 24.482819 s -16.704163 0.96698 -21.389557 
        -8.002563 c -4.683502 -8.971619 -2.7026672 -19.931366 4.427185 -24.484894 C 371.34335 
        488.04385 380.91956 491.62622 385.60495 500.59787 L 385.60495 500.59787 z" id="path3268"
        stroke="#000000" stroke-width="2"/>
    <path stroke-linecap="round" fill="#FFFFFF" stroke-linejoin="round" d="M 471.35733 503.98853 c -4.6816406 8.971619 -2.7026978 19.931396 4.4290466 24.484924 c 7.1260986 4.5514526 16.704193 
        0.96698 21.387695 -8.004639 c 4.683502 -8.971619 2.7026672 -19.931396 -4.425293 -24.48285 C 
        485.61703 491.43658 476.04272 495.0169 471.35733 503.98853 L 471.35733 503.98853 z" id="path3270"
        stroke="#000000" stroke-width="2"/>
    <path stroke-linecap="round" fill="#FFFFFF" stroke-linejoin="round" d="M 438.9799 483.31943 c -4.683502 8.971619 -2.7045593 19.931366 4.427185 24.482819 c 7.1279907 4.5514526 16.704193 
        0.9690552 21.387695 -8.002563 c 4.685364 -8.971619 2.7045593 -19.931366 -4.425293 -24.482819 
        C 453.23773 470.76746 443.6634 474.34778 438.9799 483.31943 L 438.9799 483.31943 z" id="path3272"
        stroke="#000000" stroke-width="2"/>
    <path stroke-linecap="round" fill="#FFFFFF" stroke-linejoin="round" d="M 450.52563 502.47552 c -4.6853943 8.971619 -2.7045593 19.931396 4.425293 24.48285 s 16.704193 0.9690552 21.389587 
        -8.002563 s 2.7026672 -19.931396 -4.427185 -24.48285 S 455.20724 493.5039 450.52563 
        502.47552 L 450.52563 502.47552 z" id="path3274" stroke="#000000" stroke-width="2"/>
    <path stroke-linecap="round" fill="#FFFFFF" stroke-linejoin="round" d="M 518.4562 128.11201 c -7.5727234 0.0 -14.182404 4.409729 -17.955597 11.0035095 c 11.579681 8.623596 21.549774 
        19.635452 29.339264 32.44371 c 5.942505 -4.1763306 9.904175 -11.549515 9.904175 -19.906357 C 
        539.744 138.6633 530.2017 128.11201 518.4562 128.11201 z" id="path2483" stroke="#000000"
        stroke-width="4"/>
    <path id="path2515" d="M 400.2755 240.20204 c 0.0 7.6086884 -5.5787354 13.775238 -12.457916 
        13.775238 c -6.881073 0.0 -12.457916 -6.1665497 -12.457916 -13.775238 c 0.0 -7.606598 
        5.5768433 -13.775238 12.457916 -13.775238 C 394.69678 226.42888 400.2755 232.59544 400.2755 
        240.20204 L 400.2755 240.20204 z"/>
    <path stroke-linecap="round" fill="#FFFFFF" stroke-linejoin="round" d="M 319.36496 128.11201 c 7.572754 0.0 14.182434 4.409729 17.955627 11.0035095 c -11.579651 8.623596 -21.547882 
        19.635452 -29.339264 32.44371 c -5.9424744 -4.1763306 -9.904144 -11.549515 -9.904144 
        -19.906357 C 298.07718 138.6633 307.61758 128.11201 319.36496 128.11201 z" id="path2523"
        stroke="#000000" stroke-width="4"/>
    <path id="path2525" d="M 546.09546 206.13698 c 1.3984375 8.650681 2.1203003 17.54103 2.1203003 
        26.635605 c 0.0 83.63925 -61.41324 151.54642 -137.05417 151.54642 c -57.743713 0.0 
        -107.12497 -39.602264 -127.276276 -95.53891 c 11.462799 70.85599 67.45749 124.714905 
        134.81512 124.714905 c 75.6409 0.0 137.05414 -67.90506 137.05414 -151.54642 C 555.7546 
        242.22978 552.3188 223.41542 546.09546 206.13698 z" fill-opacity="0.3137"/>
    <path stroke-linecap="round" fill="#FFFFFF" stroke-linejoin="round" d="M 534.54974 258.5704 c 20.477356 -10.409576 69.7738 26.508484 67.74963 37.434906 c -29.250671 -11.468262 -43.732788 
        -11.480774 -59.72455 -4.3284607 c 17.518372 8.04422 36.682068 26.885681 37.794067 46.31064 c 
        -12.162048 -11.316132 -34.510925 -21.969543 -57.3291 -17.274292 c 11.449646 14.96106 
        26.968323 28.71753 22.778625 48.31131 c -14.173035 -16.605316 -28.12738 -18.876892 -42.11194 
        -23.007355" id="path2413" stroke="#000000" stroke-width="4"/>
    <path stroke-linecap="round" fill="#FFFFFF" stroke-linejoin="round" d="M 303.44482 258.5704 c -20.477356 -10.409576 -69.7738 26.508484 -67.74962 37.434906 c 29.250687 -11.468262 
        43.734665 -11.480774 59.726425 -4.3284607 c -17.520264 8.04422 -36.6821 26.885681 -37.794067 
        46.31064 c 12.162018 -11.316132 34.509033 -21.969543 57.32907 -17.274292 c -11.451477 
        14.96106 -26.968292 28.71753 -22.778595 48.31131 c 14.171143 -16.605316 28.12741 -18.876892 
        42.110046 -23.007355" id="path3197" stroke="#000000" stroke-width="4"/>
    <path fill="#FFFFFF" id="path3225" d="M 397.8612 384.29605 c 12.303375 4.643158 30.579407 
        4.147156 39.980316 0.0 c 9.645966 -4.2555237 -3.8542175 33.062683 -7.994934 36.840973 c 
        -3.7995605 3.4615173 -21.52713 3.0176086 -25.322937 0.0 C 400.43762 417.88806 386.3494 
        379.9551 397.8612 384.29605 z" stroke-width="4" stroke="#000000" stroke-linejoin="round"/>
</svg>