<?xml version="1.0" standalone="no"?>
<!--Created with Sketsa SVG Editor (http://www.kiyut.com)-->
<svg contentScriptType="text/ecmascript" width="700.0px" xmlns:xlink="http://www.w3.org/1999/xlink"
    baseProfile="full" zoomAndPan="magnify" contentStyleType="text/css" height="700.0px"
    preserveAspectRatio="xMidYMid meet" xmlns="http://www.w3.org/2000/svg" version="1.0">
    <g id="Layer_1" >
        <g>
            <path fill-rule="evenodd" d="M 625.67957 226.94588 c 3.871643 -24.62616 
                1.875061 -49.108307 -6.003662 -73.44643 c -8.125305 -24.914185 -17.50061 -50.836456 
                -41.626465 -73.30242 c -24.750854 -22.897999 -67.37384 -46.660076 -104.25009 
                -60.197266 c -37.37628 -13.681196 -74.752594 -18.86565 -117.37906 -19.4417 c 
                -43.501495 -0.7200634 -95.503265 1.7281508 -138.12973 16.273422 c -42.501465 
                14.833298 -86.752975 43.20378 -114.503944 70.71019 c -27.875954 26.786346 -44.501526 
                58.325104 -51.376762 89.575836 c -6.8752327 30.962708 -4.250145 62.069427 9.25032 
                94.90431 c -1.0000343 12.241058 -5.875202 19.009674 -15.125519 20.881836 c -9.750336 
                1.2961121 -34.126175 -13.393188 -40.751404 -10.656952 c -6.75023 2.880249 -2.7500925 
                21.313873 1.8750663 27.506409 c 4.37515 5.760498 12.8754425 7.9207153 25.000856 
                7.05661 c -8.875303 5.616516 -13.250454 11.233002 -13.625467 16.273438 c -0.50001717 
                4.8964233 3.5001202 9.792847 11.500397 14.113251 l -23.500809 37.299255 l 2.125074 
                19.877747 c 7.5002584 -1.2961121 15.250524 -1.2961121 23.750816 -0.5800781 c 
                8.375286 0.72006226 17.000584 2.736267 26.375904 5.468506 c -6.8752327 4.180359 
                -10.000343 11.384979 -9.8753395 21.025818 c 0.37501526 9.50885 3.3751183 22.041931 
                10.875374 37.01126 c -5.2501793 28.658478 -5.500187 53.57669 0.6250229 74.75052 c 
                5.7501945 21.025879 9.500324 30.814697 34.37618 51.55249 c 24.750854 20.305786 
                69.25239 52.42462 113.2539 69.70215 c 43.626495 16.71344 91.50314 33.846924 
                147.50507 29.814575 c 55.751923 -5.1884155 141.13333 -26.35431 184.25635 -57.465027 
                c 42.251404 -31.246704 65.49878 -73.734436 69.75238 -128.59525 l 17.872131 
                -25.346222 c 4.000122 -15.845367 6.500244 -29.094543 6.500244 -40.903564 c -0.125 
                -11.953064 -1.750061 -21.313873 -5.871765 -29.238556 c 0.75006104 -8.064697 
                0.99658203 -17.713562 0.75006104 -28.946533 c -0.25 -11.805054 -1.375061 -24.47815 
                -2.875122 -39.7435 c 7.250244 0.14404297 14.250488 1.7281799 22.375793 5.328491 c 
                8.000244 3.3122864 16.25055 17.857544 24.750854 14.685272 c 8.371765 -3.6003113 
                23.122314 -18.861633 23.500793 -35.855133 c -0.375 -17.713562 -12.750427 -51.268494 
                -24.625854 -67.97394 C 660.3057 242.2112 645.1767 231.69829 625.67957 226.94588 z"
                stroke="#000000" clip-rule="evenodd" stroke-width="0.036" stroke-miterlimit="10"/>
            <path  fill="#FFFFFF" fill-rule="evenodd" d="M 616.0542 238.7589 c -6.250183 32.402847 -24.125793 57.89308 -55.126892 78.77489 c -31.501099 20.449799 
                -81.37778 35.423096 -130.876 42.627747 c -50.13022 6.336548 -114.132416 3.1722717 
                -165.50919 -2.8842468 c -51.62677 -6.476593 -104.37857 -14.685303 -139.37978 
                -34.127014 C 90.036125 303.27255 65.16027 272.16583 57.285 239.907 c -7.5002556 
                -32.83487 -0.50001526 -76.902725 21.500736 -110.601685 c 21.750748 -34.419006 
                68.37735 -70.56616 107.12868 -90.727936 c 38.876343 -20.01775 84.377914 -23.618065 
                122.504196 -27.506405 c 37.25128 -4.3203783 66.12729 -2.592227 100.625 3.600315 c 
                34.37619 5.6164913 73.25598 14.113235 105.00363 32.69086 c 31.626038 18.721638 
                65.1272 45.21995 82.62781 77.7668 C 613.55414 157.5318 621.92944 205.77602 616.0542 
                238.7589 z" stroke="#000000" stroke-width="0.036" clip-rule="evenodd"
                stroke-miterlimit="10"/>
            <path  fill="#FFFFFF" fill-rule="evenodd" d="M 626.8011 234.57854 c 11.878906 3.0242767 22.879272 10.512924 32.50116 22.465988 c 9.625305 11.953033 
                21.375732 32.114807 25.125854 48.2442 c 2.996643 15.553375 -1.000061 38.883423 
                -5.250183 45.507996 c -4.253601 6.048523 -10.753845 -2.880249 -21.004211 -6.768585 c 
                -11.246887 -4.4644165 -28.375977 -12.673126 -43.251465 -16.849487 c -14.750488 
                -4.176361 -29.497559 -6.768585 -44.751526 -7.7766724 c 11.250366 -3.6003113 
                21.629211 -11.953064 31.126038 -26.210297 C 610.679 278.7904 619.1793 259.63672 
                626.8011 234.57854 z" stroke="#000000" stroke-width="0.036" clip-rule="evenodd"
                stroke-miterlimit="10"/>
            <path fill="#FFFFFF" fill-rule="evenodd" d="M 533.29785 409.70184 c -10.625366 3.7443237 -19.12561 14.109253 -26.000885 31.102722 c -7.0002136 16.9935 
                -11.875397 39.603485 -15.12204 69.5621 c -2.000061 -5.3284607 -10.000336 -12.961151 
                -25.875885 -22.32196 c -15.750549 -9.360809 -38.251312 -21.025848 -68.00235 
                -34.423004 c 2.750122 -6.048523 7.000244 -9.072815 12.250427 -10.220917 c 5.250183 
                -1.4441223 14.250488 5.900543 19.750702 3.7443542 c 5.500183 -2.5922241 9.125305 
                -7.3446655 12.375397 -16.41745 c 4.996704 6.4765625 10.371887 9.212799 15.625549 
                8.204712 c 5.375183 -1.1481018 11.000366 -14.401245 16.37558 -14.68927 c 5.0001526 
                -0.72006226 9.125305 3.0242615 12.875427 11.236969 c 2.6250916 -14.829285 7.7502747 
                -24.338135 15.375519 -28.518494 C 510.67557 402.3572 520.2974 403.79333 533.29785 
                409.70184 z" stroke="#000000" stroke-width="0.036" clip-rule="evenodd"
                stroke-miterlimit="10"/>
            <path fill="#FFFFFF" fill-rule="evenodd" d="M 395.67163 456.50195 c 11.500397 5.328491 21.625732 10.080902 31.376068 14.837311 c 9.250336 4.3203735 
                15.250549 6.336548 26.122437 13.245148 c 11.000366 6.916626 23.629272 15.845398 
                38.876343 27.362396 l -1.625061 15.125336 c -15.375519 -12.821106 -30.376038 
                -24.05011 -46.876617 -33.698944 c -16.25055 -9.796875 -33.37613 -17.861572 -50.87674 
                -24.77417 C 393.67154 464.56668 394.6716 460.5343 395.67163 456.50195 z" stroke="#000000"
                stroke-width="0.036" clip-rule="evenodd" stroke-miterlimit="10"/>
            <path fill="#FFFFFF" fill-rule="evenodd" d="M 12.283455 383.19952 l 22.000755 -28.222473 c 9.500328 7.9167175 16.87558 12.093079 23.500809 13.101166 c 
                6.12521 0.42803955 9.750336 -8.928772 14.750504 -8.640747 c 4.50016 -0.14804077 
                8.625298 10.656921 14.375496 9.648834 c 5.5001907 -1.584137 16.250557 -18.72165 
                20.250694 -17.573547 c 3.8751373 0.8680725 5.0001755 8.352722 3.3751144 23.042023 c 
                2.5000916 5.6164856 4.125145 9.50882 4.875168 13.829224 c 0.7500305 3.8843384 
                0.5000229 6.7645874 -0.25000763 9.212799 c -12.8754425 -5.1804504 -27.750954 
                -8.780762 -44.626534 -10.796967 c -17.000584 -2.0161743 -36.001236 -2.8842468 
                -57.00196 -2.0161743 L 12.283455 383.19952 z" stroke="#000000" stroke-width="0.036"
                clip-rule="evenodd" stroke-miterlimit="10"/>
            <path  fill="#FFFFFF" fill-rule="evenodd" d="M 119.03712 403.79333 c -9.37532 -4.752411 -22.50077 -7.7726746 -40.751396 -10.656921 c -18.25063 -3.0242615 
                -40.25139 -4.3203735 -67.37732 -5.4684753 l 2.3750849 9.212799 c 9.750335 0.72006226 
                20.12569 2.3041992 31.626087 4.180359 c 11.250385 1.7281494 24.000828 4.0323486 
                36.876263 7.48468 c 12.625435 3.0242615 25.750885 7.05661 39.376358 12.101044 C 
                120.53718 415.03033 119.78714 409.41382 119.03712 403.79333 z" stroke="#000000"
                stroke-width="0.036" clip-rule="evenodd" stroke-miterlimit="10"/>
            <path  fill="#FFFFFF" fill-rule="evenodd" d="M 118.28362 333.6592 c -1.6250534 11.521027 -1.3750458 23.186035 0.25000763 36.579224 c 1.6250534 12.821106 
                4.62516 28.658508 9.50032 41.479614 c 4.625168 12.385071 5.5001984 25.198212 
                19.000656 32.83087 c 13.375458 7.4926453 41.12642 24.19812 60.62709 11.2369995 c 
                19.125656 -14.109253 37.001266 -44.06787 54.126846 -92.60013 c -20.375687 
                -0.72006226 -41.876434 -3.7443237 -66.00226 -8.492737 C 171.53893 349.78864 
                146.16306 342.58798 118.28362 333.6592 z" stroke="#000000" stroke-width="0.036"
                clip-rule="evenodd" stroke-miterlimit="10"/>
            <path  fill="#FFFFFF" fill-rule="evenodd" d="M 68.410385 412.57812 c 10.750366 1.1560974 20.375702 2.8842468 30.376045 5.764496 c 9.625328 2.5842285 
                18.62564 5.7565002 27.500946 10.080872 c 1.8750687 9.212799 6.000206 16.84549 
                13.875481 23.470062 c 7.375244 6.336548 20.875717 11.813019 31.376068 14.83728 c 
                9.875351 2.3042297 19.875687 6.0485535 30.501053 1.1481018 c 11.000381 -5.1804504 
                21.625748 -15.26532 33.87616 -30.814697 c 8.12529 0.72006226 16.375565 0.2880249 
                25.250885 -0.72006226 c 8.625275 -1.4441223 17.50058 -3.4602966 26.625916 -6.6245728 
                c -3.500122 10.220886 -1.750061 17.42154 4.7501526 20.017761 c 6.750244 2.4442139 
                17.62561 1.8681641 34.50119 -3.3122864 l -3.500122 33.41092 c -18.62564 11.953033 
                -40.501404 20.017761 -65.62726 23.618073 c -25.750885 3.892334 -54.25186 12.961151 
                -86.00296 -1.584137 C 139.90936 486.45657 106.03668 457.22205 68.410385 412.57812 z"
                stroke="#000000" stroke-width="0.036" clip-rule="evenodd" stroke-miterlimit="10"/>
            <path  fill="#FFFFFF" fill-rule="evenodd" d="M 355.54526 467.2989 c 8.000275 11.092987 20.250702 19.585724 37.75128 27.222382 c 17.497131 7.204651 
                38.747864 12.385101 65.75229 16.133423 c -16.00055 -8.640747 -30.376068 -15.557373 
                -43.126495 -22.902008 c -13.000458 -7.2046204 -24.125824 -13.541168 -33.87616 
                -19.585693 l -15.253998 -24.918182 C 363.04202 451.1735 359.2919 459.2382 355.54526 
                467.2989 z" stroke="#000000" stroke-width="0.036" clip-rule="evenodd"
                stroke-miterlimit="10"/>
            <path  fill="#FFFFFF" fill-rule="evenodd" d="M 392.41803 428.99957 c -5.125183 -20.453796 -10.246887 -41.051605 -15.500519 -61.63739 C 350.42007 
                368.79828 328.79086 369.51834 310.5437 369.51834 c -18.12561 -0.2880249 -32.3761 
                -1.2961121 -42.251434 -3.0242615 c -11.625397 23.470062 -18.875656 40.323517 
                -21.250732 51.120483 c -2.5000916 10.376892 0.8750305 10.804932 6.2502136 12.393066 
                c 5.125183 1.2881165 14.750519 -1.4441223 24.000824 -3.7523193 c 8.500305 -2.4442139 
                17.87561 -6.336548 28.125977 -11.084961 c -8.125275 9.50882 -12.125427 16.273407 
                -12.500427 20.885834 c -0.37503052 4.1723633 3.2500916 5.7565002 10.375336 6.4765625 
                c 6.500244 0.72006226 16.25058 -0.14001465 29.251007 -2.0161743 c -2.000061 
                12.961121 -1.3750305 22.32193 0.5000305 27.510406 c 2.250061 5.3284607 6.8752136 
                10.3688965 11.875397 3.452301 c 4.6251526 -7.772705 9.753815 -23.330048 15.875549 
                -48.24823 c 11.875397 17.861572 20.250702 27.510406 25.625885 28.370483 C 391.543 
                452.4696 393.5431 445.12497 392.41803 428.99957 z" stroke="#000000" stroke-width="0.036"
                clip-rule="evenodd" stroke-miterlimit="10"/>
            <path  fill="#FFFFFF" fill-rule="evenodd" d="M 504.42535 495.52936 c 8.125244 -2.5922241 17.50061 -7.1966248 28.125977 -12.673096 c 10.750366 -5.7565002 
                22.000732 -12.961151 35.12616 -21.601898 c -4.875122 -21.74591 -9.125305 -34.419006 
                -12.250366 -38.58737 c -3.375122 -4.468384 -4.125183 14.829285 -7.000244 13.533173 c 
                -3.125122 -1.2961121 -6.875244 -8.780762 -11.250427 -21.885895 c -10.125305 8.204712 
                -18.12561 19.149658 -23.500793 32.83087 C 508.29703 460.5343 505.05038 476.66772 
                504.42535 495.52936 z" stroke="#000000" stroke-width="0.036" clip-rule="evenodd"
                stroke-miterlimit="10"/>
            <path  fill="#FFFFFF" fill-rule="evenodd" d="M 620.8044 354.82907 l -19.125671 22.181946 c 0.625 12.093048 2.121582 22.32196 4.500122 30.674683 c 
                2.246643 8.352722 4.996704 14.401245 8.750305 18.721619 l 9.625366 -13.393158 C 
                623.30096 393.71646 622.0544 374.27078 620.8044 354.82907 z" stroke="#000000"
                stroke-width="0.036" clip-rule="evenodd" stroke-miterlimit="10"/>
            <path  fill="#FFFFFF" fill-rule="evenodd" d="M 606.8004 432.16385 c -1.875061 -6.4765625 -5.500183 -9.648865 -10.371887 -9.5008545 c -5.500183 
                -0.2880249 -17.37909 5.0404663 -20.12915 9.928894 c -2.625122 4.6083984 -0.99658203 
                10.944946 4.875122 18.437592 c 6.375244 -3.4602966 11.750427 -7.2046204 16.129028 
                -10.084869 C 601.30023 437.92432 604.92535 434.60806 606.8004 432.16385 z" stroke="#000000"
                stroke-width="0.036" clip-rule="evenodd" stroke-miterlimit="10"/>
            <path  fill="#FFFFFF" fill-rule="evenodd" d="M 60.406635 415.45837 c -6.12521 0.14001465 -7.6252594 6.4765625 -4.5001526 19.585693 c 3.2501106 13.245178 
                11.625401 39.603485 22.250767 57.317017 c 10.000343 16.705475 12.8754425 25.634277 
                38.50132 44.06787 c 25.750885 18.141602 64.37721 50.40442 113.50391 65.08966 c 
                49.12668 14.549316 123.62924 28.658508 176.75607 21.74591 c 52.3768 -7.6326294 
                99.12839 -40.89557 135.50119 -65.381714 c 35.87622 -24.918152 61.752075 -50.98044 
                79.002686 -80.93506 c 6.128723 -26.206299 8.500305 -41.183624 6.625244 -47.088135 c 
                -2.000061 -5.9085083 -6.871765 4.752411 -17.50061 13.101166 c -11.125366 8.2127075 
                -29.626038 24.62613 -47.376648 36.43918 c -18.12909 11.516998 -37.37976 21.453888 
                -59.127014 31.394745 l -8.625275 27.222382 l -28.747528 -17.861572 c -11.125397 
                3.024292 -26.254364 1.4361572 -44.880005 -4.7523804 c -19.125671 -6.4845886 
                -41.251434 -17.281525 -67.87735 -32.978912 c -23.250793 12.525085 -47.126617 
                22.033936 -73.62753 27.938446 c -26.625916 5.9005127 -57.37697 12.525085 -83.62787 
                7.6326904 c -26.875916 -5.9085693 -51.50177 -22.181976 -74.377556 -39.31546 C 
                99.53645 461.4024 78.91074 440.51657 60.406635 415.45837 z" stroke="#000000"
                stroke-width="0.036" clip-rule="evenodd" stroke-miterlimit="10"/>
            <path  fill-rule="evenodd" d="M 227.91586 538.87714 c 2.000061 2.4522095 
                73.3775 20.885864 111.878845 22.46997 c 38.126312 0.5720825 101.25696 -11.664978 
                115.62897 -15.705383 c 13.750458 -4.1723633 -10.628845 -7.484619 -31.626099 
                -7.196594 c -21.372253 0.0 -61.627106 8.640747 -94.253235 8.780762 C 296.2932 
                546.9419 226.4158 536.57294 227.91586 538.87714 z" stroke="#000000" clip-rule="evenodd"
                stroke-width="0.036" stroke-miterlimit="10"/>
            <path  fill="#FFFFFF" fill-rule="evenodd" d="M 63.785225 485.7405 c 13.375458 22.461975 31.001068 42.91977 53.876846 62.933502 c 22.37577 19.729736 
                49.3767 40.603577 82.002815 54.864807 c 33.126144 13.681213 72.12747 22.46997 
                113.12891 26.930359 c 40.376373 4.460388 89.00305 6.7645874 127.129364 -1.4360962 c 
                37.87628 -8.928833 70.37741 -30.962708 98.00336 -49.972412 c 27.129395 -19.009644 
                48.001648 -39.895447 64.00568 -63.225525 c 1.625061 18.141602 -3.750122 36.58319 
                -16.129028 55.88092 c -12.875427 19.149658 -33.49768 42.479675 -58.502014 58.897156 
                c -25.379333 15.985352 -53.00528 29.52655 -91.12811 37.879272 c -38.876343 8.064697 
                -90.37811 16.125427 -136.6297 10.3688965 c -46.126587 -6.4765625 -101.503494 
                -28.510498 -137.75473 -47.808167 c -36.626266 -20.017761 -62.252144 -43.92383 
                -78.877716 -68.414 C 66.53532 538.0171 60.160095 512.95087 63.785225 485.7405 z"
                stroke="#000000" stroke-width="0.036" clip-rule="evenodd" stroke-miterlimit="10"/>
            <path  fill="#FFFFFF" fill-rule="evenodd" d="M 386.04282 372.25458 c 4.3786316 20.305786 9.250336 35.575104 14.625519 46.37207 c 5.3786316 10.656921 
                11.125366 14.409241 16.75055 17.281494 c 5.3752136 2.3041992 10.753845 0.0 14.625519 
                -2.4442139 c 3.2535706 -2.8842468 5.1286316 -7.2046204 5.625183 -13.541168 c 
                5.8752136 4.7564087 11.125397 7.344635 15.750549 6.6245728 c 4.1251526 -1.1481018 
                5.500183 -8.640778 10.875366 -10.220886 c 5.253662 -1.7361755 12.125427 -1.2961426 
                21.125732 0.72006226 c 1.875061 -13.681213 6.5002136 -21.753906 15.253998 -25.346222 
                c 8.621826 -3.6003113 27.750977 -0.2880249 35.62622 4.3203735 c 7.250244 4.600403 
                5.125183 18.721619 8.625305 21.74591 c 2.750061 2.156189 6.375244 -13.829224 
                10.875366 -7.3446655 c 4.375183 6.1885376 13.247009 40.175537 15.99707 44.783936 c 
                2.250061 4.180359 -1.246582 -11.377014 -0.875 -18.289612 c -0.125 -7.4846497 
                -0.75006104 -20.585785 2.000061 -24.338135 c 3.125122 -3.7443237 9.250305 1.0080872 
                14.500488 2.0161743 c 4.750183 0.14801025 9.003784 0.7280884 13.250427 0.5800476 c 
                -4.750122 -9.936859 -7.500244 -19.729706 -7.250244 -27.790405 c -0.25 -8.500763 
                2.500122 -14.549286 7.250244 -22.609985 c 4.500183 -8.500763 11.375427 -16.9935 
                20.622253 -26.642334 l -56.626953 -11.232971 c -12.125427 7.63266 -28.500977 
                15.697357 -49.62671 22.609955 c -21.750732 7.0566406 -55.751892 16.125427 -77.377655 
                20.017761 C 415.92233 373.41068 399.04327 374.12674 386.04282 372.25458 z" stroke="#000000"
                stroke-width="0.036" clip-rule="evenodd" stroke-miterlimit="10"/>
            <path  fill="#FFFFFF" fill-rule="evenodd" d="M 69.41042 278.50238 c 1.2500381 8.7847595 -1.1250458 14.257263 -5.750202 18.001587 c -5.2501793 3.168274 
                -15.000515 2.5922241 -23.87582 2.1601868 c -9.37532 -1.0080872 -27.000927 -8.7847595 
                -30.251038 -7.2006226 c -3.0001035 1.4401245 5.500189 11.665009 11.500395 15.697357 
                c 5.500189 3.7443237 13.125452 5.040436 22.375769 5.472473 c -7.125244 9.216827 
                -10.125347 17.425537 -10.000343 24.05011 c 0.37501144 6.6245728 6.12521 13.105164 
                11.500393 15.549377 c 5.0001717 1.7281494 12.500431 -2.7362366 18.62564 -2.3002014 c 
                5.5001907 0.5760498 7.375252 8.068695 15.750542 5.1844482 c 8.125275 -3.7443237 
                18.62564 -12.529114 32.501114 -26.35431 c -5.1251755 -2.1601868 -11.000381 -7.63266 
                -18.125626 -15.8414 C 86.66101 304.56866 78.41073 292.90363 69.41042 278.50238 z"
                stroke="#000000" stroke-width="0.036" clip-rule="evenodd" stroke-miterlimit="10"/>
            <path  fill-rule="evenodd" d="M 159.16002 353.53293 c -0.50001526 -1.1481018 -6.0001984 -2.3041992 -6.3752136 -1.7281494 c -0.50001526 0.42803955 
                1.0000305 3.3122864 2.5000916 4.180359 C 156.16339 355.98514 159.53851 354.253 
                159.16002 353.53293 z" stroke="#000000" clip-rule="evenodd" stroke-width="0.036"
                stroke-miterlimit="10"/>
            <path  fill-rule="evenodd" d="M 161.28857 367.9342 c -0.50001526 -1.1481018 -6.0001984 -2.3042297 -6.3752136 -1.7281799 c -0.50001526 0.43606567 
                1.0000305 3.312317 2.5000916 4.1803894 C 158.285 370.38644 161.66359 368.6583 
                161.28857 367.9342 z" stroke="#000000" clip-rule="evenodd" stroke-width="0.036"
                stroke-miterlimit="10"/>
            <path  fill-rule="evenodd" d="M 161.78859 396.4487 c -0.50001526 -1.1560974 -6.0002136 -2.3041992 -6.3752136 -1.7281494 c -0.5000305 0.42803955 
                1.0000305 3.3122864 2.5000763 4.1723633 C 158.78848 398.8969 162.1636 397.16876 
                161.78859 396.4487 z" stroke="#000000" clip-rule="evenodd" stroke-width="0.036"
                stroke-miterlimit="10"/>
            <path  fill-rule="evenodd" d="M 160.28854 382.33948 c -0.50001526 -1.1560974 -6.0002136 -2.3041992 -6.375229 -1.736145 c -0.50001526 0.43603516 
                1.0000458 3.3122864 2.5000916 4.180359 C 157.28844 384.7837 160.66356 383.05954 
                160.28854 382.33948 z" stroke="#000000" clip-rule="evenodd" stroke-width="0.036"
                stroke-miterlimit="10"/>
            <path  fill-rule="evenodd" d="M 165.53873 412.86612 c -0.50001526 -1.1481018 -6.0002136 -2.3041992 -6.375229 -1.7281494 c -0.50001526 0.42803955 
                1.0000458 3.3122864 2.5000916 4.1803894 C 162.5386 415.31833 165.91373 413.58618 
                165.53873 412.86612 z" stroke="#000000" clip-rule="evenodd" stroke-width="0.036"
                stroke-miterlimit="10"/>
            <path  fill-rule="evenodd" d="M 168.03882 428.85153 c -0.50001526 -1.1481018 -6.0002136 -2.3041992 -6.375229 -1.7281494 c -0.37501526 0.42803955 
                0.7500305 3.3122864 2.3750916 4.1723633 C 164.7887 431.29575 168.53882 429.5716 
                168.03882 428.85153 z" stroke="#000000" clip-rule="evenodd" stroke-width="0.036"
                stroke-miterlimit="10"/>
            <path  fill-rule="evenodd" d="M 183.53586 432.74387 c 0.12501526 -1.1560974 5.6251984 -1.7281494 6.375229 -1.1560974 c 0.37501526 0.5800476 -1.625061 
                3.1722717 -2.6250916 3.892334 C 185.91443 435.33612 183.03932 433.31992 183.53586 
                432.74387 z" stroke="#000000" clip-rule="evenodd" stroke-width="0.036"
                stroke-miterlimit="10"/>
            <path  fill-rule="evenodd" d="M 188.16103 415.60236 c 0.37501526 -1.1481018 5.7501984 -1.5801392 6.500229 -1.2881165 c 0.50001526 0.42803955 
                -1.8750763 3.452301 -2.7501068 4.0323486 C 190.53958 418.1946 187.66101 416.17844 
                188.16103 415.60236 z" stroke="#000000" clip-rule="evenodd" stroke-width="0.036"
                stroke-miterlimit="10"/>
            <path  fill-rule="evenodd" d="M 192.16464 399.76498 c 0.125 -1.1560974 5.625183 -1.7281494 6.3752136 -1.1560974 c 0.37501526 0.5800476 -1.625061 3.1722717 
                -2.6250916 3.892334 C 194.53972 402.3572 191.66461 400.34103 192.16464 399.76498 z"
                stroke="#000000" clip-rule="evenodd" stroke-width="0.036" stroke-miterlimit="10"/>
            <path  fill-rule="evenodd" d="M 197.66483 385.93576 c 0.125 -1.1481018 5.6251984 -1.5801392 6.3752136 -1.2881165 c 0.37501526 0.42803955 -1.6250458 
                3.452301 -2.6250916 4.0323486 C 200.03992 388.528 197.1648 386.51184 197.66483 
                385.93576 z" stroke="#000000" clip-rule="evenodd" stroke-width="0.036"
                stroke-miterlimit="10"/>
            <path  fill-rule="evenodd" d="M 200.91493 370.95447 c 0.37501526 -1.1481018 5.7501984 -1.5801392 6.500229 -1.2881165 c 0.50001526 0.572052 -1.875061 
                3.1642761 -2.7500916 3.8843384 C 203.28654 373.26266 200.41492 371.68253 200.91493 
                370.95447 z" stroke="#000000" clip-rule="evenodd" stroke-width="0.036"
                stroke-miterlimit="10"/>
            <path  fill-rule="evenodd" d="M 615.8007 305.72076 c 0.62854004 -0.2880249 2.125122 -6.768585 2.125122 -7.2006226 c -0.37158203 -0.72006226 
                -3.750183 0.8640747 -3.875183 2.4482117 C 613.67914 301.83243 614.9257 306.0128 
                615.8007 305.72076 z" stroke="#000000" clip-rule="evenodd" stroke-width="0.036"
                stroke-miterlimit="10"/>
            <path  fill-rule="evenodd" d="M 631.67975 313.49744 c 0.628479 -0.2880249 2.125061 -6.768585 2.125061 -7.2006226 c -0.375 -0.72006226 -3.750122 
                0.8640747 -3.875122 2.4482117 C 629.5512 309.6091 630.80475 313.78546 631.67975 
                313.49744 z" stroke="#000000" clip-rule="evenodd" stroke-width="0.036"
                stroke-miterlimit="10"/>
            <path  fill-rule="evenodd" d="M 647.1768 322.13818 c 0.628479 -0.2880249 2.000061 -6.768585 2.250061 -7.2006226 c -0.375 -0.72006226 -3.750122 0.8640747 
                -3.875122 2.4482117 C 644.9302 318.24985 646.43024 322.4262 647.1768 322.13818 z"
                stroke="#000000" clip-rule="evenodd" stroke-width="0.036" stroke-miterlimit="10"/>
            <path  fill-rule="evenodd" d="M 666.1809 327.75467 c 0.625 -0.43203735 2.121582 -6.4805603 2.121582 -7.05661 c -0.371521 -1.0080872 -3.750122 0.8640747 
                -3.871643 2.3041992 C 664.05585 323.86633 665.30585 328.04272 666.1809 327.75467 z"
                stroke="#000000" clip-rule="evenodd" stroke-width="0.036" stroke-miterlimit="10"/>
            <path  fill-rule="evenodd" d="M 659.1772 301.4004 c 0.628479 -0.2880249 2.125061 -6.768585 2.125061 -7.2006226 c -0.375 -0.72006226 -3.750122 0.8640747 
                -3.875122 2.4482117 C 657.0556 297.51205 658.3022 301.68842 659.1772 301.4004 z"
                stroke="#000000" clip-rule="evenodd" stroke-width="0.036" stroke-miterlimit="10"/>
            <path  fill-rule="evenodd" d="M 647.1768 284.4069 c 0.628479 -0.43203735 2.125061 -6.4805603 2.125061 -7.05661 c -0.375 -1.0080872 -3.750122 0.8640747 
                -3.875122 2.3041992 C 645.0552 280.51855 646.30176 284.69492 647.1768 284.4069 z"
                stroke="#000000" clip-rule="evenodd" stroke-width="0.036" stroke-miterlimit="10"/>
            <path  fill-rule="evenodd" d="M 629.1797 271.15775 c 0.625 -0.2880249 2.125061 -6.768585 2.125061 -7.2006226 c -0.375 -0.72006226 -3.750122 0.8640747 
                -3.875122 2.4482117 C 627.0511 267.2694 628.3046 271.44577 629.1797 271.15775 z"
                stroke="#000000" clip-rule="evenodd" stroke-width="0.036" stroke-miterlimit="10"/>
            <path  fill-rule="evenodd" d="M 546.9234 347.62842 c 0.753479 -0.43203735 11.628845 3.168274 18.12909 11.381012 c 6.000183 7.7726746 15.750549 
                32.402832 17.622131 37.151245 c 1.25 4.460388 -5.746765 -3.892334 -9.000305 
                -9.500824 c -3.625122 -6.4845886 -6.871765 -19.877747 -11.250427 -26.35431 C 
                557.5522 353.68097 546.4268 347.62842 546.9234 347.62842 z" stroke="#000000"
                clip-rule="evenodd" stroke-width="0.036" stroke-miterlimit="10"/>
            <path  fill-rule="evenodd" d="M 438.92313 375.7149 c -1.50354 -1.0080872 
                -0.125 11.228973 -3.125122 16.705444 c -3.625122 5.328491 -14.750488 14.977325 
                -14.99704 16.125427 c 0.0 0.8680725 10.875397 -8.780762 14.750519 -10.080872 c 
                3.500122 -1.7281494 2.996643 0.13998413 6.621765 1.7281494 c 3.3785706 1.2961121 
                14.250488 7.2046204 14.378967 6.6245728 c -0.37503052 -1.1481018 -11.250397 
                -5.7565002 -14.250488 -11.084961 C 439.17313 390.25616 439.79816 376.00293 438.92313 
                375.7149 z" stroke="#000000" clip-rule="evenodd" stroke-width="0.036"
                stroke-miterlimit="10"/>
            <path  fill-rule="evenodd" d="M 332.79446 379.45523 c -1.0000305 5.9085083 -2.000061 11.376984 -3.0000916 16.705444 c -1.125061 5.3284607 2.7500916 
                10.516937 -1.250061 16.125427 c -4.250122 5.764496 -24.000824 17.429504 -23.500793 
                18.149567 c 0.375 0.2880249 19.250671 -13.969208 24.625854 -12.533081 c 5.2501526 
                1.4441223 5.750183 21.601898 6.8752136 21.173859 c 1.125061 -0.5800476 -3.625122 
                -12.093079 3.625122 -19.44571 c 7.125244 -7.344635 16.12558 -8.352722 16.12558 
                -8.352722 c -7.5002747 0.43603516 -12.750458 -1.7281494 -16.75058 -7.0566406 C 
                335.54456 398.7569 333.29446 390.6922 332.79446 379.45523 z" stroke="#000000"
                clip-rule="evenodd" stroke-width="0.036" stroke-miterlimit="10"/>
            <path fill-rule="evenodd" d="M 174.41403 195.98315 c -2.0000763 0.2880249 -5.125183 1.2961121 -7.3752594 3.6003113 c -2.8750916 2.3042145 -7.250244 
                6.4805756 -7.7502594 10.224899 c -0.37501526 3.4562988 3.0000916 8.640762 5.7501984 
                9.504837 c 2.125061 0.0 5.8751984 -3.744339 8.375275 -7.3446503 c 2.2500763 
                -4.176361 5.5001984 -12.673111 5.8752136 -15.409348 C 179.41072 193.53494 176.16408 
                195.40712 174.41403 195.98315 z" stroke="#000000" clip-rule="evenodd" stroke-width="0.036"
                stroke-miterlimit="10"/>
            <path fill="#FFFFFF" fill-rule="evenodd" d="M 173.03899 198.7194 c -1.8750763 0.43203735 -3.375122 0.43203735 -5.5001984 2.7362366 c -2.1250763 
                2.1601868 -6.625229 5.6164856 -6.750229 8.784775 c -0.62501526 2.880249 2.5000916 
                6.336548 4.5001526 7.05661 c 1.500061 -0.2880249 5.125183 -3.6003113 7.000244 
                -6.6245728 c 1.625061 -3.456314 4.2501373 -9.504837 4.5001526 -11.521011 C 176.78911 
                196.99126 174.41403 198.14336 173.03899 198.7194 z" stroke="#000000" stroke-width="0.036"
                clip-rule="evenodd" stroke-miterlimit="10"/>
            <path  fill-rule="evenodd" d="M 280.91766 236.59471 c 0.6250305 2.1601868 1.250061 5.040436 3.7501526 8.064713 c 2.250061 2.880249 6.000183 
                7.4886475 9.375305 8.20871 c 2.8750916 0.2880249 7.250244 -5.3284607 7.8752747 
                -7.4886475 c -0.25 -3.3123016 -3.750122 -6.4805756 -7.125244 -8.928787 c -4.000122 
                -2.7362366 -11.375397 -5.472473 -13.875488 -5.472473 C 278.7926 230.83821 279.91766 
                234.00648 280.91766 236.59471 z" stroke="#000000" clip-rule="evenodd" stroke-width="0.036"
                stroke-miterlimit="10"/>
            <path  fill="#FFFFFF" fill-rule="evenodd" d="M 283.41776 237.89082 c 0.5000305 1.7281647 0.6250305 3.744339 2.7500916 6.048538 c 1.8750916 2.3041992 
                5.3752136 6.336548 8.125305 7.05661 c 2.6250916 0.14401245 5.375183 -3.6003113 
                5.875183 -5.6164856 c -0.375 -2.4482117 -3.625122 -5.760498 -6.3752136 -7.632675 c 
                -3.0000916 -2.1601868 -8.875305 -4.3203735 -10.375366 -4.176361 C 281.66772 
                233.57045 282.78928 235.73064 283.41776 237.89082 z" stroke="#000000" stroke-width="0.036"
                clip-rule="evenodd" stroke-miterlimit="10"/>
            <path  fill-rule="evenodd" d="M 371.6708 146.01079 c -2.1250916 0.2880249 -4.875183 1.2961121 -7.250244 3.6003113 c -2.7500916 2.1601868 -7.6252747 
                6.6245728 -7.8752747 10.080887 c -0.5035095 3.3122864 3.2500916 8.928772 5.8717346 
                9.648834 c 2.250061 0.0 5.625183 -3.7443237 8.250275 -7.344635 c 2.250061 -4.4644012 
                5.500183 -12.817123 5.875183 -15.55336 C 376.671 143.8506 373.42087 145.0027 
                371.6708 146.01079 z" stroke="#000000" clip-rule="evenodd" stroke-width="0.036"
                stroke-miterlimit="10"/>
            <path  fill="#FFFFFF" fill-rule="evenodd" d="M 370.4173 148.60301 c -1.8750916 0.4320526 -3.375122 0.4320526 -5.5002136 2.7362518 c -2.121582 2.1601868 
                -6.6217346 5.6164856 -6.7467346 8.7847595 c -0.5035095 2.7362366 2.246582 6.624588 
                4.3751526 7.200638 c 1.875061 -0.14401245 4.8751526 -3.8883514 7.125244 -6.7686005 c 
                1.750061 -3.4562988 4.000122 -9.504822 4.375122 -11.521011 C 373.9209 146.87488 
                371.9208 148.02696 370.4173 148.60301 z" stroke="#000000" stroke-width="0.036"
                clip-rule="evenodd" stroke-miterlimit="10"/>
            <path  fill-rule="evenodd" d="M 334.79453 93.5902 c -1.500061 1.8721619 
                -2.2500916 4.7524185 -2.7500916 8.640755 c -0.37503052 3.7443314 -0.7500305 
                10.656937 1.2500305 13.537186 c 2.0000916 2.4482117 7.7502747 3.1682816 10.000366 
                1.584137 c 2.000061 -1.7281494 1.3750305 -7.77668 1.0000305 -12.097054 c -1.125061 
                -5.0404434 -4.3751526 -13.537186 -5.8752136 -15.409348 C 336.54114 87.54167 
                335.79456 91.57403 334.79453 93.5902 z" stroke="#000000" clip-rule="evenodd"
                stroke-width="0.036" stroke-miterlimit="10"/>
            <path  fill="#FFFFFF" fill-rule="evenodd" d="M 335.54456 96.61447 c -0.8750305 1.1520996 -2.000061 3.3122864 -2.000061 6.480568 c -0.6250305 3.168274 
                -0.25 8.92878 1.1250305 11.665016 c 1.500061 2.1601868 5.6252136 2.3041992 7.5002747 
                1.0080872 c 1.3750305 -1.8721619 0.8750305 -7.0566177 0.5 -10.512917 c -1.0000305 
                -4.1763687 -3.1250916 -10.080879 -4.3751526 -11.521011 C 336.91962 92.29409 336.1696 
                94.7463 335.54456 96.61447 z" stroke="#000000" stroke-width="0.036" clip-rule="evenodd"
                stroke-miterlimit="10"/>
            <path  fill-rule="evenodd" d="M 381.29614 62.051445 c 1.1215515 0.5760498 2.3750916 2.7362366 4.746704 3.168274 c 2.125061 0.2880249 6.128662 
                1.5841446 8.128723 0.5760498 c 1.750061 -1.1520996 2.6250916 -6.480564 2.1216125 
                -7.6326637 c -1.1250305 -1.7281532 -4.1251526 -2.4482155 -7.000244 -2.1601906 c 
                -3.1250916 0.43203735 -8.500275 1.1520996 -9.875336 2.7362404 C 378.04602 59.60323 
                379.79263 60.89934 381.29614 62.051445 z" stroke="#000000" clip-rule="evenodd"
                stroke-width="0.036" stroke-miterlimit="10"/>
            <path  fill="#FFFFFF" fill-rule="evenodd" d="M 383.0462 61.763416 c 0.7500305 0.8640747 1.625061 1.4401283 3.625122 2.304203 c 1.750061 0.5760498 
                5.375183 1.1520996 7.000244 0.5760498 c 1.1250305 -0.72006226 2.250061 -5.0404396 
                1.5000305 -5.7605057 c -0.9965515 -1.2961121 -3.996643 -1.8721619 -6.1252136 
                -1.7281494 c -2.500061 0.0 -6.2502136 0.8640747 -7.375244 2.0161743 C 380.7961 
                59.891254 381.92117 60.75533 383.0462 61.763416 z" stroke="#000000" stroke-width="0.036"
                clip-rule="evenodd" stroke-miterlimit="10"/>
            <path  fill-rule="evenodd" d="M 360.6704 39.29745 c -0.875 -1.8721657 
                -1.875061 -3.3122902 -3.5000916 -4.896427 c -2.1250916 -1.8721657 -5.3752136 
                -4.4643917 -7.3752747 -3.888342 c -2.250061 0.2880249 -4.5001526 4.0323544 
                -4.3751526 6.192541 c 0.25003052 1.5841408 2.875122 3.600315 5.8752136 4.896431 c 
                2.5000916 0.72006226 8.250275 2.0161743 10.000336 1.584137 C 362.6705 42.177704 
                361.16696 40.881588 360.6704 39.29745 z" stroke="#000000" clip-rule="evenodd"
                stroke-width="0.036" stroke-miterlimit="10"/>
            <path  fill="#FFFFFF" fill-rule="evenodd" d="M 358.79535 38.865414 c -0.7500305 -1.2961121 -1.1250305 -2.7362404 -2.5000916 -3.7443275 c -2.000061 
                -1.7281494 -4.7501526 -3.4563026 -6.3752136 -3.4563026 c -1.5000305 0.2880249 
                -3.875122 3.0242653 -3.2500916 4.896427 c 0.375 1.2961159 2.7500916 3.0242653 
                5.1251526 4.0323524 c 2.2500916 0.7200661 5.8752136 1.2961159 7.5002747 1.1521034 C 
                360.1704 41.169617 359.04535 40.017513 358.79535 38.865414 z" stroke="#000000"
                stroke-width="0.036" clip-rule="evenodd" stroke-miterlimit="10"/>
            <path  fill-rule="evenodd" d="M 308.41864 46.35407 c 0.5000305 
                -2.0161781 1.0000305 -3.600315 1.0000305 -6.3365555 c -0.5 -3.1682777 -0.5 -7.488655 
                -2.000061 -9.072794 c -1.500061 -1.7281513 -6.2502136 -1.4401245 -7.000244 0.2880268 
                c -1.2500305 1.1520996 -0.6250305 5.184452 0.5000305 8.208717 c 0.75 2.7362404 
                4.125122 8.640755 5.375183 9.936871 C 307.6686 50.24241 307.4186 47.93821 308.41864 
                46.35407 z" stroke="#000000" clip-rule="evenodd" stroke-width="0.036"
                stroke-miterlimit="10"/>
            <path  fill="#FFFFFF" fill-rule="evenodd" d="M 307.54358 44.337894 c 0.25003052 -1.1521034 0.8750305 -2.8802528 0.8750305 -4.608406 c -0.375 -2.3041992 
                -1.0000305 -6.768593 -1.875061 -7.77668 c -1.2500305 -1.584137 -4.7501526 -1.0080872 
                -5.250183 0.14401245 c -0.7500305 1.2961159 -0.375 4.4643936 0.6250305 7.20063 c 
                0.5000305 2.304203 3.0000916 6.0485306 4.1251526 7.3446426 C 306.66855 46.93012 
                307.16513 45.634007 307.54358 44.337894 z" stroke="#000000" stroke-width="0.036"
                clip-rule="evenodd" stroke-miterlimit="10"/>
            <path  fill-rule="evenodd" d="M 252.66673 38.00134 c -0.37501526 1.2961159 -0.12501526 3.88834 0.75001526 6.192543 c 0.8750305 2.4482117 2.3750916 
                6.3365555 4.5001526 7.77668 c 1.875061 0.72006226 5.6252136 -1.2961121 6.500244 
                -2.7362404 c 0.375 -2.0161743 -1.000061 -5.3284645 -2.750122 -7.6326675 c -1.750061 
                -3.0242653 -6.6252136 -6.768593 -7.8752594 -7.3446426 C 252.16669 33.68096 252.4167 
                35.841152 252.66673 38.00134 z" stroke="#000000" clip-rule="evenodd" stroke-width="0.036"
                stroke-miterlimit="10"/>
            <path  fill="#FFFFFF" fill-rule="evenodd" d="M 253.91675 39.441463 c -0.25001526 1.0080872 -0.37501526 2.7362404 0.62501526 4.6084023 c 0.25001526 
                1.5841408 2.5000763 5.904518 3.8751373 6.768593 c 1.1250305 0.2880249 4.5001526 
                -0.5760498 4.8751526 -2.0161743 c 0.0 -1.5841408 -1.0000305 -4.896431 -2.500061 
                -6.6245804 c -1.500061 -2.304203 -5.250183 -5.0404396 -6.0002136 -5.472481 C 
                253.66675 35.989162 253.54175 38.00134 253.91675 39.441463 z" stroke="#000000"
                stroke-width="0.036" clip-rule="evenodd" stroke-miterlimit="10"/>
            <path  fill-rule="evenodd" d="M 232.166 66.227806 c -0.7500305 -1.4401245 -2.0000763 -3.7443237 -3.7501373 -4.7524147 c -2.3750763 -1.8721619 
                -5.500183 -3.7443275 -7.5002594 -3.3122902 c -2.5000763 0.2880249 -4.0001373 
                4.4643936 -4.0001373 6.480568 c 0.25001526 1.8721619 3.250122 3.1682816 6.1252136 
                4.4643936 c 2.5000916 0.8640747 8.25029 1.1520996 10.000351 0.8640747 C 234.16608 
                69.108055 232.91603 67.66794 232.166 66.227806 z" stroke="#000000" clip-rule="evenodd"
                stroke-width="0.036" stroke-miterlimit="10"/>
            <path  fill="#FFFFFF" fill-rule="evenodd" d="M 230.41248 65.79577 c -0.8750305 -1.2961121 -1.3750458 -2.4482117 -2.8750916 -3.4562988 c -1.8750763 
                -1.5841408 -5.000183 -3.1682777 -6.500229 -3.0242653 c -1.625061 0.14401245 
                -3.7501373 3.3122902 -3.0001068 5.0404396 c 0.50001526 1.4401245 3.0001068 2.8802567 
                5.500183 3.7443314 c 2.2500916 0.72006226 5.8752136 0.72006226 7.5002594 0.5760498 C 
                231.916 68.24398 230.91599 66.51584 230.41248 65.79577 z" stroke="#000000"
                stroke-width="0.036" clip-rule="evenodd" stroke-miterlimit="10"/>
            <path  fill-rule="evenodd" d="M 434.91953 30.36867 c -1.246582 -1.0080872 -3.121643 -2.4482136 -5.125183 -2.592226 c -2.6250916 -0.5760498 
                -6.625244 -1.1521015 -8.125275 0.43203735 c -1.875061 1.296114 -2.5035706 6.3365555 
                -1.375061 7.9206924 c 0.8750305 1.1521034 4.2536316 1.5841408 7.250244 1.2961159 c 
                2.7500916 -0.5760536 8.003754 -3.0242653 9.500336 -4.0323563 C 438.2981 32.09682 
                435.79456 31.088734 434.91953 30.36867 z" stroke="#000000" clip-rule="evenodd"
                stroke-width="0.036" stroke-miterlimit="10"/>
            <path  fill="#FFFFFF" fill-rule="evenodd" d="M 433.04443 30.800709 c -1.0000305 -1.1521015 -2.246582 -1.5841389 -3.750122 -1.8721638 c -1.996582 
                -0.43203735 -5.625183 -0.8640747 -7.000244 0.43203735 c -1.5000305 1.0080891 
                -2.000061 4.4643917 -1.0000305 5.904516 c 0.8750305 0.8640747 3.750122 1.1521034 
                6.2502136 0.8640747 c 2.2500916 -0.72006226 5.7502136 -2.3041992 7.128723 -3.0242615 
                C 435.423 32.09682 433.91946 31.520771 433.04443 30.800709 z" stroke="#000000"
                stroke-width="0.036" clip-rule="evenodd" stroke-miterlimit="10"/>
            <path  fill-rule="evenodd" d="M 459.92383 53.12266 c 0.6250305 -1.4401245 1.625061 -3.600315 2.000061 -5.904518 c 0.5000305 -3.0242615 0.12503052 
                -7.6326675 -0.625 -9.360817 c -1.375061 -2.0161781 -5.7502136 -2.592228 -6.875244 
                -1.1520996 c -1.500061 0.8640747 -1.625061 4.896427 -0.8750305 8.208717 c 0.6250305 
                3.3122902 2.3750916 8.784767 3.875122 10.800945 C 458.17377 56.722977 459.1738 
                54.562786 459.92383 53.12266 z" stroke="#000000" clip-rule="evenodd" stroke-width="0.036"
                stroke-miterlimit="10"/>
            <path  fill="#FFFFFF" fill-rule="evenodd" d="M 459.42383 51.106487 c 0.246521 -0.8640747 1.246582 -2.8802528 1.500061 -4.4643936 c -0.25003052 -2.1601868 
                0.5 -6.9126015 -0.6250305 -8.064705 c -1.2500305 -1.7281494 -4.2536316 -2.0161743 
                -5.128662 -0.8640747 c -0.75 1.0080872 -1.3750305 4.3203773 -0.5 7.20063 c 0.5 
                2.592228 1.625061 6.6245804 2.8750916 8.208717 C 458.0488 53.410686 458.67035 
                52.54661 459.42383 51.106487 z" stroke="#000000" stroke-width="0.036" clip-rule="evenodd"
                stroke-miterlimit="10"/>
            <path  fill-rule="evenodd" d="M 490.42487 52.834637 c 0.0 1.2961159 
                -0.375 3.88834 0.8750305 6.192543 c 0.6250305 2.7362404 2.8750916 6.048527 4.7501526 
                7.6326714 c 1.8750916 0.43203735 5.6252136 -1.2961197 6.500244 -2.8802567 c 0.246521 
                -2.0161743 -1.375061 -5.3284645 -3.000122 -7.6326675 c -2.000061 -2.5922241 
                -6.7502136 -6.768593 -8.000275 -7.0566177 C 489.92142 48.514256 490.1749 50.674446 
                490.42487 52.834637 z" stroke="#000000" clip-rule="evenodd" stroke-width="0.036"
                stroke-miterlimit="10"/>
            <path  fill="#FFFFFF" fill-rule="evenodd" d="M 491.79645 54.27476 c -0.246521 1.008091 -0.371521 2.7362404 0.6285095 4.608406 c 0.5 1.7281494 2.5000916 
                5.6164894 4.1251526 6.6245766 c 1.1250305 0.43203735 4.5001526 -0.8640747 4.8751526 
                -2.1601868 c 0.0 -1.5841408 -1.375061 -4.896427 -2.7500916 -6.6245804 c -1.500061 
                -2.0161781 -5.250183 -5.0404396 -6.0036926 -5.184452 C 491.54993 50.82246 491.42493 
                52.834637 491.79645 54.27476 z" stroke="#000000" stroke-width="0.036" clip-rule="evenodd"
                stroke-miterlimit="10"/>
            <path  fill-rule="evenodd" d="M 528.05115 90.56593 c -1.375061 -1.1520996 -2.875061 -2.5922241 -5.000183 -2.7362366 c -2.246582 -0.5760498 
                -6.746765 -1.7281494 -8.125244 -0.14401245 c -2.000061 1.0080872 -2.750122 6.192543 
                -1.750061 7.77668 c 1.0 1.2961121 3.875122 1.8721619 7.125244 1.7281494 c 2.625061 
                -0.72006226 8.250244 -2.0161743 9.625305 -3.3122864 C 530.9263 92.72613 529.1762 
                91.43001 528.05115 90.56593 z" stroke="#000000" clip-rule="evenodd" stroke-width="0.036"
                stroke-miterlimit="10"/>
            <path  fill="#FFFFFF" fill-rule="evenodd" d="M 526.17615 90.99797 c -1.125061 -1.0080872 -1.8751221 -1.8721619 -3.625183 -2.0161743 c -2.000061 
                -1.0080872 -5.625183 -0.8640747 -7.003662 -0.14401245 c -1.625061 0.72006226 
                -2.246643 4.4643936 -1.375061 5.7605057 c 0.875 1.0080872 3.750122 1.4401245 
                6.250183 1.2961121 c 2.125122 -0.8640747 6.128723 -1.2961121 7.250244 -2.4482117 C 
                528.1762 92.582115 527.17615 91.57403 526.17615 90.99797 z" stroke="#000000"
                stroke-width="0.036" clip-rule="evenodd" stroke-miterlimit="10"/>
            <path  fill-rule="evenodd" d="M 453.42365 175.10133 c -1.625061 -1.8721619 -3.8751526 -4.0323486 -6.750244 -4.8964233 c -3.625122 -1.2961121 
                -9.000305 -3.3122864 -11.750397 -1.584137 c -2.7500916 1.584137 -4.871704 7.7766876 
                -3.500122 10.800949 c 1.0000305 2.3041992 5.625183 3.7443237 10.000336 3.7443237 c 
                4.3751526 -0.43203735 11.750397 -1.4401245 14.378967 -3.0242615 C 457.92032 
                178.55763 454.54865 176.68547 453.42365 175.10133 z" stroke="#000000" clip-rule="evenodd"
                stroke-width="0.036" stroke-miterlimit="10"/>
            <path  fill="#FFFFFF" fill-rule="evenodd" d="M 450.7985 175.38936 c -1.3750305 -1.2961121 -2.7500916 -2.880249 -5.125183 -3.6003113 c -2.8750916 
                -1.4401245 -8.003723 -2.3041992 -10.125336 -1.4401245 c -2.6285706 0.8640747 
                -3.503601 6.1925354 -2.6285706 8.20871 c 1.0000305 2.0161743 5.253662 2.4482117 
                8.878784 2.880249 c 3.375122 -0.14401245 8.750305 -1.4401245 10.750366 -2.3041992 C 
                453.79865 177.54955 451.92355 176.83348 450.7985 175.38936 z" stroke="#000000"
                stroke-width="0.036" clip-rule="evenodd" stroke-miterlimit="10"/>
            <path  fill-rule="evenodd" d="M 529.3012 144.85869 c -2.000061 0.43203735 -5.128662 0.8640747 -7.375244 3.4562988 c -2.875122 2.3041992 -7.253723 
                6.4805756 -7.750305 10.224899 c -0.375 3.3122864 3.000122 8.928787 5.750244 
                9.6488495 c 2.121582 0.2880249 5.871704 -4.032364 8.375244 -7.4886627 c 2.246643 
                -4.176361 5.500183 -12.673111 5.871765 -15.409348 C 534.3014 142.6985 531.0513 
                143.8506 529.3012 144.85869 z" stroke="#000000" clip-rule="evenodd" stroke-width="0.036"
                stroke-miterlimit="10"/>
            <path  fill="#FFFFFF" fill-rule="evenodd" d="M 528.05115 147.45091 c -1.875061 0.43203735 -3.375122 0.43203735 -5.500183 2.7362366 c -2.125061 2.1601868 
                -6.625244 5.6164856 -6.750244 8.784775 c -0.5 2.7362366 2.250122 6.6245728 4.375183 
                7.2006226 c 1.503479 -0.14401245 5.128662 -3.8883362 7.003723 -6.768585 c 1.625 
                -3.456314 4.250122 -9.504837 4.500122 -11.521011 C 531.55133 145.72276 529.5477 
                146.87488 528.05115 147.45091 z" stroke="#000000" stroke-width="0.036" clip-rule="evenodd"
                stroke-miterlimit="10"/>
            <path  fill-rule="evenodd" d="M 507.547 210.52844 c 0.75 2.0161743 
                2.125061 4.8964233 4.625122 7.4886475 c 2.500122 2.1601868 7.250305 6.7686005 
                10.375366 6.6245728 c 2.750122 -0.5760498 6.625244 -6.048523 6.750244 -8.640747 c 
                -0.25 -2.880249 -4.503601 -6.1925507 -8.003723 -7.7766876 c -4.125183 -2.3041992 
                -12.125427 -3.6003113 -14.375519 -3.3122864 C 504.42535 205.34398 506.54697 
                207.93622 507.547 210.52844 z" stroke="#000000" clip-rule="evenodd" stroke-width="0.036"
                stroke-miterlimit="10"/>
            <path  fill="#FFFFFF" fill-rule="evenodd" d="M 510.17206 211.3925 c 0.5035095 1.5841522 1.0000305 3.456314 3.378601 5.616501 c 1.996582 1.8721619 
                6.250183 5.472473 8.875305 5.760498 c 2.250061 -0.5760498 5.250183 -4.464386 
                5.125183 -6.6245728 c -0.37158203 -2.7362366 -4.500183 -4.8964233 -7.125244 
                -6.4805756 c -3.121643 -1.7281494 -9.125336 -2.7362366 -10.750397 -2.4482117 C 
                507.67548 207.64818 509.42554 209.23232 510.17206 211.3925 z" stroke="#000000"
                stroke-width="0.036" clip-rule="evenodd" stroke-miterlimit="10"/>
            <path  fill-rule="evenodd" d="M 504.05038 282.53473 c 0.375 -2.4482117 
                1.1250305 -5.472473 0.7500305 -9.072815 c -0.5000305 -3.8883362 -2.0000916 
                -10.944946 -3.9966736 -12.817108 c -2.5035706 -1.8721619 -8.753784 -1.4401245 
                -10.003815 1.2961121 c -1.375061 2.0161743 -0.5000305 7.4886475 1.6285095 11.953033 
                c 1.750061 4.320404 6.621765 11.377014 8.875305 13.393188 C 503.05032 288.58325 
                503.30035 284.4069 504.05038 282.53473 z" stroke="#000000" clip-rule="evenodd"
                stroke-width="0.036" stroke-miterlimit="10"/>
            <path  fill="#FFFFFF" fill-rule="evenodd" d="M 502.6753 279.9425 c 0.121520996 -1.7281494 1.1215515 -4.176361 0.6250305 -6.768585 c -0.6250305 
                -3.168274 -1.625061 -9.648834 -3.500122 -11.088959 c -2.3785706 -1.8721619 -6.500244 
                -1.1520996 -7.6252747 1.0080872 c -1.1250305 1.8721619 0.125 6.6245728 1.750061 
                10.3688965 c 1.375061 3.4562988 4.875183 8.640747 6.625244 10.080872 C 501.7968 
                284.4069 502.04678 281.52664 502.6753 279.9425 z" stroke="#000000" stroke-width="0.036"
                clip-rule="evenodd" stroke-miterlimit="10"/>
            <path  fill-rule="evenodd" d="M 415.67233 248.69177 c -1.750061 -2.0161743 -3.500122 -3.8883362 -6.625244 -5.040436 c -3.625122 -1.584137 -9.000305 
                -3.3122864 -11.750397 -1.8721619 c -2.7500916 1.584137 -4.7501526 7.7766724 
                -3.625122 10.800949 c 0.6250305 2.5922241 6.0036926 3.7443085 9.875336 4.0323334 c 
                4.0001526 0.0 12.000427 -1.7281342 14.378967 -2.8802338 C 419.9225 252.14807 
                416.92233 250.27591 415.67233 248.69177 z" stroke="#000000" clip-rule="evenodd"
                stroke-width="0.036" stroke-miterlimit="10"/>
            <path  fill="#FFFFFF" fill-rule="evenodd" d="M 413.0472 248.9798 c -1.1250305 -1.584137 -2.6250916 -3.0242615 -5.0001526 -3.7443237 c -2.871643 
                -1.584137 -8.000275 -2.7362366 -10.125366 -1.7281494 c -2.500061 1.1520996 -3.746643 
                5.760498 -2.7500916 8.20871 c 0.7535095 1.584137 5.253662 3.168274 8.753784 3.168274 
                c 3.1250916 -0.43203735 9.000305 -1.1520996 10.875366 -2.1601868 C 416.04733 
                251.57202 414.17224 250.1319 413.0472 248.9798 z" stroke="#000000" stroke-width="0.036"
                clip-rule="evenodd" stroke-miterlimit="10"/>
            <path  fill-rule="evenodd" d="M 258.79193 279.9425 c -2.000061 0.2880249 -5.125168 1.2961121 -7.375244 3.6003113 c -2.8751068 2.3041992 -7.2502594 6.480591 
                -7.7502747 10.224915 c -0.125 3.4562988 3.1251068 8.640747 5.8752136 9.504822 c 
                2.2500763 0.0 5.625183 -3.7443237 8.250275 -7.344635 c 2.2500916 -4.176361 5.500183 
                -12.673126 5.8752136 -15.409363 C 263.79208 277.4943 260.542 279.36646 258.79193 
                279.9425 z" stroke="#000000" clip-rule="evenodd" stroke-width="0.036"
                stroke-miterlimit="10"/>
            <path  fill="#FFFFFF" fill-rule="evenodd" d="M 257.53842 282.67874 c -1.875061 -0.14401245 -3.375122 0.72006226 -5.500183 2.5922241 c -2.1250763 
                2.1601868 -6.625229 5.6164856 -6.750244 8.78479 c -0.50001526 2.7362366 2.2500763 
                6.6245728 4.3751526 7.2006226 c 1.875061 -0.2880249 4.875168 -3.6003113 7.125244 
                -6.6245728 c 1.750061 -3.312317 4.0001526 -9.792877 4.3751526 -11.665039 C 261.042 
                281.23862 259.04193 281.67465 257.53842 282.67874 z" stroke="#000000" stroke-width="0.036"
                clip-rule="evenodd" stroke-miterlimit="10"/>
            <path  fill-rule="evenodd" d="M 193.53969 308.457 c -1.3750458 -2.0161743 -3.1251068 -4.8964233 -5.7501984 -6.336548 c -3.1251068 -2.3041992 
                -8.50029 -4.752411 -11.250397 -4.0323486 c -2.7500916 0.5760498 -6.2502136 7.2006226 
                -5.250168 9.936859 c 0.62501526 2.7362366 5.000168 4.464386 9.250305 5.760498 c 
                3.8751373 0.72006226 12.125427 0.72006226 14.625504 0.0 C 197.1648 312.63336 
                194.53972 310.32916 193.53969 308.457 z" stroke="#000000" clip-rule="evenodd"
                stroke-width="0.036" stroke-miterlimit="10"/>
            <path  fill="#FFFFFF" fill-rule="evenodd" d="M 190.91112 308.16898 c -1.1250305 -1.4401245 -2.2500763 -3.7443237 -4.3751526 -4.752411 c -2.7500916 
                -1.4401245 -7.250244 -4.464386 -9.62532 -3.6003113 c -2.5000916 0.2880249 -4.750168 
                5.6164856 -3.8751373 7.63266 c 0.37501526 1.7281494 5.000168 3.8883362 8.125275 
                4.752411 c 3.0001068 0.5760498 9.37532 0.5760498 11.000381 0.0 C 193.53969 311.19324 
                191.66461 309.4651 190.91112 308.16898 z" stroke="#000000" stroke-width="0.036"
                clip-rule="evenodd" stroke-miterlimit="10"/>
            <path  fill-rule="evenodd" d="M 106.6617 273.02988 c 1.750061 0.8640747 
                4.5001526 2.1602173 7.750267 2.3042297 c 3.0000992 0.14401245 9.250313 -0.72006226 
                11.500397 -2.5922546 c 2.0000687 -2.7362366 2.0000687 -9.792847 0.50001526 
                -11.665009 c -1.750061 -1.8721619 -6.8752365 -1.8721619 -10.500366 0.0 c -4.0001297 
                1.584137 -11.500389 5.6164856 -12.875435 8.20871 C 101.16151 271.15775 104.78664 
                271.8778 106.6617 273.02988 z" stroke="#000000" clip-rule="evenodd" stroke-width="0.036"
                stroke-miterlimit="10"/>
            <path  fill="#FFFFFF" fill-rule="evenodd" d="M 109.03677 271.8778 c 1.1250458 0.43203735 3.2501144 1.7281494 5.875206 1.7281494 c 2.7500916 -0.14401245 
                7.875267 -0.72006226 10.000343 -2.3041992 c 1.5000534 -2.1601868 1.750061 -7.4886475 
                0.25000763 -8.7847595 c -1.6250534 -1.2961121 -6.125206 -1.1520996 -9.125313 
                0.43203735 c -3.500122 1.2961121 -8.50029 3.8883362 -9.625328 6.048523 C 104.91164 
                270.29367 107.53673 270.8697 109.03677 271.8778 z" stroke="#000000" stroke-width="0.036"
                clip-rule="evenodd" stroke-miterlimit="10"/>
            <path  fill-rule="evenodd" d="M 89.66111 212.11258 c -0.8750305 -2.5922394 -1.750061 -5.4724884 -4.0001373 -8.064713 c -2.7500916 -3.0242615 
                -6.625229 -7.7766724 -9.625328 -7.63266 c -3.3751144 -0.2880249 -7.375252 4.8964233 
                -7.625267 7.7766724 c -0.25000763 2.5922241 3.500122 6.048523 7.3752594 8.640762 c 
                3.8751297 1.7281494 11.125381 5.1844482 14.000481 4.8964233 C 91.53618 217.009 
                90.53615 214.56079 89.66111 212.11258 z" stroke="#000000" clip-rule="evenodd"
                stroke-width="0.036" stroke-miterlimit="10"/>
            <path  fill="#FFFFFF" fill-rule="evenodd" d="M 87.161026 210.96046 c -0.7500229 -2.1601868 -1.1250381 -4.176361 -3.0000992 -6.048523 c -2.2500763 
                -2.448227 -6.000206 -6.4805756 -8.37529 -6.624588 c -2.7500916 0.0 -5.7501984 
                3.4562988 -5.6251907 5.9045258 c 0.125 2.3041992 3.625122 4.8964233 6.625229 
                7.2006226 c 3.0000992 1.8721619 8.250282 3.3122864 10.500359 3.7443237 C 88.66108 
                214.70479 87.66104 212.5446 87.161026 210.96046 z" stroke="#000000" stroke-width="0.036"
                clip-rule="evenodd" stroke-miterlimit="10"/>
            <path  fill-rule="evenodd" d="M 85.41097 140.5383 c -0.8750305 2.0161743 -1.625061 5.040451 -1.2500458 9.0728 c 0.25000763 3.6003113 0.8750305 10.512924 
                3.3751144 12.961136 c 2.1250763 1.8721619 8.37529 1.2961121 10.125351 -0.5760498 c 
                1.2500381 -2.1601868 0.25000763 -8.208725 -1.1250381 -12.097061 c -1.750061 
                -4.8964233 -6.7502365 -12.097061 -8.25029 -13.825211 C 86.66101 134.20175 85.53597 
                138.09009 85.41097 140.5383 z" stroke="#000000" clip-rule="evenodd" stroke-width="0.036"
                stroke-miterlimit="10"/>
            <path  fill="#FFFFFF" fill-rule="evenodd" d="M 86.66101 143.27455 c -0.7500305 1.2961121 -1.3750534 3.7443237 -0.8750305 6.768585 c 0.0 3.1682892 
                1.1250381 8.928787 2.8750992 11.232986 c 1.7500534 1.7281494 6.3752136 1.0080872 
                7.6252594 -0.5760498 c 0.8750305 -1.8721619 0.0 -7.2006226 -1.2500458 -10.368912 c 
                -1.3750458 -3.6003113 -4.875168 -9.504822 -6.125206 -10.512909 C 87.28603 138.2341 
                87.161026 141.40239 86.66101 143.27455 z" stroke="#000000" stroke-width="0.036"
                clip-rule="evenodd" stroke-miterlimit="10"/>
            <path  fill-rule="evenodd" d="M 132.53412 119.36846 c -0.7500305 2.3041992 -0.6250305 5.3284607 0.375 9.072792 c 0.8750305 3.0242615 2.7501068 
                10.512924 5.6251984 11.953049 c 2.6250916 1.584137 8.125275 -0.8640747 9.750336 
                -2.880249 c 1.0000305 -2.8802643 -1.0000305 -7.4886627 -3.1251068 -11.521019 c 
                -2.6250916 -4.0323486 -8.37529 -10.944954 -10.500366 -11.809029 C 132.41258 
                113.031906 132.66258 116.63222 132.53412 119.36846 z" stroke="#000000" clip-rule="evenodd"
                stroke-width="0.036" stroke-miterlimit="10"/>
            <path  fill="#FFFFFF" fill-rule="evenodd" d="M 134.28764 121.67266 c -0.375 1.584137 -0.62501526 4.0323563 0.25001526 6.768593 c 0.62501526 2.7362366 
                2.7500916 8.784775 4.875168 10.368912 c 2.000061 1.1520996 6.3752136 -0.2880249 
                7.3752594 -2.1601868 c 0.62501526 -2.160202 -1.500061 -7.200638 -3.0001068 
                -10.080887 c -2.1250763 -3.4563065 -6.500229 -8.064705 -7.8752747 -8.784767 C 
                134.16264 116.63222 134.41264 119.8005 134.28764 121.67266 z" stroke="#000000"
                stroke-width="0.036" clip-rule="evenodd" stroke-miterlimit="10"/>
            <path  fill-rule="evenodd" d="M 217.91553 105.83127 c -1.750061 0.2880249 -3.250122 0.7200699 -5.000183 2.4482193 c -2.2500763 1.584137 -5.000168 
                4.464386 -5.375183 7.0566177 c -0.37501526 2.3041992 2.2500763 5.7605057 4.0001373 
                6.480568 c 1.875061 0.0 3.625122 -2.5922318 5.7501984 -5.0404434 c 1.2500458 
                -3.0242615 3.8751373 -8.640755 4.0001373 -10.656929 C 221.04063 104.24713 219.29057 
                105.255226 217.91553 105.83127 z" stroke="#000000" clip-rule="evenodd" stroke-width="0.036"
                stroke-miterlimit="10"/>
            <path  fill="#FFFFFF" fill-rule="evenodd" d="M 217.0405 107.70344 c -1.1250458 -0.14401245 -2.3750763 0.43203735 -3.7501373 1.7281494 c -1.6250458 
                1.1520996 -4.5001526 4.320381 -4.7501526 6.192543 c -0.37501526 1.7281494 1.6250458 
                4.4643936 3.1251068 4.896431 c 1.1250305 0.14401245 3.3751068 -2.8802567 4.875168 
                -4.608406 c 1.5000458 -2.3041992 2.5000763 -6.6245804 3.0001068 -7.9166946 C 
                219.16557 106.263306 218.16553 107.2714 217.0405 107.70344 z" stroke="#000000"
                stroke-width="0.036" clip-rule="evenodd" stroke-miterlimit="10"/>
            <path  fill-rule="evenodd" d="M 186.78598 129.88138 c -1.750061 0.2880249 -3.2501068 0.72006226 -5.000168 2.4482117 c -2.2500763 1.584137 -5.000183 
                4.4644012 -5.375183 7.0566254 c -0.37501526 2.3041992 2.2500763 5.760498 4.0001373 
                6.4805603 c 1.875061 0.0 3.625122 -2.5922241 5.750183 -5.040436 c 1.2500458 
                -3.0242615 3.8751373 -8.640762 4.0001373 -10.656937 C 189.91457 128.29724 188.16103 
                129.30533 186.78598 129.88138 z" stroke="#000000" clip-rule="evenodd" stroke-width="0.036"
                stroke-miterlimit="10"/>
            <path  fill="#FFFFFF" fill-rule="evenodd" d="M 185.91443 131.75354 c -1.1250458 0.2880249 -2.3750916 0.14401245 -3.7501373 1.7281494 c -1.750061 
                1.1520996 -4.2501373 4.3203735 -4.6251526 6.1925354 c -0.6250305 1.7281647 1.5000458 
                4.4644012 3.0001068 4.8964386 c 1.1250305 0.14401245 3.3751068 -2.880249 4.875168 
                -4.6084137 c 1.5000458 -2.5922241 2.5000763 -6.768585 3.0000916 -8.064697 C 
                188.03949 130.45743 187.03946 131.3215 185.91443 131.75354 z" stroke="#000000"
                stroke-width="0.036" clip-rule="evenodd" stroke-miterlimit="10"/>
            <path  fill-rule="evenodd" d="M 237.66621 148.75102 c -0.37501526 1.4401245 -0.50001526 3.744339 0.125 6.336563 c 0.7500305 2.7362366 1.625061 
                6.6245728 3.625122 8.352722 c 1.3750458 0.5760498 5.8752136 0.0 6.750244 -1.7281494 
                c 0.375 -1.8721619 -0.25001526 -5.472473 -1.8750763 -8.064697 c -1.875061 -3.0242767 
                -5.500183 -7.632675 -7.000229 -8.352737 C 237.91621 144.42665 237.5412 146.87488 
                237.66621 148.75102 z" stroke="#000000" clip-rule="evenodd" stroke-width="0.036"
                stroke-miterlimit="10"/>
            <path  fill="#FFFFFF" fill-rule="evenodd" d="M 238.79124 150.47517 c -0.37501526 1.0080872 -0.50001526 2.5922241 0.125 4.752426 c 0.6250305 1.8721619 
                1.500061 5.760498 3.1251068 7.2006226 c 1.1250458 0.72006226 4.625168 -0.14401245 
                5.125183 -1.4401245 c 0.0 -1.584137 -0.6250305 -5.1844482 -1.8750763 -6.912613 c 
                -1.5000458 -2.7362366 -4.3751373 -5.3284607 -5.250168 -6.1925354 C 238.66623 
                146.87488 238.91623 149.03505 238.79124 150.47517 z" stroke="#000000" stroke-width="0.036"
                clip-rule="evenodd" stroke-miterlimit="10"/>
            <path  fill-rule="evenodd" d="M 305.79007 185.1822 c -1.750061 0.14401245 -3.250122 1.0080872 -5.000183 2.5922241 c -2.250061 1.7281647 -5.0001526 
                4.032364 -5.375183 6.912613 c -0.375 2.1601868 2.2500916 6.048523 4.0001526 
                6.6245728 c 1.3750305 0.0 3.875122 -2.5922241 5.625183 -5.040436 c 1.625061 
                -3.0242615 3.625122 -8.640762 4.1251526 -10.656937 C 308.91864 183.88611 307.16513 
                184.31813 305.79007 185.1822 z" stroke="#000000" clip-rule="evenodd" stroke-width="0.036"
                stroke-miterlimit="10"/>
            <path  fill="#FFFFFF" fill-rule="evenodd" d="M 304.91852 187.05438 c -1.125061 0.2880249 -2.3750916 0.14401245 -3.750122 1.8721619 c -1.625061 1.2961121 
                -4.500183 3.8883362 -4.750183 6.048523 c -0.375 1.5841522 1.625061 4.752426 3.125122 
                5.040451 c 1.1250305 0.14401245 3.3750916 -2.880249 4.8751526 -4.6083984 c 1.500061 
                -2.5922394 2.5000916 -6.7686005 3.000122 -8.064713 C 307.04358 185.61426 306.04355 
                186.62233 304.91852 187.05438 z" stroke="#000000" stroke-width="0.036" clip-rule="evenodd"
                stroke-miterlimit="10"/>
            <path  fill-rule="evenodd" d="M 302.41843 121.96068 c -0.37503052 -1.7281494 0.125 -4.176361 -0.8750305 -6.1925354 c -0.8750305 -2.8802567 -3.250122 
                -6.9126053 -4.750183 -7.6326675 c -2.250061 -1.0080948 -5.875183 1.2961121 
                -6.5002136 3.0242615 c -0.375 1.7281494 0.6250305 4.7524185 3.000122 7.488655 c 
                1.5000305 2.3041992 6.6252136 6.3365555 8.125275 7.0566177 C 302.79343 125.84902 
                302.16843 123.83285 302.41843 121.96068 z" stroke="#000000" clip-rule="evenodd"
                stroke-width="0.036" stroke-miterlimit="10"/>
            <path  fill="#FFFFFF" fill-rule="evenodd" d="M 301.16837 120.52056 c -0.375 -1.1520996 0.0 -2.8802567 -0.7500305 -4.608406 c -0.8750305 -2.0161743 
                -2.8750916 -6.048523 -4.125122 -6.6245804 c -1.500061 -0.8640747 -4.875183 
                0.43203735 -4.875183 2.3042068 c -0.375 1.4401245 1.250061 4.176361 2.875122 
                6.480568 c 1.1250305 1.584137 4.8751526 4.6083984 6.000183 5.1844482 C 301.0434 
                123.54482 301.16837 121.52864 301.16837 120.52056 z" stroke="#000000" stroke-width="0.036"
                clip-rule="evenodd" stroke-miterlimit="10"/>
            <path  fill-rule="evenodd" d="M 266.2887 96.90249 c 0.25003052 -1.7281494 1.375061 -3.6003113 1.375061 -6.192543 c -0.375 -2.880249 -0.25 -7.77668 
                -1.625061 -9.2168045 c -1.500061 -1.8721619 -6.2502136 -1.584137 -7.000244 
                -0.2880249 c -1.3750305 1.1520996 -0.8750305 5.0404434 0.0 8.35273 c 0.8750305 
                3.1682816 3.500122 8.640755 5.000183 10.224899 C 264.91364 100.64682 265.66714 
                98.19861 266.2887 96.90249 z" stroke="#000000" clip-rule="evenodd" stroke-width="0.036"
                stroke-miterlimit="10"/>
            <path  fill="#FFFFFF" fill-rule="evenodd" d="M 265.54218 94.886314 c 0.25 -1.4401245 0.7500305 -2.4482117 1.0000305 -4.608406 c -0.375 -2.3041992 -0.375 
                -6.6245804 -1.375061 -7.9206924 c -1.2500305 -1.1520996 -4.7501526 -1.7281494 
                -5.250183 -0.14401245 c -0.875 0.8640747 -0.625 4.7524185 0.25003052 7.20063 c 0.625 
                2.0161743 2.5000916 6.768593 3.625122 7.6326675 C 264.2921 97.478546 265.04214 
                96.182434 265.54218 94.886314 z" stroke="#000000" stroke-width="0.036" clip-rule="evenodd"
                stroke-miterlimit="10"/>
            <path  fill-rule="evenodd" d="M 178.16415 81.34914 c -0.6250305 -2.016182 -0.8750305 -3.7443314 -2.2500763 -5.7605057 c -1.625061 -2.1601868 
                -4.3751526 -6.0485306 -6.2502136 -6.0485306 c -2.1250763 -0.2880249 -5.7501984 
                2.5922241 -5.6251984 4.7524185 c -0.50001526 2.0161743 2.1250763 4.176361 4.5001526 
                6.480568 c 2.5000916 1.584137 7.250244 4.176361 9.37532 4.464386 C 179.2892 85.09346 
                178.41417 82.501236 178.16415 81.34914 z" stroke="#000000" clip-rule="evenodd"
                stroke-width="0.036" stroke-miterlimit="10"/>
            <path  fill="#FFFFFF" fill-rule="evenodd" d="M 176.5391 80.34104 c -0.50001526 -1.2961121 -0.62501526 -2.7362366 -1.750061 -4.3203735 c -1.5000458 
                -1.5841446 -3.750122 -5.3284683 -5.250168 -5.184456 c -1.8750763 -0.43203735 
                -4.2501526 1.8721619 -4.2501526 3.6003113 c -0.37501526 1.5841446 2.2500763 3.600319 
                4.0001373 5.472481 c 1.875061 1.7281494 5.500183 2.880249 7.000244 3.4563065 C 
                177.41412 83.077286 176.5391 81.49314 176.5391 80.34104 z" stroke="#000000"
                stroke-width="0.036" clip-rule="evenodd" stroke-miterlimit="10"/>
            <path  fill-rule="evenodd" d="M 431.16937 86.10155 c 0.0 1.2961121 0.6285095 3.8883438 1.875061 6.0485306 c 1.375061 2.3041992 3.253601 5.616493 
                5.6252136 6.6245804 c 2.125061 -0.14401245 5.250183 -1.8721619 6.003662 -4.0323563 c 
                0.12155151 -2.1601868 -2.000061 -5.040436 -4.000122 -7.0566177 c -2.5000916 
                -2.5922241 -7.250244 -5.1844482 -8.875305 -5.472473 C 430.04782 81.63715 430.79782 
                84.229385 431.16937 86.10155 z" stroke="#000000" clip-rule="evenodd" stroke-width="0.036"
                stroke-miterlimit="10"/>
            <path  fill="#FFFFFF" fill-rule="evenodd" d="M 432.7979 87.25365 c 0.121520996 1.1521072 -0.125 2.4482193 1.246582 4.4643936 c 1.0000305 1.7281494 
                3.1250916 5.184456 5.0001526 5.904518 c 1.375061 0.5760498 3.9966736 -2.1601868 
                4.5001526 -3.1682816 c 0.25003052 -2.0161743 -2.250061 -4.176361 -3.625122 
                -5.9045105 c -2.125061 -1.8721695 -5.500183 -4.1763687 -6.7502136 -4.1763687 C 
                431.67285 83.94135 432.6729 85.81352 432.7979 87.25365 z" stroke="#000000"
                stroke-width="0.036" clip-rule="evenodd" stroke-miterlimit="10"/>
        </g>
    </g>
</svg>