<?xml version="1.0" standalone="no"?>
<!--Created with Sketsa SVG Editor (http://www.kiyut.com)-->
<svg contentScriptType="text/ecmascript" width="700.0px" xmlns:xlink="http://www.w3.org/1999/xlink"
    baseProfile="full" zoomAndPan="magnify" contentStyleType="text/css" height="700.0px"
    preserveAspectRatio="xMidYMid meet" xmlns="http://www.w3.org/2000/svg" version="1.0">
    <path d="M 688.3264 580.2591 C 689.954 579.7261 691.68964 579.22925 692.98193 579.0569 L 
        697.4159 578.4631 L 694.86633 574.52924 C 686.11487 561.0289 670.9289 555.8798 659.1859 
        553.9578 C 662.1626 552.08795 669.0986 547.7312 669.0986 547.7312 L 665.2068 545.21826 C 
        650.1114 535.42865 631.47156 536.01526 617.86316 536.4425 C 617.86316 536.4425 616.29504 
        536.4773 614.74725 536.512 C 615.4231 534.1975 616.17474 533.0344 620.3477 529.75525 L 
        623.5636 527.22784 L 620.18146 524.96405 C 605.5835 515.18744 587.8318 516.18823 579.44666 
        520.0077 C 578.0124 519.52966 562.552 514.3691 556.90155 512.48474 C 556.9434 512.4268 
        556.99884 512.36163 557.0408 512.3051 C 558.6372 510.18323 560.0147 508.35104 565.0893 
        505.33115 L 572.28485 501.04684 L 564.1187 499.92578 C 552.24194 498.29492 533.1033 
        496.25555 523.3028 498.22827 C 524.74384 493.21973 528.98846 487.71442 533.1412 483.70966 C 
        534.1415 482.78125 536.9586 478.08847 536.8802 476.41412 C 536.1759 476.74725 532.78564 
        476.61978 529.7103 479.23993 C 521.0548 486.1951 504.38455 490.25055 492.2117 493.21106 C 
        486.68158 494.5566 483.00198 495.47925 480.55524 496.39316 C 476.20926 485.68237 463.96747 
        481.67615 457.74786 479.69473 L 448.7463 476.79797 L 453.4478 483.74295 C 455.6553 486.9946 
        456.50153 490.0029 456.50153 492.7563 C 456.50153 495.88766 455.389 498.67438 453.95474 
        501.13373 C 443.90018 490.0087 427.19205 478.20435 418.31488 476.30115 L 415.7735 475.7566 L 
        415.15845 478.45346 C 412.56436 489.82184 408.70905 497.3549 403.6939 500.97586 C 396.92148 
        476.3272 388.04562 469.99344 382.07883 465.7714 L 377.6247 462.57333 L 376.46893 466.15524 C 
        371.79172 481.18945 361.85474 493.77304 356.63278 498.7323 C 356.54355 496.59018 356.4895 
        494.1134 356.4895 491.42807 C 356.4895 479.53976 357.51416 464.12167 360.93146 461.09747 C 
        361.11935 460.9164 365.4086 456.4988 368.3095 455.48206 C 367.26053 455.21265 361.99664 
        455.1533 358.3563 456.11646 C 345.7752 460.59778 323.72888 478.4578 315.50598 488.84418 C 
        308.32257 473.21033 300.61603 468.8637 290.78043 464.8488 C 290.06396 464.562 283.1239 
        462.79785 282.70078 462.75296 C 283.10226 463.09186 286.83185 466.71143 287.88354 469.58066 
        C 288.41208 470.6061 288.75677 471.83865 288.75677 473.78528 C 288.75677 477.96823 287.6632 
        483.94574 287.0914 487.06555 C 287.0711 487.17853 287.05762 487.2611 287.03732 487.36975 C 
        269.48706 465.011 249.11967 458.86548 240.25194 458.86548 L 236.7062 458.86548 L 237.64435 
        462.52847 C 238.92447 467.5254 239.4341 471.6837 239.4341 475.1555 C 239.4341 484.6685 
        235.62207 488.98755 233.3105 491.2572 C 223.20183 483.28815 199.61313 470.45694 193.18404 
        468.61893 L 189.38145 467.53262 L 189.8005 471.72714 C 189.81267 471.83865 190.72243 481.062 
        191.02927 488.7486 C 175.73108 482.24243 156.82768 483.85452 147.40573 487.52612 L 143.007 
        489.2396 L 146.58925 492.46658 C 146.67575 492.54483 153.32657 498.56573 158.06052 504.00735 
        C 142.3149 505.12692 120.330765 510.42657 109.47591 515.0788 L 101.819374 518.36084 L 
        109.80168 520.574 C 112.18624 521.23444 116.64309 524.5078 120.885 528.0375 C 107.545555 
        526.8426 90.438675 527.48566 86.74829 527.92456 L 83.19444 528.34894 C 83.19444 528.34894 
        85.996704 535.7212 87.390396 539.3798 C 73.99417 536.7278 58.80548 543.76843 52.59672 
        546.65216 L 46.083805 549.6199 L 50.510914 552.6007 C 50.510914 552.6007 51.23547 553.0786 
        51.403095 553.1902 C 42.928734 554.7718 34.60983 559.32556 29.96103 562.6858 C 27.863054 
        564.2008 21.509651 569.5845 21.509651 569.5845 C 22.628931 569.63226 27.076315 568.98486 
        28.68359 570.26666 C 29.348671 570.8706 30.040785 571.4572 30.536892 572.1684 C 24.564693 
        573.1605 16.88924 576.59753 5.536924 583.3079 C 0.9854534 585.99036 0.0 589.31726 0.0 
        591.68976 C 0.0 591.7433 0.001351788 591.79694 0.001351788 591.85046 C 0.12841986 598.5377 
        8.085044 606.15765 23.65494 614.50037 C 25.028355 615.23615 26.72485 616.4209 27.015486 
        617.89105 C 27.049278 618.0663 27.0655 618.2473 27.0655 618.4342 C 27.0655 620.70526 
        24.66067 623.8178 23.02906 625.931 L 21.698902 627.685 L 21.628609 627.82983 C 19.549559 
        631.64777 18.505978 635.15576 18.505978 638.31036 C 18.505978 639.8587 18.758762 641.3216 
        19.261627 642.6961 C 21.597517 649.07043 28.360512 651.272 31.995472 652.4524 C 31.995472 
        652.4524 32.87143 652.74646 32.968758 652.7783 C 76.92485 675.25146 196.24043 674.14777 
        247.77869 672.50385 C 246.30388 678.4176 247.51645 683.2219 248.54785 687.29333 L 249.80502 
        692.83777 L 251.96518 693.01733 C 257.7522 693.01733 268.37994 686.9993 278.76843 680.835 C 
        279.81876 680.21216 280.934 679.55023 281.86945 679.01 C 288.5486 693.0014 296.92566 
        695.49414 302.5991 697.0729 L 307.0749 698.388 L 308.0779 696.07635 C 310.1272 690.88824 
        310.82068 686.33887 310.82068 682.4601 C 310.82068 680.9769 310.70712 679.6097 310.54086 
        678.322 C 322.93405 686.4489 341.79556 686.74146 344.33826 686.74146 L 346.84177 686.74146 L 
        347.03506 684.0649 C 347.24597 681.11597 347.13242 678.1714 346.76743 675.31665 C 455.8878 
        680.5366 475.39005 670.1575 480.50525 661.8481 C 483.80765 656.4833 481.3217 650.9852 
        479.8361 647.6988 L 479.28183 646.4445 C 478.80875 645.3235 479.0345 644.98596 479.11963 
        644.8585 C 480.4525 642.8627 488.2591 641.36505 502.24335 642.7917 C 536.6585 646.79065 
        603.5963 648.61707 637.856 639.8283 C 641.9925 638.76807 644.9191 636.7215 646.5548 
        633.75085 C 647.6768 631.71155 648.08234 629.494 648.08234 627.25195 C 648.08234 623.9844 
        647.22394 620.66614 646.47504 617.7665 L 645.7302 614.67993 C 645.69104 614.4873 645.65857 
        614.26135 645.65857 614.0065 C 645.65857 613.4213 645.8276 612.671 646.47504 611.7803 C 
        648.5176 608.97186 654.7007 605.98096 663.9077 605.6275 C 675.89264 605.16986 694.23236 
        602.3484 697.7538 599.8325 C 698.7 599.1562 699.2664 598.09155 699.34894 596.8373 C 
        699.35425 596.7576 699.357 596.678 699.357 596.59686 C 699.35425 592.3821 692.6197 584.7201 
        688.3264 580.2591 z" id="path9"/>
    <path style="fill:#ffffff" d="M 326.3135 652.464 C 327.21652 655.3608 329.72815 657.1336 
        331.27188 657.6101 C 337.1116 659.81744 341.66983 670.2835 341.7239 680.8654 C 331.06235 
        680.4555 314.22043 677.46747 307.75888 668.12103 C 304.2983 663.25885 301.30545 663.085 
        300.3727 662.9995 L 300.79446 664.30164 C 304.3091 674.675 305.42975 678.0599 305.42975 
        682.45715 C 305.42975 685.0744 304.99582 688.0697 303.91306 691.4546 C 298.2923 689.88885 
        291.30762 687.91473 285.526 673.9798 L 284.52975 671.57544 L 282.19928 672.40686 C 281.26654 
        672.7399 279.67007 673.68 276.1473 675.7685 C 270.61716 679.05054 259.83124 685.4423 
        254.0172 686.90515 C 253.91176 686.43445 253.76306 685.7739 253.76306 685.7739 C 253.18991 
        683.51306 252.57214 681.0797 252.57214 678.32056 C 252.57214 672.3359 255.47847 664.826 
        268.05145 654.2614 C 271.8838 650.3595 272.0068 648.1956 272.32986 646.65015 C 271.03214 
        646.4981 266.3455 648.3897 264.7139 649.7019 C 257.0709 656.12555 252.57214 661.7163 
        250.03076 666.635 L 249.58604 666.6495 C 199.48607 668.3151 78.29151 669.7809 35.04916 
        647.4396 L 34.870724 647.34827 L 33.563545 646.9109 C 30.804546 646.01434 25.670454 
        644.34436 24.292984 640.5814 C 24.038849 639.88477 23.911777 639.1171 23.911777 638.28143 C 
        23.911777 636.2218 24.701223 633.7364 26.24091 630.87726 C 26.459898 630.58905 27.191216 
        629.62585 27.191216 629.62585 C 29.463572 626.6871 32.474007 622.788 32.474007 618.45734 C 
        32.474007 617.878 32.421284 617.2914 32.30503 616.6976 C 31.7143 613.7023 29.617676 611.2183 
        26.071938 609.31805 C 10.910281 601.1955 5.463927 594.769 5.407152 591.7346 C 5.407152 
        591.72015 5.407152 591.7071 5.407152 591.6955 C 5.407152 590.56726 6.3304234 589.4491 
        8.147226 588.3744 C 21.324455 580.5849 29.252693 577.371 34.658493 577.6273 L 38.584084 
        577.81274 L 37.341793 573.81805 C 36.53207 571.21246 35.264095 569.0181 33.57571 567.12366 C 
        38.91933 563.5374 50.443325 557.1327 60.04372 558.6014 C 60.226215 558.62885 69.2886 559.453 
        69.7374 559.5008 C 69.7374 559.5008 63.904427 554.2591 61.872692 553.28577 C 61.872692 
        553.28577 59.82203 551.933 57.779476 550.5874 C 65.65094 547.09393 80.171844 541.6031 
        90.948296 546.503 L 96.97997 549.24475 C 96.97997 549.24475 92.409584 537.2261 90.96452 
        533.42694 C 99.49565 533.0011 119.11415 532.74475 129.2877 535.081 L 139.26932 537.3738 L 
        131.65604 530.08844 C 130.61787 529.09625 123.61696 522.47284 117.40955 518.258 C 130.35292 
        513.9114 150.99336 509.55756 163.65016 509.55756 L 168.80858 509.55756 L 165.87251 505.01108 
        C 163.16623 500.82376 157.63876 495.21417 153.8862 491.60333 C 164.05975 489.20047 180.43126 
        488.99918 192.60141 495.7168 L 196.54323 497.8937 L 196.54323 493.143 C 196.54323 487.7999 
        195.99846 480.4392 195.59563 475.716 C 205.08112 479.96414 225.04297 491.3021 231.76135 
        497.2984 L 233.5998 498.9409 L 235.60043 496.88562 L 236.41557 496.06586 C 238.99612 
        493.58182 244.8345 487.96353 244.8345 475.16998 C 244.8345 472.17908 244.51683 468.79562 
        243.76117 464.96753 C 254.56331 466.61435 272.56104 475.5219 286.7318 496.30048 L 291.42657 
        493.51666 L 291.532 493.9338 C 291.52933 493.89905 291.5266 493.8585 291.5266 493.81357 C 
        291.5266 492.93442 292.0065 490.3085 292.3985 488.17938 C 293.35965 482.93045 294.1518 
        478.06384 294.1518 474.0388 C 294.1518 473.51733 294.1058 473.04227 294.07742 472.55127 C 
        300.5133 475.73196 306.66797 480.86212 312.56177 495.724 L 315.12613 502.18817 L 317.5607 
        495.6661 C 319.5235 490.4099 339.39072 472.8091 353.43716 464.8068 C 351.5771 471.85025 
        351.0756 481.52692 351.0756 489.55246 C 351.0756 497.604 351.5487 503.9291 351.56357 
        504.08408 L 351.8312 506.6608 L 354.25095 506.6608 C 358.75104 506.6608 373.47876 490.1144 
        380.3837 471.52582 C 385.8963 475.5335 393.53116 482.36987 399.40063 505.95685 L 400.18466 
        509.11 L 403.1113 507.86002 C 410.58264 504.6707 416.11957 496.19327 419.64505 482.77542 C 
        428.6574 486.07773 444.3206 497.8343 452.24203 507.595 L 454.39813 510.25278 L 456.41638 
        507.4733 C 460.06616 502.44308 461.89246 497.48236 461.89246 492.62595 C 461.89246 490.69376 
        461.57074 488.7819 460.99216 486.8845 C 467.21988 489.21783 474.7412 493.19223 476.4296 
        501.03525 L 477.461 505.8207 C 477.461 505.8207 480.73367 502.6661 480.8986 502.50827 C 
        482.0273 501.63052 488.07523 500.15897 493.41077 498.85977 C 501.6404 496.85812 511.82074 
        494.35385 520.58844 490.743 C 518.7203 494.08878 517.3415 497.78796 517.3415 501.53204 C 
        517.3415 501.86227 517.3523 502.18964 517.37256 502.5184 L 517.69696 507.4791 L 521.5631 
        504.73154 C 524.0152 502.98914 535.8555 502.4112 556.22565 504.77786 C 554.70624 506.1915 
        553.7546 507.44437 552.8313 508.67114 C 552.05945 509.6966 551.3308 510.66556 550.21155 
        511.78952 L 546.82666 515.1918 L 579.78326 526.18933 L 580.7579 525.66797 C 586.1421 
        522.78424 600.6724 521.0114 613.8172 527.9477 C 610.7649 530.8749 610.0917 532.85046 
        609.22656 536.092 L 607.4449 542.39825 L 611.0893 542.3896 L 618.02264 542.2375 C 629.6926 
        541.87103 645.2503 541.38293 658.2654 547.8254 C 654.40735 550.24854 641.71 558.2233 641.71 
        558.2233 L 650.5831 558.79974 C 660.40796 559.4182 677.5392 562.3324 687.81006 574.3844 C 
        684.9591 575.2593 682.3772 576.3107 682.2136 576.37885 L 678.06903 578.0879 L 681.3877 
        581.2483 C 685.9432 585.58765 691.82214 592.4168 693.50244 595.5381 C 689.04285 597.0502 
        675.0519 599.4111 663.7131 599.8456 C 653.78687 600.2265 645.7478 603.3579 642.20746 
        608.22595 C 640.9125 610.00604 640.25006 611.97723 640.25006 614.00793 C 640.25006 614.635 
        640.31226 615.26654 640.43933 615.90094 L 641.2612 619.32056 C 641.90875 621.8248 642.6576 
        624.72595 642.6576 627.2447 C 642.6576 628.583 642.4467 629.8127 641.8952 630.815 C 641.022 
        632.4039 639.28625 633.51044 636.59485 634.20276 C 604.4196 642.4556 538.213 641.1521 
        502.78946 637.03577 C 487.19254 635.44257 477.76108 636.9445 474.72092 641.49243 C 473.75302 
        642.93945 472.90277 645.3872 474.3478 648.82855 L 474.96832 650.23206 C 476.50934 653.6401 
        477.48398 656.23706 475.99023 658.66455 C 471.30225 666.28015 444.81668 674.29846 345.60895 
        669.468 C 343.33658 661.0717 338.73105 654.289 333.07382 652.14966 C 330.47974 651.4646 
        327.32736 651.9817 326.3135 652.464 z" id="path11"/>
    <path style="fill:#336633" d="M 87.920296 622.18695 C 82.31578 621.5641 65.86993 620.3562 
        57.53345 622.7706 C 63.39075 618.66736 71.05133 612.1496 74.88095 611.66583 C 74.88095 
        611.66583 87.72293 617.471 88.39883 619.87384 C 89.076065 622.2782 87.920296 622.18695 
        87.920296 622.18695 z" id="path13"/>
    <path d="M 112.96082 569.36285 C 113.11492 572.0047 114.22879 574.62335 115.407555 577.39703 C 
        116.71744 580.48065 117.65963 582.93854 117.72587 585.01843 C 117.54743 584.90546 117.10946 
        584.62305 117.10946 584.62305 C 109.78411 579.61597 98.717026 572.051 75.09453 582.4345 L 
        70.06453 584.6448 L 74.744415 587.6082 C 80.567924 591.2943 85.70201 595.5931 89.26262 
        599.6645 C 86.01968 600.1179 83.118744 600.38873 80.48817 600.62335 C 73.11416 601.2795 
        67.28931 601.79944 61.376583 606.28656 L 55.661224 610.62305 L 64.24778 611.7383 C 69.765785 
        612.4234 81.24787 613.8486 87.920296 622.1884 L 93.919525 622.65186 C 88.604294 616.0096 
        79.31076 608.8502 73.09253 607.3873 C 75.41761 606.9369 77.93193 606.66455 80.93696 606.3966 
        C 84.87877 606.0447 89.347786 605.64636 94.833336 604.6238 L 98.98603 603.8504 L 96.59607 
        600.12946 C 93.59375 595.4497 88.4191 590.4137 82.127884 585.83246 C 99.611916 579.59717 
        107.6564 585.0315 114.20176 589.50555 L 120.42674 593.5046 L 121.6839 590.96985 C 122.749115 
        589.1029 123.16006 587.1939 123.16006 585.3009 C 123.16006 581.6582 121.6393 578.0792 
        120.328064 574.9956 C 120.07528 574.40466 119.830605 573.821 119.6008 573.2547 C 134.17714 
        577.791 137.32274 585.12274 140.0939 591.66797 L 140.94553 593.6509 L 145.82819 591.16394 L 
        145.01712 589.2738 C 141.80933 581.69586 137.41602 571.3167 116.2362 566.3516 L 112.73777 
        565.5333 L 112.96082 569.36285 z" id="path15"/>
    <path style="fill:#ffffff" d="M 541.76556 603.0697 C 540.76794 603.2811 525.436 602.4527 
        519.5854 599.327 C 524.22205 596.342 525.9699 594.4692 533.93195 592.8745 L 541.76556 
        602.86255" id="path17"/>
    <path d="M 619.6678 585.92804 C 612.78174 589.3738 611.90845 593.3293 610.80273 598.3378 C 
        610.42285 600.0614 610.0295 601.84436 609.3658 603.6447 L 604.33575 601.5141 C 604.8576 
        600.1034 605.1888 598.59705 605.54156 597.00385 C 606.28503 593.6378 607.1813 589.74164 
        610.19574 586.154 C 603.9289 586.7116 595.01654 589.4549 585.7203 600.4554 L 582.8464 
        603.85614 L 581.2161 599.61383 C 580.7917 598.5044 580.09955 597.2646 579.3682 595.95087 C 
        577.71906 592.98895 575.59 589.1637 575.59 584.59845 C 575.59 583.56573 575.7455 582.4852 
        575.99414 581.37866 C 570.48157 585.0141 563.9768 590.86847 560.75684 597.3399 L 559.29285 
        600.31775 L 555.643 597.4152 C 551.35785 593.9869 546.5063 590.195 536.77344 589.57074 C 
        538.2144 592.3284 543.5418 600.3134 547.10785 603.46075 L 540.7706 603.2826 C 535.158 
        598.3291 530.9445 591.98956 530.03876 587.13165 L 529.4062 583.74677 L 532.6261 583.66565 C 
        545.9277 583.334 552.7556 587.9529 557.6585 591.8085 C 564.166 581.42065 576.3321 573.6066 
        581.7122 572.16547 L 590.26904 569.87415 L 584.382 576.90894 C 581.9096 579.86365 581.0039 
        582.3621 581.0039 584.6636 C 581.0039 587.57196 582.4503 590.1718 584.017 592.9817 C 
        584.14954 593.2207 584.2766 593.46686 584.40906 593.70874 C 598.2473 579.32196 611.4881 
        580.0317 616.66815 580.3604 L 618.2321 580.4227 C 620.54913 580.9181 625.06274 581.6133 
        626.64026 582.4563 C 625.06 583.1819 623.2892 584.56946 619.6678 585.92804 z" id="path19"/>
    <path d="M 618.6525 400.17834 C 618.5904 400.14502 618.52686 400.1103 618.462 400.08273 C 
        608.5804 395.4769 558.66833 374.84897 535.18774 415.24155 C 530.2456 395.89255 514.27826 
        345.3439 478.4059 324.8666 C 477.52048 324.35968 476.4458 324.42194 475.61447 325.02737 C 
        474.86554 325.57343 469.51926 329.58835 462.9712 337.259 C 462.7549 337.11996 462.52643 
        337.0012 462.2696 336.9302 C 448.13666 332.98337 412.1088 326.43668 382.88452 350.7768 C 
        360.17178 369.69415 347.5785 402.39438 345.3521 448.1083 C 334.69595 449.64798 319.82224 
        444.8234 305.4081 440.14798 C 283.74167 433.12042 261.3358 425.85388 254.95668 442.94193 C 
        254.9148 443.05923 254.86206 443.24463 254.83232 443.3663 L 254.65524 444.1108 C 251.08922 
        458.59027 254.19563 472.6324 263.68787 485.7736 C 254.03342 488.71234 246.6851 495.11133 
        244.75204 497.73434 C 242.57431 499.68823 241.89706 501.48712 241.89706 502.9225 C 241.89706 
        503.4917 241.9971 504.00153 242.1431 504.44473 C 243.72198 509.27075 253.002 510.28317 
        260.50983 510.28317 C 270.83884 510.86835 291.8159 518.4637 310.32455 525.1625 C 324.68597 
        530.3622 336.21808 534.53784 341.83478 535.1824 C 344.4329 540.1865 348.12057 544.1566 
        350.18204 546.3668 C 349.42236 550.37305 349.33716 554.837 351.35678 557.98145 C 352.85587 
        560.3162 356.02042 562.71625 362.57794 560.8825 C 368.18515 559.31537 370.83737 560.9767 
        372.77585 562.1933 C 372.77585 562.1933 373.84915 562.8321 373.8613 562.8393 C 376.63654 
        564.5846 382.36948 563.24194 385.26498 562.38306 C 387.81448 564.23846 392.41595 565.8404 
        396.49567 565.67236 C 401.06876 565.48267 404.64154 563.1174 406.55838 559.0127 C 408.6158 
        554.60236 407.8277 550.76843 406.2677 547.7616 C 415.8546 548.8059 430.38364 548.9305 
        434.71344 548.65814 C 434.9175 548.64514 435.1149 548.60455 435.30548 548.5452 C 441.84003 
        551.39996 450.80374 554.27936 463.04825 556.6982 C 459.70935 563.0653 459.04828 568.4431 
        461.12598 572.7448 C 464.23108 579.17566 472.2999 580.43866 474.7304 580.1476 C 475.0467 
        580.1099 475.35626 580.0128 475.64148 579.8607 C 478.81143 578.1618 483.96985 580.8587 
        487.05194 582.4707 L 489.3662 583.6019 L 490.33813 584.12476 C 493.43375 585.9947 496.0143 
        586.0758 502.31497 581.4728 C 507.09625 577.9793 508.36963 578.5804 510.6839 579.6739 C 
        513.07654 580.80225 516.3519 582.3505 522.50665 580.4097 C 525.682 579.4089 528.0584 
        577.1595 529.3832 573.9021 C 530.4362 571.30945 530.75256 568.3084 530.6525 565.29724 C 
        537.3804 564.7237 543.2458 566.07935 546.77124 569.0471 C 553.0719 574.3511 558.1506 
        570.4477 561.85986 567.59875 C 561.85986 567.59875 562.4898 567.1323 563.1022 566.6805 C 
        568.88104 568.5315 574.89923 565.97217 577.3622 564.6541 C 580.3956 563.0986 581.2783 
        560.5581 581.4784 558.70276 C 582.13403 552.5862 576.1753 545.35583 573.5961 542.5474 C 
        575.5562 539.30884 577.1229 535.5387 577.78937 531.5252 C 578.9654 524.42816 577.7502 
        514.65735 567.094 505.51218 C 589.4999 516.05646 603.5747 505.55566 608.3763 500.8209 C 
        618.01996 503.82916 627.3351 507.62833 633.1234 515.9942 C 633.8588 517.0544 635.17413 
        517.44977 636.31635 516.9501 C 646.27637 512.5934 660.86755 491.6352 662.0084 467.39935 C 
        662.8979 448.49216 656.0971 421.48843 618.6525 400.17834 z" id="path24"/>
    <path style="fill:#ffffff" d="M 477.27582 330.90057 C 514.4486 353.38098 528.7708 410.80518 
        531.2784 422.22998 C 531.2919 422.29233 531.31757 422.3459 531.3338 422.40384 C 529.8428 
        425.71774 528.19635 430.09186 526.9662 434.96277 C 510.9705 435.5421 479.87936 455.35315 
        454.2792 472.78595 L 452.46375 474.004 C 444.26376 451.53955 441.06952 431.87192 441.06952 
        414.89395 C 441.07086 363.17062 470.479 336.40012 477.27582 330.90057 z" id="path26"/>
    <path style="fill:#336633" d="M 260.65448 504.4911 C 255.28519 504.48822 249.70769 503.6641 
        247.72057 502.66904 C 247.88277 502.48798 248.02472 502.3185 248.3451 502.04044 C 248.54785 
        501.86807 248.8047 501.53638 248.95204 501.30756 C 249.85503 499.91852 257.49265 492.92575 
        267.6094 490.71115 C 274.70496 498.95682 284.3946 506.80997 296.6039 514.14746 C 282.49667 
        509.2201 268.85983 504.9546 260.65448 504.4911 z" id="path28"/>
    <path style="fill:#336633" d="M 312.0576 519.67303 C 309.0742 518.5926 306.02588 517.4918 
        302.9668 516.39685 C 310.21103 518.439 323.82355 521.90216 338.9338 524.8149 C 338.97302 
        526.19806 339.15012 527.55084 339.4529 528.86163 C 333.478 527.4263 323.01785 523.6402 
        312.0576 519.67303 z" id="path30"/>
    <path style="fill:#ffffff" d="M 299.7955 509.4272 C 280.24866 497.78073 258.64978 479.50064 
        258.64978 455.5762 C 258.64978 452.34775 259.04178 449.0179 259.88666 445.58813 C 259.88666 
        445.58813 259.9637 445.26517 260.02725 444.9943 C 264.63818 432.98282 283.68085 439.15295 
        303.84412 445.69385 C 318.40558 450.41708 333.4077 455.2648 345.12906 453.9453 C 345.0412 
        456.9927 344.99252 460.09375 344.99252 463.2541 C 344.99252 463.58 344.99524 463.90588 
        344.99524 464.2332 C 343.67184 466.84177 341.6739 472.825 341.6739 478.30716 C 341.6739 
        479.44562 341.75906 480.56232 341.95642 481.6182 C 342.5485 484.79303 344.08276 487.1959 
        346.3984 488.55884 C 354.13196 493.11545 395.55618 514.1851 451.73242 481.32126 C 451.79187 
        481.2865 457.17743 477.67566 457.17743 477.67566 C 470.21 468.80142 508.494 442.73914 
        525.75226 440.85916 C 525.3414 443.4735 525.09393 446.153 525.09393 448.82672 C 525.09393 
        450.52423 525.25214 452.20728 525.4806 453.87723 C 511.19757 458.70764 497.3566 473.65933 
        487.10468 484.7467 C 482.1368 490.12167 477.84625 494.76227 475.0548 496.57855 C 474.9426 
        496.65244 474.83447 496.73355 474.7331 496.82333 C 440.6599 527.0845 395.90765 524.89307 
        381.20288 524.1732 L 378.19513 524.04 C 347.79343 522.96674 304.63086 511.187 299.7955 
        509.4272 z" id="path32"/>
    <path style="fill:#ffffff" d="M 572.466 530.5085 C 570.9317 539.7738 563.4469 546.86945 
        561.20154 547.2489 C 559.7254 547.49945 558.71967 548.9826 558.9522 550.5628 C 559.1847 
        552.143 560.569 553.22205 562.04376 552.9715 C 564.3445 552.5833 567.4266 550.4107 570.28156 
        547.1185 C 572.5755 549.72705 576.4227 555.10205 576.1077 558.03937 C 576.0631 558.4652 
        575.9347 558.96344 574.98846 559.4472 C 573.38525 560.3046 567.9673 562.87555 563.73615 
        560.8623 C 562.87646 560.45386 561.968 560.4886 561.1934 561.0607 L 558.71155 562.89 C 
        554.6454 566.01416 552.96783 566.8948 550.1142 564.4905 C 543.80133 559.1764 534.84576 
        559.0967 530.0266 559.53265 C 529.19525 554.86743 527.7921 550.8612 527.1757 549.23315 C 
        532.5166 541.0831 534.58887 532.1075 534.58887 527.3003 C 534.58887 523.0 534.1604 518.99524 
        533.3209 515.283 C 540.64355 513.78973 551.8932 508.86087 554.9739 505.9279 C 555.3902 
        505.53247 555.95526 505.2182 556.5812 504.9459 C 556.692 505.03857 556.8042 505.13272 
        556.9313 505.20804 C 568.6756 512.21387 574.0476 520.9636 572.466 530.5085 z" id="path34"/>
    <g style="fill:#ffffff" id="g36">
        <path style="fill:#ffffff" d="M 374.9752 441.07785 C 379.2671 454.07132 397.8623 439.8902 
            404.9281 434.6615 C 417.2091 450.19836 429.79562 426.7562 435.6732 415.4936 C 435.52448 
            380.87134 448.02988 356.66446 459.10913 342.05606 C 444.69635 338.3366 412.3859 
            333.54678 386.2045 355.3508 C 364.53125 373.40204 352.6112 405.19122 350.6849 449.95505 
            C 350.77414 450.4243 350.74442 450.88922 350.6295 451.32086 C 350.55246 453.31238 
            350.50104 455.3358 350.46457 457.37802 C 360.43533 463.5481 372.2973 445.92416 374.9752 
            441.07785 z" id="path38"/>
        <path style="fill:#ffffff" d="M 350.28748 465.7656 C 355.99066 471.13043 372.5136 478.36218 
            422.06204 472.7555 C 425.19006 472.64108 436.86948 472.8033 425.1806 477.23972 C 
            414.23517 481.39224 365.74652 485.04214 348.14758 482.71606 C 348.4423 483.10278 
            348.74915 483.3302 349.00735 483.48077 C 356.24484 487.74774 394.80457 507.29227 
            447.76086 477.01233 C 439.14053 453.6904 435.75156 433.22906 435.67587 415.49213 C 
            429.7983 426.7548 417.2118 450.1969 404.93082 434.66003 C 397.86368 439.88727 379.2698 
            454.06845 374.9779 441.07642 C 372.30136 445.9227 360.43805 463.54666 350.46725 
            457.37656 C 350.41995 459.88223 350.39566 462.4169 350.40915 465.0009 C 350.40778 
            465.24707 350.35913 465.50922 350.28748 465.7656 z" id="path40"/>
    </g>
    <g style="fill:#ffffff" id="g42">
        <path style="fill:#ffffff" d="M 358.13193 539.193 C 358.08865 539.67096 357.94806 540.14453 
            357.67905 540.56604 C 356.56787 542.3041 353.77643 551.59406 355.82578 554.71533 C 
            356.772 556.1579 359.27957 555.8161 361.214 555.2758 C 368.9854 553.1033 373.2287 
            555.7625 375.50644 557.1906 L 376.28506 557.6599 C 376.30804 557.6744 376.42297 557.7627 
            376.51758 557.8366 C 377.35025 558.0959 380.86356 557.8438 385.06763 556.4042 C 
            386.16122 556.03046 387.5171 556.6924 388.20786 557.6744 L 387.9902 557.3659 C 388.87698 
            558.24506 393.67715 560.4915 397.54193 559.73834 C 399.48853 559.3588 400.85516 558.274 
            401.7203 556.4215 C 403.4398 552.73535 401.4175 549.70245 398.96674 547.1142 C 398.82074 
            547.2257 398.69638 547.343 398.54224 547.4531 C 397.3 548.33954 395.62106 547.9789 
            394.79376 546.64923 C 394.28412 545.82947 394.21793 544.83154 394.53152 543.97845 C 
            382.45056 537.8243 364.96384 538.4224 358.13193 539.193 z" id="path44"/>
        <path style="fill:#ffffff" d="M 497.54587 566.40234 C 496.0535 566.482 494.78552 565.24945 
            494.71115 563.65186 C 494.63818 562.0543 495.7872 560.6957 497.27823 560.616 C 523.6327 
            559.22125 529.1791 532.50287 529.1791 527.3003 C 529.1791 515.82324 525.8131 506.8056 
            519.1745 500.49646 C 508.66296 490.504 492.5091 490.01736 489.9745 490.34326 C 489.8258 
            490.3621 489.6798 490.35776 489.5352 490.35196 C 488.70926 491.2427 487.92114 492.0886 
            487.1479 492.90833 C 483.50616 506.08865 461.97897 532.22766 457.63702 537.1898 C 
            454.1832 541.1396 455.01456 545.5702 456.5394 549.37366 C 459.52548 550.0892 462.73462 
            550.78296 466.2533 551.4391 L 466.2574 551.4391 C 467.46585 549.6923 468.82983 547.88763 
            470.38437 546.0149 C 471.3766 544.81995 473.08527 544.71277 474.2018 545.7744 C 
            475.31708 546.8361 475.4171 548.6669 474.42624 549.8632 C 466.99683 558.8186 463.9769 
            565.991 465.9181 570.061 C 467.56726 573.5154 472.6608 574.4177 473.97342 574.396 C 
            479.37244 572.0771 485.61905 575.2737 489.42435 577.2624 L 491.26547 578.1763 L 492.9944 
            579.07715 C 493.94742 579.65216 494.6368 580.06934 499.26938 576.6859 C 505.99722 
            571.7701 509.2767 572.6753 512.867 574.36993 C 514.9366 575.3476 516.72504 576.1934 
            520.9832 574.8493 C 522.64185 574.32935 523.7354 573.2909 524.4275 571.5876 C 526.2944 
            566.9933 524.64655 559.0663 523.22174 554.37354 C 517.44556 560.76666 509.13748 565.7897 
            497.54587 566.40234 z" id="path46"/>
        <path style="fill:#ffffff" d="M 395.54263 542.63293 C 400.55643 539.051 399.61154 534.64355 
            398.21515 530.43604 L 398.15158 530.2318 C 390.8425 530.44183 384.86893 530.15356 
            380.95682 529.96094 C 380.95682 529.96094 378.03833 529.83057 378.02753 529.83057 C 
            367.64444 529.4642 355.78656 527.8652 344.41666 525.83307 C 345.05066 531.4369 348.933 
            536.5888 351.97455 540.04175 C 352.50848 538.6426 353.00186 537.6128 353.27628 537.2015 
            C 354.13736 535.9095 355.79468 535.6227 357.01126 536.5323 C 357.83453 537.15216 
            358.22247 538.1834 358.13193 539.1915 C 364.9652 538.4224 382.45056 537.8243 394.53152 
            543.97845 C 394.72617 543.4469 395.06683 542.9718 395.54263 542.63293 z" id="path48"/>
        <path style="fill:#ffffff" d="M 457.63837 537.1898 C 461.98032 532.22766 483.50754 506.0872 
            487.14926 492.90833 C 483.57108 496.71472 480.5647 499.70706 478.07474 501.38287 C 
            453.83713 522.84503 424.72772 528.6762 403.78043 529.9769 C 404.61447 532.7766 405.50125 
            537.2362 403.54117 541.57263 C 408.79422 542.4359 417.8769 542.86896 425.1076 542.9762 C 
            424.22083 542.35046 423.43542 541.7436 422.74872 541.1686 C 421.5727 540.1808 421.3672 
            538.36017 422.28778 537.10004 C 423.20834 535.83997 424.90753 535.6213 426.08362 
            536.6076 C 430.45663 540.2793 439.2297 545.2327 456.5394 549.37366 C 455.0159 545.5702 
            454.18457 541.1382 457.63837 537.1898 z" id="path50"/>
    </g>
    <g style="fill:#ffffff" id="g52">
        <path style="fill:#ffffff" d="M 616.19904 405.3462 C 603.057 399.2383 559.15497 382.5037 
            538.9525 419.76196 C 538.8781 419.8981 538.78485 420.03864 538.69293 420.16028 C 
            536.9478 422.43134 528.08954 440.9388 531.1405 455.32275 C 531.1459 455.34592 531.14185 
            455.36765 531.1459 455.3908 C 531.18646 455.60226 531.20135 455.8123 531.1973 456.0223 C 
            531.1959 456.0904 531.19055 456.15845 531.1851 456.22653 C 531.1689 456.40903 531.1378 
            456.5857 531.09186 456.76096 C 531.07697 456.8131 531.06885 456.8653 531.0526 456.9174 C 
            530.981 457.13324 530.88776 457.34036 530.7728 457.533 C 530.7458 457.57498 530.71466 
            457.61264 530.6877 457.65463 C 530.5822 457.8096 530.4646 457.95157 530.33215 458.08337 
            C 530.30646 458.108 530.29156 458.1413 530.2646 458.1645 C 529.11957 459.21744 521.2914 
            472.1023 529.4021 485.13776 C 530.22943 486.46738 529.89417 488.26627 528.65186 
            489.15414 C 527.4096 490.04056 525.73065 489.67987 524.9034 488.35025 C 521.897 483.5199 
            520.6263 478.66348 520.387 474.16913 C 517.15625 476.18094 512.6345 479.8338 509.1158 
            487.8332 C 513.77814 489.58286 518.57294 492.19717 522.7013 496.1006 C 526.689 499.8722 
            529.6792 504.42447 531.665 509.7111 C 537.88727 508.62332 549.1693 503.7003 551.3781 
            501.59576 C 555.4321 497.73434 563.01294 497.5533 568.00104 499.60858 C 568.0578 
            499.63174 568.1146 499.65637 568.17004 499.68536 C 584.94434 508.03964 596.1061 
            503.40335 602.0188 498.90756 C 591.341 495.7588 581.36487 492.61145 576.97424 484.05438 
            C 574.61 484.77133 572.5174 485.00015 571.68066 484.92484 C 569.0365 484.6772 569.31635 
            481.32703 569.31635 481.32703 C 575.0925 480.98236 584.82544 472.63965 586.2178 
            470.67126 C 587.7493 476.09113 585.3013 479.59912 581.9745 481.7833 C 585.5851 488.06348 
            594.3109 490.6315 604.3155 493.57748 C 615.4096 496.84506 627.8393 500.6051 635.93787 
            510.65253 C 643.4471 505.7816 655.59424 488.6979 656.60944 467.10535 C 656.65137 466.203 
            656.6743 465.2804 656.6743 464.34183 C 656.673 447.32184 649.2314 424.17667 616.19904 
            405.3462 z" id="path54"/>
        <path style="fill:#ffffff" d="M 520.387 474.1706 C 520.35864 473.6303 520.337 473.09442 
            520.337 472.56723 C 520.337 468.35532 521.2116 464.53885 522.362 461.42914 C 512.5683 
            466.40723 502.85434 476.0839 494.82877 484.64966 C 498.60565 484.96103 503.77356 
            485.8286 509.1158 487.83466 C 512.6345 479.8352 517.15625 476.18237 520.387 474.1706 z"
            id="path56"/>
    </g>
    <path style="fill:#000000" d="M 500.16833 541.85657 C 515.9829 546.95483 522.0524 538.5441 
        524.3599 530.5896 C 525.26294 527.47266 525.0967 524.62946 523.8625 522.1368 C 521.55634 
        517.4831 516.29517 515.7769 514.0498 515.04987 L 513.59296 514.8992 C 501.23758 510.6366 
        497.3607 517.3948 496.26843 520.4972 C 494.53677 525.4087 497.34442 531.41656 502.39743 
        533.61816 C 505.4903 534.96515 509.7025 535.2027 512.14514 532.7071 C 513.1779 531.6498 
        514.6973 529.23096 513.26984 524.89886 C 512.77374 523.3911 511.22867 522.5988 509.8201 
        523.13324 C 508.7103 523.5519 508.01547 524.67004 508.01547 525.86346 C 508.01547 526.18353 
        508.06546 526.508 508.1709 526.8281 C 508.39532 527.5103 508.4467 527.9477 508.4467 
        528.20844 C 508.4467 528.41986 508.4129 528.50824 508.4102 528.51404 C 508.13574 528.8457 
        506.35547 529.0861 504.4319 528.24756 C 502.11084 527.238 500.6306 524.51935 501.3268 
        522.54236 C 502.53397 519.1169 506.10266 518.40137 511.937 520.41174 C 511.93835 520.4146 
        512.4845 520.5928 512.4845 520.5928 C 514.08636 521.1128 517.83624 522.32654 519.0866 
        524.85254 C 519.6273 525.9417 519.6638 527.2568 519.1961 528.86597 C 516.12354 539.46234 
        508.24527 538.40796 501.72562 536.30634 L 501.11728 536.1137 C 499.61005 535.6502 495.23972 
        533.5225 493.14853 529.273 C 491.77505 526.48047 491.6575 523.2057 492.7997 519.53546 C 
        494.09882 515.3627 496.2373 512.5847 499.3397 511.04358 C 505.77286 507.84702 513.99304 
        511.20438 514.07416 511.2391 C 512.6886 510.64526 512.01404 508.95935 512.56964 507.4733 C 
        513.12384 505.9887 514.6973 505.26746 516.0843 505.8613 C 515.6639 505.68024 505.6958 
        501.49872 497.06598 505.78738 C 492.60236 508.00488 489.44055 512.01404 487.67108 517.7033 C 
        486.04486 522.9305 486.27872 527.7319 488.36722 531.9757 C 491.22897 537.79236 496.79428 
        540.8166 499.63168 541.6842 L 500.16833 541.85657 z" id="path58"/>
    <path style="fill:#000000" d="M 569.0257 530.8923 C 568.07 529.66113 566.3654 529.4975 565.2191 
        530.5215 C 561.39624 533.93243 555.91064 537.57367 551.49164 535.52277 C 548.0189 533.9107 
        546.1859 529.2397 546.0399 526.5891 C 545.9628 525.17114 546.9524 521.38074 549.59106 
        519.0387 C 551.4457 517.389 553.6099 516.9255 556.20404 517.6207 C 559.13605 518.4043 
        560.7609 520.1887 560.66223 522.51483 C 560.5906 524.2094 559.4672 526.0967 557.4598 
        526.4298 C 556.2486 526.63403 555.6985 526.4066 555.63763 526.3023 C 555.48346 526.0474 
        555.5619 525.31165 555.72687 525.0437 L 555.1604 525.46515 C 556.2892 524.6251 556.9191 
        522.85376 556.2675 521.55884 C 555.61597 520.2611 554.4278 519.5384 553.1503 520.0844 C 
        550.64136 521.16205 549.6735 524.9669 550.3737 527.7116 C 551.0564 530.38245 553.49365 
        532.9533 558.2871 532.1553 C 562.5925 531.43976 565.86255 527.4958 566.0626 522.777 C 
        566.2275 518.904 564.08765 513.7579 557.51526 511.9995 C 552.1338 510.55692 548.35956 
        512.6049 546.1386 514.57623 C 542.31573 517.9741 540.45294 523.47656 540.64355 526.9266 C 
        540.8572 530.8445 543.41064 538.0835 549.3437 540.83685 C 553.17737 542.61694 559.6416 
        543.03986 568.6824 534.9695 C 569.82733 533.9469 569.98145 532.1205 569.0257 530.8923 z" id="path60"/>
    <path d="M 490.91132 361.11102 C 490.91132 361.11102 500.59955 417.23596 500.59955 420.13272 C 
        497.3323 420.49484 510.9475 417.853 514.27826 418.08762 L 517.2712 425.92627 C 494.62872 
        429.90933 476.26736 444.2744 472.66217 447.1712 L 470.86023 438.4809 L 479.70224 429.67764 L 
        474.01395 393.3376 C 474.01395 393.3376 468.2242 404.1614 464.61902 406.09067 L 461.3558 
        381.92288 C 465.86133 379.99362 469.28268 373.42227 469.05692 367.99084 C 472.32422 
        365.81827 484.15237 361.4731 490.91132 361.11102 z" id="path62"/>
    <path d="M 376.24588 472.64835 C 378.42767 472.10806 379.7889 469.77475 379.28467 467.437 C 
        374.2182 443.91232 386.33698 391.7357 388.11053 386.98645 C 388.94186 384.7574 387.93076 
        382.2285 385.85165 381.33774 C 383.7726 380.44696 381.41238 381.5304 380.58105 383.75946 C 
        378.54932 389.19955 365.72083 443.10416 371.38214 469.39236 C 371.88498 471.7286 374.06406 
        473.18857 376.24588 472.64835 z" id="path64"/>
    <path d="M 409.21463 473.4406 C 411.3099 472.59186 412.3629 470.08322 411.56808 467.8397 C 
        403.23834 444.3063 411.79382 402.054 414.6056 388.16977 L 415.38147 384.15628 C 415.83566 
        381.80844 414.39737 379.6808 412.20612 379.19122 C 410.01486 378.70456 407.83987 380.3789 
        407.3816 382.72675 L 406.67868 386.32742 C 403.74124 400.83447 394.80185 444.97836 403.98456 
        470.91898 C 404.77805 473.16394 407.1207 474.29224 409.21463 473.4406 z" id="path66"/>
    <path d="M 572.19836 417.09256 C 560.769 417.09256 551.4714 427.056 551.4714 439.30215 C 
        551.4714 451.54822 560.769 461.5088 572.19836 461.5088 C 583.62775 461.5088 592.9253 
        451.54822 592.9253 439.30215 C 592.9253 427.056 583.62775 417.09256 572.19836 417.09256 z"
        id="path68"/>
    <path style="fill:#ffffff" d="M 568.3647 454.40735 C 563.6064 454.40735 559.73486 450.26065 
        559.73486 445.15942 C 559.73486 440.06107 563.6064 435.9144 568.3647 435.9144 C 573.123 
        435.9144 576.9945 440.06107 576.9945 445.15942 C 576.9945 450.26065 573.123 454.40735 
        568.3647 454.40735 z" id="path70"/>
    <path style="fill:#ffffff" d="M 580.1469 453.308 C 581.5676 450.9573 582.4017 448.16193 582.4017 
        445.16083 C 582.4017 436.86887 576.10504 430.12225 568.3647 430.12225 C 563.7929 430.12225 
        559.73627 432.48746 557.1732 436.12292 C 558.55884 428.58987 564.76624 422.8861 572.19836 
        422.8861 C 580.6457 422.8861 587.5181 430.24973 587.5181 439.30215 C 587.5181 445.2318 
        584.5578 450.42285 580.1469 453.308 z" id="path72"/>
    <circle  r="5.4692993" cx="567.1062"  cy="448.6877"
         id="circle74" />
    <circle style="fill:#ffffff"  r="2.3683472"  cx="566.1342"
        cy="446.66284" id="circle76"  />
    <path d="M 371.79984 228.12311 C 365.23825 221.66333 358.2103 219.46613 354.9552 218.4508 C 
        354.9552 218.4508 354.59833 218.33203 354.2455 218.21326 C 352.30032 214.24614 349.27097 
        210.50204 346.4119 207.66756 C 367.25916 195.31429 378.98727 183.47227 382.83585 170.93794 C 
        383.83887 167.66895 384.27145 164.4767 384.27145 161.34673 C 384.27145 150.9705 379.4983 
        141.28949 374.8427 131.85614 C 370.4548 122.95582 365.9155 113.75277 365.50186 104.14274 C 
        364.67593 95.485725 362.54956 87.87302 359.50266 81.175674 C 383.49957 66.74106 390.8736 
        51.71985 392.79044 41.557976 C 394.94785 30.136003 391.125 21.8831 389.4691 19.66562 C 
        389.43256 19.616377 389.3947 19.570026 389.3555 19.52223 C 371.34158 -1.631446 341.86856 
        -1.3229398 306.36517 20.391262 L 305.21616 21.08504 C 304.93906 21.248707 304.65787 
        21.431204 304.3794 21.599216 C 298.0909 14.690415 282.863 6.2202544 265.71964 2.8237894 C 
        249.62389 -0.36700502 225.57422 -0.5538467 202.42215 16.681946 C 198.53036 19.68445 165.0371 
        53.743248 166.72684 81.98242 C 167.35542 92.47743 172.65172 100.81144 182.44543 106.78024 C 
        181.81549 112.74905 182.26158 119.35513 184.78267 126.110405 C 184.9895 126.66658 185.3396 
        127.114136 185.76947 127.42843 C 183.9378 128.01503 182.21156 128.92607 180.60023 130.16588 
        C 174.51178 134.85431 171.99069 143.05072 171.7609 145.50719 C 171.71898 146.05757 171.69466 
        146.62099 171.69466 147.19456 C 171.69466 157.09138 178.53065 170.09354 208.37001 179.60799 
        C 209.00941 191.45288 213.22699 201.19762 221.01599 208.54529 C 227.29504 214.46774 235.299 
        218.32623 243.80579 220.7827 C 243.02174 223.55057 242.42696 226.06497 242.06334 227.71756 C 
        233.52815 232.7652 202.13016 252.93686 198.14374 278.5704 C 198.1424 278.57187 198.11671 
        278.72684 198.11671 278.72684 C 197.41917 283.043 196.20392 292.19827 196.20392 303.43048 C 
        196.20392 331.84204 203.99968 373.5425 247.63947 383.94482 C 245.26572 392.79736 241.1414 
        415.734 243.16908 429.35898 L 230.96921 432.91766 C 229.88237 433.23486 229.09023 434.2386 
        228.98344 435.4393 C 228.54816 440.34064 223.87773 469.20404 223.83041 469.4966 C 223.67226 
        470.4714 223.98857 471.46353 224.66988 472.12982 C 225.35117 472.79752 226.30418 473.0452 
        227.19366 472.78882 L 228.1291 472.5194 C 228.18317 473.1292 228.2183 473.7274 228.2183 
        474.3096 C 228.2183 479.35147 226.25282 483.4678 224.05347 488.06787 C 221.87302 492.63458 
        219.41142 497.81406 218.86261 504.37085 C 218.78148 504.90097 218.73282 505.42242 218.73282 
        505.92212 C 218.73282 508.86957 220.11299 511.30286 222.71925 512.8801 C 224.21567 513.7854 
        226.1298 514.37054 228.31566 514.6964 C 228.16425 515.0817 228.00609 515.48 227.84117 
        515.8943 C 224.71178 523.7749 219.03021 538.09656 220.3009 550.8163 L 219.43036 552.2951 C 
        217.43105 555.53796 213.54602 561.83563 213.54602 569.28467 C 213.54602 574.59735 215.57504 
        580.4952 221.62294 586.29016 C 221.59726 586.603 221.5121 586.91876 221.5121 587.2287 C 
        221.5121 590.3239 222.73006 593.3438 225.15247 596.242 C 233.41594 606.1258 281.72208 
        634.6358 316.29272 632.7775 C 330.02014 632.0403 340.33832 626.7378 346.9567 617.01764 C 
        347.2054 616.6541 347.35815 616.23553 347.4298 615.79663 C 378.52094 624.1249 403.42358 
        620.8443 421.4375 605.96936 L 421.67 605.77673 C 429.6888 599.1692 424.1127 580.2127 
        423.7166 578.9208 C 425.11572 569.1963 420.43988 558.21173 417.5944 554.55457 C 417.48352 
        554.4097 417.35916 554.27936 417.2226 554.16205 C 412.0399 549.64453 405.06464 547.22424 
        396.4551 546.8853 C 397.23373 544.7649 397.52975 542.4866 397.29727 540.12286 C 396.81195 
        535.2447 394.176 530.7431 391.8482 527.9839 C 403.87643 509.7864 411.21933 492.0321 
        415.27737 475.27133 C 424.17218 477.2542 430.41608 475.9188 433.83746 471.2767 C 440.08948 
        462.79785 435.11758 446.2066 427.02307 427.9468 C 429.18054 424.81396 432.31668 420.1009 
        432.91824 418.38165 C 433.31702 417.2432 433.00745 415.9585 432.1477 415.16476 C 431.02844 
        414.1379 426.04846 407.0234 425.39145 405.743 L 425.3942 405.75174 C 420.92654 394.24576 
        414.75153 392.41934 411.51132 391.84143 C 408.49683 382.6891 405.09302 375.05463 402.17316 
        369.33643 C 405.0349 367.20438 408.68066 364.04834 409.8324 362.31897 C 415.64105 352.59308 
        426.50806 334.3883 426.50806 313.1825 C 426.50806 308.62585 426.00656 303.93164 424.84534 
        299.15198 C 420.31686 280.51846 406.45157 263.90985 383.6104 249.72433 C 381.5138 241.71043 
        378.29248 235.76915 374.71567 231.34578 C 374.50882 231.08217 372.08505 228.39832 371.79984 
        228.12311 z" id="path81"/>
    <path style="fill:#ffffff" d="M 420.0654 407.60712 C 420.0411 407.54483 420.0208 407.48257 
        420.0019 407.41882 C 420.40067 408.70786 424.2952 414.26825 426.6946 417.28812 C 426.0376 
        418.38312 425.04407 419.91986 423.9464 421.5681 C 422.87442 419.27533 421.76868 416.96802 
        420.64398 414.65784 C 419.3138 411.92474 417.93774 409.09897 417.74307 408.40952 C 417.40512 
        407.20444 416.38858 406.3948 415.27197 406.32675 C 414.6326 403.48645 413.93912 400.73886 
        413.197 398.10135 C 415.3504 399.29193 417.84445 401.82516 420.0654 407.60712 z" id="path83"/>
    <path style="fill:#ffffff" d="M 258.76874 298.8985 C 258.45514 298.36115 258.3037 297.6732 
        258.25912 296.89972 C 258.03604 295.6715 258.5876 294.1985 258.55243 294.10434 C 258.77954 
        293.17737 259.11884 292.17654 259.56897 291.11343 C 262.44965 286.63934 266.0319 284.06992 
        270.23325 283.51086 C 273.47076 283.08066 276.61502 283.9106 278.89417 284.86942 C 276.19327 
        286.19327 273.77628 287.88785 272.04733 289.10596 L 271.27008 289.652 C 271.19708 289.70123 
        271.12137 289.76062 271.05515 289.81857 C 269.64792 291.02505 264.95993 295.98434 263.44864 
        301.41434 C 261.10327 300.98853 259.49734 300.1441 258.76874 298.8985 z" id="path85"/>
    <path style="fill:#ffffff" d="M 247.8855 292.23737 C 246.74187 291.0526 247.2434 288.16452 
        247.64217 286.54813 C 248.14098 284.53488 249.32109 283.09082 251.25414 282.1349 C 254.11588 
        280.71692 257.95764 280.5851 261.47635 280.96603 C 259.22293 282.55203 256.99112 284.81876 
        254.95534 288.04428 C 254.87558 288.17175 254.80664 288.30502 254.74582 288.4426 C 254.028 
        290.09088 253.54677 291.58704 253.24263 292.94708 C 251.0392 293.3338 248.83714 293.22226 
        247.8855 292.23737 z" id="path87"/>
    <path style="fill:#ffffff" d="M 269.0369 306.37216 C 268.25964 305.8102 268.34344 303.3668 
        268.77063 302.56293 C 269.8642 299.31274 272.95303 295.64252 274.37106 294.40128 C 274.57114 
        294.26077 275.01724 293.9479 275.01724 293.9479 C 280.34598 290.1966 286.32358 286.49454 
        289.79633 290.06625 C 290.48572 290.77304 290.78854 291.48132 290.78177 292.35468 C 
        290.74527 296.10022 285.4395 301.34048 283.6957 303.06262 L 283.52945 303.2292 C 278.5738 
        307.80173 271.03485 307.1485 269.0369 306.37216 z" id="path89"/>
    <path style="fill:#ffffff" d="M 267.02005 311.7399 C 270.99023 313.28387 280.57034 313.60684 
        287.12518 307.5526 C 287.19412 307.48743 287.3577 307.32376 287.3577 307.32376 C 289.97476 
        304.74127 295.17102 299.5923 296.047 293.92764 C 313.06058 279.34964 327.45172 274.66122 
        338.81082 274.50623 C 339.5678 274.40048 341.5103 274.58154 342.6107 274.66412 C 342.62692 
        274.66412 342.6296 274.63803 342.63907 274.6279 C 351.8461 275.34195 358.7497 278.97015 
        363.07135 282.07837 C 347.21622 295.99158 333.086 316.30954 327.007 325.05634 C 327.007 
        325.05634 325.3105 327.46793 325.20236 327.62143 C 288.18634 370.6718 260.9424 358.16354 
        249.61848 349.185 C 254.57144 333.7684 263.41888 317.68552 267.02005 311.7399 z" id="path91"/>
    <path style="fill:#ffffff" d="M 303.76974 240.05638 C 303.76706 240.04335 303.77652 240.02452 
        303.76572 240.01872 C 302.76538 239.48427 301.9516 238.51964 301.12836 237.77226 C 298.27203 
        234.39029 293.40964 227.73639 290.44247 223.42746 C 291.51038 223.32463 292.51343 223.21744 
        293.43668 223.11024 C 303.23038 228.5591 308.9917 228.44466 317.1565 226.0809 C 320.08044 
        225.23215 322.75967 223.88803 325.10095 222.35565 C 324.1831 229.85538 321.75934 242.2637 
        317.40387 250.99457 C 312.2387 243.4311 306.449 241.09631 303.76974 240.05638 z" id="path93"/>
    <path style="fill:#ffffff" d="M 331.97482 327.61563 C 345.29535 308.54764 357.24515 294.46786 
        367.7242 285.48065 C 368.62988 284.53775 370.06552 283.36023 370.94553 282.84747 C 370.96982 
        282.8301 370.99283 282.81128 371.01715 282.79245 C 377.0867 282.8359 407.32755 285.20837 
        410.36636 327.65475 C 409.78778 332.02597 406.56647 335.99457 401.22556 338.84644 C 388.7891 
        345.47714 363.34305 346.36502 331.97482 327.61563 z" id="path95"/>
    <path style="fill:#ffffff" d="M 359.5283 273.3374 C 354.73892 270.97073 348.65588 268.99802 
        341.3819 268.68375 C 339.45425 265.72034 338.85406 262.80472 338.85406 260.4366 C 338.85406 
        258.53488 339.2258 257.02423 339.57053 256.07697 C 342.04428 255.98427 357.38574 255.40637 
        359.74323 255.31801 C 360.50836 256.7302 361.8845 259.8471 361.8845 264.0141 C 361.88583 
        266.74432 361.2843 269.9192 359.5283 273.3374 z" id="path97"/>
    <path style="fill:#ffffff" d="M 251.76646 378.53946 C 251.01486 378.39606 250.30249 378.20776 
        249.56847 378.04703 C 248.49109 376.7116 247.39072 375.18643 247.1028 374.53177 C 246.4269 
        372.4765 246.116 370.14172 246.116 367.59546 C 246.116 363.7688 246.80676 359.4787 247.93686 
        355.0104 C 253.95367 359.42944 263.1769 364.14682 274.9821 363.98895 C 263.83795 375.53983 
        255.19865 379.1275 251.76646 378.53946 z" id="path99"/>
    <path style="fill:#ffffff" d="M 381.59756 348.8794 C 390.75598 348.80844 398.2733 346.89075 
        403.63312 344.0302 C 407.18964 342.13428 410.046 339.77484 412.10608 337.08374 C 409.23627 
        346.78503 403.6574 363.09967 396.02658 365.06223 C 389.04327 366.85822 384.7946 358.1708 
        381.59756 348.8794 z" id="path101"/>
    <path style="fill:#ffffff" d="M 389.41226 267.95517 C 382.27893 268.6924 374.7981 272.71747 
        367.54575 278.3676 C 366.60626 277.6304 365.52078 276.8468 364.30148 276.0531 C 370.8698 
        263.12192 364.69754 251.64201 362.71445 250.04878 C 362.22107 249.65338 361.6141 249.44914 
        360.9977 249.47234 L 337.8632 250.34427 C 337.1792 250.37032 336.53033 250.67303 336.0464 
        251.19012 C 334.05655 253.32214 331.80045 260.9812 335.22992 268.83292 C 332.0451 269.10522 
        328.6724 269.70483 325.12125 270.7129 C 324.0736 265.59866 322.69748 261.3549 321.14294 
        257.8165 C 323.28418 256.18848 325.42538 252.76306 328.67105 247.37796 C 332.94943 240.28088 
        339.4083 229.56427 343.65155 231.6876 C 346.84586 233.85149 360.63138 239.8507 370.36832 
        234.80017 C 372.6893 237.71288 374.83057 241.39178 376.5311 246.04546 C 375.7687 246.20767 
        369.98032 249.21596 370.7414 249.5969 C 372.00937 250.2313 374.4615 250.66724 375.7795 
        251.4262 C 376.75143 251.98528 377.6828 252.5545 378.62503 253.1208 C 379.1049 253.3989 
        381.1042 254.64162 381.46375 254.86902 C 402.4273 268.10294 415.1368 283.30518 419.22464 
        300.13397 C 421.743 310.49283 420.7643 320.5504 418.30542 329.54926 C 418.0175 329.26248 
        417.6714 329.0322 417.27264 328.9018 C 416.73193 328.72513 416.17633 328.73816 415.67755 
        328.90326 C 415.71402 328.65558 415.75998 328.40936 415.7884 328.16025 C 415.81 327.97485 
        415.81268 327.788 415.7992 327.60117 C 413.25107 289.74036 391.08176 280.1506 378.46146 
        277.76944 C 382.57224 275.44623 386.40048 274.0891 389.93274 273.72412 C 391.10202 273.58652 
        396.67813 272.31918 398.53683 272.95358 C 396.34018 270.32617 393.97455 267.848 389.41226 
        267.95517 z" id="path103"/>
    <path style="fill:#ffffff" d="M 349.58456 221.34468 C 349.89816 222.08334 350.26047 222.55553 
        350.98096 222.80754 L 353.05054 223.53029 C 355.84875 224.40367 360.9977 226.01427 366.07233 
        230.34639 C 358.4955 232.57402 347.83398 227.84648 346.493 226.7848 C 346.35242 226.67618 
        346.15778 226.54149 346.00232 226.46184 C 339.02304 222.893 332.8075 230.45212 327.52338 
        238.71663 C 329.7795 229.92201 330.79877 221.45476 330.92447 217.56439 C 332.22626 216.22319 
        333.23334 214.95004 333.87 213.92459 C 336.33838 212.64133 338.67426 211.3682 340.94797 
        210.09796 C 344.20444 212.98026 347.8556 217.26457 349.58456 221.34468 z" id="path105"/>
    <path style="fill:#ffffff" d="M 308.65646 24.940643 C 327.78967 13.237684 363.11462 -2.57 
        384.88785 22.856415 C 385.59213 23.832628 387.6252 28.132885 387.6252 34.398605 C 387.6252 
        36.10625 387.47247 37.958736 387.10208 39.925644 C 385.40964 48.888256 378.6926 62.261208 
        356.5233 75.60518 C 341.00476 48.043846 309.3702 37.88487 294.34778 34.536198 C 297.488 
        32.16519 300.61334 29.96799 303.70352 27.983702 C 304.19556 27.96487 304.6903 27.809896 
        305.12967 27.489801 C 305.45273 27.253716 305.7109 26.95245 305.90424 26.616425 C 306.40033 
        26.312265 306.89914 25.99217 307.3939 25.701044 C 307.3466 25.728565 308.65646 24.940643 
        308.65646 24.940643 z" id="path107"/>
    <path style="fill:#ffffff" d="M 213.26213 176.88358 C 213.2405 175.61334 212.45648 174.50677 
        211.31693 174.15337 L 210.73564 173.97377 C 187.95396 166.94475 175.88791 156.8495 176.75575 
        145.5492 C 176.84497 144.72072 178.58066 138.02048 183.43764 134.33289 C 186.46024 132.03719 
        190.15332 131.4028 194.41011 132.4442 C 194.57231 132.4833 194.84808 132.50937 195.013 
        132.51662 L 194.89809 132.51227 C 196.33504 132.68608 202.93854 135.34097 204.66476 
        137.52658 C 205.62994 138.74757 207.33589 138.89964 208.47545 137.86694 C 209.61502 
        136.83426 209.75694 135.0064 208.79312 133.78395 C 208.06451 132.86133 207.01418 131.98216 
        205.81514 131.1725 C 206.25853 131.00739 206.6681 130.71771 206.98984 130.28465 L 208.43085 
        128.34671 C 226.21904 104.19053 257.67108 64.31791 288.42157 39.20145 C 300.7377 41.185738 
        354.82407 52.893044 359.7189 104.08769 C 360.17853 114.83182 365.0044 124.61711 369.66943 
        134.08087 C 375.45374 145.807 380.9163 156.8828 377.30432 168.64659 C 373.26788 181.79071 
        358.063 195.02026 330.82037 209.08989 C 330.281 209.36652 329.84305 209.83002 329.5754 
        210.40211 C 328.90762 211.83313 323.5383 218.23065 315.74255 220.49013 C 308.1306 222.69313 
        303.8833 222.58739 295.19672 217.5948 C 294.71683 217.3196 294.1734 217.20229 293.63135 
        217.26604 L 293.23257 217.31238 C 281.8397 218.65068 243.18802 221.6271 224.19946 203.71347 
        C 217.1296 197.0422 213.45003 188.01732 213.26213 176.88358 z" id="path109"/>
    <path style="fill:#ffffff" d="M 284.16748 223.91412 C 286.38846 227.38734 291.5942 234.87259 
        295.73743 239.95645 C 291.9957 242.06383 287.34283 245.3734 282.50476 248.81621 C 277.38016 
        252.46614 269.9318 257.7542 266.9565 258.72028 C 263.3445 250.40076 252.02196 235.35057 
        247.49617 229.754 C 246.71619 228.86613 247.34477 227.11794 247.29071 227.02814 C 247.64622 
        225.52037 248.1207 223.63023 248.69522 221.63292 C 261.23575 224.39787 274.294 224.49635 
        284.16748 223.91412 z" id="path111"/>
    <path style="fill:#ffffff" d="M 203.45221 327.8141 C 199.30223 307.46716 201.79222 287.0594 
        203.0575 279.2294 L 203.08588 279.05417 C 206.47481 257.26755 233.64441 238.84697 243.04202 
        233.0737 C 244.652 235.03192 247.47455 238.68619 250.49307 242.8474 C 239.45709 249.229 
        224.82668 264.2285 223.07207 266.64584 C 222.15555 267.90884 222.36777 269.72946 223.54654 
        270.71146 C 224.7253 271.69492 226.4245 271.46606 227.341 270.2031 C 228.78065 268.21735 
        243.69765 253.01219 253.81038 247.52135 C 257.78192 253.25262 261.45337 259.10843 262.53482 
        262.38904 C 262.65918 262.7656 262.85385 263.11032 263.1093 263.40146 C 266.2982 267.06152 
        272.27713 263.0553 285.499 253.64369 C 290.56683 250.03577 296.18488 246.03677 299.71033 
        244.29436 C 300.08478 244.61589 300.41733 244.86066 300.69037 244.99246 L 301.81235 
        245.45886 C 305.2878 246.80585 315.64926 250.82224 319.94525 272.44083 C 312.29953 275.35065 
        303.9144 280.16653 294.8574 287.5924 C 294.4911 286.98987 294.05716 286.41776 293.5421 
        285.88763 C 291.30896 283.59198 288.76086 282.7881 286.1749 282.8446 C 284.45676 280.89218 
        278.7252 277.78394 272.63403 277.60724 C 272.40424 277.59998 272.1663 277.60287 271.92838 
        277.60434 C 267.64188 275.71564 256.4031 273.20123 248.98584 276.8758 C 245.60097 278.55304 
        243.32861 281.3846 242.4202 285.06207 C 241.16844 290.11115 241.74297 293.92474 244.12616 
        296.3986 C 246.57155 298.93616 250.19028 299.16354 253.0358 298.82465 C 253.28181 300.11224 
        253.71304 301.158 254.19022 301.97342 C 255.8678 304.84122 258.9499 306.59232 263.33102 
        307.2383 C 263.33237 307.24118 263.33237 307.24408 263.3337 307.247 C 259.9191 312.61035 
        250.0835 329.96927 244.59387 347.25867 C 244.31001 347.43973 244.04776 347.67578 243.82741 
        347.97272 C 243.1948 348.82147 243.1218 349.9541 243.49623 350.90714 C 240.91296 360.13483 
        239.82072 369.07425 241.84705 375.89035 C 221.4364 368.7889 208.52277 352.66983 203.45221 
        327.8141 z" id="path113"/>
    <path style="fill:#ffffff" d="M 233.74715 437.51483 C 236.52641 436.7052 258.593 430.26855 
        265.42358 428.27704 C 263.53107 435.25827 258.16855 455.03018 257.50616 457.47797 C 
        255.15945 458.15286 235.47607 463.81464 229.489 465.5353 C 230.67451 458.12683 232.9712 
        443.5966 233.74715 437.51483 z" id="path115"/>
    <path style="fill:#ffffff" d="M 269.73578 456.45395 C 269.73578 471.14056 267.7703 488.05045 
        260.95053 501.1149 C 260.14487 501.79272 258.98096 502.48364 257.56967 503.16 C 247.65163 
        497.15356 253.29129 481.99765 262.34286 461.25098 C 264.96802 455.23438 267.47696 449.45242 
        269.29105 444.0818 C 269.56006 447.90265 269.73578 452.07254 269.73578 456.45395 z" id="path117"/>
    <path style="fill:#ffffff" d="M 223.81284 504.77063 C 223.82637 504.68518 223.83717 504.60117 
        223.84258 504.51425 C 224.2765 499.0249 226.31906 494.75214 228.48056 490.2274 C 231.22739 
        484.47583 234.04588 478.5447 233.01717 470.52063 L 255.11891 464.1637 C 248.39105 479.89462 
        242.53377 496.37866 251.47853 505.5093 C 245.34413 507.45306 237.75113 508.8652 231.96817 
        508.7783 C 231.87627 508.76962 231.78569 508.77252 231.69511 508.77396 C 228.88069 508.70737 
        226.5137 508.27573 224.99295 507.356 C 223.91557 506.7028 223.60738 506.02637 223.81284 
        504.77063 z" id="path119"/>
    <path style="fill:#ffffff" d="M 315.63712 626.5133 C 281.68695 628.3368 235.0854 599.4198 
        228.79553 591.89685 C 226.99225 589.7402 226.53534 588.02966 226.53534 586.7348 C 226.53534 
        586.4625 226.58807 586.2597 226.62051 586.0236 C 226.84625 586.3785 227.1085 586.71594 
        227.4816 586.9404 C 263.49323 608.7053 293.36368 619.0092 316.26434 617.56226 C 326.446 
        616.9192 334.83386 613.9398 341.34 608.76184 C 341.48193 611.31537 341.5779 613.00275 
        341.6252 613.87177 C 335.98825 621.6134 327.2706 625.8876 315.63712 626.5133 z" id="path121"/>
    <path style="fill:#ffffff" d="M 335.6706 564.4166 C 335.77603 564.5122 335.89365 564.59625 
        336.01666 564.6759 C 336.1586 564.7845 336.31134 564.8873 336.45193 565.0018 C 336.56818 
        565.0959 336.67227 565.19727 336.78717 565.2929 C 329.6511 564.94385 323.2463 565.752 
        317.69724 567.6523 L 300.53897 560.92596 C 314.75168 558.45215 327.75995 558.67523 335.6706 
        564.4166 z" id="path123"/>
    <path style="fill:#ffffff" d="M 390.46127 552.298 C 386.9236 553.9549 382.99265 556.24194 
        379.4834 559.3632 L 367.36734 557.0849 C 375.97147 554.3286 383.7199 552.7122 390.46127 
        552.298 z" id="path125"/>
    <path style="fill:#ffffff" d="M 359.18494 559.95703 L 375.89713 563.1015 C 373.97757 565.4464 
        372.33786 568.1259 371.21857 571.23413 C 368.09726 579.8955 369.4207 590.1617 375.11578 
        601.7835 C 370.50616 601.57495 365.41803 600.8189 359.84192 599.3372 C 357.8859 595.62067 
        358.6699 576.23395 360.922 572.9722 C 361.29913 572.4218 361.4154 571.71356 361.23294 
        571.0589 C 361.0504 570.40424 360.5881 569.87994 359.992 569.6424 C 357.08292 568.49384 
        352.6869 570.5129 348.27197 573.01855 C 347.49603 570.58093 346.39432 568.22876 344.90872 
        566.03015 C 349.86166 563.7214 354.6308 561.69073 359.18494 559.95703 z" id="path127"/>
    <path style="fill:#ffffff" d="M 298.72757 610.74756 C 297.72455 596.888 300.4579 586.3409 
        306.88156 579.4089 C 309.7825 576.2774 313.42288 573.88617 317.69452 572.23645 C 318.04327 
        572.0873 318.9936 571.7933 319.50995 571.5948 C 325.1361 569.7742 331.7599 569.15283 
        339.22446 569.8118 L 339.92197 569.86835 C 340.20178 569.8915 340.46945 569.8495 340.7141 
        569.7597 C 346.8607 579.31757 344.15442 592.8441 341.609 600.9145 L 341.3792 601.15497 C 
        336.19916 606.71234 323.9506 614.93634 298.72757 610.74756 z" id="path129"/>
    <path style="fill:#ffffff" d="M 349.31284 577.34924 L 349.4156 577.2913 C 352.718 575.378 
        354.81735 574.4496 356.24887 574.002 C 355.2269 577.9344 354.65646 583.8105 354.65646 
        589.2521 C 354.65646 592.5124 354.85922 595.5975 355.28503 597.9931 C 353.13028 597.29785 
        350.90524 596.49255 348.61264 595.5729 C 349.76163 590.03424 350.3794 583.57733 349.31284 
        577.34924 z" id="path131"/>
    <path style="fill:#ffffff" d="M 292.8338 562.48737 C 292.94733 562.5627 293.07034 562.62787 
        293.2001 562.6786 L 312.1103 570.08997 C 309.04175 571.75995 306.32327 573.8427 304.00092 
        576.3484 C 296.88916 584.02484 293.73947 595.3368 294.6087 609.9756 C 289.22992 608.85455 
        283.30505 607.19037 276.7894 604.8642 C 275.20377 600.02374 277.7735 586.5523 283.87277 
        579.6985 C 284.46622 579.0308 284.60275 578.0329 284.21072 577.2102 C 283.82007 576.389 
        282.986 575.92114 282.13168 576.0457 C 263.6649 578.7426 261.54532 592.9875 260.937 598.3755 
        C 257.75488 596.9184 254.45517 595.32227 251.0392 593.57697 C 251.55693 592.30676 252.3991 
        590.38763 253.0777 588.8437 C 255.1554 584.119 256.22736 580.7935 256.84512 579.3785 C 
        257.16147 578.6557 260.76532 573.1909 261.4358 572.3219 C 271.13354 568.6126 282.1195 
        564.95544 292.8338 562.48737 z" id="path133"/>
    <path style="fill:#ffffff" d="M 272.37582 603.2218 C 269.9372 602.2789 267.42422 601.2447 
        264.8288 600.1135 L 264.9126 599.3676 C 265.3925 594.9747 266.45502 585.39935 277.55725 
        581.5742 C 274.16965 587.6226 272.27173 595.2846 272.27173 601.1071 C 272.27173 601.85016 
        272.31366 602.5483 272.37582 603.2218 z" id="path135"/>
    <path style="fill:#ffffff" d="M 252.8817 578.4674 C 252.65189 579.62177 250.70126 584.0567 
        249.41167 586.9926 C 248.51541 589.0305 247.85304 590.5484 247.39072 591.681 C 243.15694 
        589.4433 238.74739 586.9839 234.15536 584.2841 C 238.13098 582.2361 245.39955 578.79767 
        254.38623 575.11584 C 253.59949 576.28906 253.09528 577.40283 252.8817 578.4674 z" id="path137"/>
    <path style="fill:#ffffff" d="M 417.98773 600.70593 L 417.7525 600.9014 C 400.81595 614.88416 
        376.938 617.6984 346.78635 609.28613 L 346.46735 603.59106 C 346.71335 602.83795 346.96072 
        602.0399 347.20676 601.1955 C 374.31418 611.92224 392.69983 607.29175 403.4276 601.40405 C 
        411.07602 597.20514 416.44125 591.5883 419.66528 586.77966 C 420.475 592.1358 420.59128 
        598.5623 417.98773 600.70593 z" id="path139"/>
    <path style="fill:#ffffff" d="M 418.22565 574.65094 C 418.22565 575.8777 418.12292 577.0929 
        417.8931 578.26465 C 417.1564 581.3135 411.82358 590.2848 400.96194 596.24634 C 395.8792 
        599.0374 388.86752 601.49963 379.74835 601.81104 C 373.75183 590.4847 372.14722 580.72546 
        375.00357 572.79987 C 376.2553 569.3252 378.30328 566.43274 380.70947 564.0067 C 380.70947 
        564.0067 382.86694 561.99493 383.26843 561.6922 C 389.4515 556.6924 396.91605 554.2171 
        400.15497 553.1496 L 401.16068 552.7948 C 406.01898 553.6363 410.0825 555.36566 413.2267 
        558.04083 C 414.98813 560.4872 418.22565 567.73486 418.22565 574.65094 z" id="path141"/>
    <path style="fill:#ffffff" d="M 429.20892 467.20526 C 426.7541 470.53366 421.1144 470.24982 
        416.13715 469.15628 C 418.18912 458.9756 419.0597 449.1946 419.0597 439.94522 C 419.0597 
        433.56216 418.63525 427.44998 417.92148 421.62024 C 418.74203 423.34094 419.63965 425.24554 
        420.56964 427.2892 C 420.56424 427.36166 420.53854 427.43115 420.53854 427.50214 C 420.53854 
        428.38275 420.913 429.25327 421.6213 429.82245 C 421.66055 429.85284 421.7038 429.87314 
        421.7457 429.90213 C 427.65842 443.2664 433.9875 460.7238 429.20892 467.20526 z" id="path143"/>
    <path style="fill:#ff0000" d="M 218.4557 504.02472 C 218.4584 503.9769 218.47194 503.93637 
        218.47734 503.88858 C 218.48274 503.84802 218.48004 503.8089 218.48814 503.76837 C 218.47328 
        503.8538 218.46246 503.93924 218.4557 504.02472 z" id="path145"/>
    <g id="g147">
        <path d="M 320.6482 54.460197 C 319.0963 55.287224 317.87024 56.30544 316.88614 57.12378 C 
            314.6611 58.97337 314.32047 59.2587 311.36545 57.478634 C 301.71506 51.66192 295.0521 
            55.944794 291.0697 58.50554 C 288.44858 60.191463 284.24722 58.582306 282.62643 
            57.539467 L 278.45212 64.99286 C 281.8505 67.175575 289.2083 69.836266 295.24268 
            65.95748 C 299.33588 63.325764 302.11383 61.874485 307.3885 65.05369 C 315.03555 
            69.66245 319.1396 66.24861 321.8567 63.992027 C 322.6664 63.319977 323.43018 62.68558 
            324.2588 62.24238 C 326.11615 61.253124 327.63828 61.990356 331.20023 64.18611 L 
            332.64124 65.06383 C 340.20316 69.565414 349.80893 61.077873 350.87823 60.094418 L 
            345.60083 53.49557 C 342.42953 56.40828 338.04434 58.338978 336.579 57.46705 L 335.24612 
            56.653053 C 331.38138 54.26901 326.57172 51.302715 320.6482 54.460197 z" id="path149"/>
        <path d="M 309.64868 37.9906 C 308.09683 38.817627 306.87076 39.835846 305.88666 40.654182 C 
            303.6616 42.50377 303.32095 42.7891 300.36597 41.009037 C 290.71555 35.192318 284.05258 
            39.475197 280.0702 42.034492 L 284.2432 49.487892 C 288.3364 46.85617 291.11432 45.40344 
            296.389 48.58265 C 304.03607 53.191414 308.14145 49.779015 310.85718 47.52098 C 311.6669 
            46.848927 312.43066 46.214535 313.2593 45.771328 C 315.11664 44.78208 316.63876 45.51931 
            320.20074 47.71506 L 321.64175 48.59279 C 329.20364 53.092922 338.8081 44.606827 
            339.87872 43.623375 L 334.60132 37.02453 C 331.42868 39.93723 327.0435 41.86793 
            325.57816 40.996002 L 324.2453 40.183456 C 320.38187 37.79941 315.57358 34.83312 
            309.64868 37.9906 z" id="path151"/>
        <path d="M 331.11777 105.96335 C 331.11777 105.96335 334.5743 99.64404 348.691 100.65212 C 
            355.44995 101.13443 357.70474 108.376366 357.70474 110.30851 C 351.8461 105.96335 
            341.0318 105.48104 328.8657 112.72297 L 331.11777 105.96335 z" id="path153"/>
        <path d="M 267.73108 115.41841 C 267.73108 115.41841 273.41534 107.7159 287.41043 105.48104 
            C 294.10986 104.41068 297.75024 110.97187 298.1355 112.85767 C 283.15228 106.24289 
            265.0451 126.220474 267.58374 123.826294 L 267.73108 115.41841 z" id="path155"/>
        <circle  r="4.9570312" cx="285.15698"  cy="142.17445"
             id="circle157" />
        <circle  r="4.955658" cx="346.4376"  cy="133.96645"
             id="circle159" />
        <path d="M 205.40149 151.34708 C 199.99434 134.93251 185.57483 143.62283 184.22304 146.03584 
            C 185.42613 146.25021 188.59064 146.56305 192.2486 147.18152 C 190.62645 150.85608 
            189.8005 154.4249 193.68555 158.589 C 194.76967 155.10709 196.14175 150.7011 197.80444 
            148.34023 C 200.67833 149.076 203.42517 150.04353 205.40149 151.34708 z" id="path161"/>
    </g>
    <path d="M 222.43132 253.17586 C 223.47354 255.41362 225.35387 257.1169 227.72356 257.96567 C 
        230.6529 259.01575 234.06616 258.68985 237.08876 257.072 C 240.10864 255.45996 242.40265 
        252.73265 243.38133 249.59546 C 244.17348 247.05496 244.0356 244.42181 242.99336 242.18115 C 
        241.94978 239.9405 240.06944 238.24008 237.69841 237.39134 C 234.76909 236.34126 231.35852 
        236.66714 228.33456 238.2821 C 225.31468 239.89706 223.01935 242.62148 222.04199 245.76157 C 
        221.2485 248.30203 221.38774 250.9323 222.43132 253.17586 z" id="path163"/>
    <path style="fill:#ffffff" d="M 225.88783 247.13899 C 226.52994 245.08517 228.08044 243.2747 
        230.14598 242.16812 C 232.21152 241.06445 234.49738 240.82402 236.41287 241.512 C 237.36316 
        241.85094 238.64601 242.58092 239.36382 244.12056 C 240.0816 245.66164 239.8545 247.19838 
        239.53549 248.21657 C 238.89609 250.27039 237.34424 252.08087 235.28006 253.18454 C 
        233.21318 254.2911 230.92595 254.53154 229.01047 253.84357 C 228.06151 253.50462 226.77866 
        252.77464 226.05951 251.235 C 225.34306 249.69394 225.57152 248.15718 225.88783 247.13899 z"
        id="path165"/>
    <path d="M 234.5474 452.074 C 235.58961 454.3132 237.46997 456.01508 239.83963 456.86383 C 
        242.76897 457.9139 246.18222 457.588 249.20483 455.97162 C 252.22472 454.3581 254.5187 
        451.63226 255.4974 448.49503 C 256.28955 445.95456 256.15167 443.3214 255.10944 441.08075 C 
        254.06586 438.84012 252.18553 437.13828 249.81448 436.2895 C 246.88516 435.24084 243.47461 
        435.56528 240.45065 437.18173 C 237.43076 438.7952 235.13542 441.52106 234.15807 444.65973 C 
        233.36458 447.2002 233.50381 449.83188 234.5474 452.074 z" id="path167"/>
    <path style="fill:#ffffff" d="M 238.0039 446.03714 C 238.64601 443.9833 240.19652 442.17282 
        242.26205 441.06772 C 244.32758 439.9626 246.61345 439.7236 248.52895 440.41013 C 249.47923 
        440.74908 250.76208 441.47906 251.47989 443.02014 C 252.19768 444.55978 251.97058 446.09796 
        251.65157 447.11618 C 251.01216 449.16858 249.46031 450.97903 247.39615 452.08417 C 
        245.32925 453.18924 243.04202 453.4297 241.12656 452.74316 C 240.17758 452.40277 238.89474 
        451.67426 238.17558 450.13318 C 237.45914 448.59354 237.68759 447.05536 238.0039 446.03714 
        z" id="path169"/>
    <g style="fill:#ffffff" id="g171">
        <path style="fill:#ffffff" d="M 217.0539 253.83922 C 210.22061 261.1666 204.49173 269.8033 
            203.05344 279.05417 L 203.02505 279.2294 C 201.75977 287.0594 199.26978 307.46716 
            203.41975 327.8141 C 208.49033 352.66983 221.40395 368.7889 241.80919 375.89035 C 
            239.78287 369.07425 240.87375 360.13483 243.45837 350.90714 C 243.08394 349.9541 
            243.15694 348.82147 243.78822 347.97272 C 244.00992 347.67578 244.2708 347.43973 
            244.55603 347.25867 C 244.9967 345.86676 245.4766 344.47775 245.96864 343.09164 C 
            212.00362 324.98975 215.41418 271.146 217.0539 253.83922 z" id="path173"/>
        <path style="fill:#ffffff" d="M 301.77722 245.45886 L 300.6539 244.99246 C 300.3849 
            244.85922 300.051 244.61444 299.67654 244.29436 C 296.15244 246.03677 290.53305 
            250.03577 285.46384 253.64369 C 283.28476 255.19345 281.32062 256.58246 279.51462 
            257.83096 C 290.33026 255.40492 305.52167 253.92467 312.75375 254.11731 C 308.4848 
            248.0674 303.87518 246.26994 301.77722 245.45886 z" id="path175"/>
        <path style="fill:#ffffff" d="M 371.2686 236.02985 C 370.959 235.60547 370.65082 235.1956 
            370.3372 234.79874 C 360.5976 239.8478 346.8134 233.85005 343.61777 231.68616 C 339.3772 
            229.5628 332.91565 240.27942 328.6386 247.37651 C 328.47638 247.6459 328.3277 247.88924 
            328.1709 248.1485 C 333.5145 245.34442 340.84253 242.16812 343.70157 241.147 C 347.5474 
            239.77248 363.13486 242.72284 371.2686 236.02985 z" id="path177"/>
    </g>
    <g style="fill:#ffffff" id="g179">
        <path style="fill:#ffffff" d="M 388.16864 532.31604 C 387.07776 533.86725 385.96118 535.4228 
            384.8 536.97986 C 383.86862 538.2298 382.16534 538.43256 380.99875 537.43176 C 379.83487 
            536.43384 379.6443 534.6103 380.57834 533.36035 C 433.9929 461.8173 409.6445 395.91284 
            396.64975 370.83115 C 393.35953 371.51913 390.54507 370.89053 388.14026 369.44214 C 
            356.02176 385.90305 324.47778 389.0721 300.81476 388.07562 C 298.41263 396.45886 
            291.57663 414.59995 272.1636 424.181 C 274.6009 434.95987 280.0364 477.17743 265.4006 
            504.50412 C 265.25055 504.78366 265.0586 505.0357 264.8315 505.24716 C 263.7879 
            506.22046 262.11035 507.24448 260.02048 508.2424 C 254.31729 520.35675 236.22496 
            530.74023 241.22388 537.10004 C 246.63103 543.9799 252.57755 550.41504 247.23932 
            558.42316 C 243.39755 564.1849 247.91658 568.04913 248.99261 571.2472 C 273.77762 
            560.6508 315.12747 546.3625 336.1248 557.9901 C 337.84833 552.9758 337.95377 548.551 
            336.3857 544.81995 C 332.7426 536.1441 320.90906 532.5521 317.02 531.3731 L 315.53976 
            530.8966 C 314.11227 530.43604 313.44046 528.87463 313.86627 527.34375 C 314.29208 
            525.8128 315.93045 524.98865 317.36063 525.44055 L 318.4934 525.79974 C 320.9199 526.537 
            325.31186 527.8767 329.7119 530.34766 C 358.68616 477.67426 347.93265 426.42456 
            341.87665 406.65552 L 341.5698 405.63443 C 341.11288 404.11218 341.91586 402.5508 
            343.33658 402.06125 C 344.75732 401.57172 346.29837 402.47696 346.75525 403.9992 L 
            347.01074 404.84937 C 353.30466 425.39038 364.48398 478.67505 334.29178 533.4299 C 
            337.17242 535.7444 339.73407 538.67737 341.31567 542.44464 C 343.6313 547.9542 343.41498 
            554.2823 340.7317 561.2649 C 340.82632 561.35034 340.9277 561.4286 341.01962 561.51404 C 
            360.20557 552.39935 376.62302 547.38214 389.83945 546.5088 C 391.20206 544.6389 391.7644 
            542.59235 391.53192 540.259 C 391.23718 537.28546 389.66373 534.34375 388.16864 
            532.31604 z" id="path181"/>
        <path style="fill:#ffffff" d="M 300.81476 388.07706 C 279.14288 387.16458 264.0799 382.7586 
            261.2574 381.86493 C 258.055 383.4799 255.12836 384.34747 252.61946 384.3692 C 250.63503 
            391.21716 246.24036 414.01913 248.03284 427.3457 L 268.6192 421.3407 C 268.62732 
            421.3378 268.63544 421.33923 268.64352 421.33636 C 268.65167 421.33493 268.65842 
            421.32913 268.6665 421.3262 C 268.88956 421.26248 269.11127 421.24075 269.3316 421.23785 
            C 269.337 421.23785 269.34106 421.23785 269.34647 421.23785 C 270.54822 421.23065 
            271.65128 422.07648 271.9757 423.3786 C 272.0352 423.61902 272.10007 423.89566 272.1636 
            424.181 C 291.57663 414.60135 298.4113 396.46033 300.81476 388.07706 z" id="path183"/>
        <path style="fill:#ffffff" d="M 247.23932 558.42316 C 252.57755 550.4165 246.63103 543.9799 
            241.22388 537.10004 C 236.22632 530.74023 254.31863 520.35675 260.02048 508.2424 C 
            253.4116 511.39987 242.56485 514.301 233.66197 514.5168 C 233.33078 515.40753 232.91849 
            516.4533 232.43048 517.68005 C 228.66307 527.1728 220.82133 546.9201 228.1291 558.66797 
            C 228.95773 559.999 228.62251 561.798 227.37885 562.6843 C 226.13791 563.57074 224.459 
            563.21155 223.63036 561.8805 C 222.8747 560.66675 222.25558 559.39795 221.7392 558.0901 
            C 220.12923 561.01434 218.58548 564.6179 218.58548 568.6097 C 218.58548 572.9085 
            220.3739 577.6433 225.79591 582.4172 C 226.05411 582.6446 226.23254 582.94 226.39204 
            583.2413 C 226.42586 583.1587 226.4137 583.0704 226.45424 582.9907 C 226.77731 582.3766 
            227.28424 581.94934 227.85469 581.7176 C 228.08989 581.3005 228.41434 580.934 228.84015 
            580.6777 C 229.08347 580.5314 237.14822 576.3093 248.99261 571.2457 C 247.91658 568.0477 
            243.39755 564.1834 247.23932 558.42316 z" id="path185"/>
    </g>
    <g style="fill:#ffffff" id="g187">
        <path style="fill:#ffffff" d="M 332.69666 366.79883 C 333.20898 354.18918 331.64767 
            338.91595 329.94983 333.04276 C 329.49832 332.7748 329.04413 332.49384 328.58994 
            332.22006 C 311.49792 351.8906 296.21054 360.481 283.33884 363.08228 C 278.14795 
            369.1119 272.87463 374.08856 267.93927 377.7023 C 274.89285 379.37662 288.21475 
            381.94897 305.19724 382.26324 C 309.13095 377.6849 314.20285 372.491 315.5722 370.53568 
            C 322.57718 369.91864 328.1871 368.5369 332.69666 366.79883 z" id="path189"/>
        <path style="fill:#ffffff" d="M 350.44833 353.30133 C 361.78308 357.79132 369.4315 364.6784 
            373.86945 369.69272 C 377.1083 368.3573 380.35938 366.92773 383.6118 365.32294 C 
            379.63074 360.31296 377.29623 353.2593 375.94983 349.18646 L 375.77814 348.68387 C 
            364.41232 347.84528 350.97015 344.2692 336.20996 336.53046 C 337.41846 343.5957 
            338.39444 354.2616 338.21063 364.22504 C 345.56433 360.13773 348.79242 355.3088 
            350.44833 353.30133 z" id="path191"/>
        <path style="fill:#ffffff" d="M 330.6176 380.9684 C 331.8329 377.47632 332.46823 372.39972 
            332.69666 366.79883 C 328.1871 368.5369 322.57852 369.91864 315.5722 370.53568 C 
            314.20285 372.491 309.13095 377.6849 305.19724 382.26324 C 312.98758 382.40955 321.54712 
            382.0793 330.6176 380.9684 z" id="path193"/>
        <path style="fill:#ffffff" d="M 373.86945 369.69272 C 369.4315 364.6784 361.78308 357.7899 
            350.44833 353.30133 C 348.79242 355.3088 345.56433 360.13773 338.21198 364.22794 C 
            338.10516 370.0635 337.60095 375.66006 336.50735 380.14716 C 348.39902 378.27875 361.041 
            374.98224 373.86945 369.69272 z" id="path195"/>
    </g>
    <path id="path197" d="M 248.26433 6.448007 C 235.26048 6.5000944 220.016 9.885842 205.17609 
        20.931868 C 203.77023 22.016706 197.65945 28.008318 191.06679 36.456753 C 181.49341 
        48.723137 170.82173 66.14976 171.71933 81.13041 C 172.19514 89.08205 175.93454 95.3206 
        183.0828 100.18574 C 184.7793 92.90326 187.7627 87.074585 189.67276 83.84613 L 189.79948 
        83.665085 C 190.59705 82.312294 192.25433 81.9053 193.5169 82.75984 C 194.77948 83.612946 
        195.15933 85.390114 194.36177 86.742905 L 194.23505 86.969215 C 190.83124 92.722206 
        183.56335 107.76296 189.4193 123.45043 C 189.77345 124.39623 189.63458 125.43653 189.1236 
        126.21142 C 191.12154 126.0521 193.21713 126.23604 195.41786 126.75456 C 196.75613 126.92258 
        199.54756 127.83723 202.34578 129.19872 C 202.12405 128.30797 202.28494 127.29156 202.85269 
        126.52825 L 204.20448 124.76304 C 209.90904 117.01562 216.9968 107.665565 225.03047 97.69632 
        C 241.78723 76.89895 262.60916 53.37644 283.36856 36.049397 C 283.36588 35.978424 283.36588 
        35.940765 283.36856 35.868347 C 283.42264 34.292503 284.60004 33.03458 286.07214 33.0621 C 
        286.11404 33.0621 286.41278 33.0831 286.91702 33.152622 C 291.01968 29.869131 295.12033 
        26.881836 299.1676 24.190735 C 293.91724 19.131525 281.4659 11.422851 264.35904 8.03218 C 
        259.6451 7.0979705 254.17516 6.424331 248.26433 6.448007 z M 218.86293 69.63384 C 218.50069 
        70.224304 218.02264 70.88863 217.42665 71.625374 C 218.02264 70.88863 218.50069 70.224304 
        218.86293 69.63384 z M 216.45506 72.802185 C 215.09804 74.337296 214.01472 75.75168 
        213.16008 77.10208 C 214.0147 75.751686 215.09804 74.337296 216.45506 72.802185 z" style=
        "fill:#ffffff" transform="matrix(1.0 0.0 0.0 1.0 0.0 -1.2870909E-5)"/>
    <path d="M 350.2483 163.23108 C 349.4061 161.91016 347.7245 161.57124 346.49167 162.47357 C 
        322.9246 179.70358 298.79922 174.2533 289.6963 171.1972 C 291.19946 168.93483 292.43634 
        166.55223 292.87164 164.38544 C 293.18256 162.8212 292.25388 161.28156 290.79395 160.94553 C 
        289.334 160.61241 287.89706 161.60744 287.58344 163.1717 C 286.82373 166.97083 280.8637 
        173.78693 277.99115 176.42444 C 276.85837 177.46582 276.7259 179.29369 277.6978 180.50888 C 
        278.66977 181.72263 280.3757 181.86456 281.50986 180.82318 C 281.55447 180.78117 283.64838 
        178.79834 286.037 175.99426 C 288.07684 176.7677 291.49823 177.90178 295.92804 178.81137 C 
        298.3207 192.03223 305.27295 206.2076 317.57556 204.6752 C 323.37607 203.951 328.31824 
        200.40681 331.86533 194.42062 C 335.59488 188.12738 337.25217 179.86002 336.85883 174.62408 
        C 341.05206 172.75566 345.30344 170.3528 349.53992 167.2547 C 350.7728 166.3567 351.09042 
        164.55347 350.2483 163.23108 z" id="path201"/>
    <path style="fill:#ffffff" d="M 327.30032 191.31674 C 324.61975 195.84149 321.13617 198.40079 
        316.94968 198.92078 C 307.45068 200.10555 303.1858 186.48058 301.66635 179.74992 C 309.9231 
        180.75511 320.36566 180.55667 331.49088 176.74019 C 331.3746 180.39156 330.28238 186.2865 
        327.30032 191.31674 z" id="path203"/>
    <path d="M 339.51373 145.46808 L 339.6773 145.87941 C 340.32346 147.61024 341.8361 151.66573 
        339.79083 155.83707 C 337.82806 159.84041 333.30634 162.65173 325.96884 164.4318 C 316.90778 
        166.63045 310.6409 166.01343 306.80994 162.546 C 302.56396 158.70488 302.86404 152.83168 
        303.02356 149.6771 L 303.06683 148.57053 C 303.129 146.97296 304.3889 145.61726 305.8772 
        145.681 C 307.36957 145.74472 308.53076 146.9744 308.474 148.57053 L 308.4226 149.99284 C 
        308.29825 152.44061 308.11035 156.13979 310.29755 158.11974 C 311.95755 159.62172 315.81555 
        160.95422 324.77518 158.78165 C 331.7761 157.08269 334.20255 154.77686 335.00418 153.14018 C 
        335.82065 151.4731 335.30563 149.77269 334.6554 148.03027 C 334.58783 147.65659 333.6132 
        145.88956 336.1478 144.71057 C 336.7588 144.42813 338.9284 143.86761 339.51373 145.46808 z"
        id="path205"/>
</svg>