<?xml version="1.0" standalone="no"?>
<!--Created with Sketsa SVG Editor (http://www.kiyut.com)-->
<svg contentScriptType="text/ecmascript" width="850.0px" xmlns:xlink="http://www.w3.org/1999/xlink"
    baseProfile="full" zoomAndPan="magnify" contentStyleType="text/css" height="700.0px"
    preserveAspectRatio="xMidYMid meet" xmlns="http://www.w3.org/2000/svg" version="1.0">
    <g  id="layer2" style="display:inline" transform="matrix(1.1647059 0.0 0.0 1.1647059 -174.5673 -126.234184)">
        <g style="stroke:#000000;fill:#ffffff" id="g3040">
            <path id="path4238" d="m 810.7709 130.39761 l -42.416138 0.21861267 l -21.352295 21.7724 
                L 661.8336 175.8661 L 614.2718 131.6655 c -35.810913 0.5594177 -91.16614 1.5380402 
                -102.048706 2.5794525 c -16.116241 1.5422516 -145.91006 9.268585 -167.11563 9.268585 
                c -21.205536 0.0 -139.94427 4.6342773 -139.94427 4.6342773 c 4.2411194 40.09848 
                2.535553 178.88292 4.2319946 203.55891 c 1.6964417 24.675964 1.1193542 115.239075 
                -0.5770874 138.3728 c -1.68367 22.959656 -5.164139 141.112 -5.2899933 142.91968 c 
                0.7975464 0.0014038086 1.7511902 0.45794678 2.4526367 0.5683594 c 8.491196 
                -0.18035889 17.002747 -0.54034424 25.488129 -1.0492554 c 14.038788 -0.67230225 
                27.852219 -3.3348389 41.8871 -4.022217 c 3.889862 -0.58270264 7.869751 0.4081421 
                11.734161 -0.34973145 c 1.3944092 -0.89086914 0.45681763 -2.5518188 0.2885437 
                -3.7599487 c -0.4437256 -8.829834 3.0621033 -17.279968 6.6846313 -25.31366 c 
                0.27859497 -1.2504883 1.4208679 -3.0256958 3.0778198 -2.4483032 l 3.7029724 
                22.253296 c 0.551178 1.3294678 -0.18606567 3.375122 1.5870056 4.065918 c 2.214569 
                -6.09021 1.5701904 -12.910095 5.0976257 -18.624573 c 1.7484741 -0.020141602 
                1.5366821 1.9951172 2.3564453 2.9292603 c 2.7931213 7.3029175 1.4185486 15.143311 
                0.2885437 22.603027 c 7.789673 -0.52978516 15.566559 -1.0180054 23.372162 -1.3115845 
                c 2.0815125 -0.09399414 5.047394 0.30151367 6.1075134 -1.7924805 c 0.67718506 
                -4.1156616 1.2028198 -8.25 1.2022705 -12.416382 c 0.33883667 -13.53418 -4.0470276 
                -26.651184 -7.934967 -39.566345 c -0.28805542 -1.6333618 -1.4194946 -3.1262207 
                -1.2022705 -4.809143 c 0.067840576 -1.1113281 1.3070984 -2.3581543 2.5487976 
                -1.5739136 c 4.2144165 2.4767456 6.557953 6.717102 8.560181 10.755005 c 3.0765076 
                6.7788086 5.2973022 13.940552 6.1075134 21.247803 c -0.48953247 1.8426514 2.184143 
                1.2260132 1.4908142 -0.21862793 c 1.9769592 -7.151062 3.5598755 -14.643982 8.271637 
                -20.810547 c 1.0523071 -1.4541626 2.542389 -3.675537 4.809082 -3.0166626 c 1.6669312 
                1.1577148 1.61969 3.3043823 1.6350708 5.027771 c -0.36645508 9.361206 -5.7122498 
                17.697205 -7.838806 26.712708 c -0.89053345 2.0665283 2.2912598 0.74993896 1.5870056 
                -0.61206055 c 3.862671 -6.3535767 7.069275 -13.290283 13.032623 -18.318542 c 
                0.6866455 -1.3722534 3.4158325 -1.5563965 3.943451 0.043640137 c -0.20202637 
                2.357788 -0.72854614 4.668457 -1.3946533 6.951416 c -2.2381592 7.90979 -6.5102234 
                15.640198 -5.8189697 24.002136 c 0.18972778 1.562439 0.38534546 3.9231567 2.5487976 
                4.1970825 c 24.075317 -0.28875732 48.172333 -0.72662354 72.23242 -1.5739136 c 
                17.200775 -0.42486572 34.29785 -2.1941528 51.50525 -2.4483032 c 9.311768 -0.2894287 
                18.59555 0.5516968 27.89267 0.8306885 c 15.027649 0.39501953 30.055054 -0.27600098 
                45.061096 -0.961853 c 2.6762085 -0.24938965 6.163452 0.36309814 7.886902 -2.0111084 
                c 5.48114 -12.424011 8.717163 -25.522339 12.840271 -38.342163 c 2.8029785 5.4606934 
                4.4536133 11.41864 4.7128906 17.444153 c -0.54315186 1.9174805 1.9343872 0.7197876 
                1.7312622 -0.52459717 c 1.1526489 -1.4556885 2.1305542 -3.7355957 4.472473 
                -3.6724854 c 1.7221069 0.8070679 0.935791 2.7648926 1.1541748 4.1533813 c 
                -0.22277832 7.5181885 0.28125 15.410828 -3.222107 22.428223 c 11.384033 0.4124756 
                22.757812 0.91882324 34.14447 1.2678223 c 48.28943 1.3927002 96.59534 2.2213745 
                144.89764 3.1478271 c 1.6591797 0.1784668 4.081909 0.23809814 4.7128906 -1.5301514 c 
                0.31555176 -7.765747 0.04449463 -15.575378 -0.8656006 -23.302612 c -0.79119873 
                -8.796814 -2.8880615 -17.422424 -3.9434814 -26.18811 c -0.119262695 -1.65979 
                -0.7998657 -4.0393066 1.1541748 -5.027771 c 0.24523926 -0.1081543 0.5316162 
                0.020996094 0.7694702 0.08746338 c 4.304016 2.6550903 6.227417 7.3461304 8.031189 
                11.585693 c 4.362793 11.550781 4.352295 23.911316 4.2319946 35.981323 c 0.07720947 
                1.9088135 -0.66796875 4.4628296 1.442688 5.6835327 c 9.741577 1.5513916 19.664795 
                1.6520996 29.527771 1.7050781 c 8.768372 0.16479492 17.542114 -0.21746826 26.305664 
                0.17486572 c 5.8199463 0.5977783 11.669739 0.1887207 17.45697 -0.480896 c 0.6796875 
                0.14208984 1.3482666 0.32592773 2.0198364 0.5683594 c 2.7597656 -20.316406 
                -2.6748047 -228.09174 2.260254 -241.5513 c 5.0893555 -13.880249 5.0802 -182.76718 
                4.2319946 -194.33405 c -0.84820557 -11.566864 8.512939 -57.0542 -0.8175049 -57.0542 
                l -60.257812 0.0 z" style=
                "fill:#ffffff;fill-opacity:1;stroke:#000000"/>
            <path id="path4025" d="m 862.9013 126.72517 c -29.139954 3.5001907 -67.075745 -1.3789673 
                -91.07501 4.9265976 c 31.312744 1.039505 62.649597 1.9400482 93.91235 3.992218 c 
                4.562439 66.43729 0.09222412 133.81558 -0.12322998 200.59003 c 0.5560303 61.710297 
                -8.144226 123.20407 -4.46344 184.90265 c -0.2828369 34.744507 -0.93573 69.45245 
                1.7011719 104.12421 c 10.84198 -23.253479 8.282654 -60.50177 9.164978 -89.249084 c 
                4.075012 -62.474426 -1.786499 -124.92227 0.4855957 -187.42743 c 0.39086914 -71.30084 
                3.2270508 -142.69543 3.3339844 -213.90218 c -1.1483765 -5.3582764 -7.176697 
                -8.632591 -12.936462 -7.9569855 z M 588.68744 129.61067 c -67.58618 2.954773 
                -135.22778 4.826294 -202.82425 6.4769745 c -56.928986 3.9231415 -114.41388 2.805664 
                -171.01286 9.690598 c -25.32814 15.932526 -2.7283173 52.767426 -8.791977 77.175964 c 
                2.2077942 66.462845 2.3092499 132.96535 -0.084487915 199.4023 c -0.31987 63.44171 
                -9.77919 126.83917 -6.429367 190.24164 c -0.042160034 14.37561 10.381348 33.843933 
                5.3668823 8.300537 c 9.978561 -72.10907 4.336548 -145.07214 9.637268 -217.49417 c 
                1.2642975 -76.05792 0.8904419 -152.13902 0.5529785 -228.18793 c -6.472641 -36.046295 
                45.392548 -26.576752 69.56616 -27.095718 c 65.816986 -1.0170135 131.53745 -4.718872 
                197.08817 -9.854263 c 36.12271 -2.1282043 72.33493 -3.4067688 108.40158 -6.0613556 c 
                1.1376343 -0.98417664 0.062438965 -3.1066284 -1.4700317 -2.594574 z"
                 style="fill:#ffffff;fill-opacity:1;stroke:#000000"/>
            <path 
                 d="m 775.56836 568.03174 c -1.9540405 0.98846436 
                -1.2734985 3.367981 -1.1541748 5.027771 c 1.0554199 8.765686 3.1412964 17.411438 
                3.932495 26.20819 c 0.9100342 7.727295 1.1921387 15.516785 0.8765869 23.282532 c 
                -0.63098145 1.7682495 -3.0464478 1.7032471 -4.7056274 1.5247803 c -48.302307 
                -0.92645264 -96.60834 -1.769165 -144.89777 -3.1618042 c -11.386658 -0.34899902 
                -22.767578 -0.83599854 -34.15161 -1.2484741 c 3.503357 -7.017395 2.9993286 
                -14.910034 3.222107 -22.428223 c -0.21838379 -1.3884277 0.5679321 -3.3463135 
                -1.1541748 -4.1533813 c -2.341919 -0.06311035 -3.3198242 2.2167969 -4.472473 
                3.6724854 c 0.203125 1.2443848 -2.274414 2.4420776 -1.7312622 0.52459717 c 
                -0.25933838 -6.0255127 -1.9099121 -11.983459 -4.7128906 -17.444153 c -4.123108 
                12.819824 -7.359131 25.918152 -12.840271 38.342163 c -1.7234497 2.3742065 -5.203064 
                1.7753296 -7.8792725 2.0247803 c -15.0060425 0.68585205 -30.037048 1.3591309 
                -45.064697 0.9640503 c -9.297119 -0.2789917 -18.577637 -1.1295166 -27.889374 
                -0.8400879 c -17.207397 0.2541504 -34.33316 2.0273438 -51.533936 2.4522705 c 
                -24.060059 0.84729004 -48.135742 1.2747192 -72.21106 1.5634766 c -2.1634521 
                -0.27392578 -2.3353577 -2.6271362 -2.5250854 -4.189575 c -0.69125366 -8.361938 
                3.5585022 -16.082764 5.7966614 -23.992554 c 0.6661072 -2.282959 1.1912231 -4.610718 
                1.3932495 -6.968506 c -0.5276184 -1.6001587 -3.2568054 -1.4158936 -3.943451 
                -0.043640137 c -5.9633484 5.0282593 -9.169952 11.964966 -13.032623 18.318542 c 
                0.70425415 1.3619995 -2.498291 2.6605225 -1.6077576 0.59399414 c 2.1265564 -9.015564 
                7.471985 -17.33368 7.8384705 -26.694885 c -0.015380859 -1.7233887 0.052947998 
                -3.869812 -1.6139832 -5.027527 c -2.266693 -0.6588135 -3.743927 1.5436401 -4.7962646 
                2.9978027 c -4.711731 6.166565 -6.307495 13.678345 -8.284454 20.829468 c 0.69332886 
                1.4445801 -1.9831848 2.076477 -1.4936523 0.23382568 c -0.8102417 -7.307251 
                -3.0162354 -14.470703 -6.092743 -21.249512 c -2.0022278 -4.037903 -4.3576965 
                -8.291809 -8.572113 -10.768555 c -1.2416992 -0.7841797 -2.480896 0.46258545 
                -2.5487976 1.5739136 c -0.21722412 1.6829224 0.8919983 3.1931152 1.1800232 4.826477 
                c 3.88797 12.915222 8.296051 25.99945 7.9572144 39.53363 c 5.493164E-4 4.166382 
                -0.52508545 8.316101 -1.2022705 12.431763 c -1.0601196 2.0939941 -4.010895 1.6794434 
                -6.0924377 1.7734985 c -7.8055725 0.2935791 -15.597565 0.80078125 -23.387238 
                1.3306274 c 1.1300049 -7.459778 2.504547 -15.300171 -0.2885437 -22.603088 c 
                -0.8197632 -0.93414307 -0.6079712 -2.9493408 -2.3564453 -2.9292603 c -3.5274353 
                5.7144775 -2.8830566 12.534424 -5.0976257 18.624634 c -1.7730713 -0.69085693 
                -1.0358276 -2.7365112 -1.5870056 -4.065979 c -1.234314 -7.4177246 -2.4686584 
                -14.83551 -3.7029724 -22.253296 c -1.6569824 -0.5773926 -2.7992249 1.197815 
                -3.0778198 2.4483032 c -3.6225586 8.033691 -7.128357 16.483826 -6.6846313 25.31372 c 
                0.16827393 1.2080688 1.1058655 2.8690186 -0.2885437 3.7598877 c -3.8644104 
                0.75787354 -7.829071 -0.24926758 -11.718903 0.33337402 c -14.034882 0.6873779 
                -27.848175 3.3809204 -41.886963 4.0532227 c -8.485382 0.50891113 -17.00058 0.8522339 
                -25.491776 1.0325928 c -1.1223145 -0.17663574 -2.9545898 -1.2230835 -3.618576 
                0.089416504 c -0.22981262 1.5175781 1.7387848 2.5291138 3.1980133 2.673706 c 
                4.9254913 0.17364502 9.870163 -0.1954956 14.804382 -0.17877197 c 17.688293 
                -0.2388916 35.37816 -0.44573975 53.068558 -0.31414795 c 6.161194 -0.12774658 
                12.331146 -0.21453857 18.474152 -0.69433594 c 2.2565308 -1.0317383 2.0089722 
                -3.7579346 1.4427185 -5.6398315 c -1.2890625 -7.775818 -2.2217102 -15.808044 
                -0.2885437 -23.564941 c 0.43356323 7.810852 0.3894043 15.737915 2.6450195 23.346313 
                c -0.084350586 1.4842529 1.3184814 3.3529663 3.125885 2.8417969 c 4.5884705 
                -2.9979248 6.1336975 -8.329651 6.5910645 -13.197388 c 0.23910522 -2.0844727 0.444458 
                -4.17218 0.6706543 -6.2578735 c -0.024475098 6.074768 -0.48168945 12.181641 
                -2.0679016 18.099976 c -1.7354431 0.6508789 -0.45635986 3.5495605 1.2984619 
                2.7980347 c 10.492126 -1.4855347 21.12033 -1.8140259 31.691833 -2.5794678 c 
                1.9441833 0.6800537 3.943512 -1.2352295 3.6068115 -2.9729004 c 2.2170715 -13.176575 
                1.6372681 -26.696167 -1.2984619 -39.74121 c 4.244751 11.4592285 6.27771 23.629456 
                5.5304565 35.718994 c 0.738739 -0.39294434 0.7177124 -2.4468384 1.2445984 -3.4249878 
                c 1.9431458 -7.1834106 4.1403503 -14.326599 7.0751038 -21.23291 c -1.0646667 6.3927 
                -2.4813538 13.037964 -0.5289917 19.411499 c 1.8066101 0.23010254 2.077118 -1.8553467 
                2.9335327 -2.8417358 c 3.6068115 -5.1881104 7.213623 -10.37616 10.820435 -15.564209 
                c -2.07547 7.4746704 -4.3377075 15.253296 -2.7892456 22.996521 c 0.6715088 1.3234863 
                1.1121826 3.5217285 3.125885 3.4975586 c 16.809143 0.9026489 33.651 0.19055176 
                50.473663 0.5762329 c 12.331848 0.14263916 24.666443 0.26116943 36.996277 
                -0.046142578 c 16.128265 0.18389893 32.29779 1.1623535 48.400238 -0.107299805 c 
                16.954315 -1.6426392 33.9382 -3.6247559 51.022552 -3.3717651 c 6.80896 -0.06878662 
                13.617859 -0.2883911 20.426819 -0.11151123 c 3.302246 -1.4049683 3.7832031 -5.048645 
                5.412903 -7.6623535 c 4.216736 -8.07428 5.6827393 -17.018433 7.0906982 -25.783203 c 
                1.0994263 2.2384644 0.41436768 4.7504272 0.5864258 7.1119995 c -0.26220703 6.675537 
                -2.6329956 13.053467 -4.914612 19.33844 c -0.022460938 1.6747437 2.6573486 2.0031738 
                3.7510986 0.961853 c 4.3512573 -2.4717407 5.710449 -7.2644653 7.2852173 -11.395874 c 
                0.32250977 -1.3452759 0.76330566 -1.7675171 0.37316895 -0.111083984 c -0.7381592 
                4.8742676 -1.1140747 10.237244 -4.737732 14.173889 c -1.0386963 0.72442627 
                -2.3857422 2.2697144 -0.9970093 3.2789307 c 1.5014648 1.1548462 3.5707397 0.2822876 
                5.3308105 0.5700073 c 33.196045 0.16046143 66.39227 0.41131592 99.58179 1.0549927 c 
                26.408813 0.47790527 52.817505 1.0001221 79.223145 1.5929565 c 2.9193115 0.00982666 
                5.853821 0.2130127 8.756531 0.27960205 c 1.960083 -0.44580078 1.3341675 -2.3980103 
                1.5098267 -3.7227173 c 0.7126465 -8.0529785 1.0612793 -16.13507 1.0389404 -24.214172 
                c 1.3580933 7.6119385 1.7675781 15.33783 1.8274536 23.040283 c 0.5996704 1.8861084 
                3.195984 1.5739136 4.8430786 2.0674438 c 8.6779785 1.8047485 17.638489 1.0673218 
                26.452942 1.5903931 c 16.772339 0.53533936 33.541016 1.1601562 50.314148 1.6759644 c 
                1.1113892 -0.8677368 0.90875244 -2.5977783 0.5770874 -3.6724243 c -0.41589355 
                -1.6435547 -2.6142578 -1.4642944 -4.0307617 -1.1965332 c -5.7872925 0.6696167 
                -11.645935 1.0947266 -17.465881 0.49700928 c -8.76355 -0.39239502 -17.53479 
                -0.020996094 -26.303162 -0.18579102 c -9.862976 -0.05303955 -19.788696 -0.14276123 
                -29.530273 -1.6941528 c -2.1106567 -1.2207642 -1.3654785 -3.7747192 -1.442688 
                -5.6835938 c 0.12030029 -12.070007 0.12738037 -24.451172 -4.2354126 -36.001892 c 
                -1.8037109 -4.239563 -3.723755 -8.910034 -8.027771 -11.5651245 c -0.237854 
                -0.06640625 -0.52423096 -0.19555664 -0.7694702 -0.087402344 z" id="path4117" style=
                "fill:#ffffff;fill-opacity:1;stroke:#000000"/>
            <path  d="m 152.50374 114.48365 c -2.7770386 19.63787 
                3.4966278 40.063835 15.677597 56.529564 c 2.0689087 2.7966614 3.9074402 3.895935 
                7.5021667 1.6613464 c 8.2638855 -5.055969 18.679413 -5.5960846 27.452637 -1.1134186 
                c 5.973068 2.5008698 14.7022705 3.3005676 12.703201 11.343826 c 5.0262604 4.2220306 
                15.119171 1.3275604 15.629242 9.384933 c 9.105286 20.46576 18.210571 40.931503 
                27.315872 61.397247 c -8.045166 4.5306854 -14.746414 12.8980255 -15.292892 21.64125 
                c 2.5926666 6.813446 16.38884 4.7391357 14.619614 13.990295 c 1.0881653 4.380127 
                3.244629 9.339478 8.031158 11.104828 c -3.0988464 15.46344 -8.676849 31.123077 
                -8.752533 46.867493 c 3.5953064 11.439087 12.218597 22.99173 25.7612 25.662018 c 
                5.8387756 1.4483948 8.266968 8.7778015 15.404541 7.8272705 c 6.193878 1.1950684 
                14.318756 -4.068756 18.322601 0.7869568 c 8.07016 3.4122314 21.407562 3.6752625 
                26.257599 -4.1096497 c 2.863617 1.0284729 0.33325195 7.8264465 1.4867859 11.145996 c 
                1.3070984 17.151276 4.017273 34.067993 6.6886597 51.06714 c 5.697113 0.5751343 
                1.0198364 6.717407 3.51062 11.323395 c 1.6217651 4.506714 -3.024353 12.188751 
                4.568634 12.285217 c 3.0551758 23.595184 -3.1520386 46.65332 -3.0778198 70.21387 c 
                -3.2026367 16.310486 2.419281 32.1839 8.849396 47.190674 c 0.9248352 5.5493164 
                6.6671753 12.940002 5.0969543 17.558167 c -6.304779 4.069153 -0.21554565 11.650085 
                -1.0580139 17.138123 c -0.5038147 5.925598 4.8583984 12.167175 10.724274 11.629456 c 
                0.08584595 3.2039795 2.164978 7.2625732 6.1075134 6.8639526 c -4.942627 2.0181885 
                -3.3269958 11.274048 2.6930847 10.755066 c 0.60806274 2.750061 -5.020813 4.463623 
                -3.3182678 8.2630005 c 1.6511536 2.1436768 3.3347778 4.591614 -0.5770874 5.5961304 c 
                -13.540649 2.5178833 -28.81073 -3.8048096 -41.74283 1.7050781 c -8.889618 5.5595093 
                -10.0486145 16.837769 -9.185333 25.794617 c -3.2018738 2.3865356 0.684845 9.580688 
                3.6549072 12.63501 c 11.141449 10.027039 28.29181 3.4656372 41.790894 2.7980347 c 
                8.388336 -0.91259766 15.932159 -4.684082 23.853058 -7.170044 c 0.3701477 8.685486 
                13.533691 2.8349 19.957703 4.4157104 c 7.702179 0.91845703 18.874329 -2.0891113 
                19.038208 -10.180054 c -0.57901 -6.857666 -2.5304565 -12.611816 -2.2545166 
                -19.418152 c -2.7969055 -12.968018 -12.709015 -23.754517 -15.629517 -36.81201 c 
                -2.5435486 -5.791748 -5.908661 -10.4296875 -1.0580139 -13.115906 c 0.23062134 
                -5.774597 -1.6568604 -11.424194 -4.183899 -16.307434 c 1.0039978 -4.2890625 
                -0.74191284 -10.559753 -6.9250793 -9.312317 c -8.017548 0.9727783 -9.690826 
                -9.355835 -8.251984 -14.991882 c 1.8346558 -5.848938 -1.5849915 -11.130859 -6.704254 
                -14.387756 c 4.1939697 -4.283386 2.925171 -10.784729 -3.1259155 -12.897278 c 
                -4.093445 -2.5414429 -10.7074585 -3.5220947 -7.261688 -9.574646 c 2.3626099 
                -15.879089 2.1308594 -32.47345 6.203705 -47.96048 c 13.335846 -7.3945312 30.398315 
                -7.1262817 45.541992 -10.055542 c 6.666168 4.742798 10.520935 14.166229 15.749268 
                20.82196 c 7.6857605 13.1719055 18.125244 25.652374 23.348572 39.642365 c 0.67474365 
                5.961914 -3.3171082 16.309021 6.347992 17.444153 c 4.1265564 1.9683228 -1.3877563 
                9.66748 -0.7694397 13.465698 c -1.9221802 5.281372 -2.8940125 11.008606 -0.8175354 
                16.132568 c -3.960205 5.572876 3.3085327 11.645325 3.270172 17.531616 c 0.109558105 
                4.3532715 0.80255127 11.915527 7.790619 10.697876 c 5.358307 -0.7695923 7.476227 
                6.137268 9.041168 9.937805 c -3.6585388 17.95337 -12.407928 35.293945 -11.734161 
                53.381714 c -1.5117188 8.646179 3.582489 18.628235 14.042511 19.41156 c 17.726501 
                1.8208008 37.446594 1.4924316 52.996094 -7.170044 c 3.484558 -5.1346436 1.6467896 
                -13.602783 -0.71032715 -19.432312 c -3.3966675 -12.558594 -3.836853 -26.016418 
                -11.937561 -37.09723 c -2.6898193 -7.7525635 -8.997559 -16.544495 -10.339539 
                -23.390015 c 8.05481 -3.130249 0.6798096 -11.967041 -0.33355713 -17.053894 c 
                -2.302002 -4.7353516 -3.5299072 -12.59491 -10.775391 -12.806702 c -2.262085 
                -9.126831 -10.619629 -16.372803 -12.225037 -25.269531 c 0.26348877 -7.350403 
                1.7567749 -16.013428 -5.5686035 -21.029602 c -5.8288574 -7.3464966 -8.540741 
                -15.739319 -9.60849 -24.76001 c -3.167328 -21.018677 -18.381226 -38.623413 
                -27.229065 -57.520447 c -1.0731506 -7.2410583 -3.493042 -13.98584 -6.9250793 
                -20.59198 c 7.9733887 -1.5368042 0.7675781 -6.4435425 -0.240448 -10.623901 c 
                -0.4790039 -5.208679 -2.0906067 -12.432861 -8.271637 -9.836914 c -2.6891785 
                -8.654999 0.3139038 -17.317444 6.286957 -24.276611 c 10.26828 -16.359528 24.104004 
                -29.849274 36.56198 -44.62564 c 7.825409 -9.23999 10.551117 -22.05304 3.991516 
                -32.527435 c -5.890564 -11.751953 -18.117065 -23.03769 -32.653656 -23.390045 c 
                -5.2026367 -12.838989 3.464264 -26.734192 -2.7132263 -39.61656 c -1.0820923 
                -5.450287 -0.88656616 -12.025696 4.8773193 -14.72702 c 4.0351257 -10.633896 
                6.4750366 -22.743118 4.616699 -33.9702 c -2.925476 -6.9504547 -10.522156 -11.461258 
                -14.138702 -17.444168 c -5.02124 -18.05809 -27.448639 -26.405197 -46.55063 
                -24.644577 c -16.145935 -0.079315186 -34.116608 7.102844 -38.345306 22.471207 c 
                -0.78985596 4.99794 -3.0566711 8.360291 -8.544525 9.780594 c -5.942749 3.6446533 
                -12.426758 7.762497 -9.836761 15.170013 c 0.96884155 7.0323486 -1.0611877 16.38382 
                4.450592 21.6857 c -6.18454 8.097977 -6.91214 21.706543 4.4243774 26.31926 c 
                4.970276 1.4840851 -2.855774 7.2028656 -3.222107 10.492722 c -3.3174744 9.078827 
                -5.230835 18.56958 -7.838806 27.849457 c 5.3788757 -3.53125 15.812775 -1.9294434 
                11.108978 5.2900696 c -5.6618347 12.862457 10.426392 -3.1936646 15.470184 
                -0.58950806 c 5.005249 2.8642273 12.686218 10.447693 2.1791687 9.814362 c -9.035156 
                2.2458801 -19.742493 2.9653015 -27.219421 8.131866 c -4.7766113 3.9098206 -9.145935 
                -2.232788 -14.042511 -3.1915283 c -9.340088 -3.8139343 -17.087921 -11.481415 
                -27.411774 -12.766174 c -1.2555847 -5.8796997 -2.6405945 -11.460815 1.9717407 
                -16.220001 c 3.4015808 -7.8924866 8.669983 -17.732727 1.4427185 -25.226257 c 
                -2.910553 -7.317749 -4.9700317 -16.837097 -14.908173 -18.71202 c -4.175476 
                -3.0120087 -12.332947 -4.1892548 -13.513519 2.0548248 c -1.1237183 2.7616882 
                -0.7573242 6.920624 -1.6831665 9.006256 c -6.6268616 -5.4754486 -7.64209 -15.690933 
                -12.274963 -22.860474 c -6.5584106 -14.826279 -14.558075 -29.736694 -20.23442 
                -44.51158 c 4.0045624 -5.604645 5.515274 -12.60022 0.11265564 -18.088745 c 
                -4.9921265 -6.052536 -3.8233032 -16.327332 -13.458771 -17.82071 c -9.692154 
                -3.8465576 -19.432327 -7.7941284 -30.031845 -7.2855988 c -19.655716 -3.2878265 
                -36.22757 -15.0310135 -51.90126 -25.682953 c -4.097946 -2.25914 -8.318573 -10.745911 
                -8.116074 -0.94234467 z" id="path4035" style=
                "fill:#ffffff;fill-opacity:1;stroke:#000000"/>
            <path id="path3225" d="m 223.10106 164.54271 c -1.006958 0.8413391 -1.5088501 0.5080719 
                -0.5770874 0.13108826 c 0.09140015 -0.03694153 0.47253418 -0.09164429 0.5770874 
                -0.13108826 z" style=
                "fill:#ffffff;fill-opacity:1;stroke:#000000"/>
            <path d="m 166.16002 123.96208 l -10.618835 -8.984512 c 0.0 0.0 -2.8193512 10.903259 2.1205597 28.917175 
                c 5.0883026 18.555145 14.162567 26.687515 14.162567 26.687515 l 9.775879 -7.1873016 
                z" id="path3189" style="fill:#ffffff;fill-opacity:1;stroke:#000000"/>
            <path  d="m 256.0555 172.81192 l -7.6340027 -14.651382 l -1.6964417 -5.0122986 c 0.0 0.0 -25.022552 
                -10.410187 -27.991318 -8.867935 c -6.6170197 0.50749207 -15.818634 -2.6011505 
                -20.357346 -3.8556366 c -8.058121 -2.3133545 -32.65654 -17.735847 -32.65654 
                -17.735847 c -1.241333 12.3014145 0.029846191 24.210777 13.995651 40.48403 c 
                11.026901 -1.5422516 45.804 5.397873 45.804 5.397873 z" id="path3187" style=
                "fill:#ffffff;fill-opacity:1;stroke:#000000"/>
            <path  d="m 171.8331 170.56468 c 3.816986 -7.7112427 15.516418 -12.789703 24.846863 -12.789703 c 9.330444 
                0.0 28.839554 7.7112427 28.839554 7.7112427 l 8.4822235 0.0 l 22.053772 7.3256836 c 
                2.9687805 2.313385 -5.937546 15.036926 -5.937546 15.036926 c 0.0 0.0 -28.415451 
                -4.2411804 -31.384232 -6.5545654 l -0.84820557 -6.9401093 c 0.0 0.0 -19.61943 
                -8.528244 -26.718994 -8.867935 c -8.058121 -0.38557434 -19.333435 5.0784607 
                -19.333435 5.0784607 z" id="path3185" style=
                "fill:#ffffff;fill-opacity:1;stroke:#000000"/>
            <path  d="m 374.5471 199.30225 c 0.0 0.0 1.7227783 -13.397369 7.1973877 -22.355957 c 1.4994507 -2.4537048 
                8.151276 -13.344009 33.887787 -13.904312 c 30.131805 -0.65600586 37.786346 14.176941 
                40.485382 18.811722 c 2.6990356 4.634781 3.5986938 21.538055 3.5986938 21.538055 z"
                id="path3086" style="fill:#ffffff;fill-opacity:1;stroke:#000000"/>
            <path d="m 360.15228 201.2107 c 0.0 0.0 0.0 23.446487 2.6990356 25.354935 c 2.6990051 1.908432 17.9935 
                6.8158417 17.9935 6.8158417 l 80.071106 3.953186 c 0.0 0.0 6.1232605 -1.0529938 
                6.897522 -3.1352844 c 3.5986938 -9.678513 5.398041 -28.353912 3.89859 -30.807617 c 
                -1.4994812 -2.4537048 -12.320648 -22.663406 -41.984863 -24.537033 c -21.520416 
                -1.3592529 -59.078674 14.449585 -62.077606 16.630661 c -2.9989014 2.1810608 
                -7.497284 5.7253113 -7.497284 5.7253113 z" id="path3084" style=
                "fill:#ffffff;fill-opacity:1;stroke:#000000"/>
            <path id="path3051" d="m 425.90005 207.43172 c -16.55774 0.3207245 -40.713226 11.364014 
                -44.291656 12.8098755 c -3.8170166 1.5422516 -4.2800903 12.328949 -4.2800903 
                12.328949 c 0.0 0.0 -2.959259 -6.9555664 -8.89679 -5.0277557 c -5.937561 1.9277954 
                -9.718903 14.268082 -7.598358 19.28038 c 2.120575 5.0122986 11.00824 10.425644 
                13.128784 5.027771 c 0.8482361 3.8556213 12.695984 27.368515 12.695984 27.368515 l 
                70.40497 -0.7432251 c 0.0 0.0 3.867981 -13.446228 4.9052734 -19.542694 c 1.0495911 
                -6.1690063 -1.215271 -8.734283 -0.14419556 -15.039581 c 1.0848694 -6.387512 
                3.3008423 -13.310028 2.4526062 -20.635696 c -0.84820557 -7.3256836 -22.174835 
                -14.725967 -35.202484 -15.73909 c -1.0278931 -0.07989502 -2.0701294 -0.10884094 
                -3.1739807 -0.08744812 z m -33.27884 82.979996 l 0.0 29.292175 L 445.61728 310.08557 
                l 0.4328003 -19.673859 l -53.428894 0.0 z" style=
                "fill:#ffffff;fill-opacity:1;stroke:#000000"/>
            <path id="path3057" d="m 421.66806 234.8877 c -2.3423157 0.0 -4.2319946 1.8642578 
                -4.2319946 4.153366 c 0.0 2.2891083 1.889679 4.153366 4.2319946 4.153366 c 2.3422852 
                0.0 4.2319946 -1.8642578 4.2319946 -4.153366 c 0.0 -2.2891083 -1.8897095 -4.153366 
                -4.2319946 -4.153366 z m 27.1232 3.2789764 c -1.9909363 0.0 -3.5587158 1.717926 
                -3.5587158 3.8473206 c 0.0 2.1294098 1.5677795 3.8473358 3.5587158 3.8473358 c 
                1.9909668 0.0 3.6068115 -1.717926 3.6068115 -3.8473358 c 0.0 -2.1293945 -1.6158447 
                -3.8473206 -3.6068115 -3.8473206 z"  style=
                "fill:#ffffff;fill-opacity:1;stroke:#000000"/>
            <path  d="m 410.85602 241.82753 c 0.84820557 0.0 7.488373 -0.86076355 10.81485 -0.5783386 c 3.9906616 
                0.33880615 6.149597 0.96391296 6.149597 2.3133698 c 0.0 1.349472 -6.268463 4.4900665 
                -9.966614 4.43396 c -5.117523 -0.07763672 -6.9978333 -6.168991 -6.9978333 -6.168991 
                z" id="path3061" style="fill:#ffffff;fill-opacity:1;stroke:#000000"/>
            <path  d="m 441.17996 243.94815 c 2.5446777 -0.38557434 11.026886 0.19276428 12.723328 1.9277954 c 0.0 0.0 
                -1.6964417 3.8556213 -8.058105 3.8556213 c -3.3928833 0.0 -4.665222 -5.7834167 
                -4.665222 -5.7834167 z" id="path3071" style=
                "fill:#ffffff;fill-opacity:1;stroke:#000000"/>
            <path  d="m 421.24673 258.21393 c 0.0 0.0 -4.665222 2.313385 -3.8170166 4.819519 c 0.8482361 
                2.5061646 3.60495 2.8917236 3.60495 2.8917236 l 16.11621 1.5422668 c 0.0 0.0 
                6.9978333 1.3494568 7.6340027 -0.3855896 c 0.0 0.0 0.0 -5.7834167 -0.63616943 
                -7.7112427 c -0.63616943 -1.9277954 -4.023834 -14.680496 -4.0290527 -16.579147 c 
                -0.012298584 -4.4730225 10.216614 -6.723068 10.390747 -6.1690063 c -4.73584 
                -0.19332886 -8.88797 -4.101074 -14.207733 -0.5783386 l -0.8482361 12.145203 c 0.0 
                0.0 0.63616943 13.109116 0.21206665 14.844131 c -0.42410278 1.7350464 -4.8772583 
                1.5422668 -6.361664 1.3494873 c -1.484375 -0.19277954 -8.482239 0.5783386 -8.058105 
                -2.313385 c 0.42410278 -2.891693 0.0 -3.8556213 0.0 -3.8556213 z" id="path3107"
                style="fill:#ffffff;fill-opacity:1;stroke:#000000"/>
            <path d="m 469.32605 293.82184 c -15.532806 -0.0395813 -46.167175 12.022919 -46.167175 
                12.022919 c 0.0 0.0 -22.046753 5.0198364 -30.104858 4.6342773 c -8.058105 
                -0.38555908 -30.550537 5.7589417 -33.519318 7.3012085 c -0.5409546 0.28100586 
                -1.2562256 2.082367 -2.019806 4.8528748 L 339.1923 325.47488 L 325.19788 370.20013 l 
                22.891205 4.022217 c -0.11785889 0.7863159 -0.34381104 2.3224487 -0.4328003 
                2.9292297 c -1.6964417 11.566864 6.446869 60.53653 6.446869 60.53653 l 11.779541 
                4.649536 l 86.03232 -19.506378 c 0.0 0.0 -2.8658752 -12.122192 -2.0176392 -19.447876 
                c 0.84820557 -7.3256836 26.279144 -38.93805 29.672028 -42.40811 c 3.3928833 
                -3.4700623 22.557648 -20.881195 21.64087 -33.926483 c -0.96450806 -13.724335 
                -14.456696 -29.705261 -27.604126 -32.789764 c -1.2325745 -0.28915405 -2.6732483 
                -0.43310547 -4.2800903 -0.43719482 z" id="path3115" style=
                "fill:#ffffff;fill-opacity:1;stroke:#000000"/>
            <path id="rect4136" d="m 469.32605 293.82184 c -6.7471924 -0.017211914 -16.357819 
                2.2399292 -25.055328 4.8091736 l 0.0 21.859833 l -25.680481 0.0 l 0.0 -13.640533 c 
                -2.9410095 0.61587524 -6.8517456 1.3452454 -11.012787 2.0548096 l 0.0 11.585724 l 
                -25.680511 0.0 l 0.0 -8.700226 c -3.662323 0.70480347 -7.486725 1.5796204 -11.012787 
                2.492035 l 0.0 6.208191 l -12.695984 0.0 c -0.21310425 0.6333618 -0.4486084 
                1.3270569 -0.6732788 2.142273 l -18.322601 2.8417664 l -5.0014343 16.001434 l 0.0 
                12.37265 l -3.8953552 0.0 l -3.1259155 10.01181 l 7.0212708 0.0 l 0.0 7.913269 l 
                11.012787 1.9236755 l 0.0 -9.836945 l 25.680511 0.0 l 0.0 23.346313 l -23.27597 0.0 
                c 0.18643188 3.0333252 0.49209595 6.4331665 0.8656311 10.01181 l 22.41034 0.0 l 0.0 
                23.302612 l -19.42871 0.0 c 0.5805054 4.0184326 1.0447693 7.1917114 1.4908142 
                10.055511 l 17.937897 0.0 l 0.0 10.623901 l 11.012787 -2.492035 l 0.0 -8.131866 l 
                25.680511 0.0 l 0.0 2.3171692 l 44.33972 -10.055542 c 0.0 0.0 -2.868042 -12.129578 
                -2.019806 -19.455261 c 0.32489014 -2.8060303 4.2669373 -9.190063 9.185333 -16.1763 l 
                -3.7991638 0.0 l 0.0 -23.346313 l 21.785126 0.0 c 1.1424866 -1.3601074 2.0437927 
                -2.4181519 2.5007324 -2.885498 c 1.6920471 -1.7305298 7.317169 -6.9400635 12.40744 
                -13.334503 l 0.0 -17.138123 l 9.041077 0.0 c 0.19644165 -1.1776733 0.2713623 
                -2.3293152 0.1923523 -3.4538574 c -0.15112305 -2.150879 -0.6295471 -4.3545227 
                -1.3465576 -6.557953 l -7.8868713 0.0 l 0.0 -13.81543 c -3.225586 -3.8279114 
                -7.032837 -7.1331787 -11.060913 -9.443451 l 0.0 23.25888 l -25.632385 0.0 l 0.0 
                -23.346313 l 25.440033 0.0 c -2.3294678 -1.3166199 -4.7339478 -2.326294 -7.1174316 
                -2.885498 c -1.2325745 -0.28915405 -2.6732483 -0.43310547 -4.2800903 -0.43719482 z m 
                -124.122406 36.680817 l 25.680511 0.0 l 0.0 23.346313 l -25.680511 0.0 l 0.0 
                -23.346313 z m 36.6933 0.0 l 25.680511 0.0 l 0.0 23.346313 l -25.680511 0.0 l 0.0 
                -23.346313 z m 36.6933 0.0 l 25.680481 0.0 l 0.0 23.346313 l -25.680481 0.0 l 0.0 
                -23.346313 z m 36.6933 0.0 l 25.632385 0.0 l 0.0 23.346313 l -25.632385 0.0 l 0.0 
                -23.346313 z m -73.3866 33.358124 l 25.680511 0.0 l 0.0 23.346313 l -25.680511 0.0 l 
                0.0 -23.346313 z m 36.6933 0.0 l 25.680481 0.0 l 0.0 23.346313 l -25.680481 0.0 l 
                0.0 -23.346313 z m -36.6933 33.358124 l 25.680511 0.0 l 0.0 23.302612 l -25.680511 
                0.0 l 0.0 -23.302612 z m 36.6933 0.0 l 25.680481 0.0 l 0.0 23.302612 l -25.680481 
                0.0 l 0.0 -23.302612 z"  style=
                "fill:#ffffff;fill-opacity:1;stroke:#000000"/>
            <path id="rect4150" d="m 475.4336 294.78366 l 0.0 71.044525 c 0.9968567 -1.2127686 
                1.8565674 -2.2124023 2.5487976 -3.0166626 l 0.0 -67.02231 c -0.85131836 -0.37612915 
                -1.6917725 -0.72875977 -2.5487976 -1.0055542 z m -34.5773 4.8966064 c -0.90112305 
                0.2808838 -1.6847229 0.5513916 -2.5488281 0.8306885 l 0.0 125.43179 l 2.5488281 
                -0.61206055 l 0.0 -125.65042 z m -37.078033 9.836945 c -0.85598755 0.12802124 
                -1.7241211 0.28582764 -2.5487976 0.39346313 l 0.0 124.42627 l 2.5487976 -0.5683594 l 
                0.0 -124.25137 z m -37.1261 5.9021606 c -0.91571045 0.25994873 -1.7651672 0.504303 
                -2.5488281 0.7432251 l 0.0 125.475525 l 1.7793579 0.6995239 l 0.7694702 -0.17489624 
                l 0.0 -126.74338 z m -37.12613 40.965332 l -2.5487976 8.131866 l 0.0 5.989624 l 
                2.5487976 0.43719482 l 0.0 -14.558685 z"  style=
                "opacity:0.50000000000000000;fill:#ffffff;fill-opacity:1;stroke:#000000"/>
            <path id="path4161" d="m 460.57352 294.69623 c -0.84085083 0.14379883 -1.6829834 
                0.30822754 -2.5487976 0.4809265 l 0.0 93.56015 c 0.81170654 -1.1734619 1.6814575 
                -2.3776855 2.5487976 -3.585022 l 0.0 -90.456055 z m -37.078003 11.0173645 c 
                -0.017089844 0.0069885254 -0.3366394 0.13110352 -0.3366394 0.13110352 c 0.0 0.0 
                -1.2841797 0.27792358 -2.2121887 0.480896 l 0.0 123.55185 l 2.5488281 -0.61206055 l 
                0.0 -123.55185 z m 71.655304 5.158905 l 0.0 32.483734 c 0.93014526 -1.3598633 
                1.7728271 -2.75531 2.5488281 -4.153351 l 0.0 -23.870972 c -0.7642517 -1.5141296 
                -1.5866699 -3.0130005 -2.5488281 -4.4594116 z M 386.3694 311.0036 c -0.8157959 
                0.12060547 -1.6811829 0.28457642 -2.5487976 0.43719482 l 0.0 126.83084 l 2.5487976 
                -0.5683594 l 0.0 -126.69968 z m -37.1261 12.897308 l -2.5488281 0.39349365 l 0.0 
                49.665558 l 1.3946228 0.2623291 c -0.11785889 0.7863159 -0.34381104 2.3224182 
                -0.4328003 2.9292297 c -0.6833801 4.6595154 0.2524109 15.385345 1.5870056 26.537842 
                l 0.0 -79.78845 z" style=
                "opacity:0.50000000000000000;fill:#ffffff;fill-opacity:1;stroke:#000000"/>
            <path id="path4163" d="m 368.23914 314.98218 c -3.333435 0.9121399 -5.956726 1.7312622 
                -7.5021667 2.3171387 l 137.92447 0.0 C 498.32166 316.5203 497.95233 315.7507 
                497.55536 314.98218 l -129.31622 0.0 z m -36.308563 33.751587 l -0.721344 2.3171387 
                l 157.88214 0.0 c 0.653595 -0.7478943 1.317627 -1.5214233 1.9717407 -2.3171387 l 
                -159.13254 0.0 z m 15.533356 33.707886 c 0.012298584 0.72540283 0.013824463 
                1.5156555 0.04800415 2.3171387 l 113.35007 0.0 c 0.55844116 -0.77453613 1.1118164 
                -1.5398254 1.6831665 -2.3171387 l -115.08133 0.0 z m 3.4144592 33.751617 c 
                0.108795166 0.7811279 0.18041992 1.5567932 0.2885437 2.3171387 l 99.88461 0.0 c 
                -0.14141846 -0.7687073 -0.28933716 -1.4147949 -0.4328003 -2.3171387 l -99.74036 0.0 
                z" style=
                "opacity:0.50000000000000000;fill:#ffffff;fill-opacity:1;stroke:#000000"/>
            <path id="path4165" d="m 442.3952 299.19937 c -2.5426636 0.77453613 -4.881531 1.566864 
                -7.117462 2.3171387 l 51.553375 0.0 c -0.9560547 -0.8237915 -1.9306335 -1.6010132 
                -2.9335327 -2.3171387 l -41.50238 0.0 z m -105.55936 33.751587 l -0.7213745 
                2.3171387 l 163.50879 0.0 c 0.31430054 -0.7774353 0.58825684 -1.5470886 0.8175354 
                -2.3171387 l -163.60495 0.0 z m -10.531891 33.751617 L 325.58258 369.0197 l 
                147.25409 0.0 c 0.6831665 -0.8527832 1.2631226 -1.5660095 1.8755493 -2.3171387 l 
                -148.40826 0.0 z M 348.85855 400.41046 c 0.086639404 0.7696228 0.197052 1.539856 
                0.2885437 2.3171387 l 100.89453 0.0 c 0.15863037 -0.62976074 0.47711182 -1.4645691 
                0.8656311 -2.3171387 l -102.048706 0.0 z m 4.664795 33.751587 c 0.11959839 0.7391968 
                0.3395996 2.0433044 0.3847351 2.3171387 l 37.847473 0.0 l 10.195251 -2.3171387 l 
                -48.42746 0.0 z"  style=
                "opacity:0.50000000000000000;fill:#ffffff;fill-opacity:1;stroke:#000000"/>
            <path d="m 589.2696 540.09436 l -3.5986938 10.360107 l 20.992432 -5.997986 l -1.199585 
                -7.633728 z" id="path4208"  style=
                "fill:#ffffff;fill-opacity:1;stroke:#000000"/>
            <path d="m 585.6709 550.4544 l 20.992432 -5.997925 l 2.2525635 3.5075073 l -17.38855 
                7.3256836 l 0.42407227 -2.3134155 l -9.754517 1.1566772 z" id="path4210"
                style="fill:#ffffff;fill-opacity:1;stroke:#000000"/>
            <path d="m 594.4961 568.78436 l -6.7857666 9.639038 l 2.5446777 1.9277954 l 17.812683 
                -8.86792 l -5.937561 -6.5545654 z" id="path4212" 
                style="fill:#ffffff;fill-opacity:1;stroke:#000000"/>
            <path d="m 621.2151 543.3372 l 12.299194 -2.3133545 l 4.665222 6.5545654 l -16.11621 0.0 
                z" id="path4214"  style=
                "fill:#ffffff;fill-opacity:1;stroke:#000000"/>
            <path  d="m 405.75272 211.15552 c -3.448761 1.5258789E-5 
                -14.130066 4.5082855 -14.130066 4.5082855 c 0.0 0.0 -0.5857544 9.549072 0.61383057 
                8.731171 c 1.1995544 -0.8179016 15.131195 -13.239456 13.516235 -13.239456 z m 
                60.255096 1.2165375 l -10.172577 0.95913696 l -4.2179565 -0.40109253 l 1.790741 
                4.076248 l 9.417084 5.79097 c 5.9340515 -0.70033264 5.3947144 -4.357254 7.991791 
                -6.0532837 l -7.213623 0.26231384 z m -39.05847 12.873566 c -3.1808167 0.0 
                -14.017517 -0.09681702 -19.284424 3.4538574 c -0.96520996 0.65068054 -1.7974854 
                1.8417358 -1.6831665 2.9292145 c 0.18170166 1.7283325 0.638031 3.0583038 3.6068115 
                4.022217 c 2.9687805 0.9638977 4.039215 -1.7388 8.704437 -2.3171387 c 4.665222 
                -0.5783539 8.680176 2.5278168 11.012787 2.1422577 c 2.332611 -0.38555908 3.6265259 
                -2.9092407 3.4144592 -4.065933 c -0.21206665 -1.1566925 -2.5900574 -6.1644745 
                -5.7709045 -6.1644745 z m -47.606873 -3.875412 l -2.6393127 6.172577 l -2.8319702 
                24.837936 c 0.0 0.0 -6.9085083 12.397125 -8.180817 14.903259 c -1.2723389 2.5061646 
                -6.347992 22.34076 -6.347992 22.34076 l 1.6831665 -0.56832886 c 0.0 0.0 8.269348 
                2.1243591 9.32962 2.3171387 c 1.0603027 0.19277954 -1.2503662 8.656494 -1.2503662 
                8.656494 l 11.830353 -5.5523987 l 7.886902 6.514221 l 3.366333 -5.945862 l 1.2984619 
                1.923645 c 0.0 0.0 30.950378 5.2126465 35.827667 4.634308 c 4.877289 -0.5783386 
                36.6933 -5.9895935 36.6933 -5.9895935 c 0.0 0.0 -3.222107 -11.553711 -3.222107 
                -14.2526245 c 0.0 -2.698944 1.923645 -18.712036 1.923645 -18.712036 l -3.1739807 
                -13.290787 l -0.4809265 -1.4864655 c 0.0 0.0 0.1328125 6.399719 0.19238281 8.394165 
                c -1.3158569 5.836853 -3.943451 14.689819 -3.943451 14.689819 c 0.0 0.0 -18.684937 
                -4.274536 -24.622498 -4.8528748 C 426.74332 265.5252 391.75555 266.71564 391.75555 
                266.71564 l -4.424347 4.240814 l 0.0 -11.0173645 l -2.7892761 -1.3553162 z m 
                66.21805 7.1543884 c -1.0507202 0.011199951 -2.1180725 0.14447021 -3.1259155 
                0.5683594 c -1.2077026 0.5079651 -2.5572205 4.3390503 -1.8755493 5.9895935 c 
                0.8482361 1.3494568 2.7453308 2.8696594 5.2900085 2.0985413 c 2.5446472 -0.77111816 
                7.200348 2.134369 8.89679 1.7487793 c 1.6964417 -0.38555908 4.0309143 -2.2950745 
                3.6068115 -4.41568 c -0.42410278 -2.1206055 -5.506195 -6.0075073 -7.838806 -5.814728 
                c -1.4578857 0.12045288 -3.202179 -0.19311523 -4.9533386 -0.17486572 z" id="path3053"
                style="fill:#ffffff;fill-opacity:1;stroke:#000000"/>
            <path d="m 413.82483 310.45764 c -6.355774 3.4455566 -12.728485 8.332489 -15.268005 14.651367 c 
                -5.8800964 14.6310425 -3.3928833 43.568512 2.9687805 46.653015 c 6.361664 3.0845032 
                28.839539 8.86795 38.169983 5.7834473 c 9.330444 -3.0845032 25.446655 -3.8556213 
                28.83957 -13.880249 c 3.3928833 -10.024628 10.17865 -25.447113 2.5446777 -35.47171 c 
                -7.634033 -10.024628 -23.32611 -24.290436 -35.201233 -23.133759 c -11.875122 
                1.1566772 -15.515045 1.8531494 -22.053772 5.397888 z" id="path3164" style=
                "fill:#ffffff;fill-opacity:1;stroke:#000000"/>
            <path id="path3166" d="m 285.31915 362.89407 c 0.0 0.0 2.9687805 14.651398 12.299225 
                15.036957 c 9.330444 0.38555908 29.263672 -3.4700623 31.384216 -4.62677 c 2.120575 
                -1.1566772 16.540314 -35.08615 14.419769 -41.640717 c -2.1205444 -6.554535 
                -28.839539 -17.35028 -28.839539 -17.35028 z"  style=
                "fill:#ffffff;fill-opacity:1;stroke:#000000"/>
            <path  d="m 272.59583 286.93832 c 0.0 0.0 -13.14743 52.050903 -12.299194 58.991028 c 0.84820557 6.9401245 
                11.026855 20.434814 16.964417 21.97705 c 5.937561 1.5422668 13.9956665 6.1690063 
                19.933228 5.0122986 c 5.937561 -1.1566772 21.629639 -15.808044 22.053772 -18.12143 c 
                0.42410278 -2.3133545 -9.330444 -68.24451 -9.330444 -68.24451 z" id="path3170"
                style="fill:#ffffff;fill-opacity:1;stroke:#000000"/>
            <path id="path3181" d="m 228.48828 178.20978 l 88.63919 198.95013 l 23.750214 -2.313385 
                l -90.759735 -194.70895 c 0.0 0.0 0.42410278 -4.2411804 -4.665222 -6.168991 c 
                -5.08934 -1.9278107 -11.451004 -3.0845032 -13.9956665 -1.5422516 c -2.5446777 
                1.5422516 -2.9687805 5.783432 -2.9687805 5.783432 z" 
                style="fill:#ffffff;fill-opacity:1;stroke:#000000"/>
            <path d="m 269.62704 323.9523 c 0.0 0.0 14.419769 -14.651367 17.812683 -16.193604 c 
                3.3928833 -1.5422668 12.299194 -3.8556519 16.11621 -3.8556519 c 3.816986 0.0 
                11.875092 -1.5422363 16.964417 1.1567078 c 5.0893555 2.698944 22.477905 12.338013 
                24.59845 12.723572 c 2.120575 0.38555908 5.5134583 3.4700317 5.5134583 3.4700317 c 
                0.0 0.0 27.56723 -5.3978577 35.625305 -6.554535 c 8.058136 -1.1567078 22.477905 
                1.1566772 26.718994 3.4700317 c 4.2411194 2.313385 7.634033 0.38555908 11.0269165 
                0.38555908 c 3.3928833 0.0 27.143097 13.49469 30.53598 18.892578 c 3.3928833 
                5.3978577 -2.9687805 30.84497 -8.906342 33.158356 c -5.9375305 2.3133545 -25.870758 
                3.0844727 -30.111877 1.1566772 c -4.2411194 -1.9277954 -7.2099 -4.6267395 -7.2099 
                -4.6267395 c 0.0 0.0 -11.026855 5.3978577 -16.964417 5.0122986 c -5.937561 
                -0.38555908 -43.68344 -16.964752 -45.379883 -19.278107 c -1.6964417 -2.313385 
                -11.875122 1.9277954 -11.875122 1.9277954 c 0.0 0.0 -0.42410278 -3.4700317 
                -2.5446472 -3.4700317 c -2.1205444 0.0 -18.236786 0.0 -21.62967 1.1566772 c 
                -3.3928833 1.1566772 0.0 10.410156 0.0 10.410156 c 0.0 0.0 -17.38855 0.0 -18.236786 
                -2.6989136 c -0.84820557 -2.698944 -2.96875 -9.253479 -2.96875 -9.253479 c 0.0 0.0 
                -11.875122 -0.7711487 -11.451019 -3.8556519 c 0.42410278 -3.0844727 1.6964417 
                -10.024628 1.6964417 -10.024628 c 0.0 0.0 -4.665222 -0.77111816 -5.937561 -4.24115 c 
                -1.2723083 -3.4700928 -3.3928833 -8.86795 -3.3928833 -8.86795 z" id="path3168"
                style="fill:#ffffff;fill-opacity:1;stroke:#000000"/>
            <path d="m 291.68082 256.86447 c 0.0 0.0 -9.754547 -6.5545654 -16.11621 -5.783432 c -6.361664 
                0.77111816 -16.11621 4.6267395 -19.933228 8.0967865 c -3.816986 3.4700623 -11.450989 
                14.651367 -8.482208 16.579193 c 2.9687805 1.9277954 12.299225 5.0122986 12.723328 
                6.9401245 c 0.42410278 1.9277954 1.6964417 11.952423 5.937561 14.265778 c 4.2411194 
                2.313385 9.754547 5.7834473 11.450989 5.7834473 c 1.6964417 0.0 2.1205444 -4.2411804 
                2.1205444 -4.2411804 c 0.0 0.0 5.937561 -6.9401245 8.058136 -8.096802 c 2.1205444 
                -1.1567078 8.906311 1.1566772 12.299194 1.1566772 c 3.3928833 0.0 1.2723389 
                -11.952423 1.2723389 -11.952423 l -0.42410278 11.181305 c 0.0 0.0 7.2099 1.5422363 
                11.450989 -3.8556213 c 4.2411194 -5.397888 6.7857666 -15.808044 7.2099 -18.506989 c 
                0.42410278 -2.698944 -2.120575 -5.0122986 -4.2411194 -9.2535095 c -2.1205444 
                -4.2411804 -2.5446472 -12.337982 -9.330444 -14.651367 c -6.7857666 -2.3133545 
                -9.754547 -5.3978577 -11.875092 -2.6989136 c -2.120575 2.6989136 -2.120575 15.036926 
                -2.120575 15.036926 z" id="path3172" style=
                "fill:#ffffff;fill-opacity:1;stroke:#000000"/>
            <path d="m 317.56763 377.33203 c -0.17556763 3.7670898 8.826782 3.323822 12.295563 3.5442505 c 3.8531494 
                0.24487305 8.696869 -1.9084473 10.19632 -3.816864 c 0.040161133 -7.290344 -5.8089294 
                -5.7139893 -10.796112 -4.6347656 c -3.5986938 0.8179016 -11.554474 1.8755188 
                -11.69577 4.907379 z" id="path3183" style=
                "fill:#ffffff;fill-opacity:1;stroke:#000000"/>
            <path 
                d="m 358.9527 441.40094 c 2.399109 0.0 89.9675 -20.992767 89.9675 -20.992767 c 
                7.4973145 7.906372 12.295593 21.538055 14.09494 24.809662 c 1.7993469 3.2716064 
                2.3991394 12.268524 4.1984863 14.994843 c 1.7993469 2.7263184 20.692535 35.16974 
                23.091644 42.25821 c 2.3991394 7.088501 5.3980713 26.71814 7.197418 28.89917 c 
                1.7993469 2.1810913 5.9978333 9.269592 5.9978333 9.269592 c 0.0 0.0 4.1984863 
                3.8168335 4.798279 5.997925 c 0.59976196 2.1810303 0.0 16.90326 0.0 16.90326 c 0.0 
                0.0 8.996735 13.086426 11.395905 19.629639 c 2.399109 6.543213 6.597595 17.448547 
                6.597595 17.448547 l -34.187683 3.2716064 c 0.0 0.0 -9.596527 -17.448547 -7.7971497 
                -21.265442 c 1.7993469 -3.8168335 4.7982483 -22.901184 4.7982483 -22.901184 c 0.0 
                0.0 -8.396973 -1.0905762 -8.396973 -3.2716064 c 0.0 -2.1810913 0.0 -11.450623 0.0 
                -14.176941 c 0.0 -2.7263794 -37.186554 -61.615265 -40.185486 -61.615265 c -2.998932 
                0.0 -35.98703 4.9074097 -41.38507 7.088501 c -5.3980713 2.1810608 -8.996765 
                2.1810608 -10.19632 8.179016 c -1.1995544 5.997925 -5.9978333 52.8909 -5.9978333 
                52.8909 c 0.0 0.0 13.795013 5.997986 13.795013 8.724304 c 0.0 2.7263184 -3.5986938 
                7.088501 -3.5986938 7.088501 c 0.0 0.0 7.197418 5.4526367 7.79718 7.633728 c 
                0.5997925 2.1810303 -1.1995544 12.541138 0.0 15.812744 c 1.199585 3.2716064 
                10.796112 15.267456 10.796112 15.267456 l -33.58789 4.3621826 c 0.0 0.0 -14.394806 
                -40.349792 -16.793945 -45.80249 c -2.3991394 -5.4526367 -3.3347168 -18.574707 
                -2.3991394 -24.536987 c 1.5710144 -10.011841 -0.053710938 -17.734802 3.0325928 
                -37.62558 c 3.544464 -22.843628 -1.3684387 -56.828644 -3.0325623 -58.341522 z" id="path3191"
                style="fill:#ffffff;fill-opacity:1;stroke:#000000"/>
            <path d="m 356.85345 443.58203 c 0.0 0.0 0.8996582 4.9074097 1.1995544 8.45163 c 0.29989624 3.5442505 0.0 
                7.906372 0.0 7.906372 l 4.1984863 1.0905457 l 0.29989624 -2.9989624 c 0.0 0.0 
                27.022217 -10.927582 41.085175 -14.994843 c 17.23645 -4.9851074 52.780945 -11.450623 
                52.780945 -11.450623 l 1.7993469 3.2716064 l 4.198517 -2.1810608 c 0.0 0.0 
                -3.5987244 -5.4526978 -3.5987244 -7.6337585 c 0.0 -2.1810608 -1.7993469 -6.815857 
                -1.7993469 -6.815857 c 0.0 0.0 -36.903442 8.146851 -55.180084 12.813812 c -15.099518 
                3.8556519 -44.983765 12.541138 -44.983765 12.541138 z" id="path3197" style=
                "fill:#ffffff;fill-opacity:1;stroke:#000000"/>
            <path d="m 367.0498 438.67462 c -0.07727051 8.841187 3.6015015 15.823456 7.497284 23.719116 l 5.0981445 
                -1.0905151 l -8.696838 -23.446503 z" id="path3193" style=
                "fill:#ffffff;fill-opacity:1;stroke:#000000"/>
            <path d="m 435.4251 422.04398 l 5.098175 22.355957 l 5.398041 -1.3631897 c -0.6048889 -7.6935425 
                0.29910278 -15.615723 -4.798279 -22.62857 z" id="path3195" style=
                "fill:#ffffff;fill-opacity:1;stroke:#000000"/>
            <path d="m 388.94186 433.49457 c -3.0890198 1.7647705 -2.9989014 13.086426 1.4994812 14.722229 c 4.498352 
                1.6358032 26.090576 -3.2716064 27.889923 -5.452667 c 0.74334717 -7.133728 -1.7122803 
                -16.113617 -11.096008 -15.267517 c -4.7185364 0.42547607 -11.035614 1.8515625 
                -18.293396 5.9979553 z" id="path3199" style=
                "fill:#ffffff;fill-opacity:1;stroke:#000000"/>
            <path d="m 493.90402 681.3186 c 0.0 0.0 -0.45373535 8.623962 1.1995544 11.450623 c 1.9634094 3.3568726 
                3.89859 8.45166 28.789612 7.361145 c 24.891052 -1.0905762 32.388306 -7.633789 
                32.388306 -7.633789 l 0.0 -10.63269 l -5.0981445 -11.450623 l -56.97943 2.9989624 z"
                id="path3217" style="fill:#ffffff;fill-opacity:1;stroke:#000000"/>
            <path d="m 497.3747 614.66626 c 0.0 0.0 6.7857666 9.639038 8.058105 13.109131 c 1.2723389 3.4700317 
                -4.665222 16.964722 -5.089325 21.205872 c -0.42410278 4.241211 -5.269287 14.466553 
                -5.5134277 21.97705 c -0.20321655 6.251404 -0.3670044 17.204834 3.3928528 18.507019 
                c 8.906342 3.0844727 12.723358 3.8555908 33.50476 2.6989136 c 9.882507 -0.5500488 
                22.053772 -2.3133545 23.32611 -6.5545654 c 1.2723389 -4.24115 -4.665222 -23.133728 
                -5.5134277 -30.073853 c -0.84820557 -6.9401245 -5.5134277 -11.5668335 -7.633972 
                -16.964722 c -2.1206055 -5.397888 -13.9956665 -28.917175 -13.9956665 -28.917175 z"
                id="path3207" style="fill:#ffffff;fill-opacity:1;stroke:#000000"/>
            <path id="path3203" d="m 488.46835 593.4603 c 0.0 0.0 -3.816986 -1.9277954 -4.2411194 
                0.38555908 c -0.42410278 2.3133545 2.120575 5.7834473 2.5446777 7.7112427 c 
                0.42410278 1.9277954 2.5446472 8.096802 2.5446472 9.639038 c 0.0 1.5422363 
                -0.42410278 5.397888 2.5446777 5.397888 c 2.9687805 0.0 22.902008 0.0 27.991302 
                -1.5422363 c 5.0893555 -1.5422974 15.692139 -1.5422974 15.692139 -4.241211 c 0.0 
                -2.6989136 -6.3616333 -18.506958 -8.058105 -20.820374 c -1.6964722 -2.3133545 
                -4.241089 -2.6989136 -8.482239 -1.1566772 c -4.241089 1.5422363 -30.53598 4.62677 
                -30.53598 4.62677 z" style=
                "fill:#ffffff;fill-opacity:1;stroke:#000000"/>
            <path d="m 339.18124 686.76636 l -3.3928833 1.5422363 l 2.5446777 6.9401245 c 0.0 0.0 4.665222 5.783386 
                12.935394 5.9761963 c 8.270172 0.19281006 29.687775 -2.6989136 32.86862 -3.4700317 c 
                3.1808167 -0.77111816 21.205536 -7.3256836 21.205536 -7.3256836 l 1.484375 5.590637 
                c 0.0 0.0 22.46283 0.11291504 25.855713 -0.85095215 c 3.3928833 -0.9639282 6.6101074 
                -5.04541 6.6101074 -5.04541 l -1.1845093 -10.6828 c -0.57058716 -1.1765747 
                -2.3921204 -1.3378906 -6.325287 -1.4954834 z" id="path3209" style=
                "fill:#ffffff;fill-opacity:1;stroke:#000000"/>
            <path d="m 384.98526 620.44965 c 0.0 0.0 8.906342 25.061584 7.2099 31.61615 c -1.6964417 6.5545044 
                -2.9687805 9.253479 -10.17868 9.639038 c -7.2098694 0.38555908 -24.92688 -1.2783813 
                -31.80832 -0.77111816 c -15.692108 1.1566772 -13.9956665 25.061523 -12.723328 
                26.989319 c 1.2723389 1.9278564 5.0114746 4.6431885 8.906342 6.1690063 c 8.231873 
                3.2249146 43.001434 -2.6074219 49.62097 -5.7834473 c 6.8957825 -3.3084717 27.56723 
                -0.38555908 33.928894 -3.4700317 c 6.361664 -3.0844727 7.2098694 -4.7628784 
                7.2098694 -12.338013 c 0.0 -10.795715 -11.026886 -23.519287 -13.14743 -31.616089 c 
                -2.1205444 -8.096802 -9.330444 -22.748169 -9.330444 -22.748169 c -12.814148 
                -0.5553589 -21.298126 0.85754395 -29.687775 2.3133545 z" id="path3205" style=
                "fill:#ffffff;fill-opacity:1;stroke:#000000"/>
            <path id="path3201" d="m 376.92715 599.2437 c -5.089325 0.7711792 -7.2099 1.9278564 
                -6.361664 4.62677 c 0.84820557 2.6989136 1.6964417 14.265808 2.9687805 16.579163 c 
                1.2723389 2.3133545 2.9687805 4.62677 7.633972 2.6989746 c 4.665222 -1.9278564 
                28.415436 -5.012329 31.384216 -4.241211 c 2.968811 0.77111816 7.6340027 0.38555908 
                7.6340027 0.38555908 c 0.0 0.0 -0.42410278 -10.795715 -2.96875 -13.109131 c 
                -2.5446777 -2.3133545 0.0 -8.482361 -2.120575 -9.639038 c -2.1205444 -1.1566772 
                -38.169983 2.6989136 -38.169983 2.6989136 z" style=
                "fill:#ffffff;fill-opacity:1;stroke:#000000"/>
            <path id="path3211" d="m 382.94403 625.974 c 0.0 0.0 0.29992676 4.3621216 1.7993774 
                4.9074097 c 1.4994507 0.54522705 12.295563 -2.1810913 12.295563 -2.1810913 l 
                -4.1984863 -3.5442505 z"  style=
                "fill:#ffffff;fill-opacity:1;stroke:#000000"/>
            <path d="m 387.2925 636.4704 c -1.6494141 0.13623047 -1.1995544 5.1799927 0.4498291 5.316345 l 10.796112 
                0.54522705 c 0.0 0.0 1.4994507 -4.6347656 0.29989624 -4.6347656 c -1.199585 0.0 
                -11.545837 -1.2268066 -11.545837 -1.2268066 z" id="path3213" style=
                "fill:#ffffff;fill-opacity:1;stroke:#000000"/>
            <path d="m 389.99152 649.01154 c -1.2989502 0.18939209 -2.4091492 3.5427246 -0.8996582 4.22583 l 
                10.946045 1.6358032 l -0.5997925 -4.9074097 z" id="path3215" style=
                "fill:#ffffff;fill-opacity:1;stroke:#000000"/>
            <path d="m 505.8569 619.1002 c -2.1205444 0.5783081 -1.2723389 4.43396 0.42410278 4.048401 c 7.7753906 -0.0670166 
                15.55072 -0.83599854 23.32611 -1.9278564 c 1.6964722 -0.38555908 0.0 -3.8555908 
                -1.2723389 -4.43396 c -7.894043 0.7711792 -15.119934 1.5422974 -22.477875 2.3134155 
                z" id="path3219" style="fill:#ffffff;fill-opacity:1;stroke:#000000"/>
            <path d="m 508.61362 628.73926 c -2.5446777 -0.19281006 0.84820557 5.783386 0.84820557 5.783386 c 
                7.7046814 -1.9194336 15.409393 -1.6013794 23.114044 -1.5422363 c 1.484375 0.0 
                0.21209717 -4.626709 -1.2722778 -4.626709 c -7.7975464 -0.08453369 -15.444519 
                -0.032043457 -22.689972 0.38555908 z" id="path3221" style=
                "fill:#ffffff;fill-opacity:1;stroke:#000000"/>
            <path d="m 509.67386 641.8484 c -1.6964417 0.0 -1.2723083 4.24115 0.0 4.43396 c 8.128815 -1.5778809 
                16.257599 -1.7633057 24.386383 -0.77111816 c 1.6964722 0.38555908 1.6964722 
                -3.8556519 0.0 -3.8556519 c -8.131592 -1.3959961 -16.259705 -0.97076416 -24.386383 
                0.19281006 z" id="path3223" style="fill:#ffffff;fill-opacity:1;stroke:#000000"/>
            <path d="m 709.0061 532.5415 l -39.01825 -3.4700317 l -27.991333 16.193604 l 67.85779 4.626709 z" id="path4014"
                style="fill:#ffffff;fill-opacity:1;stroke:#000000"/>
            <path id="path4016" d="m 669.98785 529.0714 l -26.29486 -13.880249 l 68.28186 -7.7112427 
                l -2.96875 25.061523 z" style=
                "fill:#ffffff;fill-opacity:1;stroke:#000000"/>
            <path id="path4012" d="m 709.97253 129.30463 c -17.893616 0.004196167 -35.875244 
                0.0418396 -53.428894 0.08744812 c 0.32788086 5.9350586 0.90911865 21.023468 
                -1.8274536 24.13327 c -3.0490723 3.4648438 -29.57312 -19.133133 -35.15442 -23.958405 
                c -23.176514 0.12620544 -43.865967 0.27409363 -60.40204 0.5683594 l 76.031555 
                58.10347 c 0.0 0.0 6.15979 10.615616 8.704468 14.471222 c 2.5446167 3.8556366 
                7.7426147 10.444489 7.7426147 16.61348 c 0.0 6.1690063 1.715271 67.59648 2.2121582 
                89.97514 c 0.2930298 13.196838 -4.201294 87.15219 -5.0495605 98.719055 c -0.84820557 
                11.566864 -5.097595 107.15695 -5.097595 107.15695 c 20.42981 3.7019043 41.35309 
                6.353821 58.52649 16.963257 c -19.384033 10.647339 -39.70819 12.627258 -60.209656 
                13.115906 c 6.7857666 16.964722 -4.2842407 87.911255 -6.8289185 100.24927 c 
                -2.5446777 12.338013 -9.512024 17.066528 -23.083618 17.837646 c -13.571533 
                0.77111816 -23.560364 14.554138 -21.015686 20.723145 c 2.5446777 6.1690063 22.929382 
                2.3209229 36.500977 4.6342773 c 13.571533 2.3133545 -1.3516235 9.560364 4.809082 
                14.689819 c 7.633972 6.356079 26.842468 5.4889526 31.307129 -0.08746338 c 13.383362 
                -16.716187 32.58734 -15.377991 41.06952 -8.437866 c 8.482239 6.9401245 23.113464 
                7.460205 31.595703 6.689087 c 8.482178 -0.77111816 2.2992554 -14.387573 6.540344 
                -16.700928 c 4.241089 -2.3133545 22.120972 8.620361 31.451355 13.24707 c 9.330505 
                4.62677 16.053223 1.3756714 20.294373 -4.022217 c 4.241089 -5.397888 -24.591858 
                -16.183838 -25.440063 -20.810547 c -0.84820557 -4.62677 -14.400696 -33.921997 
                -17.79358 -40.091003 c -3.3928833 -6.1689453 -13.797852 -47.392395 -16.110474 
                -71.70026 c -5.045288 -53.031982 6.7940674 -148.05374 5.0976562 -159.6206 C 738.7176 
                390.28632 737.9962 226.87642 739.6926 211.45393 c 1.6964722 -15.422485 4.4262085 
                -35.72995 6.9732056 -40.090958 c 5.785034 -9.905212 31.621948 -36.780457 36.6933 
                -42.014633 c -7.7667847 -0.0069885254 -15.9747925 0.007003784 -24.333984 0.0 l 
                -17.408875 10.536453 l -1.5388794 -10.536453 c -10.74707 -0.005584717 -19.01123 
                -0.046585083 -30.104858 -0.043640137 z" style=
                "fill:#ffffff;fill-opacity:1;stroke:#000000"/>
        </g>
    </g>
</svg>