<?xml version="1.0" standalone="no"?>
<!--Created with Sketsa SVG Editor (http://www.kiyut.com)-->
<svg contentScriptType="text/ecmascript" width="600.0px" xmlns:xlink="http://www.w3.org/1999/xlink"
    baseProfile="full" zoomAndPan="magnify" contentStyleType="text/css" height="800.0px"
    preserveAspectRatio="xMidYMid meet" xmlns="http://www.w3.org/2000/svg" version="1.0">
    <g id="layer1" transform="matrix(0.54187113 0.0 0.0 0.54187113 -3.3097959 -49.23585)">
        <g id="g4402" transform="matrix(1.0754836,0,0,1.0754836,-34.700513,-22.128817)">
            <path style=
                "fill:#000000;stroke:#000000;stroke-width:5;stroke-linecap:butt;stroke-linejoin:round;stroke-miterlimit:4;stroke-opacity:1;stroke-dasharray:none;"
                id="path3202" d="m 815.93866 528.3891 l 36.933838 -57.078156 c 0.0 0.0 4.1883545 
                3.0253296 16.182373 0.30252075 c 11.9939575 -2.7228088 20.180359 -6.454071 25.320618 
                -12.706451 c 5.14032 -6.2523804 15.230469 -18.45459 15.801636 -22.084991 c 
                0.57110596 -3.6304321 -1.2374878 -6.8574524 -1.2374878 -6.8574524 c 0.0 0.0 
                2.6653442 1.3109741 4.8546753 0.605072 c 2.189392 -0.7059326 21.03711 -10.992096 
                35.981995 -25.816284 c 14.944885 -14.824188 23.702393 -33.4805 26.082153 -41.346405 
                c 2.3797607 -7.865906 3.0460815 -11.697998 3.0460815 -11.697998 c 0.0 0.0 63.777588 
                -48.002136 71.01196 -56.775635 c 7.234497 -8.773499 11.042114 -15.22757 10.28064 
                -24.70697 c -0.7614746 -9.479431 -3.6173096 -12.000549 -7.0440674 -15.630981 c 
                -3.42688 -3.6304016 -7.0440674 -6.3532104 -7.0440674 -6.3532104 c 0.0 0.0 10.75647 
                -14.420822 13.32666 -28.337418 c 2.5700684 -13.916565 4.569092 -27.026398 -3.42688 
                -37.01004 c -7.9960938 -9.983643 -17.419922 -14.420822 -25.320679 -13.4123535 c 
                -7.900818 1.0084381 -11.803589 4.1346283 -26.65332 20.068115 c -14.84967 15.933487 
                -38.26648 39.531174 -54.63922 53.851135 c -16.372803 14.319962 -30.651306 27.026443 
                -30.651306 27.026443 c 0.0 0.0 45.691345 -89.95361 53.687317 -111.33273 c 7.9960327 
                -21.37909 1.5230713 -30.85852 -2.855713 -35.295692 c -4.378723 -4.437172 -27.224426 
                -17.95037 -38.07611 -14.723343 c -10.851685 3.2270432 -15.611267 6.8574524 
                -23.036072 18.353767 c -7.4248657 11.496307 -72.1543 136.54393 -72.1543 136.54393 c 
                0.0 0.0 -6.282593 -20.975754 -21.70343 -33.27881 c -15.420837 -12.30307 -34.078125 
                -13.513214 -49.308594 -10.891251 c -15.230469 2.6219635 -30.460938 6.0506897 
                -39.028076 21.580795 c -8.567139 15.530121 -13.897766 25.211212 -6.4729614 37.31259 
                c 7.4248657 12.101379 12.945923 12.504761 20.751526 14.118286 c 7.805603 1.6135254 
                21.322632 2.4202576 27.985962 8.067596 c 6.66333 5.647278 12.755493 15.53009 
                14.849731 31.463562 c 2.0941772 15.933502 0.7614746 36.90921 3.4268188 42.55652 c 
                2.6653442 5.647339 7.805603 10.689545 7.805603 10.689545 c 0.0 0.0 -16.372742 
                21.17743 -14.84967 27.42981 c 1.5230103 6.2523804 7.0440674 15.32843 7.0440674 
                15.32843 l -33.50702 47.397064 c 0.0 0.0 -14.088135 -3.02536 -28.3667 -4.8405457 c 
                -14.278564 -1.8152161 -32.745483 -5.4456177 -32.745483 -5.4456177 c 0.0 0.0 
                -4.1884155 20.975708 -22.084167 59.901825 c -17.895813 38.926086 -49.87976 80.27252 
                -56.352722 96.40765 c -6.4729614 16.135193 -14.278564 42.153137 -9.328674 64.74237 c 
                4.94989 22.589294 12.374756 37.514343 27.795593 53.044434 c 15.420837 15.53009 
                34.078186 31.463562 53.30664 26.421326 c 19.228455 -5.0422363 16.182373 -15.933472 
                18.086182 -25.614563 c 1.9037476 -9.681091 0.3807373 -33.88391 3.2364502 -43.16162 c 
                2.855713 -9.27771 20.941895 -44.573425 42.645264 -65.952515 c 21.70343 -21.37909 
                41.88379 -35.699097 55.21045 -44.170044 c 13.32666 -8.470947 28.17633 -14.723328 
                28.17633 -14.723328 c 0.0 0.0 -3.42688 -16.941956 -7.0440674 -26.018005 c -3.477356 
                -8.724976 -9.899841 -17.950378 -9.899841 -17.950378 z"/>
            <path id="path3178" d="m 820.8075 400.83585 c -15.239807 -3.83667 -23.64801 -12.277405 
                -23.64801 -12.277405 c 0.0 0.0 -14.714294 18.671906 -12.875 27.624207 c 1.8392944 
                8.9522705 22.596985 25.577972 35.73474 36.06491 c 13.137756 10.486938 33.63269 
                19.43924 49.39801 16.114105 c 15.76532 -3.3251343 21.020386 -9.7196045 27.589294 
                -17.904541 c 6.5689087 -8.184967 10.77301 -11.765869 10.247498 -16.625702 c 
                -0.5255127 -4.8598022 -5.5178833 -5.371338 -6.831665 -9.975372 c 5.7806396 3.580902 
                11.561218 4.0924683 14.977051 2.8135376 c 3.4158325 -1.2788696 29.165833 -18.671875 
                42.040833 -34.274445 c 12.875 -15.60257 19.181152 -41.43628 19.181152 -41.43628 c 
                0.0 0.0 54.915833 -42.203644 66.73993 -53.20218 c 11.823975 -10.998505 15.502563 
                -24.043243 13.400513 -31.716644 c -2.1020508 -7.673401 -13.137817 -15.090988 
                -13.137817 -15.090988 l -77.51282 59.596634 c 2.8903198 6.3945007 2.8903198 
                17.393005 2.8903198 17.393005 c 0.0 0.0 -11.561279 -27.624176 -27.589355 -39.90161 c 
                -16.028076 -12.277405 -45.19391 -13.812103 -45.19391 -13.812103 c 0.0 0.0 6.5689087 
                -3.3251343 17.079102 -2.813568 c 0.0 0.0 49.923523 -96.68469 56.49243 -116.12392 c 
                6.5688477 -19.43924 -2.8903198 -29.414658 -10.77301 -34.274475 c -7.8826294 
                -4.8598022 -23.64801 -12.788963 -36.785767 -3.3251343 c -13.137756 9.463867 
                -84.081665 151.67729 -84.081665 151.67729 l 1.576477 13.812103 c 9.4592285 
                -4.6040344 29.691406 -4.859833 46.50775 9.719635 c 16.816345 14.579437 28.114807 
                35.553345 24.961731 57.550385 c -2.8798828 20.091125 -14.714294 39.90161 -23.64795 
                45.784576 c -8.933716 5.882904 -23.64801 9.975372 -23.64801 9.975372 c 0.0 0.0 
                21.808655 -9.7196045 31.793396 -27.624176 c 9.98468 -17.904572 13.400513 -31.460876 
                8.933716 -48.853912 c -4.466858 -17.393005 -15.502563 -30.94931 -29.165894 -37.59958 
                c -13.663269 -6.650299 -18.65564 -8.184937 -27.063782 -6.3945007 c -8.408142 
                1.7904663 -13.926025 4.8598022 -13.926025 4.8598022 c 0.0 0.0 0.26275635 -14.835205 
                -5.7806396 -31.205078 c -6.043335 -16.369904 -20.494934 -32.739807 -34.683716 
                -35.80916 c -14.188782 -3.0693512 -43.091858 0.25578308 -56.229614 11.510086 c 
                -13.137756 11.254303 -19.706665 30.94934 -14.977051 40.668945 c 4.729553 9.7196045 
                9.196411 12.533203 19.443909 12.789001 c 10.247437 0.25576782 27.063782 2.813568 
                35.997437 17.137207 c 8.933716 14.323669 11.035767 34.78601 11.035767 46.55188 c 0.0 
                11.765869 1.7145386 23.144897 7.0943604 28.647308 c 4.6052856 4.7101746 12.713074 
                11.969086 24.43628 19.950806 z" style="fill:#ffffff;fill-opacity:1;stroke:none;"
                onClick="javascript:onPathClick('path3178');" class="img-path"/>
            <path id="path3198" d="m 789.28534 430.16626 l -31.60321 47.195404 c 30.841675 13.714905 
                55.591187 46.792023 55.591187 46.792023 l 34.649292 -54.456238 c -19.799622 
                -3.6304016 -47.975952 -25.009521 -58.637268 -39.53116 z" style=
                "fill:#ffffff;fill-opacity:1;stroke:none;" onClick="javascript:onPathClick('path3198');"
                class="img-path"/>
            <path id="path3200" d="m 619.08496 714.1453 c 14.855774 23.819458 48.737488 55.66632 
                68.91785 44.775085 c 20.180359 -10.891235 8.757507 -42.75818 16.372742 -64.54071 c 
                7.6152344 -21.78247 33.50702 -60.91028 60.541077 -83.90289 c 27.034058 -22.992615 
                62.444885 -41.144653 62.444885 -41.144653 c 0.0 0.0 -5.711426 -37.917664 -33.12628 
                -60.103546 c -27.414795 -22.185852 -41.50299 -30.253448 -57.114197 -32.270355 c 
                -15.611206 -2.0169067 -40.741455 -6.0506897 -40.741455 -6.0506897 c 0.0 0.0 
                -18.27655 50.422394 -34.649292 81.482635 c -16.372742 31.06018 -48.737488 66.96094 
                -51.78357 96.40765 c -3.0460815 29.446716 -2.3201294 46.97534 9.138245 65.34747 z"
                style="fill:#ffffff;fill-opacity:1;stroke:none;" onClick="javascript:onPathClick('path3200');"
                class="img-path"/>
            <path id="path3180" d="m 922.49384 272.17877 c 0.0 0.0 19.181152 6.39447 25.224487 
                14.579407 c 6.043396 8.184967 16.028076 21.229706 16.028076 21.229706 c 0.0 0.0 
                66.73993 -51.66745 75.14801 -58.829315 c 8.408203 -7.1618195 18.65564 -24.810608 
                19.181152 -37.088028 c 0.5255127 -12.277435 0.052001953 -21.056702 -6.5688477 
                -28.903091 c -6.043335 -7.1618195 -15.502563 -12.533203 -23.910767 -9.975388 c 
                -9.651489 2.9360352 -35.20923 34.530228 -54.653076 52.690582 c -19.443909 18.160324 
                -50.449036 46.296127 -50.449036 46.296127 z" style=
                "fill:#ffffff;fill-opacity:1;stroke:none;" onClick="javascript:onPathClick('path3180');"
                class="img-path"/>
            <path id="path4358" d="m 828.9664 299.08627 c 0.0 0.0 15.615845 -10.553619 26.92389 
                -8.2717285 c 11.308044 2.2818604 40.116577 17.113922 45.232117 39.932495 c 5.1156006 
                22.818604 -9.692566 50.486115 -18.577454 57.616913 c -8.884888 7.130829 -26.654663 
                14.261627 -38.231934 12.83548 c -11.5772705 -1.426178 -37.962708 -15.402557 
                -42.27057 -22.248138 c -4.3078003 -6.845581 -8.615601 -15.687775 -8.3463745 
                -35.654022 c 0.26922607 -19.966278 -4.038574 -39.076843 -12.38501 -46.49286 c 
                -8.346436 -7.416046 -24.231506 -13.691162 -35.53955 -13.976379 c -11.308044 
                -0.2852478 -16.962036 -6.275116 -18.577515 -13.120697 c -1.6154175 -6.845581 
                2.1539307 -22.818573 11.846558 -30.519852 c 9.692566 -7.7012634 29.885498 -12.550232 
                41.193542 -12.550232 c 11.308044 0.0 22.346863 2.5671082 29.88556 12.8354645 c 
                7.5386963 10.268356 14.269653 16.828705 15.885071 30.23462 c 1.6154175 13.405914 
                2.96167 29.378937 2.96167 29.378937 z" style=
                "fill:#ffffff;fill-opacity:1;stroke:none;" onClick="javascript:onPathClick('path4358');"
                class="img-path"/>
        </g>
        <path style=
            "fill:#000000;stroke:#000000;stroke-width:5.37741804;stroke-linecap:butt;stroke-linejoin:round;stroke-miterlimit:4;stroke-opacity:1;stroke-dasharray:none;"
            id="path3270" d="m 257.42847 811.88135 c 0.0 0.0 27.797974 -12.884033 41.69696 
            -11.043457 c 13.898956 1.8405762 19.400635 7.6690674 19.400635 7.6690674 l 35.61615 
            -12.884033 c 0.0 0.0 0.2895813 -17.792236 7.818207 -33.13037 c 7.528595 -15.338135 
            9.845093 -19.32605 15.925903 -20.859863 c 6.08078 -1.5338135 22.296295 4.908203 32.72052 
            3.067627 c 10.424255 -1.8405762 40.538727 -8.282593 70.074036 -23.313965 c 29.53537 
            -15.031372 38.80136 -31.289795 52.410797 -37.118286 c 13.609375 -5.828491 31.851807 
            -6.135254 31.851807 -6.135254 c 0.0 0.0 2.89563 -19.32605 16.505066 -29.755981 c 
            13.609375 -10.429932 59.36023 -29.449219 67.178406 -29.142456 c 7.8181763 0.3067627 
            76.73401 50.00232 153.7575 153.68811 c 77.02356 103.68573 119.29962 212.27972 119.29962 
            212.27972 l -30.838379 26.688354 c 0.0 0.0 2.3164673 43.713684 -5.212097 65.18707 c 
            -7.5286255 21.473389 -23.020203 40.492676 -23.020203 40.492676 c 0.0 0.0 43.5791 
            34.20398 54.87201 46.167725 c 11.292969 11.963745 14.478149 24.541016 12.740723 
            35.431152 c -1.7373657 10.890015 -6.0807495 19.47937 -12.3063965 26.07483 c -6.225586 
            6.595337 -23.599304 22.70044 -23.599304 22.70044 c 0.0 0.0 43.868713 17.025269 74.562256 
            25.614624 c 30.693604 8.589355 66.309814 16.258423 75.86536 21.473389 c 9.555542 
            5.214966 17.084106 16.565186 13.898926 24.847778 c -3.1851807 8.282593 -18.242432 
            15.338135 -21.717163 21.166626 c -3.4747314 5.828491 -4.6330566 9.509644 -3.1851807 
            16.565186 c 1.447876 7.055542 3.1851807 23.92749 -2.0269775 30.983032 c -5.212036 
            7.055542 -10.424194 19.632812 -40.828186 26.07483 c -30.404053 6.4420166 -43.723938 
            -0.3067627 -50.0943 1.8405762 c -6.3703613 2.1473389 -15.057251 22.086914 -23.164978 
            29.449219 c -8.107727 7.3623047 -11.003357 11.656982 -30.403992 10.123169 c -19.400696 
            -1.5338135 -29.82489 -6.135254 -47.19861 -18.098999 c -17.37378 -11.963745 -133.48816 
            -110.74133 -145.36023 -127.920044 c -11.87207 -17.17871 -18.531982 -30.67627 -11.003418 
            -53.68347 c 7.5286255 -23.007202 42.565674 -39.572388 55.306396 -42.946777 c 12.740723 
            -3.3743896 50.09424 2.1473389 50.09424 2.1473389 l 9.845154 -17.025269 l -39.090942 
            -17.638916 c 0.0 0.0 -19.400635 10.736694 -44.88208 12.5772705 c -25.481506 1.8405762 
            -41.262634 -9.356201 -41.262634 -9.356201 c 0.0 0.0 -26.494934 12.270508 -53.424194 
            19.939575 c -26.929321 7.6690674 -53.85858 13.0373535 -60.37372 11.35022 c -6.5151367 
            -1.6872559 -10.858582 -5.675171 -10.858582 -5.675171 l -48.936005 43.25354 c 0.0 0.0 
            6.5151367 7.6690674 7.8181763 23.160645 c 1.303009 15.491455 13.6094055 129.30042 
            6.08078 180.83655 c -7.528595 51.536133 -17.95282 65.64722 -27.797943 77.3042 c 
            -9.845123 11.656982 -19.54544 15.338013 -25.481476 13.957642 c -5.936035 -1.3803711 
            -32.575745 -11.043457 -40.828247 -10.583252 c -8.252533 0.460083 -36.774414 13.344238 
            -54.58249 17.638916 c -17.808075 4.2946777 -40.538696 7.05542 -51.97638 1.5336914 c 
            -11.437744 -5.5217285 -38.22223 -22.546997 -46.90912 -32.670166 c -8.686829 -10.123169 
            -14.622864 -16.105103 -26.92926 -18.252441 c -12.306381 -2.1473389 -48.212097 -3.067627 
            -55.885483 -13.190796 c -7.673416 -10.123169 -11.582504 -17.638794 -8.97644 -27.148438 c 
            2.6060486 -9.509644 14.188538 -24.234253 25.481476 -40.492676 c 11.292908 -16.258423 
            120.16829 -153.07458 144.20195 -179.76294 c 24.03366 -26.688354 41.40738 -38.038574 
            50.67337 -39.87915 c 9.265991 -1.8405762 20.84848 5.5217285 20.84848 5.5217285 l 
            39.380463 -46.934692 c 0.0 0.0 -16.794617 -19.32605 -22.585846 -27.30188 c -5.7912292 
            -7.97583 -11.003357 -15.338135 -11.003357 -15.338135 c 0.0 0.0 -48.356903 -15.644897 
            -70.36362 -38.345337 c -22.006744 -22.70044 -26.92926 -41.719604 -28.377106 -52.763184 c 
            -1.4477844 -11.043396 3.7643127 -43.25348 3.7643127 -43.25348 l 18.821564 19.632812 c 
            0.0 0.0 1.4477844 -28.52893 5.5016785 -45.40088 c 4.0538635 -16.871948 12.451172 
            -37.73181 12.451172 -37.73181 c 0.0 0.0 7.239044 20.859863 12.451172 26.381592 c 
            5.212097 5.5217285 11.292908 10.429932 11.292908 10.429932 l 8.97644 -20.246338 c 0.0 
            0.0 -11.582489 -10.736694 -18.242432 -19.019287 c -6.659912 -8.282593 -11.003357 
            -23.007202 -11.003357 -23.007202 l -10.713776 5.214966 c 0.0 0.0 1.4477844 19.939575 
            -5.79126 30.67627 c -7.2390747 10.736694 -30.983154 23.007202 -30.983154 23.007202 c 0.0 
            0.0 -7.239044 12.884033 -17.084167 20.246338 c -9.845123 7.3623047 -22.006744 17.17871 
            -22.006744 17.17871 c 0.0 0.0 -7.5285645 22.70044 -24.902328 47.85492 c -17.373734 
            25.154541 -33.58922 51.22937 -50.962936 56.7511 c -17.373734 5.5217285 -29.535355 
            1.5338135 -34.74745 -3.3743896 c -5.2121277 -4.908203 -10.42424 -14.417847 -6.6599426 
            -28.52893 c 3.7642975 -14.111084 34.168335 -56.444275 34.168335 -56.444275 c 0.0 0.0 
            -39.959564 29.449158 -55.306366 38.958923 c -15.346802 9.5095215 -36.484833 20.552979 
            -54.43769 13.804199 c -17.95285 -6.7487793 -18.242416 -13.190796 -21.427597 -23.313965 c 
            -3.1851845 -10.123169 -4.922558 -26.074768 1.4478073 -34.0506 c 6.370369 -7.97583 
            56.175056 -41.719727 56.175056 -41.719727 c 0.0 0.0 -26.350151 5.828491 -49.51513 
            10.123169 c -23.16497 4.2946777 -37.93264 8.282593 -48.936005 -1.2270508 c -11.003361 
            -9.509644 -17.084167 -23.007202 -13.898981 -44.48059 c 3.1851835 -21.473389 8.686865 
            -32.210083 18.82154 -36.50476 c 10.134676 -4.2946777 46.040382 -6.135254 65.730606 
            -12.270447 c 19.690231 -6.135254 85.42082 -26.995117 85.42082 -26.995117 l 9.845123 
            -8.282654 c 0.0 0.0 -19.1111 -24.234192 -21.717148 -41.719666 c -2.606079 -17.485474 
            -4.343445 -41.412964 5.212097 -59.2052 c 9.5555725 -17.792236 32.43097 -33.743896 
            47.488205 -31.90332 c 15.057236 1.8405762 30.404037 9.816406 33.010086 21.780151 c 
            2.6060486 11.963745 -5.2121124 38.6521 -3.7643127 50.00232 c 1.447815 11.35022 6.0808105 
            28.222168 6.0808105 28.222168 z"/>
        <path id="path3297" d="m 547.5331 590.495 c -2.7683716 0.020568848 -5.820984 0.5586548 
            -8.716614 1.996582 c -9.265991 4.6014404 -25.72583 17.17102 -25.72583 17.17102 c 0.0 0.0 
            6.364929 2.1661987 12.156189 5.5406494 c 5.7911987 3.3743286 16.75116 9.4646 21.673706 
            20.81482 c 4.9226074 11.35022 10.742676 36.544067 10.742676 55.25659 c 4.2299194 
            67.91693 -44.56482 124.469055 -68.03674 120.246826 c -9.450836 -0.8654175 -16.543304 
            -4.026001 -19.506348 -8.485657 c -0.15472412 0.15203857 -4.029419 3.9717407 -9.42337 
            9.084656 c -3.0194397 2.8620605 -9.585846 11.56366 -15.784149 20.06604 c -2.0385132 
            7.236389 -6.4280396 13.061035 -12.06189 16.621948 c -0.073150635 0.099487305 -0.21377563 
            0.355896 -0.28271484 0.44921875 c -5.2121277 7.055542 -11.304382 10.432373 -19.41214 
            10.432373 c -8.107727 0.0 -18.799622 -6.788513 -18.799622 -6.788513 c 0.0 0.0 -27.761444 
            63.868347 -51.215973 100.67987 c 0.0 0.0 38.47534 29.400818 110.865906 44.125427 c 
            71.22211 14.486938 137.534 -2.7453613 137.534 -2.7453613 c 0.0 0.0 -2.8624878 -146.46863 
            -4.0405273 -194.63861 c -0.97698975 -39.94818 2.4192505 -90.36664 -12.884705 -159.71997 
            c -16.572021 -1.3168945 -21.63861 14.54364 -20.1557 1.654602 c 1.4347534 -10.052124 
            7.30011 -18.129333 14.983154 -22.062744 c -5.3155518 -15.5563965 -10.883972 -27.403687 
            -10.883972 -27.403687 c 0.0 0.0 -4.9349365 -2.3414307 -11.02533 -2.2960815 z" style=
            "fill:#ffffff;fill-opacity:1;stroke:none;" onClick="javascript:onPathClick('path3297');"
            class="img-path" transform="translate(6.979089,90.862653)"/>
        <path id="path3299" d="m 650.6539 623.8195 l -9.273193 3.0599365 c 0.0 0.0 52.128418 
            101.27771 70.08124 149.13263 c 17.95288 47.85498 46.901855 140.45898 59.64258 178.4975 c 
            12.740723 38.038574 18.546448 96.36188 18.546448 96.36188 c 0.0 0.0 39.655518 
            -0.78222656 75.706055 -27.16388 c 30.728577 -23.045898 23.544983 -15.707275 50.369324 
            -39.72577 C 872.4092 866.9396 833.25024 821.7155 791.57794 766.85236 C 745.3606 706.0053 
            689.85986 650.0503 650.6539 623.8195 z" style="fill:#ffffff;fill-opacity:1;stroke:none;"
            onClick="javascript:onPathClick('path3299');" class="img-path"/>
        <path id="path3244" d="m 570.9183 684.3192 c 0.0 0.0 13.923157 39.044495 17.199158 52.493164 
            c 3.276001 13.448669 4.9140015 26.897339 4.9140015 26.897339 c 0.0 0.0 26.20819 
            15.617798 44.22632 5.2059326 c 18.018127 -10.411865 18.018127 -69.84631 9.828064 
            -90.670044 c -8.190063 -20.82373 -31.531738 -42.515137 -31.531738 -42.515137 c 0.0 0.0 
            -14.332581 2.6029663 -27.84613 13.014832 c -13.513611 10.411865 -16.789673 35.573914 
            -16.789673 35.573914 z" style="fill:#ffffff;fill-opacity:1;stroke:none;" onClick="javascript:onPathClick('path3244');"
            class="img-path"/>
        <path id="path3246" d="m 371.081 896.0272 c 0.0 0.0 6.5520325 19.956055 18.837097 31.235596 
            c 12.285095 11.279541 22.522675 20.82373 33.98874 18.654602 c 11.466095 -2.1691284 
            32.513275 -38.2948 50.368835 -55.963806 c 18.632355 -18.437683 70.024994 -50.324036 
            70.024994 -50.324036 c 0.0 0.0 -54.054382 41.647522 -62.039673 51.40863 c 0.0 0.0 
            10.442322 9.761108 23.955872 4.9890137 c 13.513611 -4.7720947 37.26477 -37.309204 
            42.178833 -49.022583 c 4.9140015 -11.713318 13.923096 -47.28723 12.285034 -72.01538 c 
            -1.6380005 -24.72821 -8.599548 -49.89026 -22.522644 -59.43445 c -13.923096 -9.544189 
            -20.884644 -10.845703 -20.884644 -10.845703 c 0.0 0.0 -14.742065 13.882507 -32.760193 
            22.125244 c -18.018127 8.242737 -60.19342 22.334229 -77.80551 22.559021 c -16.994385 
            0.21691895 -22.522675 -3.470581 -29.074707 -1.7352905 c -6.552063 1.7352905 -18.427643 
            26.246582 -18.22287 47.72107 l 53.440094 -13.665588 c 0.0 0.0 -4.6639404 -13.887329 
            -12.899353 -17.570007 c -8.167999 -3.652588 -23.546387 0.0 -23.546387 0.0 c 0.0 0.0 
            15.561096 -9.110413 27.027191 -3.90448 c 11.466064 5.2059326 30.712677 37.743042 
            35.217224 63.772705 c 4.504547 26.029663 8.190063 80.4751 -2.4570312 98.045105 c 
            -10.198029 16.82904 -21.703644 17.13623 -26.617676 11.930298 c -4.914032 -5.2059937 
            -2.0475159 -12.364136 -2.0475159 -12.364136 c 0.0 0.0 3.4808044 10.845703 8.804321 
            10.411865 c 5.3235474 -0.43377686 14.127838 -7.375061 17.813354 -24.294312 c 3.6855469 
            -16.919312 2.0475159 -35.573914 2.0475159 -35.573914 c 0.0 0.0 -18.018097 -1.3014526 
            -34.398193 7.375061 c -16.380127 8.676575 -30.712738 16.485474 -30.712738 16.485474 z"
            style="fill:#ffffff;fill-opacity:1;stroke:none;" onClick="javascript:onPathClick('path3246');"
            class="img-path"/>
        <path id="path3248" d="m 322.45255 813.383 c 0.0 0.0 19.963257 -7.158142 38.288483 
            -13.448669 c 18.325256 -6.2905273 54.36151 -14.750122 54.36151 -14.750122 c 0.0 0.0 
            9.316193 7.2666016 15.561096 31.994751 c 6.2449036 24.72821 5.1187744 50.324036 
            5.1187744 50.324036 c 0.0 0.0 -17.199097 -1.626831 -34.705353 6.2905273 c -17.506226 
            7.9173584 -46.478577 23.643616 -46.478577 23.643616 c 0.0 0.0 -1.4332275 -39.369873 
            -11.2612915 -55.855347 c -9.828064 -16.485474 -20.884644 -28.198792 -20.884644 
            -28.198792 z" style="fill:#ffffff;fill-opacity:1;stroke:none;" onClick="javascript:onPathClick('path3248');"
            class="img-path"/>
        <path id="path3250" d="m 593.32104 769.72845 c 0.0 0.0 3.80542 67.29816 6.671936 126.29877 c 
            2.866516 59.00061 2.0475464 101.08191 2.0475464 101.08191 c 0.0 0.0 35.62671 7.375061 
            90.50006 -13.014832 c 54.873413 -20.389893 70.025024 -33.838623 70.025024 -33.838623 c 
            0.0 0.0 -28.255676 -94.140625 -54.463867 -164.85455 c -26.20819 -70.71393 -72.07251 
            -157.47955 -72.07251 -157.47955 l -13.923096 5.6398315 c 0.0 0.0 25.985352 24.744507 
            31.019836 48.588684 c 6.961548 32.970947 2.1499023 64.8573 -3.58313 78.739746 c 
            -5.1904907 12.5686035 -17.199097 18.003845 -29.074707 17.13623 c -11.87561 -0.8676758 
            -27.147095 -8.297607 -27.147095 -8.297607 z" style=
            "fill:#ffffff;fill-opacity:1;stroke:none;" onClick="javascript:onPathClick('path3250');"
            class="img-path"/>
        <path id="path3252" d="m 419.4023 1084.7424 c 0.0 0.0 2.866516 26.897339 15.561096 43.81653 
            c 12.69458 16.919312 23.75116 32.970947 23.75116 32.970947 l 18.837128 -19.088379 l 
            -16.380096 -26.68042 c 0.0 0.0 9.93042 17.02771 18.529968 21.582886 c 8.599579 4.555298 
            27.33432 8.785034 27.33432 8.785034 l -4.4021606 -23.752075 c 0.0 0.0 7.2686768 
            28.958008 19.144226 38.06836 c 11.87561 9.110474 33.68164 17.570068 52.109253 18.003906 
            c 18.427612 0.4338379 43.509705 -8.459595 43.509705 -8.459595 c 0.0 0.0 -13.308838 
            9.652588 -23.44403 11.821777 c -10.135193 2.1691895 -18.632385 1.9522705 -18.632385 
            1.9522705 l -23.034546 23.426636 c 0.0 0.0 4.9140015 4.6636963 13.308838 4.6636963 c 
            8.394836 0.0 74.119995 -14.967041 104.62793 -31.235596 c 30.507996 -16.268555 62.858704 
            -22.125244 62.858704 -22.125244 l -54.873352 22.775879 c 0.0 0.0 17.813354 11.49646 
            34.602966 8.893555 c 16.789612 -2.6030273 48.32129 -10.194946 64.90619 -25.595825 c 
            16.584839 -15.401001 28.869934 -36.22473 28.869934 -36.22473 c 0.0 0.0 34.398193 
            0.21691895 53.440063 -16.051636 c 19.041931 -16.268433 23.75116 -41.86438 25.593933 
            -55.963745 c 1.8427734 -14.099365 0.81903076 -41.213623 0.81903076 -41.213623 c 0.0 0.0 
            -15.765869 14.533203 -35.831482 24.51123 c -20.065674 9.978027 -65.72522 18.871582 
            -65.72522 18.871582 c 0.0 0.0 -3.4789429 -38.31665 -7.5406494 -56.949524 c -5.0300903 
            -23.07544 -12.934448 -45.00006 -12.934448 -45.00006 c 0.0 0.0 -29.074707 20.606812 
            -77.39606 35.79077 c -48.32129 15.184021 -84.76703 11.205139 -84.76703 11.205139 l 
            1.6380005 85.97235 c 0.0 0.0 -50.164062 13.882446 -102.17093 9.110352 c -52.006866 
            -4.7720947 -82.31006 -13.882446 -82.31006 -13.882446 z" style=
            "fill:#ffffff;fill-opacity:1;stroke:none;" onClick="javascript:onPathClick('path3252');"
            class="img-path"/>
        <path id="path3258" d="m 329.52942 998.6998 c -2.3164673 8.282532 -10.431915 37.036987 
            17.6633 71.168945 c 23.82602 28.945312 74.99661 46.934692 74.99661 46.934692 l -9.555542 
            -35.891235 c 0.0 0.0 -38.22223 -11.35022 -68.3367 -35.27771 c 0.0 0.0 26.63974 
            -44.787354 41.98654 -79.144775 c 0.0 0.0 -15.057251 -10.736694 -22.875427 -29.449219 c 
            -12.740753 32.82361 -12.451172 86.50702 -12.451172 86.50702 c 0.0 0.0 -4.6329956 
            -5.828491 -3.7643127 -10.736694 c 0.0 0.0 -11.292908 -6.4419556 -17.663269 -14.111023 z"
            style="fill:#ffffff;fill-opacity:1;stroke:none;" onClick="javascript:onPathClick('path3258');"
            class="img-path"/>
        <path id="path3260" d="m 382.51932 1258.8345 l 99.609375 -114.42236 l 24.03366 5.828491 c 
            0.0 0.0 3.4747314 11.35022 19.979797 20.859863 c 16.505005 9.509644 42.565613 11.656982 
            42.565613 11.656982 l -128.85516 116.5697 l 57.912445 -43.867065 c 0.0 0.0 7.528595 
            9.816406 8.107727 50.00232 c 0.5791321 40.185913 11.003387 134.0553 -2.0269165 176.38855 
            c -13.030304 42.333252 -26.63974 58.284912 -38.22223 61.045776 c -11.582489 2.7609863 
            -30.114471 -11.35022 -48.356873 -9.202881 c -18.242401 2.1473389 -36.195282 16.871948 
            -66.888855 20.246338 c -30.693573 3.3743896 -33.589203 2.4541016 -59.93936 -17.17871 c 
            -26.350159 -19.632812 -31.562286 -30.369507 -45.750824 -34.970947 c -14.188553 
            -4.6014404 -47.488205 -1.2270508 -58.49156 -14.724609 c -11.003372 -13.497559 -5.7912445 
            -24.541016 -2.3164978 -31.596558 c 3.4747467 -7.055542 51.831635 -70.55542 103.3737 
            -133.44165 c 51.542053 -62.886353 83.97302 -98.77759 99.898926 -106.446655 c 15.925934 
            -7.6690674 24.612793 -0.9202881 24.612793 -0.9202881 z" style=
            "fill:#ffffff;fill-opacity:1;stroke:none;" onClick="javascript:onPathClick('path3260');"
            class="img-path"/>
        <path id="path3262" d="m 765.03094 1178.4628 c 0.0 0.0 42.855225 14.571167 56.75421 
            30.983032 c -9.121216 -5.8286133 -17.66333 -7.055542 -17.66333 -7.055542 l -37.353516 
            51.53601 l 19.111084 -33.743774 c 0.0 0.0 -26.350159 -9.202881 -52.410706 1.2270508 c 
            -26.060608 10.42981 -49.515137 28.528809 -48.646484 54.296997 c 0.86865234 25.767944 
            32.72052 50.615845 58.781128 73.0094 c 26.060608 22.393677 90.05383 83.746216 114.666626 
            94.48291 c 24.612793 10.736694 41.98651 10.429932 52.121216 2.1473389 c 10.134644 
            -8.282593 13.609375 -28.222168 24.612732 -32.82361 c 11.003418 -4.6014404 28.666687 
            5.5217285 55.885498 -3.6811523 c 27.218872 -9.202881 33.589233 -13.497559 38.222168 
            -26.381592 c 4.6330566 -12.884033 -3.1851807 -29.449219 2.606079 -41.719727 c 5.79126 
            -12.270508 18.821533 -12.5772705 21.427612 -19.939575 c 2.606079 -7.3623047 -2.0268555 
            -15.644897 -7.818115 -19.32605 c -5.79126 -3.6811523 -49.515198 -13.190796 -77.89227 
            -22.086792 c -28.377075 -8.89624 -77.31311 -27.608643 -77.31311 -27.608643 l -43.434265 
            32.210083 c 0.0 0.0 68.62622 -57.364624 74.99658 -74.23657 c 6.3703613 -16.871948 
            5.501709 -30.369507 -8.397278 -44.17383 c -13.898987 -13.804321 -54.148132 -45.094116 
            -54.148132 -45.094116 c 0.0 0.0 -6.949524 4.6014404 -20.84851 8.589355 c -13.898987 
            3.987915 -28.666626 4.908203 -28.666626 4.908203 c 0.0 0.0 -5.212158 11.656982 
            -17.373718 23.007202 c -12.161621 11.35022 -17.590942 16.18164 -27.218872 21.473389 z"
            style="fill:#ffffff;fill-opacity:1;stroke:none;" onClick="javascript:onPathClick('path3262');"
            class="img-path"/>
        <path id="path3264" d="m 320.5074 950.03876 c 0.0 0.0 21.908417 -6.5073853 27.231934 
            -23.426697 c 5.3235474 -16.91925 4.914032 -54.011536 -3.6855164 -71.79852 c -8.599579 
            -17.786926 -20.270416 -39.044495 -35.831482 -46.636475 c -15.561127 -7.59198 -48.526093 
            10.194946 -48.526093 10.194946 c 0.0 0.0 -1.0237427 7.158142 4.0950317 9.978027 c 
            5.1187744 2.8198853 11.261322 0.4338379 14.946838 5.4228516 c 3.6855164 4.9890137 
            26.003448 35.356995 24.979675 58.349854 c -1.0237732 22.992859 -13.923096 47.070312 
            -25.184418 54.445374 c -11.261322 7.375122 -31.122208 7.158203 -31.122208 7.158203 c 0.0 
            0.0 24.365433 -4.772156 34.500595 -19.305359 c 10.135193 -14.533264 19.758545 -32.42865 
            16.482513 -49.3479 c -3.2760315 -16.919312 -19.451385 -46.528076 -24.979675 -49.890198 c 
            -5.52829 -3.3621826 -6.7568054 1.4099121 -12.592224 -3.3621826 c -5.8354034 -4.7720947 
            -15.3563385 -20.606812 -15.458725 -51.950928 c -0.102371216 -31.344055 9.11145 
            -36.549988 5.1187897 -44.467346 c -3.9926453 -7.9173584 -18.734741 -21.474487 -34.807724 
            -16.702332 c -16.073013 4.7720947 -36.75287 16.91925 -39.92653 40.454468 c -3.173645 
            23.535156 -3.2760315 42.406616 4.4021454 57.482178 c 7.678192 15.0755005 20.168015 
            30.042542 20.168015 30.042542 c 0.0 0.0 -9.7256775 1.1930542 -13.51358 9.5442505 c 
            -3.7879028 8.351135 -13.923096 34.59778 -2.8665314 57.1568 c 11.05658 22.559082 39.31227 
            43.382812 39.31227 43.382812 l -25.798676 -13.014893 l 46.68332 56.397644 l -20.475143 
            -14.750122 c 0.0 0.0 -54.05435 68.11096 -56.101868 85.03027 c -2.0475311 16.919312 
            6.961548 24.72815 14.742096 25.161987 c 7.780548 0.4338379 20.475143 2.1691895 33.169724 
            -11.713379 c 12.69458 -13.882446 33.850784 -41.30786 43.40634 -56.339233 c 9.555542 
            -15.031311 17.808044 -38.345276 17.808044 -38.345276 c 0.0 0.0 13.4721985 -6.314392 
            23.888885 -17.02533 c 9.845123 -10.123169 14.76767 -14.417847 23.45456 -48.621887 c 
            2.171692 16.411804 -3.5203857 26.49585 -3.5203857 26.49585 z" style=
            "fill:#ffffff;stroke:none;" onClick="javascript:onPathClick('path3264');" class="img-path"/>
        <path id="path3266" d="m 135.23323 963.1153 c 1.737381 -0.3067627 54.437683 -17.792236 
            54.437683 -17.792236 l 31.27272 37.42505 l -15.05722 15.95166 c 0.0 0.0 -68.9158 
            52.149597 -94.397285 57.97821 c -25.481468 5.828491 -33.299644 0.6135254 -38.511765 
            -15.031372 c -5.21212 -15.644897 -8.107742 -23.314026 1.4478073 -33.743958 c 9.555557 
            -10.429932 60.80806 -44.787354 60.80806 -44.787354 z" style=
            "fill:#ffffff;fill-opacity:1;stroke:none;" onClick="javascript:onPathClick('path3266');"
            class="img-path"/>
        <path id="path3268" d="m 190.97395 937.8074 c 0.0 0.0 -44.447815 17.945679 -78.03702 
            23.467346 c -33.58921 5.5217285 -66.30973 15.338135 -80.20872 9.509644 c -13.898987 
            -5.828491 -17.37373 -26.381592 -16.505045 -37.73181 c 0.8686867 -11.35022 1.152811 
            -27.008179 17.084166 -35.27765 c 16.765213 -8.702393 42.27608 -4.908203 71.81142 
            -13.804321 c 29.535324 -8.896118 74.56227 -25.921448 74.56227 -25.921448 c -4.0538635 
            6.595398 -7.8897705 24.42865 -5.3569183 42.17987 c 1.8821564 13.190735 7.673401 
            26.534912 16.649841 37.57837 z" style="fill:#ffffff;fill-opacity:1;stroke:none;"
            onClick="javascript:onPathClick('path3268');" class="img-path"/>
        <path id="path4161" d="m 393.91595 1224.3153 c -21.66858 9.51355 -34.02948 31.572754 
            -51.088074 47.47998 c -52.650665 58.26245 -101.57512 121.02551 -148.82169 184.42395 c 
            -5.2925873 9.195435 0.30833435 21.92749 10.863037 22.870483 c 20.932266 5.5617676 
            46.23796 0.774292 63.216736 17.572388 c 20.722565 17.770752 41.24997 43.357666 70.65991 
            41.649414 c 26.92978 0.06774902 50.55829 -15.694458 76.09143 -21.82129 c 17.746277 
            -2.4838867 33.588104 10.462036 50.895294 9.127197 c 13.818573 -6.0238037 16.861267 
            -23.88916 23.586823 -36.19409 c 21.321747 -54.15149 8.146027 -114.06409 7.946106 
            -170.89868 c -0.7665405 -14.775513 -1.073883 -31.450195 -4.123932 -44.84912 c -16.909882 
            12.286011 -32.102814 30.180542 -53.108093 34.148315 c -17.895172 -0.8520508 -39.54312 
            5.2611084 -54.2648 -8.235474 c -7.582062 -11.894409 -12.0954895 -26.496094 -12.371796 
            -40.81006 c 4.379303 -13.183228 13.889038 -23.441772 21.373993 -34.77771 l -0.85494995 
            0.31469727 z" style="fill:#ffffff;fill-opacity:1;stroke:none;" onClick="javascript:onPathClick('path4161');"
            class="img-path"/>
        <path id="path4182" d="m 769.2296 1223.7859 c -25.176636 0.39648438 -53.061646 12.183105 
            -63.392456 36.34375 c -8.123657 18.998901 10.337463 35.997314 23.005737 47.88562 c 
            27.582336 25.884155 56.93799 50.101562 85.08063 75.479004 c 22.816223 20.57434 47.740417 
            44.353516 78.84778 46.70459 c 10.254211 0.7750244 18.090515 -7.1729736 21.89087 
            -16.910278 c 5.274658 -13.514648 18.459229 -23.88733 33.596436 -21.151245 c 22.18457 
            4.0098877 47.170532 0.11303711 65.01398 -15.031372 c 10.800781 -9.166992 2.7163696 
            -24.642578 4.611267 -37.256348 c 1.8164673 -12.091553 8.68988 -22.36438 19.205261 
            -26.627075 c 4.413574 -1.7891846 4.643799 -6.253296 0.2532959 -8.481934 c -11.043457 
            -5.605835 -23.50824 -6.76001 -35.471313 -10.146118 c -36.501892 -10.332031 -72.65106 
            -22.273804 -108.137024 -35.645874 c -15.434631 9.931885 -28.386902 27.917969 -46.872864 
            29.955322 c -13.702026 1.5101318 -29.30542 1.2349854 -44.187195 0.16101074 c -18.58496 
            -1.3411865 -27.438477 -23.433838 -32.583008 -28.237549 c -4.367798 -4.078491 -7.289917 
            -9.8498535 -4.003174 -15.729248 c 3.7600708 -6.725952 9.102966 -15.04541 10.894775 
            -21.043823 c -2.5704956 -0.22644043 -5.1485596 -0.30944824 -7.7529907 -0.26843262 z"
            style="fill:#ffffff;fill-opacity:1;stroke:none;" onClick="javascript:onPathClick('path4182');"
            class="img-path"/>
        <path id="path4233" d="m 606.14136 1005.23157 c 0.8128662 26.467163 2.4505615 69.41968 
            3.2599487 95.88684 c -59.50879 16.24353 -123.431366 12.269653 -183.04013 -0.7595215 c 
            3.701355 19.35791 17.42279 34.29492 29.167053 49.36084 c 1.5231628 3.5134277 2.4004211 
            5.812378 6.6247253 1.3284912 c 3.8637085 -4.1013184 7.5520935 -6.9660645 3.534546 
            -11.039307 c -4.6156006 -5.4245605 -16.505737 -20.296509 -3.579071 -22.736694 c 9.039764 
            2.3389893 10.700409 13.889038 19.437225 17.571533 c 5.0914917 2.1461182 19.735657 
            7.279907 24.255676 7.038086 c -1.1307373 -7.133789 -3.7132568 -15.920776 -3.558014 
            -24.457764 c 10.591339 15.391357 11.182098 36.20166 29.798676 44.460815 c 29.290405 
            12.994507 58.674866 13.028809 85.63318 7.703003 c -9.407959 8.10144 -23.24176 14.133667 
            -42.10199 14.506226 c -0.5933838 3.772583 2.3864136 9.836792 6.20813 12.004639 c 
            7.7175903 4.3775635 16.466003 4.2996826 32.23297 0.92944336 c 27.660889 -5.9125977 
            47.806335 -13.5802 76.27405 -25.816284 c 14.8526 -6.384033 32.26013 -11.034668 48.74237 
            -15.403687 c -23.814636 11.394409 -28.94104 23.251709 -35.18347 33.328247 c 16.687195 
            3.1931152 38.900696 -6.2924805 58.76892 -15.474121 c 18.851868 -8.712036 32.79315 
            -29.007324 43.946594 -46.200073 c 25.364136 0.42175293 51.693176 -7.675293 62.721863 
            -33.230713 c 8.419861 -17.017334 9.652954 -36.380493 9.312256 -55.145508 c -29.075928 
            21.815796 -65.53143 28.908447 -100.830505 35.295166 c -3.0979614 -31.95044 -12.92041 
            -80.07904 -22.697205 -110.6734 c -57.46649 30.815063 -103.63165 42.44983 -148.9278 
            41.52368 z" style="fill:#ffffff;fill-opacity:1;stroke:none;" onClick="javascript:onPathClick('path4233');"
            class="img-path"/>
        <path id="path4269" d="m 388.92587 762.53754 c -4.059723 0.11138916 -7.80307 0.6937866 
            -10.134705 1.1273804 c -0.4607544 0.3060913 -0.91833496 0.55718994 -1.216156 0.8052368 c 
            -2.5340576 2.1104736 -6.0808105 4.148987 -6.0808105 19.487122 c 0.0 1.6536865 0.30212402 
            4.577942 0.70944214 8.159851 l 40.640045 -10.414551 c 0.0 0.0 -4.6356506 -13.871826 
            -12.871033 -17.554504 c -3.0630188 -1.36969 -7.147064 -1.7175293 -11.046783 -1.6105347 z 
            m 44.187164 109.56799 c -5.8354187 0.04071045 -19.031067 0.9545288 -31.316132 7.461975 c 
            -4.8122864 2.5490112 -8.470367 4.5408325 -12.617676 6.764099 c 3.7891846 16.237122 
            7.4599 28.783875 10.134674 31.995361 c 3.5492554 4.2614746 5.70932 7.4554443 7.499634 
            9.877747 c -0.50891113 -3.5550537 0.70944214 -6.6030273 0.70944214 -6.6030273 c 0.0 0.0 
            3.4936218 10.848389 8.817169 10.414551 c 5.323517 -0.4338379 14.10083 -7.345642 
            17.786346 -24.264893 c 3.6855469 -16.919312 2.0776062 -35.592163 2.0776062 -35.592163 c 
            0.0 0.0 -1.145935 -0.06719971 -3.0910645 -0.053649902 z" style=
            "fill:#ffffff;fill-opacity:1;stroke:none;" onClick="javascript:onPathClick('path4269');"
            class="img-path"/>
        <path id="path4298" d="m 269.1557 816.02264 c 10.138092 -3.8831177 23.020203 -8.896118 
            29.969696 -7.8224487 c 6.9494934 1.0736694 16.64981 6.7487793 22.875427 15.031372 c 
            6.2255554 8.282593 15.201996 23.160583 18.821533 31.749939 c 3.6195068 8.589355 8.686859 
            28.682312 7.9629517 46.167786 c -0.7239075 17.485474 -2.026947 24.541016 -5.5016785 
            29.755981 c -3.474762 5.214966 -19.400665 15.798279 -19.400665 15.798279 c 0.0 0.0 
            4.0538635 -13.344177 2.7508545 -21.933533 c -1.3030396 -8.589355 -16.07071 -47.85498 
            -25.3367 -63.960022 c -9.265991 -16.105042 -18.531982 -30.369507 -25.771027 -33.13037 c 
            -7.239044 -2.7608643 -9.121216 -1.3804321 -11.87204 -3.6811523 c -2.7508545 -2.3007202 
            -2.1717224 -4.448059 -2.1717224 -4.448059 c 0.0 0.0 5.501526 -2.6958618 7.6733704 
            -3.527771 z" style="fill:#ffffff;fill-opacity:1;stroke:none;" onClick="javascript:onPathClick('path4298');"
            class="img-path"/>
        <path id="path4332" d="m 210.80894 847.7725 c 0.0 0.0 -21.138031 3.987915 -22.296295 
            26.381592 c -1.1582489 22.393677 8.686859 53.37671 22.585846 64.1134 c 13.899002 
            10.736694 33.878784 9.202881 46.619522 4.6014404 c 12.740723 -4.6014404 28.666656 
            -23.620728 30.404022 -37.73181 c 1.7373657 -14.111084 -5.79126 -47.548218 -12.451172 
            -55.83081 c -6.659912 -8.282593 -10.713776 -4.908203 -19.400665 -11.963745 c -8.686874 
            -7.055542 -17.084167 -33.13037 -17.95285 -49.695496 c -0.8686981 -16.565247 7.8181763 
            -38.6521 5.7912292 -47.54828 c -2.0269318 -8.896118 -16.505035 -20.859802 -28.956207 
            -15.951599 c -12.451172 4.908203 -28.956207 13.190735 -32.72052 28.52887 c -3.7643127 
            15.338135 -7.8181915 34.05066 -1.1582642 50.922607 c 6.659958 16.871948 29.535355 
            44.17383 29.535355 44.17383 z" style="fill:#ffffff;fill-opacity:1;stroke:none;" onClick="javascript:onPathClick('path4332');"
            class="img-path"/>
        <path style=
            "fill:#000000;stroke:#000000;stroke-width:5.37741804;stroke-linecap:butt;stroke-linejoin:round;stroke-miterlimit:4;stroke-opacity:1;stroke-dasharray:none;"
            id="path3242" d="m 538.5676 294.95868 c 0.0 0.0 17.199097 -9.978058 33.579224 -11.062622 
            c 16.380127 -1.0845642 29.484192 2.6029968 29.484192 2.6029968 c 0.0 0.0 7.3710327 
            -31.886383 1.4332275 -36.875412 c -5.937744 -4.988983 -27.231934 3.470642 -27.231934 
            3.470642 c 0.0 0.0 10.23761 -23.209793 27.027222 -31.669449 c 16.789612 -8.4596405 
            30.507935 -6.2904816 32.760193 1.0845795 c 2.2522583 7.3750763 1.0237427 25.812775 
            1.0237427 25.812775 c 0.0 0.0 40.745544 -66.80951 56.10193 -72.23236 c 15.356323 
            -5.4228516 28.665161 -2.81987 34.398193 3.4706116 c 5.733032 6.2905273 9.213806 19.9561 
            7.166321 31.018707 c -2.0475464 11.062607 -22.317932 60.08516 -22.317932 60.08516 c 0.0 
            0.0 -4.0949707 -29.934128 -18.632324 -29.717209 c -14.5373535 0.21691895 -31.736511 
            29.934128 -31.736511 29.934128 c 0.0 0.0 23.136292 -5.2279663 29.381836 4.229828 c 
            7.5756226 11.471985 1.4332886 31.344055 -0.9213867 43.49124 c -5.3234863 -6.9412537 
            -14.434998 -19.739136 -25.491516 -17.353088 c -11.05658 2.3860474 -18.734741 10.628754 
            -18.734741 10.628754 c 0.0 0.0 14.861145 16.958954 23.546387 34.923157 c 8.599548 
            17.786926 20.065613 69.629364 20.065613 69.629364 c 0.0 0.0 9.009094 11.930267 17.40387 
            15.400879 c 8.394836 3.470642 33.37451 10.845703 48.526062 27.548096 c 10.391968 
            11.455536 16.5849 46.853394 16.5849 46.853394 c 0.0 0.0 -20.270386 -19.739166 -35.217224 
            -22.77594 c 0.0 0.0 18.018066 18.220764 15.561096 44.467346 c -2.4570312 26.246582 
            -18.018127 50.974792 -18.018127 50.974792 c 0.0 0.0 0.0 -20.389893 -7.7805786 -28.63269 
            c -7.7805176 -8.242676 -12.285095 -11.496399 -12.285095 -11.496399 c 0.0 0.0 2.0475464 
            18.220764 -4.5045166 34.706238 c -6.2683716 15.77179 -22.727417 29.066467 -22.727417 
            29.066467 c 0.0 0.0 3.276062 -17.13623 -2.866516 -23.426697 c -6.142517 -6.2905273 
            -9.009033 -7.158203 -9.009033 -7.158203 c 0.0 0.0 -22.522644 68.32794 -33.16974 95.22522 
            c -10.647034 26.897339 -25.003418 50.927063 -46.88806 60.7359 c -21.294128 9.5442505 
            -40.61194 12.659119 -60.606384 4.7720947 c -19.246643 -7.59198 -33.579224 -18.654602 
            -40.950287 -34.05548 c -10.198914 -21.309326 -13.513611 -36.875366 -13.513611 -36.875366 
            c 0.0 0.0 -36.65091 0.92315674 -57.535126 -6.0735474 c -23.955902 -8.025818 -49.95932 
            -29.934143 -62.244415 -39.69525 c -2.2522583 4.9890137 -2.0475159 22.992859 -2.0475159 
            22.992859 c 0.0 0.0 -16.994354 -22.125244 -18.22287 -38.610657 L 301.67026 573.69305 c 
            0.0 0.0 -14.742096 8.025818 -43.407288 6.724365 c -28.665192 -1.3015137 -47.502304 
            -10.845703 -55.692368 -25.161987 c -8.190063 -14.316345 -3.8902893 -22.99292 -0.6142578 
            -29.717224 c 3.2760162 -6.724365 13.695602 -20.173035 35.831497 -20.389923 c 19.450562 
            -0.19064331 53.03058 8.025787 66.74893 14.750092 c 13.718353 6.724365 25.38919 15.40094 
            25.38919 15.40094 l 7.5758057 -1.7353516 c 0.0 0.0 -1.0237732 -36.00769 14.537323 
            -52.710052 c 15.561127 -16.702393 25.593933 -18.871521 32.35074 -28.63266 c 6.756775 
            -9.761108 18.22287 -58.78366 18.22287 -58.78366 c 0.0 0.0 -30.09848 -6.5074463 
            -49.549835 -21.257568 c -19.451385 -14.750153 -40.950287 -47.93799 -55.282898 -98.69586 
            c -14.004974 -49.59764 -8.190002 -62.68811 5.7330627 -88.93471 c 13.923065 -26.246597 
            27.469482 -40.794144 58.55887 -42.298218 c 25.198914 -1.219101 59.787415 13.231766 
            76.98654 28.849548 c 17.199097 15.617798 42.79303 42.948975 99.509186 123.857864 z"/>
        <path id="path3182" d="m 541.48895 298.3607 c 0.0 0.0 38.22223 48.468475 61.097595 62.886322 
            c 22.875427 14.417847 79.050476 47.241455 79.050476 47.241455 c 0.0 0.0 -9.680176 
            -77.609924 -57.622864 -107.06015 c -45.615967 -28.020996 -82.52521 -3.067627 -82.52521 
            -3.067627 z" style="fill:#ffffff;fill-opacity:1;stroke:none;" onClick="javascript:onPathClick('path3182');"
            class="img-path"/>
        <path id="path3184" d="m 584.6337 245.29074 c 14.478088 -6.135254 22.006714 -0.61351013 
            24.03363 8.896103 c 2.0269775 9.509659 -2.89563 33.74391 -2.89563 33.74391 c 23.164978 
            6.7487793 36.195312 21.166626 36.195312 21.166626 c 0.0 0.0 16.215454 -13.804321 
            26.060608 -12.884033 c 9.845093 0.92025757 19.979797 12.270477 19.979797 12.270477 c 0.0 
            0.0 6.0807495 -23.620728 -1.7374268 -30.676239 c -7.8181763 -7.055542 -33.589172 
            -0.3067627 -33.589172 -0.3067627 c 0.0 0.0 23.164978 -43.86705 40.828247 -40.79944 c 
            17.663269 3.067627 19.979797 20.859863 19.979797 20.859863 c 0.0 0.0 24.323181 
            -46.014404 15.346802 -65.03369 c -8.97644 -19.019272 -25.481506 -18.71251 -39.090942 
            -8.2825775 c -13.609375 10.429901 -63.12451 88.04088 -63.12451 88.04088 c 0.0 0.0 
            13.179504 -38.300354 2.89563 -48.77527 c -12.546631 -12.779678 -37.063965 9.8164215 
            -44.88214 21.780151 z" style="fill:#ffffff;fill-opacity:1;stroke:none;" onClick="javascript:onPathClick('path3184');"
            class="img-path"/>
        <path id="path3186" d="m 467.07147 206.02515 c 0.0 0.0 55.016846 75.15683 73.25922 100.31137 
            c 18.242432 25.15451 46.329956 51.536133 60.808044 61.045746 c 14.478149 9.509644 
            70.6532 40.79944 70.6532 40.79944 c 0.0 0.0 -44.30304 6.7487793 -66.599304 -9.202881 c 
            -22.296265 -15.95166 -49.225586 -38.038544 -59.36023 -54.296997 c -10.134705 -16.258392 
            -28.666687 -47.548187 -38.80136 -67.181 c -10.134644 -19.632812 -39.959564 -71.47569 
            -39.959564 -71.47569 z" style="fill:#ffffff;stroke:none;fill-opacity:1;" onClick="javascript:onPathClick('path3186');"
            class="img-path"/>
        <path id="path3188" d="m 490.526 258.4815 c 0.0 0.0 -26.63971 -64.7269 -60.808075 -85.58676 
            c -37.21991 -22.72287 -69.48291 -30.960999 -92.08075 -17.178726 c -27.248291 16.618591 
            -43.723877 59.2052 -40.828278 86.81384 c 2.89563 27.608658 30.693604 104.2993 57.912445 
            123.62535 c 27.218842 19.32605 49.804688 22.70044 49.804688 22.70044 c 0.0 0.0 12.740723 
            -34.05066 31.562256 -34.664185 c 18.821533 -0.6135254 30.404053 9.202881 30.404053 
            9.202881 l 0.57910156 -4.6014404 c 0.0 0.0 -4.6329956 -9.509644 -2.6060486 -17.17871 c 
            2.026947 -7.6690674 4.0538635 -8.896118 6.6599426 -11.35022 c -8.107758 0.9202881 
            -19.72763 4.037903 -33.878784 10.123169 c -17.378296 7.472992 -29.245789 29.755981 
            -29.245789 29.755981 c 0.0 0.0 -3.1851807 -44.17383 13.609436 -65.340454 c 13.191895 
            -16.626038 30.404022 -23.92749 43.723877 -18.405762 c -2.0269165 -4.6014404 -3.4997559 
            -10.130554 -15.925903 -13.804291 c -12.451202 -3.6811829 -28.377106 -3.987915 -28.377106 
            -3.987915 c 0.0 0.0 18.520935 -15.583771 39.670013 -15.338135 c 15.927612 0.18496704 
            29.82489 5.2149353 29.82489 5.2149353 z" style=
            "fill:#ffffff;fill-opacity:1;stroke:none;" onClick="javascript:onPathClick('path3188');"
            class="img-path"/>
        <path id="path3190" d="m 459.56458 257.26886 c -11.003357 0.30670166 -25.235352 8.857758 
            -25.235352 8.857758 c 0.0 0.0 11.159302 -0.14727783 23.461792 4.9388733 c 11.87207 
            4.908203 14.492554 21.795471 14.492554 21.795471 c 0.0 0.0 -24.055359 -10.169189 
            -46.062073 14.065063 c -11.9375 13.145813 -14.441925 50.355103 -14.441925 50.355103 c 
            0.0 0.0 9.808929 -15.368805 26.603516 -22.117584 c 16.228607 -6.521332 48.393097 
            -13.206146 48.393097 -13.206146 c 0.0 0.0 -12.176086 10.153839 -16.519531 15.675568 c 
            -4.343445 5.521759 -1.3240967 12.330353 0.0 17.500824 c 6.8489075 -11.111725 25.792755 
            -15.353455 25.792755 -15.353455 c 0.0 0.0 -15.361267 9.218201 -24.627258 19.648132 l 
            -1.7229004 5.207306 l 1.4188538 9.824066 c 0.0 0.0 -3.778778 -4.6244507 -10.438721 
            -10.146179 c -6.659912 -5.5217285 -19.38617 -7.362274 -28.07306 -4.2946777 c -8.686859 
            3.067627 -15.636322 11.34256 -22.296265 26.680664 c -6.6599426 15.338135 -11.864807 
            51.559143 -21.130798 65.97699 c -9.266022 14.417847 -25.17743 19.632812 -36.180817 
            36.50476 c -11.003357 16.871918 -10.43869 44.44989 -10.43869 44.44989 l 29.846619 
            -6.119873 c 0.0 0.0 -3.2141418 -9.195251 -2.6350098 -15.944 c 0.57910156 -6.74881 
            6.3703613 -21.795502 18.242401 -26.09018 c 11.87204 -4.2946777 20.269348 7.354645 
            20.269348 7.354645 c -2.89563 -15.031372 -4.3506775 -46.313507 0.8614502 -65.332794 c 
            5.212097 -19.019257 17.055206 -37.51706 35.87674 -31.99533 c 18.821533 5.5217285 
            25.235352 37.52475 25.235352 37.52475 c 6.3703613 -39.265625 18.807037 -50.907288 
            38.207733 -61.950745 c 20.816193 -11.849182 40.28531 -7.3852844 50.420013 -1.5567932 c 
            0.0 0.0 -8.71582 -11.043457 -14.796631 -19.32605 c -6.0808105 -8.282593 -11.300171 
            -16.856628 -11.300171 -16.856628 c 0.0 0.0 -11.27124 1.533844 -22.853699 8.589355 c 
            -11.582489 7.055542 -23.765808 27.27121 -23.765808 27.27121 c 0.0 0.0 6.6816406 
            -18.681854 17.685028 -29.418518 c 11.003326 -10.736725 25.184662 -12.293518 25.184662 
            -12.293518 L 493.7184 264.30136 c 0.0 0.0 -25.739502 -7.26709 -34.15384 -7.0325317 z m 
            -113.50836 348.2983 c 0.0 0.0 -0.2388916 7.2165527 8.665131 20.560791 c -0.7239075 
            -8.282593 1.2161865 -14.172485 1.2161865 -14.172485 l -9.881317 -6.3883057 z" style=
            "fill:#ffffff;fill-opacity:1;stroke:none;" onClick="javascript:onPathClick('path3190');"
            class="img-path"/>
        <path id="path3192" d="m 375.56982 526.82214 l 17.084167 -6.978882 c 0.0 0.0 -2.6060486 
            -9.356262 4.1986694 -15.031372 c -2.606079 7.3623047 -0.2171936 13.65094 -0.2171936 
            13.65094 c 0.0 0.0 14.840057 -5.1382446 24.467987 -8.589325 c -5.212097 -2.377411 
            -9.410736 -7.3623047 -13.537018 -12.3471985 c -4.126251 -4.984894 -10.134674 -10.890076 
            -16.07071 -10.046509 c -5.9360046 0.8435974 -11.835815 7.3551636 -15.491547 14.801331 c 
            -2.8682861 5.8421326 -4.1986694 13.190796 -0.4343567 24.541016 z" style=
            "fill:#ffffff;fill-opacity:1;stroke:none;" onClick="javascript:onPathClick('path3192');"
            class="img-path"/>
        <path id="path3196" d="m 579.4216 385.17453 c 0.0 0.0 18.242432 20.859863 22.296326 37.73181 
            c 4.053833 16.871948 4.343445 35.27768 4.343445 35.27768 c 0.0 0.0 22.296265 -17.17871 
            43.723877 -14.417847 c 21.427551 2.7608948 47.77771 10.429932 49.225586 35.27774 c 
            1.447815 24.847748 -1.447876 34.35739 -5.79126 49.695526 c -4.343445 15.338135 
            -15.057251 38.038574 -15.057251 38.038574 c 15.346802 9.509644 15.057251 22.70044 
            15.057251 22.70044 c 0.0 0.0 20.269348 -14.417847 15.346802 -59.511963 c 0.0 0.0 
            27.797974 9.509644 28.087524 34.970947 c 7.8181763 -15.644897 11.920471 -29.660522 
            10.134644 -44.48059 c -1.7373657 -14.417816 -5.501648 -27.915405 -21.138 -42.640015 c 
            10.134644 1.2270813 26.350159 1.8406067 37.643066 15.031403 c 0.0 0.0 -5.328125 
            -23.404907 -14.188538 -31.289795 c -14.478088 -12.884064 -37.353516 -21.780151 -47.48822 
            -26.995117 c -10.134644 -5.214966 -27.797974 -21.166656 -27.797974 -21.166656 c 
            -13.030273 2.454132 -36.81787 2.3085327 -53.27942 -2.454071 c -18.916443 -5.4728394 
            -41.11786 -25.768066 -41.11786 -25.768066 z" style=
            "fill:#ffffff;fill-opacity:1;stroke:none;" onClick="javascript:onPathClick('path3196');"
            class="img-path"/>
        <path id="path3204" d="m 296.75623 571.30707 c 0.0 0.0 -19.86087 -15.18396 -35.62674 
            -18.437683 c -15.765854 -3.2537231 -30.50795 -5.6397705 -30.50795 -5.6397705 c 0.0 0.0 
            26.208176 -1.3015137 37.879013 3.0368042 c 11.670807 4.338257 38.493256 19.522217 
            56.30661 32.753967 c 17.813385 13.2317505 81.49103 62.90509 100.328186 67.894104 c 
            18.837128 4.9890137 60.811157 7.375061 78.010254 2.3860474 c 17.199127 -4.9890137 
            62.643097 -28.608765 86.20035 -52.059387 c 23.75116 -23.643555 42.178772 -51.40857 
            45.86432 -62.90503 c 3.6854858 -11.49646 6.756775 -40.562866 6.756775 -40.562866 c 
            -12.740723 -0.6135254 -30.303223 12.364075 -30.303223 12.364075 c 0.0 0.0 15.151611 
            -24.077454 36.036255 -20.173004 c 20.884644 3.9044495 21.703674 20.389923 21.703674 
            20.389923 c 0.0 0.0 -9.691101 -11.226898 -19.246643 -12.147186 c 0.0 0.0 -8.539001 
            91.5914 -18.035217 129.0032 c -9.265991 36.5047 -27.133057 73.606995 -51.542053 84.35968 
            c -20.215942 8.905579 -37.816956 6.4178467 -51.831604 -4.2946777 c -22.875458 -17.485474 
            -26.63974 -48.77527 -26.63974 -48.77527 c 0.0 0.0 -8.97644 2.1473389 -16.794617 
            1.8405762 c 0.0 0.0 7.2390747 32.210083 20.269348 45.707703 c 13.030304 13.497498 
            36.484833 30.369446 61.097626 25.768005 c 24.612793 -4.6014404 45.829407 -16.823242 
            57.693115 -39.94452 c 11.296814 -22.01648 22.515625 -50.243652 29.175537 -73.250854 c 
            6.659912 -23.007202 21.138 -54.296997 29.53534 -75.770386 c 8.397278 -21.473389 11.87207 
            -47.241455 9.265991 -62.886353 c -2.606079 -15.644897 -15.346802 -26.381592 -35.03705 
            -28.222168 c -19.690186 -1.8405762 -40.538696 2.4541016 -50.67334 13.497559 c -10.134705 
            11.043457 -21.138062 42.02649 -40.249146 54.60376 c -19.111084 12.5772705 -43.434326 
            13.190796 -58.781128 7.055542 c -15.346802 -6.135254 -36.484833 -17.485474 -55.595947 
            -17.17871 c -19.111115 0.3067627 -40.360596 6.7435913 -63.703674 15.95166 c -26.204285 
            10.336731 -52.410736 12.270508 -52.410736 12.270508 c 16.794617 11.35022 28.377106 
            28.835693 28.377106 28.835693 c 0.0 0.0 -50.38385 -41.719727 -79.050476 -48.161743 c 
            -28.666656 -6.4420166 -51.252518 -11.35025 -63.41414 -3.987915 c -12.161606 7.3623047 
            -25.191895 25.154541 -12.161606 40.492676 c 13.030304 15.338074 33.87877 20.859863 
            49.225586 20.859863 c 15.346771 0.0 37.879944 -4.673828 37.879944 -4.673828 z" style=
            "fill:#ffffff;stroke:none;" onClick="javascript:onPathClick('path3204');" class="img-path"/>
        <path id="path3206" d="m 505.00412 656.8128 c 0.0 0.0 12.161591 38.958862 30.693573 
            49.388794 c 18.531982 10.429932 29.390564 6.595398 34.457886 4.754822 c 5.067322 
            -1.8405762 22.193298 -7.2233887 37.643127 -36.68445 c 15.63208 -29.808655 20.414124 
            -46.448242 26.060547 -86.94092 c 5.6464844 -40.492676 7.5286255 -51.22937 7.5286255 
            -51.22937 c -6.34729 16.268555 -11.168762 23.264832 -21.053223 36.43036 c -13.974365 
            18.613037 -38.307007 41.640747 -38.307007 41.640747 c 0.0 0.0 -8.542114 20.092957 
            -11.5824585 35.43109 c -3.0404053 15.338135 -4.1986694 36.044617 -4.1986694 36.044617 c 
            0.0 0.0 -14.670044 -17.984863 -20.124573 -29.755981 c -3.9090576 -8.435974 -5.067322 
            -15.184753 -5.067322 -15.184753 c 0.0 0.0 -10.134705 4.754822 -16.794617 8.282593 c 
            -6.659973 3.527771 -19.25589 7.8224487 -19.25589 7.8224487 z" style=
            "fill:#ffffff;fill-opacity:1;stroke:none;" onClick="javascript:onPathClick('path3206');"
            class="img-path"/>
        <path id="path3208" d="m 544.9149 638.55035 c 2.4570312 19.08844 17.199097 35.140076 
            17.199097 35.140076 c 0.0 0.0 1.6380005 -28.63263 13.308838 -55.09613 c 0.0 0.0 
            -11.875549 10.411865 -30.507935 19.956055 z" style=
            "fill:#ffffff;fill-opacity:1;stroke:none;" onClick="javascript:onPathClick('path3208');"
            class="img-path"/>
        <path id="path3212" d="m 426.67096 509.1612 c 0.0 0.0 -9.009064 -3.79599 -12.592224 
            -10.411865 c -3.58313 -6.6158752 -5.835388 -24.61972 -5.323517 -44.467346 c 0.51187134 
            -19.847656 7.2686768 -53.03546 28.562805 -55.31305 c 21.294159 -2.2776184 29.177094 
            34.38083 33.067352 48.263336 c 5.52829 -15.617798 7.2686768 -41.430573 19.86087 
            -56.722992 c 12.854218 -15.610626 35.422028 -25.162018 47.70706 -23.426727 c 12.285095 
            1.735321 22.829834 6.9412537 32.760254 16.377014 c 8.854431 8.41333 17.813354 17.786926 
            24.058289 34.814697 c 6.947632 18.943817 6.859131 44.358917 6.859131 44.358917 c 0.0 0.0 
            -19.86084 42.948944 -39.107483 54.553833 c -19.246643 11.604919 -35.62677 10.954163 
            -44.840576 8.025818 c -9.213806 -2.9283447 -20.884644 -5.965149 -29.074707 -13.123291 c 
            -6.15152 -5.3764954 -9.623291 -19.739166 -9.623291 -19.739166 c -2.6617737 6.073578 
            -0.10235596 18.654602 -0.10235596 18.654602 c 0.0 0.0 -13.615967 -6.073578 -25.286804 
            -6.182068 c -11.670807 -0.10845947 -26.924774 4.3382874 -26.924774 4.3382874 z" style=
            "fill:#ffffff;stroke:none;" onClick="javascript:onPathClick('path3212');" class="img-path"/>
        <path id="path3881" d="m 428.2701 506.19238 c 0.0 0.0 13.464661 -4.2946777 21.572388 
            -3.8345337 c 8.107727 0.46014404 24.323212 4.448059 24.323212 4.448059 c 0.0 0.0 0.0 
            -17.945618 -2.171692 -38.345337 c -2.1717224 -20.39972 -10.27948 -48.92865 -17.373749 
            -56.90448 c -7.094269 -7.9757996 -11.292908 -11.0434265 -17.95285 -9.356232 c -6.659912 
            1.6871948 -18.821533 10.583313 -21.861938 27.915405 c -3.0404053 17.332062 -4.48822 
            37.57843 -1.3030396 55.6774 c 3.1852112 18.098999 14.76767 20.39972 14.76767 20.39972 z"
            style="fill:#ffffff;fill-opacity:1;stroke:none;" onClick="javascript:onPathClick('path3881');"
            class="img-path"/>
        <path id="path3230" d="m 625.1322 530.7473 a 25.415829 32.169502 0.0 1 1 -50.831665 0.0 a 
            25.415829 32.169502 0.0 1 1 50.831665 0.0 z" style="fill:#000000;stroke:none;"
            transform="matrix(0.64973206,0,0,0.74633935,62.099693,73.999052)"/>
        <path id="path3871" d="m 595.6371 460.9449 c 0.0 0.0 -4.5737915 -47.17871 -22.296326 
            -65.95395 c -17.663269 -18.712524 -28.666626 -25.768066 -49.225586 -18.712524 c 
            -20.558899 7.0555115 -37.643036 22.70044 -42.565613 49.082 c -4.9225464 26.381592 
            -4.0538635 58.591675 4.053894 72.395996 c 8.107727 13.804321 20.269318 20.246338 
            32.43097 22.70044 c 12.161621 2.4541016 32.72052 1.2270508 42.276062 -7.055542 c 
            9.555542 -8.282593 24.03363 -25.461304 35.3266 -52.45642 z" style=
            "fill:#ffffff;fill-opacity:1;stroke:none;" onClick="javascript:onPathClick('path3871');"
            class="img-path"/>
        <path id="path3214" d="m 572.328 469.4044 a 25.415829 32.169502 0.0 1 1 -50.831665 0.0 a 
            25.415829 32.169502 0.0 1 1 50.831665 0.0 z" style="fill:#000000;stroke:none;"
            transform="matrix(1.0303045,0,0,1.0754836,-13.43025,-44.264268)"/>
        <path id="path3236" d="m 598.2814 488.19583 a 25.415829 32.169502 0.0 1 1 -50.831665 0.0 a 
            25.415829 32.169502 0.0 1 1 50.831665 0.0 z" style=
            "fill:#ffffff;fill-opacity:1;stroke:none;" onClick="javascript:onPathClick('path3236');"
            class="img-path" transform="matrix(0.8986372,0,0,0.93804265,35.257552,2.6239394)"/>
        <path id="path3238" d="m 663.8774 562.6948 a 25.415829 32.169502 0.0 1 1 -50.831665 0.0 a 
            25.415829 32.169502 0.0 1 1 50.831665 0.0 z" style=
            "fill:#ffffff;fill-opacity:1;stroke:none;" onClick="javascript:onPathClick('path3238');"
            class="img-path" transform="matrix(0.55603793,0,0,0.63871403,96.745808,110.71561)"/>
        <path id="path3220" d="m 779.99854 620.44525 a 25.415829 32.169502 0.0 1 1 -50.831604 0.0 a 
            25.415829 32.169502 0.0 1 1 50.831604 0.0 z" style="fill:#000000;stroke:none;"
            transform="matrix(0.47534572,0,0,0.49618973,192.59664,154.44918)"/>
        <path id="path3234" d="m 894.45087 753.40515 a 25.415829 32.169502 0.0 1 1 -50.831604 0.0 a 
            25.415829 32.169502 0.0 1 1 50.831604 0.0 z" style="fill:#000000;stroke:none;"
            transform="matrix(0.29976318,0,0,0.34433433,192.02465,211.89763)"/>
        <path id="path3216" d="m 902.4397 615.00037 a 25.415829 32.169502 0.0 1 1 -50.831665 0.0 a 
            25.415829 32.169502 0.0 1 1 50.831665 0.0 z" style="fill:#ffffff;stroke:none;" onClick="javascript:onPathClick('path3216');"
            class="img-path" transform="matrix(0.35238065,0,0,0.48783916,229.85062,148.94628)"/>
        <path id="path3232" d="m 1020.47943 759.16113 a 25.415829 32.169502 0.0 1 1 -50.831665 0.0 a 
            25.415829 32.169502 0.0 1 1 50.831665 0.0 z" style="fill:#ffffff;stroke:none;" onClick="javascript:onPathClick('path3232');"
            class="img-path" transform="matrix(0.23606647,0,0,0.3304539,211.54112,210.23725)"/>
        <path id="path3793" d="m 335.8998 537.63556 c 21.138031 -0.3067627 47.004974 -9.765076 
            59.07068 -14.111084 c 14.478088 -5.214966 49.263275 -21.211365 79.34003 -10.123169 c 
            11.940155 4.4018555 31.31128 14.86377 47.343414 16.565186 c 20.70044 2.1968384 36.19525 
            -3.3743896 47.19861 -12.5772705 c 11.003357 -9.202911 5.3585205 20.545105 -5.3568726 
            35.891235 c -15.636353 22.393677 -44.88214 52.763123 -68.9158 58.591675 c -24.03366 
            5.82843 -42.565643 6.7487183 -55.885498 0.61346436 c -13.319855 -6.135254 -57.772858 
            -33.22943 -69.784485 -42.640015 c -10.108063 -7.9191284 -17.95285 -19.32605 -33.01007 
            -32.210022 z" style="fill:#ffffff;fill-opacity:1;stroke:none;" onClick="javascript:onPathClick('path3793');"
            class="img-path"/>
        <path id="path3805" d="m 216.16585 521.53046 c -1.8898163 2.0205078 -10.424225 7.8224487 
            -9.410767 17.02533 c 1.0134735 9.202881 19.690231 7.515747 26.060593 6.9021606 c 
            6.3703766 -0.6135254 19.25589 -1.9939575 29.390564 0.9202881 c 10.134674 2.9142456 
            27.074066 10.123169 38.946106 18.712524 c 11.87204 8.589355 23.599304 15.184753 
            31.996613 21.166626 c 8.397308 5.9818726 31.851868 25.154541 41.69696 31.136414 c 
            9.845123 5.9818726 21.282806 11.35022 28.2323 6.4420166 c 6.9494934 -4.908203 12.885529 
            -18.25238 3.6195374 -25.614685 c -9.265961 -7.3623047 -37.787872 -25.307922 -44.88214 
            -30.216125 c -7.094269 -4.908203 -34.892242 -31.289795 -61.96631 -42.33319 c -27.074036 
            -11.043518 -54.68753 -13.626404 -65.5858 -12.730713 c -8.328003 0.68444824 -15.873367 
            6.2113037 -18.097656 8.589355 z" style="fill:#ffffff;fill-opacity:1;stroke:none;"
            onClick="javascript:onPathClick('path3805');" class="img-path"/>
        <path id="path3817" d="m 684.53265 527.2056 c 6.1052856 -12.9823 8.97644 -34.664185 5.501709 
            -47.241455 c -3.4747925 -12.5772705 -14.7677 -23.313965 -28.956238 -25.154541 c 
            -14.188538 -1.8405762 -37.353516 -0.6135254 -47.19861 7.3623047 c -9.845154 7.97583 
            -22.585876 33.437134 -27.508423 40.185913 c -4.9225464 6.7487793 -6.949524 18.405762 
            -0.28955078 23.92749 c 6.659912 5.5217285 19.111084 -12.5772705 27.797974 -23.313965 c 
            8.686829 -10.736694 21.138 -16.258423 30.693542 -15.644897 c 9.555603 0.6135254 
            22.006775 5.214966 24.323242 13.190796 c 2.3164673 7.97583 -2.606079 20.859863 3.4747314 
            26.995117 c 6.0808105 6.135254 10.136841 3.9987793 12.161621 -0.3067627 z" style=
            "fill:#ffffff;fill-opacity:1;stroke:none;" onClick="javascript:onPathClick('path3817');"
            class="img-path"/>
        <path id="path3835" d="m 296.51932 571.226 c 0.0 0.0 -18.242401 -13.190796 -29.245758 
            -16.565125 c -11.003357 -3.3743896 -36.7744 -7.515686 -36.7744 -7.515686 c 0.0 0.0 
            -9.121201 0.46014404 -12.01683 5.0615845 c -2.8956146 4.6014404 0.8686981 11.656982 
            4.3434296 13.80426 c 3.4747467 2.1474 18.821548 9.969849 31.127945 9.816406 c 12.3063965 
            -0.15332031 19.400665 0.0 42.565613 -4.6014404 z" style=
            "fill:#ffffff;fill-opacity:1;stroke:none;" onClick="javascript:onPathClick('path3835');"
            class="img-path"/>
        <path id="path3853" d="m 633.1209 622.79956 c -0.33972168 1.4835815 -0.6709595 3.0525513 
            -1.0134888 4.4020386 c -9.265991 36.5047 -27.125854 73.637695 -51.53485 84.39038 c 
            -20.215942 8.905579 -37.824158 6.4178467 -51.838806 -4.2946777 c -22.875458 -17.485474 
            -26.603577 -48.79828 -26.603577 -48.79828 c 0.0 0.0 -9.005371 2.132019 -16.823547 
            1.8252563 c 0.0 0.0 7.239044 32.240723 20.269348 45.73828 c 13.030273 13.497559 36.49933 
            30.369507 61.11212 25.768066 c 24.612793 -4.6014404 45.80255 -16.819214 57.66626 
            -39.94049 c 10.585693 -20.630432 21.0578 -46.68994 27.819702 -68.822205 c -2.335205 
            0.09906006 -4.6765137 0.16101074 -7.043579 0.16101074 c -4.06073 0.0 -8.0494995 
            -0.13757324 -12.0095825 -0.4295044 z" style="fill:#ffffff;fill-opacity:1;stroke:none;"
            onClick="javascript:onPathClick('path3853');" class="img-path"/>
        <path id="path3915" d="m 459.56458 257.26886 c -11.003357 0.30670166 -25.235352 8.857758 
            -25.235352 8.857758 c 0.0 0.0 11.159302 -0.14727783 23.461792 4.9388733 c 11.87207 
            4.908203 14.492554 21.795471 14.492554 21.795471 c 0.0 0.0 -24.055359 -10.169189 
            -46.062073 14.065063 c -11.9375 13.145813 -14.441925 50.355103 -14.441925 50.355103 c 
            0.0 0.0 9.808929 -15.368805 26.603516 -22.117584 c 16.228607 -6.521332 48.393097 
            -13.206146 48.393097 -13.206146 c 0.0 0.0 -12.176086 10.153839 -16.519531 15.675568 c 
            -4.343445 5.521759 -1.3240967 12.330353 0.0 17.500824 c 6.088684 -9.878357 21.029694 
            -14.114471 24.42456 -14.977692 c 0.5700073 -0.2381897 1.1557617 -0.5001526 1.7229004 
            -0.697876 c 3.7504578 -1.3076782 9.18866 -3.0891724 13.276428 -4.4020386 c 9.59967 
            -6.46994 19.357239 -7.5693665 19.357239 -7.5693665 L 493.7184 264.30136 c 0.0 0.0 
            -25.739502 -7.26709 -34.15384 -7.0325317 z" style=
            "fill:#ffffff;fill-opacity:1;stroke:none;" onClick="javascript:onPathClick('path3915');"
            class="img-path"/>
    </g>
</svg>