<?xml version="1.0" standalone="no"?>
<!--Created with Sketsa SVG Editor (http://www.kiyut.com)-->
<svg contentScriptType="text/ecmascript" width="650.0px" xmlns:xlink="http://www.w3.org/1999/xlink"
    baseProfile="full" zoomAndPan="magnify" contentStyleType="text/css" height="800.0px"
    preserveAspectRatio="xMidYMid meet" xmlns="http://www.w3.org/2000/svg" version="1.0">
    <g id="Black">
        <rect x="2.0595682E-5" width="649.00006" y="-5.9604645E-7" height="798.0" stroke-miterlimit="10"
            stroke="#FFFFFF"/>
    </g>
    <g id="Color">
        <path fill="#FFFFFF" d="M 164.02098 576.5238 c 12.400986 -45.14044 39.721542 -79.3486 
            84.3817 -100.18924 c 1.0615234 -0.4947815 2.4209747 -1.7461548 2.45813 -2.688263 c 
            0.46766663 -11.670776 0.71580505 -23.349548 1.0328674 -35.50894 c -0.5959778 0.0 
            -1.4930878 -0.1451416 -2.322403 0.021118164 c -28.980164 5.799591 -53.023926 19.733398 
            -72.63603 40.55188 c -23.761688 25.222656 -37.265564 55.082184 -42.42363 88.36539 c 
            -4.521744 29.172302 -1.8822937 57.359253 12.863388 84.089294 c 4.8515778 8.795044 
            13.265259 9.598145 21.782822 13.142761 c -0.56733704 -1.8710938 -0.8006134 -2.6659546 
            -1.0498352 -3.4580688 C 159.34332 633.0628 156.2404 604.8468 164.02098 576.5238 z"
            stroke-miterlimit="10" stroke="#000000"/>
        <path fill="#FFFFFF" d="M 442.33493 632.5299 c 1.9056091 5.092285 3.4337463 9.33313 5.112488 
            13.519653 c 0.32659912 0.8161011 1.201477 1.9909668 1.8854065 2.03125 c 5.3415527 
            0.31427002 10.763641 0.7103882 15.411591 -2.3335571 c -1.234314 -4.751709 -2.355194 
            -9.066162 -3.4326477 -13.216248 C 454.94693 632.5299 448.86835 632.5299 442.33493 
            632.5299 z" stroke-miterlimit="10" stroke="#000000"/>
        <path fill="#FFFFFF" d="M 554.3372 593.5336 c 4.9799194 2.2317505 9.801819 4.393982 
            15.104126 6.770996 c -1.6998901 -5.6343994 -3.2471313 -10.768005 -4.9448853 -16.392334 C 
            560.70746 587.50134 557.50696 590.5331 554.3372 593.5336 z" stroke-miterlimit="10"
            stroke="#000000"/>
        <path fill="#FFFFFF" d="M 438.54794 633.7461 c -0.9945984 -0.7597046 -2.5556335 -1.1779175 
            -3.8642883 -1.1920166 c -16.584442 -0.17932129 -32.57193 -3.6171875 -48.40457 -7.885254 
            c -5.860077 -1.579834 -11.653412 -3.3885498 -18.052124 -5.2614746 c -0.76568604 
            4.2196045 -1.6289368 7.7995605 -2.0350647 11.42688 c -1.9077759 17.009766 8.231323 
            29.645752 26.104248 32.44586 c 1.7475891 0.2741089 3.6936035 -0.59033203 6.7519226 
            -1.1456299 c -10.93338 -7.5931396 -14.040497 -12.272278 -12.468842 -17.566101 c 6.620392 
            11.440063 11.641632 14.371033 20.587708 12.022339 c 7.756134 -2.0361328 9.554657 
            -6.5994873 9.316101 -22.149414 c 1.6341553 3.5183716 3.4942627 7.241455 3.3828735 
            10.909058 c -0.118774414 3.9416504 -2.0879822 7.831909 -3.248169 11.745239 c 14.45929 
            2.7669067 20.614197 -4.679199 15.675659 -18.958496 c 0.3988037 -0.24584961 0.798584 
            -0.4918213 1.1972351 -0.73773193 c 1.0572815 2.3306274 2.4761963 4.5785522 3.0987244 
            7.0108643 c 1.359436 5.315979 -0.099731445 10.134155 -4.9874268 14.606812 c 6.188904 
            0.22869873 10.0914 -1.3088989 12.024597 -5.983032 C 445.4399 648.65497 442.30203 
            636.61566 438.54794 633.7461 z" stroke-miterlimit="10" stroke="#000000"/>
        <path fill="#FFFFFF" d="M 260.0221 519.9474 c -3.2364807 -13.444 -6.5620728 -27.258911 
            -10.029785 -41.6622 c -2.3553162 0.9955139 -5.286438 2.0101318 -7.994812 3.4146729 c 
            -24.388382 12.649109 -42.61554 31.563263 -56.9413 53.564667 c -26.313095 40.411865 
            -27.808334 83.459595 -12.148575 127.71631 c 0.45916748 1.2978516 1.4814453 3.0499268 
            2.6331177 3.3884888 c 7.667099 2.249878 15.440277 4.1743774 23.094635 6.1815796 C 
            183.40402 607.84424 202.18475 556.7159 260.0221 519.9474 z" stroke-miterlimit="10"
            stroke="#000000"/>
        <path fill="#FFFFFF" d="M 214.33122 655.9882 c 1.756134 2.1209717 3.5111542 4.2418823 
            5.2673035 6.362793 c 0.46661377 -0.19744873 0.933197 -0.39593506 1.3997955 -0.5933838 c 
            -1.6606598 -21.645813 2.275772 -42.184082 13.450882 -61.085327 c 11.13475 -18.833496 
            27.720352 -32.652527 46.46498 -43.59375 c -6.6109314 -11.430908 -12.946136 -22.3833 
            -19.626984 -33.936157 c -1.4242249 0.6852417 -2.8981934 1.2432861 -4.20578 2.0454102 c 
            -18.292892 11.21521 -33.117035 25.922913 -43.41086 43.893982 c -17.464691 30.496277 
            -22.1763 62.87787 -12.144333 96.81799 c 1.6871338 5.7078857 4.4730225 8.434326 10.622574 
            8.704407 c 5.4337616 0.2368164 10.839996 1.0478516 17.079727 1.6908569 c -6.12204 
            -7.107544 -11.255722 -13.068481 -16.390472 -19.028137 C 213.33545 656.8406 213.8339 
            656.4144 214.33122 655.9882 z" stroke-miterlimit="10" stroke="#000000"/>
        <path fill="#FFFFFF" d="M 274.17282 669.06964 c 0.34680176 -14.758972 6.8792114 -27.20758 
            20.884644 -35.19055 c 5.680847 -3.2373657 11.231293 -6.6812134 16.840118 -10.031372 c 
            -0.2588501 -0.4817505 -0.516449 -0.9633179 -0.77526855 -1.4449463 c -11.703217 
            -1.3703003 -21.80832 3.505371 -32.122253 7.6968994 c 8.117737 -6.78302 17.685272 
            -11.284851 28.268555 -10.646057 c 13.578125 0.8201294 22.342773 -7.642395 33.939972 
            -12.359009 c -5.3786316 -3.392395 -10.518707 -5.652466 -14.291779 -9.219238 c -7.8749695 
            -7.4469604 -15.34906 -6.0041504 -24.485962 -1.9970093 c -39.138306 17.160034 -54.41211 
            49.530457 -49.597595 88.5296 c 0.17706299 1.4388428 1.3106995 3.2927856 2.58432 4.000122 
            c 7.40625 4.1118774 14.988525 7.9397583 23.569763 12.414307 c -0.4867859 -1.894104 
            -0.6871948 -2.4675293 -0.77737427 -3.0559692 C 276.75076 688.1995 273.94904 678.6023 
            274.17282 669.06964 z" stroke-miterlimit="10" stroke="#000000"/>
        <path fill="#FFFFFF" d="M 262.31058 624.6395 c 12.252563 -17.957031 30.657837 -27.963196 
            51.246613 -35.2843 c -11.181488 -9.536682 -21.901672 -18.680481 -32.621857 -27.823181 c 
            0.7041931 -0.7385864 1.4073181 -1.479065 2.1103516 -2.218628 c -0.63842773 0.24182129 
            -1.3106995 0.4241333 -1.908844 0.73553467 c -39.67914 20.76001 -61.306046 60.410156 
            -56.273132 103.47101 c 0.2460022 2.107727 1.427414 4.642761 3.0710907 5.982971 c 
            6.256714 5.100281 12.882431 9.79248 20.672562 15.609253 C 247.65504 662.6353 250.06761 
            642.5855 262.31058 624.6395 z" stroke-miterlimit="10" stroke="#000000"/>
        <path fill="#FFFFFF" d="M 349.77176 611.2992 c -4.26297 -1.7874146 -9.35321 0.21356201 
            -10.077484 4.1592407 c -5.737091 31.27826 3.8070679 54.875732 37.285645 66.29248 c 
            1.2174683 0.4151001 3.369049 0.34161377 4.1485596 -0.39697266 c 4.322418 -4.0926514 
            8.355286 -8.460632 13.332031 -13.608337 c -12.50705 -3.2514648 -23.029907 -6.823303 
            -28.532654 -17.543823 c -5.415741 -10.549316 -2.277832 -21.267944 -0.6192932 -31.885742 
            C 359.9098 615.8626 354.9012 613.4514 349.77176 611.2992 z" stroke-miterlimit="10"
            stroke="#000000"/>
        <path fill="#FFFFFF" d="M 562.73285 630.74945 c 2.9683228 11.83197 1.487915 22.964722 
            -4.403015 33.68628 c -5.722107 10.41333 -14.077515 18.325806 -25.677856 24.493286 c 
            18.534668 -1.1879883 40.025818 -19.682129 42.37903 -35.58258 c 0.1665039 -1.1345825 
            0.22381592 -2.3840332 -0.097595215 -3.465149 C 572.7574 642.55115 569.0775 636.0322 
            562.73285 630.74945 z" stroke-miterlimit="10" stroke="#000000"/>
        <path fill="#FFFFFF" d="M 552.5461 596.14545 c -0.81970215 -0.009033203 -1.7752686 0.2609253 
            -2.4474487 0.7022705 c -3.291626 2.1621704 -6.510254 4.427185 -8.97998 6.122986 c 
            12.025574 13.511597 23.846436 26.794495 35.736267 40.15497 c 1.5270996 -10.588745 
            -0.2979126 -21.100708 -3.2576294 -31.486816 C 571.6937 604.95953 559.7244 596.2258 
            552.5461 596.14545 z" stroke-miterlimit="10" stroke="#000000"/>
        <path fill="#FFFFFF" d="M 556.0159 661.15906 c 6.1104126 -12.928223 7.139038 -26.1203 
            -1.9544678 -38.23651 c -4.2523804 -5.664673 -9.960815 -10.363892 -15.205811 -15.311096 c 
            -0.7751465 -0.7304077 -2.8197632 -0.8262329 -3.9459229 -0.40905762 c -0.61291504 
            0.22875977 -1.0636597 2.3535767 -0.67767334 3.279663 c 3.7328491 8.936157 2.53656 
            17.822021 -0.25665283 26.617188 c -7.935425 24.984741 -32.52527 36.842896 -56.598724 
            27.123901 c 0.1368103 14.18866 9.2005005 23.443237 24.84967 25.8302 C 523.1195 693.23834 
            546.7645 680.7344 556.0159 661.15906 z" stroke-miterlimit="10" stroke="#000000"/>
        <path fill="#FFFFFF" d="M 460.92578 672.6617 c -20.479553 6.206604 -41.361023 5.8519287 
            -62.38672 3.3370972 c -2.230133 -0.2670288 -5.4273987 -0.30621338 -6.7476807 0.9279785 c 
            -4.58963 4.2922363 -8.549438 9.19104 -13.451904 14.637085 c 34.778748 7.0722046 66.83746 
            0.96118164 98.11774 -12.141357 c -1.1028442 -4.178406 -2.0233154 -7.6655884 -2.9935913 
            -11.34021 C 469.10934 669.6862 465.09335 671.40015 460.92578 672.6617 z"
            stroke-miterlimit="10" stroke="#000000"/>
        <path fill="#FFFFFF" d="M 478.72552 660.93945 c 5.8823853 4.5531616 12.736145 5.414673 
            19.98227 4.0443726 c 24.835907 -4.6972656 34.859406 -27.215637 34.769196 -42.56201 c 
            -0.023376465 -4.1360474 -1.3011475 -8.266052 -1.9989624 -12.375977 c -11.55365 4.670166 
            -21.707611 9.370361 -32.295135 12.888977 c -10.725494 3.5637207 -21.88153 5.959717 
            -32.792572 8.853516 c 1.2396545 14.475708 9.546204 21.908691 19.166718 16.824402 c 
            -5.261963 -3.9435425 -9.052063 -8.549255 -7.756195 -15.389709 c 3.028717 6.2197876 
            5.0361023 13.453186 14.455109 12.948364 c 4.616211 -0.24780273 8.993652 -1.3432007 
            10.759399 -6.341675 c -5.1591187 -1.3742676 -10.289612 -2.3859253 -12.113647 -8.003174 c 
            5.2121887 4.06958 10.904694 5.6082153 17.25476 3.3371582 c 7.12619 -2.5471802 8.1315 
            -8.251038 7.129364 -15.58313 c 3.2333984 4.5078125 5.7562256 8.025269 9.017151 12.571472 
            c -2.2768555 5.9416504 -12.231323 2.5804443 -16.176147 8.560303 c 2.11557 1.5395508 
            4.0911865 2.9794312 6.0689087 4.418335 c -0.024353027 0.49365234 -0.050842285 0.98724365 
            -0.07531738 1.4810181 c -6.171814 1.1315308 -12.344727 2.2630615 -18.969482 3.4771729 c 
            1.2301941 2.3850098 1.908905 3.7007446 3.0636597 5.9416504 c -3.6479492 -0.20245361 
            -6.423126 -0.35864258 -9.197266 -0.5097656 c -2.861206 -0.1552124 -5.7402954 -0.5371094 
            -8.576996 -0.350708 c -1.2704163 0.083618164 -3.2534485 1.1466064 -3.4719238 2.0725708 C 
            476.71072 658.31995 477.6874 660.1365 478.72552 660.93945 z" stroke-miterlimit="10"
            stroke="#000000"/>
        <path fill="#FFFFFF" d="M 337.0813 613.57526 c -10.1814575 6.1220703 -19.088257 11.372559 
            -27.825317 16.864868 c -1.0827332 0.6810913 -1.6776428 2.619751 -1.7974854 4.029236 c 
            -0.61187744 7.1588135 -1.6427002 14.3619995 -1.3340454 21.503662 c 1.00531 23.216614 
            13.215393 39.744812 34.83496 50.11078 c 1.7539978 0.84143066 4.8770447 1.0883179 
            6.3479004 0.16027832 c 9.743469 -6.14624 19.210205 -12.688477 30.141357 -20.022522 C 
            341.57132 672.6536 330.98047 647.9245 337.0813 613.57526 z" stroke-miterlimit="10"
            stroke="#000000"/>
        <path fill="#FFFFFF" d="M 302.7331 634.4594 c -5.1411133 4.6901855 -10.282227 9.38147 
            -14.990662 13.677856 c 1.7158203 -2.8656616 3.8113098 -6.3640137 5.9067383 -9.862305 c 
            -0.34783936 -0.23565674 -0.69454956 -0.47247314 -1.0413208 -0.7071533 c -3.091278 
            3.7591553 -6.796509 7.20105 -9.166595 11.335083 c -9.876099 17.22345 -6.9407043 
            34.633423 0.12936401 51.90033 c 0.40722656 0.99438477 1.9851685 1.8690186 3.1994324 
            2.2024536 c 8.293793 2.2681274 16.530365 4.9310913 24.992828 6.3759766 c 8.161285 
            1.3945312 16.567535 1.4438477 26.46054 -0.8474121 C 306.26965 691.78033 300.65884 
            665.2862 302.7331 634.4594 z" stroke-miterlimit="10" stroke="#000000"/>
        <path fill="#FFFFFF" d="M 417.99002 668.55475 c -1.0531006 0.7817993 -2.9078674 0.59033203 
            -4.396698 0.8433838 c -0.24923706 -1.3431396 -0.5503845 -2.6793213 -0.7359619 -4.0304565 
            c -0.24819946 -1.7944336 -0.40826416 -3.6010132 -0.60446167 -5.4035034 c -3.2884521 
            3.5930176 -5.960785 6.5149536 -8.635284 9.435913 c -0.4380188 -0.3143921 -0.87701416 
            -0.62872314 -1.3161011 -0.9440918 c -0.23855591 -1.6403809 -0.47714233 -3.2807007 
            -0.8758545 -6.0233154 c -2.377594 3.779419 -4.1040344 6.5219727 -6.158142 9.784607 c 
            17.106293 2.5773926 33.44159 3.102295 49.68457 0.7657471 c 8.108276 -1.1668091 15.987488 
            -3.8822632 23.883667 -6.168518 c 1.655365 -0.47943115 4.0264893 -2.0462646 4.162323 
            -3.2977295 c 0.35412598 -3.2715454 0.7379761 -7.270569 -0.8918762 -9.826843 c -2.2438965 
            -3.5214844 -5.970337 -6.2368774 -11.395721 -3.4439087 c -2.45813 1.2664795 -5.8940735 
            0.6953125 -8.740326 1.4509888 c -1.8504028 0.49066162 -4.204651 1.4830933 -5.014862 
            2.9199219 c -4.1453247 7.3461304 -12.140076 9.665588 -18.84851 13.658691 c -0.32565308 
            0.19244385 -0.9746094 -0.10687256 -2.0519714 -0.25891113 c 0.25335693 -2.2509155 
            0.4623413 -4.098816 0.822876 -7.3099365 C 423.25192 663.9702 420.79376 666.47217 
            417.99002 668.55475 z" stroke-miterlimit="10" stroke="#000000"/>
        <path fill="#FFFFFF" d="M 154.6031 265.34912 c 14.150711 12.952393 30.827454 22.51831 
            50.62729 25.640778 c 4.9756317 0.783905 10.987396 0.77178955 15.321442 -1.2272339 c 
            5.096588 -2.3496704 8.883484 -7.2615967 13.263168 -11.083313 c -86.94266 -39.69043 
            -84.7984 -149.35199 -14.713882 -190.95578 c -2.9851685 0.35266113 -5.19191 0.45339966 
            -7.324585 0.8876877 c -22.702225 4.623741 -43.54019 13.498489 -62.84691 25.577293 c 
            -5.813431 3.6363602 -12.5685425 7.307968 -16.05745 12.638039 c -9.60775 14.676338 
            -15.111549 31.136086 -15.946091 48.48452 C 115.230415 210.5803 127.87635 240.88419 
            154.6031 265.34912 z" stroke-miterlimit="10" stroke="#000000"/>
        <path fill="#FFFFFF" d="M 292.51978 111.13661 c -49.928436 13.507568 -82.14093 59.320053 
            -73.62225 104.26195 c 4.4973755 23.726395 17.111557 42.588226 40.975037 52.805054 c 
            5.013794 2.1461182 11.364899 1.4679871 17.099884 2.0957336 c 26.92926 2.947113 49.42688 
            15.209351 70.30304 30.608154 c 4.090149 3.0176697 7.041443 2.9320068 10.619385 
            -0.09677124 c 26.31842 -22.278534 41.63571 -49.56465 42.303802 -84.84189 c -0.20043945 
            -2.7486267 -0.25875854 -6.7940826 -0.8218994 -10.775024 c -5.902466 -41.74083 -28.742645 
            -73.133865 -65.3327 -96.02096 c -1.6574097 -1.0368042 -3.9098816 -1.6302643 -5.909912 
            -1.6947327 C 316.09595 107.09219 304.25803 107.959724 292.51978 111.13661 z"
            stroke-miterlimit="10" stroke="#000000"/>
        <path fill="#FFFFFF" d="M 456.98297 381.43903 c -0.23535156 -0.4998169 -0.46871948 
            -0.99957275 -0.70303345 -1.4993286 c -5.997986 2.6782227 -11.995941 5.3572693 -19.100983 
            8.530121 C 447.60324 392.17773 451.22473 384.5937 456.98297 381.43903 z"
            stroke-miterlimit="10" stroke="#000000"/>
        <path fill="#FFFFFF" d="M 173.05714 201.64311 c 6.653305 29.75473 25.038452 52.303238 
            51.961334 68.88695 c 10.314026 6.35376 19.60254 4.846405 29.21457 -0.13198853 c 
            -4.358429 -3.0802002 -9.079605 -5.8137207 -13.046814 -9.317047 c -22.550629 -19.918777 
            -31.568756 -44.39781 -25.90271 -73.251755 c 5.4634094 -27.822205 20.060654 -50.147064 
            45.38118 -65.7685 c 19.36502 -11.946846 40.346222 -18.180717 63.614777 -16.880928 c 
            0.15161133 -0.41110992 0.30221558 -0.8231964 0.45492554 -1.2353058 c -2.1389465 
            -0.98641205 -4.239685 -2.0544434 -6.4211426 -2.9471588 c -28.070282 -11.48938 -57.509644 
            -15.750412 -87.89386 -14.862732 c -1.8749084 0.055389404 -3.9926147 0.4856491 -5.540909 
            1.422699 c -6.373337 3.85598 -13.424316 7.158798 -18.690567 12.133209 C 176.21942 
            127.99334 164.23947 162.20761 173.05714 201.64311 z" stroke-miterlimit="10" stroke="#000000"/>
        <path fill="#FFFFFF" d="M 126.96862 344.77332 c -21.277008 -8.136261 -38.2666 -21.725403 
            -50.311287 -40.61435 c -0.448555 0.17831421 -0.8971405 0.35662842 -1.346756 0.53393555 c 
            0.0 13.715118 -0.08805084 27.431274 0.1187439 41.143402 c 0.02332306 1.5778198 1.4252472 
            3.3461304 2.6235733 4.6710815 c 14.614143 16.15149 33.00673 26.459991 54.65278 31.714447 
            c 7.683029 1.8660583 15.100937 2.5481567 22.468964 -1.4901733 c 3.4592285 -1.8952637 
            7.5229034 -3.6716614 11.395706 -3.8489075 c 13.89093 -0.6358032 18.782822 -9.689911 
            22.541092 -20.226074 c 1.1813202 -3.3119507 2.6680756 -6.5251465 4.417862 -10.756958 C 
            170.18332 356.04404 148.27109 352.91858 126.96862 344.77332 z" stroke-miterlimit="10"
            stroke="#000000"/>
        <path fill="#FFFFFF" d="M 130.36205 608.56366 c -3.7592773 -32.710022 2.3712006 -64.020386 
            17.377716 -93.37512 c 21.144455 -41.36093 53.688858 -70.200775 102.62155 -79.721375 c 
            1.7900238 -0.3486023 4.22171 -2.765808 4.4274445 -4.4332886 c 0.51641846 -4.195587 
            1.5960083 -9.6475525 -0.5801239 -12.533264 c -3.9352875 -5.221222 -1.6245728 -9.755341 
            -0.9586792 -15.255676 c -2.3095856 0.27200317 -4.4072113 0.27001953 -6.3510437 
            0.78686523 c -10.18988 2.7164612 -20.49965 5.134613 -30.473236 8.452545 c -23.610077 
            7.853058 -45.292206 19.178192 -62.676285 36.46823 c -34.316406 34.130615 -52.525497 
            74.67151 -51.248734 122.34888 c 0.6267166 23.412048 6.568489 45.45282 20.453049 
            65.151855 c 5.104004 7.2424927 11.458267 13.190186 20.895264 17.066345 c -0.67233276 
            -1.56073 -0.9268646 -2.3224487 -1.31073 -3.0186768 C 135.28787 637.3573 132.0376 
            623.1423 130.36205 608.56366 z" stroke-miterlimit="10" stroke="#000000"/>
        <path fill="#FFFFFF" d="M 520.06116 423.68256 c -0.37542725 -6.0222473 -0.72753906 
            -11.632446 -1.0784912 -17.242584 c -0.5228882 0.03729248 -1.0446167 0.07455444 
            -1.5684814 0.110839844 c -1.3053589 5.617218 -2.6109009 11.234467 -3.980957 17.131744 C 
            515.48944 423.68256 517.2944 423.68256 520.06116 423.68256 z" stroke-miterlimit="10"
            stroke="#000000"/>
        <path fill="#FFFFFF" d="M 508.70465 418.40594 c -7.887665 1.8841553 -15.144348 3.618225 
            -22.905823 5.4721375 c 8.152832 0.0 15.45401 0.066467285 22.752106 -0.08660889 c 
            0.89819336 -0.019165039 2.3488464 -1.0791626 2.5567322 -1.8872681 c 1.4571533 -5.656494 
            2.803955 -11.351318 3.7752075 -17.096527 c 0.14538574 -0.85440063 -2.1081543 -3.0680847 
            -2.8324585 -2.9108582 c -9.711639 2.1088562 -18.005493 7.0217285 -26.24414 12.015259 C 
            493.86786 413.60178 501.6081 413.19977 508.70465 418.40594 z" stroke-miterlimit="10"
            stroke="#000000"/>
        <path fill="#FFFFFF" d="M 463.00217 424.82822 c 1.6903381 -1.504303 3.5854187 -2.3748474 
            3.9586487 -3.6494446 c 3.6458435 -12.407318 5.3181763 -24.918365 1.6458435 -37.668243 c 
            -1.1379089 -3.9506836 -3.4188843 -4.406128 -6.5504456 -2.439331 c -4.3489685 2.732605 
            -8.50589 5.7411194 -13.597229 9.213287 C 462.73602 398.83777 458.33508 413.0315 
            463.00217 424.82822 z" stroke-miterlimit="10" stroke="#000000"/>
        <path fill="#FFFFFF" d="M 80.57041 445.82507 c -4.4157333 -3.8156738 -8.794395 -7.601166 
            -13.946098 -12.053619 c -2.913063 17.99228 -5.7466125 35.493896 -8.581223 52.99347 c 
            0.34041595 0.055358887 0.6818924 0.108795166 1.0223122 0.16320801 C 66.286064 473.12534 
            73.50668 459.32355 80.57041 445.82507 z" stroke-miterlimit="10" stroke="#000000"/>
        <path fill="#FFFFFF" d="M 96.67874 635.06995 c -22.657715 -26.774353 -31.1912 -58.255066 
            -28.086212 -91.46069 c 3.9809494 -42.588226 22.594131 -80.07211 53.53614 -111.424774 c 
            22.886818 -23.189392 49.68775 -40.656708 83.116585 -47.304657 c 5.969284 -1.1869812 
            12.056274 -1.8419495 19.21547 -2.9109192 c -1.8006592 -0.67910767 -2.546173 -1.0800781 
            -3.3457642 -1.2434082 c -20.261078 -4.1521606 -40.291016 -4.07959 -59.947647 2.964325 c 
            -26.728836 9.576996 -46.483047 27.456451 -63.73562 48.30417 C 79.70401 453.41922 
            66.86292 477.4418 56.411083 502.6594 c -11.339474 27.36081 -14.171963 55.326996 -4.47834 
            83.66208 c 7.0711594 20.668396 18.277012 38.923645 37.69607 51.45587 c 4.4465256 
            2.8706055 9.760475 4.5270996 14.67569 6.741638 c 0.27996826 -0.47753906 0.5588913 
            -0.95318604 0.83882904 -1.4306641 C 102.306595 640.42834 99.16023 638.0019 96.67874 
            635.06995 z" stroke-miterlimit="10" stroke="#000000"/>
        <path fill="#FFFFFF" d="M 101.72336 537.2707 c 7.2397385 -37.469696 25.903801 -68.986694 
            55.12471 -94.70911 c 25.608978 -22.542511 56.90204 -34.35025 90.64256 -41.061707 c 
            4.4062195 -0.8765564 8.60141 -2.707367 12.894165 -4.0958557 c -0.09863281 -0.8583679 
            -0.1972351 -1.7158813 -0.29589844 -2.5753174 c -10.749817 -4.543213 -20.695892 
            -11.296936 -33.440445 -10.391113 c -15.605667 1.1103516 -30.786194 4.142151 -45.114014 
            10.182526 c -35.24109 14.857727 -61.825714 39.028473 -81.55448 70.10721 c -13.612007 
            21.441101 -22.967377 44.654663 -27.298302 69.36447 c -4.472992 25.519836 0.5016022 
            50.121765 10.832565 73.808044 c 6.1845856 14.178589 14.831558 26.759155 28.636604 
            35.31842 c 2.6490479 1.6434326 6.4168243 1.6564941 9.970413 2.492859 c -4.9279556 
            -9.048096 -10.01178 -16.609985 -13.3395 -24.816711 C 97.781624 593.7644 96.213196 
            565.791 101.72336 537.2707 z" stroke-miterlimit="10" stroke="#000000"/>
        <path fill="#FFFFFF" d="M 77.55766 299.96735 c 14.462524 23.124908 35.13507 38.61133 
            62.720734 45.20697 c 16.760544 4.0080566 33.537003 4.5632935 49.81819 -2.1995544 c 
            2.1548462 -0.89575195 4.8760223 -2.211609 5.71904 -4.014221 c 3.1135254 -6.6681213 
            5.5493774 -13.621399 8.339432 -20.720734 c -0.959671 -0.05041504 -1.4920044 -0.21466064 
            -1.9226074 -0.08062744 c -13.601425 4.2167053 -27.194351 3.3370667 -40.6028 -0.53408813 
            c -29.80626 -8.608704 -51.640045 -27.204468 -67.97109 -51.575745 c -7.377594 -11.008759 
            -12.246132 -23.53395 -18.35865 -35.581528 c 0.0 21.353561 -0.049819946 42.9106 
            0.09654236 64.46571 C 75.40703 296.6212 76.58627 298.41275 77.55766 299.96735 z"
            stroke-miterlimit="10" stroke="#000000"/>
        <path fill="#FFFFFF" d="M 139.41307 304.7473 c 18.590881 10.540283 38.631393 15.47644 
            60.33046 10.161438 c 2.6151276 -0.64086914 5.9799194 -1.5446777 7.2822113 -3.408661 c 
            3.269394 -4.681183 5.5578156 -9.980988 8.234436 -15.02597 c -40.589005 -6.260071 
            -69.95413 -26.31485 -87.99569 -60.97545 c -17.782845 -34.16188 -17.221825 -68.74089 
            -2.0424576 -104.09668 c -2.4963226 1.3330231 -3.704193 3.4539337 -5.401947 5.1234894 c 
            -22.246284 21.893631 -35.395973 48.17827 -41.575256 77.78487 c -0.62672424 3.0015564 
            -0.55991364 6.378937 0.18663025 9.355316 C 87.17068 258.5258 106.76056 286.23514 
            139.41307 304.7473 z" stroke-miterlimit="10" stroke="#000000"/>
        <path fill="#FFFFFF" d="M 82.41771 443.64972 c 8.100853 -10.250092 14.983231 -18.96054 
            22.057533 -27.912842 c -13.017097 -3.647461 -22.686378 -11.555939 -32.69919 -20.798431 c 
            -1.3871078 11.48233 -2.6734314 21.893585 -3.8537369 32.316956 c -0.10282898 0.90786743 
            0.2004242 2.1522522 0.8240051 2.7919922 C 73.0772 434.49997 77.54386 438.83353 82.41771 
            443.64972 z" stroke-miterlimit="10" stroke="#000000"/>
        <path fill="#FFFFFF" d="M 104.059555 411.55746 c 1.7370071 0.532959 4.535553 0.55111694 
            5.7571945 -0.42214966 c 9.794411 -7.8047485 19.327904 -15.904633 28.98658 -23.953156 c 
            -24.513542 -4.147156 -45.39502 -15.785645 -63.37825 -34.569916 c -1.1304474 12.930176 
            -2.1824493 24.396362 -3.0594177 35.874756 c -0.08804321 1.1586914 0.5609741 2.6801453 
            1.4146271 3.5446472 C 82.329704 400.68164 92.00426 407.85757 104.059555 411.55746 z"
            stroke-miterlimit="10" stroke="#000000"/>
        <path fill="#FFFFFF" d="M 460.34467 446.78732 c 9.254639 0.18435669 17.199524 0.96325684 
            23.410583 7.028839 c 5.950287 5.811676 7.553711 13.071289 7.6236877 21.970184 c 
            5.0128174 -9.79361 3.3002014 -21.28601 -3.235443 -27.314331 C 482.81046 443.551 
            468.99802 442.41647 460.34467 446.78732 z" stroke-miterlimit="10" stroke="#000000"/>
        <path fill="#FFFFFF" d="M 294.47638 535.0701 c 6.2779236 -7.942688 11.395599 -14.314636 
            16.350128 -20.798462 c 0.70410156 -0.92089844 1.234314 -2.6336365 0.81222534 -3.5526733 
            c -3.2788696 -7.145691 -6.8112793 -14.18454 -10.798584 -22.348999 c -5.4995117 5.872162 
            -10.85379 11.51059 -16.061646 17.268799 c -0.5397949 0.59750366 -0.54086304 2.0162354 
            -0.23016357 2.8696594 C 287.64175 516.98816 290.85168 525.4287 294.47638 535.0701 z"
            stroke-miterlimit="10" stroke="#000000"/>
        <path fill="#FFFFFF" d="M 338.7547 579.64624 c 10.889832 5.054016 21.096771 9.851135 
            31.393768 14.466736 c 0.9268799 0.41516113 3.1209412 0.060424805 3.5705566 -0.6236572 c 
            4.32135 -6.574341 8.39566 -13.296936 12.355377 -19.680054 c -11.714813 -6.3013916 
            -22.392609 -12.045471 -33.55072 -18.04657 C 348.24896 563.1805 343.88205 570.75336 
            338.7547 579.64624 z" stroke-miterlimit="10" stroke="#000000"/>
        <path fill="#FFFFFF" d="M 307.59213 433.71298 c -4.8876953 4.0444336 -8.9704895 7.4208374 
            -13.053192 10.798187 C 301.31525 445.7676 307.42984 440.52222 307.59213 433.71298 z"
            stroke-miterlimit="10" stroke="#000000"/>
        <path fill="#FFFFFF" d="M 283.43488 503.59436 c 6.154846 -6.123993 13.4730835 -10.893829 
            16.699036 -17.476349 c 2.2438965 -4.577301 -1.1283264 -11.644501 -2.0074463 -17.596252 c 
            -0.04663086 -0.31939697 -0.23858643 -0.6206665 -0.698822 -1.7692871 c -3.5695496 
            1.8700562 -6.849579 3.4398499 -9.957733 5.274597 c -1.8811951 1.1103821 -4.698883 
            2.4091187 -5.027588 4.0061646 C 280.5865 485.05908 281.3023 494.08902 283.43488 
            503.59436 z" stroke-miterlimit="10" stroke="#000000"/>
        <path fill="#FFFFFF" d="M 291.9493 449.675 c -3.7954102 6.7759705 -6.580139 14.0607605 
            -9.744598 21.15506 c 0.52493286 0.26000977 1.0487671 0.52090454 1.5727234 0.77993774 c 
            4.312866 -2.1390686 8.639526 -4.256012 12.924805 -6.445526 c 0.54190063 -0.2770691 
            1.1506042 -0.90478516 1.2374878 -1.441803 c 0.88134766 -5.466095 1.6607666 -10.94632 
            2.6140747 -17.405884 C 297.0628 447.59036 292.9684 447.85428 291.9493 449.675 z"
            stroke-miterlimit="10" stroke="#000000"/>
        <path fill="#FFFFFF" d="M 461.22806 582.4 c -3.158081 7.7805176 -6.101837 15.638611 
            -9.115784 23.470337 c 0.11138916 0.61169434 0.22381592 1.2232666 0.33624268 1.8338623 c 
            9.773193 -2.4815674 19.554749 -4.934082 29.306793 -7.4923096 c 0.9204407 -0.24176025 
            2.1845398 -1.0025024 2.3902588 -1.7461548 c 2.382843 -8.600647 4.591797 -17.243652 
            7.00531 -26.483032 c -10.0763855 2.770813 -18.543121 5.013733 -26.930298 7.5012817 C 
            463.00113 579.8458 461.71048 581.2131 461.22806 582.4 z" stroke-miterlimit="10" stroke="#000000"/>
        <path fill="#FFFFFF" d="M 374.66815 596.58655 c 11.756226 2.8494873 23.105286 5.645447 
            34.49771 8.273254 c 0.86325073 0.19848633 2.5705566 -0.532959 2.9777832 -1.2796631 c 
            3.8388977 -7.032837 7.481537 -14.165527 11.18042 -21.26587 c -12.135864 -2.7738647 
            -23.368225 -5.3410645 -34.773468 -7.947815 C 384.09668 581.4942 379.7106 588.5139 
            374.66815 596.58655 z" stroke-miterlimit="10" stroke="#000000"/>
        <path fill="#FFFFFF" d="M 427.35385 581.91223 c -0.875 0.012084961 -2.0881042 1.1124268 
            -2.5419312 1.9899292 c -3.5673828 6.886841 -6.9895325 13.841064 -11.235657 22.337036 c 
            11.794434 0.32037354 22.636566 0.6508789 33.479767 0.8372803 c 0.7911682 0.014038086 
            2.0116882 -0.8513794 2.3425598 -1.5869751 c 3.5578613 -7.9386597 6.9788513 -15.9328 
            10.328857 -23.664856 C 448.35086 581.8235 437.8513 581.7743 427.35385 581.91223 z"
            stroke-miterlimit="10" stroke="#000000"/>
        <path fill="#FFFFFF" d="M 453.9193 461.21173 c -15.186859 -0.053375244 -27.930328 10.94632 
            -28.256958 24.389496 c -0.3149109 12.973511 11.6651 23.716187 26.56549 23.82306 c 
            16.023499 0.11282349 29.357758 -11.24057 29.41925 -25.053406 C 481.70648 471.20386 
            469.80814 461.26718 453.9193 461.21173 z M 437.81305 496.21188 c -3.5058289 -0.019226074 
            -6.1951904 -1.7138672 -6.1188354 -5.375366 c 0.06680298 -3.2736816 1.6925659 -5.8269043 
            5.680908 -5.8158264 c 3.8684998 0.011077881 6.4190063 1.5194702 6.1622925 4.867676 C 
            443.7644 494.52924 441.41547 496.22998 437.81305 496.21188 z" stroke-miterlimit="10"
            stroke="#000000"/>
        <path fill="#FFFFFF" d="M 491.9866 573.1656 c -1.5451355 7.993042 -2.9883728 16.003174 
            -4.670288 25.123901 c 5.569519 -3.1679077 10.8654785 -6.072815 16.030945 -9.174072 c 
            1.7380981 -1.0428467 4.2333374 -2.3930664 4.523926 -3.9224243 c 1.5631409 -8.228943 
            2.540863 -16.557556 3.8748474 -25.951172 c -7.1898193 4.28125 -12.812439 7.541687 
            -18.302399 10.993591 C 492.62497 570.7503 492.18915 572.1197 491.9866 573.1656 z"
            stroke-miterlimit="10" stroke="#000000"/>
        <path fill="#FFFFFF" d="M 601.9306 528.1603 c -13.081787 -15.560059 -30.495605 -18.278534 
            -48.291138 -21.144043 c 4.5324097 -0.49572754 9.065918 -0.9914551 13.598206 -1.4882202 c 
            -0.9108887 -0.9975281 -1.7296143 -1.1254578 -2.5525513 -1.2161865 c -17.15387 -1.8851318 
            -32.484924 -7.829773 -45.26654 -18.98169 c -7.1602783 -6.24588 -12.777496 -13.567963 
            -12.842163 -23.370667 c -0.040283203 -6.2802124 3.263977 -8.895905 9.803833 -7.923584 c 
            2.3828735 0.35464478 4.8654175 1.1234436 6.915344 2.307312 c 9.352051 5.3986206 
            14.059387 13.738342 16.12207 24.977844 c 3.5164795 -11.323151 -1.5769653 -19.474426 
            -6.1135254 -27.98642 c 2.1950684 2.5914307 4.3912964 5.1829834 7.3341675 8.65509 c 
            -1.4189453 -11.649689 -9.028809 -17.422028 -18.109436 -22.147583 c 0.38275146 -0.5279541 
            0.76672363 -1.0559082 1.1505127 -1.5839233 c 6.7943726 2.695343 13.588745 5.3895264 
            20.385254 8.082794 c 0.2290039 -0.39297485 0.45806885 -0.7858887 0.6861572 -1.1798706 c 
            -5.600342 -2.8867188 -10.946106 -6.447418 -16.874084 -8.47467 c -6.038208 -2.0645447 
            -12.64917 -2.6207886 -19.009766 -3.8368835 c 0.060455322 -0.4866333 0.119903564 
            -0.9743042 0.17929077 -1.4609985 c 7.5939636 0.9008179 15.187897 1.8005676 23.01712 
            2.7285767 c -8.32135 -7.8027344 -18.80188 -8.095886 -29.19757 -7.4046936 c -10.148529 
            0.6760864 -20.220795 2.3949585 -30.326965 3.6564636 c -0.2555542 -0.46447754 -0.5111084 
            -0.9289551 -0.7677307 -1.3935242 c 7.4942017 -3.9859009 14.9895935 -7.97287 22.422333 
            -11.925659 c -12.073364 0.74160767 -23.033173 4.749756 -33.17749 12.8638 c -0.68292236 
            -2.607666 -1.3075562 -4.9804688 -1.9248047 -7.355316 c -1.8515015 -7.1266174 -3.182312 
            -14.426514 -5.7274475 -21.322327 c -1.7815247 -4.8253174 -6.17511 -7.771454 -11.8368225 
            -8.38205 c 1.6128845 5.2705994 3.124115 10.213806 4.636322 15.154968 c -0.48779297 
            0.17028809 -0.9767456 0.34155273 -1.464508 0.5118103 c -3.106079 -9.665649 -6.5982056 
            -19.082458 -17.007599 -24.683563 c 6.230133 10.704529 6.230133 10.704529 4.985199 
            14.431488 c -14.790222 -14.231964 -25.76596 -16.463776 -34.385315 -14.297546 c 4.138977 
            1.9527283 8.750916 4.128113 13.362793 6.3034363 c -0.19299316 0.49578857 -0.3838501 
            0.99246216 -0.5768738 1.4902039 c -11.222778 -6.569336 -23.319489 -7.70697 -36.624023 
            -5.9224854 c 23.232544 3.5194397 26.895386 4.7809143 30.25592 10.508972 c -8.673431 
            0.9219055 -17.751953 -0.9138794 -25.642914 3.4288025 c 6.2365723 0.5854187 12.485809 
            0.53302 18.367188 1.9073792 c 5.680786 1.3269348 6.4814453 5.4298096 2.2576904 9.430847 
            c -2.5662842 2.4323425 -5.557831 4.864563 -8.854828 6.127075 c -15.20694 5.824829 
            -30.181671 4.3194885 -43.275116 -4.65802 c -9.064819 -6.2157593 -16.679932 -14.362976 
            -24.80304 -21.786804 c -5.3373413 -4.8796997 -10.940826 -9.231384 -19.280182 -11.684845 
            c 3.9724426 4.1351013 9.438049 5.6696167 10.561066 11.735199 c -11.221741 -5.9275208 
            -22.176239 -8.491852 -34.916626 -4.9290466 c 13.215393 -0.095703125 17.0914 0.8362732 
            19.957825 4.5723877 c -32.711914 3.4217224 -40.64099 6.788025 -43.781006 19.143951 c 
            6.5473022 -5.2555237 11.782745 -11.927673 21.888916 -11.894379 c -18.316193 14.671265 
            -21.778595 19.392761 -18.955688 25.274963 c 9.462463 -14.253113 23.676819 -21.4664 
            40.65158 -24.623138 c 15.849579 -2.947174 28.79779 1.5779114 37.75125 14.324738 c 
            5.3563843 7.6223145 9.76358 15.896545 14.041504 24.138458 c 4.4358826 8.543243 7.912079 
            17.535889 12.340515 26.08316 c 4.32666 8.347717 10.855896 14.886902 20.216522 18.527283 
            c -0.5800171 -1.2846375 -1.9172668 -1.8630371 -2.8292236 -2.8091125 c -5.3341064 
            -5.5406494 -8.378693 -11.941772 -7.7710266 -19.631622 c 1.5175171 -19.183258 23.463654 
            -29.408112 41.99832 -23.846344 c 7.429535 2.2287903 11.977875 7.0329895 13.711731 
            14.054718 c 3.5960083 14.559448 -5.072113 30.081238 -19.70642 35.75885 c -1.2567139 
            0.48770142 -2.5197449 0.9592285 -4.435974 1.6877136 c 1.5419312 0.7486267 2.4284973 
            1.2150879 3.3447266 1.6191711 c 8.516541 3.7522583 15.350098 9.33316 20.936584 16.523224 
            c 1.7783508 2.288269 4.5005493 4.2298584 7.2228394 5.491272 c 21.450897 9.945801 
            43.749146 9.997192 66.09717 3.6988525 c 24.161469 -6.8102417 46.297455 -5.248474 
            65.89896 11.292847 c 7.4296265 6.269287 12.451904 13.467346 13.222839 23.19751 c 
            0.3796997 4.7980347 1.8780518 9.515442 2.8695679 14.269287 c 0.4189453 0.038269043 
            0.836792 0.07659912 1.2556152 0.11480713 c 0.49206543 -5.320984 0.9852295 -10.643066 
            1.4772949 -15.964966 c 0.29052734 0.007019043 0.5831909 0.013977051 0.8737793 0.0211792 
            c 0.30969238 4.1783447 0.61932373 8.358826 0.99468994 13.435913 c 6.449646 -9.912476 
            4.32666 -19.127747 1.1008301 -28.752197 c 2.3562622 2.3396606 4.7105103 4.6812744 
            8.020203 7.968994 c -4.017029 -11.130676 -12.461548 -16.855774 -21.282349 -22.26947 c 
            0.3244629 -0.44433594 0.6479492 -0.88964844 0.9724121 -1.3339844 C 585.0205 519.84064 
            592.8329 523.68445 601.9306 528.1603 z M 400.9834 428.1331 c -5.2588196 2.0846252 
            -10.325714 4.6086426 -16.39569 7.3461914 c 9.276825 -14.351868 28.104187 -22.124329 
            43.928314 -18.866882 c 11.0659485 2.2781372 16.376709 15.450195 9.638519 24.863007 c 
            -1.043457 -1.4681091 -2.178131 -2.7265015 -2.9268494 -4.167389 C 428.1788 423.74304 
            413.25824 423.26443 400.9834 428.1331 z M 483.71188 492.0194 c -6.8420715 16.841614 
            -30.1669 24.46997 -46.46292 15.197235 c -9.698944 -5.518524 -15.486908 -15.519714 
            -13.940765 -24.09018 c 2.157013 -11.964905 12.449707 -22.0719 25.011871 -24.436676 c 
            2.4083557 -0.45343018 4.8898315 -0.5571594 5.8908997 -0.664978 C 476.66296 458.08023 
            490.6228 475.0065 483.71188 492.0194 z M 490.57935 481.0751 c -3.128357 -27.692139 
            -11.421082 -30.936615 -37.14151 -32.646454 c 2.9417114 -1.6705017 4.8060303 -2.9602356 
            6.8602295 -3.8580017 c 12.968231 -5.667572 28.579224 -2.036316 33.447784 7.944763 C 
            498.51688 462.2959 496.1393 471.49805 490.57935 481.0751 z" stroke-miterlimit="10"
            stroke="#000000"/>
        <path fill="#FFFFFF" d="M 2.0595682E-5 -5.9604645E-7 v 798.0 h 649.00006 V -5.9604645E-7 H 
            2.0595682E-5 z M 599.0217 550.0416 c -1.1335449 -1.6231079 -2.1304932 -3.0488892 
            -3.3415527 -4.784973 c -1.9830322 14.5373535 -4.8324585 18.787292 -15.695801 23.410034 c 
            0.0 -3.0961914 0.0 -6.0585938 0.0 -9.910522 c -4.1464233 7.688843 -8.834656 14.146362 
            -11.037231 21.295166 c -1.3457642 4.3668213 0.79956055 9.867249 1.9543457 14.73468 c 
            2.708435 11.414978 7.036194 22.622131 8.383972 34.157898 c 2.0690308 17.705078 
            -0.49084473 34.99408 -13.83252 49.021545 c -10.996948 11.563049 -25.03949 17.035095 
            -41.328186 17.701172 c -11.794434 0.48254395 -23.306702 -0.5592041 -34.08731 -5.489258 c 
            -2.9883423 -1.366333 -6.1358337 -2.8806763 -8.409454 -5.076294 c -2.5875244 -2.4987793 
            -4.3128967 -2.7406006 -7.5780334 -0.96118164 c -18.339539 9.996216 -38.403442 14.541382 
            -59.342102 14.4557495 c -12.617401 -0.0513916 -25.219818 -2.1421509 -37.84558 -3.1275024 
            c -2.0350647 -0.15930176 -4.8283386 -0.011169434 -6.13797 1.1495972 c -23.969574 21.2276 
            -51.31775 21.99945 -80.49515 12.41748 c -19.397858 -6.3689575 -36.727814 -16.228088 
            -53.066345 -27.885803 c -2.1611786 -1.5404053 -5.523926 -2.6740723 -8.119934 -2.369751 c 
            -17.113617 2.0080566 -33.404358 -1.4266968 -49.515915 -6.140259 c -18.470001 -5.4035645 
            -36.043884 -12.655151 -51.919968 -23.336426 c -1.2725677 -0.8563843 -3.3595428 
            -1.1063232 -4.9841537 -0.92993164 c -27.015175 2.9208984 -45.6877 -9.754395 -60.116276 
            -29.538086 c -20.438229 -28.025757 -25.922913 -59.372498 -16.88676 -91.78613 c 7.18248 
            -25.763763 8.815586 -52.17935 14.380886 -78.06189 c 7.1601753 -33.30246 10.185711 
            -67.09653 11.161297 -100.99341 c 0.5875244 -20.417572 -0.85365295 -40.8804 -0.9395752 
            -61.324127 c -0.080566406 -19.11673 -0.34037018 -38.277756 0.8579483 -57.34111 c 
            1.6489944 -26.239319 11.793335 -50.024094 27.32904 -71.54091 c 30.153053 -41.75798 
            71.49819 -67.46022 124.65682 -73.3475 c 38.285675 -4.2408752 76.02307 1.1869354 
            109.757324 19.36763 c 37.8403 20.393341 64.10358 50.722366 71.64978 92.604294 c 7.746765 
            42.994247 -8.798553 78.0166 -42.58899 106.30832 c -6.931183 5.8036194 -10.82196 
            5.3763733 -18.329987 0.02520752 c -17.83902 -12.712616 -37.01425 -22.932434 -59.26581 
            -26.627197 c -17.46997 -2.8998718 -34.71727 -2.4010925 -49.74501 8.050476 c -10.950256 
            7.6163025 -18.010803 18.225037 -23.090424 30.106384 c -8.352127 19.535828 -16.84111 
            39.018402 -25.290833 58.563293 c 6.9565735 0.45843506 14.47525 0.5461426 21.86348 
            1.5224915 c 17.867615 2.3607178 34.55922 8.232849 50.13623 16.783142 c 3.4327393 
            1.8841553 6.1506653 2.3487244 9.74881 0.7547302 c 3.1506653 -1.3955078 6.671356 
            -2.0353394 10.202698 -3.059021 c -2.0870056 -0.17840576 -4.080658 -0.3486328 -6.0732727 
            -0.5189209 c 10.32254 -7.638397 21.576141 -7.2625427 33.59427 -4.2156677 c -4.3023376 
            -2.33255 -8.603516 -4.6660767 -12.904724 -6.9996643 c 0.07211304 -0.50582886 0.1453247 
            -1.0125732 0.21740723 -1.5184326 c 4.476166 0.5229492 9.167664 0.4050598 13.3871765 
            1.6896973 c 12.664001 3.8570557 20.968445 13.204315 29.479675 22.22116 c 11.412628 
            12.088898 25.207062 19.361542 42.82022 18.162506 c 8.562103 -0.5823364 16.088287 
            -3.2342834 20.76056 -11.856171 c -9.847382 -4.037323 -19.216522 -3.0901794 -28.705566 
            -0.6407776 c 1.8261719 -6.2530212 6.2864685 -8.129089 25.421326 -10.852631 c 0.12734985 
            -0.4524231 0.25448608 -0.9037781 0.38076782 -1.3572083 c -8.991638 -2.145111 -17.982208 
            -4.290222 -26.644073 -6.3567505 c 4.5664062 -5.109375 28.936737 -7.066162 47.06418 
            -3.863037 c -3.4432983 -2.558258 -6.887665 -5.116455 -10.330933 -7.674713 c 0.1972351 
            -0.28414917 0.3934021 -0.56933594 0.5906677 -0.85443115 c 2.651123 1.7178955 5.3479004 
            3.3773499 7.939636 5.1729126 c 2.4857178 1.7209167 4.8611755 3.5839539 7.8686523 
            4.8585205 c -0.8102112 -1.1305237 -1.6204224 -2.2599792 -2.8250732 -3.9406433 c 
            6.8749695 -1.0599365 10.891937 3.3220215 15.729675 6.369934 c 7.478302 -5.65152 
            15.859222 -9.199188 25.636627 -9.054108 c 6.9819946 0.103759766 9.365967 1.698761 
            11.005371 8.143219 c 2.3193054 9.113586 2.21109 18.274353 -0.2640381 27.375824 c 
            -0.60446167 2.2257385 -1.3043213 4.428314 -2.3987427 8.11499 c 3.0138245 -2.2095947 
            4.9904785 -3.4529114 6.713745 -4.957306 c 8.439178 -7.3683167 17.937622 -13.034943 
            29.018372 -15.982117 c 9.709534 -2.581421 14.51239 0.10284424 16.326843 9.542786 c 
            0.9331665 4.8514404 0.5960083 9.924622 0.86639404 15.6154175 c 6.5143433 2.2297363 
            13.705261 4.6902466 20.896301 7.151764 c -0.14318848 0.4140625 -0.28741455 0.8272095 
            -0.42944336 1.241333 c -3.3701782 -1.0932312 -6.73822 -2.1854248 -10.300232 -3.340149 c 
            3.067871 9.891357 16.10083 11.753387 18.609924 22.827637 c -4.531311 -2.1602478 
            -8.196289 -3.9063416 -12.146423 -5.787445 c 4.800659 5.8922424 9.33197 11.45105 
            13.862244 17.010834 c -0.48999023 0.35772705 -0.97875977 0.71539307 -1.4677124 1.0730591 
            c -3.0753174 -3.8206787 -6.1517334 -7.641388 -9.239746 -11.477295 c -2.4432373 10.532227 
            4.4644775 21.561127 -4.0117188 31.5654 c -2.4030151 -5.4954224 -3.68396 -10.96048 
            -6.882324 -15.07843 c -3.7487793 -4.8252563 -8.915344 -8.795105 -14.007629 -12.456665 c 
            -1.6426392 -1.1808472 -5.803833 -1.1445923 -7.3277283 0.04736328 c -1.3722534 1.0730591 
            -1.4835815 4.7073975 -0.8250427 6.8424377 c 4.5960693 14.90506 16.019287 23.682068 
            30.537964 29.231842 c 11.958801 4.570343 24.226257 8.217804 37.924072 9.2595825 c 
            -1.6108398 1.3773499 -3.220581 2.7546997 -5.2800293 4.516968 c 16.69806 3.0236816 
            29.448975 10.225922 34.882812 27.560211 c -5.0160522 -2.871521 -9.006592 -5.154724 
            -14.243103 -8.151306 C 600.7217 540.47473 601.4841 543.6273 599.0217 550.0416 z"
            stroke-miterlimit="10" stroke="#000000"/>
        <path fill="#FFFFFF" d="M 337.22552 578.4835 c 4.991577 -8.897949 9.33844 -16.648193 
            13.597107 -24.244385 c -6.928955 -5.9849243 -13.3797 -11.5578 -20.72873 -17.905518 c 
            -4.8049316 7.8117065 -9.372284 15.083435 -13.689392 22.485962 c -0.440094 0.75372314 
            0.22802734 2.7124634 1.0455627 3.4076538 C 323.7195 567.5564 330.15018 572.7091 
            337.22552 578.4835 z" stroke-miterlimit="10" stroke="#000000"/>
        <path fill="#FFFFFF" d="M 312.7883 558.9486 c 5.616211 -8.2439575 10.513397 -15.339355 
            15.257904 -22.52533 c 0.5132141 -0.7788086 0.63101196 -2.4171753 0.11343384 -3.0913086 c 
            -4.7539673 -6.206665 -9.689362 -12.288391 -14.974762 -18.912231 c -5.237549 6.7367554 
            -10.303375 13.145813 -15.197327 19.671997 c -0.6829834 0.90979004 -1.167633 2.8010254 
            -0.6468811 3.5476685 C 302.328 544.79004 307.5518 551.79486 312.7883 558.9486 z"
            stroke-miterlimit="10" stroke="#000000"/>
        <path fill="#FFFFFF" d="M 438.3624 438.51312 c 2.0191345 -8.2812805 -1.0349426 -16.132324 
            -6.6670227 -18.911224 c -9.949249 -4.906891 -29.677979 -0.42617798 -37.61664 9.086334 c 
            8.45932 -4.072632 16.580322 -6.528137 25.421326 -5.702881 C 429.13327 423.88412 
            434.45462 429.9769 438.3624 438.51312 z" stroke-miterlimit="10" stroke="#000000"/>
        <path fill="#FFFFFF" d="M 437.6827 487.4359 c -1.4591675 0.28515625 -2.5376892 2.330536 
            -3.7816467 3.604065 c 1.2545776 1.0740967 2.5854492 3.0872803 3.745575 3.002655 c 
            1.7709045 -0.1289978 3.4241638 -1.7078857 5.128357 -2.6710815 c -0.043548584 -0.6781006 
            -0.086883545 -1.3562317 -0.12936401 -2.0343018 C 440.9754 488.63184 439.13864 487.15182 
            437.6827 487.4359 z" stroke-miterlimit="10" stroke="#000000"/>
        <path fill="#FFFFFF" d="M 402.75018 471.01447 c -1.5483398 0.3183899 -3.659668 2.1602173 
            -3.8007202 3.5134277 c -0.13253784 1.2806091 1.7772827 2.7618103 3.7582397 5.3220215 c 
            0.12094116 0.0039978027 0.23013306 -0.010101318 0.34677124 -0.011108398 c 1.7795105 
            -2.8433228 3.3117676 -4.4151917 3.4656067 -6.0887756 C 406.5996 472.8715 403.83078 
            470.79178 402.75018 471.01447 z" stroke-miterlimit="10" stroke="#000000"/>
        <path fill="#FFFFFF" d="M 533.41754 553.14197 c 0.33825684 -0.72039795 0.784729 -1.4136353 
            0.99572754 -2.1663208 c 0.8123169 -2.8846436 1.6384888 -5.7713013 2.296997 -8.68927 c 
            1.6224365 -7.186096 1.5301514 -7.2888184 -7.498474 -10.862671 c 1.1590576 7.7633667 
            2.1982422 14.727783 3.239685 21.693054 C 532.7729 553.12494 533.0953 553.134 533.41754 
            553.14197 z" stroke-miterlimit="10" stroke="#000000"/>
        <path fill="#FFFFFF" d="M 371.9926 499.0049 c 1.4146729 7.637451 3.9745789 15.202301 
            7.046753 22.411469 c 3.1315002 7.3512573 10.126312 10.387085 18.135986 11.185242 c 
            2.6181946 0.26086426 5.288452 0.04119873 7.935364 0.04119873 c -0.0010986328 
            -0.008117676 -0.0010986328 -0.016113281 -0.0010986328 -0.022216797 c 3.1729736 0.0 
            6.3956604 0.3255005 9.507019 -0.091552734 c 3.104004 -0.41729736 6.2185364 -1.3059692 
            9.112518 -2.470642 c 5.794342 -2.3325195 8.560059 -7.7231445 7.317169 -13.491455 c 
            -4.2566223 -19.744537 -30.9982 -34.55487 -51.144836 -28.324951 C 373.7816 490.13318 
            370.86853 492.93527 371.9926 499.0049 z M 395.61005 525.0094 c 2.9777832 -1.5999756 
            6.3299255 -2.5682373 9.722321 -3.8619995 c 2.1123962 1.0578613 3.8059998 1.9073486 
            5.500641 2.7557373 c -1.1262817 1.5566406 -1.9057007 3.8600464 -3.4550476 4.5128784 c 
            -3.1251526 1.3149414 -6.6384583 1.9608154 -10.059448 2.3960571 c -1.2047119 0.1531372 
            -3.7116394 -1.1305542 -3.702118 -1.7330933 C 393.63553 527.67255 394.43823 525.6393 
            395.61005 525.0094 z M 381.27377 509.13013 c 0.5683899 -0.9935913 1.95755 -1.9708252 
            3.1071167 -2.123993 c 0.8440857 -0.111846924 2.693512 1.0992432 2.7105103 1.7521057 c 
            0.109191895 4.33667 -0.0042419434 8.696411 -0.44854736 13.010864 c -0.07635498 
            0.73651123 -2.0965576 1.291748 -3.2174683 1.9315186 c -0.55252075 -0.93310547 -1.1028442 
            -1.8670654 -1.655365 -2.7990112 c 1.2895508 -0.27001953 3.6691895 -0.4584961 3.6988525 
            -0.8222046 c 0.28424072 -3.4520264 0.16864014 -6.934265 0.16864014 -10.407288 c 
            -0.6925049 -0.12597656 -1.3859863 -0.25186157 -2.0784912 -0.37680054 c -0.94277954 
            1.2383118 -1.8844604 2.4755554 -2.8271484 3.7138977 C 380.87717 511.69742 380.66083 
            510.19907 381.27377 509.13013 z" stroke-miterlimit="10" stroke="#000000"/>
        <path fill="#FFFFFF" d="M 506.49466 516.16595 c -21.836884 6.239868 -43.42575 6.8535767 
            -64.87982 -1.2877197 c -3.1453552 -1.1939087 -6.24823 -2.489624 -8.830444 -3.5214233 c 
            0.0 3.7340698 0.41253662 7.260498 -0.08270264 10.668213 c -1.190918 8.199524 -7.7816467 
            11.069153 -15.155029 12.723633 c -11.382965 2.5523071 -22.682098 2.6468506 -34.68222 
            -2.7265015 c -3.406189 8.605713 -6.530304 16.736816 -9.854828 24.793457 c -1.6183167 
            3.9243774 -0.33511353 5.902405 3.6341553 7.706909 c 38.013153 17.268799 76.57144 
            18.81842 115.27283 2.8705444 c 16.23349 -6.68927 27.47641 -19.08551 35.633514 -33.926086 
            c 1.3891602 -2.5270386 0.59381104 -4.1813354 -2.362793 -4.784912 c -4.23645 -0.864563 
            -8.483643 -1.6856079 -13.723328 -2.7214966 c 18.354431 -3.0247192 35.13611 6.4797363 
            36.296265 20.056763 c -2.5408325 -2.7496338 -4.9194336 -5.320984 -7.7731323 -8.410217 c 
            -1.09021 5.0147095 -1.6936035 9.311096 -2.9713745 13.418884 c -9.089233 29.20459 
            -30.999298 46.042175 -60.310425 55.106445 c -21.060669 6.513916 -42.685516 6.3042603 
            -64.4577 3.2473145 c -33.565613 -4.71344 -64.283936 -15.771545 -90.05618 -37.10193 c 
            -27.565613 -22.813538 -44.776825 -50.95117 -44.222168 -86.697845 c 0.30856323 -19.846313 
            6.9290466 -37.55844 24.053284 -50.462402 c 0.1887207 -0.14309692 0.13253784 -0.57736206 
            0.1887207 -0.8614807 c -1.4252014 -0.29632568 -2.832428 -0.58843994 -4.8780212 
            -1.0136719 c 13.459259 -4.1411133 30.23999 3.8771362 30.85083 14.57663 c -0.52175903 
            -0.6378479 -0.82403564 -1.0418396 -1.1644287 -1.4146729 c -4.0637207 -4.4715576 
            -8.724335 -10.536194 -14.801849 -9.076233 c -6.399872 1.5375671 -8.412659 8.802185 
            -9.84317 15.005859 c -2.406189 10.431366 -1.3181152 20.717773 1.6532593 30.840881 c 
            8.443359 28.769287 26.293 51.305756 51.293274 68.958466 c 4.413574 3.1174316 9.233398 
            5.715027 13.561157 8.365906 c 4.2884216 -10.431519 8.24292 -20.048706 12.396698 
            -30.149658 c -6.3849487 -6.963379 -10.482605 -15.789734 -11.999023 -25.606537 c 
            -1.7402344 -11.25473 1.2268677 -15.622467 12.477295 -19.327423 c 0.24917603 -0.08151245 
            0.39871216 -0.43826294 0.7052307 -0.7958679 c -10.676727 -5.0570984 -17.35968 -13.819 
            -23.848663 -23.73346 c -0.17282104 2.487671 -0.28741455 4.1280212 -0.4008484 5.7683716 c 
            -0.23751831 0.027160645 -0.47299194 0.055358887 -0.7094116 0.082611084 c -0.40829468 
            -1.7501526 -0.8685303 -3.4922485 -1.2164001 -5.2535095 c -3.1760254 -16.08194 -9.82193 
            -30.698822 -19.896332 -44.007874 c -8.9661255 -11.844086 -20.14972 -17.696045 -36.136047 
            -16.18872 c -22.42871 2.1148987 -41.346283 17.046173 -44.214752 38.171997 c -6.476227 
            47.681488 6.58432 90.25766 39.880615 126.57968 c 25.304596 27.604553 57.839447 44.910706 
            94.46979 54.95929 c 51.629456 14.162476 100.740326 8.060608 146.23929 -19.574219 c 
            15.730774 -9.552795 29.60675 -21.243713 37.93036 -37.746826 c 6.7678223 -13.416809 
            5.057373 -24.04773 -6.231201 -34.177917 C 550.55457 513.5523 529.6488 509.54916 
            506.49466 516.16595 z M 423.26147 552.6785 c -7.793213 -2.8162842 -15.584503 -5.633423 
            -23.377747 -8.449585 c 0.21954346 -0.5300293 0.43899536 -1.0610352 0.6585388 -1.5909424 
            c 7.755127 2.9038086 15.511322 5.808655 23.266418 8.712463 C 423.62735 551.79486 
            423.44385 552.23615 423.26147 552.6785 z M 402.8922 538.57043 c 10.328857 -1.5435791 
            19.894257 1.2342529 30.089447 5.493286 C 422.35803 542.12415 412.6251 540.34674 402.8922 
            538.57043 z M 370.52182 520.685 c -7.960907 -7.8218994 -16.84964 -16.553467 -22.414886 
            -22.02069 C 355.26923 502.53452 363.92468 511.4988 370.52182 520.685 z M 339.6741 
            511.46063 c 9.194183 4.6538696 18.388367 9.306946 27.582458 13.960876 c -0.30004883 
            0.53704834 -0.6001892 1.0740967 -0.90026855 1.6130981 c -9.161255 -4.71344 -18.321564 
            -9.425781 -27.48175 -14.138245 C 339.1407 512.4178 339.40686 511.93918 339.6741 
            511.46063 z M 336.71646 525.6241 c 8.583405 2.0927124 17.165619 4.1845093 25.747894 
            6.2771606 c -0.15475464 0.5701904 -0.3074646 1.1425781 -0.4623413 1.7129517 c -8.538757 
            -2.1815186 -17.077576 -4.362793 -25.617401 -6.5441895 C 336.4959 526.5884 336.60617 
            526.10565 336.71646 525.6241 z M 319.26135 575.8275 c 36.67386 27.93695 78.421936 
            41.529297 125.42349 40.683838 C 396.98657 619.1613 354.8514 606.3753 319.26135 575.8275 
            z" stroke-miterlimit="10" stroke="#000000"/>
        <path fill="#FFFFFF" d="M 407.6812 523.7228 c -4.340393 0.96221924 -8.680847 1.9254761 
            -13.020172 2.8876953 c 0.17068481 0.6317749 0.34136963 1.2625122 0.51208496 1.894165 C 
            400.07672 530.2771 405.33447 528.8553 407.6812 523.7228 z" stroke-miterlimit="10"
            stroke="#000000"/>
        <path fill="#FFFFFF" d="M 403.75223 484.1674 c 9.767944 -2.345642 16.076569 -8.855652 
            19.930267 -17.38977 c 7.161255 -15.8602295 -2.5917358 -29.449432 -21.13913 -29.216644 c 
            -7.4667053 -0.20559692 -14.09137 2.6730652 -19.7818 7.5567627 c -7.84848 6.7356873 
            -9.813446 16.96762 -5.1283264 25.640808 C 383.39996 481.43384 393.19217 486.7034 
            403.75223 484.1674 z M 396.72775 474.26688 c 0.6002197 -2.2801514 3.6045532 -5.1214905 
            5.9820557 -5.571869 c 3.249237 -0.6156311 5.90567 1.7290344 5.813385 5.5255737 c 
            -0.0826416 3.5345764 -2.058258 5.5880127 -5.4687195 5.618225 c -0.053009033 0.08566284 
            -0.105041504 0.16122437 -0.15805054 0.24880981 c -0.06359863 -0.08355713 -0.12509155 
            -0.15612793 -0.1887207 -0.23770142 c -0.042388916 -0.0010375977 -0.07852173 0.0059814453 
            -0.12194824 0.0039978027 C 399.16895 479.69876 395.80307 477.78235 396.72775 474.26688 
            z" stroke-miterlimit="10" stroke="#000000"/>
        <path fill="#FFFFFF" d="M 514.7238 555.0604 c -0.78045654 0.99749756 -1.5418701 2.2680054 
            -1.6234741 3.4569702 c -0.5557251 7.984009 -0.92578125 15.980164 -1.3628235 24.097168 c 
            17.041656 -11.241577 23.21988 -28.883179 15.301544 -42.944946 C 522.988 544.70953 
            518.8023 549.84717 514.7238 555.0604 z" stroke-miterlimit="10" stroke="#000000"/>
    </g>
</svg>