<?xml version="1.0" standalone="no"?>
<!--Created with Sketsa SVG Editor (http://www.kiyut.com)-->
<svg contentScriptType="text/ecmascript" width="850.0px" xmlns:xlink="http://www.w3.org/1999/xlink"
    baseProfile="full" zoomAndPan="magnify" contentStyleType="text/css" height="700.0px"
    preserveAspectRatio="xMidYMid meet" xmlns="http://www.w3.org/2000/svg" version="1.0">
    <g id="Black">
        <rect x="0.0" width="849.00006" y="1.0" height="699.0" stroke-miterlimit="10" stroke="#FFFFFF"/>
    </g>
    <g id="Color">
        <path fill="#FFFFFF" d="M 214.56673 506.00018 c 16.22255 -39.540314 51.962418 -69.50461 
            110.38527 -87.759766 c 1.3886414 -0.43338013 3.1670837 -1.5295105 3.2156372 -2.3547668 c 
            0.6117859 -10.22287 0.9364319 -20.45279 1.3512268 -31.103699 c -0.7796631 0.0 -1.9532776 
            -0.12713623 -3.038086 0.01852417 c -37.91095 5.0801086 -69.36417 17.285248 -95.020065 
            35.521027 c -31.084229 22.093506 -48.749527 48.248657 -55.497147 77.40274 c -5.9152374 
            25.553223 -2.4623718 50.243286 16.827408 73.657166 c 6.346695 7.7039185 17.35318 8.40741 
            28.495605 11.512268 c -0.7421875 -1.638916 -1.0473785 -2.335205 -1.3733826 -3.0290527 C 
            208.44754 555.525 204.38843 530.8094 214.56673 506.00018 z" stroke-miterlimit="10"
            stroke="#000000"/>
        <path fill="#FFFFFF" d="M 578.64764 555.05817 c 2.492859 4.4605103 4.4919434 8.175293 
            6.6879883 11.842407 c 0.4272461 0.71484375 1.5717163 1.7439575 2.4664917 1.7792358 c 
            6.98761 0.27526855 14.080627 0.6222534 20.16095 -2.0440674 c -1.6147461 -4.1621704 
            -3.0810547 -7.9414062 -4.4905396 -11.57666 C 595.14624 555.05817 587.1945 555.05817 
            578.64764 555.05817 z" stroke-miterlimit="10" stroke="#000000"/>
        <path fill="#FFFFFF" d="M 725.16534 520.8998 c 6.5145264 1.954895 12.822388 3.848877 
            19.758667 5.930969 c -2.223755 -4.935425 -4.2477417 -9.432129 -6.46875 -14.358704 C 
            733.4986 515.61584 729.3119 518.2715 725.16534 520.8998 z" stroke-miterlimit="10"
            stroke="#000000"/>
        <path fill="#FFFFFF" d="M 573.6937 556.1234 c -1.3012085 -0.6654053 -3.3432617 -1.0317383 
            -5.055176 -1.0440674 c -21.695251 -0.15710449 -42.60956 -3.168457 -63.321228 -6.9070435 
            c -7.665985 -1.3838501 -15.244568 -2.9681396 -23.615265 -4.6087646 c -1.0015869 3.696167 
            -2.1307983 6.83197 -2.6621094 10.009277 c -2.495697 14.899597 10.767853 25.967957 
            34.14865 28.420654 c 2.2861938 0.2401123 4.831848 -0.51708984 8.832642 -1.003479 c 
            -14.302612 -6.651123 -18.367249 -10.749817 -16.31134 -15.386841 c 8.660645 10.020813 
            15.229248 12.588135 26.93219 10.530823 c 10.146362 -1.7835693 12.4991455 -5.7807617 
            12.187012 -19.40155 c 2.1377563 3.0819092 4.571045 6.3430786 4.425354 9.555664 c 
            -0.15539551 3.4526367 -2.7315063 6.8602905 -4.2491455 10.288147 c 18.915161 2.423584 
            26.966858 -4.098694 20.506348 -16.606567 c 0.5216675 -0.21533203 1.0446777 -0.4307251 
            1.5662231 -0.64611816 c 1.3831177 2.0414429 3.2392578 4.010437 4.053589 6.1410522 c 
            1.7784424 4.656494 -0.13043213 8.876953 -6.524292 12.794678 c 8.096069 0.20037842 
            13.201172 -1.1464844 15.730103 -5.2407227 C 582.70953 569.1828 578.6046 558.63696 
            573.6937 556.1234 z" stroke-miterlimit="10" stroke="#000000"/>
        <path fill="#FFFFFF" d="M 340.15213 456.4427 c -4.2338867 -11.776184 -8.58432 -23.877197 
            -13.1206665 -36.49362 c -3.0810852 0.8720093 -6.915436 1.7607422 -10.458527 2.9910278 c 
            -31.904053 11.0798645 -55.7482 27.647552 -74.48863 46.919464 c -34.42195 35.398376 
            -36.377975 73.10553 -15.89238 111.871826 c 0.6006775 1.1367798 1.937973 2.6715088 
            3.4445496 2.9680786 c 10.029846 1.9707642 20.19844 3.6564941 30.21164 5.414673 C 
            239.92297 533.43506 264.49127 488.64966 340.15213 456.4427 z" stroke-miterlimit="10"
            stroke="#000000"/>
        <path fill="#FFFFFF" d="M 280.38086 575.60626 c 2.2973022 1.8578491 4.593231 3.7156372 
            6.890503 5.5734253 c 0.6103821 -0.1729126 1.2207947 -0.34680176 1.8311768 -0.5197754 c 
            -2.1724548 -18.960388 2.9770508 -36.950745 17.595947 -53.50702 c 14.566193 -16.49707 
            36.262848 -28.601654 60.783936 -38.185547 c -8.648102 -10.012817 -16.935608 -19.606415 
            -25.675293 -29.726044 c -1.8630676 0.6002197 -3.7913208 1.0890808 -5.5018616 1.791687 c 
            -23.930145 9.823883 -43.32257 22.70691 -56.788666 38.448486 c -22.84668 26.712921 
            -29.01027 55.07718 -15.886841 84.80673 c 2.2071533 4.999756 5.851471 7.3880005 13.896149 
            7.6245728 c 7.108307 0.20739746 14.180511 0.91778564 22.34314 1.4810181 c -8.008636 
            -6.225769 -14.724335 -11.447144 -21.441437 -16.66748 C 279.07825 576.3529 279.73026 
            575.9796 280.38086 575.60626 z" stroke-miterlimit="10" stroke="#000000"/>
        <path fill="#FFFFFF" d="M 358.66367 587.06476 c 0.45361328 -12.9279785 8.999115 -23.832214 
            27.320587 -30.82483 c 7.4315186 -2.8357544 14.692413 -5.852356 22.029633 -8.786926 c 
            -0.3385315 -0.42193604 -0.67559814 -0.84375 -1.0141296 -1.265625 c -15.309723 -1.2003174 
            -28.5289 3.0704956 -42.0213 6.7420044 c 10.619415 -5.9415283 23.135254 -9.884888 
            36.98001 -9.325317 c 17.762451 0.7183838 29.228088 -6.694275 44.39911 -10.825684 c 
            -7.036133 -2.9715576 -13.760132 -4.951233 -18.696014 -8.075562 c -10.301758 -6.5230713 
            -20.079132 -5.2592773 -32.031708 -1.7492676 c -51.199432 15.031189 -71.18005 43.38568 
            -64.8819 77.54663 c 0.23165894 1.260376 1.7146301 2.8842773 3.3807068 3.5038452 c 
            9.688599 3.6018066 19.607452 6.954712 30.83316 10.874207 c -0.6367798 -1.6591797 
            -0.8989563 -2.161438 -1.0168762 -2.67688 C 362.03607 603.82135 358.37094 595.4148 
            358.66367 587.06476 z" stroke-miterlimit="10" stroke="#000000"/>
        <path fill="#FFFFFF" d="M 343.14587 548.14667 c 16.02835 -15.729309 40.1055 -24.49408 
            67.03909 -30.906921 c -14.627228 -8.353546 -28.651001 -16.362976 -42.674774 -24.37143 c 
            0.9211426 -0.64694214 1.8409424 -1.2955933 2.76062 -1.9434204 c -0.8351135 0.21185303 
            -1.7145691 0.3715515 -2.4970398 0.6442566 c -51.90689 18.18457 -80.19858 52.91571 
            -73.614655 90.6344 c 0.32183838 1.8463135 1.8672485 4.0668335 4.0174866 5.2407227 c 
            8.184814 4.4675903 16.852356 8.577698 27.043152 13.672791 C 323.974 581.42865 327.12997 
            563.8663 343.14587 548.14667 z" stroke-miterlimit="10" stroke="#000000"/>
        <path fill="#FFFFFF" d="M 457.5597 536.46136 c -5.5767517 -1.5656738 -12.235626 0.18707275 
            -13.183075 3.6432495 c -7.505066 27.397888 4.9802246 48.06781 48.77588 58.068237 c 
            1.5925293 0.36358643 4.407257 0.2991333 5.4269104 -0.34777832 c 5.6544495 -3.5849 
            10.930206 -7.4110107 17.440552 -11.920044 c -16.361267 -2.8481445 -30.126953 -5.9768066 
            -37.32547 -15.367371 c -7.084717 -9.240601 -2.9797974 -18.629456 -0.81015015 -27.929993 
            C 470.82184 540.45856 464.26984 538.3465 457.5597 536.46136 z" stroke-miterlimit="10"
            stroke="#000000"/>
        <path fill="#FFFFFF" d="M 736.14825 553.4986 c 3.8829346 10.364136 1.9462891 20.115723 
            -5.7598877 29.507202 c -7.4855957 9.121399 -18.415833 16.052307 -33.590942 21.45459 c 
            24.246399 -1.0405884 52.360474 -17.240295 55.43878 -31.168213 c 0.21783447 -0.9937744 
            0.2927246 -2.0882568 -0.12762451 -3.0352173 C 749.26196 563.8362 744.4481 558.126 
            736.14825 553.4986 z" stroke-miterlimit="10" stroke="#000000"/>
        <path fill="#FFFFFF" d="M 722.8222 523.1875 c -1.0723267 -0.00793457 -2.3222656 0.22857666 
            -3.2017212 0.61517334 c -4.3060303 1.8939819 -8.516418 3.8779297 -11.747314 5.3634033 c 
            15.731506 11.835327 31.19519 23.470276 46.749084 35.17328 c 1.9976196 -9.275085 
            -0.3897705 -18.482971 -4.2615967 -27.580505 C 747.87054 530.9082 732.21265 523.258 
            722.8222 523.1875 z" stroke-miterlimit="10" stroke="#000000"/>
        <path fill="#FFFFFF" d="M 727.3614 580.1356 c 7.993408 -11.324341 9.338989 -22.879822 
            -2.5567627 -33.49286 c -5.562866 -4.961914 -13.030457 -9.078186 -19.891846 -13.411621 c 
            -1.013977 -0.6397705 -3.6886597 -0.7237549 -5.161865 -0.3583374 c -0.80181885 0.20037842 
            -1.3914795 2.0616455 -0.88653564 2.8728027 c 4.8831787 7.8275757 3.3182983 15.611023 
            -0.33569336 23.315063 c -10.380798 21.885132 -42.548523 32.272156 -74.04059 23.758911 c 
            0.17895508 12.428406 12.035828 20.534851 32.50757 22.625671 C 684.32733 608.23505 
            715.259 597.28235 727.3614 580.1356 z" stroke-miterlimit="10" stroke="#000000"/>
        <path fill="#FFFFFF" d="M 602.9676 590.2111 c -26.79065 5.4366455 -54.107056 5.1259766 
            -81.61224 2.9230957 c -2.9173584 -0.23388672 -7.0999146 -0.2682495 -8.827026 0.8128662 c 
            -6.004059 3.7597656 -11.184082 8.050842 -17.597351 12.821228 c 45.4964 6.194763 87.43451 
            0.84191895 128.35437 -10.635071 c -1.442749 -3.6600952 -2.6468506 -6.7146606 -3.9161987 
            -9.933411 C 613.67303 587.60486 608.4195 589.1062 602.9676 590.2111 z"
            stroke-miterlimit="10" stroke="#000000"/>
        <path fill="#FFFFFF" d="M 626.2527 579.94324 c 7.6950684 3.9882812 16.66095 4.74292 
            26.140015 3.5426025 c 32.489563 -4.114502 45.601868 -23.839233 45.483948 -37.28174 c 
            -0.030517578 -3.6229858 -1.7021484 -7.2406006 -2.6149902 -10.840637 c -15.114136 
            4.0907593 -28.397095 8.207886 -42.247437 11.289917 c -14.030701 3.121643 -28.624573 
            5.220398 -42.89807 7.755188 c 1.6216431 12.679871 12.488037 19.190674 25.073242 
            14.737183 c -6.883545 -3.4543457 -11.841614 -7.4886475 -10.146423 -13.480469 c 3.9620361 
            5.448181 6.5880737 11.78418 18.909729 11.342041 c 6.0386963 -0.21710205 11.765259 
            -1.1765747 14.075073 -5.5549927 c -6.7490234 -1.2037964 -13.460571 -2.0899048 -15.846619 
            -7.010254 c 6.8183594 3.5646973 14.265137 4.9124146 22.572021 2.9230957 c 9.322327 
            -2.2311401 10.637451 -7.227417 9.326477 -13.649902 c 4.2297974 3.9486694 7.5300903 
            7.029724 11.795837 11.011902 c -2.9783936 5.204529 -16.00055 2.260315 -21.161133 
            7.498352 c 2.7675781 1.3485107 5.3519897 2.6097412 7.939209 3.8701172 c -0.03186035 
            0.43243408 -0.066589355 0.8648071 -0.09851074 1.2973022 c -8.0737915 0.9911499 
            -16.148987 1.9822998 -24.815186 3.0458374 c 1.6091919 2.0890503 2.4970703 3.2416382 
            4.0077515 5.204529 c -4.772156 -0.17736816 -8.402588 -0.31420898 -12.031616 -0.44659424 
            c -3.742859 -0.1359253 -7.5092163 -0.47039795 -11.220093 -0.3071289 c -1.6619873 
            0.07324219 -4.2561035 1.0043335 -4.541931 1.8154297 C 623.6169 577.6486 624.89453 
            579.2398 626.2527 579.94324 z" stroke-miterlimit="10" stroke="#000000"/>
        <path fill="#FFFFFF" d="M 440.95844 538.4551 c -13.319061 5.362549 -24.970612 9.96167 
            -36.400208 14.772583 c -1.4163818 0.59661865 -2.194641 2.2947388 -2.3513794 3.529419 c 
            -0.80041504 6.270691 -2.1488647 12.5802 -1.7451477 18.835876 c 1.3151245 20.336365 
            17.287933 34.814087 45.569946 43.894043 c 2.2944946 0.7369995 6.3799744 0.9532471 
            8.304077 0.14038086 c 12.746094 -5.383728 25.130127 -11.114319 39.429962 -17.538513 C 
            446.83203 590.2041 432.9775 568.5429 440.95844 538.4551 z" stroke-miterlimit="10"
            stroke="#000000"/>
        <path fill="#FFFFFF" d="M 396.0252 556.74835 c -6.725403 4.1082764 -13.450836 8.21759 
            -19.610199 11.980957 c 2.2445374 -2.5101318 4.985779 -5.574463 7.726959 -8.638733 c 
            -0.4550171 -0.20648193 -0.9086304 -0.4138794 -1.3622742 -0.61950684 c -4.0438538 
            3.2928467 -8.8909 6.3077393 -11.991394 9.928894 c -12.919525 15.086731 -9.07962 
            30.336792 0.16921997 45.461548 c 0.53271484 0.8710327 2.5969543 1.637146 4.1853333 
            1.9292603 c 10.849731 1.9866943 21.624542 4.319336 32.694855 5.584961 c 10.6763 
            1.2215576 21.673065 1.2647095 34.614777 -0.74224854 C 400.6517 606.95795 393.31177 
            583.7507 396.0252 556.74835 z" stroke-miterlimit="10" stroke="#000000"/>
        <path fill="#FFFFFF" d="M 546.8004 586.6138 c -1.3775635 0.68481445 -3.803833 0.5171509 
            -5.751526 0.73876953 c -0.3260498 -1.1765137 -0.72003174 -2.3468628 -0.96276855 
            -3.5303955 c -0.324646 -1.5718384 -0.53411865 -3.1542969 -0.7907715 -4.7332153 c 
            -4.301819 3.1472778 -7.7977295 5.706726 -11.296387 8.26532 c -0.572937 -0.27539062 
            -1.1472778 -0.5507202 -1.7216187 -0.82696533 c -0.3121338 -1.4368286 -0.62420654 
            -2.8736572 -1.145813 -5.276062 c -3.1102905 3.3105469 -5.3687134 5.7128906 -8.055847 
            8.57074 c 22.377869 2.2576294 43.74713 2.7174072 64.99567 0.67071533 c 10.606995 
            -1.0220337 20.914307 -3.4005737 31.243774 -5.4031982 c 2.1655273 -0.4199829 5.267395 
            -1.7924194 5.4450073 -2.8886108 c 0.46331787 -2.8657227 0.96551514 -6.3686523 -1.166687 
            -8.607788 c -2.9354248 -3.0845947 -7.8102417 -5.4630737 -14.907471 -3.0166016 c 
            -3.2156372 1.109375 -7.710388 0.6090088 -11.433777 1.270935 c -2.4207153 0.42980957 
            -5.5004272 1.2991333 -6.5603027 2.5576782 c -5.4227905 6.4348145 -15.881287 8.466553 
            -24.657043 11.964172 c -0.42590332 0.16864014 -1.2749023 -0.093566895 -2.6843262 
            -0.2267456 c 0.33148193 -1.9716797 0.6048584 -3.590332 1.076477 -6.403076 C 553.68396 
            582.598 550.4683 584.7895 546.8004 586.6138 z" stroke-miterlimit="10" stroke="#000000"/>
        <path fill="#FFFFFF" d="M 202.24652 233.42987 c 18.51152 11.34552 40.3275 19.72467 66.22894 
            22.459778 c 6.5090027 0.6866455 14.373352 0.6760559 20.04303 -1.0749817 c 6.667145 
            -2.0581665 11.621033 -6.360718 17.350403 -9.708313 c -113.73546 -34.766434 -110.93042 
            -130.82335 -19.248138 -167.26578 c -3.9051514 0.30890656 -6.791992 0.39714813 -9.581787 
            0.7775574 c -29.698349 4.0501175 -56.9579 11.823868 -82.21428 22.404182 c -7.6049194 
            3.1852188 -16.441727 6.401329 -21.005814 11.070152 c -12.568527 12.855591 -19.768387 
            27.27333 -20.860138 42.46953 C 150.74052 185.4557 167.28352 212.00005 202.24652 
            233.42987 z" stroke-miterlimit="10" stroke="#000000"/>
        <path fill="#FFFFFF" d="M 382.66455 98.348976 c -65.31473 11.831825 -107.45401 51.960808 
            -96.31018 91.3272 c 5.8833313 20.782898 22.384735 37.304718 53.602142 46.25406 c 
            6.5589294 1.8798523 14.867218 1.2858734 22.369476 1.8357239 c 35.227966 2.5815125 
            64.65857 13.322479 91.96808 26.810913 c 5.350647 2.6433105 9.211365 2.5682678 13.891937 
            -0.08477783 c 34.428925 -19.514633 54.46646 -43.41565 55.340424 -74.31639 c -0.26220703 
            -2.4076385 -0.33850098 -5.9512024 -1.0751343 -9.438278 c -7.7214355 -36.562454 -37.60019 
            -64.06086 -85.466034 -84.10858 c -2.1682434 -0.9081726 -5.1147766 -1.4280167 -7.7311707 
            -1.4844818 C 413.50604 94.80632 398.02008 95.56622 382.66455 98.348976 z"
            stroke-miterlimit="10" stroke="#000000"/>
        <path fill="#FFFFFF" d="M 597.80975 335.11765 c -0.30792236 -0.43777466 -0.6131592 
            -0.87557983 -0.91973877 -1.313324 c -7.8463135 2.3459473 -15.692627 4.6926575 -24.987244 
            7.4718933 C 585.5395 344.5241 590.277 337.88095 597.80975 335.11765 z"
            stroke-miterlimit="10" stroke="#000000"/>
        <path fill="#FFFFFF" d="M 226.38751 177.62724 c 8.703644 26.063354 32.754486 45.8145 
            67.97412 60.34082 c 13.492432 5.565506 25.643372 4.245163 38.2175 -0.115615845 c 
            -5.7016296 -2.698059 -11.877686 -5.092453 -17.067444 -8.161179 c -29.49997 -17.447647 
            -41.29718 -38.889816 -33.88507 -64.16412 c 7.1471252 -24.370575 26.242706 -43.92581 
            59.36618 -57.609253 c 25.332672 -10.464722 52.77954 -15.925209 83.21866 -14.786682 c 
            0.19839478 -0.3600998 0.39538574 -0.7210617 0.5951233 -1.0820465 c -2.7980957 
            -0.86403656 -5.546234 -1.7995682 -8.399841 -2.5815277 c -36.720642 -10.064011 -75.23221 
            -13.796425 -114.97983 -13.018875 c -2.4526672 0.04853058 -5.2230225 0.4254074 -7.248413 
            1.2462006 c -8.337402 3.377617 -17.56128 6.2706833 -24.450378 10.62796 C 230.52432 
            113.11449 214.85251 143.0841 226.38751 177.62724 z" stroke-miterlimit="10" stroke="#000000"/>
        <path fill="#FFFFFF" d="M 166.09605 303.00067 c -27.833878 -7.126831 -50.059097 -19.03012 
            -65.815544 -35.575714 c -0.5867996 0.15618896 -1.1736145 0.31240845 -1.7618027 0.4677124 
            c 0.0 12.013611 -0.11514282 24.028137 0.15536499 36.039124 c 0.030517578 1.3821106 
            1.8644638 2.9309998 3.4320679 4.091614 c 19.11776 14.147705 43.178314 23.177338 
            71.494965 27.779938 c 10.050659 1.6345215 19.754501 2.2320251 29.393143 -1.3053284 c 
            4.525223 -1.6601257 9.841171 -3.2161255 14.90744 -3.371399 c 18.171661 -0.5569153 
            24.571075 -8.487762 29.487518 -17.716827 c 1.5453796 -2.901062 3.4903107 -5.7156067 
            5.7792816 -9.422424 C 222.62807 312.87317 193.96321 310.13544 166.09605 303.00067 z"
            stroke-miterlimit="10" stroke="#000000"/>
        <path fill="#FFFFFF" d="M 170.53525 534.0652 c -4.917816 -28.652008 3.101883 -56.078033 
            22.732925 -81.790985 c 27.660477 -36.229706 70.23393 -61.4917 134.24605 -69.83115 c 
            2.3417053 -0.3053894 5.5226746 -2.422699 5.791809 -3.8833008 c 0.67559814 -3.6750793 
            2.0878296 -8.450684 -0.7588196 -10.978394 c -5.148102 -4.5734863 -2.1253052 -8.545074 
            -1.2541199 -13.363068 c -3.0213928 0.23828125 -5.765381 0.23654175 -8.308228 0.68927 c 
            -13.330139 2.3794556 -26.817017 4.4976196 -39.864166 7.4039307 c -30.885849 6.8788147 
            -59.24968 16.79895 -81.990906 31.94397 c -44.8916 29.896362 -68.71216 65.407715 
            -67.041885 107.17023 c 0.8198395 20.507599 8.592651 39.813934 26.755981 57.069183 c 
            6.6768494 6.343933 14.989288 11.553772 27.334488 14.949036 c -0.87953186 -1.3670654 
            -1.2124939 -2.0343018 -1.7146759 -2.644165 C 176.97905 559.2866 172.72713 546.83514 
            170.53525 534.0652 z" stroke-miterlimit="10" stroke="#000000"/>
        <path fill="#FFFFFF" d="M 680.3265 372.12045 c -0.49108887 -5.2751465 -0.9517212 -10.189331 
            -1.4108276 -15.103485 c -0.68395996 0.03265381 -1.3665161 0.06530762 -2.0517578 
            0.097076416 c -1.7077026 4.920349 -3.4154663 9.840729 -5.2077637 15.006409 C 674.346 
            372.12045 676.7071 372.12045 680.3265 372.12045 z" stroke-miterlimit="10" stroke="#000000"/>
        <path fill="#FFFFFF" d="M 665.47034 367.49844 c -10.318359 1.6503906 -19.81134 3.169342 
            -29.96466 4.793274 c 10.665222 0.0 20.21643 0.05822754 29.76355 -0.07589722 c 1.1749878 
            -0.016784668 3.072754 -0.94525146 3.3446655 -1.6531067 c 1.9061279 -4.9547424 3.6679688 
            -9.943085 4.9385986 -14.975525 c 0.19012451 -0.7484131 -2.7578125 -2.6874695 -3.7053223 
            -2.5497437 c -12.704468 1.847229 -23.5542 6.150635 -34.331787 10.524658 C 646.0613 
            363.29028 656.1868 362.93814 665.47034 367.49844 z" stroke-miterlimit="10" stroke="#000000"/>
        <path fill="#FFFFFF" d="M 605.68384 373.12396 c 2.2112427 -1.3176575 4.6903076 -2.0802002 
            5.178589 -3.1966858 c 4.769409 -10.868042 6.9570923 -21.826996 2.1530151 -32.995117 c 
            -1.4885254 -3.4605408 -4.472473 -3.859497 -8.569031 -2.1366882 c -5.689148 2.3935547 
            -11.127197 5.0289 -17.787415 8.070282 C 605.33563 350.3579 599.5785 362.79077 605.68384 
            373.12396 z" stroke-miterlimit="10" stroke="#000000"/>
        <path fill="#FFFFFF" d="M 105.39947 391.51593 c -5.776535 -3.3422852 -11.504509 -6.658142 
            -18.24379 -10.558228 c -3.810791 15.760162 -7.5175323 31.090515 -11.2256775 46.419098 c 
            0.4453125 0.04849243 0.89201355 0.09527588 1.337326 0.14297485 C 86.71315 415.42935 
            96.158966 403.3398 105.39947 391.51593 z" stroke-miterlimit="10" stroke="#000000"/>
        <path fill="#FFFFFF" d="M 126.47187 557.28314 c -29.640083 -23.452698 -40.80333 -51.027954 
            -36.741447 -80.114105 c 5.207756 -37.304688 29.556854 -70.138306 70.03418 -97.60138 c 
            29.939743 -20.31253 64.99983 -35.612823 108.73027 -41.436066 c 7.8088684 -1.0396729 
            15.771698 -1.6133728 25.137054 -2.5497742 c -2.3555603 -0.59484863 -3.33078 -0.94610596 
            -4.37677 -1.0891113 c -26.504913 -3.637085 -52.707382 -3.5735168 -78.421524 2.5965576 c 
            -34.965775 8.3888855 -60.80757 24.050201 -83.37681 42.311554 C 104.26609 398.16797 
            87.467804 419.2103 73.79503 441.29938 c -14.83392 23.9664 -18.539276 48.463165 
            -5.8583755 73.28296 c 9.250214 18.10431 23.90934 34.094788 49.312744 45.072266 c 
            5.816765 2.5144653 12.768303 3.965454 19.198235 5.9052734 c 0.36624146 -0.41827393 
            0.73109436 -0.8348999 1.0973053 -1.2531738 C 133.83403 561.9767 129.71805 559.8514 
            126.47187 557.28314 z" stroke-miterlimit="10" stroke="#000000"/>
        <path fill="#FFFFFF" d="M 133.07104 471.6168 c 9.470795 -32.821228 33.88649 -60.428192 
            72.11229 -82.9595 c 33.500824 -19.74585 74.4373 -30.088745 118.57558 -35.96759 c 
            5.764099 -0.76782227 11.252075 -2.37146 16.867676 -3.5877075 c -0.1289978 -0.7518921 
            -0.25802612 -1.5029907 -0.38705444 -2.2558289 c -14.062561 -3.9795532 -27.07367 
            -9.895447 -43.745697 -9.10199 c -20.414825 0.9725952 -40.273407 3.6282654 -59.0166 
            8.919312 c -46.101242 13.014435 -80.87834 34.186554 -106.686844 61.409637 c -17.8068 
            18.781158 -30.045158 39.114838 -35.71071 60.759125 c -5.8514404 22.353851 0.6561737 
            43.903656 14.170807 64.6514 c 8.090469 12.419617 19.402145 23.439392 37.46144 30.936829 
            c 3.4653625 1.4395752 8.394272 1.4509888 13.0429535 2.1835327 c -6.446579 -7.925537 
            -13.097061 -14.549255 -17.450272 -21.737854 C 127.91462 521.1019 125.86286 496.59894 
            133.07104 471.6168 z" stroke-miterlimit="10" stroke="#000000"/>
        <path fill="#FFFFFF" d="M 101.45828 263.7534 c 18.91938 20.256012 45.96254 33.821198 
            82.049194 39.59857 c 21.925552 3.5108337 43.87195 3.9971619 65.170456 -1.9266663 c 
            2.8189087 -0.78463745 6.3786163 -1.9372559 7.481491 -3.5162354 c 4.0729675 -5.840851 
            7.259491 -11.931519 10.909363 -18.150116 c -1.2554626 -0.044158936 -1.9518738 -0.1880188 
            -2.5151062 -0.070617676 c -17.792938 3.693573 -35.574753 2.9230957 -53.115204 
            -0.46780396 c -38.99156 -7.5407104 -67.55379 -23.829498 -88.9175 -45.177277 c -9.651123 
            -9.643021 -16.02002 -20.614304 -24.01616 -31.167267 c 0.0 18.704437 -0.065193176 
            37.587112 0.12625122 56.46808 C 98.64493 260.82236 100.18755 262.39163 101.45828 
            263.7534 z" stroke-miterlimit="10" stroke="#000000"/>
        <path fill="#FFFFFF" d="M 182.37547 267.9403 c 24.319962 9.232666 50.5363 13.556427 78.92232 
            8.900818 c 3.4209595 -0.56134033 7.8227234 -1.3530273 9.526276 -2.9857788 c 4.2769165 
            -4.1004333 7.2705994 -8.742767 10.772034 -13.161835 c -53.097183 -5.4834595 -91.51167 
            -23.050232 -115.11302 -53.410843 c -23.262894 -29.923752 -22.529022 -60.212875 
            -2.6718445 -91.18243 c -3.2655945 1.1676407 -4.845688 3.025444 -7.066681 4.4878693 c 
            -29.101837 19.177513 -46.303795 42.201256 -54.387337 68.13488 c -0.81986237 2.629181 
            -0.7324753 5.587555 0.24415588 8.194687 C 114.03374 227.45305 139.66052 251.72478 
            182.37547 267.9403 z" stroke-miterlimit="10" stroke="#000000"/>
        <path fill="#FFFFFF" d="M 107.81607 389.61047 c 10.597237 -8.978455 19.600525 -16.608307 
            28.854889 -24.449982 c -17.028542 -3.1949463 -29.677536 -10.122284 -42.775986 -18.21814 
            c -1.814537 10.057831 -3.4972763 19.17746 -5.0412903 28.307709 c -0.13455963 0.79522705 
            0.26218414 1.8852234 1.0778961 2.4456177 C 95.59713 381.59583 101.44025 385.39175 
            107.81607 389.61047 z" stroke-miterlimit="10" stroke="#000000"/>
        <path fill="#FFFFFF" d="M 136.12717 361.49957 c 2.2723236 0.4668579 5.9332733 0.48275757 
            7.5314026 -0.3697815 c 12.812683 -6.8364563 25.284103 -13.931488 37.919235 -20.981506 c 
            -32.06778 -3.63266 -59.384224 -13.8272705 -82.909294 -30.281158 c -1.4788208 11.32605 
            -2.8549728 21.369781 -4.0022354 31.424103 c -0.11514282 1.0149536 0.7338562 2.3476562 
            1.8506012 3.1049194 C 107.70093 351.97302 120.35686 358.25873 136.12717 361.49957 z"
            stroke-miterlimit="10" stroke="#000000"/>
        <path fill="#FFFFFF" d="M 602.2074 392.35883 c 12.106567 0.16149902 22.499878 0.84375 30.625 
            6.1568604 c 7.7839355 5.0906677 9.88147 11.449646 9.973022 19.244537 c 6.557556 
            -8.578613 4.3171387 -18.645264 -4.232544 -23.92572 C 631.5964 389.524 613.5274 388.5302 
            602.2074 392.35883 z" stroke-miterlimit="10" stroke="#000000"/>
        <path fill="#FFFFFF" d="M 385.22403 469.68924 c 8.212585 -6.9573364 14.90744 -12.538788 
            21.388702 -18.2182 c 0.9211426 -0.8066406 1.6147766 -2.3069458 1.0626221 -3.1119385 c 
            -4.2893677 -6.259186 -8.910339 -12.424835 -14.126404 -19.576385 c -7.1943054 5.1436462 
            -14.198578 10.082581 -21.011353 15.126434 c -0.7061157 0.52337646 -0.70751953 1.7660828 
            -0.3010254 2.5136414 C 376.2832 453.85056 380.4824 461.2439 385.22403 469.68924 z"
            stroke-miterlimit="10" stroke="#000000"/>
        <path fill="#FFFFFF" d="M 443.1475 508.7353 c 14.245728 4.427002 27.598053 8.628967 41.0683 
            12.671997 c 1.2124329 0.36364746 4.082672 0.05291748 4.670868 -0.5463257 c 5.6530457 
            -5.758728 10.98291 -11.647278 16.162933 -17.238464 c -15.325012 -5.5196533 -29.293274 
            -10.551147 -43.889984 -15.807739 C 455.56757 494.31223 449.8549 500.94565 443.1475 
            508.7353 z" stroke-miterlimit="10" stroke="#000000"/>
        <path fill="#FFFFFF" d="M 402.38162 380.9065 c -6.39386 3.542694 -11.734802 6.5002136 
            -17.075714 9.458588 C 394.17044 391.46564 402.1694 386.87097 402.38162 380.9065 z"
            stroke-miterlimit="10" stroke="#000000"/>
        <path fill="#FFFFFF" d="M 370.77997 442.1184 c 8.051605 -5.364258 17.62503 -9.542358 
            21.845093 -15.308258 c 2.9354248 -4.0094604 -1.4760132 -10.19989 -2.626068 -15.413269 c 
            -0.061035156 -0.27975464 -0.3121338 -0.54367065 -0.9141846 -1.5498047 c -4.6694946 
            1.6380615 -8.960327 3.0131226 -13.026367 4.62027 c -2.460968 0.9725952 -6.1469116 
            2.1102295 -6.5769653 3.5091248 C 367.05377 425.88257 367.9902 433.79227 370.77997 
            442.1184 z" stroke-miterlimit="10" stroke="#000000"/>
        <path fill="#FFFFFF" d="M 381.9182 394.88828 c -4.9649963 5.9353333 -8.60791 12.316345 
            -12.747467 18.530548 c 0.686676 0.22772217 1.3719482 0.45629883 2.0572815 0.6831665 c 
            5.641968 -1.8737183 11.301971 -3.7280273 16.907867 -5.6459045 c 0.7088928 -0.24267578 
            1.5051575 -0.792511 1.6188965 -1.2629089 c 1.1528625 -4.787964 2.1724548 -9.588318 
            3.4196167 -15.246521 C 388.60757 393.06223 383.25137 393.29343 381.9182 394.88828 z"
            stroke-miterlimit="10" stroke="#000000"/>
        <path fill="#FFFFFF" d="M 603.363 511.14737 c -4.1312256 6.815277 -7.982239 13.698456 
            -11.924866 20.558624 c 0.14569092 0.5357666 0.2927246 1.0714722 0.43981934 1.6063232 c 
            12.784912 -2.173706 25.580933 -4.3219604 38.338135 -6.562805 c 1.2041626 -0.21179199 
            2.857727 -0.8781738 3.126892 -1.529541 c 3.1171265 -7.5336304 6.006836 -15.10437 
            9.164185 -23.19757 c -13.181702 2.4270935 -24.257568 4.391754 -35.22937 6.570709 C 
            605.68243 508.91006 603.99414 510.1077 603.363 511.14737 z" stroke-miterlimit="10"
            stroke="#000000"/>
        <path fill="#FFFFFF" d="M 490.1283 523.574 c 15.379089 2.4959717 30.225525 4.9450684 
            45.128784 7.246887 c 1.1292114 0.17388916 3.362671 -0.4668579 3.8953857 -1.1209106 c 
            5.0218506 -6.1603394 9.787109 -12.408142 14.6258545 -18.627625 c -15.875732 -2.429718 
            -30.569519 -4.678467 -45.48947 -6.9618225 C 502.46237 510.35394 496.72464 516.50275 
            490.1283 523.574 z" stroke-miterlimit="10" stroke="#000000"/>
        <path fill="#FFFFFF" d="M 559.04987 510.72018 c -1.1445312 0.010559082 -2.7315063 0.97436523 
            -3.3252563 1.7430115 c -4.666687 6.0324707 -9.143433 12.123962 -14.697998 19.565918 c 
            15.429077 0.28063965 29.612366 0.5701294 43.79706 0.73339844 c 1.0349121 0.012329102 
            2.6316528 -0.7457886 3.0644531 -1.3900757 c 4.654236 -6.9537964 9.129517 -13.956177 
            13.511841 -20.729004 C 586.5175 510.6425 572.78235 510.5993 559.04987 510.72018 z"
            stroke-miterlimit="10" stroke="#000000"/>
        <path fill="#FFFFFF" d="M 593.802 404.99374 c -19.866943 -0.04675293 -36.537537 9.588287 
            -36.964844 21.363708 c -0.4119873 11.364044 15.259827 20.773956 34.752136 20.867584 c 
            20.961426 0.09881592 38.404785 -9.846069 38.48523 -21.945251 C 630.1522 413.74628 
            614.5872 405.0423 593.802 404.99374 z M 572.73236 435.6518 c -4.5862427 -0.016845703 
            -8.10437 -1.5012512 -8.004456 -4.7085266 c 0.087402344 -2.8675232 2.2140503 -5.104004 
            7.4315186 -5.0942993 c 5.060669 0.00970459 8.397095 1.3309631 8.06134 4.263794 C 
            580.51764 434.1779 577.4449 435.66766 572.73236 435.6518 z" stroke-miterlimit="10"
            stroke="#000000"/>
        <path fill="#FFFFFF" d="M 643.6003 503.0586 c -2.0212402 7.001465 -3.9093018 14.017883 
            -6.109497 22.007019 c 7.2858887 -2.7749023 14.213867 -5.319336 20.971191 -8.035889 c 
            2.2736816 -0.91345215 5.537842 -2.0961304 5.9179688 -3.435791 c 2.0448608 -7.2080994 
            3.3239136 -14.5034485 5.069031 -22.73169 c -9.405579 3.7500916 -16.760803 6.606079 
            -23.942627 9.629761 C 644.4354 500.94293 643.86523 502.14243 643.6003 503.0586 z"
            stroke-miterlimit="10" stroke="#000000"/>
        <path fill="#FFFFFF" d="M 787.42535 463.6366 c -17.11316 -13.629669 -39.89331 -16.010864 
            -63.17285 -18.520905 c 5.929199 -0.4342041 11.85968 -0.86846924 17.788757 -1.3035889 c 
            -1.1915894 -0.8737793 -2.2625732 -0.98583984 -3.3391113 -1.0652771 c -22.440186 
            -1.6512756 -42.495728 -6.858429 -59.21631 -16.626831 c -9.36676 -5.471039 -16.715027 
            -11.884735 -16.799683 -20.471313 c -0.05267334 -5.5010986 4.2699585 -7.792267 12.825195 
            -6.9405823 c 3.1171265 0.31063843 6.364746 0.9840698 9.046326 2.0210876 c 12.234131 
            4.7288513 18.39209 12.033936 21.090393 21.879059 c 4.6001587 -9.918396 -2.0629272 
            -17.058441 -7.9974976 -24.514435 c 2.871521 2.2699585 5.744568 4.539978 9.594238 7.58136 
            c -1.8561401 -10.204407 -11.811096 -15.26062 -23.690186 -19.399933 c 0.5007324 
            -0.46246338 1.0030518 -0.92492676 1.505127 -1.3874207 c 8.888184 2.3609314 17.776306 
            4.720886 26.667236 7.080017 c 0.29962158 -0.34417725 0.5993042 -0.688385 0.897583 
            -1.0334778 c -7.326111 -2.528595 -14.319275 -5.647583 -22.074036 -7.4233093 c -7.898987 
            -1.8084412 -16.54718 -2.2956238 -24.86792 -3.3608704 c 0.07910156 -0.42626953 0.15679932 
            -0.8534546 0.23449707 -1.2797546 c 9.934143 0.789032 19.868286 1.577179 30.11029 
            2.3900452 c -10.885681 -6.834717 -24.596008 -7.0914917 -38.19525 -6.4860535 c -13.276001 
            0.5921936 -26.45221 2.0978699 -39.67273 3.2028198 c -0.3343506 -0.40686035 -0.66864014 
            -0.8136902 -1.0043945 -1.220581 c 9.803772 -3.491455 19.608887 -6.983795 29.332153 
            -10.446167 c -15.793884 0.64956665 -30.131165 4.1604614 -43.401672 11.267853 c 
            -0.8933716 -2.2841187 -1.7105103 -4.362549 -2.5178833 -6.4427795 c -2.4221191 -6.242462 
            -4.163086 -12.636749 -7.4924927 -18.677094 c -2.3306274 -4.226654 -8.078064 -6.807312 
            -15.484558 -7.342163 c 2.1099854 4.6167603 4.086853 8.946686 6.0650635 13.274841 c 
            -0.63812256 0.14916992 -1.27771 0.29919434 -1.9158325 0.44833374 c -4.0632324 -8.466553 
            -8.63147 -16.715088 -22.24878 -21.621338 c 8.1501465 9.376495 8.1501465 9.376495 
            6.5214844 12.641144 c -19.348022 -12.46637 -33.706116 -14.421295 -44.98175 -12.523773 c 
            5.4144897 1.7104492 11.447693 3.6159363 17.480835 5.5214233 c -0.25250244 0.43423462 
            -0.50219727 0.86932373 -0.7546387 1.3053284 c -14.681335 -5.7543945 -30.505798 
            -6.7508545 -47.91028 -5.1877747 c 30.392029 3.0828247 35.183533 4.187805 39.579773 
            9.205231 c -11.3463745 0.80755615 -23.222626 -0.8004761 -33.545197 3.0034485 c 8.158447 
            0.51275635 16.333527 0.46688843 24.027252 1.6707153 c 7.4315186 1.162323 8.478882 
            4.756195 2.9534912 8.260864 c -3.3571777 2.1305847 -7.27063 4.261078 -11.583618 
            5.3669434 c -19.893219 5.1022034 -39.482666 3.7836304 -56.611115 -4.080139 c -11.858215 
            -5.4446106 -21.820099 -12.581116 -32.446472 -19.083923 c -6.982086 -4.2743225 -14.312347 
            -8.086121 -25.22168 -10.2352295 c 5.1966553 3.6221008 12.346558 4.9662476 13.815643 
            10.279358 c -14.679932 -5.192169 -29.010254 -7.4383545 -45.676758 -4.317566 c 17.287994 
            -0.08383179 22.358398 0.73254395 26.108154 4.0051575 c -42.792664 2.9971924 -53.16516 
            5.9458923 -57.272827 16.76892 c 8.564941 -4.6035156 15.413788 -10.447937 28.634308 
            -10.418793 c -23.960602 12.851166 -28.49002 16.986908 -24.79718 22.139374 c 12.378479 
            -12.484894 30.973236 -18.803284 53.179077 -21.56836 c 20.733887 -2.581543 37.672302 
            1.3821411 49.384888 12.547577 c 7.007019 6.676697 12.77243 13.924408 18.368622 21.14386 
            c 5.8028564 7.483368 10.350311 15.360352 16.143494 22.84726 c 5.6600037 7.3121033 
            14.201324 13.040039 26.446594 16.22879 c -0.7588196 -1.1252747 -2.5081177 -1.631897 
            -3.7011719 -2.4606018 c -6.9779053 -4.8532715 -10.960724 -10.460297 -10.165802 
            -17.196136 c 1.9851379 -16.803345 30.694427 -25.759705 54.940826 -20.88794 c 9.719116 
            1.952301 15.669067 6.160431 17.937195 12.311066 c 4.7042236 12.753235 -6.635193 
            26.349335 -25.779297 31.322601 c -1.6439209 0.42718506 -3.2961426 0.8402405 -5.8029175 
            1.478363 c 2.0170898 0.6557617 3.1768188 1.064331 4.375366 1.4182434 c 11.141052 
            3.2867737 20.080566 8.175354 27.38861 14.473389 c 2.326416 2.0043945 5.887512 3.7050781 
            9.448608 4.810028 c 28.061401 8.711914 57.2312 8.7569275 86.46619 3.2399902 c 31.607239 
            -5.9653625 60.56476 -4.5973816 86.20679 9.891846 c 9.719177 5.491455 16.289124 11.79657 
            17.297668 20.31958 c 0.4967041 4.20282 2.4568481 8.334991 3.7539062 12.499054 c 
            0.54797363 0.0335083 1.0945435 0.06707764 1.6425171 0.10058594 c 0.64367676 -4.6608887 
            1.2888184 -9.322693 1.9324951 -13.984375 c 0.38006592 0.006164551 0.76293945 0.012268066 
            1.1430664 0.01852417 c 0.40515137 3.6600342 0.81018066 7.321869 1.3012695 11.769104 c 
            8.437256 -8.682739 5.659973 -16.754791 1.4399414 -25.18518 c 3.0824585 2.0493774 
            6.1622314 4.1004944 10.49176 6.980316 c -5.254822 -9.749786 -16.301575 -14.764648 
            -27.84076 -19.506683 c 0.42443848 -0.3892212 0.84765625 -0.7792969 1.2720947 -1.1685181 
            C 765.3042 456.3491 775.52405 459.71613 787.42535 463.6366 z M 524.553 376.01883 c 
            -6.8793945 1.8260498 -13.50769 4.0368958 -21.448334 6.4348145 c 12.135651 -12.57135 
            36.765045 -19.379578 57.465668 -16.526215 c 14.476013 1.9955139 21.42334 13.533417 
            12.608765 21.778473 c -1.3651123 -1.2859497 -2.8494873 -2.3882751 -3.8288574 -3.65036 C 
            560.12915 372.17343 540.6105 371.7542 524.553 376.01883 z M 632.7756 431.97943 c 
            -8.950562 14.752228 -39.463257 21.434204 -60.78119 13.311829 c -12.687866 -4.8338623 
            -20.259521 -13.594299 -18.236877 -21.101501 c 2.8217163 -10.48056 16.286377 -19.33368 
            32.719788 -21.40509 c 3.1504517 -0.39718628 6.3966675 -0.48806763 7.706238 -0.582489 C 
            623.55444 402.25073 641.8163 417.07712 632.7756 431.97943 z M 641.7594 422.39288 c 
            -4.092407 -24.256683 -14.940735 -27.098602 -48.58722 -28.596344 c 3.8482666 -1.4632874 
            6.2870483 -2.5930176 8.974182 -3.379364 c 16.964722 -4.9644775 37.386475 -1.7836914 
            43.75537 6.9591064 C 652.143 405.94342 649.0328 414.00394 641.7594 422.39288 z"
            stroke-miterlimit="10" stroke="#000000"/>
        <path fill="#FFFFFF" d="M 0.0 1.0 v 699.0 h 849.00006 V 1.0 H 0.0 z M 783.62006 482.8034 c 
            -1.4829102 -1.4217529 -2.7869873 -2.6706848 -4.371216 -4.1913757 c -2.5941772 12.733856 
            -6.3217773 16.456543 -20.532837 20.505798 c 0.0 -2.7120972 0.0 -5.306946 0.0 -8.68103 c 
            -5.4241333 6.734955 -11.55719 12.391357 -14.438477 18.65329 c -1.760498 3.8250732 
            1.0459595 8.643066 2.5566406 12.906738 c 3.5430908 9.998779 9.204468 19.815613 10.967651 
            29.920227 c 2.706604 15.508606 -0.6422119 30.65271 -18.095337 42.93994 c -14.385864 
            10.128479 -32.7558 14.921692 -54.064087 15.505127 c -15.429077 0.4227295 -30.489075 
            -0.48980713 -44.59192 -4.8082886 c -3.9092407 -1.1967773 -8.026672 -2.5232544 -11.000916 
            -4.446472 c -3.3848877 -2.1887817 -5.641968 -2.4005737 -9.91333 -0.84191895 c -23.99121 
            8.7560425 -50.2381 12.737305 -77.629395 12.6623535 c -16.505615 -0.045043945 -32.99173 
            -1.8764038 -49.50836 -2.739563 c -2.66214 -0.13946533 -6.3161926 -0.00970459 -8.029449 
            1.007019 c -31.35614 18.594116 -67.13205 19.270203 -105.300964 10.876953 c -25.37564 
            -5.5788574 -48.046173 -14.214844 -69.41965 -24.42627 c -2.8272095 -1.3493652 -7.2261963 
            -2.3423462 -10.622192 -2.0758057 c -22.387512 1.7589722 -43.698532 -1.2496948 -64.775085 
            -5.378418 c -24.161835 -4.7332153 -47.151413 -11.085144 -67.92001 -20.441345 c 
            -1.6647034 -0.7501221 -4.394821 -0.9690552 -6.520096 -0.8145752 c -35.340317 2.5585327 
            -59.767105 -8.5442505 -78.64209 -25.873596 c -26.736565 -24.548828 -33.911457 -52.006744 
            -22.090652 -80.39911 c 9.395882 -22.567505 11.532249 -45.705994 18.812561 -68.37756 c 
            9.366745 -29.170898 13.324593 -58.77249 14.600861 -88.46411 c 0.7685394 -17.884552 
            -1.1167374 -35.808777 -1.2291107 -53.716248 c -0.10542297 -16.745117 -0.44530487 
            -33.529022 1.1222992 -50.22737 c 2.1571808 -22.984055 15.42765 -43.8181 35.750946 
            -62.665543 c 39.445206 -36.57746 93.53151 -59.091087 163.07184 -64.24799 c 50.084045 
            -3.7147446 99.45093 1.0396881 143.58087 16.964882 c 49.501434 17.863342 83.858154 
            44.42975 93.72986 81.11578 c 10.133972 37.660385 -11.51001 68.33786 -55.7135 93.11969 c 
            -9.067108 5.083618 -14.156952 4.7094116 -23.978699 0.022094727 c -23.336456 -11.135498 
            -48.420746 -20.087448 -77.52951 -23.323837 c -22.853638 -2.5400848 -45.415985 -2.1031952 
            -65.07477 7.051758 c -14.324799 6.671402 -23.561157 15.964035 -30.206085 26.371353 c 
            -10.926025 17.112244 -22.031006 34.177765 -33.084656 51.297943 c 9.100388 0.4015808 
            18.936035 0.47836304 28.601044 1.3335876 c 23.37387 2.067871 45.20923 7.2115173 65.58661 
            14.70108 c 4.49057 1.6503906 8.046082 2.0572815 12.753052 0.66104126 c 4.121521 
            -1.2223511 8.727234 -1.7828064 13.346771 -2.6795044 c -2.7301025 -0.15625 -5.338135 
            -0.3053894 -7.9447937 -0.4545288 c 13.50354 -6.690796 28.225098 -6.3615723 43.94687 
            -3.692688 c -5.628113 -2.0431519 -11.254822 -4.0871887 -16.88153 -6.131256 c 0.094329834 
            -0.44308472 0.19006348 -0.8869934 0.2843933 -1.3300781 c 5.855591 0.45806885 11.992828 
            0.35482788 17.512695 1.480072 c 16.56662 3.37854 27.430206 11.566193 38.5643 19.464386 c 
            14.929626 10.589142 32.975037 16.959564 56.01596 15.909271 c 11.200714 -0.5100708 
            21.046112 -2.8330383 27.158295 -10.385254 c -12.882019 -3.5364685 -25.138458 -2.7068481 
            -37.551605 -0.5613098 c 2.3888855 -5.4772644 8.223663 -7.1206055 33.25528 -9.506256 c 
            0.1665039 -0.39627075 0.33294678 -0.7916565 0.49804688 -1.1888123 c -11.762543 
            -1.8789978 -23.523682 -3.7579956 -34.854767 -5.5681458 c 5.9735107 -4.475525 37.853973 
            -6.1895447 61.56772 -3.3838196 c -4.5043945 -2.2408447 -9.010193 -4.4816895 -13.514648 
            -6.7225647 c 0.25805664 -0.24887085 0.5147095 -0.49865723 0.7727051 -0.7484436 c 
            3.4681396 1.5048218 6.9959717 2.958374 10.386414 4.5311584 c 3.251709 1.5074463 6.359192 
            3.1393433 10.293457 4.2557983 c -1.0598755 -0.9902649 -2.119751 -1.9796143 -3.6956787 
            -3.4517822 c 8.993591 -0.9284363 14.248474 2.9098816 20.577148 5.5796814 c 9.782898 
            -4.9503784 20.746399 -8.057953 33.536926 -7.930847 c 9.133606 0.09088135 12.252197 
            1.4880066 14.396912 7.132965 c 3.0339355 7.9829407 2.892395 16.007263 -0.34545898 
            23.979584 c -0.79071045 1.9496155 -1.7062988 3.8789062 -3.1379395 7.1082764 c 3.942566 
            -1.9354858 6.5283813 -3.0245667 8.782715 -4.3423157 c 11.039795 -6.4542236 23.465393 
            -11.417847 37.960876 -13.99939 c 12.70166 -2.2611694 18.984558 0.09005737 21.358154 
            8.358887 c 1.2207642 4.2496033 0.7796631 8.69339 1.1334229 13.678162 c 8.52179 1.953125 
            17.928772 4.1083984 27.335754 6.2645264 c -0.18725586 0.36270142 -0.37591553 0.72457886 
            -0.5617676 1.0873413 c -4.4087524 -0.9576111 -8.814636 -1.9143066 -13.474426 -2.9257507 
            c 4.0133057 8.664246 21.062683 10.295227 24.34497 19.995605 c -5.9277954 -1.8922119 
            -10.722107 -3.421692 -15.889587 -5.069458 c 6.2800293 5.1612854 12.207825 10.030457 
            18.134094 14.900513 c -0.64086914 0.31332397 -1.2803955 0.62661743 -1.9199219 0.9399109 
            c -4.0230713 -3.3466797 -8.047485 -6.6934204 -12.087158 -10.053406 c -3.196228 9.225586 
            5.840271 18.88623 -5.247986 27.649353 c -3.1435547 -4.813629 -4.819336 -9.6006775 
            -9.003296 -13.207764 c -4.9039307 -4.226654 -11.66272 -7.70401 -18.32428 -10.911285 c 
            -2.1488037 -1.0343933 -7.592407 -1.002594 -9.585815 0.04147339 c -1.795166 0.9399414 
            -1.9408569 4.1233826 -1.0793457 5.993561 c 6.01239 13.055939 20.95581 20.74408 39.94873 
            25.605347 c 15.644104 4.0033264 31.691895 7.1982727 49.611023 8.11084 c -2.1072388 
            1.2064819 -4.2130737 2.4129333 -6.9071655 3.9565735 c 21.843811 2.64859 38.52411 
            8.957306 45.632446 24.141083 c -6.5617676 -2.5152893 -11.782043 -4.5152283 -18.632263 
            -7.1400146 C 785.8439 474.42337 786.8413 477.1849 783.62006 482.8034 z"
            stroke-miterlimit="10" stroke="#000000"/>
        <path fill="#FFFFFF" d="M 441.14706 507.71677 c 6.5298157 -7.794037 12.216187 -14.582794 
            17.787384 -21.236603 c -9.064331 -5.2424316 -17.50299 -10.123932 -27.116669 -15.684204 c 
            -6.285675 6.8426514 -12.260529 13.212189 -17.908081 19.69638 c -0.5757141 0.6602478 
            0.2982788 2.3759766 1.3678284 2.9849243 C 423.479 498.14526 431.89133 502.65875 
            441.14706 507.71677 z" stroke-miterlimit="10" stroke="#000000"/>
        <path fill="#FFFFFF" d="M 409.17917 490.6054 c 7.3468933 -7.221283 13.753235 -13.436371 
            19.959808 -19.730865 c 0.67144775 -0.68222046 0.82543945 -2.11734 0.1484375 -2.7077942 c 
            -6.219055 -5.4366455 -12.6753235 -10.7638855 -19.589417 -16.565948 c -6.851654 5.9009094 
            -13.478577 11.514923 -19.880768 17.231445 c -0.8934021 0.79693604 -1.5273743 2.4535217 
            -0.8461914 3.107544 C 395.4953 478.20337 402.32892 484.3391 409.17917 490.6054 z"
            stroke-miterlimit="10" stroke="#000000"/>
        <path fill="#FFFFFF" d="M 573.451 385.1111 c 2.6412964 -7.2539062 -1.3540039 -14.13092 
            -8.72168 -16.565063 c -13.015259 -4.2981567 -38.82373 -0.37332153 -49.20874 7.959076 c 
            11.066162 -3.5673828 21.689758 -5.718231 33.25531 -4.995392 C 561.3777 372.297 568.3389 
            377.6339 573.451 385.1111 z" stroke-miterlimit="10" stroke="#000000"/>
        <path fill="#FFFFFF" d="M 572.56177 427.96454 c -1.9088745 0.24978638 -3.3197021 2.0414124 
            -4.9469604 3.156952 c 1.6411133 0.94085693 3.382141 2.7042847 4.8997803 2.6301575 c 
            2.3167114 -0.11300659 4.479431 -1.4960022 6.70874 -2.3397217 c -0.056884766 -0.59399414 
            -0.113708496 -1.1879578 -0.16925049 -1.7819214 C 576.86914 429.01215 574.46643 427.7157 
            572.56177 427.96454 z" stroke-miterlimit="10" stroke="#000000"/>
        <path fill="#FFFFFF" d="M 526.8642 413.58035 c -2.0253906 0.27890015 -4.7874146 1.8922424 
            -4.971985 3.0775452 c -0.17340088 1.1217346 2.3250732 2.419159 4.916443 4.6617737 c 
            0.15820312 0.0035095215 0.30108643 -0.008850098 0.45361328 -0.00970459 c 2.3278809 
            -2.490631 4.3324585 -3.8674927 4.5335693 -5.333435 C 531.8999 415.20697 528.27783 
            413.38528 526.8642 413.58035 z" stroke-miterlimit="10" stroke="#000000"/>
        <path fill="#FFFFFF" d="M 697.7989 485.51907 c 0.44250488 -0.6310425 1.0265503 -1.2382812 
            1.3026123 -1.8975525 c 1.0626221 -2.526764 2.1433716 -5.0553284 3.0048218 -7.6112976 c 
            2.1224976 -6.294586 2.00177 -6.384552 -9.809265 -9.515045 c 1.5162964 6.800232 2.8757324 
            12.900665 4.238037 19.0018 C 696.9555 485.50415 697.37726 485.51205 697.7989 485.51907 
            z" stroke-miterlimit="10" stroke="#000000"/>
        <path fill="#FFFFFF" d="M 486.62823 438.0983 c 1.8506165 6.6899414 5.199402 13.316284 
            9.218292 19.631134 c 4.0965576 6.439209 13.246918 9.098419 23.724884 9.797516 c 
            3.4251099 0.22857666 6.918213 0.036132812 10.380798 0.036132812 c -0.0014038086 
            -0.007080078 -0.0014038086 -0.014129639 -0.0014038086 -0.019439697 c 4.150696 0.0 
            8.366577 0.28512573 12.436768 -0.08026123 c 4.060486 -0.36547852 8.134888 -1.1438904 
            11.920654 -2.164093 c 7.579956 -2.0431519 11.197937 -6.7649536 9.5720825 -11.817688 c 
            -5.5684204 -17.295013 -40.550842 -30.267975 -66.905914 -24.810974 C 488.9685 430.3272 
            485.15775 432.78168 486.62823 438.0983 z M 517.5238 460.8767 c 3.8953857 -1.4015198 
            8.280518 -2.2496033 12.718323 -3.3828735 c 2.7634277 0.92663574 4.978882 1.6707153 
            7.1957397 2.4138489 c -1.4733276 1.3635559 -2.49292 3.3811646 -4.5197144 3.9530334 c 
            -4.088257 1.1517944 -8.684204 1.7174988 -13.159485 2.098755 c -1.5759277 0.13415527 
            -4.8554077 -0.9902954 -4.8429565 -1.5180359 C 514.94073 463.20935 515.99084 461.42838 
            517.5238 460.8767 z M 498.76947 446.96735 c 0.7435913 -0.8702698 2.5608826 -1.7263184 
            4.064636 -1.8604736 c 1.1042786 -0.097961426 3.5236511 0.9628601 3.5458374 1.5347595 c 
            0.1428833 3.798645 -0.005554199 7.617523 -0.5868225 11.3967285 c -0.09988403 0.6451416 
            -2.7425842 1.1315002 -4.2089233 1.6918945 c -0.7227478 -0.8173218 -1.4427185 -1.635437 
            -2.1655273 -2.4518127 c 1.6869202 -0.2364502 4.7999573 -0.4015503 4.8387756 -0.7201538 c 
            0.37179565 -3.0237427 0.22055054 -6.0739746 0.22055054 -9.11615 c -0.9058533 -0.11035156 
            -1.8131104 -0.22061157 -2.7189941 -0.33007812 c -1.2332764 1.0846863 -2.4651794 2.168457 
            -3.6983948 3.2531738 C 498.25064 449.21616 497.96768 447.9037 498.76947 446.96735 z"
            stroke-miterlimit="10" stroke="#000000"/>
        <path fill="#FFFFFF" d="M 662.5793 453.13034 c -28.566345 5.4657593 -56.808105 6.003296 
            -84.8736 -1.1279602 c -4.114624 -1.0458374 -8.173706 -2.1808167 -11.551697 -3.0845947 c 
            0.0 3.2708435 0.53967285 6.3598022 -0.10821533 9.344727 c -1.5578613 7.1823425 
            -10.1796875 9.695953 -19.825256 11.145142 c -14.890808 2.2356262 -29.671997 2.3185425 
            -45.37018 -2.3882446 c -4.4558716 7.5380554 -8.542694 14.660431 -12.891754 21.71756 c 
            -2.1169434 3.437561 -0.438385 5.1701355 4.75412 6.7507935 c 49.72754 15.126465 100.16815 
            16.483856 150.79602 2.5144348 c 21.236084 -5.859375 35.943726 -16.717743 46.614563 
            -29.717194 c 1.8172607 -2.2135315 0.77685547 -3.6626282 -3.0908813 -4.1913147 c 
            -5.542053 -0.7572632 -11.098022 -1.4765015 -17.952393 -2.38385 c 24.01056 -2.649475 
            45.963867 5.6758423 47.481506 17.568481 c -3.3238525 -2.4084473 -6.435486 -4.660797 
            -10.168518 -7.366791 c -1.4261475 4.3926086 -2.215454 8.155914 -3.887085 11.75412 c 
            -11.890198 25.581482 -40.552246 40.3302 -78.895996 48.269897 c -27.550903 5.7058105 
            -55.839783 5.522217 -84.32153 2.8444824 c -43.909363 -4.128662 -84.093994 -13.814941 
            -117.80844 -32.499054 c -36.060333 -19.983276 -58.57544 -44.630157 -57.849945 -75.94211 
            c 0.40371704 -17.384155 9.064331 -32.898926 31.465729 -44.202057 c 0.24694824 -0.1253357 
            0.17340088 -0.5057068 0.24694824 -0.75460815 c -1.864502 -0.25949097 -3.7053833 
            -0.5154114 -6.381378 -0.8878784 c 17.607025 -3.6273804 39.55896 3.3961487 40.358 
            12.7682495 c -0.6824951 -0.5586853 -1.0778809 -0.91259766 -1.5231934 -1.2391663 c 
            -5.315979 -3.9168396 -11.412933 -9.229095 -19.363312 -7.9502563 c -8.37207 1.3468323 
            -11.005096 7.710205 -12.876495 13.144257 c -3.147705 9.137268 -1.7243652 18.147491 
            2.1627197 27.01474 c 11.045319 25.200195 34.3956 44.940765 67.10016 60.403473 c 
            5.7737427 2.7306824 12.078827 5.0059814 17.740204 7.328064 c 5.610077 -9.13739 10.783112 
            -17.561493 16.21701 -26.409363 c -8.352631 -6.0994873 -13.713013 -13.830811 -15.696777 
            -22.429749 c -2.2764893 -9.858429 1.605011 -13.684326 16.322418 -16.929626 c 0.3260193 
            -0.07141113 0.52163696 -0.38391113 0.9225464 -0.6971741 c -13.966888 -4.4296875 
            -22.70935 -12.104584 -31.197998 -20.789093 c -0.22610474 2.1790771 -0.37594604 3.6159363 
            -0.52438354 5.052765 c -0.31072998 0.023803711 -0.6187134 0.04849243 -0.92807007 
            0.07235718 c -0.53411865 -1.53302 -1.1361694 -3.0589905 -1.5911865 -4.6017456 c 
            -4.1548157 -14.086792 -12.848755 -26.89035 -26.02768 -38.54828 c -11.729218 -10.374695 
            -26.359222 -15.500671 -47.272064 -14.180328 c -29.340485 1.8525085 -54.087708 14.931427 
            -57.84021 33.4364 c -8.471954 41.766113 8.613434 79.06024 52.17047 110.87619 c 33.10269 
            24.17987 75.663666 39.33905 123.582214 48.14099 c 67.53992 12.405518 131.7851 7.060608 
            191.3053 -17.145813 c 20.578491 -8.367676 38.73065 -18.608215 49.619263 -33.063934 c 
            8.853455 -11.75238 6.6158447 -21.064392 -8.151489 -29.937805 C 720.217 450.84097 
            692.86865 447.33444 662.5793 453.13034 z M 553.6965 485.11316 c -10.194946 -2.466858 
            -20.387146 -4.9345093 -30.582031 -7.401306 c 0.2871704 -0.46426392 0.5742798 -0.9293823 
            0.8614502 -1.3935547 c 10.14502 2.5435486 20.291443 5.088043 30.436401 7.631592 C 
            554.17505 484.3391 553.93506 484.72568 553.6965 485.11316 z M 527.05005 472.7553 c 
            13.511841 -1.3520813 26.024963 1.0811157 39.362 4.8117676 C 552.5145 475.8681 539.7823 
            474.31125 527.05005 472.7553 z M 484.70413 457.08875 c -10.414124 -6.8515015 -22.042114 
            -14.499847 -29.322418 -19.288757 C 464.75125 441.19003 476.074 449.0422 484.70413 
            457.08875 z M 444.35022 449.00876 c 12.027527 4.0765076 24.055023 8.152313 36.08252 
            12.228912 c -0.39260864 0.47042847 -0.78518677 0.94085693 -1.1777649 1.4129944 c 
            -11.984497 -4.128723 -23.96762 -8.25647 -35.950714 -12.384308 C 443.65247 449.84717 
            444.00067 449.42795 444.35022 449.00876 z M 440.48117 461.4151 c 11.228455 1.8330688 
            22.455505 3.6653442 33.682556 5.498413 c -0.20254517 0.4994812 -0.40231323 1.0008545 
            -0.6048584 1.5003967 c -11.170166 -1.9108276 -22.340363 -3.8215332 -33.51187 -5.7323 C 
            440.19266 462.25974 440.33688 461.83694 440.48117 461.4151 z M 417.64697 505.3903 c 
            47.975464 24.4711 102.58887 36.377106 164.07483 35.636627 C 519.32446 543.3481 464.20465 
            532.14825 417.64697 505.3903 z" stroke-miterlimit="10" stroke="#000000"/>
        <path fill="#FFFFFF" d="M 533.3149 459.7497 c -5.6779785 0.8428345 -11.356079 1.686554 
            -17.032654 2.529419 c 0.22332764 0.55337524 0.44665527 1.1058655 0.6699829 1.6591797 C 
            523.3669 465.4908 530.24493 464.24548 533.3149 459.7497 z" stroke-miterlimit="10"
            stroke="#000000"/>
        <path fill="#FFFFFF" d="M 528.1751 425.10153 c 12.778015 -2.054657 21.030823 -7.757019 
            26.072083 -15.232391 c 9.368164 -13.892639 -3.390442 -25.795929 -27.653564 -25.592041 c 
            -9.767639 -0.18008423 -18.433807 2.3414612 -25.877808 6.619293 c -10.26709 5.9000244 
            -12.837677 14.862579 -6.7087708 22.459778 C 501.55093 422.7071 514.36084 427.3229 
            528.1751 425.10153 z M 518.9859 416.42926 c 0.7852173 -1.9972839 4.715271 -4.486084 
            7.8255005 -4.8805847 c 4.2505493 -0.5392761 7.725647 1.5144958 7.6049194 4.8400574 c 
            -0.1081543 3.0960693 -2.692627 4.8947144 -7.1540527 4.921234 c -0.06933594 0.07501221 
            -0.1373291 0.14117432 -0.20666504 0.21792603 c -0.08325195 -0.07321167 -0.16369629 
            -0.13677979 -0.24694824 -0.20822144 c -0.055480957 -8.8500977E-4 -0.10266113 
            0.0052490234 -0.1595459 0.0035095215 C 522.1794 421.1873 517.77625 419.5086 518.9859 
            416.42926 z" stroke-miterlimit="10" stroke="#000000"/>
        <path fill="#FFFFFF" d="M 673.3445 487.19955 c -1.0209961 0.8737793 -2.0170898 1.9866638 
            -2.1239014 3.0281067 c -0.7269287 6.9935913 -1.2110596 13.99765 -1.7827148 21.107727 c 
            22.293335 -9.846924 30.375366 -25.299957 20.016846 -37.617188 C 684.1553 478.13284 
            678.67975 482.6331 673.3445 487.19955 z" stroke-miterlimit="10" stroke="#000000"/>
    </g>
</svg>