<?xml version="1.0" standalone="no"?>
<!--Created with Sketsa SVG Editor (http://www.kiyut.com)-->
<svg contentScriptType="text/ecmascript" width="600.0px" xmlns:xlink="http://www.w3.org/1999/xlink"
    baseProfile="full" zoomAndPan="magnify" contentStyleType="text/css" height="800.0px"
    preserveAspectRatio="xMidYMid meet" xmlns="http://www.w3.org/2000/svg" version="1.0">
    <g id="layer1" transform="matrix(0.71428573 0.0 0.0 0.71428573 -118.485 -9.764156)">
        <path style=
            "fill:#000000;fill-opacity:1;stroke:#000000;stroke-width:2;stroke-miterlimit:4;stroke-dasharray:none;stroke-opacity:1;"
            id="path4218" d="m 234.30504 866.36615 c -0.43582153 0.12884521 -0.87545776 0.2987671 
            -1.3109589 0.4767456 c -8.69368 2.8788452 -12.750946 12.741699 -18.625961 17.924622 c 
            -18.52655 3.425232 -23.341888 26.514221 -22.148804 42.565125 c 2.0529175 33.732727 
            11.820847 66.725464 23.536697 98.28381 c 11.564331 26.111084 30.532364 53.957886 
            59.78195 60.49109 c 22.905853 3.0637207 46.095093 -7.727417 62.97351 -22.736206 c 
            8.024078 -9.184204 13.839996 -21.73413 27.311005 -23.711304 c 49.36087 -20.741821 
            97.4805 -45.161865 143.19843 -73.09723 c 24.04715 -16.908752 33.030975 -48.38965 
            27.91867 -76.65057 c -4.9761963 -29.105896 -24.580505 -57.800903 -53.414734 -66.49786 c 
            -21.84964 -2.43927 -42.621246 8.90271 -60.910492 19.298828 c -35.89789 24.163269 
            -66.3544 55.522217 -97.474915 85.293884 c -6.7025146 -20.326416 -12.746979 -46.46631 
            -35.30307 -54.344666 c -10.93045 -5.8997803 -25.211456 -9.736511 -36.462753 -3.1547241 c 
            -5.953903 -2.5703125 -12.53006 -6.071045 -19.068604 -4.1416626 z"/>
        <path id="path4200" d="m 326.45255 934.14 c 0.0 0.0 80.422455 -80.86377 110.50668 -93.91406 
            c 30.08435 -13.050293 42.126587 -16.006897 55.501953 -7.401428 c 37.73993 24.28125 
            45.687622 69.55951 32.034058 102.44348 c -6.2946167 15.105347 -22.55014 25.960144 
            -29.849457 30.447327 c -10.625092 6.531494 -47.807983 25.894165 -72.32425 38.765564 c 
            -24.516357 12.871277 -69.97507 31.249084 -69.97507 31.249084 l 3.5065002 -12.153748 c 
            0.0 0.0 -16.786865 32.48651 -33.466156 41.77777 c -16.67929 9.29126 -38.851868 18.46228 
            -57.24832 8.708252 c -18.396484 -9.754028 -40.70729 -33.543213 -53.59207 -81.82349 c 
            -12.884781 -48.280396 -15.934982 -69.572266 -11.086258 -85.83948 c 4.848709 -16.26709 
            13.7574005 -16.553406 13.7574005 -16.553406 c 0.0 0.0 -4.508133 11.740784 -2.9238434 
            19.93628 c 1.5843048 8.195618 8.581741 20.626648 8.581741 20.626648 c 0.0 0.0 -9.723526 
            -26.80127 1.7721252 -45.041565 c 11.495651 -18.240234 17.762848 -14.265381 20.693863 
            -13.363281 c 2.9310303 0.90216064 7.901657 3.1166992 7.901657 3.1166992 c 0.0 0.0 
            -9.925842 10.685364 -10.981216 21.870056 c -1.0553741 11.184631 5.050644 24.02594 
            5.050644 24.02594 c 0.0 0.0 -4.0563507 -18.524902 3.5366974 -33.141968 c 7.593048 
            -14.617065 13.61174 -18.499084 27.04216 -14.139709 c 13.43045 4.359436 24.076416 
            9.126282 30.258942 20.396423 c 6.182495 11.27002 23.883057 66.17926 23.883057 66.17926 
            z" style="fill:#ffffff;fill-opacity:1;stroke:none;" onClick="javascript:onPathClick('path4200');"
            class="img-path"/>
        <path id="path4202" d="m 241.1041 1035.6799 c -8.538071 -14.046265 -29.408386 -44.03961 
            -22.094788 -70.81586 c 7.3135986 -26.776428 29.437866 -28.16571 43.08499 -19.615845 c 
            13.647125 8.549866 33.065125 30.651245 40.081604 55.65277 c 7.0164795 25.001587 9.285431 
            47.526855 4.2227783 57.695557 c -5.0626526 10.168701 -21.492676 15.501831 -33.567932 
            9.303955 c -14.735748 -7.5633545 -25.558426 -22.072998 -31.726654 -32.22058 z" style=
            "fill:#ffffff;fill-opacity:1;stroke:none;" onClick="javascript:onPathClick('path4202');"
            class="img-path"/>
        <path id="path4206" d="m 322.43942 961.91516 c -3.806244 -29.124023 -19.830048 -68.80261 
            -24.72342 -73.52612 c -6.510742 -6.284668 -20.662292 -13.786438 -31.529175 -13.167419 c 
            -10.728485 0.61120605 -17.552658 13.995178 -18.558365 19.81372 c -1.005722 5.8184814 
            -3.0699768 17.666931 -1.456543 27.298767 c 1.6134338 9.631653 50.066696 44.41046 
            60.929672 46.489746 c 10.863007 2.0792847 16.069122 -1.3126831 15.33783 -6.9086914 z"
            style="fill:#ffffff;fill-opacity:1;stroke:none;" onClick="javascript:onPathClick('path4206');"
            class="img-path"/>
        <path id="path4208" d="m 249.12486 876.5195 c 0.0 0.0 -6.161606 -4.3739014 -11.412216 
            -3.4556885 c -5.25058 0.9182129 -13.137131 9.716003 -16.585602 16.827148 c -3.4484863 
            7.111267 -3.5966492 18.883179 -2.6862488 24.625061 c 0.91033936 5.7419434 6.010208 
            18.39447 6.010208 18.39447 l 20.689468 -5.1018677 c 0.0 0.0 -3.0299225 -10.215759 
            -4.750885 -18.075256 c -1.7209778 -7.859436 -1.7383118 -14.049744 0.02708435 -18.888306 
            c 1.7654266 -4.838623 8.70813 -14.325562 8.70813 -14.325562 z" style=
            "fill:#ffffff;fill-opacity:1;stroke:none;" onClick="javascript:onPathClick('path4208');"
            class="img-path"/>
        <path style=
            "fill:#000000;stroke:#000000;stroke-width:5;stroke-miterlimit:4;stroke-dasharray:none;stroke-opacity:1;"
            id="path3043" d="m 372.563 755.1372 c 0.0 0.0 -5.1822205 10.168335 -14.437622 21.204224 
            c -9.255432 11.035889 -28.656586 28.313171 -28.656586 28.313171 l -16.359436 -28.496155 
            c 0.0 0.0 -5.15921 3.5041504 -16.177826 -2.6453857 c -11.018616 -6.149536 -13.276001 
            -21.27655 -13.276001 -21.27655 l -1.9837036 11.272095 c 0.0 0.0 5.362213 2.8394775 
            7.9619446 7.5598755 c 2.599762 4.720337 3.0561829 8.981506 3.0561829 8.981506 c 0.0 0.0 
            14.467529 -3.7017822 23.197449 0.9937134 c 8.729919 4.6954346 11.706696 11.021973 
            11.725769 16.26886 c 0.019042969 5.246887 1.5271912 11.671814 -13.909637 24.737305 c 
            -15.436859 13.06543 -37.444214 18.26892 -49.679413 14.105652 c -12.235184 -4.163269 
            -24.907257 -17.732666 -24.907257 -17.732666 c 0.0 0.0 -12.63176 -0.6245117 -23.672928 
            -10.501709 c -11.041153 -9.877136 -13.791855 -16.524292 -14.185791 -20.92627 c 
            -0.39393616 -4.4019165 1.1806183 -10.028809 1.1806183 -10.028809 c 0.0 0.0 -19.742493 
            -8.071594 -25.65712 -23.462708 c -5.914551 -15.391113 -7.0457153 -27.670166 1.2298126 
            -38.039062 c 8.275528 -10.3688965 22.324905 -18.2547 22.324905 -18.2547 c 0.0 0.0 
            -2.9310608 -10.760437 9.021408 -21.80188 c 11.952469 -11.041443 12.363541 -8.227478 
            17.49501 -8.304138 c 5.131439 -0.07672119 22.24289 0.76605225 29.916428 -1.0324097 c 
            7.6735535 -1.7984009 25.561249 -8.85022 41.565186 -8.984619 c 16.003937 -0.13439941 
            33.48419 -1.993103 39.070923 0.6445923 c 5.5867004 2.6377563 26.498016 18.695007 
            26.498016 18.695007 c 0.0 0.0 11.438843 -2.670105 30.464752 -12.554443 c 19.02594 
            -9.884277 46.772217 -27.666748 60.788513 -49.90558 c 14.016296 -22.23877 27.517914 
            -64.4245 34.02722 -73.6181 c 6.5093384 -9.1935425 14.77005 -13.116943 22.160767 
            -11.338867 c 7.3906555 1.7780762 13.390289 1.6148682 18.352692 10.602478 c 4.9623413 
            8.987732 9.478577 25.660217 11.996704 39.22162 c 2.5181274 13.561401 6.163513 37.592834 
            4.2248535 56.32025 c -1.9385986 18.727356 -2.7908325 24.426392 -6.1724243 28.647278 c 
            -3.3815918 4.2209473 -30.108337 31.207275 -48.76532 45.862793 c -18.657043 14.655518 
            -61.1698 40.947266 -86.18823 44.62451 c -25.018433 3.677246 -32.22986 0.8491211 
            -32.22986 0.8491211 z"/>
        <path id="path3451" d="m 366.71332 679.2955 c 4.570343 5.946594 6.748413 16.733032 6.748413 
            16.733032 c 0.0 0.0 -23.197205 -32.680237 -40.72867 -34.847412 c -17.531433 -2.1671143 
            -53.841217 0.5835571 -69.853455 6.748169 c -16.012238 6.164673 -37.72957 -0.9958496 
            -45.89647 5.1206055 c -8.166901 6.116394 -15.974289 18.36914 -10.555115 31.804382 c 
            5.419159 13.435242 12.766235 19.853577 29.709885 19.605103 c 16.943665 -0.24859619 
            59.5336 -10.444092 59.5336 -10.444092 c 0.0 0.0 -8.951294 7.2157593 -18.85141 7.991455 c 
            0.0 0.0 -1.3637085 14.138367 7.500366 25.843872 c 8.154236 10.768066 27.367157 20.29596 
            47.12607 14.551147 c 27.078003 -7.8728027 26.114532 -41.75769 26.114532 -41.75769 c 0.0 
            0.0 -0.3965149 29.214417 -10.128082 37.25421 c -9.731567 8.039795 -22.437775 9.959412 
            -22.437775 9.959412 l 17.18039 21.126404 c 0.0 0.0 22.618225 -21.587585 26.541565 
            -36.307922 c 3.9233398 -14.720337 6.0219116 -29.06836 6.0219116 -29.06836 l 0.81469727 
            28.087524 c 0.0 0.0 25.257751 6.1277466 65.54242 -14.665588 c 40.284668 -20.793396 
            75.56128 -52.20807 93.848816 -73.11902 c 18.287537 -20.91095 3.77417 -122.323425 
            -14.82373 -129.03369 c -18.597809 -6.710327 -27.159851 -0.77197266 -33.70819 18.261475 c 
            -6.548279 19.033386 -17.11322 55.134766 -44.997345 82.71265 c -27.884064 27.57782 
            -74.70242 43.444336 -74.70242 43.444336 z" style=
            "fill:#ffffff;fill-opacity:1;stroke:none;" onClick="javascript:onPathClick('path3451');"
            class="img-path"/>
        <path id="path3457" d="m 201.10535 701.00165 c 0.0 0.0 0.78308105 14.293518 15.011459 
            23.410645 c -8.067825 -2.031372 -16.473297 0.85443115 -16.473297 0.85443115 c 0.0 0.0 
            17.574905 3.2750854 29.430893 3.3809814 c 11.856018 0.105895996 22.949081 -4.0062256 
            32.33548 -1.1816406 c 9.021942 2.7148438 12.268188 3.333191 16.117004 15.629089 c 
            3.848816 12.295898 3.9292908 16.176392 -2.1853027 22.967346 c -6.114624 6.7909546 
            -22.371475 18.303955 -37.13745 16.632935 c -14.766006 -1.6710815 -43.241455 -8.338867 
            -53.12155 -23.099854 c -9.880081 -14.761108 -10.494492 -23.54956 -8.378784 -32.502808 c 
            3.055832 -12.931641 8.043213 -16.550842 24.40155 -26.091125 z" style=
            "fill:#ffffff;fill-opacity:1;stroke:none;" onClick="javascript:onPathClick('path3457');"
            class="img-path"/>
        <path id="path3459" d="m 205.70976 778.6107 c 0.0 0.0 23.30896 12.65741 44.088776 6.968933 c 
            20.77983 -5.6883545 29.74382 -19.211975 29.74382 -19.211975 c 0.0 0.0 6.2469482 
            2.2183838 8.917847 11.427734 c 2.6708984 9.209412 -0.45419312 25.60382 -16.684845 
            31.192139 c -16.230682 5.588257 -36.358276 9.539429 -48.270447 0.5854492 c -11.91217 
            -8.9539795 -15.164795 -13.64624 -17.492111 -19.355164 c -2.3273468 -5.7088623 
            -0.30303955 -11.607117 -0.30303955 -11.607117 z" style=
            "fill:#ffffff;fill-opacity:1;stroke:none;" onClick="javascript:onPathClick('path3459');"
            class="img-path"/>
        <path id="path3461" d="m 243.54837 818.36865 c 0.0 0.0 17.991058 -1.8076172 26.766602 
            -5.021057 c 8.775574 -3.213379 16.336853 -8.766418 18.920105 -14.054199 c 2.3546448 
            -4.819702 3.7724304 -15.983215 3.7724304 -15.983215 c 0.0 0.0 20.746094 -5.345154 
            28.070404 6.2007446 c 7.3243713 11.545898 -0.335083 21.595093 -5.445099 26.699707 c 
            -5.1099854 5.1046753 -13.757355 14.708557 -35.07834 16.807495 c -21.321014 2.098877 
            -32.838028 -6.676941 -37.006104 -14.649475 z" style=
            "fill:#ffffff;fill-opacity:1;stroke:none;" onClick="javascript:onPathClick('path3461');"
            class="img-path"/>
        <path id="path4814" d="m 368.4572 681.9915 c 0.0 0.0 5.5266113 9.081238 9.598816 28.997314 c 
            4.072235 19.916016 5.805084 29.990784 18.594788 29.503662 c 12.789734 -0.48706055 
            82.759674 -33.496704 89.22101 -45.792114 c 6.461273 -12.29541 46.18164 -54.2088 
            37.440247 -104.7865 c -7.270569 -42.067444 -31.963165 -40.277405 -40.253784 -16.961731 c 
            -7.6411133 21.489136 -8.072754 30.66333 -27.296906 52.075684 c -19.224152 21.412415 
            -40.66971 35.740356 -57.06494 43.22003 c -16.395203 7.4797363 -30.239227 13.743652 
            -30.239227 13.743652 z" style="fill:#ffffff;fill-opacity:1;stroke:none;" onClick="javascript:onPathClick('path4814');"
            class="img-path"/>
        <path id="path4832" d="m 369.1539 696.6686 c 0.0 0.0 -20.52124 -29.696106 -33.553864 
            -31.684204 c -13.032684 -1.9880981 -47.608 -1.5202637 -65.41159 3.4658203 c -17.803543 
            4.986145 -39.1848 4.811096 -47.8423 5.809021 c -8.6575165 0.9979248 -15.886765 16.157715 
            -14.35611 26.310303 c 1.5306396 10.152588 7.141464 16.39917 15.33992 19.08081 c 8.198441 
            2.6816406 32.910126 0.64038086 47.758118 -2.9743652 c 14.848022 -3.614746 37.93097 
            -6.8970337 52.606262 -9.744751 c 14.675354 -2.8477173 45.459564 -10.262634 45.459564 
            -10.262634 z" style="fill:#ffffff;fill-opacity:1;stroke:none;" onClick="javascript:onPathClick('path4832');"
            class="img-path"/>
        <path id="path4842" d="m 358.08752 721.1091 c 0.0 0.0 -0.48309326 2.923584 -0.8227844 
            4.9402466 c -0.0014953613 0.015563965 0.020935059 0.0357666 0.019042969 0.05029297 c 
            -0.63012695 8.828552 -2.7351074 25.946167 -9.844757 31.819885 c -9.731567 8.039795 
            -17.535583 9.423645 -36.872437 12.197815 c 16.419434 9.090942 22.350372 29.877869 
            22.350372 29.877869 c 0.0 0.0 31.888977 -32.604614 35.812378 -47.32495 c 3.8468628 
            -14.433411 5.8891296 -28.339783 5.969269 -28.882996 c 0.0034484863 -0.06994629 
            0.039215088 -0.12145996 0.042663574 -0.1897583 c 0.11361694 -2.2277222 0.27575684 
            -6.232239 0.27575684 -6.232239 z m -0.8036499 4.9906616 c -0.48306274 2.8672485 
            -0.9291382 5.361023 -1.5391846 8.799194 c 0.84542847 -3.3139648 1.293335 -6.378784 
            1.5391846 -8.799194 z" style="fill:#ffffff;fill-opacity:1;stroke:none;" onClick="javascript:onPathClick('path4842');"
            class="img-path"/>
        <path id="path4871" d="m 186.07176 727.5524 c 11.693939 -0.28674316 29.31543 4.730713 
            40.09558 4.213135 c 10.780121 -0.5175781 25.214844 -3.9282837 33.0215 -1.4847412 c 
            7.8067017 2.4435425 11.960693 2.1652222 15.333557 11.929993 c 3.3728638 9.764709 
            5.0061646 16.236206 -2.0844727 22.598816 c -7.0906677 6.362549 -10.846466 10.2854 
            -20.487793 12.511169 c -9.641357 2.225769 -33.07617 1.3406372 -45.47673 -5.4438477 c 
            -12.400604 -6.784485 -17.735153 -9.189026 -22.797836 -19.954407 c -5.062668 -10.765381 
            -5.060791 -16.38031 -3.9201202 -20.28711 c 1.1407013 -3.9067383 3.8158264 -4.0216675 
            6.3163147 -4.083008 z" style="fill:#ffffff;fill-opacity:1;stroke:none;" onClick="javascript:onPathClick('path4871');"
            class="img-path"/>
        <path style=
            "fill:#000000;stroke:#000000;stroke-width:5;stroke-miterlimit:4;stroke-dasharray:none;stroke-opacity:1;"
            id="path3041" d="m 450.79834 124.40719 c 0.0 0.0 -77.91574 1.9633255 -93.06601 30.540657 
            c -15.15033 28.577332 16.881714 41.88434 25.971893 47.338028 c 9.090179 5.453705 
            73.370636 25.959564 118.82147 33.812897 c 45.450806 7.8532867 144.7934 19.851395 
            144.7934 19.851395 c 0.0 0.0 3.0300903 18.760712 24.023987 33.594727 c 20.994019 
            14.834045 34.845703 20.28772 34.845703 20.28772 l 36.144226 84.859436 l -132.31726 
            74.98071 c 0.0 0.0 15.91626 37.020874 38.566345 83.29697 c 22.650024 46.276123 39.79065 
            74.35022 39.79065 74.35022 c 0.0 0.0 2.4486084 -24.37207 9.182434 -42.573975 c 6.7338257 
            -18.201904 20.507446 -48.127136 37.64807 -64.169495 c 17.140625 -16.042389 56.31909 
            -44.733612 69.48059 -54.297333 c 13.161499 -9.56369 31.220398 -29.308197 34.281128 
            -44.116516 c 3.060852 -14.808319 1.8366089 -23.138031 -3.06073 -38.254883 c -4.897339 
            -15.116882 -52.033936 -114.76471 -52.033936 -114.76471 c 0.0 0.0 7.3459473 -18.81897 
            2.7546997 -49.052658 c -4.5911865 -30.233719 -8.876404 -53.988785 -20.201355 -60.158936 
            c -11.325012 -6.1701508 -23.262268 -4.0105896 -23.262268 -4.0105896 c 0.0 0.0 1.1195679 
            -16.461487 -12.299316 -20.715363 c -13.418823 -4.253891 -24.781494 -1.6361084 -24.781494 
            -1.6361084 c 0.0 0.0 -1.298645 -8.289612 -13.202393 -9.162209 c -11.903809 -0.8725815 
            -13.094177 0.4363098 -13.094177 0.4363098 c 0.0 0.0 0.54107666 -10.4711 -0.1081543 
            -19.087914 c -0.649292 -8.616829 -3.1383057 -14.179588 -6.168335 -16.033852 c -3.0300903 
            -1.8542633 -6.817627 -1.7451782 -6.817627 -1.7451782 c 0.0 0.0 -3.6793213 -22.796417 
            -20.344727 -37.73953 c -16.665283 -14.943108 -22.617188 -15.161255 -22.617188 -15.161255 
            c 0.0 0.0 3.6793823 -2.5087051 3.571167 -5.9990597 c -0.1081543 -3.4903717 -5.7354126 
            -11.343672 -26.621216 -12.543484 c -20.885742 -1.199811 -27.811584 3.2722034 -29.75946 
            5.017397 c -1.947937 1.7451763 -1.62323 3.0540543 -1.62323 3.0540543 c 0.0 0.0 
            -14.609192 0.32723236 -33.114197 9.271282 c -18.505005 8.944046 -32.14026 21.051228 
            -32.14026 21.051228 c 0.0 0.0 -5.7354736 -2.9449883 -10.92981 1.5270462 c -5.1944275 
            4.472019 -14.501007 15.161251 -16.665344 21.705685 c -2.1643066 6.5444183 -1.7314453 
            10.362007 -1.7314453 10.362007 c 0.0 0.0 -8.981964 10.03479 -13.527069 18.869751 c 
            -4.5450745 8.834991 -10.388733 17.015526 -10.388733 17.015526 z"/>
        <path style=
            "fill:#000000;stroke:#000000;stroke-width:5;stroke-linejoin:round;stroke-miterlimit:4;stroke-dasharray:none;stroke-opacity:1;"
            id="path3047" d="m 608.0492 458.48837 c -0.42059326 0.0051574707 -0.87615967 
            -0.0035095215 -1.3926392 0.053863525 c -4.132141 0.46279907 -107.37045 61.79962 
            -109.96759 63.5448 c -2.597229 1.7452393 -9.967346 9.366882 -9.534485 17.438416 c 
            0.43286133 8.071411 16.658539 42.974976 16.658539 42.974976 c -9.794647 41.031494 
            -19.130127 59.14862 -27.853455 78.121826 c -8.340729 18.14093 -41.321106 80.82117 
            -48.207916 102.41669 c -6.8868713 21.595459 -14.416443 46.121826 -13.49823 62.626953 c 
            0.9182434 16.505188 1.8594666 46.63092 21.907806 71.157166 c 20.04837 24.526428 46.66217 
            51.49768 77.8826 68.61981 c 31.220337 17.122131 84.63165 19.921753 84.63165 19.921753 c 
            0.0 0.0 19.612122 18.201965 39.04834 35.63263 c 19.436157 17.430725 63.95581 49.345764 
            63.95581 49.345764 c 0.0 0.0 4.4228516 12.502319 8.248962 20.677612 c 3.8259888 8.175537 
            30.646423 41.18579 62.93811 36.712524 c 32.291626 -4.4735107 58.43866 -34.730347 
            83.07825 -77.150024 c 24.639587 -42.4198 28.763977 -65.395874 25.55017 -81.901 c 
            -3.2138672 -16.505127 -11.141357 -14.954895 -11.141357 -14.954895 c 0.0 0.0 -6.909851 
            -15.28656 -13.337585 -20.8396 c -6.4276733 -5.5531616 -19.443848 -1.9976196 -19.443848 
            -1.9976196 l -7.016968 -5.8847656 c 0.0 0.0 25.221191 -34.352234 32.56726 -45.458557 c 
            7.345886 -11.106323 17.9057 -34.560547 31.06726 -57.390076 c 13.161499 -22.829468 
            13.360474 -22.096863 29.888916 -38.60199 c 16.528442 -16.505127 70.375854 -41.918396 
            74.507935 -45.620483 c 4.13208 -3.7020874 4.583618 -15.271118 3.0531616 -22.675232 c 
            -1.5303955 -7.404236 -2.762329 -14.206787 -11.944824 -17.600403 c -9.182434 -3.3935547 
            -60.435852 0.60162354 -76.81128 5.074951 c -16.375305 4.4733887 -76.52045 33.17224 
            -79.27515 33.63501 c -2.7546997 0.46276855 -5.8155518 -0.91778564 -7.4990234 -3.0773315 
            c -1.6834717 -2.159546 -7.1776733 -5.3988647 -7.1776733 -5.3988647 l -49.49341 -76.07019 
            l -9.266602 -1.8896484 l -14.462402 -18.950012 c 0.0 0.0 -5.333496 -2.3292847 -15.587219 
            -0.8638916 c -10.253723 1.4654541 -15.747925 10.149902 -15.747925 10.149902 l 4.6065674 
            16.358643 l -2.4639893 1.2416992 c 0.0 0.0 -7.3153687 -8.013428 -25.068115 -33.311035 c 
            -17.752747 -25.297607 -75.63281 -156.41321 -77.77545 -160.88654 c -1.8746948 -3.914154 
            -2.6802368 -5.2250977 -5.6242065 -5.182953 z m 157.9076 492.5936 l -11.944824 18.086243 
            l -8.088196 -13.119324 l 20.03302 -4.966919 z"/>
        <path id="path3369" d="m 501.1189 130.07903 c 0.0 0.0 -4.2204285 -7.30793 -5.627289 
            -17.45182 c -1.4067688 -10.14386 -1.7314148 -27.159355 -0.32461548 -33.921936 c 
            1.4067993 -6.7625732 7.3587036 -19.524212 6.168335 -20.724026 c -1.1903992 -1.1998062 
            -4.545105 -1.0907288 -7.68338 2.5087128 c -3.1382446 3.59943 -12.640015 11.312725 
            -14.284576 22.687344 c -1.1336975 7.8413773 -2.1642761 24.977898 -2.1642761 24.977898 c 
            0.0 0.0 -2.3807678 -6.544441 -1.62323 -15.488487 c 0.0 0.0 -8.008057 8.507767 -11.795624 
            16.470146 c -3.7875366 7.962387 -8.873718 16.361076 -8.873718 16.361076 c 0.0 0.0 
            16.701965 0.2559433 25.863708 1.4179611 c 7.9357605 1.0065231 14.677124 1.9208679 
            20.344666 3.1631317 z" style="fill:#ffffff;fill-opacity:1;stroke:none;" onClick="javascript:onPathClick('path3369');"
            class="img-path"/>
        <path id="path3371" d="m 505.33932 130.84254 l 14.717377 3.054062 c 0.0 0.0 16.232483 
            -12.761627 38.20038 -18.651627 c 21.967896 -5.889969 40.90576 -6.871643 50.104187 
            -6.7625732 c 9.198303 0.10901642 16.557068 1.5270462 24.023987 0.0 c 7.466919 -1.5270157 
            19.262451 -3.4903564 25.863708 -5.9990616 c 6.6011963 -2.5086899 8.007996 -3.9266434 
            8.007996 -3.9266434 c 0.0 0.0 -4.1122437 -29.013634 -20.45288 -44.720253 c -16.340698 
            -15.706623 -28.244507 -17.124584 -28.244507 -17.124584 c 0.0 0.0 -12.120239 3.599434 
            -22.400757 2.3996239 c -10.280518 -1.19981 -16.773499 -3.0540733 -20.45282 -5.6718445 c 
            -3.6793823 -2.617773 -4.9779663 -6.1081257 -4.9779663 -6.1081257 c 0.0 0.0 -17.068481 
            4.1895123 -31.308472 10.079969 c -15.165649 6.273346 -31.998047 19.588097 -31.998047 
            19.588097 c -2.4890137 5.999054 -8.657349 15.488483 -8.873779 34.358242 c -0.21640015 
            18.869759 1.8396912 28.577324 7.7915955 39.48472 z" style=
            "fill:#ffffff;fill-opacity:1;stroke:none;" onClick="javascript:onPathClick('path3371');"
            class="img-path"/>
        <path id="path3373" d="m 608.7914 162.39952 l 17.446716 8.329697 c 0.0 0.0 24.486511 
            -16.505142 41.933167 -23.292297 c 17.446655 -6.787155 33.362915 -12.957306 33.362915 
            -12.957306 c 0.0 0.0 -0.30603027 -5.707382 -7.6520386 -6.6329117 c -7.3459473 -0.9255142 
            -13.926697 -2.159546 -34.434204 5.861641 c -20.507507 8.021194 -50.656555 28.691177 
            -50.656555 28.691177 z" style="fill:#ffffff;fill-opacity:1;stroke:none;" onClick="javascript:onPathClick('path3373');"
            class="img-path"/>
        <path id="path3375" d="m 629.2989 171.96326 l 21.42572 11.414749 c 0.0 0.0 25.098755 
            -10.026474 46.983643 -16.81363 c 21.884827 -6.787155 41.627075 -8.792465 41.627075 
            -8.792465 c 0.0 0.0 -0.7651367 -14.962585 -11.171997 -18.356186 c -10.406738 -3.39357 
            -17.59967 -3.2393188 -24.945679 -1.3882751 c -7.345886 1.8510437 -21.272705 5.8616486 
            -39.48456 14.499847 c -18.211853 8.638199 -34.434204 19.435959 -34.434204 19.435959 z"
            style="fill:#ffffff;fill-opacity:1;stroke:none;" onClick="javascript:onPathClick('path3375');"
            class="img-path"/>
        <path id="path3379" d="m 732.7546 207.75009 c 0.0 0.0 -27.70044 8.483963 -46.98358 12.803055 
            c -19.283142 4.319092 -26.93518 4.319092 -33.056824 0.30851746 c -6.121643 -4.010605 
            -13.773682 -9.2552185 -13.620605 -15.271118 c 0.15301514 -6.0158997 4.4381104 -14.80835 
            13.314514 -18.510437 c 8.876343 -3.7021027 25.098694 -10.18074 43.310608 -16.042389 c 
            18.211853 -5.861618 51.574768 -12.648773 60.604187 -10.334991 c 9.029419 2.3138123 
            18.97705 16.350891 21.884888 33.01027 c 2.9077148 16.659409 9.029358 48.127136 4.2851562 
            62.9355 c -4.7443237 14.80835 -9.029358 31.313477 -9.029358 31.313477 c 0.0 0.0 
            7.4989014 -13.8828125 7.4989014 -13.265808 c 0.0 0.6170044 26.516724 49.75235 37.33838 
            77.67526 c 10.821594 27.922882 23.374756 51.48282 15.58313 72.42499 c -7.791626 20.94217 
            -42.853638 47.992493 -62.33258 60.64502 c -19.478943 12.652557 -42.420776 30.97696 
            -53.675293 49.30136 c -11.254517 18.324402 -22.310486 39.051147 -25.983398 52.93396 c 
            -3.6730347 13.882874 -5.9161377 28.521423 -5.9161377 28.521423 c 0.0 0.0 -24.270142 
            -41.196655 -37.737732 -72.355896 c -13.46759 -31.15924 -31.20227 -73.64398 -31.20227 
            -73.64398 l 34.606323 -19.03601 l 98.86444 -56.456787 l -4.285095 -1.2340393 l -34.89337 
            -84.22247 l 10.712891 -3.085083 c 0.0 0.0 -24.639648 0.15426636 -48.513977 -21.904022 c 
            -23.87445 -22.058289 -23.721375 -36.095367 -23.87445 -41.494232 c -0.15307617 -5.3988647 
            0.9182739 -15.888123 0.9182739 -15.888123 l 57.849487 33.318787 c 0.0 0.0 0.6121826 
            10.951996 5.050354 16.042389 c 4.4381714 5.0903625 10.789368 9.717987 25.251709 
            12.186005 c 0.0 0.0 -20.813538 -8.946686 -24.486511 -17.276398 c -3.6729736 -8.329681 
            -5.5094604 -23.6008 -3.5199585 -32.238983 c 1.989502 -8.638214 3.5199585 -19.435959 
            8.723328 -22.983795 c 5.203369 -3.5478363 13.314575 -8.175446 13.314575 -8.175446 z"
            style="fill:#ffffff;fill-opacity:1;stroke:none;" onClick="javascript:onPathClick('path3379');"
            class="img-path"/>
        <path id="path3383" d="m 601.06287 19.560642 c -12.826294 -0.7541809 -28.542114 2.4680557 
            -28.465576 6.324394 c 0.076416016 3.8563519 15.380554 9.949379 23.4917 10.103619 c 
            8.111206 0.15428162 27.273315 -1.316719 28.00653 -7.095661 c 0.5957031 -4.695175 
            -13.897705 -8.795227 -23.032654 -9.332352 z" style=
            "fill:#ffffff;fill-opacity:1;stroke:none;" onClick="javascript:onPathClick('path3383');"
            class="img-path"/>
        <path id="path3395" d="m 497.22308 527.5439 c 0.0 0.0 29.75946 51.70099 51.61914 77.66052 c 
            21.85968 25.959595 43.50299 47.992493 53.675293 54.536926 c 10.172363 6.5444336 
            25.322632 9.38031 25.322632 9.38031 l 3.24646 7.8533325 l -11.470947 9.598511 l 0.649353 
            4.362915 c 0.0 0.0 -54.973877 -25.305054 -89.38672 -76.7879 c -34.41275 -51.48285 
            -40.25641 -72.20685 -40.039978 -76.787964 c 0.21643066 -4.5810547 6.384735 -9.816589 
            6.384735 -9.816589 z" style="fill:#ffffff;stroke:none;" onClick="javascript:onPathClick('path3395');"
            class="img-path"/>
        <path id="path3397" d="m 609.2269 464.06296 l -6.7094116 43.847656 c 0.0 0.0 40.68933 
            80.06015 62.76544 115.400055 c 22.07611 35.339966 48.480896 75.697205 48.480896 
            75.697205 l 4.9779663 -3.4902954 l -10.71344 -31.358704 l 4.869751 -2.890503 c 0.0 0.0 
            -31.382751 -38.175842 -57.354614 -92.49457 c -25.971924 -54.318787 -46.31659 -104.710846 
            -46.31659 -104.710846 z" style="fill:#ffffff;stroke:none;" onClick="javascript:onPathClick('path3397');"
            class="img-path"/>
        <path id="path3399" d="m 630.762 663.01355 l 5.194336 12.543518 c 0.0 0.0 8.981934 
            -5.4537354 16.015991 -7.1989136 c 7.0340576 -1.7451782 16.77356 -2.0723877 16.77356 
            -2.0723877 l -6.9258423 -16.361084 c 0.0 0.0 -11.254517 -1.0907593 -17.963928 2.6177368 
            c -6.7094116 3.708496 -13.094116 10.47113 -13.094116 10.47113 z" style=
            "fill:#ffffff;fill-opacity:1;stroke:none;" onClick="javascript:onPathClick('path3399');"
            class="img-path"/>
        <path id="path3401" d="m 623.5115 688.5368 c 0.0 0.0 14.933899 -11.779907 28.352722 
            -15.924744 c 13.418823 -4.1448364 29.3266 -3.054016 29.3266 -3.054016 l 48.37268 
            93.585266 c 0.0 0.0 -19.10498 0.72991943 -40.04004 7.8533325 c -20.038513 6.8183594 
            -30.94989 17.015442 -38.525024 30.10437 z" style=
            "fill:#ffffff;fill-opacity:1;stroke:none;" onClick="javascript:onPathClick('path3401');"
            class="img-path"/>
        <path id="path3403" d="m 704.5175 707.4518 l 13.041626 25.169556 l 23.799927 -12.671265 c 
            0.0 0.0 4.6533203 -8.289612 0.86572266 -15.815674 c -3.7875977 -7.526123 -14.825684 
            -10.5802 -14.825684 -10.5802 c -12.877686 9.925781 -22.881592 13.897583 -22.881592 
            13.897583 z" style="fill:#ffffff;stroke:none;" onClick="javascript:onPathClick('path3403');"
            class="img-path"/>
        <path id="path3405" d="m 712.3571 665.30414 l 9.847656 28.4682 l 4.7615356 -4.1447754 c 0.0 
            0.0 13.094177 1.7451782 18.180359 13.852356 c 5.0861206 12.107178 -1.5150757 19.197021 
            -1.5150757 19.197021 l -12.877686 6.5444336 l 13.527039 34.794495 c 0.0 0.0 15.042053 
            -17.451782 36.577026 -26.832092 c 21.535095 -9.380432 33.655273 -8.5078125 33.655273 
            -8.5078125 l -46.31653 -74.497375 c 0.0 0.0 -20.669312 -6.217224 -32.681335 -1.0907593 c 
            -12.012024 5.126465 -23.158264 12.216309 -23.158264 12.216309 z" style=
            "fill:#ffffff;fill-opacity:1;stroke:none;" onClick="javascript:onPathClick('path3405');"
            class="img-path"/>
        <path id="path3407" d="m 722.63763 655.92377 c -1.1903687 -4.1447754 -3.7875366 -12.870728 
            -3.7875366 -12.870728 c 0.0 0.0 4.86969 -7.7442017 11.903809 -9.48938 c 7.0339966 
            -1.7452393 12.877686 0.10900879 12.877686 0.10900879 l 10.929871 14.834045 c 0.0 0.0 
            -10.280579 -1.9633179 -17.20642 0.65441895 c -5.116394 1.757019 -10.103394 4.006653 
            -14.717407 6.7626343 z" style="fill:#ffffff;fill-opacity:1;stroke:none;" onClick="javascript:onPathClick('path3407');"
            class="img-path"/>
        <path id="path3409" d="m 660.9784 795.3021 c 0.0 0.0 9.029419 -11.723267 23.415222 
            -17.893372 c 14.385864 -6.170166 36.72986 -9.718018 36.72986 -9.718018 c -0.15307617 
            4.164856 -0.58343506 16.54242 -21.425781 24.8349 c -17.446594 6.941345 -30.455078 
            5.244568 -38.7193 2.7764893 z" style="fill:#ffffff;fill-opacity:1;stroke:none;" onClick="javascript:onPathClick('path3409');"
            class="img-path"/>
        <path id="path3411" d="m 724.1843 766.61096 c 0.0 0.0 3.9863281 -0.6796875 6.4276733 
            -0.46276855 c 2.8110352 0.2498169 5.1688232 1.2090454 5.5095215 6.4786377 c 0.44702148 
            6.915039 -13.505554 23.379578 -34.434265 31.467712 c -19.63678 7.5889893 -43.310608 
            8.946777 -47.28961 4.6276855 c -3.979065 -4.319092 3.2138062 -10.643494 3.2138062 
            -10.643494 c 0.0 0.0 11.631165 4.010559 22.956177 2.4680176 c 11.325073 -1.5425415 
            23.317932 -5.1709595 31.373413 -11.260498 c 8.570251 -6.4786377 10.253723 -10.180725 
            11.325012 -13.574341 c 1.0712891 -3.3935547 0.9182739 -9.100952 0.9182739 -9.100952 z"
            style="fill:#ffffff;fill-opacity:1;stroke:none;" onClick="javascript:onPathClick('path3411');"
            class="img-path"/>
        <path id="path3413" d="m 751.57855 761.9834 c 3.8260498 -4.936157 14.691956 -14.345581 
            25.863953 -19.59021 c 11.171997 -5.244629 27.394348 -9.872192 27.394348 -9.872192 c 0.0 
            0.0 2.4320068 14.286438 -17.905823 25.297546 c -20.680908 11.196899 -35.352478 4.164856 
            -35.352478 4.164856 z" style="fill:#ffffff;fill-opacity:1;stroke:none;" onClick="javascript:onPathClick('path3413');"
            class="img-path"/>
        <path id="path3415" d="m 748.5178 764.22003 c 0.0 0.0 7.4224243 3.3165283 13.926697 
            3.0079956 c 6.5042114 -0.3085327 16.145874 -1.61969 24.486511 -6.324402 c 8.340759 
            -4.704773 15.839844 -10.566345 19.130188 -17.816345 c 3.2903442 -7.249878 2.2955933 
            -12.031738 2.2955933 -12.031738 c 0.0 0.0 7.881653 -1.3882446 11.018982 2.0823975 c 
            3.137329 3.4707031 1.9352417 7.8846436 -1.6834717 12.494568 c -5.5094604 7.0185547 
            -20.0484 18.587524 -32.13867 23.600769 c -12.09021 5.0133057 -25.404724 8.2526245 
            -32.597656 6.0930786 c -7.192932 -2.159546 -7.3460083 -4.936157 -7.192932 -6.710022 c 
            0.15301514 -1.7739258 2.7547607 -4.3963013 2.7547607 -4.3963013 z" style=
            "fill:#ffffff;fill-opacity:1;stroke:none;" onClick="javascript:onPathClick('path3415');"
            class="img-path"/>
        <path id="path3417" d="m 598.6047 513.34094 c 0.0 0.0 -27.682373 7.8706055 -39.36975 
            14.415039 c -24.897583 5.5446777 -31.217468 25.152405 -33.745483 37.9541 c 0.0 0.0 
            18.179749 27.920654 32.031372 43.19098 c 13.851746 3.0540771 41.083862 2.4295044 
            41.083862 2.4295044 c 0.0 0.0 -19.876404 5.8570557 -35.459534 3.2393188 c 0.0 0.0 
            18.692139 21.10028 28.33551 30.125732 c 12.120239 11.343689 26.085815 17.330444 
            26.085815 17.330444 c 0.0 0.0 -3.3876343 -36.31366 -2.0889893 -59.873596 c 1.298584 
            -23.559937 6.3206177 -46.700256 6.3206177 -46.700256 z m -91.112915 71.58911 c 
            -6.9259033 34.030945 -20.322388 62.823425 -34.174103 91.6189 c -13.851654 28.795532 
            -56.697144 99.048035 -54.099976 154.8938 c 2.5971985 55.845825 36.330475 84.630554 
            72.25833 113.862305 c 35.927795 29.231812 100.486694 35.794556 100.486694 35.794556 c 
            0.0 0.0 -18.07782 -15.559021 -24.57074 -22.976135 c -6.492981 -7.416931 -12.369202 
            -12.2052 -15.832092 -44.05475 c -3.4629517 -31.84961 28.682068 -81.26422 60.067444 
            -86.98895 c 22.639404 -4.1293945 38.05481 2.156311 62.72815 24.843628 c 24.67334 
            22.687317 69.515686 99.91431 69.515686 99.91431 l 23.354004 -4.8049316 c 0.0 0.0 
            4.755493 -5.6658325 11.248535 -11.3376465 c 6.492981 -5.671936 14.0338745 -8.638184 
            14.0338745 -8.638184 c 0.0 0.0 -53.866394 -22.763855 -82.43555 -51.559326 c -28.569153 
            -28.795532 -44.99408 -59.33362 -44.99408 -59.33362 c 0.0 0.0 -12.548401 1.720459 
            -16.444214 -8.31427 c -3.895752 -10.034912 -29.03186 -112.56665 -29.03186 -112.56665 c 
            -37.22644 -18.106262 -55.849915 -37.09436 -73.59741 -52.801025 c -17.747498 -15.706604 
            -38.512695 -57.552002 -38.512695 -57.552002 z" style=
            "fill:#ffffff;fill-opacity:1;stroke:none;" onClick="javascript:onPathClick('path3417');"
            class="img-path"/>
        <path style="fill:#000000;stroke:none;" id="path3433" d="m 458.80627 774.70514 c 0.0 0.0 
            27.649597 17.253479 74.02002 18.97882 c 44.98297 1.673706 88.737305 -6.1081543 88.737305 
            -6.1081543 c 0.0 0.0 -43.10321 14.352661 -94.581055 10.689209 c -34.909607 -2.484314 
            -68.17627 -23.559875 -68.17627 -23.559875 z"/>
        <path style="fill:#000000;stroke:none;" id="path3435" d="m 495.16693 676.975 c 0.0 0.0 
            23.591187 16.579224 41.122192 16.797363 c 17.531067 0.21820068 50.861694 -3.708435 
            50.861694 -3.708435 c 0.0 0.0 -31.382751 8.289551 -52.80957 6.980652 c -21.426758 
            -1.3088989 -39.174316 -20.06958 -39.174316 -20.06958 z"/>
        <path style="fill:#000000;stroke:none;" id="path3437" d="m 454.91052 852.80194 c 0.0 0.0 
            30.94986 25.305237 54.324554 26.395874 c 23.374725 1.0906982 42.85367 2.1814575 42.85367 
            2.1814575 l 4.3286743 -5.4536743 c 0.0 0.0 -24.45691 2.1815796 -50.21234 -1.7451782 c 
            -25.755463 -3.9266357 -51.294556 -21.378479 -51.294556 -21.378479 z"/>
        <path id="path3439" d="m 621.01483 663.2317 l 6.291931 1.6813354 l -0.7575073 -3.072815 c 
            0.0 0.0 7.026367 -9.952209 19.146545 -13.93335 c 12.120239 -3.9812012 19.424866 
            -0.5453491 19.424866 -0.5453491 l 7.323181 18.42566 c 5.8155518 -0.3085327 10.316101 
            0.06237793 10.316101 0.06237793 l 20.182312 38.284912 l 7.8997803 -3.9266357 c 0.0 0.0 
            -28.897095 -44.505127 -51.241028 -80.7547 c -22.343994 -36.249634 -35.046387 -59.850403 
            -35.046387 -59.850403 c 0.0 0.0 -5.968628 20.052917 -6.121582 54.29724 c -0.15307617 
            34.244324 2.581787 49.33185 2.581787 49.33185 z" style=
            "fill:#ffffff;fill-opacity:1;stroke:none;" onClick="javascript:onPathClick('path3439');"
            class="img-path"/>
        <path id="path3441" d="m 670.1608 815.97217 c 0.0 0.0 13.008484 25.760376 39.02545 51.674927 
            c 26.016968 25.91455 57.696472 42.882507 88.30463 57.22809 c 0.0 0.0 19.283203 
            -6.6328735 29.07782 -1.6967773 c 0.0 0.0 14.232849 -16.04242 31.985535 -44.424988 c 
            17.752808 -28.38269 30.302063 -66.3291 56.013 -91.93518 c 25.710876 -25.60614 74.07184 
            -44.116577 80.19342 -50.903687 c 6.121643 -6.7871704 3.3669434 -31.467773 -3.979065 
            -33.62732 c -7.3459473 -2.159546 -62.440735 -0.9255371 -79.27521 5.244629 c -16.834534 
            6.170166 -72.54144 32.39325 -77.13263 33.010254 c -4.5911865 0.6170654 -7.6520386 
            -2.4680176 -7.6520386 -2.4680176 c 0.0 0.0 -10.253784 20.36145 -36.270752 32.084717 c 
            -26.016968 11.723267 -34.740234 9.563721 -39.331482 7.8669434 c -4.5911865 -1.6967773 
            -7.6520386 -3.7021484 -8.876404 -6.9414673 c -1.2243042 -3.2393188 -14.385803 -40.105896 
            -14.385803 -40.105896 l -9.182495 4.936157 l 14.53894 27.765625 c 0.0 0.0 3.3668823 
            0.46276855 5.050354 4.319092 c 1.6834106 3.8563843 1.4867554 8.094482 -1.6834717 
            13.574341 c -2.6970825 4.6619873 -13.314575 18.664673 -32.597717 25.451782 c -19.283142 
            6.7871704 -33.822083 8.946777 -33.822083 8.946777 z" style=
            "fill:#ffffff;fill-opacity:1;stroke:none;" onClick="javascript:onPathClick('path3441');"
            class="img-path"/>
        <path id="path3455" d="m 750.7738 972.783 c 0.0 0.0 -58.421997 -98.19458 -84.438965 
            -118.24756 c -26.016968 -20.052917 -36.97992 -25.881042 -52.033936 -20.824219 c 
            -42.47644 14.268494 -61.142395 56.224792 -55.859924 91.47241 c 2.4486084 16.196655 
            15.5859375 30.720398 21.578735 36.86664 c 8.723328 8.946716 40.09674 36.86664 60.757263 
            55.377075 c 20.660522 18.510376 60.298157 47.51001 60.298157 47.51001 l -0.45910645 
            -12.648682 c 0.0 0.0 8.417236 35.63257 22.343933 48.74414 c 13.926758 13.11145 33.2099 
            27.457153 53.411316 22.520996 c 20.201416 -4.936035 47.595703 -22.520996 71.776184 
            -66.174805 c 24.180542 -43.653748 32.291687 -63.55249 31.526428 -80.520386 c -0.76519775 
            -16.967896 -9.33551 -19.435913 -9.33551 -19.435913 c 0.0 0.0 1.5304565 12.494507 
            -1.989502 20.052917 c -3.5199585 7.5584106 -13.314575 17.893433 -13.314575 17.893433 c 
            0.0 0.0 15.916321 -23.600769 9.182495 -44.116516 c -6.7337646 -20.515808 -13.773682 
            -18.202026 -16.834534 -18.047668 c -3.060852 0.15423584 -8.417297 1.0797119 -8.417297 
            1.0797119 c 0.0 0.0 7.039917 12.80304 5.3564453 23.909363 c -1.6833496 11.106201 
            -10.712891 22.058289 -10.712891 22.058289 c 0.0 0.0 8.417297 -16.967896 4.5913086 
            -33.010376 c -3.8260498 -16.042297 -8.723389 -21.286987 -22.8031 -20.36139 c -14.079773 
            0.9254761 -25.557861 2.9307861 -34.281128 12.340271 c -8.723389 9.409424 -39.178528 
            58.30786 -39.178528 58.30786 z" style="fill:#ffffff;fill-opacity:1;stroke:none;"
            onClick="javascript:onPathClick('path3455');" class="img-path"/>
        <path id="path3817" d="m 808.96906 1092.2404 c 11.679626 -11.522583 39.178406 -35.478394 
            38.566284 -63.24402 c -0.6121826 -27.765625 -21.731873 -34.552734 -37.03595 -29.616638 c 
            -15.304077 4.936157 -39.48456 21.59552 -52.339966 44.116516 c -12.855469 22.520996 
            -20.507507 43.807983 -18.058838 54.914307 c 2.4486694 11.106201 17.091614 20.318115 
            30.302124 17.276367 c 16.121094 -3.71167 30.128418 -15.12207 38.566345 -23.446533 z"
            style="fill:#ffffff;fill-opacity:1;stroke:none;" onClick="javascript:onPathClick('path3817');"
            class="img-path"/>
        <path id="path3367" d="m 525.4675 134.22383 c 0.0 0.0 33.114197 7.853302 48.048035 13.743286 
            c 14.933899 5.889984 32.464905 12.870712 32.464905 12.870712 c 0.0 0.0 24.88971 
            -18.760696 40.68927 -25.52327 c 15.799622 -6.7625732 29.867737 -10.6892395 29.867737 
            -10.6892395 c 0.0 0.0 0.86572266 -10.034767 0.0 -16.361061 c -0.86572266 -6.326271 
            -1.298584 -13.088844 -3.6793213 -14.615875 c -2.3807983 -1.5270462 -5.194397 -1.5270462 
            -5.194397 -1.5270462 l 1.298584 5.23555 c 0.0 0.0 1.0821533 -0.87259674 1.5150146 
            0.8725891 c 0.43286133 1.7451782 -3.246521 5.0173874 -9.739441 6.980736 c -6.492981 
            1.9633179 -23.374756 7.6351395 -43.2865 6.7625732 c -19.911804 -0.872612 -43.50299 
            1.3088684 -62.981934 8.071442 c -19.478943 6.7625732 -29.001953 14.179604 -29.001953 
            14.179604 z" style="fill:#ffffff;fill-opacity:1;stroke:none;" onClick="javascript:onPathClick('path3367');"
            class="img-path"/>
        <path id="path3377" d="m 481.7674 166.87286 l -13.46756 18.201935 c 0.0 0.0 -5.395996 
            -0.33096313 -10.712891 2.7765656 c -11.883392 6.9453125 -18.058868 28.691177 -18.058868 
            28.691177 c -39.02539 -8.946732 -67.8577 -20.91777 -76.36743 -33.62729 c -7.2607117 
            -10.844131 -8.417206 -15.888138 -3.979065 -19.590225 c 4.438202 -3.7020874 49.43228 
            -8.17543 67.49109 -6.1701508 c 18.058838 2.0052948 55.094727 9.717987 55.094727 9.717987 
            z" style="fill:#ffffff;fill-opacity:1;stroke:none;" onClick="javascript:onPathClick('path3377');"
            class="img-path"/>
        <path style="fill:#000000;fill-opacity:1;stroke:none;" id="path3467" d="m 607.12146 
            72.306694 c -4.7332764 0.0 -8.5703125 4.5158234 -8.5703125 10.095894 c 0.0 5.580078 
            3.8370361 10.0959015 8.5703125 10.0959015 c 1.3061523 0.0 2.5344849 -0.30169678 3.642334 
            -0.91780853 c -4.1275635 -0.06046295 -7.4454346 -3.6051865 -7.4454346 -7.990341 c 0.0 
            -4.4228745 3.3757324 -8.044327 7.5525513 -8.044327 c 1.0267944 0.0 1.9998779 0.25532532 
            2.892517 0.6478729 c -1.5699463 -2.3305511 -3.9213867 -3.8871918 -6.641968 -3.8871918 z"/>
        <path style="fill:#000000;fill-opacity:1;stroke:none;" id="path4239" d="m 636.9567 75.114105 
            c -4.7331543 0.0 -8.570251 4.515831 -8.570251 10.0959015 c 0.0 5.5800705 3.8370972 
            10.0959015 8.570251 10.0959015 c 1.3062744 0.0 2.534546 -0.35569 3.642395 -0.9717941 c 
            -4.1276245 -0.06047058 -7.4454346 -3.605194 -7.4454346 -7.990341 c 0.0 -4.422882 
            3.3757935 -7.990341 7.5525513 -7.990341 c 1.0442505 0.0 2.0412598 0.18864441 2.946045 
            0.5938721 c -1.5697021 -2.336197 -3.9711304 -3.8331985 -6.6955566 -3.8331985 z"/>
        <path id="path3365" d="m 451.10568 128.56299 c -16.015503 -0.050613403 -30.271515 1.5271149 
            -42.20868 4.5350647 c -31.83255 8.021179 -49.547028 26.23854 -49.547028 26.23854 c 0.0 
            0.0 39.186127 -8.64592 83.7211 -3.4013062 c 44.53488 5.244629 75.579254 20.407776 
            75.579254 20.407776 c 0.0 0.0 13.077332 -11.761856 29.299683 -9.448044 c 16.222351 
            2.3138123 22.49701 25.42871 22.49701 25.42871 c 0.0 0.0 18.135376 4.4733734 36.95941 
            11.877533 c 18.823975 7.4041595 39.316162 17.114426 39.316162 17.114426 c 0.0 0.0 
            -9.473206 -7.2961884 -11.4627075 -15.548752 c -1.989563 -8.252579 12.10553 -20.515732 
            12.10553 -20.515732 c 0.0 0.0 -48.39154 -25.960907 -103.48633 -42.003265 c -34.434174 
            -10.0265045 -66.0809 -14.600586 -92.77341 -14.684952 z m 262.46524 89.08148 c 0.0 0.0 
            -27.926086 8.085175 -36.69153 9.394043 c -8.765564 1.3089142 -18.211914 -0.10800171 
            -18.211914 -0.10800171 l 48.261475 28.344116 c 0.0 0.0 -0.649292 -7.9456635 0.0 
            -17.762299 c 0.649292 -9.816635 6.641968 -19.867859 6.641968 -19.867859 z" style=
            "fill:#ffffff;fill-opacity:1;stroke:none;" onClick="javascript:onPathClick('path3365');"
            class="img-path"/>
        <path id="path4639" d="m 672.30927 102.540405 c -11.460388 9.407898 -27.92865 10.325615 
            -42.101624 12.633369 c -30.042542 -0.16861725 -61.155945 0.02885437 -88.695496 13.864677 
            c -7.8361816 2.6522064 -8.174622 5.1111298 1.0670166 5.9281464 c 21.722595 5.043045 
            42.281982 13.638992 62.935364 21.940506 c 20.365479 -15.763336 42.975647 -28.18219 
            67.75885 -34.984726 c 0.50982666 -6.553833 0.1671753 -13.272057 -0.9641113 -19.381973 z"
            style="fill:#ffffff;fill-opacity:1;stroke:none;" onClick="javascript:onPathClick('path4639');"
            class="img-path"/>
        <path id="path4659" d="m 496.7789 62.156803 c -9.5868225 8.192814 -16.127258 19.706783 
            -15.158691 32.717197 c -0.9341736 5.4993515 -0.5378113 26.6595 -4.4186096 21.228676 c 
            -2.357788 -4.434578 -4.4578247 -9.16806 -4.8480225 -14.156143 c -4.9667664 6.1117477 
            -7.469818 13.673096 -11.569916 20.245789 c 11.269531 -0.23881531 24.301544 2.102768 
            34.388306 2.8613968 c -5.2072754 -16.403473 -5.9902954 -35.021347 -2.0890198 -51.829224 
            c 1.1434631 -3.4151077 3.317627 -8.480171 3.6959534 -11.067692 z" style=
            "fill:#ffffff;fill-opacity:1;stroke:none;" onClick="javascript:onPathClick('path4659');"
            class="img-path"/>
        <path id="path4749" d="m 650.56213 226.87653 c 0.0 0.0 -1.0636597 10.473831 -0.9105835 
            15.872711 c 0.15301514 5.3988647 0.015380859 19.459076 23.88971 41.517334 c 22.53479 
            20.820618 45.459167 21.869324 47.99359 21.919464 c 13.368042 -3.7574768 29.674622 
            -13.389221 29.674622 -13.389221 c 0.0 0.0 -6.3151855 -2.2120972 -12.855408 -4.5350647 c 
            0.03173828 0.013824463 0.37493896 0.16189575 0.37493896 0.16189575 c -14.462402 
            -2.4680786 -20.844177 -7.111084 -25.28241 -12.201477 c -4.4381714 -5.090271 -5.035034 
            -16.034576 -5.035034 -16.034576 l -57.849426 -33.311066 z" style=
            "fill:#ffffff;fill-opacity:1;stroke:none;" onClick="javascript:onPathClick('path4749');"
            class="img-path"/>
        <path id="path4763" d="m 751.85223 160.2544 c -12.683838 -0.17086792 -40.200012 5.6688385 
            -56.135376 10.79776 c -18.211853 5.8616333 -34.457153 12.332565 -43.333557 16.034653 c 
            -8.876343 3.7021027 -13.13092 12.502258 -13.283936 18.518158 c -0.15307617 6.0158997 
            7.4837036 11.268219 13.605286 15.278824 c 6.121704 4.0105896 13.766052 3.9951782 
            33.049194 -0.3239441 c 19.283203 -4.319092 46.975952 -12.795334 46.975952 -12.795334 c 
            0.0 0.0 -0.5292969 0.28962708 -0.5892334 0.32392883 l 2.6246338 -1.1337585 l 44.512024 
            -7.072525 c -0.35754395 -2.0259857 -0.76776123 -4.4156647 -1.0713501 -6.154724 c 
            -2.9077148 -16.659378 -12.878296 -30.72731 -21.907715 -33.041122 c -1.1286621 
            -0.28923035 -2.6339111 -0.40751648 -4.445923 -0.43191528 z" style=
            "fill:#ffffff;fill-opacity:1;stroke:none;" onClick="javascript:onPathClick('path4763');"
            class="img-path"/>
        <path id="path4776" d="m 742.4326 208.67561 c -7.75885 1.0778046 -22.037903 5.553116 
            -26.476135 24.834839 c -4.4381714 19.281708 -1.8364868 34.24431 3.6729736 38.717667 c 
            5.5095215 4.473358 12.090271 11.106262 20.507507 14.191315 c 8.417236 3.0850525 
            25.710815 0.3085022 29.536926 -4.473358 c 3.8260498 -4.7818604 9.182373 -22.058258 
            9.947632 -32.70175 c 0.76519775 -10.643509 0.45910645 -32.084763 -7.192932 -37.32939 c 
            -7.6520386 -5.2446136 -20.105713 -4.613205 -29.995972 -3.2393188 z" style=
            "fill:#ffffff;fill-opacity:1;stroke:none;" onClick="javascript:onPathClick('path4776');"
            class="img-path"/>
        <path id="path4786" d="m 665.3 548.65063 c 0.0 0.0 -25.710876 -61.393005 -5.5094604 
            -86.38208 c 20.201416 -24.989075 33.362915 -31.15921 48.666992 -39.797394 c 15.304077 
            -8.638214 45.91223 -26.840149 45.91223 -26.840149 c 0.0 0.0 29.07782 8.021179 35.199524 
            28.074158 c 6.121582 20.053009 -3.060852 34.86133 -28.159607 48.74414 c -25.098694 
            13.882843 -96.10968 76.201324 -96.10968 76.201324 z" style=
            "fill:#ffffff;fill-opacity:1;stroke:none;" onClick="javascript:onPathClick('path4786');"
            class="img-path"/>
        <path id="path4804" d="m 828.1355 746.4038 c 12.652039 -1.8493042 78.0509 -34.552856 
            89.98816 -36.712402 c 11.937134 -2.159546 70.09271 -5.8616333 72.54132 -4.01062 c 
            2.4487305 1.8510742 5.8155518 14.191345 4.897339 19.435974 c -0.9182739 5.244629 
            -2.7546997 8.946716 -9.488525 12.031799 c -6.7338257 3.085083 -64.889404 32.084717 
            -74.37793 45.65912 c -9.488525 13.57428 -17.446716 16.042358 -25.404785 32.39325 c 
            -7.95813 16.35083 -18.364868 37.637817 -30.302124 57.073853 c -11.937134 19.435913 
            -34.58728 44.73358 -34.58728 44.73358 l -74.99005 -98.41388 c 0.0 0.0 58.5567 -47.3078 
            81.72388 -72.190674 z" style="fill:#ffffff;fill-opacity:1;stroke:none;" onClick="javascript:onPathClick('path4804');"
            class="img-path"/>
        <path id="path4913" d="m 496.29684 533.47876 c -5.404419 7.8011475 3.1256714 17.130737 
            5.397003 24.774963 c 21.481323 41.746216 47.42804 82.67786 86.78174 109.322205 c 
            8.892883 6.4796753 18.000305 12.190369 27.644653 17.395325 c 6.1120605 -3.4559937 
            16.578918 -13.128235 3.8030396 -14.199036 c -27.177795 -6.5792236 -43.928772 -31.44934 
            -62.58075 -50.417725 c -24.10608 -25.934448 -42.56848 -57.617737 -61.045685 -86.87573 z"
            style="fill:#ffffff;fill-opacity:1;stroke:none;" onClick="javascript:onPathClick('path4913');"
            class="img-path"/>
        <path id="path4915" d="m 606.0502 507.2942 c 29.138 57.668396 60.21228 114.390686 96.517334 
            168.10211 c 3.3985596 4.295166 15.358093 26.317871 9.816467 12.114136 c -0.44714355 
            -8.640808 -12.882141 -21.743896 -4.626709 -27.151367 c -43.00299 -54.727478 -69.77197 
            -119.89014 -97.047 -183.62253 c -1.5534058 10.185913 -3.1067505 20.371765 -4.660095 
            30.557648 z" style="fill:#ffffff;fill-opacity:1;stroke:none;" onClick="javascript:onPathClick('path4915');"
            class="img-path"/>
        <path id="path5010" d="m 749.02576 976.7098 l -22.292603 62.608337 c 0.0 0.0 -160.37653 
            -118.89038 -159.078 -142.01404 c 1.298645 -23.123657 24.240479 -51.482788 44.152283 
            -56.282043 c 19.911804 -4.7993164 43.2865 5.671753 56.272522 23.123596 c 12.985901 
            17.451843 80.9458 112.56415 80.9458 112.56415 z" style=
            "fill:#ffffff;fill-opacity:1;stroke:none;" onClick="javascript:onPathClick('path5010');"
            class="img-path"/>
        <path id="path5020" d="m 747.94354 1000.70605 c 10.739868 -27.30841 35.88275 -61.84857 
            41.771423 -65.2262 c 7.835205 -4.4939575 23.374756 -8.289612 33.76361 -5.017395 c 
            10.256409 3.2305908 13.635132 17.888184 13.2022705 23.778076 c -0.43286133 5.8900146 
            -1.2984619 17.888184 -5.194275 26.832214 c -3.895813 8.944031 -59.30255 30.75879 
            -70.34064 30.10437 c -11.038086 -0.654541 -15.26593 -5.22406 -13.202393 -10.471069 z"
            style="fill:#ffffff;fill-opacity:1;stroke:none;" onClick="javascript:onPathClick('path5020');"
            class="img-path"/>
        <path id="path5038" d="m 839.71094 935.9162 c 0.0 0.0 7.0340576 -2.7268677 11.903809 
            -0.54541016 c 4.869751 2.1815186 10.388733 12.652588 12.011963 20.39679 c 1.623291 
            7.7442627 -1.0820923 19.197021 -3.3546143 24.541687 c -2.272522 5.3446655 -10.28064 
            16.361084 -10.28064 16.361084 l -18.82959 -10.034851 c 0.0 0.0 5.4108276 -9.16217 
            8.981934 -16.361023 c 3.571106 -7.1988525 5.0862427 -13.197937 4.545044 -18.324463 c 
            -0.54107666 -5.126404 -4.9779053 -16.033813 -4.9779053 -16.033813 z" style=
            "fill:#ffffff;fill-opacity:1;stroke:none;" onClick="javascript:onPathClick('path5038');"
            class="img-path"/>
        <path style=
            "fill:#000000;stroke:#000000;stroke-width:5;stroke-miterlimit:4;stroke-dasharray:none;stroke-opacity:1;"
            id="path4243" d="m 414.54587 320.19464 c 0.0 0.0 -9.523041 4.144806 -13.851715 11.779968 
            c -4.3286743 7.6351624 -3.6793823 22.032898 -3.6793823 22.032898 c 0.0 0.0 -19.468231 
            1.2090454 -34.160187 -3.8813171 c -14.691895 -5.0903625 -52.493042 -27.457153 -82.02994 
            -28.38269 c -29.536896 -0.9255066 -48.51396 -2.9307861 -72.23534 16.505157 c -23.721329 
            19.435974 -27.394333 44.579285 -28.924744 57.53662 c -1.5303955 12.957275 -3.9790497 
            31.004974 7.039917 48.74414 c 11.018936 17.739136 17.752716 24.063538 28.312546 
            26.685883 c 10.559845 2.6223145 26.32306 1.3882446 26.32306 1.3882446 c 0.0 0.0 
            2.4486542 26.37738 14.232819 29.925201 c 11.784149 3.5478516 17.752747 -14.345551 
            17.752747 -14.345551 c 0.0 0.0 28.771698 17.276367 46.218353 20.669983 c 17.446686 
            3.3935852 32.597717 2.9307861 32.597717 2.9307861 c 0.0 0.0 3.8260498 20.82431 17.599731 
            21.13272 c 13.773651 0.3085327 17.752747 -23.90924 17.752747 -23.90924 c 0.0 0.0 
            27.394318 -3.547882 44.841003 -7.866974 c 17.446655 -4.319092 41.47406 -14.191284 
            41.47406 -14.191284 c 0.0 0.0 16.488007 27.39682 22.22348 37.86789 c 5.7354126 10.471069 
            19.695343 38.93933 41.446808 47.010803 c 17.498352 6.493225 32.57312 2.2905273 37.01001 
            0.10900879 c 4.4368286 -2.1814575 15.691345 -13.961426 22.29248 -26.395874 c 6.6011963 
            -12.434387 13.094238 -24.541565 23.05011 -44.611176 c 9.955872 -20.06958 27.270508 
            -45.374695 38.524963 -62.826508 c 11.254517 -17.451782 30.94989 -58.463562 20.561096 
            -85.950134 c -10.388733 -27.486603 -19.478943 -32.722168 -25.539001 -36.430634 c 
            -6.0601196 -3.7085266 -8.657288 -5.453705 -8.657288 -5.453705 c 0.0 0.0 -3.1383057 
            -20.39679 -0.8657837 -42.320618 c 2.2486572 -21.69342 4.9780273 -42.538788 4.9780273 
            -42.538788 c -61.034058 -25.741425 -163.19022 -42.538803 -181.8034 -39.92102 c -18.61319 
            2.6177826 -24.605255 20.178726 -28.352661 32.503998 c -8.224487 27.050293 -14.825653 
            62.717407 -24.132233 102.20215 z"/>
        <path id="path3381" d="m 485.57516 167.66331 c 0.0 0.0 10.0208435 2.0976715 14.565918 
            4.1181335 c 4.545105 2.0204468 16.236298 6.603531 16.236298 6.603531 l -14.717438 
            22.716446 c 0.0 0.0 14.500946 -20.586746 25.214447 -26.593521 c 10.713379 -6.0067444 
            16.98993 -6.115967 21.534973 -4.80542 c 4.545166 1.3105927 12.120239 6.989685 15.691406 
            15.945236 c 3.571106 8.955505 7.2504883 21.842697 8.332642 29.487656 c 1.0822144 
            7.6449585 1.947876 15.399155 1.947876 15.399155 c 0.0 0.0 0.75756836 -21.405884 
            -2.921814 -35.71289 c 0.0 0.0 36.793518 12.231964 42.52899 15.399139 c 5.7354736 
            3.1671906 32.78955 14.743835 32.78955 14.743835 c 0.0 0.0 -5.0861816 20.095337 
            -6.6011963 45.432907 c -1.5150146 25.337585 0.0 38.880066 0.0 38.880066 l -14.068115 
            1.0921326 c 0.0 0.0 19.046082 0.65530396 30.73346 13.542511 c 11.687378 12.887207 
            18.61316 28.395569 19.695374 40.845978 c 1.0821533 12.450287 -6.9259033 45.651276 
            -19.478943 67.27557 c -12.553101 21.624329 -33.97998 50.23831 -41.987976 67.49408 c 
            -8.007996 17.255768 -27.270508 62.68863 -44.585083 69.89676 c -17.314575 7.20813 
            -38.308594 -0.87371826 -44.152283 -7.6449585 c -5.843689 -6.77124 -13.418762 -13.760925 
            -23.807556 -32.32727 c -10.388763 -18.566315 -23.591187 -43.90387 -23.591187 -43.90387 l 
            7.5751953 -3.7132874 c 0.0 0.0 16.665283 34.511505 22.508942 44.122345 c 5.8437195 
            9.610779 14.068146 26.211304 21.42685 28.395569 c 7.3587036 2.1842651 17.314575 
            3.9317017 25.32257 0.0 c 8.008057 -3.9317017 23.374756 -20.75055 26.837708 -35.822144 c 
            3.4628906 -15.071442 9.30658 -30.361359 12.76947 -49.364563 c 3.4629517 -19.003204 
            16.448853 -104.190094 16.448853 -104.190094 c 9.955933 -0.21813965 25.106262 1.0949097 
            33.54712 5.894165 c -3.6793823 -7.4170227 -19.911804 -17.47055 -40.25647 -13.757294 c 
            -20.344666 3.7132263 -37.44287 17.692627 -37.44287 17.692627 c 0.0 0.0 24.88977 
            -9.826172 32.248474 -8.517303 c 0.0 0.0 -9.52301 25.991486 -27.486938 46.305237 c 
            -17.963867 20.313751 -58.600403 51.76819 -80.08005 61.814972 c -31.501282 14.734192 
            -55.760864 22.268616 -75.45621 26.418701 c -19.695374 4.150116 -62.82596 11.272888 
            -93.15564 4.7259216 c -36.16159 -7.805847 -99.897934 -54.36383 -99.897934 -54.36383 c 
            0.0 0.0 4.3229675 12.204712 18.861847 17.765015 c -8.723343 0.4633484 -27.378204 
            1.744812 -37.76332 -7.873932 c -17.731491 -16.422882 -25.120544 -32.36972 -20.46965 
            -69.50003 c 4.1754913 -33.335175 29.10373 -65.41196 70.13057 -66.87433 c 62.86502 
            -2.2408142 90.16629 30.011536 124.46011 32.283447 c 28.59375 1.8942261 65.05646 
            -6.2373962 72.73224 -21.928986 c 6.7761536 -13.85257 14.291565 -30.629944 17.178406 
            -52.819336 c 2.3597412 -18.13794 8.924042 -58.25229 -5.43454 -60.914734 c -18.342133 
            -3.4010925 -23.78012 36.621033 -27.960999 61.33905 c -4.180908 24.71814 -1.2313538 
            38.815735 -1.2313538 38.815735 c 0.0 0.0 -3.3290405 0.15737915 -7.614197 3.246582 c 
            14.339691 -1.2045898 21.45581 9.741333 21.45581 9.741333 c -10.253693 16.217407 
            -46.631958 18.220581 -46.631958 18.220581 c 0.0 0.0 -5.959198 -21.58377 16.23175 
            -29.924133 c 9.947723 -33.51602 10.709717 -56.85623 17.609192 -80.73877 c 6.899475 
            -23.882523 12.211548 -46.85681 28.934174 -53.091904 c 9.259338 -3.4524078 13.247528 
            7.916382 19.75177 21.430878 c 0.0 0.0 -0.7463074 -21.003815 -11.765259 -24.556168 z"
            style="fill:#ffffff;fill-opacity:1;stroke:none;" onClick="javascript:onPathClick('path3381');"
            class="img-path"/>
        <path id="path4380" d="m 467.58633 188.32855 c -1.0078735 -0.0069122314 -2.1099854 
            0.16238403 -3.2674255 0.5938721 c -16.722626 6.235092 -22.025269 29.242432 -28.924713 
            53.124954 c -6.8995056 23.882523 -7.6750183 47.19719 -17.62265 80.71321 c -22.190948 
            8.340363 -16.230011 29.90979 -16.230011 29.90979 c 0.0 0.0 36.400818 -1.9768372 46.65451 
            -18.194244 c 0.0 0.0 -7.1395874 -10.976532 -21.479279 -9.771942 c 4.2851257 -3.089203 
            7.60614 -3.2393188 7.60614 -3.2393188 c 0.0 0.0 -2.948944 -14.099823 1.2319946 
            -38.817963 c 4.180847 -24.718018 9.618408 -64.7323 27.960571 -61.331223 c 7.9456787 
            1.4733429 9.502167 14.435852 8.891663 28.776001 c 3.3339539 -14.909317 8.491394 
            -36.620895 9.159515 -44.97264 c -4.392151 -9.348221 -8.036682 -16.750092 -13.980316 
            -16.790497 z" style="fill:#ffffff;fill-opacity:1;stroke:none;" onClick="javascript:onPathClick('path4380');"
            class="img-path"/>
        <path id="path4275" d="m 497.531 211.88435 c 5.517639 -15.376022 18.180298 -32.503998 
            30.94989 -38.393967 c 12.08374 -5.5736847 21.030396 -5.858841 26.621155 -1.0907288 c 
            8.440857 7.198868 13.418884 16.361069 16.665344 39.484695 c 3.24646 23.123657 3.4628906 
            46.68358 3.6793213 48.210617 c 0.21643066 1.5270386 -59.30249 29.231781 -73.154236 
            8.725922 c -13.851654 -20.505905 -11.75946 -37.435257 -4.7614746 -56.93654 z" style=
            "fill:#ffffff;fill-opacity:1;stroke:none;" onClick="javascript:onPathClick('path4275');"
            class="img-path"/>
        <path style="fill:#000000;stroke:none;" id="path3387" d="m 529.7962 356.73438 l -0.21643066 
            6.544403 c 0.0 0.0 8.440857 -11.125519 18.396729 -17.015503 c 9.955933 -5.889984 
            34.845642 -14.179596 34.845642 -14.179596 l -24.456848 4.362976 c 0.0 0.0 7.791565 
            -31.19513 6.0601196 -61.95392 c -1.7315063 -30.75882 -2.3807373 -68.93463 -31.599121 
            -70.24353 c -27.058563 -1.2121277 -47.182343 38.612137 -49.99597 71.11609 c -2.8136292 
            32.503998 4.9779663 67.18948 9.523041 71.5524 c 4.545105 4.3630066 15.150269 6.7626038 
            20.993988 7.635193 c 5.843628 0.8725891 16.448853 2.181488 16.448853 2.181488 z"/>
        <path id="path4273" d="m 434.2322 248.31499 c 5.1943665 -16.797333 8.974213 -36.212494 
            15.683685 -47.338013 c 5.5848083 -9.260742 13.06604 -13.837219 18.180328 -12.870697 c 
            6.925812 1.3088684 15.734833 17.723572 15.799561 27.050293 c 0.32455444 46.79268 
            -10.294067 31.303543 -11.092163 19.360611 c -0.40585327 -6.0731506 -3.73349 -13.143402 
            -10.767548 -13.470612 c -7.0935974 -0.3300171 -15.047516 5.069153 -20.362274 27.5663 c 
            -1.2094727 5.1198425 -7.4415894 -0.29788208 -7.4415894 -0.29788208 z" style=
            "fill:#ffffff;fill-opacity:1;stroke:none;" onClick="javascript:onPathClick('path4273');"
            class="img-path"/>
        <path id="path3385" d="m 531.52765 354.11658 c 7.3587036 -9.053131 20.993958 -14.397736 
            20.993958 -14.397736 c 0.0 0.0 9.739502 -27.922882 7.791565 -63.480927 c -1.947876 
            -35.55806 -3.4628906 -56.28206 -15.1502075 -63.480957 c -11.687378 -7.1988525 -21.42688 
            -4.1447906 -28.13623 0.43632507 c -6.7094727 4.581085 -26.188416 25.08696 -29.867737 
            63.044632 c -3.6793823 37.957672 4.977936 64.571686 9.955902 69.37094 c 4.977936 
            4.799225 34.41275 8.507721 34.41275 8.507721 z" style="fill:#ffffff;stroke:none;"
            onClick="javascript:onPathClick('path3385');" class="img-path"/>
        <path id="path4409" d="m 529.61383 212.02962 c -17.636414 2.4107056 -27.156342 21.617615 
            -32.66803 36.588806 c -10.48642 28.48384 -10.622803 61.971146 0.20806885 90.55473 c 
            3.624878 9.566437 23.49353 8.3089905 33.19458 11.021454 c 6.336487 -4.517975 8.677856 
            -8.45813 14.477661 -10.643524 c 9.418213 -3.5487366 8.411194 -16.31665 10.018066 
            -24.975342 c 5.18396 -27.934448 2.1217651 -57.46277 -3.1082153 -85.323715 c -1.9876099 
            -10.587891 -11.463928 -18.679245 -22.122131 -17.222412 z" style=
            "fill:#ffffff;fill-opacity:1;stroke:none;" onClick="javascript:onPathClick('path4409');"
            class="img-path"/>
        <path id="path3389" d="m 437.0548 322.3761 c 7.5751953 2.3996277 12.769531 9.053131 
            12.769531 9.053131 c 0.0 0.0 12.769562 -22.578278 15.907806 -47.883392 c 3.1382751 
            -25.305115 5.8436584 -52.028183 -1.4068298 -57.481888 c -7.250458 -5.453705 -14.500977 
            8.398682 -16.881744 16.142914 c -2.3807068 7.744232 -8.627289 31.972763 -10.280518 
            47.992477 c -1.1184082 10.837677 -1.1939392 24.31778 -0.108184814 32.176758 z" style=
            "fill:#ffffff;stroke:none;" onClick="javascript:onPathClick('path3389');" class="img-path"/>
        <path id="path3391" d="m 490.18903 479.98773 c 0.0 0.0 11.470917 26.177704 19.262482 39.2666 
            c 7.7915955 13.088806 11.038055 21.814758 18.180328 28.79541 c 1.5150757 -15.924683 
            4.1122437 -50.39206 11.903809 -61.299408 c 12.143066 -16.998962 23.591125 -15.7066345 
            23.591125 -15.7066345 c 0.0 0.0 8.008057 -9.162231 14.933899 -12.652557 c 6.9258423 
            -3.490387 15.366699 -5.453705 15.366699 -5.453705 l 12.985962 -83.11423 c 0.0 0.0 
            -12.120239 25.086975 -22.941895 38.175842 c -10.821594 13.088867 -43.93579 42.102478 
            -60.168213 53.009888 c -16.232483 10.907349 -33.114197 18.97879 -33.114197 18.97879 z"
            style="fill:#ffffff;fill-opacity:1;stroke:none;" onClick="javascript:onPathClick('path3391');"
            class="img-path"/>
        <path id="path3393" d="m 560.09674 476.0611 c -3.6793213 1.3088379 -14.500916 4.799225 
            -19.911804 17.233612 c -5.4107666 12.434448 -9.090149 55.845795 -9.090149 55.845795 c 
            0.0 0.0 10.172363 7.635193 20.777527 2.6177368 c 10.605225 -5.017395 21.859741 
            -18.106201 24.67334 -27.704712 c 2.8135986 -9.598511 16.448914 -66.97128 16.448914 
            -66.97128 c 0.0 0.0 -20.128235 4.144806 -29.867737 20.94217 c -9.739441 16.797363 
            -11.254517 36.212463 -11.254517 36.212463 c 0.0 0.0 -2.1643066 -21.378418 8.224426 
            -38.17578 z" style="fill:#ffffff;stroke:none;" onClick="javascript:onPathClick('path3393');"
            class="img-path"/>
        <path id="path4397" d="m 460.56943 228.33421 c -6.9852905 -0.16481018 -14.070129 23.264954 
            -17.120209 36.747055 c -4.110962 18.171082 -8.654633 38.844482 -3.0811768 56.306458 c 
            1.3774109 4.3155518 8.723694 8.239075 11.684631 0.69415283 c 10.7052 -27.278076 
            14.7907715 -54.724823 13.008484 -83.78285 c -0.16262817 -2.6525726 -0.14639282 -9.862274 
            -4.4917297 -9.964813 z" style="fill:#ffffff;fill-opacity:1;stroke:none;" onClick="javascript:onPathClick('path4397');"
            class="img-path"/>
        <path id="path4342" d="m 448.61722 345.3907 c -15.427399 10.50531 -58.003876 23.996246 
            -93.06601 10.03479 c -35.062042 -13.961456 -79.214294 -33.158417 -106.4848 -26.614014 c 
            -27.270508 6.544403 -60.16826 30.10437 -62.332565 71.98868 c -2.1643372 41.88437 
            30.300537 41.01178 41.122177 47.992493 c 10.82164 6.980713 64.064026 43.629486 99.12616 
            51.04651 c 35.062042 7.4170227 123.99927 -19.71698 146.30838 -56.282043 c 16.70514 
            -27.379974 4.2246094 -117.84448 -24.67334 -98.16641 z" style=
            "fill:#ffffff;fill-opacity:1;stroke:none;" onClick="javascript:onPathClick('path4342');"
            class="img-path"/>
        <path id="path4332" d="m 515.27844 397.7461 c 5.284607 -18.848938 12.553101 -36.212494 
            33.33069 -48.210632 c 20.777466 -11.998138 28.422363 -14.65979 73.587036 -29.66806 c 
            19.228943 -6.3898315 38.092163 8.725891 45.234436 25.523254 c 7.142212 16.797363 
            7.3586426 20.72403 1.5150146 40.57544 c -5.843689 19.85144 -17.098145 37.085083 
            -28.569092 30.97696 c -11.470947 -6.108124 14.933838 -44.283966 3.246521 -52.573547 c 
            -11.687378 -8.289612 -22.941895 -12.870697 -37.44287 -10.25293 c -14.500977 2.6177673 
            -34.19635 8.944031 -39.174316 17.888062 c -4.9779663 8.944092 -8.007996 26.832153 
            -19.04602 37.303284 c -11.038086 10.471039 -21.64331 23.123627 -31.16632 14.834015 c 
            -9.523041 -8.289612 -3.8928223 -17.914673 -1.5150146 -26.395844 z" style=
            "fill:#ffffff;fill-opacity:1;stroke:none;" onClick="javascript:onPathClick('path4332');"
            class="img-path"/>
        <path id="path4370" d="m 228.215 448.38577 c 0.0 0.0 56.625153 40.105927 84.17255 46.584564 
            c 27.547363 6.4786377 67.03189 10.180756 119.67801 -5.244629 c 52.646057 -15.425354 
            99.17053 -43.49951 127.63611 -72.80771 c 28.465637 -29.308167 36.423767 -47.5101 
            36.423767 -47.5101 c 0.0 0.0 -128.86746 25.012482 -174.46667 37.63788 c -52.04831 
            14.411041 -161.28073 17.822693 -193.44376 41.339996 z" style=
            "fill:#ffffff;fill-opacity:1;stroke:none;" onClick="javascript:onPathClick('path4370');"
            class="img-path"/>
        <path style="fill:#000000;stroke:none;" id="path3443" d="m 276.99863 381.74817 c 0.0 0.0 
            16.375397 -8.946716 28.159546 7.558441 c 11.784149 16.505127 16.069305 33.010254 
            12.855469 43.036743 c -3.2138977 10.026489 -14.232819 14.654083 -19.74231 13.728607 c 
            -5.5094604 -0.9255676 -14.095856 -9.216003 -17.29361 -23.60086 c -2.6640625 -11.984039 
            -3.6052246 -32.154694 7.039856 -39.797394 c -3.2400818 -1.2912292 -8.294128 -0.9739075 
            -11.018951 -0.9255371 z"/>
        <path style="fill:#000000;stroke:none;" id="path3445" d="m 243.63571 366.0143 c -10.406784 
            0.6170044 -18.977097 4.0105896 -29.996048 19.435974 c -11.53273 16.144592 -10.406769 
            27.14862 -9.182434 32.701782 c 1.2243042 5.5531006 4.4381714 9.717957 11.171997 9.409454 
            c 6.73378 -0.3085327 13.773666 -7.2499084 16.987549 -12.648773 c 3.2138367 -5.3988953 
            7.3459473 -26.068909 6.5807343 -32.547577 c -0.7651825 -6.4786377 -5.5094757 -11.260498 
            -5.5094757 -11.260498 c 0.0 0.0 3.5199432 -2.9308167 9.947678 -5.0903625 z"/>
        <path id="path3447" d="m 291.69058 383.59924 c 0.0 0.0 4.095398 0.341156 7.3459473 4.0105896 
            c 3.8260193 4.319092 10.865906 16.659393 13.161499 24.526337 c 2.2956238 7.866913 
            1.3773804 20.207184 -2.7546997 24.217804 c -4.1321106 4.0105896 -8.64386 6.1577454 
            -12.549377 4.0105896 c -5.050354 -2.7765808 -9.029388 -4.627594 -12.396301 -15.888153 c 
            -3.3669128 -11.260468 -2.2939758 -25.271332 -0.15304565 -31.313446 c 2.2955933 -6.478668 
            7.3459473 -9.563721 7.3459473 -9.563721 z" style=
            "fill:#ffffff;fill-opacity:1;stroke:none;" onClick="javascript:onPathClick('path3447');"
            class="img-path"/>
        <path id="path3449" d="m 230.62723 372.80148 c 0.0 0.0 4.4381714 3.8563538 4.8973236 
            9.100952 c 0.4591217 5.244629 -0.765213 20.207245 -4.5912323 28.38266 c -3.8260498 
            8.175476 -9.794647 12.80304 -15.610199 12.957306 c -5.8155365 0.15429688 -8.11116 
            -5.3988647 -8.570282 -9.563721 c -0.4591217 -4.1648254 1.2243195 -13.882843 5.35643 
            -20.669952 c 4.1321106 -6.7871704 8.570282 -12.340332 12.0902405 -15.888153 c 3.5199432 
            -3.5478516 6.427719 -4.319092 6.427719 -4.319092 z" style=
            "fill:#ffffff;fill-opacity:1;stroke:none;" onClick="javascript:onPathClick('path3449');"
            class="img-path"/>
        <path id="path3463" d="m 245.93134 470.90674 l 23.87439 14.345642 c 0.0 0.0 -1.8364868 
            14.499817 -11.325043 13.8828125 c -9.488525 -0.6170044 -12.549347 -28.228455 -12.549347 
            -28.228455 z" style="fill:#ffffff;fill-opacity:1;stroke:none;" onClick="javascript:onPathClick('path3463');"
            class="img-path"/>
        <path id="path3465" d="m 356.27383 511.62976 l 25.863922 -1.6968079 c 0.0 0.0 -4.2851257 
            19.744476 -12.549316 20.053009 c -8.264221 0.30847168 -13.314606 -18.356201 -13.314606 
            -18.356201 z" style="fill:#ffffff;fill-opacity:1;stroke:none;" onClick="javascript:onPathClick('path3465');"
            class="img-path"/>
        <path id="path4319" d="m 486.49457 481.81152 l -7.552582 3.7252197 c 0.0 0.0 13.179565 
            25.326538 23.568329 43.892883 c 10.388794 18.566345 17.992432 25.567993 23.83612 
            32.339233 c 5.843628 6.7713013 26.822388 14.874512 44.137024 7.666443 c 6.570923 
            -2.7355347 13.408325 -10.993042 19.818787 -21.10962 l -16.122864 -12.147461 c -5.978882 
            8.624329 -13.559326 15.8046875 -18.426147 18.194214 c -8.007996 3.9317017 -17.923645 
            2.1842651 -25.282349 0.0 c -7.3587036 -2.1842651 -15.582092 -18.787354 -21.42572 
            -28.398132 c -5.8437195 -9.61084 -22.550598 -44.16278 -22.550598 -44.16278 z" style=
            "fill:#ffffff;fill-opacity:1;stroke:none;" onClick="javascript:onPathClick('path4319');"
            class="img-path"/>
        <path d="m 545.6869 289.3076 a 12.899088 25.322298 0.0 1 1 -25.798218 0.0 a 12.899088 
            25.322298 0.0 1 1 25.798218 0.0 z" id="path3421" style=
            "fill:#000000;fill-opacity:1;stroke:none"/>
        <path d="m 543.39264 289.3294 a 10.604878 20.818516 0.0 0 1 -21.209717 0.0 a 10.604878 
            20.818516 0.0 1 1 21.209717 0.0 z" id="path3423" style=
            "fill:#ffffff;fill-opacity:1;stroke:none" onClick="javascript:onPathClick('path3423');"
            class="img-path"/>
        <path d="m 461.9608 289.80374 a 6.484682 17.02139 4.354165 1 1 -12.930237 -0.9923401 a 
            6.484682 17.02139 4.354165 0 1 12.930237 0.9923401 z" id="path3427"
             style="fill:#000000;stroke:none"/>
        <path d="m 460.81042 290.6276 a 5.3313236 13.993986 4.3541656 0 1 -10.630463 -0.8158264 a 
            5.3313236 13.993986 4.3541656 1 1 10.630463 0.8158264 z" id="path3429"
             style="fill:#ffffff;fill-opacity:1;stroke:none"
            onClick="javascript:onPathClick('path3429');" class="img-path"/>
    </g>
</svg>