<?xml version="1.0" standalone="no"?>
<!--Created with Sketsa SVG Editor (http://www.kiyut.com)-->
<svg contentScriptType="text/ecmascript" width="600.0px" xmlns:xlink="http://www.w3.org/1999/xlink"
    baseProfile="full" zoomAndPan="magnify" contentStyleType="text/css" height="800.0px"
    preserveAspectRatio="xMidYMid meet" xmlns="http://www.w3.org/2000/svg" version="1.0">
    <g id="layer1" transform="matrix(0.50185424 0.0 0.0 0.50185424 -7.8200674 -18.863792)">
        <g id="g4879" transform="matrix(1.0722065,0,0,1.0722065,-41.606348,-43.871613)">
            <path style=
                "fill:#000000;stroke:#000000;stroke-width:5;stroke-linejoin:round;stroke-miterlimit:4;stroke-opacity:1;stroke-dasharray:none;"
                id="path3977" d="m 1025.3501 378.52475 c -18.72406 0.97979736 -25.637451 21.45877 
                -27.878418 36.42752 c -5.5249023 36.903748 -29.405762 68.272125 -51.622314 97.63623 
                c -4.8376465 -22.187012 -13.167725 -48.445282 -37.89972 -57.20584 c -21.53418 
                -7.627838 -50.144592 -4.856415 -62.453735 15.95163 c -10.130859 17.125732 -5.1466064 
                36.962982 8.311401 50.20111 c 9.027649 8.880127 26.128174 19.840454 28.268066 
                27.462952 c 3.5565186 12.668396 -14.22052 23.823242 -13.890259 49.866272 c 
                -35.406372 19.718872 -46.737 43.92224 -40.791626 70.11835 c -45.30896 27.950012 
                -78.05719 52.23004 -115.181335 53.764954 c -18.293213 -49.03589 -78.02673 -75.93335 
                -130.91956 -67.24475 c -48.81018 8.018005 -91.470276 47.526 -94.67108 95.6098 c 
                -10.686127 7.045044 -18.927765 18.937012 -28.672424 27.752869 c -28.828186 26.080505 
                -66.31189 38.53662 -99.00549 47.269165 c -28.888123 -22.882996 -62.701508 -5.479126 
                -81.60614 10.752014 c -24.418457 -5.8217163 -57.66774 4.00708 -74.36435 -6.515869 c 
                -20.052353 -12.637939 -32.46602 -28.580017 -55.259567 -25.252625 c -19.049911 
                2.7809448 -42.97564 12.535889 -42.591576 33.95349 c 0.42962646 23.958984 15.834732 
                44.580994 49.26261 51.128174 c -28.371727 8.71344 -44.632248 15.588135 -50.483986 
                42.167114 c -6.833061 4.2197266 -11.743225 8.064209 -15.252235 20.566406 c 
                -15.917236 0.8919678 -30.7859 13.693909 -29.558655 29.50299 c 1.9834824 25.55066 
                30.322723 44.959534 56.56286 41.30426 c 37.91134 -5.281128 74.77839 -15.565979 
                112.337975 -22.853394 c 40.487854 -7.85553 85.21332 -18.948181 111.72073 -52.40576 c 
                5.7002563 -7.1948853 9.563232 -9.095459 14.972412 -11.399719 c 42.82779 -16.2052 
                48.83496 -51.883057 40.35016 -63.97815 c 37.065094 -14.666565 78.12576 -33.298584 
                111.137054 -55.28412 c 1.5299988 4.706848 11.122131 9.178223 9.175659 13.213745 c 
                -19.314941 18.516113 -30.203094 45.395752 -32.00934 70.29486 c -56.67096 23.92218 
                -102.69974 84.43042 -116.1037 106.497925 c -32.902008 -7.3637695 -58.960754 
                20.733582 -66.39438 36.973938 c -37.434235 -0.13049316 -63.562256 14.997559 
                -87.81018 41.45996 c -15.179108 16.565308 -28.85846 32.10608 -36.64096 45.911133 c 
                -13.473434 -2.906128 -30.446793 -7.7803955 -43.47986 4.031128 c -18.174973 14.037231 
                -14.279465 41.013184 0.41705322 56.055786 c 15.976181 18.958862 41.818497 26.981812 
                66.62427 25.452515 c 41.923798 -1.1513672 83.41687 -12.852417 119.32062 -33.597534 c 
                24.419128 -11.997314 54.084747 -18.993042 80.23941 -8.056641 c 26.030273 9.509399 
                56.816925 14.900513 82.420166 0.29992676 c 15.326263 -8.73999 30.20456 -26.031982 
                21.686768 -43.60437 c -9.553741 -19.709717 -33.185394 -28.737305 -55.050568 
                -27.114258 c -14.786194 1.0975342 -30.317596 0.6867676 -43.8432 -5.939209 c 
                13.716095 -5.2387695 27.454163 -17.96582 28.203217 -33.053345 c 0.40353394 -8.127563 
                -2.3372803 -16.012817 -4.803528 -22.69519 c 21.709503 -39.61255 40.045654 -57.29895 
                77.15485 -74.100464 c 9.876495 13.518799 22.857758 21.56781 36.075104 30.245972 c 
                -2.534546 42.071655 -2.7994995 87.47803 17.79181 125.869995 c 6.1054688 11.383545 
                10.63446 21.339722 19.10254 31.253296 c -19.218994 52.61743 -28.72638 111.839355 
                -36.574097 160.30212 c -22.955627 1.2821045 -40.694763 6.5273438 -39.158325 34.50354 
                c -24.268219 -7.010254 -77.064514 -15.058105 -130.21747 3.4381104 c -34.563812 
                12.027588 -67.534454 37.341797 -74.51785 73.06372 c -5.824402 29.793213 -1.9432068 
                62.879395 4.3923035 92.31958 c 3.0919495 14.367798 13.182343 29.960083 30.38852 
                30.96936 c 85.97659 5.043335 173.37228 6.3861084 259.47195 6.0162354 c 21.372314 
                -0.09118652 43.355713 1.2055664 64.27838 -3.236206 c 32.647156 -25.27246 43.33661 
                -75.26526 26.022217 -111.631836 c -7.348694 -15.434692 -17.899963 -15.66748 
                -32.02478 -21.646118 c 2.8184814 -5.1884766 4.9769287 -12.06604 7.253723 -19.28064 c 
                8.08551 -25.620483 -2.4521484 -56.58423 -27.99469 -69.114136 c -0.5733032 -28.875244 
                0.84576416 -52.896362 7.046997 -81.46753 c 2.8104248 -12.94873 5.713867 -29.766602 
                8.648865 -42.374878 c 28.443237 14.962524 59.308838 25.61621 91.32831 29.95105 c 
                10.02002 31.726685 17.810547 63.213867 23.982727 95.39148 c -17.902832 6.894287 
                -21.529968 27.39087 -19.132324 43.704468 c 1.7622681 11.990356 2.8129272 21.74121 
                6.7506714 34.240356 c -25.179321 41.337402 -26.031372 68.60925 -14.995972 97.545654 
                c 5.6085815 14.706421 11.479553 30.309448 21.305786 42.647583 c 37.393494 2.1611328 
                75.74475 1.3771973 113.5152 1.5407715 c 67.39783 0.29187012 134.9986 0.6767578 
                202.27081 -0.8564453 c 49.58362 -31.36206 68.453125 -101.474365 39.046143 -151.05078 
                c -22.774902 -38.395996 -71.7218 -56.15857 -116.09668 -55.92041 c -39.75464 
                0.2133789 -80.1629 18.599976 -113.64703 32.15332 c 6.1604004 -8.492432 3.1723022 
                -20.682129 0.9904785 -30.3031 c -3.5421143 -15.619263 -15.790161 -31.133057 
                -33.833435 -31.503296 c -7.2626343 -24.229248 -15.680054 -48.479248 -25.753052 
                -71.90735 c 64.58887 -0.56030273 132.57037 -8.538208 188.03894 -42.504395 c 
                31.667725 -19.391724 55.069946 -43.13733 56.122437 -90.10718 c 0.9790039 -43.691406 
                -1.5114746 -85.75037 -36.785034 -108.46393 c 2.8105469 -4.7857056 11.158081 
                -20.271973 -1.6647949 -33.35266 c 12.869141 -12.631714 24.576416 -32.87732 14.909668 
                -50.005127 c 14.470215 -18.045593 21.839844 -46.68213 6.9334717 -65.456665 C 
                1033.1619 835.4437 1001.99805 835.1687 978.5582 835.17163 c 17.984375 -46.79547 
                3.1976318 -74.44507 -19.728088 -88.70911 c -15.063416 -8.865845 -39.72821 -11.684753 
                -52.131714 2.4502563 c -9.6474 10.994202 -8.547485 28.363708 -3.805603 41.25421 c 
                4.552246 12.375061 20.400269 20.943604 16.918457 34.850525 c -2.8325806 11.313904 
                -11.43335 9.587097 -23.538147 20.73584 c -11.182495 10.299194 -14.242615 15.822144 
                -20.807922 26.113892 c -22.491577 -16.348999 -42.626404 13.972534 -46.19635 
                25.150574 c -22.71106 2.5476685 -52.040527 6.7089233 -73.700134 3.6105347 c 
                -1.2016602 -35.756836 -23.515076 -68.93524 -54.529724 -88.15906 c 6.379944 -8.800659 
                10.116333 -21.115845 13.762756 -29.55304 c 58.296814 -10.493713 114.22101 -31.028381 
                166.45642 -57.705933 c 24.384766 10.233215 55.20868 5.6677856 72.984375 -14.151428 c 
                6.982727 -7.1675415 13.451599 -18.045837 13.137146 -26.802795 c 24.730957 -4.8166504 
                52.150208 -12.456421 68.08392 -32.553284 c 21.028442 1.4006348 44.29712 0.14752197 
                64.53906 -8.0008545 c 16.85791 -6.786133 37.398438 -13.137573 46.345093 -29.55304 c 
                6.8554688 -12.578857 -1.4984131 -35.900513 -17.93335 -33.75348 c -24.740723 
                3.2321777 -48.21753 13.277161 -73.19287 15.901672 c 34.590332 -20.39441 73.672485 
                -38.420227 95.29675 -73.307556 c 11.126099 -17.950165 1.5556641 -43.832245 
                -20.122925 -48.10492 c -15.239624 -3.003601 -27.04065 9.493713 -39.10022 16.125763 c 
                -24.134766 13.272736 -47.67566 29.894012 -70.37622 43.830414 c 17.311646 -34.283752 
                36.71399 -68.64285 44.155518 -106.41095 c 3.5180664 -17.85553 -2.043579 -40.477783 
                -21.999634 -46.75479 c -5.7060547 -1.7947693 -11.699219 -3.4656067 -17.724731 
                -3.150299 z"/>
            <path id="path3846" d="m 737.21844 961.7846 c -12.872314 21.392273 -35.11548 37.01068 
                -58.700256 46.904785 c -41.33844 17.280212 -91.66608 14.471985 -131.05902 -6.350647 
                c -1.2851562 16.462158 -1.2167358 36.195923 0.31280518 59.756104 c 4.512329 69.5061 
                53.539124 147.68286 184.02478 171.46045 c -8.271912 -30.070312 -19.741394 -59.88257 
                -28.046875 -86.50171 c 1.3565674 -12.278076 13.004456 -23.53894 25.805176 -25.202515 
                c 11.9071045 -0.42175293 25.445862 0.47143555 34.77185 8.300781 c 18.970642 26.43335 
                44.850037 75.25476 59.832275 110.50427 C 964.0583 1240.9391 1059.4965 1195.0818 
                1059.4965 1113.5001 c 0.0 -41.363403 2.4504395 -76.52075 -31.226929 -104.910706 c 
                -6.067383 6.888977 -17.362732 12.035828 -26.065857 13.85144 c -31.380554 6.5464478 
                -56.296753 5.9885864 -79.91785 -12.551331 c -14.1073 1.4760132 -27.728943 -4.7244263 
                -40.506287 -11.951233 c -5.041809 2.9180298 -9.386414 3.1920776 -13.762756 4.1504517 
                c -19.628906 3.0773315 -39.284058 -8.811035 -42.925537 -26.482422 c -30.075012 
                -3.1118164 -57.59601 -11.073669 -87.8728 -13.821716 z" style=
                "fill:#ffffff;fill-opacity:1;stroke:none;" onClick="javascript:onPathClick('path3846');"
                class="img-path"/>
            <path id="path3844" d="m 699.1623 815.11957 c -31.26233 45.50769 -97.15991 61.38263 
                -147.3241 38.553955 c -12.236206 -5.0269775 -23.418762 -12.476624 -32.947205 
                -21.602234 c -19.815155 19.56665 -31.748169 44.993896 -31.748169 72.75745 c 0.0 
                61.84082 59.335266 111.96149 132.5708 111.96149 c 48.84259 0.0 91.51843 -22.310669 
                114.533325 -55.505676 c -11.750366 -1.6264038 -23.455872 -3.5945435 -35.03253 
                -6.300659 c -16.287292 -5.022461 -36.705444 -9.533386 -44.93744 -25.502625 c 
                -5.3999023 -15.481079 6.0513916 -33.7594 21.582458 -38.803955 c 11.661438 -0.2798462 
                23.058777 3.223755 34.563293 4.7005005 c 13.79187 2.7218018 27.788391 4.492676 
                41.80963 5.4505615 c -1.4503174 -35.053772 -21.961914 -66.02704 -53.07007 -85.7088 
                z" style="fill:#ffffff;fill-opacity:1;stroke:none;" onClick="javascript:onPathClick('path3844');"
                class="img-path"/>
            <path id="path3842" d="m 601.7282 657.05334 c -61.89447 0.0 -112.08307 45.615234 
                -112.08307 101.86047 c 0.0 56.24518 50.1886 101.86041 112.08307 101.86041 c 52.43988 
                0.0 94.255615 -29.720947 106.48279 -73.927124 c -15.029785 2.5656128 -27.970032 
                1.0028687 -43.299194 0.4696045 c -11.008667 0.5695801 -18.912415 -7.8050537 
                -21.791016 -17.201782 c -7.7018433 -17.25592 5.5111084 -34.03076 16.212952 
                -46.854797 c 15.821594 1.6608276 30.090637 0.8676758 46.43451 -2.2868042 c 
                -15.499939 -39.36017 -55.397278 -63.919983 -104.04004 -63.919983 z" style=
                "fill:#ffffff;fill-opacity:1;stroke:none;" onClick="javascript:onPathClick('path3842');"
                class="img-path"/>
            <path id="path3793" d="m 867.09094 899.1194 c 0.0 0.0 16.891113 -43.514282 47.295166 
                -61.105103 c 30.404053 -17.590881 -8.68689 -38.42218 -10.134644 -54.624268 c 
                -1.447876 -16.202148 -4.82605 -44.440125 35.23004 -39.810913 c 40.056152 4.6291504 
                43.434326 49.995056 42.469116 60.17926 c -0.96520996 10.184204 -8.204224 31.941284 
                -8.204224 31.941284 l -12.0651245 6.0179443 c 0.0 0.0 78.18176 -10.184143 88.31653 
                22.682983 c 10.134644 32.867126 -10.61731 72.21515 -63.703735 84.25098 c -53.086426 
                12.035889 -90.24689 5.5550537 -89.76428 -27.775024 c 0.48260498 -33.33008 34.26483 
                -35.181763 52.60376 -32.404236 c 18.33899 2.7775269 58.877747 -11.572937 58.877747 
                -11.572937 c 0.0 0.0 -47.7218 8.973572 -69.9776 5.092102 c -31.851868 -5.5550537 
                -46.75836 21.304077 -47.295166 34.71881 c -0.96520996 24.120117 10.134705 31.941284 
                10.134705 31.941284 c 0.0 0.0 -3.4367676 5.5405884 -2.413025 13.887573 c -17.40387 
                4.4189453 -33.299683 -19.442566 -33.299683 -19.442566 c 0.0 0.0 5.282654 25.37622 
                36.677917 26.849243 c 2.0474854 5.891968 11.0998535 12.498718 11.0998535 12.498718 c 
                -2.0474854 13.420654 6.2738647 22.682983 6.2738647 22.682983 c 0.0 0.0 -43.043762 
                0.14691162 -55.49945 -37.496338 c -2.2181396 18.494324 13.512939 29.163818 13.512939 
                29.163818 c 0.0 0.0 -49.708252 19.442566 -49.708252 -54.624268 c 0.0 -74.06683 
                35.584167 -71.3573 37.77368 -71.00281 c 6.8309326 1.105957 8.644348 4.0894165 
                8.644348 4.0894165 c -8.204285 11.572937 -6.8444824 23.86206 -6.8444824 23.86206 z"
                style="fill:#ffffff;fill-opacity:1;stroke:none;" onClick="javascript:onPathClick('path3793');"
                class="img-path"/>
            <path id="path3795" d="m 1039.9247 922.8338 c -7.390503 8.740112 -16.796875 15.950317 
                -27.411194 20.621948 c -25.889038 11.474365 -55.376953 16.270203 -83.78595 13.51886 
                c -6.8518677 -0.2579956 -15.968079 -4.615967 -22.573853 -7.6186523 c -2.2403564 
                3.774475 -3.350769 7.6932983 -2.5082397 11.513855 c 3.7537842 17.021301 20.850586 
                23.551575 34.159363 27.152222 c 13.308899 3.600647 60.03485 6.5794067 84.263794 
                -17.643188 c 17.481201 -17.476562 23.014282 -31.755493 17.85608 -47.545044 z" style=
                "fill:#ffffff;fill-opacity:1;stroke:none;" onClick="javascript:onPathClick('path3795');"
                class="img-path"/>
            <path id="path3802" d="m 1025.0546 972.67017 c -28.006348 31.208557 -90.30682 24.213623 
                -108.15143 11.112976 c 0.27764893 3.5472412 0.70098877 9.374329 2.4655762 13.076904 
                c 5.460022 11.456604 19.784119 23.887085 61.075684 23.232422 c 41.291504 -0.6546631 
                49.73346 -25.864075 49.49005 -33.72345 c -0.20703125 -6.6884155 -1.8029785 -9.163086 
                -4.879883 -13.698853 z" style="fill:#ffffff;fill-opacity:1;stroke:none;" onClick="javascript:onPathClick('path3802');"
                class="img-path"/>
            <path id="path3809" d="m 868.54553 604.47034 c 5.2661133 20.205078 21.150574 38.28961 
                21.150574 38.28961 c 0.0 0.0 -20.852661 -40.289856 -12.213684 -62.292114 c 8.638916 
                -22.002258 11.022095 -24.573914 9.532593 -32.860535 c -1.4894409 -8.28656 -38.72632 
                -29.43158 -42.599 -52.00531 c -3.8726196 -22.57373 14.894775 -44.004517 45.28009 
                -40.86133 c 30.385315 3.1431885 39.91797 18.573334 46.47168 36.003693 c 6.55365 
                17.430359 7.149475 32.289032 11.320007 35.43222 c 4.170532 3.1431885 39.322144 
                21.430725 44.982178 56.291504 c 5.660034 34.860657 -3.0666504 55.62091 -53.621155 
                74.00757 c 20.01117 -4.0410156 69.70752 -17.430359 60.174866 -69.721436 c -9.532654 
                -52.291077 -47.03131 -63.659912 -47.03131 -63.659912 l -3.4937134 -8.947693 c 0.0 
                0.0 44.663147 -52.77191 51.12079 -91.98071 c 2.1463623 -13.032196 6.553711 -43.14731 
                30.087463 -40.289856 c 23.533691 2.8574219 37.83264 16.287384 31.27893 50.862366 c 
                -6.553711 34.57495 -44.684265 103.724915 -44.684265 103.724915 l -18.17157 16.858887 
                c 0.0 0.0 112.90222 -72.29315 122.13696 -75.15057 c 9.234863 -2.8574524 28.300049 
                3.4289246 31.874878 24.002472 c 3.574707 20.573517 -28.598022 51.719574 -57.791748 
                68.00699 c -29.193726 16.287354 -53.02527 30.574524 -53.02527 30.574524 c 43.39258 
                -2.4246216 82.81482 -18.85907 90.56006 -17.144592 c 7.7453613 1.7144775 17.575928 
                14.572937 11.320068 29.43158 c -6.2558594 14.858704 -50.046387 32.289 -73.28223 
                34.860718 c -23.23584 2.5717163 -36.045288 -0.2857666 -36.045288 -0.2857666 c 0.0 
                0.0 -5.064209 14.858704 -41.40747 27.14569 c -36.34326 12.286926 -66.13275 7.4293213 
                -66.13275 7.4293213 c 0.0 0.0 11.610657 8.070129 37.73047 4.23114 c -1.4744873 
                15.76001 -27.60205 47.488464 -66.924194 39.773376 c -39.322205 -7.715088 -61.96222 
                -32.289 -66.13275 -66.57825 c -4.170532 -34.289246 37.53479 -55.14856 37.53479 
                -55.14856 z" style="fill:#ffffff;fill-opacity:1;stroke:none;" onClick="javascript:onPathClick('path3809');"
                class="img-path"/>
            <path id="path3811" d="m 282.38214 837.71466 c 8.847046 -8.082031 42.55005 -30.307678 
                68.2486 -12.123108 c 25.698547 18.184631 46.76291 50.108765 40.86487 71.12207 c 
                -5.8980103 21.013306 -35.809418 35.15692 -35.809418 35.15692 c 0.0 0.0 2.2261963 
                -14.702454 -4.9233093 -21.988953 c 1.6384277 16.430298 -2.2385864 23.605347 
                -17.404938 40.98175 c -15.166351 17.376404 -37.073303 33.94458 -118.38179 49.300476 
                c -81.30849 15.355896 -109.956024 31.924072 -136.07585 10.1026 c -26.119823 
                -21.821533 -16.289284 -43.05127 -4.071945 -49.92102 c 12.217339 -6.869751 55.571243 
                -7.6289062 97.2787 -17.327393 c 41.707474 -9.698425 59.61528 -17.310059 59.61528 
                -17.310059 c 10.005585 1.9194946 24.118713 1.3133545 24.118713 1.3133545 c 0.0 0.0 
                -47.184204 -5.253357 -65.720856 -33.540527 c 19.800507 -2.0205078 30.332703 
                -7.2738037 30.332703 -7.2738037 c 0.0 0.0 -84.25749 15.759949 -106.164444 -26.670776 
                c -21.906952 -42.430786 23.592087 -51.725098 41.70746 -51.725098 c 18.115356 0.0 
                36.23073 24.246155 53.50351 28.691223 c 17.272781 4.4451294 42.42865 -1.6515503 
                64.82718 4.277771 c 23.421967 6.2001953 40.49469 18.756104 40.49469 18.756104 c 0.0 
                0.0 -12.638641 -18.184631 -32.439148 -21.821533 z" style=
                "fill:#ffffff;fill-opacity:1;stroke:none;" onClick="javascript:onPathClick('path3811');"
                class="img-path"/>
            <path id="path3813" d="m 171.58983 891.6774 c -14.852081 3.189392 -31.85492 7.5898438 
                -42.435165 12.80127 c -13.930023 6.861511 -19.138397 18.851257 -21.113327 26.752747 
                c 29.847885 -10.029846 61.59987 -15.122009 92.37732 -22.20227 c -6.0024414 -4.697571 
                -11.250763 -10.22229 -15.274582 -16.751709 c -4.5139008 -0.0345459 -9.034805 
                -0.23986816 -13.554245 -0.6000366 z m 32.269516 19.902039 c -28.670273 5.9923096 
                -85.90135 18.315002 -96.75638 23.202393 c -7.8515244 3.5350342 -11.990402 10.699219 
                -14.2840805 17.551758 c 45.9383 -5.8081665 92.17069 -12.606628 135.3338 -28.702942 c 
                -8.599564 -2.9140625 -16.911316 -6.904358 -24.293335 -12.0512085 z" style=
                "fill:#ffffff;fill-opacity:1;stroke:none;" onClick="javascript:onPathClick('path3813');"
                class="img-path"/>
            <path id="path3832" d="m 331.15903 1050.7797 c 0.0 0.0 -41.618744 -8.456055 -78.85503 
                12.341431 c -37.236313 20.797485 -49.228622 41.54309 -63.973694 62.96045 c 37.91588 
                -13.739502 76.22868 -30.407959 105.4521 -53.013916 c -27.55069 31.00415 -85.463745 
                51.23352 -111.38776 58.919556 c 32.994186 5.425415 48.227432 11.610962 142.49661 
                -14.611938 c -28.280762 12.659424 -77.30072 28.031494 -116.42241 26.2229 c 
                -39.121704 -1.8084717 -57.97554 -20.797363 -75.88666 -2.7126465 c -17.91114 
                18.084717 -7.5415344 49.280884 25.923996 66.461426 c 33.465546 17.180542 110.29489 
                0.45214844 142.81775 -17.632568 c 32.522858 -18.084839 60.80359 -26.2229 84.842224 
                -20.797485 c 24.038635 5.425415 57.032837 23.96228 90.96973 6.32959 c 33.93686 
                -17.632568 31.108795 -41.142822 9.898224 -56.96692 c -21.21051 -15.824097 -42.42108 
                -5.8775635 -68.81644 -10.85083 c -26.395355 -4.9732666 -43.835144 -27.127075 
                -43.835144 -27.127075 c 0.0 0.0 22.15326 14.467773 31.108795 16.276245 c 0.0 0.0 
                25.452667 -13.563599 24.038635 -31.648315 c -1.414032 -18.084717 -12.726349 
                -38.430054 -42.892456 -47.472473 c -30.166107 -9.042358 -45.72055 -8.138123 
                -61.746307 5.425415 c -16.025726 13.563538 -17.911102 19.89325 -17.911102 19.89325 c 
                6.3547974 -0.040527344 16.97937 3.6313477 24.178925 8.003906 z" style=
                "fill:#ffffff;fill-opacity:1;stroke:none;" onClick="javascript:onPathClick('path3832');"
                class="img-path"/>
            <path id="path3834" d="m 486.41296 754.1133 c -13.788055 15.014221 -32.86859 34.87256 
                -44.781097 43.204468 c -17.608215 12.315552 -63.946075 26.821167 -77.12097 30.986938 
                c 12.715851 11.7248535 25.445923 24.77533 31.552338 40.256165 c 17.15033 -6.7925415 
                36.220215 -15.0060425 56.516296 -24.388306 c 18.319397 -8.468506 37.539734 -19.99878 
                51.81888 -29.102966 c -12.302826 -17.842224 -19.184753 -39.221252 -17.985443 
                -60.9563 z" style="fill:#ffffff;fill-opacity:1;stroke:none;" onClick="javascript:onPathClick('path3834');"
                class="img-path"/>
            <path id="path3836" d="m 827.3787 675.2255 c -22.615356 14.76532 -57.1994 36.01935 
                -80.72443 44.884277 c -35.388123 13.335388 -85.96515 6.5006714 -85.96515 6.5006714 c 
                0.0 0.0 -8.438171 9.679199 -14.336182 21.802246 c -5.8980103 12.123108 1.300415 
                26.24585 6.7770996 31.90326 c 5.4767456 5.6574707 33.275635 8.503967 109.528625 
                -11.701172 c 43.033325 -11.402771 85.37311 -30.417358 114.11627 -44.804626 c 
                -22.476624 -9.042175 -43.18286 -25.916077 -49.39624 -48.584656 z" style=
                "fill:#ffffff;fill-opacity:1;stroke:none;" onClick="javascript:onPathClick('path3836');"
                class="img-path"/>
            <path id="path3838" d="m 483.8064 904.4787 c -17.44812 9.024597 -41.29654 23.806152 
                -63.65277 46.00476 c -27.51538 27.32135 -39.277924 43.974 -44.98752 56.46515 c 
                24.034485 7.849365 38.292236 16.94873 49.627228 33.69409 c 6.3861084 -12.730225 
                16.87735 -30.669128 31.174744 -45.7547 c 11.303009 -11.926147 30.538422 -21.85846 
                48.378204 -29.203003 c -5.050659 -6.869568 -9.4158325 -14.286255 -12.772278 
                -22.302307 c -5.350891 -12.273865 -7.874542 -25.594238 -7.7676086 -38.90399 z"
                style="fill:#ffffff;fill-opacity:1;stroke:none;" onClick="javascript:onPathClick('path3838');"
                class="img-path"/>
            <path id="path3840" d="m 678.049 893.77765 c -0.6748657 0.0031738281 -1.2722168 
                0.024169922 -1.772522 0.099975586 c -8.004456 1.2123413 -24.821838 18.99762 
                -18.923767 34.353516 c 5.8980103 15.355896 43.36847 27.058105 90.55267 31.503235 c 
                30.219482 2.8469238 57.4953 6.9692993 76.189026 9.602051 c -2.8415527 -20.693909 
                -3.4083862 -49.833313 1.2894897 -68.25397 c -18.264526 2.5917969 -44.039673 5.364929 
                -69.91937 3.2962646 c -37.915894 -3.0307617 -67.29321 -10.655823 -77.41553 
                -10.601074 z" style="fill:#ffffff;fill-opacity:1;stroke:none;" onClick="javascript:onPathClick('path3840');"
                class="img-path"/>
            <path style="fill:#000000;fill-opacity:1;stroke:none;" id="path3905" d="m 834.4961 
                1319.3213 c -29.961853 0.6147461 -70.04535 13.493774 -81.533875 23.902466 c 
                -18.856506 17.083984 -0.83410645 67.50696 -0.83410645 67.50696 c 16.851501 1.2122803 
                51.818848 -6.4506836 51.818848 -6.4506836 c 0.0 0.0 -29.10028 13.735107 -53.9563 
                15.3515625 c 0.0 0.0 -15.549255 18.973022 -19.34082 51.705322 c -3.791565 32.7323 
                25.283875 78.808105 25.283875 78.808105 c 141.97388 1.616333 312.58142 0.4000244 
                312.58142 0.4000244 c 0.0 0.0 51.827393 -29.104492 50.984863 -98.61011 c -0.84265137 
                -69.505615 -62.829346 -96.35779 -110.83197 -101.81055 c -64.035706 -7.2738037 
                -147.8465 45.646606 -168.48956 46.454834 c 0.0 0.0 34.94226 -14.924438 38.733826 
                -22.602295 c 0.0 0.0 5.08667 -26.703735 -13.449951 -46.50476 c -5.7927246 -6.187866 
                -17.347168 -8.430298 -30.966248 -8.150879 z m -278.22668 0.8000488 c -6.729065 
                -0.038330078 -12.546143 0.2939453 -16.890686 0.9001465 c -23.170776 3.232788 
                -35.804626 12.510376 -31.591766 31.503174 c 35.388153 9.294434 87.21628 49.305054 
                87.21628 49.305054 c 0.0 0.0 -102.42441 -69.51416 -197.21408 -48.90503 c -94.7897 
                20.609253 -100.22247 79.23987 -97.69476 120.86243 c 2.5277405 41.62256 7.9843445 
                63.029297 22.7294 70.707275 c 14.745056 7.6779785 321.44226 14.120361 331.9745 
                7.2507324 c 10.532166 -6.869751 29.485352 -30.694458 31.591797 -61.40625 c 2.1064453 
                -30.711792 -9.27655 -48.91443 -14.753296 -52.955444 c -5.4766846 -4.0410156 
                -50.515564 -21.802246 -50.515564 -21.802246 l 25.23169 1.6000977 c 0.0 0.0 21.10382 
                -32.336548 1.3033447 -63.856445 c -16.087952 -25.609985 -62.227478 -33.036743 
                -91.38684 -33.20349 z"/>
            <path id="path3907" d="m 734.3512 1124.9014 c -1.5551758 -0.0015869141 -3.1130981 
                0.048950195 -4.5875854 0.14990234 c -11.796082 0.80822754 -22.308167 14.940674 
                -22.729431 21.002197 c -0.42126465 6.0615234 13.889282 30.318237 32.425903 88.50903 
                c 11.8654785 37.248413 19.497559 73.1958 23.767822 96.1355 c 23.17096 -10.243164 
                46.963135 -13.196777 71.16394 -14.577148 c 3.0609741 -0.06347656 6.116211 
                0.015991211 9.175171 0.25 c -3.5200806 -10.499634 -7.486084 -22.330688 -12.250916 
                -36.153687 c -17.272827 -50.108643 -62.7594 -140.64941 -68.65741 -147.11511 c 
                -5.1607666 -5.6573486 -17.421509 -8.189697 -28.307495 -8.200806 z" style=
                "fill:#ffffff;fill-opacity:1;stroke:none;" onClick="javascript:onPathClick('path3907');"
                class="img-path"/>
            <path id="path3911" d="m 582.2012 1162.874 c -18.212769 42.56775 -31.053833 116.09143 
                -37.34857 154.71497 c 1.6924438 -0.12548828 3.3527222 -0.22790527 4.9525146 
                -0.29333496 c 26.237183 -0.31970215 53.552002 0.083862305 77.04315 11.419434 c 
                -0.6113281 -13.951538 -0.8584595 -27.043213 0.4244995 -41.8313 c 1.7408447 -20.06604 
                7.445923 -48.132324 13.5616455 -75.47766 c -22.472168 -12.29187 -42.491028 
                -29.550049 -58.63318 -48.532104 z" style="fill:#ffffff;fill-opacity:1;stroke:none;"
                onClick="javascript:onPathClick('path3911');" class="img-path"/>
            <path id="path4312" d="m 599.0695 663.504 c -52.485046 0.52770996 -102.28366 42.644226 
                -102.855774 94.25964 c -0.52856445 47.68268 41.155334 89.42493 89.927124 95.75983 c 
                46.75116 6.0724487 115.48889 -16.27478 114.68964 -61.906372 c -0.29040527 -16.58258 
                -38.461 7.486389 -53.278564 -3.7503662 c -17.523376 -13.288696 -16.863464 -39.989197 
                -3.3364258 -55.855713 c 4.3534546 -5.1063232 7.4786987 -15.040161 14.0234375 
                -15.301575 c 13.047302 -0.52124023 40.74701 14.433838 39.098755 2.000183 c -5.109131 
                -38.541443 -58.22577 -55.608276 -98.26819 -55.205627 z" style=
                "fill:#ffffff;fill-opacity:1;stroke:none;" onClick="javascript:onPathClick('path4312');"
                class="img-path"/>
            <path id="path4340" d="m 699.89215 825.1706 c -39.56598 50.419006 -123.84003 60.487305 
                -175.11029 20.4021 c -3.881775 -4.489868 -7.298706 -5.373657 -10.061401 0.70007324 c 
                -27.958984 33.899292 -27.886963 86.28406 2.033142 119.36224 c 46.23242 54.80188 
                140.85077 59.69214 194.08618 12.001221 c 4.1570435 -3.5926514 8.026245 -7.491699 
                11.573242 -11.8012085 c -24.990845 -4.3027344 -53.513367 -8.740173 -70.89905 
                -28.102905 c -16.06012 -22.557678 7.6189575 -59.239258 36.28363 -52.855408 c 
                18.928467 3.590393 37.89337 7.1956787 57.13629 8.90094 c -3.2614136 -27.92212 
                -20.521606 -53.37256 -44.155518 -69.7572 L 699.89215 825.1706 z" style=
                "fill:#ffffff;fill-opacity:1;stroke:none;" onClick="javascript:onPathClick('path4340');"
                class="img-path"/>
            <path id="path4352" d="m 894.3954 649.8026 c -14.421204 -9.189331 -21.957336 -25.568115 
                -27.942566 -40.454163 c -19.669556 11.445801 -37.638 32.73181 -31.174744 56.105774 c 
                4.5059814 28.685303 29.735352 51.36145 59.01306 56.855835 c 26.31958 7.6885986 
                59.126648 -11.270569 67.60736 -35.532227 c -16.343689 1.9216309 -31.540955 0.8826904 
                -43.678894 -10.501099 c 37.51178 5.859741 74.81726 1.4888916 105.30597 -21.123596 c 
                4.765686 -2.442505 6.364929 -9.777771 10.210388 -10.927551 c 35.016235 5.7385864 
                71.97156 -5.0560913 100.25659 -25.12616 c 11.627075 -7.5115967 10.231079 -28.922607 
                -3.909912 -32.40332 c -32.401245 7.05011 -64.746216 17.757996 -98.56848 17.731262 c 
                -9.997559 5.015869 -14.111511 -11.231323 -44.272278 33.374023 c -13.648987 12.269226 
                -32.407715 20.286499 -50.958984 21.405273 c -11.340698 -0.012817383 5.2629395 
                -7.824646 9.64209 -8.929871 c -19.786377 -13.955627 -37.087463 -9.911743 -51.529602 
                -0.47418213 z" style="fill:#ffffff;fill-opacity:1;stroke:none;" onClick="javascript:onPathClick('path4352');"
                class="img-path"/>
            <path id="path4379" d="m 1025.663 384.9254 c -15.221008 1.4031677 -19.101074 18.845612 
                -21.530396 30.703156 c -2.942688 20.720032 -11.453796 39.717102 -22.364502 57.605896 
                c 2.8736572 22.357056 10.343384 46.241302 22.416626 69.85721 c 6.552002 -6.0878296 
                13.325073 -11.994751 15.9522705 -20.852173 c 15.316528 -31.824951 34.0343 -63.871185 
                38.838135 -99.01016 c 2.5009766 -14.56958 -3.7641602 -32.243103 -20.122803 
                -36.203705 c -4.260132 -1.236908 -8.712158 -2.2200623 -13.189331 -2.1002197 z"
                style="fill:#ffffff;fill-opacity:1;stroke:none;" onClick="javascript:onPathClick('path4379');"
                class="img-path"/>
            <path id="path4377" d="m 1125.2344 480.78525 c -0.59716797 -0.0047912598 -1.2137451 
                0.0064086914 -1.824585 0.049926758 c -15.789795 5.807312 -29.303223 17.030731 
                -44.05127 25.052582 c -23.946167 14.65863 -47.319702 30.098206 -71.21179 44.654602 c 
                1.7226562 3.1063843 3.4852905 6.21698 5.369568 9.300903 c 8.338318 13.6474 17.719666 
                26.076416 27.73407 37.15381 c 3.4787598 -1.927185 6.960327 -3.8320923 8.862305 
                -5.2005005 c 34.341675 -20.794128 74.94568 -37.29303 95.088135 -72.95752 c 10.269043 
                -14.732697 -1.4516602 -37.89505 -19.96643 -38.053864 z" style=
                "fill:#ffffff;fill-opacity:1;stroke:none;" onClick="javascript:onPathClick('path4377');"
                class="img-path"/>
            <path id="path4364" d="m 1130.0826 586.6961 c -27.270752 5.933838 -54.523193 14.416809 
                -82.62866 16.951782 c 14.506836 14.839661 30.200684 26.88147 46.08435 35.603638 c 
                14.517334 -4.623047 28.29773 -11.526245 40.454224 -20.1521 c 11.627075 -7.5115967 
                10.231079 -28.922607 -3.909912 -32.40332 z" style=
                "fill:#ffffff;fill-opacity:1;stroke:none;" onClick="javascript:onPathClick('path4364');"
                class="img-path"/>
            <path id="path4426" d="m 879.7464 457.6829 c -20.380981 0.7461853 -37.70398 20.886566 
                -31.331116 40.204132 c 6.996338 20.615784 29.72937 30.543701 41.496826 47.80487 c 
                4.312866 18.800415 -15.2786255 34.47278 -10.843384 53.555542 c 0.64727783 9.5401 
                3.9367676 18.39502 7.402649 27.202759 c 11.614929 5.522644 24.402222 8.600891 
                37.79547 8.600891 c 25.513306 0.0 48.684326 -11.125122 66.05084 -29.25299 c 
                0.06890869 -0.8545532 0.14678955 -1.7214355 0.15631104 -2.6002808 c 2.5288696 
                -25.801758 -10.457886 -50.828247 -32.26953 -65.85675 c -6.668457 -5.3131104 
                -16.979004 -8.604675 -17.620483 -18.351868 c -5.2453003 -20.95169 -9.728638 
                -47.46573 -33.15576 -56.855865 c -8.127441 -3.1659546 -16.968262 -4.673218 
                -25.700867 -4.4504395 c -0.663147 -0.016967773 -1.3235474 -0.024017334 -1.9810181 
                0.0 z" style="fill:#ffffff;fill-opacity:1;stroke:none;" onClick="javascript:onPathClick('path4426');"
                class="img-path"/>
            <path id="path4450" d="m 258.0005 924.6038 c 13.799103 3.923767 -4.521469 6.4797363 
                -10.506943 5.6775513 c -8.825165 -0.16479492 -17.513718 -2.5041504 -25.440247 
                2.4002686 c -41.060913 13.936218 -84.06468 20.510376 -127.14914 25.702637 c -14.278 
                0.09680176 -30.50193 9.021606 -29.141602 24.402466 c 2.8566818 21.655396 26.75962 
                38.07251 49.264427 34.50354 c 37.58033 -4.8394165 74.073616 -16.624207 111.60967 
                -22.69635 c 38.098236 -8.663086 81.71243 -17.152466 106.874146 -48.91095 c 10.718933 
                -10.611084 17.150208 -25.340088 13.426056 -40.280823 c -2.8079224 -10.612305 
                5.4389343 1.5367432 8.469238 5.0772095 c 2.9829102 4.694824 3.877472 10.291626 
                3.9620056 15.751587 c 16.121185 -9.225586 34.46631 -25.275757 28.828827 -45.104614 c 
                -6.2981567 -23.302307 -24.060516 -43.6745 -45.250305 -56.2558 c -18.24466 -7.8447266 
                -38.67578 0.9359741 -53.539215 11.351196 c 14.121277 5.513733 27.036621 15.740662 
                31.956726 30.0531 c -31.56366 15.716736 -47.370514 35.43164 -63.363647 58.32898 z"
                style="fill:#ffffff;fill-opacity:1;stroke:none;" onClick="javascript:onPathClick('path4450');"
                class="img-path"/>
            <path id="path4493" d="m 154.02147 811.01917 c -0.4771881 0.015991211 -0.9743805 
                0.056152344 -1.4596863 0.099975586 c -16.52803 0.96606445 -39.401466 7.7125854 
                -40.714836 26.552734 c -0.57852936 21.964966 18.356712 40.2688 39.88073 44.354553 c 
                23.17662 6.208679 47.92697 3.414917 71.4725 1.3001099 c 12.046829 -1.2223511 
                -2.7208862 7.175476 -7.6633453 8.2508545 c -5.916092 2.32135 -14.821884 3.0455322 
                -19.02806 4.9505005 c 3.109787 3.5178833 6.595627 6.5599976 10.322067 9.250977 c 
                9.878952 0.70513916 20.068298 1.0501099 30.497025 1.0501099 c 65.719986 0.0 
                122.220566 -14.66864 147.37624 -35.703674 c -8.092255 -19.077087 -23.664307 
                -35.512085 -41.757477 -46.25476 c -18.24469 -7.8447876 -38.67578 0.9359741 
                -53.539215 11.351196 c 14.121246 5.513733 27.036621 15.740662 31.956696 30.05304 c 
                -21.122498 -11.768372 -43.076416 -25.53424 -68.60527 -25.002563 c -20.770935 
                -0.44580078 -44.900085 3.961731 -61.671753 -10.851074 c -11.337494 -7.184204 
                -22.273087 -19.890015 -37.065613 -19.401978 z" style=
                "fill:#ffffff;fill-opacity:1;stroke:none;" onClick="javascript:onPathClick('path4493');"
                class="img-path"/>
            <path id="path4473" d="m 262.19467 928.38116 c -2.6323547 1.5982056 -11.003677 2.395752 
                -14.701126 1.9002075 c -8.825165 -0.16479492 -17.513718 -2.5041504 -25.440262 
                2.4002686 c -41.060898 13.936218 -84.06467 20.510315 -127.14913 25.702637 c -14.278 
                0.09680176 -30.50193 9.021606 -29.141602 24.402466 c 2.8566818 21.655396 26.75962 
                38.07251 49.264427 34.50354 c 37.580322 -4.8394165 74.077835 -16.630188 111.61391 
                -22.702332 c 37.42256 -8.50946 80.16353 -16.863037 105.51448 -47.25482 c -17.876465 
                -8.148926 -41.942535 -14.696594 -69.96069 -18.951965 z" style=
                "fill:#ffffff;fill-opacity:1;stroke:none;" onClick="javascript:onPathClick('path4473');"
                class="img-path"/>
            <path id="path4497" d="m 928.3331 746.3625 c -13.01062 -0.8479614 -22.6604 10.67688 
                -21.478271 22.702332 c -0.9321289 10.55426 1.104187 20.929077 9.175171 28.652954 c 
                8.285889 9.594788 19.652588 24.898071 8.445374 36.503723 c -1.6520996 3.5518188 
                -10.638733 6.264221 -9.487976 8.350891 c 17.698242 7.102722 38.545166 7.550537 
                56.510742 1.4501343 c -8.168884 4.326355 -17.150146 -5.258301 -5.442627 -8.100037 c 
                9.320374 -3.5756836 7.517151 -15.761902 11.020691 -23.653198 c 4.8793945 -22.015503 
                -2.1688232 -48.94507 -23.042175 -61.106262 c -7.8761597 -4.0290527 -16.876587 
                -5.2354126 -25.700928 -4.800537 z" style="fill:#ffffff;fill-opacity:1;stroke:none;"
                onClick="javascript:onPathClick('path4497');" class="img-path"/>
            <path id="path4519" d="m 867.0784 899.1282 c 0.0 0.0 -1.322937 -12.279541 6.8813477 
                -23.852417 c 0.0 0.0 -1.822937 -2.9945068 -8.65387 -4.100464 c -2.1895142 -0.3544922 
                -37.79541 -3.0595093 -37.79541 71.007324 C 827.5105 1016.2494 877.2441 996.7882 
                877.2441 996.7882 c 0.0 0.0 -15.772339 -10.658691 -13.554199 -29.153015 c 12.455688 
                37.64325 55.520203 37.503845 55.520203 37.503845 c 0.0 0.0 -8.303345 -9.281677 
                -6.2557983 -22.702332 c 0.0 0.0 -9.056519 -6.609314 -11.104065 -12.501282 c 
                -31.395203 -1.4729614 -36.700684 -26.852722 -36.700684 -26.852722 c 0.0 0.0 
                15.908264 23.870972 33.312134 19.451965 c -1.0237427 -8.346985 2.3980713 -13.901428 
                2.3980713 -13.901428 c 0.0 0.0 -11.078796 -7.783142 -10.113525 -31.90326 c -9.87561 
                -8.281128 -10.927551 -14.038147 -23.667786 -17.601807 z" style=
                "fill:#ffffff;fill-opacity:1;stroke:none;" onClick="javascript:onPathClick('path4519');"
                class="img-path"/>
            <path id="path4545" d="m 1020.0566 877.7207 c 0.0 0.0 -26.119873 12.527222 -49.711975 
                15.355896 c -23.592041 2.8287354 -48.447998 -4.849243 -57.295105 4.4451294 c 
                -8.846985 9.294373 -13.48114 21.41742 -9.689575 31.924133 c 3.791565 10.506653 
                19.800537 25.054321 64.878296 18.992798 c 45.07776 -6.0615234 70.35504 -35.96515 
                72.46149 -41.218445 c 2.1063232 -5.253357 1.263794 -26.266663 -20.643127 -29.499512 
                z" style="fill:#ffffff;fill-opacity:1;stroke:none;" onClick="javascript:onPathClick('path4545');"
                class="img-path"/>
            <path id="path4555" d="m 309.5451 1041.0865 c 0.0 0.0 18.61847 -23.288147 35.747437 
                -26.002747 c 17.128998 -2.7145386 51.238007 5.5720215 64.64328 18.430481 c 13.405273 
                12.8585205 15.937378 26.717041 15.788452 36.003662 c -0.14898682 9.286743 -21.746368 
                24.002563 -21.746368 24.002563 c 0.0 0.0 -28.449005 -16.858887 -44.386383 -29.86023 
                c -15.937408 -13.001343 -35.15164 -21.859375 -50.046417 -22.57373 z" style=
                "fill:#ffffff;fill-opacity:1;stroke:none;" onClick="javascript:onPathClick('path4555');"
                class="img-path"/>
            <path id="path4573" d="m 310.10367 1126.9015 c -43.710907 15.897827 -93.02124 27.925903 
                -139.03516 13.401489 c -12.136978 -3.9956055 -28.867569 -7.6342773 -37.53479 
                4.4003906 c -14.269478 16.924316 -1.7767792 40.83838 14.388336 52.205322 c 24.620865 
                19.729248 59.302643 15.163818 88.54312 10.556274 c 27.611511 -4.70459 54.286163 
                -14.491455 78.33035 -28.408081 c 25.77063 -12.680908 57.01056 -20.741455 85.018524 
                -9.658325 c 24.894379 8.869141 54.62097 16.46228 78.779175 1.4074707 c 13.019592 
                -6.3674316 26.450073 -21.538818 18.610992 -36.153687 c -8.707642 -17.127197 
                -29.646759 -24.643433 -48.53409 -22.612793 c -16.12201 0.60705566 -33.040863 
                0.41552734 -47.59671 -6.9401855 c -30.323242 7.267334 -60.646515 14.53479 -90.96976 
                21.802124 z" style="fill:#ffffff;fill-opacity:1;stroke:none;" onClick="javascript:onPathClick('path4573');"
                class="img-path"/>
            <path id="path4601" d="m 401.07343 1105.0994 l -25.8573 6.2005615 l 0.0 52.955444 c 
                8.33429 0.37805176 16.596985 1.9812012 24.60614 5.1505127 c 24.894379 8.869141 
                54.612762 16.454956 78.770966 1.4001465 c 13.019592 -6.3674316 26.450073 -21.538818 
                18.610992 -36.153687 c -8.707642 -17.127197 -29.647247 -24.632812 -48.534576 
                -22.602295 c -16.12201 0.60705566 -33.040375 0.4050293 -47.596222 -6.9506836 z"
                style="fill:#ffffff;fill-opacity:1;stroke:none;" onClick="javascript:onPathClick('path4601');"
                class="img-path"/>
            <path id="path4588" d="m 323.9707 1123.6012 l -13.867035 3.300293 c -43.710907 15.897827 
                -93.02124 27.925903 -139.03516 13.401489 c -12.136978 -3.9956055 -28.867569 
                -7.6342773 -37.53479 4.4003906 c -14.269478 16.924316 -1.7767792 40.83838 14.388336 
                52.205322 c 24.620865 19.729248 59.279083 15.158691 88.51958 10.551147 c 27.611526 
                -4.70459 54.309708 -14.486328 78.3539 -28.402954 c 2.9890747 -1.4708252 6.05249 
                -2.876587 9.175171 -4.2004395 l 0.0 -51.25525 z" style=
                "fill:#ffffff;fill-opacity:1;stroke:none;" onClick="javascript:onPathClick('path4588');"
                class="img-path"/>
            <path id="path4605" d="m 291.17987 1050.3937 c -12.168823 1.720459 -25.808563 5.444824 
                -38.890213 12.751343 c -37.236313 20.797485 -49.22049 41.539062 -63.96556 62.95642 c 
                37.91588 -13.739502 76.23895 -30.449463 105.46237 -53.05542 c -27.55069 31.00415 
                -85.48135 51.27002 -111.40538 58.956055 c 29.333145 4.8233643 44.788956 10.1813965 
                114.0641 -7.100708 c 15.584686 -9.2948 25.179596 -21.896484 25.179596 -35.80371 c 
                0.0 -15.403442 -11.79834 -29.229126 -30.444916 -38.70398 z" style=
                "fill:#ffffff;fill-opacity:1;stroke:none;" onClick="javascript:onPathClick('path4605');"
                class="img-path"/>
            <path id="path4618" d="m 484.60013 1544.8939 c -4.6341553 -0.80822754 -146.60803 
                6.869751 -163.03827 -9.294312 c -16.430206 -16.164062 -29.911407 -100.21741 
                1.2638855 -137.3949 c 31.175262 -37.17737 102.37283 -50.108643 139.02484 -42.430786 
                c 36.65204 7.6779785 99.84515 29.903687 126.807556 50.108765 c 26.962402 20.205078 
                72.04016 27.883057 79.20203 35.965088 c 7.1619263 8.082031 12.638611 21.821533 
                10.532166 48.088257 c -2.1063843 26.266602 -17.69403 50.108643 -27.383667 54.553833 
                c -9.689575 4.4450684 -166.40857 0.40405273 -166.40857 0.40405273 z" style=
                "fill:#ffffff;fill-opacity:1;stroke:none;" onClick="javascript:onPathClick('path4618');"
                class="img-path"/>
            <path id="path4628" d="m 511.14127 1353.3494 c 0.0 0.0 63.61441 23.033813 81.72977 
                43.845093 c 18.115356 20.81128 49.711914 15.962036 49.711914 15.962036 c 0.0 0.0 
                13.8151245 -27.471191 5.8980713 -47.07788 c -11.585449 -28.691284 -48.237427 
                -39.400024 -74.9892 -40.81433 c -26.75177 -1.4143066 -49.922546 -0.4041748 
                -56.241882 7.6779785 c -6.319336 8.082031 -6.108673 20.407104 -6.108673 20.407104 z"
                style="fill:#ffffff;fill-opacity:1;stroke:none;" onClick="javascript:onPathClick('path4628');"
                class="img-path"/>
            <path id="path4646" d="m 756.5369 1407.6956 c 0.0 0.0 -12.809509 -39.432617 -5.064209 
                -55.148438 c 7.7452393 -15.715942 73.87799 -31.146118 92.347534 -30.003174 c 
                18.469482 1.1430664 26.214783 15.144409 28.300049 25.717041 c 2.085266 10.57251 
                1.4894409 26.859863 1.4894409 26.859863 c 0.0 0.0 -29.491638 16.001587 -53.919006 
                22.287964 c -24.42743 6.286377 -63.15381 10.286743 -63.15381 10.286743 z" style=
                "fill:#ffffff;fill-opacity:1;stroke:none;" onClick="javascript:onPathClick('path4646');"
                class="img-path"/>
            <path id="path4656" d="m 751.4727 1425.6974 c 0.0 0.0 -19.065308 23.716797 -14.596863 
                56.863037 c 4.468445 33.14624 21.746338 62.863525 21.746338 62.863525 l 304.44897 
                -6.0006104 c 0.0 0.0 57.195923 -30.86023 49.15271 -93.43811 c -8.043213 -62.57788 
                -66.13269 -94.29541 -117.96649 -91.43799 c -51.8338 2.8574219 -126.90338 40.86133 
                -144.47925 47.43347 c -17.575806 6.5721436 -98.30542 23.716675 -98.30542 23.716675 
                z" style="fill:#ffffff;fill-opacity:1;stroke:none;" onClick="javascript:onPathClick('path4656');"
                class="img-path"/>
            <path id="path4689" d="m 737.21844 961.7846 c -12.872314 21.392273 -35.11548 37.01068 
                -58.700256 46.904785 c -98.05908 112.92731 19.760803 204.42523 25.23169 138.3642 c 
                1.3565674 -12.278076 13.004456 -23.53894 25.805176 -25.202515 c 11.9071045 
                -0.42175293 25.445862 0.47143555 34.77185 8.300781 c 95.56555 125.5022 290.39148 
                85.93408 295.16956 -16.651733 c 0.0 -41.363403 2.4504395 -76.52075 -31.226929 
                -104.910706 c -6.067383 6.888977 -17.362732 12.035828 -26.065857 13.85144 c 
                -31.380554 6.5464478 -56.296753 5.9885864 -79.91785 -12.551331 c -14.1073 1.4760132 
                -27.728943 -4.7244263 -40.506287 -11.951233 c -5.041809 2.9180298 -9.386414 
                3.1920776 -13.762756 4.1504517 c -19.628906 3.0773315 -39.49469 -8.406921 -43.13617 
                -26.078308 c -30.075012 -3.1118164 -57.385376 -11.477783 -87.66217 -14.22583 z"
                style="fill:#ffffff;fill-opacity:1;stroke:none;" onClick="javascript:onPathClick('path4689');"
                class="img-path"/>
            <path id="path4715" d="m 732.1617 1128.1517 c -10.437378 0.09375 -20.00354 9.409058 
                -21.738953 18.851929 c 15.981323 40.394165 32.387695 80.88623 42.674927 123.11682 c 
                5.140381 19.181519 9.103088 39.130005 13.26239 58.151733 c 22.587097 -10.163086 
                47.610596 -14.800903 72.51514 -15.3515625 c -19.31311 -60.96997 -46.500305 
                -119.73303 -77.46765 -175.91809 c -6.0231323 -8.481201 -19.584412 -8.610474 
                -29.24585 -8.850952 z" style="fill:#ffffff;fill-opacity:1;stroke:none;" onClick="javascript:onPathClick('path4715');"
                class="img-path"/>
        </g>
        <g id="g4727" transform="matrix(1.0722065,0,0,1.0722065,-41.606348,-43.871613)">
            <path style=
                "fill:#000000;stroke:#000000;stroke-width:5;stroke-linejoin:round;stroke-miterlimit:4;stroke-opacity:1;stroke-dasharray:none;"
                id="path4023" d="m 305.35968 79.19405 c -13.292297 2.2543259 -13.845795 19.153702 
                -14.231934 29.753052 c 0.9182129 28.011452 8.438965 57.295586 26.952087 79.35815 c 
                5.2377625 7.180298 13.730835 12.138306 23.559265 7.501526 c 45.00775 -21.233429 
                98.35846 -32.67076 149.2572 -29.053741 c -0.73895264 10.299088 -5.4534607 23.488998 
                3.0757751 31.853271 c 6.3554077 39.758636 11.10434 79.90291 12.042419 120.212326 c 
                -19.125214 -0.1288147 -40.740356 6.793701 -51.61035 22.652313 c -4.025421 5.1383667 
                -2.2553406 12.365845 -1.928894 17.25177 c -19.978302 19.8237 -31.572906 47.945282 
                -28.25534 75.75778 c 0.7046814 9.2854 2.144867 19.293976 6.203644 27.45282 c 
                -22.881348 8.169128 -37.017548 31.74704 -36.231506 54.65561 c -2.4363403 32.26355 
                21.15445 58.459656 42.90439 80.05823 c 17.443787 16.416138 36.026886 31.571533 
                50.036285 51.15399 c 14.049011 17.29181 28.406586 36.172424 51.09915 43.15564 c 
                32.85742 11.546753 70.18231 12.24176 103.087524 0.25756836 c 46.711914 -15.736145 
                93.041016 -38.55835 126.44818 -74.11511 c 22.875244 -26.859009 24.379272 -39.391296 
                19.305176 -72.02716 c 22.360413 -45.74945 29.217346 -101.56253 5.8223267 -148.24545 
                c -8.673584 -17.161896 -21.050049 -34.31662 -39.51581 -42.404327 c 10.671509 
                -25.04663 21.90094 -49.98532 35.65802 -73.557556 c 21.167358 -38.827164 45.938293 
                -75.41478 69.40845 -112.913956 c 8.808594 -17.07315 20.416199 -36.8891 13.689453 
                -56.353416 c -7.1359253 -15.463501 -29.819946 -14.862465 -42.43518 -6.200638 c 
                -14.014526 8.161095 -23.395569 21.982079 -31.591797 34.903587 c -31.718994 13.845032 
                -67.53284 18.896912 -102.125916 16.151657 c -8.048157 -6.627548 -18.5766 1.2779236 
                -20.33136 9.700989 c -7.0979004 23.441147 -4.2888184 49.966904 7.194153 71.65735 c 
                3.2860107 7.3686066 14.075745 14.165466 21.165466 7.3007507 c 16.58783 -11.662933 
                36.161987 -19.724747 53.63446 -30.479904 c 12.235718 -9.192688 10.479797 -2.63208 
                5.065796 8.127609 c -14.271423 36.434494 -27.794312 73.20305 -40.975464 109.96129 c 
                -17.381042 -11.354309 -26.832764 -13.000153 -39.97052 -14.983612 c -33.09607 
                -14.176697 -72.98163 -23.864471 -109.49097 -20.27002 c -6.48761 0.91952515 
                -12.963074 2.2887573 -19.18451 4.1504517 c 3.9766846 -48.88138 10.636597 -97.658875 
                19.862183 -145.81497 c 7.9437256 -19.119614 18.753845 -39.4003 16.265076 -60.556213 
                c -3.6049194 -14.364044 -23.246094 -15.443001 -35.084595 -10.40107 c -16.865723 
                6.117218 -30.697266 18.196907 -41.444702 31.903275 c -47.98477 -2.0115662 -96.24039 
                -4.5208206 -142.46921 -17.663857 C 342.6322 91.24127 315.28827 77.5102 305.35968 
                79.19405 z"/>
            <path id="path3148" d="m 521.7955 320.44113 c 0.0 0.0 28.895813 -23.145203 73.28223 
                -20.573517 c 44.386414 2.5716858 78.94226 18.573334 78.94226 18.573334 c -42.003235 
                3.7146606 -67.32434 27.431396 -67.32434 27.431396 c 0.0 0.0 40.001465 -25.230103 
                80.4317 -20.002075 c 51.815918 6.700348 68.21802 42.29007 68.21802 42.29007 c 0.0 
                0.0 -0.52130127 -6.5006714 -2.085266 -10.286774 c 7.298401 2.5716858 37.832703 
                22.288025 48.556946 76.579285 c 10.724182 54.29129 -17.277954 108.296844 -17.277954 
                108.296844 c -5.213135 -4.7147827 -12.660522 -6.714966 -12.660522 -6.714966 c 0.0 
                0.0 14.93396 14.112183 12.958435 39.57544 c -4.7663574 61.434875 -140.0108 120.86957 
                -187.67401 121.155334 c -54.216736 0.3250122 -78.048584 -17.716125 -86.38962 
                -26.574158 c -8.341064 -8.858093 -31.233582 -36.689514 -38.130585 -44.861755 c 
                -10.1284485 -12.001221 -70.30328 -55.72003 -74.473816 -95.15265 c -4.170532 
                -39.432587 12.809479 -52.576813 24.725311 -61.14911 c 11.915802 -8.572296 30.683197 
                -5.000519 30.683197 -5.000519 C 442.55533 478.60022 440.17218 499.31665 440.17218 
                499.31665 c 0.0 0.0 17.479279 -45.88672 53.621155 -48.862152 c 40.178345 -3.3077393 
                60.174866 44.861725 60.174866 44.861725 c 0.0 0.0 -9.085815 -46.719055 -49.89749 
                -52.00531 c 0.0 0.0 23.086884 -53.148315 7.596344 -78.5795 c -15.49057 -25.431183 
                -44.237457 -20.002045 -56.004333 -10.286774 c -3.276825 -7.4293213 4.170532 
                -24.573944 38.428497 -31.71753 c 30.474884 -6.3547363 52.429596 24.85968 52.429596 
                24.85968 c -3.7157593 -7.883667 -8.848206 -18.684021 -24.725342 -27.14566 z" style=
                "fill:#ffffff;fill-opacity:1;stroke:none;" onClick="javascript:onPathClick('path3148');"
                class="img-path"/>
            <path id="path4162" d="m 451.73972 465.94034 c 0.0 0.0 -11.374756 20.609192 -12.006683 
                35.561005 c -0.631958 14.951782 30.332672 38.187683 30.332672 38.187683 l -43.39261 
                33.742554 c 0.0 0.0 -35.809418 -25.862549 -23.592072 -70.111786 c 12.217316 
                -44.249207 48.65869 -37.379456 48.65869 -37.379456 z" style=
                "fill:#ffffff;fill-opacity:1;stroke:none;" onClick="javascript:onPathClick('path4162');"
                class="img-path"/>
            <path id="path4122" d="m 566.77765 392.44855 c 1.1915894 -1.4287109 44.982178 -68.57846 
                118.264404 -63.149323 c 73.28229 5.4291077 84.30438 82.00839 86.091736 89.437744 c 
                1.7874146 7.4293213 8.043213 47.719177 -14.29895 60.006165 c -22.342163 12.286957 
                -94.4328 26.288391 -144.47919 2.5716858 c -50.046387 -23.716736 -45.578003 -88.86627 
                -45.578003 -88.86627 z" style="fill:#ffffff;fill-opacity:1;stroke:none;" onClick="javascript:onPathClick('path4122');"
                class="img-path"/>
            <path id="path4152" d="m 565.48737 549.1854 c 2.4523315 -1.347229 60.665405 -32.7323 
                98.15997 -31.519958 c 37.494568 1.2122803 80.46588 5.6574097 97.73871 24.650208 c 
                17.272766 18.992859 16.851501 31.115906 14.745056 44.04718 c -2.1064453 12.931274 
                -40.443604 47.684082 -61.92926 61.423584 c -21.485657 13.739502 -55.18866 34.348694 
                -79.20209 35.561035 c -24.013367 1.2122803 -179.57648 -73.69702 -69.51239 -134.16205 
                z" style="fill:#ffffff;fill-opacity:1;stroke:none;" onClick="javascript:onPathClick('path4152');"
                class="img-path"/>
            <path style="fill:#000000;stroke:none;" id="path3150" d="m 668.5089 360.07288 c 
                -39.009583 -0.46395874 -75.56708 27.9581 -86.01727 69.70715 c -8.456482 33.783813 
                2.4901733 67.19165 25.49237 87.50897 c -6.125122 3.5214844 -11.563232 7.4139404 
                -16.473572 11.451172 c 0.0 0.0 37.491943 -16.269714 74.44403 -17.701813 c 39.719177 
                -1.5393372 78.04852 14.301483 66.728516 6.3006287 c -3.0372314 -2.1466675 -7.260742 
                -4.447937 -12.355225 -6.550659 c 11.494202 -11.581177 20.254028 -26.475891 24.554016 
                -43.65448 c 11.943115 -47.713196 -14.751099 -94.734924 -59.586487 -105.06076 c 
                -5.604431 -1.290741 -11.213623 -1.9339294 -16.786377 -2.0002136 z"/>
            <path id="path3152" d="m 668.09186 367.47363 c -35.72284 -0.42486572 -69.14911 25.62503 
                -78.71881 63.856537 c -8.035095 32.100464 2.9915771 63.858612 25.700867 82.208466 c 
                7.6553345 -3.6965942 16.323364 -6.775818 26.274353 -8.950928 c -9.682678 -10.875916 
                -15.639465 -25.821533 -15.639465 -42.30435 c 0.0 -33.266113 24.345947 -60.206177 
                54.373352 -60.206177 c 30.027344 0.0 54.37329 26.940063 54.37329 60.206177 c 0.0 
                8.486542 -1.5725098 16.578918 -4.4312134 23.902466 c 3.4604492 -6.3354797 6.188843 
                -13.253265 8.02832 -20.602112 c 10.936829 -43.693146 -13.524048 -86.80405 -54.58185 
                -96.25989 c -5.132263 -1.1819763 -10.275574 -1.7894897 -15.378845 -1.8501892 z"
                style="fill:#ffffff;stroke:none;" onClick="javascript:onPathClick('path3152');"
                class="img-path"/>
            <path id="path2986" d="m 479.32306 350.42188 c -31.456757 -0.20181274 -50.290497 
                48.670227 -51.506073 62.00638 c -2.3831787 26.145538 3.1130066 43.59732 4.90036 
                46.454742 c 14.001099 -2.8574219 24.60617 0.55007935 24.60617 0.55007935 c 
                0.92315674 -0.9376221 1.8630371 -1.7680969 2.815094 -2.6002808 c -7.897827 -7.249176 
                -13.032898 -18.882355 -13.032898 -31.953278 c 0.0 -21.96402 14.451294 -39.75409 
                32.2695 -39.75409 c 13.651581 0.0 25.263794 10.48645 29.975708 25.252594 c 4.698395 
                -22.693237 4.610626 -50.101654 -19.862183 -58.205963 c -3.5188904 -1.1653137 
                -6.9115295 -1.7293091 -10.16568 -1.7501831 z" style="fill:#ffffff;stroke:none;"
                onClick="javascript:onPathClick('path2986');" class="img-path"/>
            <path style="fill:#000000;stroke:none;" id="path2988" d="m 423.0432 550.179 c 0.14898682 
                -0.5715332 -2.085266 -10.572571 6.8516235 -20.430664 c 8.936829 -9.858215 25.767914 
                -7.5722046 25.767914 -7.5722046 c 0.0 0.0 -14.4479065 6.0005493 -17.42685 11.143982 
                c 0.0 0.0 29.938446 48.004883 126.45654 54.862793 c 96.518005 6.857788 132.86127 
                -20.573547 132.86127 -20.573547 c -9.234741 -6.286377 -33.364258 -9.715271 
                -33.364258 -9.715271 c 0.0 0.0 29.78949 -7.4293823 43.492676 1.1429443 c 13.703186 
                8.572327 23.533752 19.716309 25.619019 34.860718 c 0.0 0.0 -19.36322 -20.573547 
                -28.597961 -22.859497 c 0.0 0.0 -27.406372 93.152405 -80.4317 104.01068 c -53.02539 
                10.858276 -92.9433 1.1429443 -111.41284 -16.001648 c -18.469513 -17.144592 
                -30.683197 -34.717834 -34.555847 -47.43347 c 0.0 0.0 -13.107391 -8.000793 -14.894775 
                -13.715637 c -1.7873535 -5.714905 -4.170532 -36.003723 -4.170532 -36.003723 c 0.0 
                0.0 -14.596863 -6.286377 -24.874268 -25.002563 c -5.659973 3.7146606 -11.320007 
                13.287109 -11.320007 13.287109 z"/>
            <path id="path2997" d="m 695.87585 576.2603 c -6.319336 22.831787 -28.647583 56.372314 
                -28.647583 56.372314 c 0.0 0.0 -123.22656 24.448181 -200.53284 -35.15692 l 
                -1.6851501 -32.530273 c 0.0 0.0 37.073273 27.276917 106.79636 29.297424 c 69.72308 
                2.0205078 89.418274 -2.626648 124.069214 -17.982544 z" style=
                "fill:#ffffff;fill-opacity:1;stroke:none;" onClick="javascript:onPathClick('path2997');"
                class="img-path"/>
            <path id="path2999" d="m 486.49597 615.6603 c 72.67206 40.81433 164.09149 24.650269 
                177.362 22.225647 c 0.0 0.0 -14.955688 24.448181 -33.49231 30.307678 c -18.536682 
                5.859497 -81.519165 11.31488 -109.74542 -9.698425 c -28.226227 -21.013367 -34.124268 
                -42.8349 -34.124268 -42.8349 z" style="fill:#ffffff;fill-opacity:1;stroke:none;"
                onClick="javascript:onPathClick('path2999');" class="img-path"/>
            <path id="path3771" d="m 479.3752 391.4261 c -14.985779 0.0 -27.160614 14.980896 
                -27.160614 33.45343 c 0.0 11.877808 5.0457764 22.31842 12.615875 28.2529 c 16.257538 
                -11.167664 34.04196 -9.700989 34.04196 -9.700989 c 0.0 0.0 3.9614258 -8.953491 
                7.506958 -21.252197 C 505.2549 404.98065 493.61703 391.4261 479.3752 391.4261 z"
                style="fill:#ffffff;fill-opacity:1;stroke:none;" onClick="javascript:onPathClick('path3771');"
                class="img-path"/>
            <path id="path3773" d="m 636.6245 495.4808 c 0.0 18.412323 -13.486145 33.33847 -30.12207 
                33.33847 c -16.635925 0.0 -30.12207 -14.926147 -30.12207 -33.33847 c 0.0 -18.412323 
                13.486084 -33.33844 30.12207 -33.33844 c 16.635925 0.0 30.12207 14.926117 30.12207 
                33.33844 z" style="fill:#000000;stroke:none;" transform="matrix(0.57092635,0,0,0.63586856,133.10004,109.82856)"/>
            <path id="path3775" d="m 642.5826 529.4452 c 0.0 18.412354 -13.486084 33.3385 -30.12201 
                33.3385 c -16.635986 0.0 -30.12207 -14.926147 -30.12207 -33.3385 c 0.0 -18.412292 
                13.486084 -33.33841 30.12207 -33.33841 c 16.635925 0.0 30.12201 14.926117 30.12201 
                33.33841 z" style="fill:#ffffff;stroke:none;" onClick="javascript:onPathClick('path3775');"
                class="img-path" transform="matrix(0.55176649,0,0,0.52229365,135.32438,133.61362)"/>
            <path id="path3783" d="m 680.08215 409.62796 c -26.248657 0.0 -47.54413 23.575653 
                -47.54413 52.655396 c 0.0 16.385254 6.76593 31.04721 17.359863 40.704163 c 5.225708 
                -0.80337524 10.772217 -1.3667297 16.682129 -1.6501465 c 13.812195 -0.66244507 
                27.885315 1.4758911 39.880737 4.800476 c 12.758728 -9.441711 21.165466 -25.580444 
                21.165466 -43.854492 c 0.0 -29.079742 -21.295471 -52.655396 -47.544067 -52.655396 z"
                style="fill:#ffffff;fill-opacity:1;stroke:none;" onClick="javascript:onPathClick('path3783');"
                class="img-path"/>
            <path id="path3785" d="m 997.85034 624.56464 c 0.0 34.03485 -25.180359 61.62561 
                -56.241882 61.62561 c -31.061523 0.0 -56.241882 -27.59076 -56.241882 -61.62561 c 0.0 
                -34.034912 25.180359 -61.62567 56.241882 -61.62567 c 31.061523 0.0 56.241882 
                27.59076 56.241882 61.62567 z" style="fill:#000000;stroke:none;" transform="matrix(0.4925214,0,0,0.47555215,220.94941,170.34166)"/>
            <path id="path3787" d="m 1037.6188 630.7812 c 0.0 34.034912 -25.180359 61.62561 
                -56.241882 61.62561 c -31.061523 0.0 -56.241882 -27.590698 -56.241882 -61.62561 c 
                0.0 -34.034912 25.180359 -61.62561 56.241882 -61.62561 c 31.061523 0.0 56.241882 
                27.590698 56.241882 61.62561 z" style="fill:#ffffff;stroke:none;" onClick="javascript:onPathClick('path3787');"
                class="img-path" transform="matrix(0.4444995,0,0,0.43351331,231.00677,166.62574)"/>
            <path id="path3935" d="m 850.5527 102.446434 c -0.52453613 -0.0051193237 -1.0753784 
                0.025527954 -1.6160889 0.05001068 c -11.123474 0.50354004 -25.57428 7.42218 
                -39.984985 27.352798 c -1.5673218 2.1677094 -3.2710571 4.9269104 -5.1088867 8.150848 
                c 9.9487915 -4.195984 19.702759 -8.847855 29.193726 -13.851425 l 7.871887 -9.000923 
                c 8.943787 22.265175 -5.4005737 50.214302 -20.644165 63.256493 c -15.160034 
                11.447571 -30.725952 18.137161 -47.283386 27.702835 c -18.963257 46.78885 -38.559387 
                100.925156 -48.273926 128.21315 c 8.849243 4.6942444 16.890259 10.650299 23.302856 
                17.901855 c 0.79345703 0.2628479 1.5723267 0.55511475 2.3458862 0.85006714 c 
                2.0837402 -3.9298706 4.180359 -8.535492 6.2036743 -14.051422 c 11.320007 -30.860321 
                54.775513 -105.74658 85.75659 -151.46555 c 30.98114 -45.718964 32.17267 -67.99269 
                25.023193 -77.70798 c -2.932373 -3.984787 -8.918579 -7.324257 -16.786377 -7.4007645 
                z" style="fill:#ffffff;fill-opacity:1;stroke:none;" onClick="javascript:onPathClick('path3935');"
                class="img-path"/>
            <path id="path3937" d="m 722.9452 208.43578 c 0.09240723 26.51239 -7.834961 48.00493 
                -17.70636 48.00493 c -9.871399 0.0 -17.948608 -21.492538 -18.041077 -48.00493 c 
                -0.09240723 -26.512375 7.835022 -48.004913 17.70642 -48.004913 c 9.871338 0.0 
                17.948608 21.492538 18.041016 48.004913 z" style=
                "fill:#ffffff;fill-opacity:1;stroke:none;" onClick="javascript:onPathClick('path3937');"
                class="img-path" transform="matrix(0.95983712,0,0.07867517,0.91298776,-0.36515325,10.665774)"/>
            <path id="path3939" d="m 834.6004 126.998955 c 0.0 0.0 -39.337097 21.123604 -73.29712 
                28.552925 c -21.402954 4.682266 -44.65918 5.06752 -58.960938 4.700485 c 1.6057129 
                2.6072998 2.9509277 5.378769 4.01416 7.8007965 c 8.153748 21.990097 11.254028 
                46.69374 4.8482056 68.357025 c 24.378418 -13.019302 91.27667 -49.237946 107.9126 
                -64.25659 c 20.256836 -18.287598 15.483093 -45.15464 15.483093 -45.15464 z" style=
                "fill:#ffffff;fill-opacity:1;stroke:none;" onClick="javascript:onPathClick('path3939');"
                class="img-path"/>
            <path id="path3956" d="m 354.2115 139.25307 c 0.317688 31.562363 -10.094543 57.148743 
                -23.256378 57.148743 c -13.161835 0.0 -24.089172 -25.58638 -24.40686 -57.148743 c 
                -0.317688 -31.562363 10.094574 -57.148712 23.256409 -57.148712 c 13.161835 0.0 
                24.089142 25.58635 24.40683 57.148712 z" style=
                "fill:#ffffff;fill-opacity:1;stroke:none;" onClick="javascript:onPathClick('path3956');"
                class="img-path" transform="matrix(0.90515168,0,0.21423707,0.96590948,-9.3524644,3.0593799)"/>
            <path id="path3958" d="m 322.71954 89.395096 c 6.1962585 7.4453354 10.696777 17.510681 
                13.919159 24.602524 c 8.971191 23.936142 15.389709 50.957672 7.7676086 72.257416 c 
                15.732391 -5.0985107 49.85431 -15.360931 84.45331 -20.4021 c 47.067444 -6.857849 
                89.97925 0.5500641 89.97925 0.5500641 c 0.0 0.0 23.786926 -17.10176 30.340637 
                -45.10463 c 0.0 0.0 -65.51462 -1.7287521 -113.17786 -6.300644 c -34.94217 -3.3516846 
                -87.54779 -17.986168 -113.282104 -25.60263 z" style=
                "fill:#ffffff;fill-opacity:1;stroke:none;" onClick="javascript:onPathClick('path3958');"
                class="img-path"/>
            <path id="path3965" d="m 568.05115 85.34468 c -13.807495 0.41423035 -32.79077 9.926018 
                -49.21228 29.052986 c -0.69525146 0.8098221 -1.373291 1.6330948 -2.033142 2.4502487 
                c 6.098999 0.22583008 24.653687 0.86283875 32.217407 1.5001526 c 0.56311035 
                -12.078262 7.696228 -13.590843 10.269897 -12.251259 c -0.09790039 26.949516 
                -16.97168 44.572685 -28.828796 55.855736 c -9.034058 8.596603 -14.279602 18.64064 
                -20.122833 17.101746 c -3.5190125 -0.9267731 3.4056091 -7.0583344 5.3695984 
                -9.650986 c -5.5640564 -0.774353 -15.862976 -2.1888428 -21.426147 -2.6002655 c 
                -1.7590637 9.747299 -1.901947 17.642319 -1.6682129 21.902252 c 0.5957947 10.858246 
                13.680847 12.594147 25.59668 11.451172 c -4.468445 2.8574219 -10.694458 6.250641 
                -20.227112 2.250229 c 0.0 0.0 10.341675 62.43715 11.364716 115.261826 c 2.3616638 
                0.29452515 4.738556 0.78515625 7.0377502 1.5001526 c 9.776367 -8.009674 21.160767 
                -13.578339 33.312134 -17.201752 c 3.2248535 -52.576157 19.184448 -145.26491 
                19.184448 -145.26491 c 0.0 0.0 25.015808 -50.840935 15.483154 -64.55663 c -3.2768555 
                -4.7147675 -9.084717 -7.0176697 -16.31726 -6.8006973 z" style=
                "fill:#ffffff;fill-opacity:1;stroke:none;" onClick="javascript:onPathClick('path3965');"
                class="img-path"/>
            <path id="path4064" d="m 523.7318 321.86984 c 9.830566 -6.2863464 22.640015 -16.715973 
                58.08954 -19.28769 c 35.449585 -2.5716858 88.028076 16.144531 88.028076 16.144531 c 
                -56.302185 8.000824 -86.538574 47.86203 -86.538574 47.86203 l -31.130066 -3.428894 c 
                0.0 0.0 -4.0215454 -27.860016 -28.448975 -41.289978 z" style=
                "fill:#ffffff;fill-opacity:1;stroke:none;" onClick="javascript:onPathClick('path4064');"
                class="img-path"/>
            <path id="path4082" d="m 829.49146 133.2496 c -35.378113 18.001541 -74.349 32.964767 
                -114.89819 30.3031 c -9.62207 -0.6315918 -5.2645874 2.7570496 -3.597046 7.7007904 c 
                6.335144 18.828445 9.03949 39.208954 5.213135 58.80603 c 34.37451 -19.396362 
                70.59363 -36.8051 101.55249 -61.106262 c 10.144714 -9.604935 14.497864 -23.458603 
                13.919189 -36.853775 l -1.4631958 0.76856995 z" style=
                "fill:#ffffff;fill-opacity:1;stroke:none;" onClick="javascript:onPathClick('path4082');"
                class="img-path"/>
            <path id="path4112" d="m 455.81168 353.01593 c 0.0 0.0 4.617401 -17.144623 25.618988 
                -24.716827 c 22.353882 -8.059784 37.385864 -3.1431885 50.046387 7.715088 c 
                12.6605835 10.858246 27.257446 29.288696 29.491638 43.71875 c 2.234253 14.430054 
                -23.533691 32.14615 -28.002136 30.431702 c -4.468445 -1.714447 -12.660522 -32.289032 
                -17.724792 -44.290253 c -5.0641785 -12.001251 -19.065277 -22.859497 -34.10898 
                -21.430756 c -15.043701 1.4286804 -25.321106 8.572296 -25.321106 8.572296 z" style=
                "fill:#ffffff;fill-opacity:1;stroke:none;" onClick="javascript:onPathClick('path4112');"
                class="img-path"/>
            <path id="path4140" d="m 443.74692 505.31726 c 0.0 0.0 17.575806 -43.433014 45.577972 
                -50.5766 c 28.002136 -7.1436157 56.302185 27.717133 60.472717 44.861725 c 4.170532 
                17.144623 -4.170532 31.146088 -15.192627 31.71756 c -11.022156 0.57147217 -90.85806 
                -26.002686 -90.85806 -26.002686 z" style="fill:#ffffff;fill-opacity:1;stroke:none;"
                onClick="javascript:onPathClick('path4140');" class="img-path"/>
            <path id="path4196" d="m 330.9042 95.34571 c 13.877167 24.977524 23.042786 54.116417 
                19.118744 82.6867 c -2.9984436 7.4952393 9.564728 -1.4949036 13.046509 -0.87831116 c 
                49.739197 -14.825455 102.950165 -22.246933 154.83105 -14.1514435 c 12.398193 
                -10.1453705 22.314636 -23.34996 27.004211 -38.65397 C 486.32767 121.895256 426.86624 
                121.570496 370.21234 105.70306 C 357.18237 102.65046 342.8324 98.26192 330.9042 
                95.34571 z" style="fill:#ffffff;fill-opacity:1;stroke:none;" onClick="javascript:onPathClick('path4196');"
                class="img-path"/>
            <path id="path4210" d="m 558.51105 89.49511 c -7.26001 1.3181686 -25.934387 13.281631 
                -38.68164 27.45282 c 7.493103 0.27256775 22.365906 0.8248291 29.193726 1.4001389 c 
                0.56311035 -12.078262 7.696228 -13.590843 10.269897 -12.251259 c -0.09790039 
                26.949516 -16.97168 44.572685 -28.828796 55.855736 c -3.3877563 3.2237244 -6.256714 
                6.657303 -8.810242 9.600983 l 0.0 0.40003967 l 19.809998 8.700897 c 0.0 0.0 
                26.434814 -28.05159 34.16028 -48.279816 c 7.7938232 -20.407188 9.598389 -32.04461 
                5.876892 -38.229065 C 576.3037 85.50836 566.52997 88.03916 558.51105 89.49511 z"
                style="fill:#ffffff;fill-opacity:1;stroke:none;" onClick="javascript:onPathClick('path4210');"
                class="img-path"/>
            <path id="path4223" d="m 852.0124 106.14682 c -7.643921 -0.14377594 -16.920471 3.2217636 
                -24.293396 7.400757 c -7.345276 4.163353 -14.612427 14.380356 -20.122803 22.802338 c 
                8.643311 -3.7634583 17.152649 -7.832077 25.440247 -12.201248 l 7.871887 -9.000923 c 
                8.943787 22.265175 -5.4005737 50.214302 -20.644165 63.256493 c -10.542114 7.9605255 
                -21.29425 13.625992 -32.425903 19.552002 l 11.573242 44.20453 c 0.0 0.0 34.868652 
                -46.897675 48.273926 -69.75716 c 13.405334 -22.859497 22.930481 -45.397514 17.56836 
                -58.255974 c -2.3458862 -5.62558 -7.2962036 -7.8889923 -13.241394 -8.000816 z"
                style="fill:#ffffff;fill-opacity:1;stroke:none;" onClick="javascript:onPathClick('path4223');"
                class="img-path"/>
        </g>
    </g>
</svg>