<?xml version="1.0" standalone="no"?>
<!--Created with Sketsa SVG Editor (http://www.kiyut.com)-->
<svg contentScriptType="text/ecmascript" width="850.0px" xmlns:xlink="http://www.w3.org/1999/xlink"
    baseProfile="full" zoomAndPan="magnify" contentStyleType="text/css" height="600.0px"
    preserveAspectRatio="xMidYMid meet" xmlns="http://www.w3.org/2000/svg" version="1.0">
    <g transform="matrix(0.29870346 0.0 0.0 0.29870346 -33.26323 12.247738)">
        <path d="M 1285.6146 246.84428 c 25.824585 -84.02602 60.930176 -152.44415 110.103516 
            -197.048 c 13.671875 180.70685 105.34802 399.7411 204.6521 622.5281 c -2.609253 
            0.59765625 -5.2509766 1.1953125 -7.8602295 1.8268433 c -0.09863281 0.0 -0.19848633 
            0.03265381 -0.29711914 0.066589355 c -19.318726 4.118164 -38.90222 9.697937 -58.684082 
            16.339844 c -0.36328125 0.13311768 -0.7591553 0.26623535 -1.1224365 0.36541748 c 
            -22.556152 7.206909 -45.540283 15.543884 -68.88916 24.975647 C 1322.1398 583.084 
            1250.1796 430.40753 1285.6146 246.84428 z" id="path4" style=
            "fill:#ffffff;stroke:black;stroke-width:6" onClick="javascript:onPathClick('path4');"
            class="img-path"/>
        <path d="M 1420.1556 734.5312 c -112.283325 -101.89514 -212.70984 -309.63678 -184.07764 
            -520.33405 c 13.210083 -97.145386 92.99695 -203.22536 194.84436 -253.24196 c 17.503418 
            186.88425 97.35535 421.36182 239.98743 699.2479 c -13.639282 1.560669 -27.443604 
            3.619812 -41.47888 6.177368 c -6.60437 0.99694824 -13.1102295 2.1922607 -19.352417 
            3.819458 c -3.236084 0.69677734 -6.4733887 1.3949585 -9.709351 2.1256714 c -99.30432 
            -222.78708 -190.98035 -441.82123 -204.65234 -622.52814 c -49.173218 44.603905 -84.27759 
            113.02078 -110.10339 197.04807 c -35.43518 183.56328 36.525146 336.2397 177.90259 
            469.05438 C 1449.2174 721.71063 1434.7527 727.88806 1420.1556 734.5312 z" id="path6"
            style="fill:#ffffff;stroke:black;stroke-width:6" onClick="javascript:onPathClick('path6');"
            class="img-path"/>
        <path d="M 941.4726 137.73085 c 39.43152 18.997925 53.20215 49.154037 53.400635 85.222565 l 
            -62.746582 -34.308243 c -12.51593 1.3283844 -24.933167 0.23228455 -37.28424 -2.3918457 c 
            -8.18988 -1.7276459 -14.497131 -8.50267 -15.653259 -16.838348 c -2.3121948 -17.00409 
            2.1137085 -31.617584 17.53595 -42.379005 c 5.812866 -4.0517044 13.408569 -4.516266 
            19.781921 -1.4275818 L 941.4726 137.73085 z" id="path8" style=
            "fill:#ffffff;stroke:black;stroke-width:6" onClick="javascript:onPathClick('path8');"
            class="img-path"/>
        <path d="M 1959.1257 724.8069 c 255.47607 -121.92139 479.61304 -245.10593 596.4531 
            -372.50662 c 54.292236 140.28781 36.822266 273.40256 -52.278076 393.03262 c -85.40137 
            114.615295 -217.8623 173.93182 -374.76074 201.46503 c -0.23095703 -0.5975952 -0.49560547 
            -1.229126 -0.7590332 -1.8268433 c -4.689209 -12.586975 -9.808105 -24.84253 -15.355957 
            -36.799316 c 123.18091 -18.100159 235.2981 -65.46118 319.5769 -160.48096 c 74.83325 
            -84.39142 104.78638 -187.88116 92.89722 -302.2303 c -119.3833 120.028076 -302.1399 
            225.87573 -509.10315 326.27557 h -0.032348633 C 1997.9955 753.99994 1979.1385 738.3908 
            1959.1257 724.8069 z" id="path10" style="fill:#ffffff;stroke:black;stroke-width:6"
            onClick="javascript:onPathClick('path10');" class="img-path"/>
        <path d="M 914.72424 660.39154 h -0.032470703 C 836.95105 723.4948 749.1727 825.42267 
            658.98224 936.7497 c 51.08844 -115.24567 129.88538 -219.10071 238.36957 -310.76562 c 
            5.5806274 11.591309 11.359802 23.049622 17.371155 34.374817 V 660.39154 z" id="path12"
            style="fill:#ffffff;stroke:black;stroke-width:6" onClick="javascript:onPathClick('path12');"
            class="img-path"/>
        <path d="M 158.76202 579.4202 c 176.2846 -193.52744 386.05432 -293.99377 621.98065 
            -321.85846 c 24.76831 132.98166 62.548157 256.5968 116.60919 368.4223 c -108.48541 
            91.664795 -187.28107 195.51996 -238.36957 310.76556 c -35.43518 -215.01514 -122.71918 
            -357.1963 -282.35797 -397.71454 C 294.45898 533.0561 220.78206 544.41516 158.76202 
            579.4202 z" id="path14" style="fill:#ffffff;stroke:black;stroke-width:6" onClick="javascript:onPathClick('path14');"
            class="img-path"/>
        <path d="M 1119.4426 932.7971 c -66.77539 120.659546 -113.24078 246.26733 -144.67963 
            375.4961 C 933.9431 1087.9307 847.41943 935.98505 658.98224 936.7497 c 90.18915 
            -111.32703 177.96881 -213.25488 255.70831 -276.35815 h 0.032409668 c 26.651001 50.78125 
            56.933777 98.97223 91.14673 144.33948 C 1042.6932 853.5197 1080.6715 896.42975 1119.4426 
            932.7971 z" id="path16" style="fill:#ffffff;stroke:black;stroke-width:6" onClick="javascript:onPathClick('path16');"
            class="img-path"/>
        <path d="M 1523.7919 1194.9738 c 88.63733 75.55725 202.27393 116.24243 302.1725 90.23718 c 
            1.3544922 -26.635376 9.147583 -40.91748 24.76831 -40.152832 c 29.128052 2.258789 
            35.13806 25.341064 26.420044 61.740967 l 0.06616211 0.26623535 c -62.28357 20.29248 
            -132.55957 18.864868 -211.42139 -5.8120117 c -88.5387 -31.916382 -151.61499 -72.601685 
            -191.54102 -118.368164 c -2.675415 -30.621826 5.61438 -48.954346 29.194214 -50.183594 c 
            22.291382 -0.7972412 34.114258 16.60608 28.070557 25.739136 c -1.5194092 2.2912598 
            -2.9064941 4.550049 -4.095093 6.875366 C 1523.0667 1173.6178 1521.018 1182.5851 
            1523.7919 1194.9738 z" id="path18" style="fill:#ffffff;stroke:black;stroke-width:6"
            onClick="javascript:onPathClick('path18');" class="img-path"/>
        <path d="M 1903.308 1240.3748 c -1.6517334 -1.3948975 -1.1224365 -38.72522 3.0388184 
            -53.437866 l 12.21875 -1.1627197 c 20.871704 -1.560669 42.00708 -3.5871582 63.37329 
            -5.87854 c -14.06897 24.576416 -34.907104 54.102173 -54.952393 62.970215 C 1918.4669 
            1246.6188 1909.3193 1245.4222 1903.308 1240.3748 z" id="path20" style=
            "fill:#ffffff;stroke:black;stroke-width:6" onClick="javascript:onPathClick('path20');"
            class="img-path"/>
        <path d="M 1807.5382 1189.0613 c 14.729492 0.39794922 29.589966 0.39794922 44.616455 
            0.06652832 c -6.9677734 17.469849 -18.889282 31.916382 -39.926025 40.717896 c -14.597046 
            1.229248 -18.130127 -14.845825 -15.422241 -40.68518 l 10.534546 -0.099243164 L 1807.5382 
            1189.0613 L 1807.5382 1189.0613 z" id="path22" style=
            "fill:#ffffff;stroke:black;stroke-width:6" onClick="javascript:onPathClick('path22');"
            class="img-path"/>
        <path d="M 1570.0264 1137.2505 c -6.8691406 -3.5871582 -9.015137 -38.194214 -4.9539795 
            -60.18042 l 45.837524 36.932373 C 1599.9471 1132.7003 1579.5372 1142.2325 1570.0264 
            1137.2505 z" id="path24" style="fill:#ffffff;stroke:black;stroke-width:6" onClick="javascript:onPathClick('path24');"
            class="img-path"/>
        <path d="M 2314.1982 1378.4365 c 113.24072 -38.92505 230.6416 -96.74744 351.41187 -170.17896 
            c 155.51123 200.03613 207.59082 430.99316 200.06152 679.7854 c -26.848145 -119.99536 
            -138.99902 -228.00134 -216.57373 -235.14172 c -134.60718 -25.805542 -262.24658 25.440308 
            -386.781 110.39661 C 2304.9185 1640.8793 2330.8088 1514.6061 2314.1982 1378.4365 z" id="path26"
            style="fill:#ffffff;stroke:black;stroke-width:6" onClick="javascript:onPathClick('path26');"
            class="img-path"/>
        <path d="M 2529.1204 1022.53595 c 30.514893 -21.820374 65.982666 -27.234375 105.94214 
            -17.968323 c 32.52881 12.720093 43.988525 33.012573 35.634033 55.79602 c -8.189941 
            16.339844 -19.61621 22.81604 -33.849854 20.756836 c -5.5808105 -11.890137 -16.743164 
            -22.417969 -32.033203 -25.905884 L 2529.1204 1022.53595 z" id="path28" style=
            "fill:#ffffff;stroke:black;stroke-width:6" onClick="javascript:onPathClick('path28');"
            class="img-path"/>
        <path d="M 2282.693 1388.7999 c 10.468506 -3.2884521 20.970459 -6.7424316 31.505127 
            -10.362183 c 16.61084 136.16956 -9.279785 262.44153 -51.881348 384.86133 C 2276.4185 
            1614.9733 2288.7356 1472.3939 2282.693 1388.7999 z" id="path30" style=
            "fill:#ffffff;stroke:black;stroke-width:6" onClick="javascript:onPathClick('path30');"
            class="img-path"/>
        <path d="M 2135.173 941.8309 c 0.26464844 0.5977173 0.5280762 1.229248 0.7590332 1.8268433 c 
            -0.032470703 0.0 -0.032470703 0.0 -0.06591797 0.0 C 2135.635 943.0601 2135.404 942.4286 
            2135.173 941.8309 z" id="path32" style="fill:#ffffff;stroke:black;stroke-width:6"
            onClick="javascript:onPathClick('path32');" class="img-path"/>
        <path d="M 2524.8992 445.45923 c 11.88916 114.34912 -18.063965 217.83765 -92.89722 302.2303 
            c -84.27759 95.019714 -196.396 142.3808 -319.57715 160.48096 c -23.712158 -51.245728 
            -55.117188 -96.513855 -95.2417 -135.07343 c -0.46191406 -0.43188477 -0.9251709 
            -0.8964844 -1.387085 -1.3622437 C 2222.759 671.33496 2405.517 565.4886 2524.8992 
            445.45923 z" id="path34" style="fill:#ffffff;stroke:black;stroke-width:6" onClick="javascript:onPathClick('path34');"
            class="img-path"/>
        <path d="M 2024.5741 769.95825 c 16.050293 16.14148 31.141724 33.94287 45.276978 53.405273 c 
            -13.936768 -18.49945 -29.589966 -36.76538 -46.69641 -54.766357 h 0.032470703 C 2023.6489 
            769.06165 2024.1122 769.52625 2024.5741 769.95825 z" id="path36" style=
            "fill:#ffffff;stroke:black;stroke-width:6" onClick="javascript:onPathClick('path36');"
            class="img-path"/>
        <path d="M 2021.8336 923.86255 c 1.5517578 8.402222 -3.996338 16.506836 -12.351074 18.067505 
            c -8.38855 1.5280151 -16.413696 -4.019104 -17.965454 -12.4539795 c -1.5518799 -8.402161 
            3.996338 -16.506775 12.351074 -18.03357 C 2012.2554 909.88055 2020.2806 915.4277 
            2021.8336 923.86255 z" id="path38" style="fill:#ffffff;stroke:black;stroke-width:6"
            onClick="javascript:onPathClick('path38');" class="img-path"/>
        <path d="M 2009.4813 941.93005 c 8.354858 -1.5606079 13.902832 -9.665283 12.351074 
            -18.067505 c -1.5517578 -8.436157 -9.577026 -13.981995 -17.965454 -12.421326 c -8.354614 
            1.5280762 -13.902832 9.63147 -12.350952 18.033691 C 1993.069 937.91223 2001.0942 
            943.4582 2009.4813 941.93005 z M 1989.6344 906.3274 c 17.040283 -3.1552734 33.420166 
            8.169922 36.557617 25.307068 c 3.1374512 17.137268 -8.123779 33.577576 -25.164062 
            36.76538 c -17.040405 3.1552734 -33.387695 -8.169922 -36.525146 -25.307068 C 1961.3317 
            925.9556 1972.6267 909.48267 1989.6344 906.3274 z" id="path40" style=
            "fill:#ffffff;stroke:black;stroke-width:6" onClick="javascript:onPathClick('path40');"
            class="img-path"/>
        <path d="M 1966.5166 721.668 c 20.01294 13.583923 38.86975 29.193054 56.63672 46.92914 c 
            -17.602173 -16.739136 -36.88855 -32.21521 -57.92505 -46.33026 C 1965.6588 722.0659 
            1966.0884 721.8677 1966.5166 721.668 z" id="path42" style=
            "fill:#ffffff;stroke:black;stroke-width:6" onClick="javascript:onPathClick('path42');"
            class="img-path"/>
        <path d="M 2042.6381 929.7084 c 5.0201416 27.366333 -12.979004 53.637695 -40.15808 58.68628 
            c -27.21289 5.048645 -53.334473 -13.052795 -58.354614 -40.419067 c -5.0200195 -27.333618 
            12.9453125 -53.6037 40.158203 -58.652344 C 2011.4963 884.27466 2037.6179 902.3422 
            2042.6381 929.7084 z M 2026.1921 931.6344 c -3.1374512 -17.137146 -19.517212 -28.462341 
            -36.557617 -25.307068 c -17.007812 3.1552124 -28.301514 19.628174 -25.131592 36.76538 c 
            3.1374512 17.137146 19.484863 28.462341 36.525146 25.307129 C 2018.0682 965.21204 
            2029.3295 948.77167 2026.1921 931.6344 z" id="path44" style=
            "fill:#ffffff;stroke:black;stroke-width:6" onClick="javascript:onPathClick('path44');"
            class="img-path"/>
        <path d="M 2042.6381 929.7084 c -5.0201416 -27.36621 -31.141724 -45.433716 -58.354492 
            -40.386414 c -27.211548 5.048645 -45.177002 31.318787 -40.158203 58.652405 c 5.0201416 
            27.36621 31.141724 45.46765 58.354614 40.419006 C 2029.6603 983.34607 2047.6582 957.0747 
            2042.6381 929.7084 z M 1862.7218 990.95105 c -10.897827 -59.516174 28.202759 -116.67444 
            87.41504 -127.66687 c 59.17981 -10.993713 116.015015 28.36316 126.94519 87.87933 c 
            10.9313965 59.54883 -28.20288 116.70709 -87.41504 127.70087 C 1930.487 1089.8241 
            1873.6521 1050.4672 1862.7218 990.95105 z" id="path46" style=
            "fill:#ffffff;stroke:black;stroke-width:6" onClick="javascript:onPathClick('path46');"
            class="img-path"/>
        <path d="M 2282.693 1388.7999 c 6.0439453 83.59534 -6.274658 226.17456 -20.37622 374.49915 c 
            -126.71411 -127.26892 -297.38452 -88.444336 -488.76062 28.661987 c 75.42737 -106.24573 
            124.60071 -225.87561 157.69116 -359.5542 l 0.06628418 -0.5311279 C 2042.869 1443.1005 
            2160.271 1427.3257 2282.693 1388.7999 z" id="path48" style=
            "fill:#ffffff;stroke:black;stroke-width:6" onClick="javascript:onPathClick('path48');"
            class="img-path"/>
        <path d="M 1902.4504 1428.3552 c 9.577026 1.3609619 19.187622 2.5236816 28.863281 3.5205078 
            l -0.06616211 0.5311279 c -33.090576 133.67859 -82.263916 253.30847 -157.69128 359.5542 
            C 1833.2965 1650.9753 1888.4152 1515.4033 1902.4504 1428.3552 z" id="path50" style=
            "fill:#ffffff;stroke:black;stroke-width:6" onClick="javascript:onPathClick('path50');"
            class="img-path"/>
        <path d="M 2314.1982 1378.4365 c -10.534668 3.619629 -21.036621 7.0737305 -31.505127 
            10.362061 c -122.4209 38.525635 -239.82275 54.30188 -351.3794 43.075806 c -9.675659 
            -0.99560547 -19.286255 -2.1582031 -28.863281 -3.5205078 c -63.93518 -9.233398 -125.88916 
            -27.599731 -185.63074 -55.928955 c 55.877686 9.033691 115.65161 8.036743 178.95886 
            -3.8861084 c 320.07178 18.499512 555.1726 -88.61011 710.12354 -283.99695 c -1.5195312 
            -9.930298 -1.8164062 -19.694702 -1.0898438 -29.326172 c 15.289795 3.4866943 26.452393 
            14.015869 32.033203 25.906006 c 14.233643 2.059204 25.659424 -4.416992 33.84961 
            -20.756958 c 8.354492 -22.783447 -3.1049805 -43.075806 -35.63379 -55.7959 c 16.94165 
            -9.897705 32.727295 -9.86377 47.88501 0.26611328 c 34.279053 22.88269 35.270264 
            50.515137 16.512207 82.20044 c 153.03564 283.96313 253.75952 596.1576 172.156 851.49133 
            c -0.13256836 -16.90503 -2.2124023 -33.809814 -5.944092 -50.482544 c 7.529541 -248.79224 
            -44.550293 -479.74915 -200.06177 -679.7855 C 2544.8396 1281.6904 2427.4377 1339.5128 
            2314.1982 1378.4365 z" id="path52" style="fill:#ffffff;stroke:black;stroke-width:6"
            onClick="javascript:onPathClick('path52');" class="img-path"/>
        <path d="M 1682.739 842.2284 c -8.520752 0.0 -15.422241 -6.9420166 -15.422241 -15.477295 c 
            0.0 -8.569214 6.9014893 -15.509949 15.422241 -15.509949 c 8.520874 0.0 15.389893 
            6.940735 15.389893 15.509949 C 1698.1277 835.2863 1691.2587 842.2284 1682.739 842.2284 
            z" id="path54" style="fill:#ffffff;stroke:black;stroke-width:6" onClick="javascript:onPathClick('path54');"
            class="img-path"/>
        <path d="M 1667.3169 826.7511 c 0.0 8.535217 6.9014893 15.477295 15.422241 15.477295 c 
            8.520752 0.0 15.389893 -6.9420776 15.389893 -15.477295 c 0.0 -8.569275 -6.8691406 
            -15.510071 -15.389893 -15.510071 S 1667.3169 818.1818 1667.3169 826.7511 z M 1701.0342 
            835.18713 c 0.0 17.403381 -14.035278 31.551086 -31.37268 31.551086 c -17.337524 0.0 
            -31.37268 -14.148987 -31.37268 -31.551086 c 0.0 -17.435974 14.035156 -31.550964 31.37268 
            -31.550964 C 1686.999 803.6349 1701.0342 817.7499 1701.0342 835.18713 z" id="path56"
            style="fill:#ffffff;stroke:black;stroke-width:6" onClick="javascript:onPathClick('path56');"
            class="img-path"/>
        <path d="M 1669.6615 657.9005 c -13.342529 2.8225098 -27.608643 4.0855713 -41.479126 
            6.177307 C 1642.2178 661.52026 1656.022 659.4611 1669.6615 657.9005 z" id="path58"
            style="fill:#ffffff;stroke:black;stroke-width:6" onClick="javascript:onPathClick('path58');"
            class="img-path"/>
        <path d="M 1669.6615 866.7382 c 17.337402 0.0 31.37268 -14.148987 31.37268 -31.551025 c 0.0 
            -17.436035 -14.035278 -31.551025 -31.37268 -31.551025 c -17.337524 0.0 -31.372803 
            14.11499 -31.372803 31.551025 C 1638.2875 852.5905 1652.3228 866.7382 1669.6615 866.7382 
            z M 1667.448 785.9 c 27.674805 0.0 50.09839 22.551147 50.09839 50.38324 s -22.423584 
            50.38324 -50.09839 50.38324 c -27.640991 0.0 -50.06482 -22.551147 -50.06482 -50.38324 S 
            1639.8069 785.9 1667.448 785.9 z" id="path60" style=
            "fill:#ffffff;stroke:black;stroke-width:6" onClick="javascript:onPathClick('path60');"
            class="img-path"/>
        <path d="M 1716.8198 1372.4261 c 59.741455 28.330566 121.69409 46.696777 185.63062 55.928955 
            c -14.035278 87.04944 -69.15259 222.62 -128.89417 363.60596 c -16.776733 -81.80115 
            -59.84021 -131.02173 -149.73218 -122.35327 l -0.7265625 -7.7054443 c 67.30347 -48.954468 
            95.86963 -145.73438 83.32007 -291.2704 C 1709.852 1371.2635 1713.319 1371.8938 1716.8198 
            1372.4261 z" id="path62" style="fill:#ffffff;stroke:black;stroke-width:6" onClick="javascript:onPathClick('path62');"
            class="img-path"/>
        <path d="M 1638.5522 754.0828 c 60.20349 0.0 108.98096 49.05481 108.98096 109.600586 s 
            -48.777466 109.600586 -108.98096 109.600586 c -60.16992 0.0 -108.9812 -49.05487 
            -108.9812 -109.600586 S 1578.3823 754.0828 1638.5522 754.0828 z M 1717.5464 836.28326 c 
            0.0 -27.832092 -22.423828 -50.38324 -50.09851 -50.38324 c -27.640991 0.0 -50.06482 
            22.551147 -50.06482 50.38324 s 22.423828 50.38318 50.06482 50.38318 C 1695.1228 886.6652 
            1717.5464 864.1141 1717.5464 836.28326 z" id="path64" style=
            "fill:#ffffff;stroke:black;stroke-width:6" onClick="javascript:onPathClick('path64');"
            class="img-path"/>
        <path d="M 1599.2205 670.2226 c -2.6417236 0.4984131 -5.3172607 1.0621948 -7.9589844 
            1.6271973 c 2.609253 -0.63153076 5.2509766 -1.229187 7.8603516 -1.8268433 C 1599.1544 
            670.0895 1599.1869 670.156 1599.2205 670.2226 z" id="path66" style=
            "fill:#ffffff;stroke:black;stroke-width:6" onClick="javascript:onPathClick('path66');"
            class="img-path"/>
        <path d="M 1532.4775 1048.84 c -0.032470703 0.032592773 -0.032470703 0.099243164 -0.06604004 
            0.13305664 c -1.0562744 -0.829834 -2.1137695 -1.6610107 -3.1699219 -2.4909668 L 
            1532.4775 1048.84 z" id="path68" style="fill:#ffffff;stroke:black;stroke-width:6"
            onClick="javascript:onPathClick('path68');" class="img-path"/>
        <path d="M 1825.9656 1285.2109 c -99.89844 26.005127 -213.53503 -14.680054 -302.17236 
            -90.237305 c -2.7740479 -12.388672 -0.7265625 -21.355835 3.6329346 -29.658936 c 56.96753 
            -1.9925537 112.08484 25.506714 165.0885 87.21521 C 1755.5571 1251.2682 1803.5745 
            1259.8033 1825.9656 1285.2109 z" id="path70" style=
            "fill:#ffffff;stroke:black;stroke-width:6" onClick="javascript:onPathClick('path70');"
            class="img-path"/>
        <path d="M 1529.2415 1046.482 c 1.0574951 0.82995605 2.1137695 1.6611328 3.1697998 2.4909668 
            c -15.753052 32.614502 -33.18921 58.68628 -51.122192 53.83728 c -16.710571 -4.5162354 
            -19.914185 -40.618652 -12.812866 -100.86554 l 60.20337 44.105408 L 1529.2415 1046.482 z"
            id="path72" style="fill:#ffffff;stroke:black;stroke-width:6" onClick="javascript:onPathClick('path72');"
            class="img-path"/>
        <path d="M 1565.0725 1077.0701 c -4.0625 21.986206 -1.9151611 56.59326 4.9539795 60.18042 c 
            9.510742 4.9819336 29.919434 -4.550171 40.884766 -23.248047 L 1565.0725 1077.0701 z M 
            1825.9656 1285.2109 c -22.390015 -25.407593 -70.40845 -33.94287 -133.45093 -32.68103 c 
            -53.003662 -61.708496 -108.12219 -89.20776 -165.0885 -87.21521 c 1.1885986 -2.3253174 
            2.5756836 -4.5827637 4.095093 -6.875366 c 6.043701 -9.133057 -5.779175 -26.536377 
            -28.070557 -25.739136 c -23.579712 1.229248 -31.868408 19.561646 -29.19397 50.183594 c 
            -51.782715 -59.31653 -64.661865 -127.20227 -43.724 -195.71832 c 1.1887207 -3.8520508 
            5.6468506 -5.7128296 9.115112 -3.6536865 c 29.854614 17.569092 59.84021 39.555237 
            89.0343 62.53827 l -60.20349 -44.105347 c -7.0999756 60.246826 -3.8964844 96.34802 
            12.812988 100.8656 c 17.931763 4.848999 35.36914 -21.222778 51.122192 -53.83728 c 
            66.841675 52.97351 129.28992 110.39661 176.31714 130.49072 c 32.165405 5.7127686 
            65.02515 8.668335 98.61133 9.598633 l -10.534546 0.099243164 c -2.7080078 25.839478 
            0.8251953 41.913208 15.422241 40.685303 c 21.036621 -8.801514 32.958252 -23.248047 
            39.926025 -40.717896 c 21.829346 -0.4645996 43.98828 -1.6611328 66.41199 -3.3548584 l 
            -12.218628 1.1625977 c -4.161133 14.712769 -4.689331 52.04309 -3.0386963 53.43799 c 
            6.01001 5.048706 15.157471 6.2440186 23.678345 2.4909668 c 20.04541 -8.86792 40.884644 
            -38.39258 54.952393 -62.970093 c 2.8726807 -0.33276367 5.746704 -0.6315918 8.619385 
            -0.96313477 c 13.242432 -1.4940186 24.76831 2.8225098 32.925903 7.5723877 c 5.1846924 
            2.989502 6.208618 10.0633545 2.3444824 14.7126465 c -43.360474 52.010376 -92.76599 
            87.67981 -148.60986 105.846436 l -0.06616211 -0.26623535 c 8.718018 -36.399902 2.7078857 
            -59.482178 -26.419922 -61.740967 C 1835.113 1244.2935 1827.3188 1258.5742 1825.9656 
            1285.2109 z" id="path74" style="fill:#ffffff;stroke:black;stroke-width:6" onClick="javascript:onPathClick('path74');"
            class="img-path"/>
        <path d="M 1425.182 1198.4277 c 76.12134 91.99768 170.90112 151.81262 281.2356 172.20422 c 
            12.549561 145.53467 -16.016724 242.31592 -83.32031 291.2704 c -14.49707 10.561768 
            -30.844482 18.89746 -48.94226 25.0083 c -62.77893 21.255371 -145.47253 10.129883 
            -219.21558 -24.410522 c -32.891968 -15.410889 -64.03369 -35.470947 -90.78345 -59.416992 
            c -47.818726 -42.811035 -73.67688 -106.01355 -72.38977 -165.82861 c 0.69299316 
            -34.041992 10.204956 -66.98926 29.457642 -94.48865 c 49.139526 -70.20984 122.55298 
            -114.18323 203.92566 -144.33936 C 1425.1482 1198.4277 1425.1482 1198.4277 1425.182 
            1198.4277 z" id="path76" style="fill:#ffffff;stroke:black;stroke-width:6" onClick="javascript:onPathClick('path76');"
            class="img-path"/>
        <path d="M 1638.5522 973.2828 c 60.20349 0.0 108.98096 -49.05481 108.98096 -109.60065 s 
            -48.777466 -109.600525 -108.98096 -109.600525 c -60.16992 0.0 -108.9812 49.05481 
            -108.9812 109.600525 S 1578.3823 973.2828 1638.5522 973.2828 z M 2077.0833 951.1635 c 
            -10.93042 -59.516174 -67.76538 -98.87189 -126.94519 -87.87933 c -59.21228 10.993713 
            -98.31433 68.150696 -87.41516 127.66687 c 10.931519 59.516113 67.76672 98.871826 
            126.94531 87.911865 C 2048.8804 1067.8706 2088.0134 1010.71234 2077.0833 951.1635 z M 
            1965.2294 722.26556 c 21.036621 14.115051 40.322998 29.592407 57.92505 46.330322 c 
            17.106445 18.000977 32.759888 36.268127 46.69641 54.766357 c 0.06616211 0.06652832 
            0.09863281 0.09918213 0.09863281 0.16571045 c 17.766846 24.511108 34.015625 51.677734 
            48.611572 81.50244 c 0.032470703 0.03253174 0.06616211 0.066467285 0.06616211 
            0.099121094 s 0.032470703 0.032714844 0.032470703 0.06652832 c 5.7790527 11.789795 
            11.260986 24.012634 16.512207 36.633545 c 0.23095703 0.5977173 0.46191406 1.229248 
            0.6940918 1.8268433 c 0.032470703 0.0 0.032470703 0.0 0.06616211 0.0 c 33.52002 
            81.070496 56.405518 179.21283 67.33716 294.49103 c -109.541504 70.110596 -212.47888 
            112.52222 -307.4895 130.39014 c -63.30725 11.922852 -123.08252 12.9198 -178.95886 
            3.8859863 c -3.5007324 -0.5311279 -6.9676514 -1.1625977 -10.402222 -1.7928467 c 
            -110.33447 -20.392944 -205.11414 -80.206665 -281.2356 -172.20435 v -0.032592773 c 
            -32.661133 -39.35681 -61.821533 -84.591064 -87.31641 -135.1726 c -6.6706543 -13.151978 
            -13.045288 -26.635498 -19.12146 -40.453003 c -26.848267 -60.479187 -48.84265 -127.60028 
            -65.75183 -200.6012 c 57.0 -35.63672 112.41431 -65.627075 165.91492 -89.93848 l 
            0.032470703 0.03265381 c 14.695679 -6.1447754 29.491333 -12.055908 44.351807 -17.70221 c 
            0.16479492 0.16571045 0.36328125 0.33270264 0.5280762 0.4984131 c 4.227173 -1.8594971 
            8.45459 -3.6863403 12.648193 -5.446594 c 43.426514 -16.074951 87.51489 -30.056885 
            132.36108 -41.714783 c 6.505615 -1.3623657 12.9453125 -2.6568604 19.352417 -3.819458 c 
            13.870483 -2.0917969 28.136597 -3.3549194 41.479004 -6.177429 c 114.42944 -13.285034 
            214.72485 7.9050903 296.85645 63.76758 C 1966.0884 721.8677 1965.6588 722.0659 1965.2294 
            722.26556 z M 1852.3844 1188.5967 l -44.847412 0.4645996 h -0.19848633 c -33.586304 
            -0.93029785 -66.4447 -3.8859863 -98.611206 -9.598755 c -47.02722 -20.092773 -109.475464 
            -77.51721 -176.31714 -130.49072 c 0.032470703 -0.032592773 0.032470703 -0.099121094 
            0.06604004 -0.13293457 l -3.235962 -2.3580322 l -0.5617676 -0.43188477 c -29.194214 
            -22.983093 -59.17981 -44.96924 -89.0343 -62.53833 c -3.467041 -2.059143 -7.925293 
            -0.19970703 -9.115112 3.6536865 c -20.93811 68.51599 -8.057617 136.40186 43.723755 
            195.71838 c 39.925903 45.76648 103.00342 86.45044 191.5409 118.368164 c 78.86182 
            24.676758 149.13794 26.10437 211.42151 5.8118896 c 55.84375 -18.166626 105.24805 
            -53.83716 148.60974 -105.846436 c 3.8640137 -4.649292 2.84021 -11.724365 -2.3446045 
            -14.712524 c -8.157471 -4.749878 -19.682007 -9.066528 -32.92578 -7.5723877 c -2.8726807 
            0.33276367 -5.746704 0.6315918 -8.619385 0.9630127 c 0.0 -0.032592773 0.032470703 
            -0.099121094 0.06616211 -0.13305664 l -63.439575 6.0115967 c -22.423706 1.6937256 
            -44.582764 2.889038 -66.41211 3.3548584 C 1852.2533 1188.962 1852.3195 1188.7625 
            1852.3844 1188.5967 z" id="path78" style="fill:#ffffff;stroke:black;stroke-width:6"
            onClick="javascript:onPathClick('path78');" class="img-path"/>
        <path d="M 1624.1212 1693.1545 c 37.053223 78.44641 1.1223145 130.29114 -86.68848 163.13794 
            l 21.466187 97.17932 l -34.676147 -76.38855 l -10.337402 90.469604 l -9.907837 
            -101.296265 l -59.444336 58.5531 l 65.32214 -101.42932 c 3.1699219 -4.881714 2.8728027 
            -11.258545 -0.7590332 -15.776123 c -45.672607 -56.49414 -98.90845 -100.76526 -160.8623 
            -130.98926 l 6.7042236 -14.114868 c 73.743164 34.540527 156.43665 45.666016 219.21558 
            24.410645 c 18.097778 -6.11084 34.44397 -14.447876 48.942383 -25.0083 l 0.7265625 
            7.7053223 c -0.98999023 0.099121094 -1.9812012 0.19970703 -3.005005 0.29882812 L 
            1624.1212 1693.1545 z" id="path80" style="fill:#ffffff;stroke:black;stroke-width:6"
            onClick="javascript:onPathClick('path80');" class="img-path"/>
        <path d="M 1348.2352 1676.6152 c -58.22229 -28.395996 -124.138794 -44.371704 -198.74084 
            -46.364258 c -6.8690186 -0.16577148 -12.780518 4.8150635 -13.705688 11.623901 l 
            -14.464722 104.41907 l -7.0338135 -78.878296 l -66.874146 65.19507 l 41.710083 -65.62695 
            l -66.47833 27.43274 l 68.95526 -54.401123 c -61.789062 -111.65967 -17.23877 -171.5072 
            85.433716 -202.9917 l 14.729492 0.23217773 c -1.2884521 59.815063 24.569702 123.01758 
            72.38977 165.82861 c 26.749512 23.945923 57.891235 44.006104 90.78345 59.41687 L 
            1348.2352 1676.6152 z" id="path82" style="fill:#ffffff;stroke:black;stroke-width:6"
            onClick="javascript:onPathClick('path82');" class="img-path"/>
        <path d="M 1144.2759 955.116 c 63.24231 54.301758 128.29993 91.20026 193.55591 108.10516 h 
            0.032470703 c 25.494995 50.581543 54.655273 95.81702 87.31653 135.1726 v 0.032714844 c 
            -0.032470703 0.0 -0.032470703 0.0 -0.032470703 0.0 c -81.37268 30.156128 -154.78491 
            74.12976 -203.92578 144.33948 c -19.253784 27.499268 -28.764648 60.446533 -29.45752 
            94.488525 l -14.72937 -0.23217773 c -18.16394 -117.10632 -72.42224 -174.29724 -202.27393 
            -128.73035 C 1035.7256 1172.2568 1094.145 1049.2053 1144.2759 955.116 z" id="path84"
            style="fill:#ffffff;stroke:black;stroke-width:6" onClick="javascript:onPathClick('path84');"
            class="img-path"/>
        <path d="M 1337.8318 1063.2213 c -65.25598 -16.90503 -130.3136 -53.803406 -193.55591 
            -108.105286 c -8.288452 -7.140442 -16.57837 -14.579651 -24.834473 -22.318909 c 
            -38.770996 -36.36731 -76.74805 -79.277405 -113.57037 -128.0661 c -34.21295 -45.36725 
            -64.49701 -93.55823 -91.14679 -144.33948 v -0.03265381 c -6.01001 -11.325195 -11.789185 
            -22.783508 -17.371094 -34.374817 c -54.061096 -111.82544 -91.84088 -235.44064 -116.60919 
            -368.4223 c -235.92633 27.864716 -445.69727 128.33109 -621.98065 321.85846 l 
            -0.032455444 0.032714844 c -17.040298 9.598755 -33.18921 20.990479 -48.38054 34.308228 c 
            135.96167 -222.18942 392.98956 -374.89847 728.1875 -462.74393 c 10.303589 -33.94287 
            28.038025 -53.571083 65.52075 -44.83613 c 22.357605 5.180443 34.939636 14.878418 
            37.416565 31.551033 l -24.966736 -12.122459 c -6.373474 -3.088684 -13.969116 -2.6241302 
            -19.782043 1.4275742 c -15.42218 10.760162 -19.848022 25.373672 -17.535889 42.379013 c 
            1.1560669 8.335678 7.463318 15.111954 15.653198 16.838333 c 12.351135 2.6241455 24.76831 
            3.7202454 37.28424 2.391861 c -5.746765 13.583923 -16.149048 18.465546 -28.070618 
            20.492035 c -20.376099 190.40483 18.923035 351.8828 99.0733 477.6902 c 75.09778 128.9953 
            180.34595 240.88727 314.26013 336.53857 l 1.3544922 -0.5977173 c 6.076416 13.816284 
            12.449829 27.301025 19.12146 40.453003 L 1337.8318 1063.2213 L 1337.8318 1063.2213 z"
            id="path86" style="fill:#ffffff;stroke:black;stroke-width:6" onClick="javascript:onPathClick('path86');"
            class="img-path"/>
        <path d="M 1716.8198 1372.4261 c -3.5007324 -0.5311279 -6.9677734 -1.1627197 -10.402222 
            -1.7930908 c -110.33435 -20.3927 -205.11426 -80.20642 -281.2356 -172.2041 c -0.032470703 
            0.0 -0.032470703 0.0 -0.032470703 0.0" id="path88" style=
            "fill:#ffffff;stroke:black;stroke-width:6" onClick="javascript:onPathClick('path88');"
            class="img-path"/>
        <path d="M 1119.4426 932.7971 c -66.77539 120.659546 -113.24078 246.26733 -144.67963 
            375.4961 c 60.962585 -136.03638 119.38324 -259.08777 169.5141 -353.1772" id="path92"
            style="fill:#ffffff;stroke:black;stroke-width:6" onClick="javascript:onPathClick('path92');"
            class="img-path"/>
        <path d="M 1902.4504 1428.3552 c -14.035278 87.04932 -69.15259 222.62012 -128.89417 
            363.60596 c 75.42737 -106.24585 124.60071 -225.87573 157.69128 -359.55432" id="path94"
            style="fill:#ffffff;stroke:black;stroke-width:6" onClick="javascript:onPathClick('path94');"
            class="img-path"/>
        <path d="M 2282.693 1388.7999 c 6.0439453 83.59534 -6.274658 226.17456 -20.37622 374.49915 c 
            42.601562 -122.4198 68.49219 -248.69177 51.881348 -384.86133" id="path96" style=
            "fill:#ffffff;stroke:black;stroke-width:6" onClick="javascript:onPathClick('path96');"
            class="img-path"/>
    </g>
</svg>