<?xml version="1.0" standalone="no"?>
<!--Created with Sketsa SVG Editor (http://www.kiyut.com)-->
<svg contentScriptType="text/ecmascript" width="850.0px" xmlns:xlink="http://www.w3.org/1999/xlink"
    baseProfile="full" zoomAndPan="magnify" contentStyleType="text/css" height="600.0px"
    preserveAspectRatio="xMidYMid meet" xmlns="http://www.w3.org/2000/svg" version="1.0">
    <g id="layer1" transform="matrix(1.0071886 0.0 0.0 1.0071886 -58.54719 -420.5894)">
        <g id="g4275" transform="translate(28.571429,7.1428572)">
            <path style=
                "fill:#000000;stroke:#000000;stroke-width:5.51906013;stroke-linecap:butt;stroke-linejoin:miter;stroke-miterlimit:4;stroke-opacity:1;stroke-dasharray:none;"
                id="path3037" d="m 392.00385 761.6985 c 0.0 0.0 -21.717407 -14.664612 -27.5607 
                -25.080444 c -5.8433533 -10.416016 -27.895935 -59.64978 -32.006226 -73.84717 c 
                -4.1102905 -14.197388 -8.921753 -31.553223 -10.534332 -53.131226 c -1.6125488 
                -21.57788 -2.6272278 -56.59497 -1.9225159 -71.37036 c 0.7047119 -14.775452 3.6168213 
                -51.19034 4.97937 -68.228546 c 1.3625183 -17.038208 -2.4306946 -17.31073 -6.010193 
                -20.255981 c -3.5794983 -2.9451904 -10.588257 -4.750824 -17.912567 -5.5920715 c 
                -7.324341 -0.8413086 -83.63646 11.231323 -107.262344 11.486725 c -23.62584 0.2553711 
                -70.15474 6.635071 -92.288 6.115692 c -22.133293 -0.51937866 -46.498642 -11.888214 
                -54.03671 -10.056854 c -7.538048 1.8313599 -10.474842 5.7573547 -12.004238 12.955505 
                c -1.5293846 7.1981506 -5.0322685 21.18454 -1.7199326 27.47055 c 3.3123207 6.2860413 
                6.0469627 13.83255 13.756912 18.7966 c 7.7099495 4.9639587 32.1605 12.285919 
                41.710365 12.132111 c 9.549828 -0.1538086 23.625862 -0.2553711 23.625862 -0.2553711 
                c 0.0 0.0 -18.061302 5.212219 -29.023598 5.138489 c -10.962296 -0.07354736 -29.06694 
                -0.28253174 -34.53473 -0.4864502 c -5.4677887 -0.20385742 -6.7567253 3.9874878 
                -8.703506 10.44165 c -1.9467659 6.4541626 -4.3961067 16.211243 -0.9552498 23.87146 c 
                3.4408722 7.6602783 8.294182 15.548035 15.720322 18.097717 c 7.426159 2.5495605 
                22.700878 5.3481445 32.224026 5.5284424 c 9.523125 0.18023682 27.424126 -3.0274658 
                27.424126 -3.0274658 c 0.0 0.0 -12.780533 7.7547607 -21.81118 10.360779 c -9.030632 
                2.6061401 -24.283684 2.5181274 -27.530975 4.3637695 c -3.2473106 1.8457031 -6.601486 
                5.02771 -6.424549 8.778442 c 0.17692566 3.7507935 0.059944153 11.176392 4.367363 
                16.945862 c 4.3073845 5.7695923 6.7098427 8.5252075 14.296284 9.0703125 c 7.5864563 
                0.545166 17.339966 3.8079834 25.033272 3.0167847 c 7.693306 -0.79119873 23.470634 
                -1.2954712 23.470634 -1.2954712 c 0.0 0.0 -3.9802628 2.065979 -4.274132 5.7408447 c 
                -0.29390717 3.6749878 0.45568848 9.209778 4.21714 12.861084 c 3.7614594 3.6513062 
                12.985687 10.551147 21.829315 10.283569 c 8.843628 -0.26757812 33.015427 1.5953369 
                38.558304 3.8416138 c 5.5429077 2.246338 19.438461 16.32788 28.604172 26.94049 c 
                9.165756 10.612671 19.134506 26.092041 29.766098 36.264038 c 10.631622 10.171936 
                18.4066 23.2677 32.1252 33.59851 c 13.718597 10.330811 45.307953 35.72174 45.307953 
                35.72174 z"/>
            <path id="path3033" d="m 356.42215 777.2858 c 0.0 0.0 -46.47696 -9.177612 -66.65488 
                -37.12964 c -20.177948 -27.951965 -62.630264 -129.19885 -62.630264 -129.19885 c 0.0 
                0.0 -22.650986 11.9175415 -31.06717 6.8396606 c -8.416153 -5.077759 -12.847031 
                -15.266113 -11.21077 -23.800537 c 1.6362457 -8.534485 28.411148 -30.277649 28.411148 
                -30.277649 c 0.0 0.0 -22.03653 4.2335205 -30.00354 -3.479004 c -7.9670258 -7.7124023 
                -10.755096 -14.59082 -7.1821594 -23.490173 c 3.572937 -8.899292 19.836197 -18.461731 
                19.836197 -18.461731 c 0.0 0.0 -10.962326 -0.07354736 -15.655319 -9.965973 c 
                -4.692993 -9.892212 -6.9033966 -18.031097 -2.9665375 -25.51825 c 3.936905 -7.4871826 
                15.256592 -17.845825 24.105255 -21.15802 c 8.848709 -3.3121948 32.212463 -3.2713928 
                49.878036 -6.5170593 c 17.665573 -3.245636 50.664352 -7.405548 58.50792 -4.1119385 c 
                7.8435364 3.2936401 10.224304 3.338684 12.204315 8.3949585 c 1.980072 5.056305 
                -5.944153 50.47711 -4.6506653 90.95331 c 1.2934265 40.476074 1.9724121 88.63611 
                13.2265625 117.85791 c 11.25415 29.22168 26.864044 66.58954 32.712433 73.960754 c 
                5.8483887 7.371338 22.049591 19.455505 22.049591 19.455505 z" style=
                "fill:#ffffff;fill-opacity:1;stroke:none;" onClick="javascript:onPathClick('path3033');"
                class="img-path"/>
            <path id="path3035" d="m 191.3835 461.72357 c 0.0 0.0 -15.166351 10.754272 -17.37526 
                17.504578 c -2.2088776 6.750305 -4.8134766 15.467163 -2.2341003 21.973572 c 
                2.5793915 6.506378 6.330765 16.246948 13.574936 18.090515 c 0.0 0.0 -9.190933 
                4.6105957 -11.6085205 10.988892 c -2.417572 6.378296 -5.364441 16.393616 -2.6247864 
                20.895508 c 2.7397003 4.501831 6.935196 14.652405 12.531525 16.23053 c 5.5963135 
                1.578064 16.114517 1.2418823 16.114517 1.2418823 c 0.0 0.0 -15.304977 15.46936 
                -16.962921 21.293213 c -1.6579285 5.8238525 -3.7332306 10.90387 0.2853241 17.303589 
                c 4.0185547 6.3997803 7.5612183 15.768433 13.499817 16.048157 c 5.9385986 0.27960205 
                29.210617 -7.477173 29.210617 -7.477173 c 0.0 0.0 39.123383 89.20569 45.490936 
                99.029236 c 6.367584 9.823486 14.003937 27.634338 20.19455 33.707153 c 6.1906433 
                6.072876 13.740295 13.041382 23.413666 17.306458 c 9.67334 4.2650757 39.404663 
                14.129578 39.404663 14.129578 l -32.361145 14.075684 c 0.0 0.0 -33.263916 -25.322327 
                -51.338287 -43.799072 c -18.074402 -18.476868 -34.60782 -35.35193 -39.93196 
                -43.31549 c -5.3240967 -7.963562 -33.393967 -41.585693 -40.8201 -44.135315 c 
                -7.4261627 -2.5496216 -35.498047 -3.348755 -41.38321 -4.296631 c -5.885147 -0.947876 
                -16.13617 -3.9524536 -20.834244 -10.80011 c -4.6980667 -6.847534 -0.4239273 
                -12.588501 2.5879517 -14.472107 c 3.011917 -1.883606 8.302765 -5.43042 8.302765 
                -5.43042 c 0.0 0.0 -26.407394 5.2215576 -42.65046 2.6054077 c -16.243065 -2.61615 
                -26.525848 -2.2420044 -30.06855 -11.610657 c -3.5426903 -9.368591 -2.1952705 
                -17.272766 0.238945 -17.895874 c 2.434227 -0.62316895 16.167946 0.57373047 28.734749 
                -4.508301 c 12.566788 -5.0820312 47.789597 -25.12622 47.789597 -25.12622 c 0.0 0.0 
                -28.37584 8.965149 -43.18479 9.286987 c -14.808952 0.32196045 -43.062805 -1.1832275 
                -50.94464 -12.942688 c -7.881836 -11.759338 -6.7431145 -20.035583 -4.2988167 
                -26.747925 c 2.4442978 -6.7124023 3.599659 -9.233398 5.7450485 -9.226257 c 2.1453705 
                0.0072021484 32.961987 2.2634888 49.26856 -1.8778076 c 16.306587 -4.1413574 
                46.907974 -14.1015625 46.907974 -14.1015625 c 0.0 0.0 -35.85544 7.083679 -56.25567 
                2.782837 c -20.400238 -4.3009033 -40.934067 -6.931366 -48.211514 -20.28534 c 
                -7.2774315 -13.353973 -5.8014755 -19.883942 -3.277031 -27.598602 c 2.5244637 
                -7.71463 1.8716736 -8.496521 6.6917114 -12.119202 c 4.820038 -3.6226807 18.463562 
                4.66568 30.23389 6.5614624 c 11.770348 1.895752 54.180367 2.2971191 74.64411 
                -0.15942383 c 20.46376 -2.456604 41.500153 -3.1290588 41.500153 -3.1290588 z" style=
                "fill:#ffffff;fill-opacity:1;stroke:none;" onClick="javascript:onPathClick('path3035');"
                class="img-path"/>
            <g id="g4163" transform="matrix(1.103812,0,0,1.103812,-54.397859,-68.376853)">
                <path style=
                    "fill:#000000;stroke:#000000;stroke-width:5;stroke-linecap:butt;stroke-linejoin:miter;stroke-miterlimit:4;stroke-opacity:1;stroke-dasharray:none;"
                    id="path3031" d="m 304.52493 645.07196 c 0.0 0.0 -6.7538147 31.769714 -8.423279 
                    44.80072 c -1.6694946 13.031006 -3.794281 28.323547 -0.910614 38.44684 c 
                    2.8836365 10.123169 6.2984924 20.784912 13.052246 25.415771 c 6.7538147 
                    4.6308594 20.792603 8.830872 30.27826 7.107727 c 9.485687 -1.7230225 18.136597 
                    -8.076965 22.917389 -15.507874 c 4.7807617 -7.430969 19.198975 -50.185425 
                    26.18042 -74.3089 c 6.9814453 -24.123413 15.632385 -46.30841 20.8685 -62.785645 
                    c 5.236084 -16.477173 15.5564575 -48.677734 20.33725 -59.662415 c 4.7807617 
                    -10.984863 13.279968 -28.969788 28.22934 -43.831543 c 14.949402 -14.861786 
                    30.354126 -21.646484 44.77237 -25.954285 c 14.418182 -4.3077393 38.246185 
                    -6.784729 46.972992 -6.2462463 c 8.726868 0.53845215 17.074219 -2.1538696 
                    24.510986 -2.3692627 c 7.4367676 -0.21539307 47.731873 3.015442 58.355774 
                    3.230835 c 10.624023 0.21539307 34.60376 0.107666016 46.897156 -1.4000549 c 
                    12.293457 -1.507721 43.78589 -9.369354 46.593628 -8.184723 c 2.8077393 1.1846313 
                    6.9814453 5.169281 8.726807 11.523254 c 1.7454224 6.3539124 3.4907227 15.507935 
                    1.5177002 22.938843 c -1.9730225 7.4308777 -4.5531006 14.431 -10.39624 17.877167 
                    c -5.8432007 3.446228 -30.126526 8.93866 -45.22766 11.846436 c -15.101196 
                    2.9077148 -45.53125 0.7537842 -45.151794 0.86151123 c 0.37945557 0.107666016 
                    10.244507 7.000061 22.006714 8.6154785 c 11.762268 1.6154175 27.242859 6.892395 
                    39.232788 6.569397 c 11.989868 -0.32305908 33.085938 -3.230835 36.197266 
                    -1.1846313 c 3.111267 2.0461426 4.401367 6.353882 4.0219116 9.369324 c 
                    -0.37945557 3.015442 -1.5935669 16.477295 -4.6289673 23.369629 c -3.0354614 
                    6.892456 -7.360901 14.646423 -12.21759 16.90802 c -4.8566895 2.2614746 
                    -23.752075 5.0616455 -31.79596 3.66156 c -8.043823 -1.4000854 -58.20404 
                    -10.12323 -58.20404 -10.12323 c 0.0 0.0 23.979797 10.446289 32.25128 13.246338 c 
                    8.271545 2.8000488 25.218872 10.311707 33.718567 12.664734 c 9.207581 2.5488281 
                    13.43219 0.8034668 15.70874 3.6035156 c 2.2764893 2.8000488 1.6434937 6.6705933 
                    -0.101867676 10.655273 c -1.7453613 3.9846802 -6.3743286 18.200317 -13.052246 
                    24.446533 c -6.6779175 6.246338 -17.301819 8.830933 -25.497437 7.7539673 c 
                    -8.195679 -1.0768433 -31.644226 -9.692444 -40.44696 -14.000183 c -8.802673 
                    -4.3078003 -39.763855 -14.43103 -44.24109 -14.538696 c -4.477234 -0.10772705 
                    -13.052307 0.43078613 -13.052307 0.43078613 c 0.0 0.0 5.3878174 8.830872 
                    12.293396 12.384766 c 6.9055786 3.553955 19.882019 4.8463135 21.323792 8.830933 
                    c 1.4418335 3.9846802 0.45532227 7.6463013 -2.8078003 11.523193 c -3.2630005 
                    3.8771362 -12.748657 12.92334 -20.56488 13.138794 c -7.816162 0.21533203 
                    -34.983093 -13.892639 -34.983093 -13.892639 c 0.0 0.0 2.580017 6.353943 4.401306 
                    8.184814 c 1.821228 1.8307495 7.057373 6.353882 7.588562 9.153992 c 0.53118896 
                    2.7999878 -1.7453613 7.215454 -5.3878784 10.015564 c -3.642517 2.7999878 
                    -6.6779175 4.7385254 -11.003418 5.2769775 c -4.3254395 0.53845215 -16.694702 
                    -3.8770142 -21.62732 -6.784729 c -4.932495 -2.9077148 -9.485657 -6.246277 
                    -9.485657 -6.246277 c 0.0 0.0 -0.60705566 2.6923218 -1.9730225 3.553894 c 
                    -1.3659058 0.86157227 -3.414856 1.0770264 -3.414856 1.0770264 c 0.0 0.0 
                    1.6695557 1.7230225 0.5312805 5.6000366 c -1.1383057 3.8770142 -3.1113281 
                    7.215515 -5.843231 8.723267 c -2.7318726 1.5076294 -9.182129 3.015442 -11.838074 
                    6.353882 c -2.6560059 3.338562 -12.596954 29.723572 -12.596954 29.723572 c 0.0 
                    0.0 39.763885 6.569336 48.414825 7.107788 c 8.65094 0.5385132 43.70996 1.8308716 
                    43.70996 1.8308716 c 0.0 0.0 23.220886 -10.984802 30.809448 -14.754211 c 
                    7.588501 -3.769226 18.743652 -11.200134 21.399658 -9.80011 c 2.6559448 1.4000244 
                    2.9595337 4.3078003 2.9595337 6.46167 c 0.0 2.1539307 -0.83477783 11.307922 
                    -0.83477783 11.307922 c 0.0 0.0 10.699829 -1.7231445 15.404724 -2.8000488 c 
                    4.704895 -1.0769653 9.18219 -2.1539307 11.610474 -2.6923828 c 2.4283447 
                    -0.53845215 6.298462 -4.2000732 8.043823 -3.9846802 c 1.7454224 0.21539307 
                    3.7184448 2.5846558 4.249634 6.569275 c 0.53118896 3.9847412 1.289978 12.707947 
                    -0.15179443 17.338806 c -1.4417725 4.6307983 -9.333862 15.1848755 -13.811096 
                    17.877197 c -4.477234 2.6923218 -25.876953 11.415588 -34.983154 12.277161 c 
                    -9.106262 0.86151123 -29.140015 2.3692627 -29.140015 2.3692627 c 0.0 0.0 
                    14.645874 3.8770142 22.310303 4.092285 c 7.6644287 0.21551514 16.922485 
                    1.7231445 21.551453 1.1846313 c 4.6290283 -0.5383911 12.065735 -2.9076538 
                    13.355774 -1.6152954 c 1.2901001 1.2922363 2.5801392 3.33844 2.2766113 6.138489 
                    c -0.30358887 2.8000488 -0.98651123 8.93866 -4.249634 13.354126 c -3.2630615 
                    4.4154053 -6.3743286 9.153931 -11.91394 11.092468 c -5.539612 1.9384155 
                    -16.846558 2.5846558 -26.559875 1.6153564 c -9.713379 -0.9692993 -18.288391 
                    -3.553894 -18.288391 -3.553894 l -4.5531006 3.446167 c 0.0 0.0 9.257996 
                    5.0617065 10.775757 7.215637 c 1.5176392 2.1538086 1.2141113 5.7077026 
                    0.75878906 8.184692 c -0.45526123 2.4769287 -1.9730225 6.46167 -1.9730225 
                    6.46167 c 0.0 0.0 99.63751 36.939026 103.96295 38.123657 c 4.3254395 1.1846313 
                    19.274841 5.9231567 24.055603 4.9539185 c 4.7808228 -0.9692383 27.242859 
                    -24.338867 30.50592 -27.138916 c 3.2631226 -2.8000488 7.89209 0.86157227 
                    9.257996 3.230835 c 1.3659058 2.3692627 3.1113281 5.8155518 3.1871948 8.61554 c 
                    0.075927734 2.8001099 0.0 5.1693115 0.0 5.1693115 c 0.0 0.0 6.1467285 -5.0615845 
                    9.485657 -4.9539185 c 3.3389893 0.107666016 9.865112 2.7999878 11.155151 
                    6.569336 c 1.2901001 3.769226 1.7453613 6.677002 0.6071167 8.5078125 c 
                    -1.1383057 1.8308105 -10.548035 12.169434 -12.44519 14.969482 c -1.8971558 
                    2.7999878 -2.883667 5.4924316 -2.883667 5.4924316 c 0.0 0.0 5.0843506 6.676941 
                    10.623962 7.8616333 c 5.539612 1.1846313 10.244507 3.553833 17.453613 1.7231445 
                    c 7.2091064 -1.8308716 16.54303 -4.9539795 20.56488 -3.12323 c 4.0219727 
                    1.8308716 6.298523 4.5231934 6.753845 7.8617554 c 0.45532227 3.338501 -0.7588501 
                    9.584717 -0.7588501 9.584717 c 0.0 0.0 3.1113281 -1.6154175 6.3743286 -0.9692383 
                    c 3.2631226 0.6461792 5.8432007 2.0462036 6.1467285 6.46167 c 0.30352783 
                    4.4154053 -2.7318726 14.323303 -2.7318726 14.323303 c 0.0 0.0 1.6694946 
                    -0.86157227 2.5042114 1.1846313 c 0.83477783 2.0462036 1.6694946 6.0307617 
                    0.45532227 9.477051 c -1.2141113 3.446167 -5.994934 10.554077 -9.561523 
                    10.231018 c -3.5666504 -0.32318115 -20.185486 -0.10772705 -28.912292 -4.2001953 
                    c -8.726868 -4.092346 -23.069153 -10.015442 -33.086 -16.477112 c -10.016846 
                    -6.46167 -29.443542 -21.538818 -29.443542 -21.538818 l -54.561523 -19.384949 c 
                    0.0 0.0 -8.651001 4.092346 -18.516052 0.32305908 C 650.63794 906.76855 646.8437 
                    896.64526 646.8437 896.64526 l -73.5329 -26.923523 c 0.0 0.0 -5.767273 3.9846802 
                    -12.976379 5.4923706 c -7.2091064 1.5078125 -31.416565 -1.9384766 -42.116394 
                    -3.9846191 c -10.699829 -2.0462646 -38.322083 -6.892456 -38.322083 -6.892456 c 
                    0.0 0.0 -13.583496 3.338501 -29.898865 5.0616455 c -16.315277 1.7231445 
                    -32.02356 0.0 -39.61209 -3.230835 c -7.5885315 -3.230835 -10.623932 -11.954041 
                    -10.623932 -11.954041 c 0.0 0.0 -0.6830139 4.6307983 1.3659058 16.369507 c 0.0 
                    0.0 -12.521057 -10.877136 -15.632355 -16.477234 c -3.1112976 -5.6000977 
                    -4.553131 -11.63092 -4.553131 -11.63092 c 0.0 0.0 -0.53118896 4.8462524 
                    0.1517334 10.44635 c 0.6830139 5.6000366 5.4637756 21.646484 5.4637756 21.646484 
                    c 0.0 0.0 -16.087708 -12.2771 -20.10962 -17.231018 c -4.0219116 -4.9539795 
                    -6.8296814 -8.077087 -6.8296814 -8.077087 c 0.0 0.0 -6.9814453 0.53845215 
                    -21.247894 -3.338562 c -14.266449 -3.8769531 -39.612152 -9.907837 -49.628998 
                    -17.661804 c -10.016876 -7.7539673 -24.13153 -23.585022 -28.98822 -38.33905 c 
                    -2.3571472 -7.1607666 -4.32547 -17.554138 -5.160202 -29.723572 c -0.83473206 
                    -12.169434 -1.5177002 -22.72345 -0.45532227 -38.01599 c 1.0624084 -15.2925415 
                    5.919052 -28.108154 7.51268 -37.369812 c 1.5935974 -9.26178 6.829651 -28.431274 
                    6.829651 -28.431274 l 34.755493 -27.785034 z"/>
                <path id="path3015" d="m 269.99707 658.749 c 0.0 0.0 -12.748718 48.89319 -13.659332 
                    68.70892 c -0.910614 19.815674 2.1247864 54.27777 7.4367676 63.754883 c 5.311981 
                    9.47699 18.364258 32.308105 41.43338 41.569824 c 23.069153 9.261658 52.967957 
                    14.000183 52.967957 14.000183 l -4.7048645 -11.846252 c 0.0 0.0 10.16861 
                    15.938721 13.962891 19.384888 c 3.794281 3.446228 13.962891 11.846313 13.962891 
                    11.846313 c 0.0 0.0 -2.5800476 -10.12323 -2.4283142 -17.661804 c 0.1517334 
                    -7.5386353 1.3659363 -13.677124 1.3659363 -13.677124 c 0.0 0.0 3.946045 
                    13.030945 9.106262 19.492615 c 5.1601562 6.461609 8.802673 9.800171 8.802673 
                    9.800171 c -1.7453918 -11.092468 -0.30355835 -19.708008 -0.30355835 -19.708008 c 
                    0.0 0.0 4.2495728 12.061707 9.258026 16.154053 c 5.008423 4.0924683 34.755463 
                    7.5386353 47.80777 4.7385254 c 13.052277 -2.7999878 71.18048 -17.877197 71.18048 
                    -17.877197 l -35.666138 15.2925415 c 0.0 0.0 28.684692 6.030884 39.91571 7.10791 
                    c 11.230957 1.0768433 22.158508 6.0308228 32.934204 1.2922363 c 10.775757 
                    -4.7385254 18.364258 -7.9693604 20.792603 -14.861816 c 2.4282837 -6.892334 
                    2.883667 -11.200134 0.1517334 -15.507874 C 581.5823 836.4443 543.7914 820.0748 
                    543.7914 820.0748 l 20.33728 3.661621 c 0.0 0.0 10.16864 0.86157227 18.06073 
                    -6.246338 l -14.873535 -6.676941 c 0.0 0.0 31.416504 9.046265 40.067444 8.184753 
                    c 8.65094 -0.86157227 20.489075 3.0153809 28.381104 -6.246338 c 7.89209 
                    -9.261658 8.954468 -16.80017 8.043884 -18.738708 c -0.91064453 -1.9384766 
                    -7.89209 0.0 -12.900513 0.43078613 c -5.008423 0.43078613 -34.6037 -2.1539307 
                    -45.227722 -4.5231323 c -10.623901 -2.3693237 -15.784119 -10.123291 -15.784119 
                    -10.123291 c 0.0 0.0 18.667786 5.3847656 37.487366 2.1538696 c 18.81958 
                    -3.230774 32.02362 -7.107727 41.281616 -13.354065 c 9.258057 -6.246216 13.962891 
                    -12.277039 14.721741 -20.461853 c 0.75891113 -8.184692 0.15179443 -13.569458 
                    -1.9730225 -14.861816 c -2.1247559 -1.2922974 -6.526062 2.8001099 -10.168579 
                    3.6616821 c -3.642517 0.86151123 -31.56836 7.538513 -48.11133 10.12323 c 
                    -16.54303 2.5845947 -57.37274 1.625 -73.68506 0.40655518 c -16.312378 -1.2183838 
                    -51.727325 -7.310486 -51.727325 -7.310486 c 0.0 0.0 -8.263489 16.44867 
                    -21.034363 23.454529 c -12.7708435 7.0059814 -25.649017 8.985901 -35.95157 
                    5.026001 c -10.30246 -3.9599 -19.53186 -18.428528 -19.53186 -18.428528 c 0.0 0.0 
                    10.839142 10.50885 23.824646 6.2443237 c 12.985474 -4.2644043 25.005096 
                    -16.448608 28.7612 -26.652832 c 3.7561646 -10.204285 13.092804 -37.92334 
                    17.814789 -54.524292 c 4.722046 -16.600952 12.341644 -31.221985 19.639252 
                    -41.730896 c 7.297638 -10.50885 9.122009 -11.422607 9.122009 -11.422607 c 0.0 
                    0.0 3.219574 2.4368286 7.512268 -0.45703125 c 4.292694 -2.8936768 6.117157 
                    -7.0058594 6.117157 -7.0058594 c 0.0 0.0 -5.2585754 -2.284546 -8.90744 -8.376648 
                    c 0.0 0.0 11.268463 5.635193 18.24411 4.416809 c 6.975647 -1.2183838 18.136719 
                    -3.6552124 21.248962 -11.270386 c 3.1121826 -7.6150513 0.21459961 -12.48877 
                    -2.897583 -15.230286 c -3.1122437 -2.741333 -25.756348 -11.270325 -25.756348 
                    -11.270325 c 0.0 0.0 15.453796 4.7214355 21.141663 4.569092 c 5.687866 
                    -0.15234375 22.858765 -2.741455 27.58075 -8.833557 c 4.721985 -6.092102 
                    4.9366455 -11.422668 3.7561035 -15.687195 c -1.180481 -4.2644043 -4.185364 
                    -12.031799 -8.692688 -15.382507 c -4.5074463 -3.350647 -27.58081 -11.422668 
                    -27.58081 -11.422668 l 6.868408 -0.45684814 l 6.224365 1.8275757 c 0.0 0.0 
                    7.2977295 -0.15228271 13.414795 -7.0058594 c 6.1171875 -6.8536377 9.65863 
                    -13.402649 9.551331 -19.95166 c -0.10736084 -6.549011 -1.6098022 -13.250275 
                    -7.7269287 -16.905518 c -6.1171265 -3.655304 -10.7317505 -3.655304 -16.205017 
                    -3.9599 c -5.4732056 -0.30459595 -8.80011 0.15228271 -8.80011 0.15228271 l 
                    10.946472 -2.2845154 c 0.0 0.0 1.5024414 -1.2184143 -0.21459961 -1.97995 c 
                    -1.717102 -0.7614746 -23.180725 0.15234375 -33.054016 3.9598694 c -9.87323 
                    3.8075867 -34.127167 6.549011 -54.088318 27.719055 c -19.961151 21.170013 
                    -34.019775 56.96103 -40.458893 78.28342 c -6.4390564 21.322327 -30.907562 
                    95.49359 -36.48813 113.61755 c -5.580536 18.124023 -9.22937 35.791077 -19.53189 
                    49.04138 c -10.302551 13.250366 -20.927032 16.905518 -34.341797 15.230286 c 
                    -13.414764 -1.675354 -23.502655 -7.310608 -27.90268 -15.534851 c -4.400055 
                    -8.224365 -9.12204 -21.017761 -8.800079 -33.354248 c 0.32196045 -12.336487 
                    6.439087 -48.584473 9.229309 -59.093323 c 2.7902832 -10.508911 1.3951416 
                    -23.150024 1.3951416 -23.150024 z" style="fill:#ffffff;stroke:none;" onClick="javascript:onPathClick('path3015');"
                    class="img-path"/>
                <path id="path3021" d="m 412.73737 759.5508 c 0.0 0.0 11.155121 9.153992 21.475586 
                    8.184692 c 10.320374 -0.9692383 28.836426 -8.938538 37.563232 -22.615662 c 
                    8.726837 -13.677246 13.886993 -33.600647 17.225952 -38.554565 c 3.3389282 
                    -4.9539185 14.342316 -7.000061 16.163544 -10.338684 c 1.8212891 -3.33844 
                    2.6560059 -4.6307373 2.2765808 -7.430786 c -0.37939453 -2.8000488 -3.3389587 
                    -4.4154663 -3.3389587 -4.4154663 c 0.0 0.0 3.8702087 0.7538452 6.146698 
                    -0.6461792 c 2.2765503 -1.4000244 2.7319336 -6.030884 2.7319336 -6.030884 c 0.0 
                    0.0 11.989868 10.230957 20.109558 11.8463745 c 8.119751 1.6153564 15.556519 
                    3.8769531 19.957886 -0.10772705 c 4.401306 -3.9846802 7.2091064 -6.677002 
                    6.6019897 -8.830933 c -0.60705566 -2.1538086 -5.1601562 -6.138489 -7.9678955 
                    -9.907776 c -2.8078003 -3.7694092 -10.69989 -18.200378 -10.69989 -18.200378 c 
                    0.0 0.0 15.480652 11.307922 23.600403 14.323364 c 8.11969 3.015442 14.797607 
                    8.723145 23.979736 4.6307983 c 9.182068 -4.092407 12.293396 -6.138489 14.342285 
                    -9.907837 c 2.0489502 -3.769287 3.946045 -5.1693115 3.3389893 -7.64624 c 
                    -0.6071167 -2.4769897 -6.9814453 -2.4769897 -11.3828125 -4.200012 c -4.401367 
                    -1.7231445 -14.114685 -5.8155518 -19.04718 -12.492554 c -4.932617 -6.677063 
                    -4.6290283 -9.907898 -4.6290283 -9.907898 c 0.0 0.0 9.637451 1.4000244 14.190491 
                    0.43078613 c 4.5531616 -0.96917725 28.836487 7.538574 36.34912 10.015503 c 
                    7.5126343 2.4770508 37.411438 15.507996 45.22766 16.90802 c 7.816223 1.4000854 
                    24.359192 0.86157227 30.126465 -7.538574 c 5.767273 -8.4001465 13.507629 
                    -23.692688 11.989868 -27.569641 c -1.5176392 -3.8770142 -3.111267 -1.0770264 
                    -7.6644287 -2.1539307 c -4.5530396 -1.0769043 -40.598633 -14.215637 -54.63745 
                    -19.708069 c -14.038757 -5.4923706 -40.067444 -19.92334 -40.067444 -19.92334 c 
                    0.0 0.0 40.75049 9.369324 49.5531 10.984741 c 8.802734 1.6154785 45.75891 
                    5.1693115 53.499268 2.907837 c 7.7402344 -2.2615967 13.7352295 -5.4924316 
                    16.998291 -11.630981 c 3.2630005 -6.138611 8.195618 -23.369629 7.2090454 
                    -27.785095 c -0.9864502 -4.4154663 -2.8077393 -6.246216 -4.704834 -6.246216 c 
                    -1.8971558 0.0 -25.269836 1.2923584 -33.920776 1.2923584 c -8.65094 0.0 
                    -27.242859 -3.8770752 -41.281616 -7.215576 c -14.038818 -3.338501 -36.652588 
                    -16.046448 -36.652588 -16.046448 c 0.0 0.0 36.500854 4.7385864 60.935913 0.0 c 
                    24.43512 -4.7385254 42.344055 -6.353882 47.27655 -11.63092 c 4.932495 -5.2769775 
                    7.7402954 -13.461731 7.7402954 -20.892609 c 0.0 -7.430908 -0.45532227 -14.323334 
                    -3.2630615 -18.846466 c -2.8077393 -4.5231934 -3.2630615 -5.8154907 -6.3743286 
                    -5.8154907 c -3.1113281 0.0 -9.106323 1.9384766 -13.355896 2.6923523 c 
                    -4.2495117 0.7538147 -31.112976 5.061615 -46.593506 7.0000916 c -15.480652 
                    1.9384766 -49.932617 -0.86157227 -64.12317 -1.615387 c -14.190552 -0.75387573 
                    -18.591858 -1.723114 -29.671204 -0.9692688 c -11.079224 0.75387573 -21.32373 
                    1.9384766 -21.32373 1.9384766 l -0.37939453 1.8308411 c 0.0 0.0 11.610413 
                    0.7538147 15.784119 5.1693115 c 4.173645 4.4154053 6.222595 11.630981 6.070862 
                    18.631073 c -0.15185547 7.000122 -4.932617 17.123352 -9.561584 21.000305 c 
                    -4.6290283 3.8770142 -11.914001 7.000122 -11.914001 7.000122 c 0.0 0.0 10.244507 
                    2.2616577 13.355835 6.46167 c 3.1113281 4.200012 9.182129 13.569397 9.409729 
                    21.215698 c 0.22766113 7.6463013 -3.4906616 13.892517 -9.940918 17.446472 c 
                    -6.4502563 3.553894 -20.86847 5.3847046 -20.86847 5.3847046 c 0.0 0.0 5.6914062 
                    3.553833 6.526123 6.892334 c 0.8347168 3.338623 1.3659058 9.692566 -0.37945557 
                    13.461792 c -1.7453613 3.769287 -8.423279 10.230957 -15.935913 11.738647 c 
                    -7.5126343 1.5076904 -13.583496 1.7231445 -13.583496 1.7231445 c 0.0 0.0 
                    -3.2630615 7.8616333 -7.892029 10.338623 c -4.6290283 2.4769287 -8.802704 
                    1.1846313 -8.802704 1.1846313 c 0.0 0.0 -7.360901 7.430908 -14.49408 21.000366 c 
                    -7.1332703 13.569458 -13.583527 31.87738 -19.047241 50.93927 c -5.4637756 
                    19.061829 -10.775726 36.18524 -15.177063 42.00067 c -4.4013367 5.8154907 
                    -8.195618 10.230835 -16.467102 15.4002075 c -8.271545 5.1693115 -13.507599 
                    6.78479 -22.613861 4.8463135 z" style="fill:#ffffff;fill-opacity:1;stroke:none;"
                    onClick="javascript:onPathClick('path3021');" class="img-path"/>
                <path id="path3023" d="m 588.33606 845.59827 l -0.30352783 6.353943 c 0.0 0.0 
                    104.72174 40.16992 112.61383 43.077637 c 7.89209 2.9077759 18.895447 7.215515 
                    25.497498 6.138611 c 6.602051 -1.0770264 14.873474 -7.215515 18.28833 -12.277161 
                    c 3.414856 -5.0615845 13.887024 -11.3078 14.645935 -13.569458 c 0.75878906 
                    -2.2615356 0.6069946 -6.138611 -1.8212891 -9.261658 c -2.4283447 -3.123108 
                    -4.5531616 -5.923218 -8.575012 -3.123108 c -4.0219727 2.7999878 -17.984863 
                    19.815735 -23.828003 23.800354 c -5.8432007 3.9846802 -16.01184 2.4769287 
                    -21.475586 0.75390625 c -5.463745 -1.7231445 -56.15515 -19.06189 -71.93927 
                    -25.092773 c -15.78418 -6.030884 -43.102905 -16.800293 -43.102905 -16.800293 z"
                    style="fill:#ffffff;fill-opacity:1;stroke:none;" onClick="javascript:onPathClick('path3023');"
                    class="img-path"/>
                <path id="path3025" d="m 587.2737 854.1061 c 0.0 0.0 121.416504 46.09308 126.65265 
                    48.031555 c 5.236084 1.9384766 10.775696 2.2615356 14.49408 1.4000244 c 
                    3.7183838 -0.86157227 12.596924 -5.7077637 16.694763 -9.907898 c 4.0978394 
                    -4.200012 16.01178 -15.507935 22.082642 -17.446411 c 6.070801 -1.9384766 
                    8.119751 -0.2154541 10.244507 1.2923584 c 2.1247559 1.5076904 3.3389282 3.338501 
                    3.414856 5.1693115 c 0.075927734 1.8308105 -4.0978394 7.9693604 -8.271545 
                    12.061768 c -4.173706 4.092285 -10.016846 9.261597 -10.320374 17.338684 c 
                    -0.30358887 8.077026 1.4418335 11.200256 3.7943115 13.677124 c 2.352356 
                    2.4769897 15.784058 13.031006 25.042114 17.23108 c 9.257996 4.2000732 23.90387 
                    9.369385 30.050598 9.907898 c 6.1466675 0.5383911 9.865112 -0.5385132 11.003357 
                    1.1846313 c 1.1383057 1.7230225 0.91064453 4.9538574 -0.0758667 7.32312 c 
                    -0.98657227 2.3693237 -3.4907837 7.323242 -8.65094 7.323242 c -5.1602173 0.0 
                    -19.274841 0.10772705 -33.768982 -6.677063 c -14.49408 -6.784729 -28.608765 
                    -14.861755 -38.549744 -22.831116 c -9.940979 -7.9693604 -16.542969 -13.031006 
                    -16.542969 -13.031006 l -52.3609 -17.338745 l 4.173706 -5.9231567 c 0.0 0.0 
                    -12.596985 7.64624 -23.979797 4.5231323 c -11.3828125 -3.1230469 -14.721741 
                    -16.154114 -14.721741 -16.154114 l -1.1383057 1.8308716 l -68.29675 -24.55426 c 
                    0.0 0.0 4.401306 -2.4770508 6.6778564 -7.10791 c 2.2766113 -4.6307983 2.352417 
                    -7.32312 2.352417 -7.32312 z" style="fill:#ffffff;fill-opacity:1;stroke:none;"
                    onClick="javascript:onPathClick('path3025');" class="img-path"/>
                <path id="path3027" d="m 771.3715 927.55347 c 0.0 0.0 16.998352 12.2771 27.546387 
                    16.154114 c 10.548035 3.8769531 30.126526 7.000122 30.126526 7.000122 c 0.0 0.0 
                    4.5530396 -10.338623 3.111206 -14.10791 c -1.4417725 -3.7693481 -3.5665894 
                    -3.7693481 -6.753723 -3.338623 c -3.1871948 0.43078613 -15.328857 3.446228 
                    -23.67627 2.2616577 c -8.347351 -1.1846313 -30.354126 -7.9693604 -30.354126 
                    -7.9693604 z" style="fill:#ffffff;fill-opacity:1;stroke:none;" onClick="javascript:onPathClick('path3027');"
                    class="img-path"/>
                <path id="path3029" d="m 765.2248 908.81464 c 0.0 0.0 -1.9730225 3.6617432 
                    -1.3659058 7.5386963 c 0.6069946 3.8769531 3.9839478 7.64624 3.9839478 7.64624 c 
                    0.0 0.0 28.419067 8.023193 34.983154 8.507874 c 6.564087 0.48461914 16.6568 
                    -0.48468018 16.6568 -0.48468018 c 0.0 0.0 1.7074585 -6.730835 0.87268066 
                    -9.369324 c -0.8347168 -2.6385498 -2.5042114 -5.8693237 -6.1466675 -6.138611 c 
                    -3.642517 -0.26922607 -13.545593 3.553894 -20.906494 3.553894 c -7.360779 0.0 
                    -15.025269 -0.26922607 -18.743652 -3.284607 c -3.7183228 -3.015503 -9.333862 
                    -7.9694824 -9.333862 -7.9694824 z" style=
                    "fill:#ffffff;fill-opacity:1;stroke:none;" onClick="javascript:onPathClick('path3029');"
                    class="img-path"/>
                <path id="path3017" d="m 565.1152 826.4288 c 0.0 0.0 17.161194 8.726135 19.654297 
                    11.523193 c 1.7386475 1.9506226 3.2630615 5.6000977 3.2630615 5.6000977 c 0.0 
                    0.0 1.4418335 -3.33844 1.9730225 -6.0308228 c 0.53118896 -2.6923828 1.1383057 
                    -4.8463135 -0.22766113 -6.353943 c -1.3659058 -1.5077515 -11.534546 -7.8616943 
                    -11.534546 -7.8616943 c 0.0 0.0 -3.946045 2.8000488 -13.128174 3.123169 z"
                    style="fill:#ffffff;fill-opacity:1;stroke:none;" onClick="javascript:onPathClick('path3017');"
                    class="img-path"/>
                <path style=
                    "fill:#ffffff;fill-opacity:1;stroke:#000000;stroke-width:1px;stroke-linecap:butt;stroke-linejoin:miter;stroke-opacity:1;"
                    id="path3019" d="m 575.6632 746.9505 c 0.0 0.0 23.979797 -10.769287 28.76062 
                    -14.000183 c 4.7807617 -3.230774 17.377686 -10.769348 19.123047 -8.292419 c 
                    1.7453613 2.4770508 -0.37939453 15.077148 -0.37939453 15.077148 c 0.0 0.0 
                    -16.163635 4.092407 -22.841553 5.0615845 c -6.6778564 0.9692993 -24.66272 
                    2.1538696 -24.66272 2.1538696 z"/>
                <path id="path3970" d="m 298.93018 647.8442 l -32.164 26.42273 c -2.897583 7.9196777 
                    -4.0506287 15.640381 -7.7554626 32.792847 c 4.288025 -10.276978 10.870697 
                    -16.848694 18.246643 -16.848694 c 5.5650024 0.0 11.315521 4.954773 15.331482 
                    11.207031 c 1.9305725 -12.035278 3.5252075 -25.088135 4.9336853 -30.392761 c 
                    2.7902527 -10.50885 1.4076538 -23.181152 1.4076538 -23.181152 z" style=
                    "fill:#ffffff;fill-opacity:1;stroke:none;" onClick="javascript:onPathClick('path3970');"
                    class="img-path"/>
                <path id="path4007" d="m 366.5398 749.5971 c 16.526947 -30.155884 26.614868 -67.013 
                    36.0589 -102.95648 c 9.44397 -35.9433 29.19049 -90.1629 35.200317 -102.34717 c 
                    6.0097656 -12.184204 18.02945 -36.55255 36.0589 -45.690735 c 18.029358 -9.138123 
                    36.058807 -16.44867 46.36133 -17.05783 c 10.302551 -0.6092224 22.966064 
                    -2.7414856 30.478333 1.2183838 c 7.512268 3.9599 11.805054 4.264496 9.65863 
                    10.96579 c -2.1463623 6.7013245 -5.151245 11.879608 -15.882996 12.4888 c 
                    -10.731873 0.6092224 -48.507812 -2.1322327 -70.615295 42.644684 c -22.107574 
                    44.776855 -37.13211 116.663635 -51.083435 144.99188 c -13.9513855 28.328247 
                    -18.67337 41.121582 -26.614899 48.736694 c -7.941559 7.6151733 -29.619781 
                    7.0059814 -29.619781 7.0059814 z" style=
                    "fill:#ffffff;fill-opacity:1;stroke:none;" onClick="javascript:onPathClick('path4007');"
                    class="img-path"/>
                <path id="path4033" d="m 401.7401 750.8155 c 0.0 0.0 0.6439209 39.9032 9.8732605 
                    55.133423 c 9.22934 15.230286 17.385529 27.109924 32.410065 24.063782 c 
                    15.024506 -3.0460205 25.970978 -10.356506 32.410034 -27.109741 c 6.4391174 
                    -16.753357 1.9317627 -63.053223 1.9317627 -63.053223 c 0.0 0.0 -9.658661 
                    16.44867 -20.175842 22.845398 c -10.51712 6.3966675 -19.53189 9.747253 
                    -30.263702 8.224182 c -10.7317505 -1.5228882 -26.185577 -20.10382 -26.185577 
                    -20.10382 z" style="fill:#ffffff;fill-opacity:1;stroke:none;" onClick="javascript:onPathClick('path4033');"
                    class="img-path"/>
                <path id="path4117" d="m 734.21155 596.06854 c 0.0 0.0 25.327087 -23.454529 
                    31.766113 -24.9776 c 6.439148 -1.5230103 9.873291 -1.2183838 11.161133 1.5230713 
                    c 1.2877808 2.741455 -4.9366455 10.965759 -10.302551 17.057861 c -5.365906 
                    6.092041 -7.7269287 10.356567 -7.7269287 15.53479 c 0.0 5.1783447 -9.014709 
                    6.092163 -17.600159 3.6552734 c -8.585449 -2.4368286 -7.2976074 -12.793396 
                    -7.2976074 -12.793396 z" style="fill:#ffffff;fill-opacity:1;stroke:none;"
                    onClick="javascript:onPathClick('path4117');" class="img-path" transform="translate(0,308.2677)"/>
            </g>
            <g id="g3914" transform="matrix(1.103812,0,0,1.103812,-23.177341,-94.101522)">
                <path id="path3013" d="m 190.54968 350.41498 c 0.0 0.0 -19.5784 23.800415 -31.340622 
                    36.18521 c -11.762238 12.384857 -44.392952 47.708496 -53.19565 56.862488 c 
                    -8.802689 9.153961 -19.1231 20.461823 -22.31028 23.58496 c -3.1871872 3.1231384 
                    -11.913994 6.5693054 -13.279938 10.1232605 c -1.3659286 3.553894 -0.91062164 
                    4.630829 0.0 6.2462463 c 0.91062164 1.6154175 3.1871948 4.0923767 6.222595 
                    3.769287 c 3.0354156 -0.32305908 6.3743668 -0.10772705 11.306923 -2.6923523 c 
                    4.9325485 -2.5846558 48.71837 -26.7081 62.1501 -34.462097 c 13.431702 -7.7539673 
                    49.85666 -28.53888 61.846527 -38.01599 c 11.989899 -9.477081 47.80777 -34.785156 
                    55.92749 -40.708344 c 8.119751 -5.9231873 10.927521 -7.5386047 10.927521 
                    -7.5386047 c 0.0 0.0 9.637421 -2.4769287 15.708252 -6.677002 c 6.0708313 
                    -4.2000427 15.328827 -12.384827 18.971344 -20.56958 c 3.6424866 -8.184753 
                    3.4907227 -18.523407 3.4907227 -18.523407 l 3.5666199 3.553955 l -1.2142029 
                    -4.738556 l 3.035431 2.2615662 c 0.0 0.0 -0.98651123 -6.4616394 -3.8701477 
                    -12.061737 l 6.146698 3.446228 c 0.0 0.0 -4.249542 -13.461761 -12.141632 
                    -17.7695 c 0.0 0.0 2.5801086 -9.477081 3.946045 -18.09262 c 1.3659058 -8.61554 
                    -1.9730225 -24.87732 -4.704895 -32.308212 c -2.7318726 -7.430893 -7.2091064 
                    -15.723328 -7.2091064 -15.723328 c 0.0 0.0 5.0012207 -0.61753845 8.195587 
                    -2.2615967 c 3.4386292 -1.7697296 6.9055786 -4.2000427 8.043854 -7.2154846 c 
                    1.1383057 -3.0154266 1.5177002 -8.723221 0.98651123 -14.646393 c 0.0 0.0 
                    -7.7402954 7.3231964 -11.68634 9.261688 c -3.946045 1.9385071 -9.258026 
                    2.2615662 -9.258026 2.2615662 c 0.0 0.0 14.114716 -9.477066 17.52951 -15.2925415 
                    c 3.414856 -5.8154755 8.1197815 -14.646393 8.347412 -22.077286 c 0.22766113 
                    -7.430893 -2.2765503 -13.246368 -4.856659 -17.231049 c -2.5801086 -3.9846954 
                    -11.231018 -8.938599 -11.231018 -8.938599 c 0.0 0.0 0.22763062 21.00035 
                    -2.9595337 29.18509 c -3.1871948 8.184738 -4.401367 11.20018 -7.209137 14.969482 
                    c -2.8077393 3.769287 -5.919037 7.1078033 -5.919037 7.1078033 c 0.0 0.0 
                    0.5312195 -4.30777 0.0 -8.615524 c -0.53118896 -4.30777 -1.8971252 -7.5385895 
                    -3.8701477 -9.584778 c -1.9730225 -2.0461884 -5.311981 -3.1231384 -5.311981 
                    -3.1231384 c 0.0 0.0 1.9730225 7.1078033 1.3659363 12.27713 c -0.60705566 
                    5.1693115 -4.0219116 11.0924835 -4.0219116 11.0924835 c 0.0 0.0 -13.962891 
                    -8.723221 -25.042175 -7.861664 c -11.079239 0.861557 -26.332214 2.2615662 
                    -35.590225 9.477081 c -9.257996 7.2155 -20.033737 14.969467 -22.689713 22.07727 
                    c -2.6559906 7.1078033 -2.7318573 27.785065 -3.5666046 34.78517 c -0.83473206 
                    7.000122 -2.4283295 23.585022 -5.008423 29.18509 c -2.5801086 5.6000977 
                    -5.9949646 7.9693604 -8.575043 13.138702 C 179.6222 309.70667 177.26976 
                    320.79916 177.26976 320.79916 l 4.173691 -4.415436 c 0.0 0.0 -1.7453766 
                    4.5231323 -1.0623779 9.261688 c 0.6829529 4.7385254 1.9284668 10.852356 
                    3.7942352 14.969452 c 1.4015961 3.0927734 4.290024 6.7581787 6.3743744 9.80014 
                    z" style=
                    "fill:#000000;stroke:#000000;stroke-width:5;stroke-linecap:butt;stroke-linejoin:miter;stroke-miterlimit:4;stroke-opacity:1;stroke-dasharray:none;"
                    transform="translate(0,308.2677)"/>
                <path id="path2983" d="m 266.56708 362.04855 c -8.156158 10.051971 -37.23938 
                    34.724945 -58.595673 49.49829 c -21.356293 14.773315 -116.440094 69.29755 
                    -124.48896 71.734406 c -8.048851 2.4368591 -10.839127 0.45690918 -11.697678 
                    -2.5891724 c -0.85853577 -3.0460205 7.4049606 -6.8535767 12.019623 -10.661102 c 
                    4.614685 -3.8076172 62.45913 -66.55618 73.6202 -77.97885 c 11.161072 -11.422668 
                    39.922333 -44.319977 44.107727 -53.153503 c 4.1854095 -8.833557 9.551315 
                    -14.773346 14.487946 -15.077942 c 4.9366302 -0.30459595 15.775772 3.8075562 
                    18.887985 6.5489807 c 3.1122284 2.741455 9.768082 7.821289 21.463608 6.853607 c 
                    13.616425 -1.1265869 15.346497 -12.4888 32.517395 -17.819397 c -5.015625 
                    16.203766 -12.888336 30.388336 -22.322174 42.644684 z" style=
                    "fill:#ffffff;stroke:none;" onClick="javascript:onPathClick('path2983');" class="img-path"
                    transform="translate(0,308.2677)"/>
                <path id="path2985" d="m 262.8109 371.03436 c 23.502655 -13.859497 38.52716 
                    -49.802856 38.52716 -49.802856 c 0.0 0.0 -2.253662 -2.5891724 -8.585419 
                    -1.8276367 c 0.0 0.0 -10.731812 31.069702 -29.941742 51.630493 z" style=
                    "fill:#ffffff;fill-opacity:1;stroke:none;" onClick="javascript:onPathClick('path2985');"
                    class="img-path" transform="translate(0,308.2677)"/>
                <path id="path2987" d="m 195.30785 323.66837 c 5.1512756 5.330597 6.922043 8.148193 
                    6.922043 8.148193 c -2.1463928 4.797516 -4.185425 7.310547 -4.185425 7.310547 c 
                    0.0 0.0 -3.1121979 -5.863678 -2.736618 -15.45874 z" style=
                    "fill:#ffffff;fill-opacity:1;stroke:none;" onClick="javascript:onPathClick('path2987');"
                    class="img-path" transform="translate(0,308.2677)"/>
                <path id="path2991" d="m 192.19565 348.34134 l 3.6488037 -5.330597 c 0.0 0.0 
                    -4.1317444 -3.9598389 -5.1512604 -8.985809 c -1.019516 -5.0260315 -1.1268463 
                    -12.031921 -1.1268463 -12.031921 l -3.6488037 0.91381836 c 0.0 0.0 4.4000244 
                    -4.264496 8.209808 -3.046051 c 3.8097992 1.2184143 9.283035 9.9758 9.283035 
                    9.9758 c 0.0 0.0 5.473221 -7.6912537 11.375702 -8.528931 c 5.9024963 -0.8376465 
                    15.078186 2.4368591 19.424591 5.406769 c 4.3463593 2.9698486 9.92691 8.376587 
                    18.190384 8.300446 c 8.263519 -0.07608032 11.268433 -2.208374 14.058685 
                    -4.6452026 c 2.7902527 -2.4368286 15.024506 -13.783386 24.736816 -14.164124 c 
                    9.71228 -0.3807373 18.29773 7.767395 18.29773 7.767395 l -6.1171265 -2.208374 c 
                    0.0 0.0 -3.4341736 8.452759 -8.156158 16.44867 c -4.7220154 7.99588 -16.580658 
                    23.149963 -16.580658 23.149963 c 0.0 0.0 13.330078 -4.755768 20.690979 
                    -11.002045 c 7.3608704 -6.2462463 11.951935 -13.838684 14.000824 -20.623413 c 
                    2.0488892 -6.784729 1.707428 -16.531067 1.707428 -16.531067 l 2.997467 3.9308777 
                    l -1.5935669 -4.953949 c 1.2900391 0.6461487 2.8457031 2.4231262 2.8457031 
                    2.4231262 c 0.0 0.0 -2.238617 -9.207855 -6.336426 -12.654022 l 6.7917175 
                    3.5538635 c 0.0 0.0 -4.5151978 -8.5078125 -9.333893 -10.392487 c -4.8187256 
                    -1.8846436 -15.366791 -0.48458862 -15.366791 -0.48458862 c 0.0 0.0 7.7023926 
                    -3.2846985 15.215027 -2.4231262 c 0.0 0.0 4.8945923 -15.507965 4.591034 
                    -26.815826 c -0.30352783 -11.307861 -5.7293396 -25.79274 -9.940979 -33.115936 c 
                    -4.211609 -7.323166 -6.108734 -11.03862 -6.108734 -11.03862 c 0.0 0.0 2.1796875 
                    1.880127 3.946045 2.4769592 c 2.3903503 0.8076935 8.835907 -1.7274323 11.193085 
                    -3.0154266 c 3.0130615 -1.6464386 6.9434814 -6.1385803 5.95697 -13.569458 c 0.0 
                    0.0 -5.160187 5.6000824 -9.940979 7.1078033 c -4.780792 1.507721 -17.605377 
                    3.0154572 -17.605377 3.0154572 c 0.0 0.0 15.063202 -8.507843 22.158508 
                    -17.715683 c 7.095276 -9.207855 8.992401 -15.884857 9.561554 -21.538818 c 
                    0.5691223 -5.6539307 -0.6070862 -18.361832 -11.231018 -22.346497 c 0.0 0.0 
                    -0.30355835 15.831024 -3.1492615 24.661942 c -2.8457031 8.830917 -7.2850037 
                    15.400223 -9.940979 19.223373 c -2.6559753 3.8231354 -10.585999 8.723221 
                    -10.585999 8.723221 c 0.0 0.0 3.2460022 -4.7135925 3.7183838 -10.015549 c 
                    0.4173584 -4.6846924 -0.30355835 -9.961716 -4.628998 -12.546356 c 0.0 0.0 
                    0.30352783 8.346298 -0.6071167 12.277115 c -0.9105835 3.9308472 -4.401306 
                    10.230942 -4.401306 10.230942 c 0.0 0.0 -12.33139 -9.854004 -27.963776 -8.992462 
                    c -15.63237 0.86157227 -24.738602 4.092392 -35.514328 12.061752 c -10.775711 
                    7.9693604 -17.90895 14.861771 -19.730179 21.323395 c -1.8212433 6.4616547 
                    -1.8971405 30.262054 -2.7318878 36.13138 c -0.83473206 5.8693237 -2.9215698 
                    19.384949 -4.8945923 24.769623 c -1.9730225 5.3847046 -6.564087 9.530945 
                    -8.423279 12.923279 c -1.8592072 3.3923645 -3.2630768 8.13092 -3.2630768 8.13092 
                    l 3.7563171 -5.977051 c 0.0 0.0 -1.7453461 6.46167 -2.0488892 10.015533 c 
                    -0.30355835 3.553955 0.11381531 9.584808 0.11381531 9.584808 l 0.98651123 
                    -5.384674 c 0.0 0.0 0.37942505 8.238525 1.707428 12.977081 c 1.3280029 4.7385254 
                    6.9579315 12.572754 6.9579315 12.572754 z" style="fill:#ffffff;stroke:none;"
                    onClick="javascript:onPathClick('path2991');" class="img-path" transform="translate(0,308.2677)"/>
                <path id="path2989" d="m 191.0688 321.68842 l 2.1463623 0.22845459 c -0.053634644 
                    12.412628 4.2390747 18.96164 4.2390747 18.96164 l -0.69758606 0.9899597 c 0.0 
                    0.0 -6.0098114 -4.264435 -5.687851 -20.180054 z" style=
                    "fill:#ffffff;fill-opacity:1;stroke:none;" onClick="javascript:onPathClick('path2989');"
                    class="img-path" transform="translate(0,308.2677)"/>
                <path id="path2993" d="m 191.99152 310.89127 c 0.0 0.0 5.7672577 0.9692688 8.271469 
                    3.230835 c 2.504242 2.2615967 9.258041 7.430908 9.258041 7.430908 l -2.7318878 
                    -4.8462524 c 0.0 0.0 4.173691 0.86157227 5.994934 -0.7538452 c 1.8212585 
                    -1.6154175 3.5517578 -5.257721 4.097824 -8.938629 c 1.5177002 -10.2309265 
                    1.4418335 -47.27768 1.1382751 -55.462433 c -0.3035431 -8.184753 -2.5801086 
                    -17.015656 -6.7537994 -17.554138 c -4.1736755 -0.53845215 -9.865097 12.492523 
                    -10.851608 21.64653 c -0.9864807 9.153976 -2.5800934 36.40059 -1.441803 
                    54.708603 c 0.0 0.0 -1.6512146 -0.78601074 -2.5042114 -0.75390625 c -1.0734253 
                    0.040405273 -4.477234 1.2923584 -4.477234 1.2923584 z" style=
                    "fill:#000000;stroke:none;" transform="translate(0,308.2677)"/>
                <path id="path2995" d="m 200.64244 310.6759 c 0.0 0.0 2.2006683 3.553894 5.387863 
                    3.9846802 c 3.6331635 0.49108887 5.160202 0.86157227 6.905548 -1.8308105 c 
                    1.7453766 -2.6923218 2.9595337 -12.492493 3.035431 -20.461884 c 0.075912476 
                    -7.9693604 0.22764587 -28.000427 -0.3035431 -31.662018 c -0.53118896 -3.661621 
                    -2.9595337 -12.815613 -5.9190674 -13.246384 c -2.9595337 -0.43077087 -6.9055634 
                    6.0308685 -7.9679565 11.738663 c -1.0623779 5.707794 -1.5177002 16.5849 
                    -1.5177002 23.04654 c 0.0 6.4616394 -0.07589722 18.738739 0.37942505 28.431213 
                    z" style="fill:#ffffff;fill-opacity:1;stroke:none;" onClick="javascript:onPathClick('path2995');"
                    class="img-path" transform="translate(0,308.2677)"/>
                <path id="path2997" d="m 240.1787 248.32103 c 0.0 0.0 6.6783447 -12.644623 13.128159 
                    -12.492523 c 6.071167 0.1431427 9.940979 11.0924835 9.940979 11.0924835 c 0.0 
                    0.0 -5.1598816 -8.532135 -10.092758 -8.29245 c -4.7027283 0.22854614 -12.976379 
                    9.69249 -12.976379 9.69249 z" style="fill:#000000;stroke:none;" transform="translate(0,308.2677)"/>
                <path id="path2999" d="m 231.52779 299.36807 c 0.0 0.0 3.718399 -21.861969 14.569977 
                    -28.108185 c 7.9615173 -4.582733 13.803329 -3.8212585 17.757156 0.32305908 c 
                    5.0811157 5.325897 7.0573425 17.7695 7.0573425 17.7695 l -2.0489197 1.1846619 c 
                    0.0 0.0 -5.919037 -10.769409 -13.886978 -10.446289 c -7.9679565 0.32305908 
                    -10.92749 3.230774 -14.342346 6.353943 c -3.4148254 3.123108 -9.106232 12.923309 
                    -9.106232 12.923309 z" style="fill:#000000;stroke:none;" transform="translate(0,308.2677)"/>
                <path id="path3001" d="m 237.25713 306.7989 l 0.94854736 8.830902 l -1.1382751 
                    -0.21542358 l -0.15177917 2.5846558 c 2.4283142 -0.3230896 8.3094635 1.2384949 
                    8.3094635 1.2384949 c 0.0 0.0 -2.8457184 -2.6384888 -5.34993 -3.123108 z" style=
                    "fill:#000000;stroke:none;" transform="translate(0,308.2677)"/>
                <path id="path3003" d="m 255.20403 319.18375 c 0.0 0.0 4.932541 -10.338654 11.913986 
                    -15.184906 l 0.91064453 -5.707733 l 0.8347473 4.3077393 c 6.7537537 -4.6308594 
                    14.797607 -6.46167 14.797607 -6.46167 c 0.0 0.0 -12.141632 6.3539734 -15.632355 
                    9.477112 c -3.4907532 3.123108 -12.824631 13.569458 -12.824631 13.569458 z"
                    style="fill:#000000;stroke:none;" transform="translate(0,308.2677)"/>
                <path id="path3005" d="m 219.0115 291.10507 c 0.0 11.895569 -2.8199158 21.538849 
                    -6.298477 21.538849 c -3.4785614 0.0 -6.298477 -9.64328 -6.298477 -21.538849 c 
                    0.0 -11.895538 2.8199158 -21.538788 6.298477 -21.538788 c 3.4785614 0.0 6.298477 
                    9.6432495 6.298477 21.538788 z" style="fill:#000000;stroke:none;" transform="matrix(1.0947507,0,0,1.0614167,-22.901716,292.75923)"/>
                <path id="path3007" d="m 212.44789 293.66473 c 0.0 11.895538 -2.8199158 21.538757 
                    -6.298477 21.538757 c -3.4785614 0.0 -6.298477 -9.643219 -6.298477 -21.538757 c 
                    0.0 -11.895599 2.8199158 -21.538849 6.298477 -21.538849 c 3.4785614 0.0 6.298477 
                    9.6432495 6.298477 21.538849 z" style="fill:#ffffff;fill-opacity:1;stroke:none;"
                    onClick="javascript:onPathClick('path3007');" class="img-path" transform="matrix(0.87351651,0,0,0.94878588,29.739073,322.70463)"/>
                <path id="path3009" d="m 179.26274 320.2302 c 0.0 11.895569 -2.8199158 21.538849 
                    -6.298477 21.538849 c -3.4785614 0.0 -6.298477 -9.64328 -6.298477 -21.538849 c 
                    0.0 -11.895538 2.8199158 -21.538788 6.298477 -21.538788 c 3.4785614 0.0 6.298477 
                    9.6432495 6.298477 21.538788 z" style="fill:#000000;stroke:none;" transform="matrix(0.4345067,0,0,0.47194737,135.26695,454.50551)"/>
                <path id="path3011" d="m 180.08266 315.44482 c 0.0 11.895569 -2.8199158 21.538788 
                    -6.298477 21.538788 c -3.4785614 0.0 -6.298477 -9.643219 -6.298477 -21.538788 c 
                    0.0 -11.895569 2.8199158 -21.538818 6.298477 -21.538818 c 3.4785614 0.0 6.298477 
                    9.6432495 6.298477 21.538818 z" style="fill:#ffffff;stroke:none;" onClick="javascript:onPathClick('path3011');"
                    class="img-path" transform="matrix(0.4345067,0,0,0.47194737,132.89322,443.55137)"/>
                <path id="path3807" d="m 308.24783 291.614 c 0.0 0.0 -11.382782 -0.86154175 
                    -21.703217 2.5846558 c -10.320404 3.446228 -15.328827 6.030884 -15.328827 
                    6.030884 c 0.0 0.0 4.4013367 -32.308228 1.6694946 -43.93921 c -2.731903 
                    -11.630936 -8.347412 -28.215836 -17.30188 -29.29277 c -8.954468 -1.0769348 
                    -26.408081 -2.153885 -36.88028 1.2923279 c -10.472168 3.446228 -14.721756 
                    4.738556 -17.301834 12.061737 c -2.580124 7.3231964 -2.4283447 11.415573 
                    -2.4283447 11.415573 c 0.0 0.0 0.15177917 -14.215607 1.2141876 -17.877228 c 
                    1.0623779 -3.6615753 10.168625 -14.861786 19.274857 -20.24646 c 9.106247 
                    -5.3847046 14.569992 -9.907852 25.95279 -11.630966 c 11.382767 -1.7230988 
                    21.294693 -0.39596558 30.354141 4.30777 c 6.222595 3.2308197 12.078552 6.649994 
                    17.757141 14.431 c 4.401367 6.0308533 11.00946 14.238968 14.114685 22.40036 c 
                    2.515625 6.6116486 5.1602173 13.569443 4.856659 23.261917 c -0.30352783 9.692474 
                    -4.2495728 25.200409 -4.2495728 25.200409 z" style=
                    "fill:#ffffff;fill-opacity:1;stroke:none;" onClick="javascript:onPathClick('path3807');"
                    class="img-path" transform="translate(0,308.2677)"/>
                <path id="path3817" d="m 312.83133 155.64941 c 0.0 0.0 -0.2883606 15.820267 
                    -3.1340637 24.651154 c -2.8457031 8.830917 -7.303955 15.400238 -9.95993 
                    19.223404 c -2.6560059 3.8231354 -10.570862 8.744766 -10.570862 8.744766 c 0.0 
                    0.0 3.2460327 -4.7243805 3.7184143 -10.026337 c 0.4173584 -4.684677 -0.29595947 
                    -9.967087 -4.6214294 -12.551727 c 0.0 0.0 0.29974365 8.357056 -0.61087036 
                    12.287903 c -0.6173096 2.6646118 -3.5624084 8.433868 -4.659851 10.575424 c 
                    3.7499084 2.762436 6.2653503 4.943878 9.630432 8.396347 c 6.41333 -3.7535858 
                    16.578033 -10.543945 21.881409 -17.426376 c 7.0953064 -9.207855 8.992432 
                    -15.868729 9.561584 -21.52266 C 324.63528 172.34738 323.45526 159.6341 312.83133 
                    155.64941 z m -129.54893 83.55176 c 0.0 0.0 -5.152603 5.5785522 -9.93338 
                    7.086273 c -3.2387238 1.0213928 -12.330475 2.61969 -16.46431 3.1723328 c 
                    3.1747894 2.086609 6.1332703 5.1078796 9.2400055 6.326294 c 2.368454 0.928833 
                    8.85112 -1.7274323 11.208267 -3.015442 c 3.013092 -1.6464233 6.9359283 -6.138565 
                    5.949417 -13.569458 z" style="fill:#ffffff;fill-opacity:1;stroke:none;" onClick="javascript:onPathClick('path3817');"
                    class="img-path" transform="translate(0,308.2677)"/>
                <path id="path3854" d="m 255.29865 321.38382 c 3.4741821 -5.4188538 8.418274 
                    -11.909302 12.7708435 -15.382538 c 8.956787 -7.147278 14.647339 -9.783936 
                    22.000214 -10.50885 c 13.089386 -1.2905884 17.170898 -2.5891418 21.570953 
                    0.45690918 c 4.4000244 3.04599 7.512268 8.681213 7.512268 8.681213 l -7.0829773 
                    -2.8937378 c 5.3658752 4.8736877 7.4049377 12.94574 7.4049377 12.94574 c 0.0 0.0 
                    -1.0732117 -1.0661316 -3.1122437 -3.1983948 l 1.6097717 5.787506 c 0.0 0.0 
                    -1.3951416 -3.350647 -3.2195435 -4.5690613 l -0.858551 14.164093 c 0.0 0.0 
                    -10.087891 -10.965759 -19.20993 -10.965759 c -9.122009 0.0 -15.775757 3.1983643 
                    -21.678253 8.528961 c -5.9024963 5.330597 -5.9024963 7.00589 -11.268402 8.528931 
                    c -5.365906 1.5229797 -8.585434 2.1322021 -11.161072 -1.5230408 c -2.5756378 
                    -3.655243 2.8123322 -7.073395 4.721985 -10.051971 z" style=
                    "fill:#ffffff;fill-opacity:1;stroke:none;" onClick="javascript:onPathClick('path3854');"
                    class="img-path" transform="translate(0,308.2677)"/>
                <path id="path3872" d="m 213.87387 328.23743 c -6.6760406 3.2572327 -4.4000244 
                    8.5289 -13.736679 19.342377 c -9.336685 10.813477 -30.049088 35.48645 -45.288254 
                    51.782837 c -15.239166 16.296326 -46.897995 49.04138 -56.771248 59.702545 c 
                    -9.873276 10.661163 -22.644112 17.05783 -23.93193 20.103882 c -1.2878189 
                    3.0460815 1.9317093 4.112152 3.0049057 4.112152 c 1.0731735 0.0 35.414978 
                    -19.646973 48.400436 -30.612732 c 12.985489 -10.96579 134.46956 -113.617645 
                    134.46956 -113.617645 c 0.0 0.0 -11.161087 2.8937988 -16.419678 0.76153564 c 
                    -5.2585907 -2.1322021 -9.76593 -7.462799 -15.346481 -9.747345 c -5.5805206 
                    -2.2845154 -10.233551 -3.8509827 -14.3806305 -1.8276062 z" style=
                    "fill:#ffffff;fill-opacity:1;stroke:none;" onClick="javascript:onPathClick('path3872');"
                    class="img-path" transform="translate(0,308.2677)"/>
            </g>
        </g>
    </g>
</svg>