<?xml version="1.0" standalone="no"?>
<!--Created with Sketsa SVG Editor (http://www.kiyut.com)-->
<svg contentScriptType="text/ecmascript" width="600.0px" xmlns:xlink="http://www.w3.org/1999/xlink"
    baseProfile="full" zoomAndPan="magnify" contentStyleType="text/css" height="800.0px"
    preserveAspectRatio="xMidYMid meet" xmlns="http://www.w3.org/2000/svg" version="1.0">
    <g  id="layer1" transform="matrix(1.0 0.0 0.0 1.0 -6.0609155 -101.75297)"
        >
        <path  id="path2892" d="M 7.0609117 779.3897 C 29.975323 772.66693 80.71435 755.8594 129.81664 757.5401 c 49.10228 1.6807251 73.653534 25.21106 
            98.20468 21.84961 c 24.551147 -3.361267 24.551147 -18.488098 42.555252 -20.168884 c 
            18.004211 -1.6807251 40.91861 16.807617 62.19629 16.807617 c 21.277649 0.0 24.551117 
            -20.169067 73.65341 -20.169067 c 49.102295 0.0 47.465576 26.891785 81.83722 35.295593 c 
            34.371582 8.403809 22.914429 -25.21106 65.46979 -30.253357 c 42.55536 -5.0422363 
            49.102295 11.76532 49.102295 11.76532 l 1.6367188 127.73584 l -597.4114 0.0 l 
            -1.4305115E-6 -121.01306 z"  style=
            "fill:#ffffff;fill-opacity:1;stroke:#000000"/>
        <path  id="path2879" d="m 393.33575 582.09937 c 15.045685 9.50769 32.405975 30.899902 39.349976 48.72699 c 6.944153 17.826843 16.203033 27.33435 
            16.203033 27.33435 c 0.0 0.0 -27.77649 38.03076 -33.563293 58.23468 c -5.786682 
            20.203918 -6.944031 58.472107 -6.944031 58.472107 l 12.730835 -1.1883545 c 0.0 0.0 
            -2.3147278 -51.34137 11.573456 -67.97992 c 13.888306 -16.63855 38.192657 -39.219116 
            38.192657 -39.219116 c 0.0 0.0 -11.573486 -30.900024 -11.573486 -45.16156 c 0.0 
            -14.261536 13.888214 -41.59613 13.888214 -41.59613 c 0.0 0.0 -19.675018 -55.857605 
            -79.85736 2.3769531 z"  style=
            "fill:#ffffff;stroke:#000000"/>
        <path  id="path2868" d="m 269.4991 301.62955 l -27.772919 17.80841 c 0.0 0.0 -12.203018 194.20114 10.405334 263.84927 c 
            2.8709717 8.844238 6.2726746 16.007202 10.152222 21.76001 c 4.4177856 16.02716 11.848389 
            46.372803 11.848389 69.75165 c 0.0 33.276733 -1.1646729 105.78406 -1.1646729 105.78406 l 
            10.430756 0.0 c 0.0 0.0 0.8937683 -119.2699 5.164673 -156.58344 c 4.1385803 0.99035645 
            8.479034 1.4199219 13.01297 1.4039307 c 3.6749268 15.862488 7.26593 35.496704 7.26593 
            51.76111 c 0.0 33.276733 -1.1392517 105.78406 -1.1392517 105.78406 l 10.405334 0.0 c 0.0 
            0.0 0.9942627 -128.50482 5.696289 -160.45697 c 39.85727 -9.05249 88.77521 -35.702576 
            133.97806 -26.64746 c 17.069977 33.46057 24.35672 47.287292 35.089447 62.316162 c 
            12.7308655 17.826904 -30.091095 42.780884 -32.405823 70.11554 c -2.3146973 27.33435 
            -3.4684753 50.505554 -3.4684753 50.505554 l 11.569885 1.196106 c 0.0 0.0 -4.636627 
            -42.194153 15.038361 -68.34021 c 19.674988 -26.145996 39.342804 -42.79187 39.342804 
            -42.79187 c 0.0 0.0 -20.81427 -61.78888 -17.342194 -77.23889 c 1.1443481 -5.092163 
            3.2770996 -11.989807 5.6456604 -18.95227 C 524.035 551.61487 529.2866 521.346 512.5431 
            492.97174 c -0.9586487 -1.6243896 -2.0293274 -3.1254578 -3.1899414 -4.523529 c 6.32428 
            -2.8743896 13.382935 -6.4320374 18.228333 -9.749084 c 10.416138 -7.13089 13.899048 
            -16.638489 13.899048 -16.638489 c 0.0 0.0 -25.476257 5.946045 -10.430664 -3.5617065 c 
            15.045654 -9.507599 22.00055 -24.957642 22.00055 -24.957642 c 0.0 0.0 -16.206482 
            1.199585 -28.937439 5.953491 c -12.7308655 4.753723 -18.506744 16.638367 -18.506744 
            16.638367 l 5.772278 -17.83429 c 0.0 0.0 -15.041931 5.9459534 -19.671356 21.395996 c 
            -1.6404724 5.4747314 -1.6677551 11.376984 -1.0379944 16.742432 C 435.06094 458.57404 
            313.90375 517.68774 289.1704 495.33752 C 260.23663 469.19138 269.4991 301.62955 269.4991 
            301.62955 z"  style=
            "fill:#ffffff;fill-opacity:1;stroke:#000000"/>
        <path  id="path2846" d="m 161.53291 461.09738 c 0.0 0.0 -12.238434 0.075927734 -15.898102 30.150452 c -3.6597748 30.074738 19.59407 
            32.242218 26.621857 19.565918 c 7.027771 -12.676544 3.1950073 -28.216064 12.155472 
            -35.76007 c 8.960342 -7.544159 -23.776169 -15.513641 -22.879227 -13.956299 z"
             style="fill:#ffffff;fill-opacity:1;stroke:#000000"
            />
        <path  id="path2866" d="m 163.36522 477.26276 c -7.928543 5.880188 -7.928543 9.95105 -7.928543 21.25888 c 0.0 11.307861 3.0832977 15.378754 3.0832977 
            15.378754"  style=
            "fill:none;stroke:#000000;stroke-width:0.76118021999999996px;stroke-linecap:butt;stroke-linejoin:miter;stroke-opacity:1"/>
        <path  id="path2828" d="m 204.96002 254.08669 c -17.332977 0.061431885 -33.559387 6.695633 -42.916275 21.866653 c -8.67598 14.067352 
            -11.496811 25.523956 -11.4661255 35.28363 c -3.127472 7.880432 -9.817505 22.361969 
            -20.908905 35.065765 c -16.19606 18.550537 -43.604134 35.190613 -46.09588 58.21866 c 
            -2.4917374 23.028198 1.8692932 37.104187 1.8692932 37.104187 c 0.0 0.0 30.504852 
            -35.186768 51.684395 -68.44968 c 10.3094635 -16.19107 14.579788 -32.825928 16.091202 
            -45.57373 c 6.0392456 19.748169 18.380737 32.38513 -7.9781036 51.332306 c -43.605026 
            31.343933 -20.040627 115.54462 42.3573 104.267395 c 77.86612 -14.072723 32.016373 
            -86.30472 64.78862 -120.256805 c 19.051407 -19.737213 17.91417 -37.84076 16.131668 
            -54.036774 c 7.472534 12.069366 14.656311 29.86316 18.131989 56.58963 c 3.7333984 
            28.709045 34.841705 74.16852 34.841705 74.16852 c 0.0 0.0 1.8692932 -14.357422 1.8692932 
            -50.243866 c 0.0 -31.348083 -46.442383 -82.11713 -56.770508 -94.62381 c -9.701141 
            -37.70407 -29.829666 -37.34549 -61.62967 -40.712082 z" 
            style=
            "fill:#ffffff;stroke:#000000;stroke-width:0.76118021999999985px;stroke-linecap:butt;stroke-linejoin:miter;stroke-opacity:1"/>
        <path  id="path2830" d="m 141.49655 471.68707 c 0.0 0.0 9.245941 
            -6.0270386 -6.8522186 -31.343903 c -13.3320465 -20.966858 71.444595 -19.417267 55.440628 
            3.8380432 c -13.216385 19.20465 -13.465469 26.879395 1.8688354 37.74054 c 3.2833557 
            2.3256226 -15.573257 4.4776917 -28.031769 1.2793579 c -14.147034 -3.6317139 -22.425476 
            -11.514038 -22.425476 -11.514038 z"  style=
            "fill:#ffffff;stroke:#000000"/>
        <path transform="matrix(0.76118023,0,0,0.76118023,-30.990912,212.14359)" 
            style="fill:#000000;fill-opacity:1;stroke:none" 
             id="path2832" d="m267.2704 161.72246 a 6.137788 13.025712 0.0 1 1 -0.993927 3.672699" 
            />
        <path transform="matrix(0.76118023,0,0,0.76118023,3.6099554,212.9125)" 
             style="fill:#000000;fill-opacity:1;stroke:none" 
           d="m 258.64035 161.55276 a 6.137788 13.025712 0.0 1 1 -0.9940491 3.6725464" id="path2834" 
            />
        <path d="m 246.77487 278.05167 c 0.0 0.0 -4.3604584 7.676117 -0.6228943 13.433136 c 3.737564 
            5.7569885 14.327332 -0.6396179 14.327332 -0.6396179 c 0.0 0.0 24.29422 -31.343933 
            31.769318 -35.821762 c 7.475128 -4.477646 18.06491 -9.595047 28.654663 -0.63957214 c 
            10.589813 8.955444 32.392365 -10.23468 32.392365 -10.23468 l -6.8522034 -7.676132 c 0.0 
            0.0 2.4917297 13.433151 -14.327332 8.31572 c -16.819092 -5.117401 -14.950348 -21.748856 
            11.212677 -30.064575 c 26.162903 -8.315735 21.80246 5.117401 41.736206 3.8380585 c 
            19.933716 -1.2793732 23.671265 -17.910797 23.671265 -17.910797 l -8.098114 -3.8380585 c 
            0.0 0.0 3.7376404 10.23468 -8.720947 10.23468 c -12.458618 0.0 -26.78595 -8.955338 
            -39.867462 -8.31575 c -13.081421 0.63975525 -31.769348 3.198471 -42.35913 14.712494 c 
            -10.589752 11.514191 -21.80243 -18.550385 3.114685 -35.181976 c 24.917084 -16.631454 
            13.704407 -51.173706 13.704407 -51.173706 l -14.327332 1.2793427 c 0.0 0.0 14.327332 
            12.153793 2.4917297 29.424988 c -11.835693 17.271042 -24.917206 -9.5950775 -24.917206 
            -9.5950775 l -8.098053 8.315735 c 0.0 0.0 23.671295 7.0363617 13.081543 23.02806 c 
            -10.589783 15.991837 -7.475128 30.064575 -6.8522034 44.77707 c 0.6228943 14.712479 
            -39.867477 53.73242 -41.11331 53.73242 z" id="path2842" 
            style="fill:#ffffff;stroke:#000000"/>
        <path d="m 157.95485 289.65668 l -37.375732 -42.21837 c 0.0 0.0 -9.966873 -5.7569885 
            -25.540024 -3.1983032 c -15.573257 2.5587158 -32.39234 -12.153778 -32.39234 -12.153778 c 
            0.0 0.0 -1.2458153 -3.8380585 3.737564 -7.0363617 c 4.98349 -3.1983032 4.98349 -2.558731 
            4.98349 -2.558731 c 0.0 0.0 1.2458115 8.31572 14.950241 10.874435 c 13.70443 2.5587158 
            15.573257 -3.1983032 15.573257 -3.1983032 c 0.0 0.0 -5.606392 -14.0729065 -19.310822 
            -23.667953 c -13.704422 -9.595093 -16.819084 -28.145508 -16.819084 -40.938873 c 0.0 
            -12.793549 7.475128 -26.866287 7.475128 -26.866287 c 0.0 0.0 2.491745 -5.1174164 
            7.4751205 -0.6397705 c 4.98349 4.477829 3.7376785 5.1174316 3.7376785 5.1174316 c 0.0 
            0.0 -7.475235 3.1984558 -7.475235 19.82991 c 0.0 16.631454 3.7375565 29.42485 8.721046 
            33.902496 c 4.9833755 4.4778137 18.064896 7.036545 18.064896 7.036545 c 0.0 0.0 
            -3.114647 -32.623337 3.1146545 -46.056458 c 6.2293015 -13.433136 7.4751205 -26.866287 
            2.491745 -33.2629 c -4.98349 -6.396759 -16.196175 -7.676117 -16.196175 -7.676117 c 0.0 
            0.0 -1.868721 -0.6396103 0.62290955 -7.0363693 c 2.491745 -6.3967667 6.229309 -2.5587082 
            6.229309 -2.5587082 c 0.0 0.0 6.852211 0.63974 13.70443 7.6761246 c 6.852211 7.0363693 
            10.589775 16.63144 9.343956 26.86612 c -1.2459259 10.234833 -6.2293015 21.109268 
            -6.2293015 33.263046 c 0.0 12.1536255 18.687798 1.2792053 31.769325 -15.991837 c 
            13.081512 -17.27121 8.098145 -29.424988 8.098145 -29.424988 c 0.0 0.0 8.098022 
            -6.3966293 11.835587 0.63975525 c 3.737564 7.036377 -2.491745 32.62329 -16.819077 
            45.416687 c -14.327347 12.793396 -23.048386 11.514008 -31.769333 19.829758 c -8.721046 
            8.315887 -4.3604736 26.866257 1.8687286 35.82173 c 6.229294 8.955322 21.179657 18.550415 
            21.179657 18.550415 c 0.0 0.0 1.2458191 -28.145462 5.6062927 -35.821594 c 4.3604736 
            -7.676117 10.589767 -10.234665 10.589767 -10.234665 c 0.0 0.0 11.835709 0.63957214 
            11.212692 5.7569885 c -0.62290955 5.117264 -0.62290955 5.757019 -0.62290955 5.757019 c 
            0.0 0.0 -7.475128 -1.9189606 -11.212692 10.874435 c -3.737564 12.793381 -4.983368 
            22.388474 -4.983368 22.388474 l 0.62290955 9.595062 l 17.441986 20.469513 c 0.0 0.0 
            3.1146545 14.712494 -13.704422 10.87442 z" id="path2844" 
            style="fill:#ffffff;stroke:#000000"/>
        <path  id="path2884" d="m 307.69174 777.60114 l 11.573486 0.0 c 
            0.0 0.0 2.3147278 16.04419 -1.1573486 20.797913 c -3.4720764 4.7540283 -5.208069 
            -9.507446 -5.208069 -9.507446 c 0.0 0.0 1.7359924 11.2901 -4.05072 10.101746 c 
            -5.7867737 -1.1882935 -0.57873535 -19.609558 -1.1573486 -21.392212 z"
             style="fill:#28170b;stroke:none"/>
        <path  d="m 272.97107 777.60114 l 11.573608 0.0 c 0.0 0.0 
            2.3147278 16.04419 -1.1573486 20.797913 c -3.472107 4.7540283 -5.208069 -9.507446 
            -5.208069 -9.507446 c 0.0 0.0 1.7359619 11.2901 -4.050812 10.101746 c -5.7867126 
            -1.1882935 -0.5786438 -19.609558 -1.1573792 -21.392212 z" id="path2886"
             style="fill:#28170b;stroke:none"/>
        <path  id="path2888" d="m 456.99017 777.83887 l 11.573486 0.0 c 
            0.0 0.0 2.3147278 16.04419 -1.1573486 20.797974 c -3.4719849 4.753662 -5.2080383 
            -9.507874 -5.2080383 -9.507874 c 0.0 0.0 1.7360535 11.290466 -4.05072 10.102173 c 
            -5.786804 -1.1887207 -0.57876587 -19.60962 -1.1573792 -21.392273 z"
             style="fill:#28170b;stroke:none"/>
        <path  d="m 409.5388 773.08484 l 11.573486 0.0 c 0.0 0.0 
            2.3147278 16.044128 -1.1573486 20.798218 c -3.4720764 4.753784 -5.2080994 -9.507751 
            -5.2080994 -9.507751 c 0.0 0.0 1.736023 11.290466 -4.0506897 10.101807 c -5.7867737 
            -1.1884155 -0.57870483 -19.60962 -1.1573486 -21.392273 z" id="path2890"
             style="fill:#28170b;stroke:none"/>
        <path  style=
            "fill:#ffffff;fill-opacity:1;stroke:#000000"
             id="path2910" d="m 130.23172 789.37476 a16.367434 13.445895 0.0 1 1 -2.6505585 3.7910767" />
        <path transform="matrix(1.4249816,0,0,1.4249816,11.519039,-337.18076)"
             style="fill:#ffffff;fill-opacity:1;stroke:#000000"
              d="m 128.05565 822.716 a 16.367434 13.445895 0.0 1 1 -2.6505737 3.7911377" id="path2920" 
            />
        <path transform="matrix(1.4249816,0,0,1.4249816,-187.48101,-369.50564)" 
             style="fill:#ffffff;fill-opacity:1;stroke:#000000"
            id="path2924"  d="m154.56883 826.52905 a 16.367434 13.445895 0.0 1 1 -2.6505737 3.7910767" 
           />
        <path transform="matrix(0.65626058,0,0,0.65626058,326.5298,318.23993)" 
             style="fill:#ffffff;fill-opacity:1;stroke:#000000" 
              d="m 36.894623 719.16046 a 16.367434 13.445895 0.0 1 1 -2.650547 3.7910767" id="path2928" 
            />
        <path transform="translate(114.14724,-1.0101526)" 
            style="fill:#ffffff;fill-opacity:1;stroke:#000000" 
            id="path2932"  d="m 108.56053 789.5445 a16.367434 13.445895 0.0 1 1 -2.650566 3.7910767" />
        <path transform="matrix(0.65626058,0,0,0.65626058,416.43338,370.76786)" 
             style="fill:#ffffff;fill-opacity:1;stroke:#000000" 
             id="path2936"  d="m10.885933 705.70746 a 16.367434 13.445895 0.0 1 1 -2.650568 3.7910767" 
            />
        <path transform="matrix(0.65626058,0,0,0.65626058,513.40802,344.50389)" 
             style="fill:#ffffff;fill-opacity:1;stroke:#000000"
            d="m -17.168451 712.4338 a 16.367434 13.445895 0.0 1 1 -2.6505451 3.7913818" id="path2940" 
            />
        <path transform="matrix(0.65626058,0,0,0.65626058,601.29129,318.23992)" 
             style="fill:#ffffff;fill-opacity:1;stroke:#000000" 
            id="path2944"  d="m-42.592693 719.16046 a 16.367434 13.445895 0.0 1 1 -2.6505432 3.7910767" 
            />
        <path id="path2973" d="m 169.91687 268.44583 c 0.0 0.0 12.275635 15.126526 35.19005 
            17.647644 c 22.914398 2.5211487 49.920654 -18.488068 49.920654 -18.488068 c 0.0 0.0 
            4.910202 -16.807419 -0.81837463 -23.53032 c -5.7286835 -6.7230225 -11.45726 17.64766 
            -45.82881 17.64766 c -34.371674 0.0 -27.824738 -21.009155 -36.008408 -19.328384 c 
            -8.18367 1.6807251 -8.18367 14.286118 -2.4551086 26.051468 z"
             style="fill:#ffffff;stroke:#000000"/>
        <path  id="path2975" d="m172.37198 245.75586 c 2.4551086 -3.361496 11.45726 -16.807434 12.275635 -32.77449 c 
            0.8183594 -15.966888 -0.8765869 -33.368515 0.7601471 -46.814438 c 1.636734 -13.445923 
            4.150055 -27.978271 23.790985 -38.062683 c 19.640945 -10.084549 33.553192 -7.5634155 
            48.28395 -3.3615112 c 14.730591 4.2019043 22.096039 26.891846 22.096039 43.699112 c 0.0 
            16.807465 10.638763 31.93399 4.0918274 41.17816 c -6.546936 9.244019 -12.275635 
            -42.018524 -27.824615 -48.741425 c -15.549103 -6.723007 -23.732788 15.966934 -23.732788 
            36.976257 c 0.0 21.009186 18.82257 47.060654 18.82257 47.060654 c 0.0 0.0 -4.910309 
            15.126526 -30.27983 21.849548 c -25.369507 6.72287 -39.281754 -4.2019043 -48.28392 
            -21.009186 z" style="fill:#ffffff;stroke:#000000"/>
        <path style=
            "fill:#ffffff;fill-opacity:1;stroke:#000000" 
            id="path2977" d="m 272.07516 199.74486 a13.912321 14.286264 0.0 1 1 -2.2530212 4.0280457" />
    </g>
</svg>