<?xml version="1.0" encoding="UTF-8" standalone="yes"?>
<svg xmlns="http://www.w3.org/2000/svg" height="500" width="925" id="svg2" version="1.0" viewBox="0 0 1063.2 585">
<g>
<g>
<path id="path1933" style="stroke:#000000;stroke-width:1.5;fill:none" d="m429.68 361.13c-3.34 22.9-16.66 41.64-28.73 41.64-12.78 0-19.9-18.74-16.57-41.64 3.34-22.91 17.19-40.43 27.83-41.18 13.3-0.95 20.8 18.27 17.47 41.18z"  />
<path id="path4593" style="stroke:#000000;stroke-width:1.5;fill:none" d="m431.44 361.27c-3.58 24.07-17.52 43.61-31.27 43.61-13.33 0-22-19.68-18.41-43.75s18.23-43.33 31.27-43.47c13.75-0.15 22 19.54 18.41 43.61z"  />
<path id="path1875" style="stroke:#000000;stroke-width:1.5;fill:none" d="m625.47 283.52c-1.91 17.53-10.53 31.95-16.85 31.75-7.09-0.22-12.13-12.56-10.08-31.78 1.87-17.53 10.98-31.62 16.93-31.72 7.32-0.12 11.91 14.22 10 31.75z"  />
<path id="path1877" style="stroke:#000000;stroke-width:1.5;fill:none" d="m626.89 283.49c-2.17 18.4-10.58 33.32-18.89 33.32-8.05 0-13.29-15.03-11.12-33.43 2.17-18.39 11.01-33.11 18.89-33.21 8.31-0.12 13.29 14.93 11.12 33.32z"  />
<path id="path1876" style="stroke:#000000;stroke-width:1.5;fill:none" d="m630.48 284.42c1.01-5.51 1.49-9.06 2.41-14.56 1.7-23.99 0.1-42-11.04-41.32-18.02 1.09-30.68 43.34-32.65 54.99-1.97 11.68-1.3 15.49-1.89 21.67-0.18 2.22-0.94 4.43-2.83 5.61l-48.16 20.2-94.96 38.19-2.04 0.87"  />
<path id="path1878" style="fill:none;stroke:#000000;stroke-width:0.625" d="m 612.47174,326.40807 c -1.18,0.47 -5.90174,0.75193 -7.09174,0.75193 -10.37,0 -17.11,-19.62 -14.32,-43.62 2.79,-24 15.27042,-43.93095 25.42006,-44.09466 1.86,-0.03 6.35708,0.53477 8.26249,3.89398"  />
<path id="path1879" style="stroke:#000000;stroke-width:1.5;fill:none" d="m569.7 317.07c2.65 4.81 6.19 8.04 10.37 9.33 9.58 3.03 17.66 3.8 22.42 3.65 14.89-0.34 24.88-20.95 28.04-46.87s-3.52-44.92-15.99-47.09c-1.53-0.27-3.22-0.57-4.74-0.62"  />
<path id="path1880" style="stroke:#000000;stroke-width:1.5;fill:none" d="m398.6 420.9c-0.66 0.07-1.33 0.11-1.99 0.11-18.07 0-29.82-27.37-24.96-60.84 4.87-33.48 26.11-60.45 42.39-60.45 0.68 0 1.35 0.04 2.01 0.11"  />
<path id="path1882" style="stroke:#000000;stroke-width:1.5;fill:none" d="m403.02 295.51c4.83 0.69 11.99 2.24 16.58 4.23 15.74 7.31 23.68 31.77 19.33 60.84-5.12 34.13-25 61.83-44.62 61.83-13.1 0.88-32.01-5.03-36.17-7.45-5.39-3.04-9.19-7.14-11.71-12.32"  />
<path id="path1893" style="stroke:#000000;stroke-width:1.5;fill:none" d="m292.44 203.8c-2.17 0.43-1.89 0.21-3.79 0.9-24.52 7.6-47.89 16.01-71.09 25.46l-24.94 13.19c-9.3 6.16-19.12 11.76-26.65 19.44-8.38 7.08-12.06 12.83-16.95 18.92-5.5 8.38-8.8 14.85-10.31 19.5-2.62 7.12-0.12 11.21 5.79 13.27 5.97 2.08 12.12 3.82 18.36 5.37 11.25 2.54 22.9 5.03 34.16 7.3 10.21 2.02 21.47 4.03 30.22 4.38 4.96 0.26 9.38-0.38 12.74-2.78 4.68-2.66 8-5.21 10.31-7.06 3.53-2.69 7.06-5.21 10.6-7.63 5.45-3.4 10.68-6.46 16.8-9.32 5.97-3.26 12-6.3 18.22-8.76 10.29-4.87 21.11-9.59 32.21-13.84 9.9-3.96 22.32-8.31 33.31-12.13l32.37-10.9c18.34-6.36 35.47-11.9 51.41-16.66l22.52-6.56c7.39-2.1 13.85-4.4 19.43-6.3 11.36-3.86 99.28-36.25 99.28-36.25 4.38-1.98 6.54-3.97 5.04-7.64-0.76-1.66-2.66-2.08-3.82-2.68"  />
<path id="path1883" style="stroke:#000000;stroke-width:1.5;fill:none" d="m436.58 372.72c1.44-1.22 2.77-2.55 3.86-4.48 3.54-7.06 4.99-14.64 5.74-22.45 3.02-31.79-6.21-57.58-26.22-56.62-16.68 0.79-34.99 17.4-44.19 40.39-11.8 29.56-13.52 42.87-15.09 55.41-0.36 2.94-0.94 8.24-1.42 11.3-0.37 3.26-3.52 7.16-9.81 6.49-18.37-1.93-31.09 0.38-43.86 1.41-17.68 1.33-35.31 2.27-52.61 0.99-5.43-0.34-11.62-0.93-20.42-2.4-8.25-1.31-17.26-3.47-25.33-5.34-20.66-4.61-41.38-9.89-62.31-17.93-6.8-2.58-9.91-4.9-12.88-8.39-2.91-2.68-4.94-11.28-5-12.99-0.49-2.17-0.13-3.31 0.7-3.89 0.41-1.6-0.15-3.2-0.5-4.8l-1.79-8.78c-0.53-2.21-1.21-3.99-2-5.4-1.45-8.14-1.44-17.04-0.9-25.37 1.92-19.21 8.3-29.99 16.9-42.8 3.13-4.66 8.5-9.88 14.1-13.55 4.54-3.2 9.78-5.92 15.44-8.37 5.58-2.47 11.65-4.7 17.98-6.79 7.54-2.4 18.19-5.23 30.89-8.3"  />
<path id="path1884" style="stroke:#000000;stroke-width:1.5;fill:none" d="m131.5 331.15c29.93 11.23 79.47 20.37 108.06 25.28 2.12 0.43 4.44 0.5 6.64 4.38 0.84 1.89 0.98 4.37 0.7 7.21-0.7 6.31-1.67 12.92-3.81 18.08-1.48 2.78-4.86 5.42-8.05 6.21-5.61 0.49-11.21-0.28-16.81-1.27-23.86-3.98-51.48-11.46-68.65-17.8-4-1.56-7.91-3.92-11.33-7.63-3.14-3.4-5.41-7.63-7.17-11.86-1.31-3.96-2.17-8.23-2.54-12.85-0.25-2.92-0.42-5.04-0.5-7.56 0.16-2.91 1.74-2.71 3.46-2.19z"  />
<path id="path2772" style="stroke:#000000;stroke-width:1.5;fill:none" d="m244.86 380.55c-1.47 1.2-3.3 2.05-5.05 2.34-4.63 0.4-10.6 0.4-15.83-0.52-22.26-3.64-48.03-10.5-64.06-16.3-4.01-1.64-7.87-3.59-11.07-6.99-2.93-3.12-4.62-6.72-6.19-10.87-1.28-4.24-1.78-7.35-1.84-11.01 0.08-1.47 0.57-2.17 1.26-2.36"  />
<path id="path2774" style="stroke:#000000;stroke-width:1.5;fill:none" d="m246.33 373.13c-1.52 1.12-2.66 2.08-4.94 2.37-5.91 0.5-11.81-0.27-17.71-1.27-25.14-3.98-53.97-11.43-72.19-17.79-2.03-0.71-4.72-2.03-6.65-3.2"  />
<path id="path2776" style="stroke:#000000;stroke-width:1.5;fill:none" d="m246.97 367c-6.45 0.05-11.9-0.54-17.85-1.53-29.16-4.31-60.76-12.68-81.03-19.69-2.26-0.83-4.67-2.03-6.83-3.33"  />
<g>
<path id="path2768" style="fill-rule:evenodd;stroke:#000000;stroke-width:1.5;fill:#ffffff" d="m200.15 364.08l1.83-1.28c0.6-0.55 0.55-1.56 0.45-2.51l-1.06-27.11c-0.09-2.42-1.54-3.18-3.18-3.61-14.26-2.82-29.15-5.02-42.58-8.68-1.11-0.2-1.9-0.19-2.45-0.03l-2.24 1.36"  />
<path id="path1881" style="fill-rule:evenodd;stroke:#000000;stroke-width:1.5;fill:#ffffff" d="m153.89 322.04c13.43 3.66 28.32 5.86 42.59 8.69 1.72 0.39 3.08 1.19 3.17 3.6l1.06 27.12c0.17 1.65 0.21 3.48-3.1 2.75-13.67-2.86-28.36-6.82-42.52-11.23-1.19-0.39-2.76-1.2-2.97-3.74-0.96-8.83-1.13-15.49-1.9-24.51-0.11-1.76 0.07-3.33 3.67-2.68z"  />
</g>
<g>
<path id="path1888" style="fill:none;stroke:#000000;stroke-width:0.625" d="m 331.93963,331.1177 c 3.66,0.01 13.71037,-0.0377 18.13037,-0.6677 3.9,-0.78 7.24,-0.67 10.49,-0.4 2.35,0.16 4.56,0.54 6.39,1.5 0.84,0.93 1.38,1.86 -0.4,2.79 -1.96,1.26 -3.93,1.36 -5.89,1.74 -5.05,0.59 -9.48,0.5 -13.44,0.49 -7.94,-0.02 -21.98,1.56 -31.13,2.62 -19.02,2.88 -36.92,3.25 -53.15,3.67 -6.7,-0.06 -18.3,0.99 -20.27,-4.1 -0.69,-2.01 0.63,-5.29 4.2,-8.27 6.61,-5.44 14.9,-11.29 23.4,-16.02 4.71,-2.86 10.26,-5.34 15.48,-7.89 5.71,-2.79 14.58,-3.87 19.97,-5 8.19,-1.71 21.13,-3.59 26.07,-4.19 7.61,-0.93 15.26,-1.85 23.77,-1.5 2.79,-0.11 3.61,1.45 3.65,2.7 -0.39,3.27 -0.88,4.74 -2.05,6.69 -4.85,7.12 -10.37,13.82 -16.28,20.27 -3.38,3.16 -5.53,4.9 -10.98,5.7 -22.6,2.46 -45.98,3.95 -68.02,3.79 -2.56,-0.23 -5.82,-0.04 -5.69,-3.29 0.31,-3.06 2.04,-5.02 3.49,-7.19 2.12,-2.89 4.23,-5.17 6.34,-7.55"  />
<path id="path1889" style="fill:none;stroke:#000000;stroke-width:0.625" d="m 261.73838,394.36274 c 2.23458,-0.73054 -0.27832,-12.84793 1.94574,-18.68289 1.91635,-5.0277 8.60222,-3.92248 10.17588,-4.07985 15.98,0.54 31.62,0.1 47.35,-0.1 4.16,-0.04 4.92,1.22 4.59,3.59 -1.4,6.56 -3.98,10.12 -6.99,14.39 -2.13,2.22 -5,3.35 -8.19,3.99 -16.47,1.33 -33.95,2.59 -49.24,1.2"  />
<path id="path2777" style="stroke:#000000;stroke-width:1.5;fill:none" d="m301.85 371.76c-2.07 1.8-2.47 6.61-3.68 9.96-1.58 3.85 0.74 4.41 2.83 4.59 7.09 0.45 15.88-0.01 20.69-1.27"  />
<path id="path1892" style="stroke:#000000;stroke-width:1.5;fill:none" d="m462.38 228.42c-3.66 3.65-8.81 6.79-15.93 9.24-7.17 2.79-17.63 6.24-29.16 10.19-13.39 4.55-27.01 9.2-40.93 14.02-12.22 4.23-25.33 8.46-36.11 12.7-13.14 5.21-26.13 10.12-38.72 15.73-10.06 4.4-21.04 9.71-31.86 14.88-4.64 2.41-10.33 4.35-18.38 3.1-4.36-0.56-6.34-0.69-13.88-2-15.36-2.22-30.21-4.59-43.75-7.49-11.93-2.52-28.22-5.64-36.75-8.19-2.97-1.54-3.31-3.97-2.2-6.4 2.88-3.9 5.87-7.82 10.59-11.98 4.12-3.5 7.95-6.91 14.38-11.19 5.26-3.79 10.76-7.35 16.28-10.88 5.09-3.38 10.19-6.11 15.28-8.69 7.83-4.23 14.94-7.75 21.97-11.19 8.95-4.48 18.28-8.19 27.47-12.18 11.35-4.14 25.41-8.77 28.91-11.6 2.94 1.74 7.47 2.28 11.14 2.61l60.63 8.09 48.64 5.99c14.98 1.99 28.43 3.06 42.15 4.29 6.02 0.74 12.18 1.06 18.47 1 4.86-0.01 9.72-0.48 14.58-1.3 8.02-1.82 94.93-34.33 98.67-36.13 4.47-2.28 8.8-6.55 0.19-10.18-10.52-3.52-27.68-6.99-48.87-9.04"  />
<path id="path2784" style="stroke:#000000;stroke-width:1.5;fill:none" d="m446.4 237.61c0.02-0.01 0.04-0.03 0 0z"  />
<path id="path1894" style="stroke:#000000;stroke-width:1.5;fill:none" d="m144.21 280.87c2.77 0.27 6.19 1.37 10.46 3.53"  />
<path id="path1896" style="stroke:#000000;stroke-width:1.5;fill:none" d="m134.19 304.88c-0.99-2.57-1.8-5.63-2.41-9.32-0.37-4.85 0.44-9.48 1.84-15.4 0.71-2.92 2.6-5.84 4.8-8.76 3.89-4.2 6.85-6.53 10.03-9.32 2.89-2.53 2.55-0.76 2.12 1.13-1.76 5.37-3.71 11.02-6.21 17.51-4.52 9.19-8.67 19.49-12.43 30.94-2.51 4.55-4.68 3.23-5.37 0.7-1.7-3.79-1.91-11.74-1.48-16.17"  />
<path id="path2783" style="fill:none;stroke:#000000;stroke-width:0.625" d="m 587.07708,305.58994 c -2.08,-0.07 -8.49708,2.90006 -12.57708,4.25006 l -111.07,45.38 c -6.7,2.14 -7.72,0.03 -5.39,-4.6 3.13,-6.05 6.55,-11.06 10.19,-14.18 3.69,-3.33 8.39,-5.47 12.58,-7.19 31.57,-14.09 63.33,-26.44 95.28,-39.78 4.14,-1.7 9.99708,-3.89236 12.55708,-4.04236"  />
<path id="path1899" style="stroke:#000000;stroke-width:1.5;fill:none" d="m289.56 206.5c4.38-3.16 13.37-16.92 27.4-31.71 7.68-8.51 15.37-16.93 23.31-23.87 4.06-3.71 9.11-7.29 15.82-7.91 7.85-0.73 17.24-0.27 26.44-0.02 31.57 1.36 61.84 3.57 90.09 7.28 7.86 0.85 13.84 1.95 21.17 3.99 4.01 1.03 9.14 4.15 10.39 9.69 1.51 9.09-0.48 19.04-2 28.37-0.68 6.76-0.07 18.18 0.64 23.93 0.07 0.63 0.37 0.99 1.29 0.68l2.18-0.79 52.85-19.22c1.74-0.48 4.39-1.55 6.37-1.91 3.28-0.41 5.36-0.14 6.79 0.5"  />
<path id="path1898" style="stroke:#000000;stroke-width:1.5;fill:none" d="m291.11 203.89c0.92-3.2 0.34-6.17 0-9.19-2.3-1.66-2.95-4.51-2.54-7.34 0.81-4.34 3.44-7.64 6.5-10.1 1.48-1.12 2.9-1.84 4.73-2.12 4.4-0.07 6.93 0.04 8.83 2.33 0.56 1.08 0.7 3.02 0.14 6.36"  />
<path id="path2787" style="stroke:#000000;stroke-width:1.5;fill:none" d="m291.54 198.59c1.1 0.88 3.01 0.72 4.52 0.63"  />
<path id="path1900" style="stroke:#000000;stroke-width:1.5;fill:none" d="m292.77 207.7c4.24-4.63 12.12-15.97 23.48-28.21 7.09-8.04 14.19-16 21.53-22.55 4.04-3.54 8.17-7.95 14.76-8.25 8.65-0.4 15.64-0.29 24.13 0.11 29.67 1.37 57.9 2.97 83.99 6.52 7.31 1 13.08 2.15 19.91 3.78 5.48 1.3 9.66 3.78 9.59 9.95-0.05 8.7-1.98 18.34-3.29 27.14-1.6 9.85-3 16.04-4.77 24.99-0.97 4.73-2.4 5.56-4.89 7"  />
<path id="path1901" style="fill:none;stroke:#000000;stroke-width:0.625" d="m 345.89155,146.54504 c 10.79,-0.81 27.73845,-0.50504 38.53845,-0.005 29.67,1.37 56.07,3.25 82.16,6.81 7.31,1 13.28,1.79 19.91,4.07 5.43,1.87 8.93,6.29 8.8,11.55 -0.22,8.69 -1.82,16.35 -3.19,25.14 -2.34,11.29 -4.67,23.82 -7.01,33.06 1.04,1.13 1.51,1.39 2.3,2.5 8.9,15.21 7.02,35.02 6.29,51.94 -0.58,12.01 -3.13,35.89 -4.49,47.04 -0.18,1.85 1.33,4.2 3.8,3.34 27.38,-11.39 52.46,-21.15 75.52,-32.26 2.62,-1.26 3.72,-3.11 4.59,-4.79 6.69,-12.96 9.05,-29.02 11.97,-43.2 2.17,-12.36 3.65,-29.7 0.2,-37.75 -3.58,-8.37 -10.99,-13.38 -14.38,-15.18 -0.54,-0.68 -0.97,-1.46 -1.25,-2.41"  />
<path id="path1902" style="fill-rule:evenodd;stroke:#000000;stroke-width:1.5;fill:#ffffff" d="m499.88 230.16c-0.69 2.32 1.44 2.87 2.54 4.52 3.09 4.3 5.78 4.41 8.19 3.95 1.95-0.93 3.81-1.17 4.8-5.22 1.15-3.29 2.2-6.96 2.97-10.46 11.25-0.31 17.34-2.54 23.31-5.08 4.02-1.72 5.96-5.47 2.26-11.3-4.3-6.78-9.13-7.26-13.28-7.35-6.94-0.08-16.28-1.74-18.79 2.69-6.34 10.67-6.55 19.72-7.91 22.6-1.81 2.81-3.13 3.67-4.09 5.65z"  />
<path id="path2791" style="stroke:#000000;stroke-width:1.5;fill:none" d="m504.11 224.08c1.02 2.06 11.7 3.88 13.71 1.63"  />
<path id="path1912" style="stroke:#000000;stroke-width:1.5;fill:none" d="m624.32 228.6c6.02-2.51 10.07-5.34 12.43-7.62 1.87-1.13 3.5-0.02 3.53 1.55-0.01 19.18-4.95 42.24-7.35 45.62"  />
<path id="path2801" style="stroke:#000000;stroke-width:1.5;fill:none" d="m638.76 220.58c-1.07-12.64-2.57-29.82-11.48-36.47-3.44-2.57-7.65-2.16-11.72-0.99-6.41 1.84-12.82 4.16-19.21 5.93-1.86 0.41-3.41 0.39-4.8 0.15"  />
<path id="path1906" style="stroke:#000000;stroke-width:1.5;fill:none" d="m504.48 167.95c24.98 1.17 43.79 1.99 61.63 4.79 17.83 2.8 34.86 6.54 51.33 9.89"  />
<path id="path2795" style="stroke:#000000;stroke-width:1.5;fill:none" d="m612.28 181.5c-6.38 0.21-11.71 1.62-16.95 2.82-1.86 0.41-3.35 0.44-4.74 0.19"  />
<path id="path2797" style="stroke:#000000;stroke-width:1.5;fill:none" d="m622.61 203.55c0.98 2.23 1.89 5.23 3.97 4.49 1.32-0.46 3-1.02 3.63-1.68 2.01-2.13 1.36-5.56-0.09-10.36-0.81-2.7-2.5-5.46-4.55-7.92-1.81-2.28-3.99-2.66-6.14-2.26-1.3 0.25-2.25 0.65-3.89 1.25-1.01 0.38-2.42 1.23 0.26 4.55 2.57 3.19 4.92 7.67 6.81 11.93z"  />
<path id="path2809" style="fill-rule:evenodd;stroke:#000000;stroke-width:1.5;fill:#ffffff" d="m553.27 198.94c-0.16-1.65-0.05-3.03 1.41-5.37 1.27-3.27 1.54-6.65 0.78-9.81-1.88-7.82-1.7-19.23-12.23-25.9-8.98-5.7-22.53-2.59-26.56 2.4m21.07 28.36c2.05-0.78 3.27-3.24 3.34-4.99 0.21-5.89-0.34-11.53-3.31-16.34-1.92-3.1-3.75-3.16-6.07-2.82m-5.95 21.66c-5.29-0.69-3.49-9.64-1.28-13.85 2.56-4.9 4.92-6.6 7.23-7.81"  />
<path id="path2802" style="fill-rule:evenodd;stroke:#000000;stroke-width:1.5;fill:#ffffff" d="m517.04 171.72c-2.8 3.53-3.48 7.67-3.67 10.12-0.42 5.38 1.89 5.95 4 6.38 6.86 1.42 8.02-0.8 8.68-2.69 1.93-5.45 0.69-10.56-1.34-13.71-1.81-2.81-5.27-2.31-7.67-0.1zm-12.91 8.92c1.73-5.69 2.88-10.57 8-16.76 2.85-3.15 6.26-5.2 11.23-4.12 2.68 0.62 5.35 1.21 8.29 4.69 2.55 2.34 4.68 10.62 5.09 12.99 0.86 4.9 1.33 10.07 5.29 13.18 3.75 2.3 4.02 6.59 4.1 10.99"  />
<path id="path2813" style="stroke:#000000;stroke-width:1.5;fill:none" d="m567.1 228.27c-0.11-2.75-0.95-5.48 3.1-8.29 4.39-3.04 7.46-4.46 9.09-1.99 3.81 5.78 1.44 7.06 0.4 7.89-2.57 2.02-4.7 3.85-8.79 4.99-2.7 0.75-3.71-0.37-3.8-2.6z"  />
<path id="path3700" style="stroke:#000000;stroke-width:1.5;fill:none" d="m569.21 227.01c-0.08-2.08-0.69-4.14 2.26-6.27 3.19-2.31 5.43-3.38 6.62-1.51 2.77 4.37 1.05 5.35 0.29 5.97-1.87 1.53-3.42 2.91-6.4 3.78-1.97 0.57-2.7-0.29-2.77-1.97z"  />
<path id="path3704" style="stroke:#000000;stroke-width:1.5;fill:none" d="m569.1 226.78c2.66-1.13 5.78-3.81 7.89-3.1 0.97 0.33 1 0.9 1.2 1.6"  />
<path id="path1914" style="stroke:#000000;stroke-width:1.5;fill:none" d="m267.32 306.27c5.32 0.76 10.38-0.09 14.28 2.31"  />
</g>
<g>
<path id="path4700" style="stroke:#000000;stroke-width:.38324;fill:none" d="m179.05 304.79c0.58-1 1.36-1.11 2.2-1.06 2.5 0.4 5.64 1.07 8.04 1.82 1.04 0.4 1.44 0.94 1.34 1.92-0.25 1.61-0.82 3.08-1.39 4.69-0.52 1.09-1.06 1.5-2.15 1.4-2.82-0.51-5.45-1.12-7.54-1.67-1.4-0.43-1.43-1.05-1.48-1.8 0.12-1.72 0.48-3.67 0.98-5.3z"  />
</g>
</g>
<g>
<path id="path3382" style="stroke:#000000;stroke-width:1.5;fill:#ffffff" d="m 566.90982,532.52183 c -5.20224,-1.14716 -9.36935,-3.58761 -13.60509,-7.96777 -10.90903,-11.28097 -16.63259,-31.64785 -16.01968,-57.00498 0.33481,-13.852 2.04029,-25.21168 5.76253,-38.38232 8.22407,-29.09982 26.2646,-54.60316 43.9482,-62.1282 6.79789,-2.89277 14.59083,-2.74741 20.81661,0.38826 7.93255,3.99531 14.76509,13.30187 18.8701,25.70285 12.49438,37.74471 0.55114,94.05959 -26.31688,124.08963 -9.05772,10.12371 -19.40536,15.85957 -28.47158,15.78224 -1.60698,-0.0137 -3.84987,-0.22957 -4.98421,-0.47971 z" transform="translate(6.404,13.056)" class="img-path" />
<path id="path3384" style="stroke:#000000;stroke-width:1.5;fill:#ffffff" d="m 566.57666,537.13858 c -6.23806,-0.97371 -11.84503,-4.07973 -16.93197,-9.37959 -15.64963,-16.30468 -21.67453,-49.31225 -15.35082,-84.09974 7.85012,-43.18442 33.8816,-79.73217 59.25569,-83.19399 5.18248,-0.70706 10.22629,0.14826 15.29637,2.59391 19.60364,9.45621 30.02725,42.64356 25.42314,80.94381 -5.50396,45.78579 -30.03532,85.86701 -56.56553,92.42111 -3.43203,0.84786 -8.27863,1.15907 -11.12688,0.71449 z m 9.78597,-2.88168 c 23.15224,-4.21268 46.30875,-37.91703 54.09724,-78.73867 3.17497,-16.64089 3.57067,-35.18336 1.06186,-49.75844 -3.62244,-21.04473 -13.18962,-36.30873 -25.59539,-40.83628 -11.7655,-4.29388 -23.79227,-0.0589 -36.30892,12.78539 -3.86003,3.96108 -4.95588,5.22113 -7.58181,8.71787 -13.06814,17.40178 -22.13061,40.72461 -25.17705,64.79473 -4.01781,31.74494 1.5351,59.73423 14.6643,73.91497 6.92578,7.48049 15.84813,10.75651 24.83977,9.12043 z" transform="translate(6.404,13.056)" class="img-path" />
<path id="path3386" style="stroke:#000000;stroke-width:1.5;fill:#ffffff" d="m 544.93639,573.22433 c -18.24841,-1.30523 -46.57546,-8.20474 -58.80514,-14.32293 -7.94518,-3.97477 -15.92772,-10.9382 -20.79023,-18.136 -1.57143,-2.32612 -3.78708,-6.07329 -3.78708,-6.4048 0,-0.089 1.04411,-0.0458 2.32024,0.0961 10.79009,1.19978 18.28615,-1.79898 21.77538,-8.71111 1.37307,-2.72003 1.67189,-4.45378 3.91621,-22.72177 2.00712,-16.33722 3.08373,-23.89357 4.51561,-31.6936 4.30258,-23.43787 12.2065,-49.38572 24.97226,-81.98165 4.3419,-11.08657 8.15203,-19.22758 12.6756,-27.0837 10.95182,-19.0201 25.47431,-35.3466 40.97509,-46.06509 2.67314,-1.84842 3.10601,-2.04388 3.54787,-1.60201 0.2768,0.27679 0.88307,0.50326 1.34728,0.50326 3.12131,0 20.05691,4.01102 27.05159,6.40688 7.96001,2.72652 13.27299,5.99847 19.44124,11.97274 14.29563,13.84606 23.04454,34.91408 26.41198,63.60204 0.76646,6.52958 0.87521,29.43988 0.17295,36.43629 -2.25601,22.47633 -6.78924,42.19125 -14.06894,61.18547 -16.29967,42.52919 -42.76509,72.16014 -69.38343,77.68239 -5.06738,1.05128 -14.398,1.40189 -22.28848,0.83751 z m 21.22392,-1.34681 c 1.16406,-0.003 1.30048,-0.0915 1.20309,-0.77719 -0.10602,-0.74649 -0.21756,-0.76948 -3.20349,-0.66037 -20.96496,0.76607 -39.14535,-17.83537 -47.98447,-49.09579 -7.91115,-27.97855 -7.57696,-62.95515 0.92025,-96.31548 8.01377,-31.46229 23.4271,-60.63913 42.25188,-79.98115 7.77683,-7.99052 14.58034,-13.25425 21.79633,-16.86337 6.41822,-3.21011 11.51448,-4.53886 17.73361,-4.62369 3.98097,-0.0543 4.12869,-0.0829 4.2347,-0.82048 0.10805,-0.75172 0.0455,-0.76421 -3.82908,-0.76421 -12.58861,0 -25.06791,6.26368 -38.69342,19.42123 -25.99141,25.09874 -45.51211,68.59181 -50.37175,112.23065 -1.26439,11.35411 -1.63677,27.1981 -0.87292,37.14099 2.36194,30.74459 11.62607,55.25111 26.1888,69.27753 5.6669,5.4582 11.07536,8.71289 17.66067,10.6278 3.15164,0.91644 8.32923,1.5818 10.44979,1.34287 0.6617,-0.0745 1.7939,-0.13726 2.51601,-0.13934 z m 13.1241,-34.17667 c 4.11652,-1.21616 9.94948,-4.09945 13.72431,-6.78407 3.81244,-2.71138 9.70214,-8.30815 13.51006,-12.83813 11.69068,-13.90747 21.56668,-35.17052 26.34314,-56.71687 2.68775,-12.12429 3.65187,-19.95215 3.89917,-31.65837 0.21371,-10.11559 -0.17583,-16.5149 -1.47291,-24.19632 -2.82275,-16.71669 -8.38946,-29.02757 -16.94325,-37.47033 -4.24021,-4.18517 -7.50083,-6.2771 -12.42078,-7.96884 -3.14923,-1.08288 -3.46137,-1.12317 -8.76534,-1.13155 -6.72129,-0.0106 -8.83709,0.50594 -15.46823,3.77642 -26.05198,12.84885 -47.59922,53.59768 -51.06753,96.57579 -0.58874,7.29546 -0.2384,22.33893 0.66069,28.36921 3.66996,24.61502 13.00599,41.5361 26.68887,48.37225 4.59854,2.29749 7.2998,2.84108 13.40581,2.69774 3.98335,-0.0935 5.34526,-0.27041 7.90599,-1.02693 z" transform="translate(6.404,13.056)" class="img-path" />
<path id="path3388" style="stroke:#000000;stroke-width:1.5;fill:#ffffff" d="m 646.2191,469.80479 c 0,-0.20409 0.45374,-2.28257 1.00832,-4.61885 3.72202,-15.6799 5.61207,-31.98469 5.65248,-48.76192 0.0393,-16.3066 -1.26052,-27.77313 -4.65626,-41.07677 -6.5899,-25.81754 -19.51051,-44.46404 -36.55027,-52.74783 -5.95667,-2.8958 -17.41984,-6.20345 -28.05274,-8.09449 -6.72282,-1.19565 -6.4915,-1.12294 -5.63364,-1.77068 1.77089,-1.33715 12.4843,-6.31938 16.32758,-7.59309 23.21906,-7.69506 41.40357,-1.84426 54.21108,17.44222 13.31652,20.05298 19.04934,55.00733 15.3848,93.80471 -1.36819,14.48533 -3.90671,26.80179 -7.56489,36.70361 -1.83598,4.96956 -4.64957,10.65417 -6.43559,13.00254 -1.78315,2.34459 -3.69087,4.26248 -3.69087,3.71055 z" transform="translate(6.404,13.056)" class="img-path" />
<path id="path3390" style="stroke:#000000;stroke-width:1.5;fill:#ffffff" d="m 284.26287,394.06739 c -1.61122,-0.14382 -3.60787,-0.44417 -4.43698,-0.66742 -5.24668,-1.41279 -4.94162,-7.16589 0.8405,-15.85131 2.82326,-4.24087 5.64023,-7.81988 11.09759,-14.09967 l 4.36559,-5.02348 7.21851,-4.19595 c 7.2622,-4.22135 28.02773,-14.71611 35.06133,-17.71978 6.1433,-2.62346 14.20973,-4.74273 26.81161,-7.04413 3.21396,-0.58694 9.32391,-1.74932 13.57768,-2.58307 36.80899,-7.21462 79.70809,-12.1989 97.7264,-11.35444 5.81467,0.27251 7.01319,0.60964 8.27226,2.32691 1.30076,1.77412 0.41068,8.02203 -1.82806,12.83215 -2.79483,6.00489 -16.62181,24.02907 -29.90009,38.97627 -9.41298,10.59609 -14.78059,14.31236 -23.36203,16.17469 -4.68645,1.01705 -34.48509,3.8686 -57.26765,5.48017 -22.07236,1.56134 -39.43312,2.3299 -62.44639,2.76452 -19.2194,0.36298 -21.50616,0.3616 -25.73027,-0.0155 l 0,0 z" transform="translate(6.404,13.056)" class="img-path" />
<path id="path3392" style="stroke:#000000;stroke-width:1.5;fill:#ffffff" d="m 263.99001,409.8778 c -10.02366,-1.24612 -15.1294,-3.99622 -15.9432,-8.58747 -0.26761,-1.50979 0.53796,-4.70991 1.74295,-6.92387 2.34885,-4.31561 5.99882,-7.67313 18.71964,-17.21971 7.3034,-5.48097 21.54939,-15.20336 21.84459,-14.90816 0.0939,0.0939 -0.81419,1.30291 -2.01798,2.6867 -11.90879,13.68957 -16.11567,22.92616 -12.65528,27.78584 0.8825,1.23935 3.54892,2.34561 6.61293,2.74359 1.37089,0.17807 8.37046,0.32743 15.5546,0.33192 34.39839,0.0215 75.59294,-2.30308 118.63212,-6.69436 10.27547,-1.0484 13.25809,-1.21804 24.0617,-1.36853 14.89595,-0.2075 22.88418,-0.65669 28.83174,-1.62125 3.42224,-0.55501 6.03813,-0.7273 11.1715,-0.73575 12.52619,-0.0207 20.42141,1.57203 22.07826,4.45377 0.59326,1.03185 0.59164,1.09554 -0.0483,1.90913 -1.11095,1.41236 -5.63074,3.2684 -9.82721,4.03554 -6.16323,1.12668 -11.1351,1.43109 -28.70217,1.75734 -9.16923,0.17029 -19.53295,0.54752 -23.03049,0.83829 -15.00262,1.24726 -37.71538,3.67091 -48.46714,5.17189 -22.12681,3.08895 -43.30429,4.75233 -76.82557,6.03424 -12.80132,0.48954 -48.56662,0.70445 -51.73266,0.31085 z" transform="translate(6.404,13.056)" class="img-path" />
<path id="path3394" style="stroke:#000000;stroke-width:1.5;fill:#ffffff" d="m 366.7559,499.26403 c -3.23696,-0.31067 -4.69278,-1.03245 -5.37481,-2.66478 -0.58488,-1.39982 -0.61233,-1.25081 1.75654,-9.53695 0.70262,-2.45773 1.66108,-5.86075 2.12991,-7.56225 1.02815,-3.73144 2.33802,-6.74551 3.3396,-7.68459 0.71824,-0.67342 1.33539,-0.69949 22.23334,-0.93924 19.98981,-0.22932 21.62208,-0.20424 23.31567,0.35828 2.50863,0.83324 3.25045,2.0233 3.0096,4.82816 -0.35594,4.1453 -3.12779,12.10752 -6.11648,17.56976 l -1.71409,3.13274 -2.53398,0.55681 c -3.42113,0.75173 -9.59302,1.51562 -15.62791,1.93424 -5.56446,0.386 -20.4274,0.39075 -24.41739,0.008 z" transform="translate(6.404,13.056)" class="img-path" />
<path id="path3396" style="stroke:#000000;stroke-width:1.5;fill:#ffffff" d="m 305.75425,517.59689 c -4.76995,-0.11952 -17.50145,-0.83845 -17.66559,-0.99755 -0.0742,-0.0719 0.0275,-0.32787 0.22605,-0.56876 0.83531,-1.01354 1.11221,-4.94512 1.11867,-15.88341 0.009,-14.98225 0.63466,-19.81972 3.05836,-23.6407 1.2071,-1.903 3.18819,-3.4274 5.65239,-4.34937 3.80118,-1.4222 5.93758,-1.50443 27.49304,-1.0581 11.18397,0.23158 25.01363,0.33107 30.73259,0.22111 5.71895,-0.10997 10.39809,-0.0891 10.39809,0.0464 0,0.13552 -0.23682,0.58451 -0.52627,0.99775 -0.83903,1.19789 -2.12204,4.88295 -3.23519,9.29213 -0.56669,2.24466 -1.57635,5.82267 -2.2437,7.95114 -2.09432,6.67976 -1.50467,9.12852 2.55685,10.61836 4.76478,1.74781 28.63427,1.26771 41.04156,-0.82549 1.67613,-0.28277 3.12289,-0.43876 3.21501,-0.34664 0.3288,0.3288 -4.85306,7.45944 -6.25654,8.6095 -3.07536,2.52002 -7.23853,4.5149 -11.86498,5.68538 -1.41792,0.35873 -5.59434,0.89426 -9.28094,1.19008 -32.04139,2.57102 -55.4573,3.53325 -74.4194,3.05812 z" transform="translate(6.404,13.056)" class="img-path" />
<path id="path3398" style="stroke:#000000;stroke-width:1.5;fill:#ffffff" d="m 152.74023,453.51786 c -28.45566,-6.38206 -51.87611,-12.52488 -77.16931,-20.24033 -8.334827,-2.54247 -8.648514,-2.65769 -10.057527,-3.69443 -2.30272,-1.69432 -2.649085,-3.09311 -3.684007,-14.87778 -0.598241,-6.81218 -2.509168,-33.85051 -2.821773,-39.92619 -0.204637,-3.97726 -0.199793,-4.01182 0.686669,-4.89828 1.390484,-1.39048 3.407313,-1.20818 13.007751,1.17577 13.669935,3.39448 26.595065,6.03743 54.601547,11.16502 19.14896,3.5059 26.5588,5.01701 27.86242,5.68207 1.57843,0.80525 2.6229,2.08195 3.05159,3.73007 0.17799,0.68428 0.80473,13.56702 1.39277,28.62832 1.39222,35.65884 1.33772,32.38126 0.55291,33.24908 -0.83926,0.92804 -3.30508,0.93026 -7.42304,0.007 l 0,10e-6 z" transform="translate(6.404,13.056)" class="img-path" />
<path id="path3400" style="stroke:#000000;stroke-width:1.5;fill:#ffffff" d="m 162.29298,450.60374 c -0.0204,-0.95093 -0.54017,-14.4516 -1.15508,-30.00148 -1.18825,-30.04867 -1.13526,-29.25706 -2.08404,-31.1294 -0.82581,-1.62965 -2.70222,-3.03281 -4.8876,-3.65492 -1.3236,-0.37679 -7.83107,-1.62834 -22.51488,-4.3302 -35.359498,-6.50624 -45.072227,-8.48696 -59.466777,-12.12705 -3.73386,-0.94422 -7.291555,-1.76969 -7.905988,-1.83437 l -1.11715,-0.1176 0.687477,-0.42968 c 0.631114,-0.39444 0.842477,-0.42818 2.57804,-0.41155 1.785301,0.0171 2.211128,0.10052 7.648183,1.49826 15.184498,3.90357 24.163018,5.73818 62.818225,12.83583 12.8909,2.36695 19.08713,3.5673 20.10871,3.8955 2.2733,0.73034 3.86892,1.98971 4.59198,3.6243 0.22209,0.50207 0.40882,1.45786 0.50956,2.60824 0.15949,1.82114 2.20772,53.60815 2.26065,57.15767 0.034,2.27962 -0.14283,2.79022 -1.23804,3.57495 l -0.7962,0.57048 -0.0371,-1.72898 z" transform="translate(6.404,13.056)" class="img-path" />
<path id="path3402" style="stroke:#000000;stroke-width:1.5;fill:#ffffff" d="m 244.89136,459.56935 c -9.56712,-0.55022 -21.54912,-2.14804 -41.8063,-5.57493 -12.29748,-2.08035 -36.73281,-6.84713 -37.12863,-7.24295 -0.16395,-0.16395 -1.04109,-20.84541 -0.8912,-21.01278 0.0446,-0.0498 3.77742,0.63291 8.29509,1.51721 18.24891,3.57209 35.73152,6.80332 55.36756,10.23332 17.12946,2.99215 17.22468,3.0129 19.32326,4.21013 2.21529,1.26381 5.25275,4.67772 6.21858,6.98929 0.93748,2.2437 1.73367,8.08346 1.39046,10.19845 l -0.13779,0.84906 -4.6471,-0.045 c -2.5559,-0.0247 -5.24867,-0.0796 -5.98393,-0.12184 z" transform="translate(6.404,13.056)" class="img-path" />
<path id="path3404" style="stroke:#000000;stroke-width:1.5;fill:#ffffff" d="m 57.370658,417.53328 c -1.737878,-0.58341 -3.761352,-1.2973 -4.496608,-1.58643 -4.846051,-1.90566 -12.283513,-5.7603 -12.489727,-6.4731 -0.205439,-0.71011 -0.611903,-4.65957 -0.781552,-7.59405 -0.189149,-3.27177 0.211249,-5.2158 1.241109,-6.02589 l 0.604636,-0.47561 3.099873,0.96153 c 1.704931,0.52884 5.663786,1.72275 8.797457,2.65313 3.133671,0.93038 5.728229,1.72225 5.765684,1.7597 0.03745,0.0375 0.238435,2.35905 0.446624,5.1591 0.208189,2.80004 0.531097,6.78558 0.717574,8.85675 0.186477,2.07118 0.320073,3.77924 0.296879,3.79569 -0.02319,0.0165 -1.464071,-0.44741 -3.201949,-1.03082 z" transform="translate(6.404,13.056)" class="img-path" />
<path id="path3406" style="stroke:#000000;stroke-width:1.5;fill:#ffffff" d="m 229.57859,477.31323 c -7.92079,-0.58926 -19.47933,-2.28094 -36.33746,-5.31828 -42.85648,-7.72149 -91.4276,-19.97275 -127.484906,-32.15594 -7.841911,-2.64966 -11.874477,-4.3816 -16.603857,-7.13116 -1.573451,-0.91477 -1.698327,-1.05515 -2.514525,-2.82679 -2.252227,-4.88868 -3.598843,-8.62933 -4.732537,-13.14612 -0.651486,-2.5956 -1.14652,-4.75727 -1.100075,-4.80372 0.04644,-0.0464 1.090352,0.4705 2.319793,1.14875 3.549422,1.95815 7.30431,3.58107 12.665746,5.47435 l 4.982727,1.75953 0.314224,2.83717 c 0.172823,1.56044 0.534178,3.42504 0.80301,4.14356 0.60362,1.61332 2.219008,3.44916 3.780824,4.2968 2.038191,1.10617 23.005278,7.37044 40.918726,12.22514 21.83808,5.91832 47.90918,12.03807 51.22986,12.02534 1.66925,-0.006 2.79748,-0.47956 5.28537,-2.21661 2.03095,-1.41801 2.79139,-2.58243 2.79139,-4.27433 l 0,-0.99547 1.51912,0.35481 c 5.55397,1.29718 26.73856,5.31773 37.49199,7.11548 23.36275,3.90576 32.98237,5.06216 44.07256,5.29807 l 6.64134,0.14129 -0.13741,1.11924 c -0.0756,0.61558 -0.36274,3.03334 -0.63813,5.37279 -0.2754,2.33945 -0.60243,4.50032 -0.72674,4.80194 -0.31815,0.77197 -4.29283,3.31687 -6.14083,3.93185 -0.84986,0.28281 -2.46644,0.62012 -3.59238,0.74956 -1.87173,0.21518 -12.21046,0.26598 -14.80783,0.0727 z" transform="translate(6.404,13.056)" class="img-path" />
<path id="path3408" style="stroke:#000000;stroke-width:1.5;fill:#ffffff" d="m 220.58537,492.65049 c -0.46789,-0.0521 -2.21792,-0.21411 -3.88896,-0.36012 -6.68088,-0.58377 -28.38825,-4.57771 -46.66749,-8.58636 -9.79931,-2.14899 -26.09938,-6.07917 -34.51451,-8.32193 -25.39822,-6.76901 -50.535236,-14.54502 -59.774387,-18.49089 -11.850128,-5.06098 -19.394022,-10.99542 -25.096504,-19.74228 -0.908907,-1.39415 -1.622176,-2.5652 -1.585041,-2.60233 0.03713,-0.0371 1.156927,0.49444 2.488429,1.18127 5.103905,2.63276 10.085387,4.49028 23.223023,8.65952 41.21194,13.07865 89.33381,24.52954 132.32562,31.4877 15.67752,2.53739 18.40862,2.82957 27.95189,2.99038 11.22947,0.18922 13.22003,-0.18697 18.16816,-3.43351 l 0.66786,-0.43819 -0.1197,0.696 c -0.68906,4.00669 -1.20941,6.76877 -1.74659,9.27097 l -0.64073,2.9846 -1.67849,1.11585 c -0.92317,0.61373 -2.54227,1.48016 -3.598,1.92541 -3.53776,1.49204 -4.44225,1.59291 -15.063,1.67991 -5.28048,0.0433 -9.98369,0.0361 -10.45158,-0.016 l 0,-1e-5 z" transform="translate(6.404,13.056)" class="img-path" />
<path id="path3410" style="stroke:#000000;stroke-width:1.5;fill:#ffffff" d="m 216.93947,511.73397 c -7.43359,-0.59935 -18.56228,-2.34174 -35.7298,-5.59412 -38.16337,-7.23004 -85.520446,-19.78168 -117.762515,-31.21209 -9.76215,-3.46086 -13.023168,-4.93577 -17.864902,-8.08 -10.663533,-6.92492 -18.136604,-16.1353 -24.505365,-30.2023 -3.113022,-6.87588 -5.338307,-16.22918 -6.476674,-27.2227 -0.543859,-5.2522 -1.099651,-13.11913 -1.150522,-16.28501 -0.09426,-5.86643 1.31155,-6.90429 6.775147,-5.00184 1.31354,0.45738 5.687628,1.98475 9.720195,3.39415 4.032567,1.40939 7.837831,2.68993 8.456144,2.84562 0.618313,0.15569 1.086861,0.35101 1.04122,0.43405 -1.213321,2.20733 -1.273792,2.50049 -1.259481,6.10593 0.06149,15.49034 6.857677,33.58022 16.509821,43.94535 5.800102,6.22855 14.582738,11.49472 25.876462,15.51582 33.99257,12.10298 84.83762,25.03515 125.43258,31.90313 7.41061,1.25374 11.08536,1.66637 17.62184,1.97869 6.12815,0.29282 16.76589,-0.0468 19.22383,-0.61381 2.10511,-0.48558 4.60652,-1.46367 6.26858,-2.45111 0.78622,-0.4671 1.47487,-0.80389 1.53033,-0.74843 0.23517,0.23517 -2.6923,8.48001 -3.51669,9.90427 -1.1538,1.9934 -5.20187,6.09486 -7.58563,7.68567 -2.22984,1.4881 -3.69917,2.23849 -6.07649,3.10329 -1.76923,0.6436 -1.99845,0.66546 -7.77792,0.74198 -3.27523,0.0434 -7.2128,-0.0226 -8.75016,-0.14654 z" transform="translate(6.404,13.056)" class="img-path" />
<path id="path3412" style="stroke:#000000;stroke-width:1.5;fill:#ffffff" d="m 126.08363,351.0945 c -7.70678,-1.60432 -9.75987,-2.24428 -10.2724,-3.20196 -0.53026,-0.99079 -0.16834,-3.98432 1.1324,-9.36646 0.94646,-3.91625 1.22416,-4.61284 2.24657,-5.63551 l 1.16662,-1.16691 2.66624,0.2056 c 2.91341,0.22467 9.43154,1.54119 13.3916,2.70482 3.12296,0.91766 4.00222,1.84282 3.69385,3.88668 -0.52004,3.44672 -3.59753,11.73783 -4.76337,12.83308 -0.43285,0.40664 -1.24361,0.81652 -1.80169,0.91084 -0.55808,0.0943 -3.915,-0.43225 -7.45982,-1.17018 z" transform="translate(6.404,13.056)" class="img-path" />
<path id="path3414" style="stroke:#000000;stroke-width:1.5;fill:#ffffff" d="m 213.13546,386.96202 c -0.85075,-0.0711 -3.48035,-0.29192 -5.84355,-0.49062 -10.05759,-0.84563 -27.72837,-3.50367 -44.51415,-6.6958 -22.8035,-4.33652 -72.994638,-15.1413 -85.419041,-18.38839 -14.601942,-3.81618 -30.179129,-8.727 -34.571752,-10.89898 -7.070759,-3.49622 -10.463741,-9.54624 -9.474816,-16.89452 0.720169,-5.35128 3.657446,-13.21202 8.517215,-22.79378 3.086822,-6.08613 9.566019,-17.28152 12.51282,-21.62088 l 1.358792,-2.00091 1.461994,0.51267 c 0.804096,0.28196 3.086158,1.24603 5.071249,2.14236 2.954193,1.33392 3.591539,1.75185 3.511646,2.30269 -0.396676,2.735 -0.438258,5.00629 -0.113613,6.20577 0.801166,2.9601 3.494857,5.51379 7.054933,6.68827 7.053001,2.3268 25.058464,6.35041 69.238113,15.47239 31.79992,6.56588 50.32216,9.82773 84.78784,14.93151 5.86074,0.86788 13.44017,2.03269 16.84319,2.58848 9.86166,1.61062 24.71484,3.46345 29.44341,3.67284 7.4435,0.32963 15.07371,-0.88336 22.09197,-3.51201 l 3.23529,-1.21176 3.89487,0.34476 c 2.14218,0.18961 4.28159,0.34884 4.75423,0.35385 0.60613,0.006 -0.2548,0.62596 -2.92178,2.10253 -13.56097,7.50805 -24.89212,14.91286 -38.27657,25.01342 -11.09663,8.37406 -15.94191,11.75633 -22.31516,15.57719 -9.10632,5.45939 -12.53653,6.46573 -22.59301,6.62826 -3.40301,0.055 -6.88337,0.0418 -7.73412,-0.0293 l 0,10e-6 z m -77.79899,-34.14991 c 1.30356,-0.79485 2.6,-3.37413 4.41627,-8.78621 0.86867,-2.58843 1.28479,-4.46719 1.31921,-5.95611 0.0745,-3.22127 -0.6337,-3.74499 -7.2119,-5.33353 -6.64539,-1.60477 -11.55237,-2.41387 -12.99645,-2.14296 -1.41253,0.26499 -2.7864,1.30352 -3.46794,2.62146 -0.798,1.54317 -2.56701,9.15714 -2.79767,12.04141 -0.36382,4.54946 -0.0103,4.76009 12.08722,7.20102 5.80578,1.17144 7.21719,1.22935 8.65126,0.35492 z" transform="translate(6.404,13.056)" class="img-path" />
<path id="path3416" style="stroke:#000000;stroke-width:1.5;fill:#ffffff" d="m 24.472773,328.66556 c -0.910262,-2.78899 -2.261948,-8.25241 -2.948815,-11.91892 -1.059255,-5.65431 -0.579168,-15.32435 1.214037,-24.4534 2.326561,-11.84432 3.63779,-15.31549 8.557525,-22.65403 3.400472,-5.07233 8.867743,-10.70226 18.404533,-18.9521 8.909836,-7.70748 8.753043,-7.60462 8.753043,-5.74254 0,2.41 -11.862022,36.04186 -14.713853,41.71753 -4.312227,8.58213 -12.171693,27.16837 -16.620667,39.30492 -0.933056,2.54533 -1.75069,4.68209 -1.816962,4.74836 -0.06627,0.0663 -0.439252,-0.85615 -0.828841,-2.04982 z" transform="translate(6.404,13.056)" class="img-path" />
<path id="path3420" style="stroke:#000000;stroke-width:1.5;fill:#ffffff" d="m 11.880893,351.36618 c -0.654935,-0.74513 -1.201369,-1.81127 -1.837501,-3.58514 -2.3816627,-6.64131 -3.272258,-14.23873 -3.0454547,-25.97992 0.1267633,-6.5623 0.1427267,-6.73067 0.8756997,-9.23627 4.101908,-14.02202 10.219862,-27.25234 19.556822,-42.29242 4.326186,-6.96867 10.606873,-16.25899 13.03307,-19.27837 6.320449,-7.86576 14.727329,-15.48159 24.349856,-22.05868 7.961123,-5.4415 12.330452,-7.98917 21.240882,-12.38513 17.477023,-8.62229 38.949063,-16.67743 62.101803,-23.29721 12.58518,-3.59833 40.57632,-10.85166 41.14537,-10.66197 0.13633,0.0454 -9.85859,5.42592 -22.21094,11.95661 -24.4425,12.92278 -21.55168,11.2295 -42.69549,25.00862 -13.72074,8.9416 -22.91867,15.86637 -30.684357,23.10108 -1.671036,1.55678 -4.897656,4.51001 -7.170266,6.56273 -9.600399,8.67153 -15.027559,14.76449 -27.555265,30.93574 l -3.978457,5.13555 -1.607647,-0.45975 c -0.884203,-0.25286 -2.645104,-0.68452 -3.913111,-0.95924 -1.268007,-0.27473 -2.336902,-0.53094 -2.375325,-0.56936 -0.03842,-0.0384 0.707548,-2.13836 1.657708,-4.66652 4.640185,-12.34651 10.511402,-29.49732 11.025466,-32.20724 0.571324,-3.01179 0.195221,-4.20527 -1.311714,-4.16242 -1.232348,0.035 -2.510189,0.91194 -7.203811,4.9435 -15.431508,13.25484 -20.788821,19.2434 -25.332591,28.31753 -1.716216,3.42736 -2.316815,5.25724 -3.556005,10.83428 -2.255621,10.15153 -2.913944,15.22817 -2.92509,22.55677 -0.0081,5.33037 0.03675,5.93109 0.671544,8.99322 0.972871,4.69295 2.275563,9.66359 3.351912,12.78978 l 0.930575,2.70281 -2.313562,6.77653 c -2.390558,7.00206 -3.001627,8.28466 -4.946738,10.38289 -1.321997,1.42607 -2.114377,1.86249 -3.381598,1.86249 -0.833161,0 -1.089877,-0.1436 -1.895785,-1.06049 z" transform="translate(6.404,13.056)" class="img-path" />
<path id="path3440" style="fill:none;fill-rule:evenodd;stroke:#000000;stroke-width:1px;stroke-linecap:butt;stroke-linejoin:miter;stroke-opacity:1" d="m 482.99755,355.48682 c 69.95081,-3.953 69.95081,-4.12487 69.95081,-4.12487"  />
<path id="path3442" style="stroke:#000000;stroke-width:1.5;fill:#ffffff" d="M 277.26552,538.35411 C 246.1411,536.7015 224.50965,533.29958 179.28339,522.94468 122.78138,510.00813 89.530722,500.69365 56.241606,488.47709 38.476834,481.9577 32.537201,478.82257 25.713491,472.36336 17.791913,464.86493 13.836957,456.65757 11.568738,443.01005 c -0.724394,-4.35857 -0.690176,-5.22092 0.265005,-6.67872 0.603241,-0.92065 1.096801,-2.91626 1.096801,-4.43467 0,-4.14924 -5.2174525,-28.31286 -7.1719565,-33.21553 -2.9607928,-7.42684 -3.4839396,-12.87121 -3.4839396,-36.2572 0,-18.42235 0.2024153,-22.8359 1.3557556,-29.56152 l 1.3557557,-7.90599 0.4778833,6.87477 c 0.8630253,12.41538 3.7233644,21.20751 7.1818195,22.07553 4.579301,1.14933 7.408584,-2.58979 12.031599,-15.90068 4.3811,-12.61434 12.129726,-32.04089 17.506103,-43.88947 l 4.011475,-8.84057 3.104946,0.42558 c 1.707721,0.23407 3.323188,0.65463 3.589928,0.93459 0.266741,0.27995 -1.676276,4.0667 -4.317814,8.41499 -10.57431,17.4066 -17.086179,33.04152 -17.072955,40.99196 0.01171,7.038 3.58701,12.64196 10.225371,16.02732 2.996434,1.52809 19.085441,6.66573 31.280335,9.98862 18.721998,5.10142 90.43518,20.06155 111.79499,23.32163 23.33966,3.56226 38.24173,4.25059 47.09219,2.17519 6.23299,-1.46161 15.87057,-7.13104 29.90525,-17.59216 19.62116,-14.62513 28.73594,-20.64095 44.23351,-29.1944 4.52714,-2.49863 4.88817,-2.58131 9.62468,-2.20404 2.70661,0.21559 5.96067,0.7643 7.23124,1.21936 l 2.31013,0.82739 -9.52864,4.94024 c -20.37472,10.56354 -38.54911,22.26263 -55.58961,35.78373 -8.93962,7.09331 -12.46621,11.54024 -13.70463,17.28113 -1.03597,4.80239 2.88201,9.39031 9.9235,11.62035 11.94027,3.78148 95.32958,0.8032 135.43301,-4.83705 24.48673,-3.44388 51.6326,-5.71365 78.02866,-6.5243 21.96751,-0.67464 27.76677,-1.46649 32.11175,-4.38463 1.48751,-0.99902 2.3386,-2.17984 2.48551,-3.44841 0.53869,-4.65182 -4.8021,-6.60326 -19.47276,-7.11504 -6.44702,-0.2249 -12.1159,-0.0563 -15.1245,0.44986 -2.64679,0.44528 -11.15432,0.98195 -18.90562,1.19261 l -14.09329,0.38301 4.25435,-2.78521 c 2.33988,-1.53186 6.05226,-4.58649 8.24972,-6.78807 4.62157,-4.63024 16.4106,-18.46589 23.16816,-27.19026 2.56262,-3.30848 4.97298,-6.01542 5.35634,-6.01542 3.13968,0 50.31444,-2.896 57.46291,-3.52757 5.01569,-0.44315 9.29507,-0.63009 9.50972,-0.41543 0.21466,0.21465 -1.15353,2.35476 -3.04043,4.75579 -5.40935,6.88327 -12.2036,17.99897 -16.94176,27.71751 -8.57114,17.58045 -22.23885,56.38631 -28.08759,79.74735 -3.74355,14.95251 -5.9433,27.74839 -9.01232,52.42435 -2.61144,20.9969 -3.18289,22.76247 -8.50932,26.29056 -4.05978,2.68908 -7.46883,3.07464 -19.0539,2.15496 -19.38292,-1.53871 -36.45265,-1.04322 -67.69815,1.96509 -43.49224,4.18742 -85.16463,5.6592 -115.15243,4.06693 z m 71.49763,-19.87832 c 35.44176,-2.06099 42.14985,-2.96254 49.15461,-6.60625 4.64523,-2.41633 6.34666,-4.14429 10.71055,-10.87757 6.9954,-10.79357 11.63823,-23.85373 9.98564,-28.08934 -1.51531,-3.88377 -0.17607,-3.80602 -61.98972,-3.59902 -54.81823,0.18358 -56.86693,0.23661 -59.83323,1.54874 -3.59576,1.59058 -6.43022,4.70136 -7.55559,8.29217 -0.45184,1.44173 -0.98802,9.66214 -1.2295,18.84996 -0.30552,11.62417 -0.67449,16.5395 -1.28758,17.15256 -0.47264,0.4726 -0.85935,1.40138 -0.85935,2.06394 0,0.99336 0.75366,1.24747 4.29674,1.44873 9.92026,0.56354 47.79804,0.44467 58.60743,-0.18392 z m -113.76421,-6.12364 c 7.20658,-2.73827 12.91453,-8.55267 15.65326,-15.94515 2.05065,-5.53515 4.69695,-18.69981 5.96107,-29.65471 1.27018,-11.00739 0.76917,-16.0778 -2.06682,-20.91706 -3.36226,-5.73727 -5.08037,-6.36141 -29.62589,-10.76228 -32.33321,-5.79718 -58.96695,-10.89468 -59.46,-11.38023 -0.23851,-0.23489 -0.72163,-8.24138 -1.0736,-17.79221 -0.58193,-15.7913 -0.76631,-17.53592 -2.03434,-19.24937 -0.76692,-1.03631 -2.16787,-2.26409 -3.11323,-2.72839 -0.94536,-0.4643 -10.9719,-2.56645 -22.28118,-4.67143 -31.20383,-5.80793 -44.066556,-8.40746 -58.277046,-11.77767 l -12.965522,-3.07494 -3.627466,1.77475 c -5.27581,2.58122 -5.376078,3.03499 -4.181637,18.9244 0.553316,7.36064 0.930804,13.45821 0.838865,13.55015 -0.279361,0.27936 -23.641304,-7.0719 -31.950585,-10.05383 -4.285191,-1.53782 -8.995059,-2.79603 -10.466373,-2.79603 -2.309375,0 -2.829322,0.2982 -3.803014,2.18112 -1.006312,1.94598 -1.043815,3.30375 -0.347895,12.59528 0.429003,5.7278 1.228268,13.18571 1.776144,16.57314 4.071332,25.1724 17.301982,44.83295 36.720939,54.5668 10.043587,5.03439 49.87539,17.29009 83.59565,25.72123 52.74077,13.18688 90.54651,18.78535 100.72867,14.91643 z" transform="translate(6.404,13.056)" class="img-path" />
<path id="path3444" style="stroke:#000000;stroke-width:1.5;fill:#ffffff" d="m 63.595201,288.66622 c -1.551036,-0.72852 -3.756595,-1.66606 -4.901242,-2.08342 -1.409287,-0.51385 -1.985232,-0.88233 -1.783988,-1.14137 0.163453,-0.21039 2.818599,-3.63086 5.900323,-7.60104 9.894941,-12.74764 15.941244,-19.49508 23.416154,-26.13152 2.337785,-2.07556 5.720001,-5.18177 7.516035,-6.90269 8.961087,-8.58635 17.545397,-14.89697 40.389287,-29.69157 10.73579,-6.95292 12.69663,-8.06251 36.60816,-20.71568 27.68614,-14.65057 26.95152,-14.31258 53.45135,-24.59195 25.97479,-10.07571 50.91646,-19.12436 75.96623,-27.55997 16.77416,-5.64877 45.29246,-14.79225 46.13665,-14.79225 0.8725,0 -1.6873,2.49882 -4.44507,4.33918 -5.44679,3.63484 -14.20468,7.18766 -44.86158,18.19906 -12.71312,4.56632 -35.40787,13.97873 -54.06248,22.42184 -19.26225,8.71813 -69.6647,34.54458 -82.45972,42.25274 -13.20706,7.95638 -42.02085,27.27171 -53.60556,35.93449 -5.40268,4.03999 -15.17535,12.13622 -20.507646,16.98968 -5.633893,5.12797 -11.706122,11.95918 -17.135558,19.27739 -1.295139,1.74568 -2.455257,3.1622 -2.578039,3.14782 -0.122783,-0.0144 -1.492271,-0.62222 -3.043306,-1.35074 z" transform="translate(6.404,13.056)" class="img-path" />
<path id="path3446" style="stroke:#000000;stroke-width:1.5;fill:#ffffff" d="m 258.73847,338.57189 c -5.74837,-0.75982 -13.07662,-1.82209 -16.28501,-2.3606 -3.20839,-0.53851 -12.50543,-1.98266 -20.66009,-3.2092 -34.16738,-5.13916 -47.74126,-7.59202 -87.74462,-15.85583 -32.59476,-6.73336 -48.099566,-10.17113 -57.083893,-12.6568 -6.391839,-1.76842 -8.889166,-3.50068 -9.771682,-6.77809 -0.831231,-3.08696 0.115752,-5.41232 4.630917,-11.37144 8.688901,-11.4676 19.415562,-21.756 35.112568,-33.67797 10.00971,-7.60242 41.83251,-28.97567 54.57786,-36.6563 12.09051,-7.28601 63.41505,-33.57527 81.81932,-41.90917 19.01152,-8.60889 42.51941,-18.33105 55.99563,-23.15812 24.25769,-8.68891 32.57055,-11.95794 39.71327,-15.61727 l 4.71263,-2.41435 4.37499,1.50216 c 5.20197,1.78611 -0.88742,0.90218 80.50697,11.68632 60.01015,7.95088 154.97416,19.91604 185.4547,23.36669 11.28075,1.27708 57.1459,5.62486 71.94572,6.82009 3.34208,0.26991 6.9135,0.64292 7.93649,0.82892 l 1.85994,0.33817 -3.70753,2.91672 c -7.51187,5.90952 -15.21536,9.85475 -29.90877,15.31726 -10.87926,4.04455 -18.46667,6.67396 -72.91796,25.26961 -134.38914,45.89523 -126.4578,43.07575 -171.60028,61.00146 -41.36848,16.42708 -53.62998,21.81865 -104.75881,46.06407 -9.89254,4.69106 -19.40834,8.98484 -21.14621,9.54172 -8.85032,2.836 -17.29958,3.09466 -33.05615,1.01195 z" transform="translate(6.404,13.056)" class="img-path" />
<path id="path3448" style="stroke:#000000;stroke-width:1.5;fill:#ffffff" d="m 303.71356,335.69764 -2.14112,-0.29158 10.64821,-5.06824 c 55.50307,-26.41785 69.35307,-32.41105 127.7072,-55.26173 20.06488,-7.85714 30.47269,-11.61508 61.07682,-22.05299 11.64532,-3.97178 31.45474,-10.75841 44.02093,-15.08142 12.5662,-4.323 37.50414,-12.85726 55.41766,-18.96503 42.34299,-14.4372 51.51217,-17.62202 62.95251,-21.86594 15.2425,-5.65437 23.89509,-10.25768 31.50555,-16.76143 l 3.39499,-2.9013 13.53987,-0.0722 c 12.57897,-0.0671 21.29045,-0.672 29.67929,-2.06093 2.48905,-0.41211 2.55493,-0.39107 4.26773,1.363 l 1.73965,1.78157 -15.69154,5.18625 c -8.63035,2.85245 -29.91055,9.33096 -47.28933,14.39669 -41.94394,12.22622 -75.75143,22.82092 -106.46023,33.36283 -6.68415,2.29458 -30.20019,10.26198 -52.25788,17.70534 -84.28637,28.44241 -118.17478,41.31921 -161.87788,61.50977 -3.87681,1.79106 -10.11129,4.56176 -13.85442,6.1571 -3.74312,1.59535 -14.07465,6.60351 -22.95896,11.12924 -17.58468,8.95776 -16.79076,8.69364 -23.41905,7.791 z" transform="translate(6.404,13.056)" class="img-path" />
<path id="path3450" style="stroke:#000000;stroke-width:1.5;fill:#ffffff" d="m 655.23525,460.09377 c 11.94594,-25.58733 15.02169,-75.19222 6.75932,-109.01236 -6.03178,-24.6897 -17.97276,-41.86652 -33.39745,-48.04144 -10.27779,-4.11448 -24.18831,-3.57739 -37.49917,1.44785 -13.5781,5.12613 -29.15848,16.24456 -40.31739,28.77116 l -3.84974,4.32159 -4.90041,0.30889 c -2.69523,0.16989 -16.05686,0.95848 -29.69252,1.75242 -13.63566,0.79393 -26.95835,1.58575 -29.60596,1.75961 l -4.81384,0.31608 2.76251,-3.92002 c 3.56123,-5.0534 4.92061,-8.09596 5.93298,-13.27919 0.89849,-4.60016 0.76128,-5.89532 -0.84028,-7.93137 -1.90119,-2.41698 -3.35841,-2.69374 -14.18327,-2.69374 -22.59483,0 -56.13339,4.26627 -101.19512,12.87252 -22.60511,4.31731 -27.61864,5.70327 -37.26226,10.301 l -5.66049,2.6987 -3.08967,-1.22818 c -1.69932,-0.6755 -4.18345,-1.37236 -5.52027,-1.54858 -1.33683,-0.17622 -2.75222,-0.42508 -3.14532,-0.55301 -1.35244,-0.44014 22.91251,-12.86065 35.9584,-18.40604 3.34207,-1.42061 10.67033,-4.70093 16.28501,-7.28961 30.08459,-13.87064 63.0229,-26.96676 104.75881,-41.65162 7.61993,-2.68109 34.85479,-11.98638 60.52192,-20.67842 87.1635,-29.51751 99.79526,-33.56197 156.2875,-50.0405 16.97774,-4.95233 37.24833,-11.14257 45.04577,-13.7561 l 14.17716,-4.75186 2.90681,6.12935 c 4.88253,10.29536 7.82036,21.03558 9.60015,35.09655 1.73245,13.68683 1.2814,48.68366 -1.0144,78.70833 -2.1291,27.8445 -6.9643,74.04736 -7.8337,74.85509 -0.22847,0.21226 -4.79047,2.29238 -10.13779,4.62248 -19.96163,8.69832 -26.06382,12.04153 -33.1376,18.15511 -10.07109,8.70403 -24.37282,31.94976 -23.27082,37.82391 0.66544,3.54707 5.25001,4.57668 11.93898,2.68128 1.73209,-0.49081 21.74334,-8.49803 44.46944,-17.79383 197.4165,-80.75046 207.56653,-84.82493 209.96825,-84.28655 1.13145,0.25362 -0.72699,5.03672 -2.73845,7.04821 -2.66778,2.66774 -82.72505,35.96351 -196.84755,81.86875 -54.44708,21.90108 -99.11263,39.82015 -99.25678,39.82015 -0.14415,0 0.68261,-2.02347 1.83724,-4.49661 z" transform="translate(6.404,13.056)" class="img-path" />
<path id="path3452" style="stroke:#000000;stroke-width:1.5;fill:#ffffff" d="m 689.64035,437.20004 c -1.64146,-0.61151 -2.18754,-1.39644 -2.18754,-3.14437 0,-2.30186 1.95244,-6.69294 6.28818,-14.14231 7.70799,-13.24331 15.0685,-21.39122 24.86731,-27.5275 3.01129,-1.88576 9.1468,-5.01195 13.32447,-6.78915 1.67104,-0.71086 6.72726,-2.92331 11.23604,-4.91654 4.50878,-1.99323 8.48918,-3.73485 8.84532,-3.87025 l 0.64753,-0.2462 -0.15525,1.52619 c -0.4556,4.47898 -0.46476,5.43142 -0.0654,6.80517 0.50407,1.73394 1.65516,3.25276 3.17943,4.19514 1.0351,0.63995 1.4091,0.73319 2.90833,0.72508 1.692,-0.009 2.00417,-0.12645 18.8562,-7.08483 9.42465,-3.89153 23.58896,-9.72344 31.47626,-12.95979 51.09998,-20.96758 82.73701,-34.67618 104.02963,-45.07696 5.17097,-2.52586 5.73348,-2.8646 7.49787,-4.51517 1.04912,-0.98145 2.43143,-2.56088 3.07179,-3.50986 1.28173,-1.89944 4.18739,-7.6012 5.85875,-11.49657 l 1.0719,-2.49826 4.8612,-1.91033 c 7.21684,-2.83606 12.98083,-4.80505 17.01419,-5.81209 2.08932,-0.52165 4.01049,-0.86888 4.01049,-0.72485 0,0.0488 -0.21686,1.62843 -0.48189,3.51024 -0.81282,5.77092 -1.43605,12.57698 -1.69972,18.56217 -0.54151,12.29158 -0.76834,16.67011 -0.88923,17.16519 -0.10155,0.41574 -0.36948,0.54441 -1.3835,0.66436 -1.85102,0.21896 -5.34406,1.37003 -12.43832,4.09883 -3.47576,1.33695 -7.74146,2.94967 -9.47934,3.58383 -1.73788,0.63416 -11.25367,4.46222 -21.14621,8.50681 -20.61504,8.42851 -111.03268,45.37113 -122.86677,50.20061 -4.3447,1.77307 -20.80593,8.49757 -36.58052,14.94333 -15.77458,6.44577 -33.43896,13.66229 -39.25417,16.03672 -6.12015,2.49895 -11.64795,4.60104 -13.12523,4.99123 -2.43939,0.6443 -6.42627,1.03257 -7.2918,0.71013 z" transform="translate(6.404,13.056)" class="img-path" />
<path id="path3454" style="stroke:#000000;stroke-width:1.5;fill:#ffffff" d="m 757.15541,388.14274 c -1.87785,-0.69142 -3.26139,-2.62215 -3.47617,-4.85099 -0.17614,-1.82783 0.55408,-7.25317 1.02285,-7.59955 0.42317,-0.31269 26.59287,-11.5345 39.60812,-16.98433 18.94146,-7.9313 32.16869,-13.37261 87.13697,-35.84573 12.49936,-5.1102 28.1082,-11.52125 34.68631,-14.24677 6.57811,-2.72552 12.01346,-4.95549 12.07856,-4.95549 0.36271,0 -4.14787,9.24331 -5.66374,11.60642 -0.74653,1.16377 -2.05533,2.72003 -3.14298,3.73722 -1.69062,1.5811 -2.33792,1.97424 -6.96801,4.23203 -22.17399,10.81279 -53.05687,24.16858 -108.16165,46.77623 -7.88729,3.2359 -21.06954,8.65679 -29.29389,12.04643 -8.22435,3.38965 -15.38854,6.22312 -15.92042,6.2966 -0.56752,0.0784 -1.35497,-0.009 -1.90595,-0.21207 z" transform="translate(6.404,13.056)" class="img-path" />
<path id="path3456" style="stroke:#000000;stroke-width:1.5;fill:#ffffff" d="m 754.69626,373.41114 c 0,-0.14582 0.61523,-5.83039 1.36718,-12.63239 4.93889,-44.6763 6.83701,-69.2382 7.95072,-102.88328 1.11635,-33.72471 -2.38654,-55.9908 -11.75177,-74.69993 l -2.00355,-4.00254 3.50773,-1.2117 c 1.92925,-0.66644 9.11313,-3.23507 15.96418,-5.70808 6.85105,-2.473 12.54106,-4.49637 12.64449,-4.49637 0.38715,0 -0.59791,1.4102 -3.96819,5.68078 -3.88088,4.91757 -4.34671,5.68345 -4.6641,7.66834 -0.29297,1.83209 0.77092,4.05934 2.78651,5.83353 0.82227,0.72379 2.5043,2.56602 3.73784,4.09384 3.55109,4.39827 6.70088,6.58245 10.57805,7.33524 5.68543,1.10389 12.89133,-2.40858 15.07664,-7.34899 1.385,-3.13111 5.75405,-17.70337 6.88416,-22.96097 l 0.41539,-1.93254 3.99407,-0.23193 c 14.98028,-0.86989 26.12453,-3.28176 39.12639,-8.46782 5.79107,-2.30989 7.27128,-3.11153 9.49054,-5.1398 3.70657,-3.38761 4.83809,-7.865 3.38735,-13.40372 -0.37139,-1.41793 -0.64372,-2.61264 -0.60518,-2.65492 0.0385,-0.0423 5.16577,-1.95166 11.39386,-4.24306 16.90042,-6.21789 38.31142,-14.08262 39.71354,-14.58764 1.22931,-0.44279 1.25069,-0.43376 5.17542,2.18484 9.13223,6.09307 16.07722,13.25602 21.10939,21.77186 3.30267,5.58906 5.01871,10.67732 6.23817,18.49697 0.51367,3.29383 0.61647,6.15975 0.61647,17.18693 0,13.29177 -0.15035,16.00376 -1.57217,28.35843 -1.09764,9.53779 -2.23518,16.28025 -5.68335,33.68639 -6.12757,30.93161 -10.07507,46.27372 -15.33063,59.58311 l -1.13182,2.86625 -9.96841,4.12393 c -5.48263,2.26817 -29.92245,12.292 -54.3107,22.27518 -56.93082,23.30427 -82.54523,33.95944 -102.40368,42.59823 -7.24826,3.15313 -7.76454,3.34341 -7.76454,2.86183 z M 923.10832,181.46191 c 4.19593,-1.46879 7.78722,-3.4633 12.17833,-6.76356 6.52132,-4.90126 7.21926,-5.78979 7.19184,-9.1558 -0.0116,-1.43073 -0.32503,-2.85456 -1.02311,-4.64861 -1.18942,-3.05673 -3.83296,-7.27554 -5.06458,-8.08253 -3.21095,-2.10389 -7.91434,-0.88197 -15.31809,3.97959 -5.97303,3.9221 -8.02889,6.19809 -9.14343,10.12241 -0.77533,2.72994 -0.46505,10.53287 0.50499,12.69975 1.56969,3.50636 4.49252,4.01259 10.67405,1.84875 z" transform="translate(6.404,13.056)" class="img-path" />
<path id="path3458" style="stroke:#000000;stroke-width:1.5;fill:#ffffff" d="m 789.51692,196.37515 c -2.49994,-0.89262 -4.33928,-2.25686 -6.77254,-5.02319 -1.15272,-1.3105 -3.11972,-3.47731 -4.3711,-4.81513 -1.25139,-1.33782 -2.45018,-2.77027 -2.66398,-3.18321 -0.99116,-1.91441 -0.261,-3.61911 3.58006,-8.35826 1.45568,-1.79604 3.02414,-3.82924 3.48547,-4.51824 l 0.83878,-1.25272 1.47456,0.82415 c 4.65915,2.60405 15.35188,4.42658 21.19912,3.61331 1.43176,-0.19914 2.85331,-0.45805 3.159,-0.57536 0.65569,-0.25161 0.3212,1.0606 -2.6909,10.55676 -2.75495,8.68543 -3.43975,9.70568 -8.06059,12.00898 -2.86427,1.42772 -6.41963,1.70777 -9.17788,0.72291 z" transform="translate(6.404,13.056)" class="img-path" />
<path id="path3460" style="stroke:#000000;stroke-width:1.5;fill:#ffffff" d="m 796.11676,171.7255 c -3.802,-0.60989 -8.45454,-2.00847 -10.37399,-3.11849 -1.3802,-0.79817 -1.42381,-0.87488 -1.10735,-1.94768 0.18119,-0.61423 0.94958,-3.90107 1.70753,-7.30408 2.1488,-9.64761 3.83514,-15.37164 6.5824,-22.34301 1.92324,-4.88033 6.70758,-14.0626 8.22602,-15.78765 1.55416,-1.76562 4.3871,-3.1119 8.10285,-3.85069 5.47634,-1.08883 33.16233,-0.18667 38.2147,1.24524 6.64202,1.88244 11.88472,6.00931 16.43233,12.93493 2.96862,4.52096 3.95915,7.14854 4.15138,11.01242 0.13961,2.80632 0.0651,3.34741 -0.68612,4.98421 -1.74405,3.79996 -4.35307,5.56405 -13.48347,9.11683 -11.6961,4.55114 -23.55734,7.01696 -36.38162,7.56332 -3.06072,0.1304 -5.18059,0.36593 -5.32795,0.59197 -0.1346,0.20648 -0.55874,1.613 -0.94253,3.12561 -0.66055,2.60342 -0.76939,2.78542 -2.03949,3.41015 -1.78634,0.87865 -8.67874,1.07208 -13.07469,0.36692 z" transform="translate(6.404,13.056)" class="img-path" />
<path id="path3462" style="stroke:#000000;stroke-width:1.5;fill:#ffffff" d="m 919.2199,177.1482 c -0.55543,-0.21688 -0.92922,-0.59148 -1.20632,-1.20893 -0.23794,-0.5302 -0.47663,-1.59691 -0.47602,-2.12737 l 3.6e-4,-0.3147 1.13827,-0.57536 c 0.62605,-0.31645 2.16305,-1.16123 3.41555,-1.87729 3.89577,-2.22724 5.55762,-3.0352 7.26147,-3.53039 0.56118,-0.1631 0.89271,-0.20006 1.80463,-0.2012 0.97434,-0.001 1.18135,0.0244 1.61937,0.20033 0.67991,0.2731 1.18654,0.78039 1.42754,1.42938 0.39051,1.0516 0.47257,0.89704 -1.17906,2.22056 -3.51165,2.81404 -6.10128,4.30894 -9.4301,5.44366 -2.0882,0.71182 -3.49372,0.8857 -4.37569,0.54131 z" transform="translate(6.404,13.056)" class="img-path" />
<path id="path3464" style="stroke:#000000;stroke-width:1.5;fill:#ffffff" d="m 917.40523,171.72159 c -0.0328,-0.14947 -0.0613,-1.00989 -0.0634,-1.91205 -0.004,-1.87099 0.13978,-2.78167 0.6234,-3.94337 0.7512,-1.80448 2.02238,-3.1826 4.67882,-5.07244 2.83885,-2.01962 5.27245,-3.4147 7.00989,-4.01848 0.74983,-0.26057 0.90395,-0.28408 1.89057,-0.2884 1.01682,-0.004 1.09875,0.008 1.53443,0.23767 0.25313,0.1333 0.6293,0.41632 0.83593,0.62893 0.62475,0.64282 1.96672,2.97832 2.66017,4.62963 1.02138,2.43222 1.15954,4.33591 0.40827,5.62548 -0.27189,0.4667 -1.22098,1.4214 -1.31229,1.32004 -0.0356,-0.0395 -0.12745,-0.26115 -0.20409,-0.49249 -0.65668,-1.98226 -3.01279,-2.9429 -5.81655,-2.37153 -1.77412,0.36154 -4.07291,1.40251 -7.68759,3.48119 -1.99571,1.14767 -4.35657,2.44758 -4.44522,2.44758 -0.029,0 -0.0796,-0.1223 -0.11238,-0.27176 z" transform="translate(6.404,13.056)" class="img-path" />
<path id="path3466" style="stroke:#000000;stroke-width:1.5;fill:#ffffff" d="m 916.46302,181.27166 c -2.01497,-0.31475 -2.98905,-1.72968 -3.22237,-4.68081 -0.24753,-3.13066 -0.36258,-5.50869 -0.31598,-6.53103 0.14323,-3.14238 1.12347,-5.43985 3.27438,-7.67449 1.17128,-1.21687 2.28231,-2.08981 4.77553,-3.75217 2.69536,-1.79712 4.2179,-2.70369 6.14433,-3.65855 2.34961,-1.16461 4.1709,-1.71502 5.67502,-1.71502 1.89692,0 3.09206,0.69164 4.26892,2.47047 2.75771,4.16829 4.11905,7.64586 3.99486,10.20489 -0.0708,1.45966 -0.53356,2.51832 -1.52115,3.48027 -0.80671,0.78576 -5.91954,4.74005 -7.90608,6.11461 -3.48322,2.41016 -8.07221,4.51315 -11.85898,5.4346 -1.46004,0.35528 -2.42642,0.44502 -3.30848,0.30723 z m 5.35741,-2.74521 c 1.53568,-0.3142 3.84639,-1.16169 5.76502,-2.11441 1.47476,-0.73231 3.0042,-1.67654 4.43315,-2.7369 1.41125,-1.04722 4.89283,-3.89288 5.38586,-4.4021 2.2406,-2.31424 1.82333,-5.92538 -1.2879,-11.14571 -1.4252,-2.39135 -2.63128,-3.15214 -4.81829,-3.03939 -2.00179,0.10321 -4.25082,1.1006 -7.78861,3.45407 -2.97669,1.98019 -4.38105,3.14069 -5.41072,4.47117 -0.98679,1.27506 -1.49011,2.29547 -1.87184,3.79488 -0.17579,0.69047 -0.19333,0.95923 -0.19267,2.95099 8.7e-4,2.59999 0.14831,4.78458 0.38626,5.72293 0.66581,2.62563 2.47136,3.64363 5.39974,3.04447 z" transform="translate(6.404,13.056)" class="img-path" />
<path id="path3468" style="stroke:#000000;stroke-width:1.5;fill:#ffffff" d="m 995.12329,353.42201 c -2.47493,-0.70917 -4.32012,-1.84606 -6.49459,-4.00155 -5.99645,-5.94416 -9.63765,-15.96351 -11.31295,-31.12949 -0.57859,-5.23779 -0.57838,-18.52343 3.9e-4,-24.7921 1.56561,-16.95713 5.33766,-31.11181 11.82098,-44.35843 6.15525,-12.57633 13.17748,-20.92622 19.66278,-23.38023 1.3808,-0.52249 1.9094,-0.59526 3.7149,-0.51136 2.9263,0.13598 5.135,1.22376 7.7419,3.81274 2.3088,2.29298 3.537,4.1026 5.3545,7.88934 4.8825,10.17282 7.0955,24.28111 6.5253,41.59975 -0.3519,10.69003 -1.7189,20.23762 -4.3625,30.46845 -5.6279,21.78066 -16.5418,40.00099 -26.3554,43.99916 -1.78203,0.72603 -4.5508,0.90359 -6.29531,0.40372 z" transform="translate(6.404,13.056)" class="img-path" />
<path id="path3470" style="stroke:#000000;stroke-width:1.5;fill:#ffffff" d="m 993.43083,356.56887 c -6.53872,-1.65812 -12.29075,-8.99652 -15.93058,-20.32411 -2.04727,-6.37136 -3.31275,-13.50613 -3.93889,-22.20733 -0.31054,-4.31551 -0.15842,-16.10287 0.26193,-20.2955 1.83835,-18.3363 5.85396,-33.25377 12.66048,-47.03209 3.97189,-8.04021 7.17465,-12.71882 11.98984,-17.51484 4.36699,-4.34964 8.07659,-6.55456 12.06959,-7.1741 4.2528,-0.65984 8.1317,0.7197 11.7873,4.19223 8.1346,7.72709 12.9804,24.86313 12.9905,45.93789 0.017,35.88111 -13.9251,72.85336 -31.136,82.56657 -3.3526,1.89209 -7.66547,2.63453 -10.75417,1.85128 z m 8.71957,-2.22182 c 2.5118,-1.05713 4.5563,-2.53552 7.3123,-5.28746 7.6729,-7.66156 14.7107,-21.39807 19.1701,-37.41663 8.2234,-29.53844 6.4132,-64.00715 -4.201,-79.99745 -1.3382,-2.01594 -4.0601,-4.82119 -5.7324,-5.90784 -1.9986,-1.29873 -3.6689,-1.81854 -6.2331,-1.93978 -2.0199,-0.0955 -2.5437,-0.0314 -4.0652,0.49774 -10.67907,3.71382 -22.96684,23.64207 -28.88261,46.84173 -2.6469,10.38024 -3.89498,20.0946 -4.1533,32.32696 -0.59565,28.20629 6.82516,47.87504 19.39372,51.40278 2.10194,0.58997 5.28629,0.36592 7.39149,-0.52005 z" transform="translate(6.404,13.056)" class="img-path" />
<path id="path3472" style="stroke:#000000;stroke-width:1.5;fill:#ffffff" d="m 987.0451,377.62104 c -13.76341,-3.7537 -23.51509,-24.98125 -25.63382,-55.79991 -0.37092,-5.39541 -0.14819,-21.19969 0.37346,-26.49932 1.10524,-11.22846 2.46667,-19.29152 4.86327,-28.80259 6.17946,-24.52369 17.29014,-46.12295 29.79265,-57.91716 7.48204,-7.0582 14.39864,-9.71194 21.71604,-8.33195 6.9069,1.30259 10.3921,3.98142 14.3426,11.02442 5.3118,9.46963 8.7315,22.06508 10.2755,37.84591 0.5311,5.42893 0.6084,22.21117 0.1292,28.07341 -3.4542,42.25963 -15.1565,76.78057 -31.9321,94.19765 -2.9234,3.03517 -5.4598,5.15206 -6.5579,5.4732 -1.5594,0.4561 -6.9249,0.97642 -11.26146,1.0921 -3.81427,0.10175 -4.59713,0.0561 -6.10744,-0.35576 z m 13.1781,-19.71639 c 8.2007,-2.09524 16.1543,-10.36569 22.9206,-23.83376 7.373,-14.67566 12.0496,-33.0941 13.4146,-52.83316 0.3248,-4.69622 0.1727,-17.57836 -0.2526,-21.40266 -1.1912,-10.70954 -3.2768,-18.8273 -6.557,-25.52129 -3.5749,-7.29547 -7.8723,-11.68965 -13.0194,-13.31276 -2.4219,-0.7637 -6.108,-0.7522 -8.6287,0.0269 -6.7915,2.09918 -13.40336,8.39864 -19.58958,18.6639 -8.87449,14.72612 -14.85962,35.47852 -16.37263,56.76928 -0.32152,4.52449 -0.32754,14.48516 -0.0112,18.574 0.91442,11.81962 3.1661,21.38346 6.82927,29.00674 5.37129,11.17799 12.80605,16.02439 21.26665,13.86278 z" transform="translate(6.404,13.056)" class="img-path" />
<path id="path3480" style="stroke:#000000;stroke-width:1.5;fill:#ffffff" d="m 978.03921,384.01018 c -0.60157,-0.049 -2.57036,-0.20716 -4.37508,-0.35143 -11.1268,-0.88948 -29.15455,-4.80184 -36.96241,-8.02155 -4.08015,-1.68252 -8.68851,-5.10049 -11.9997,-8.90004 -1.67709,-1.92443 -5.72636,-7.65732 -5.72636,-8.10727 0,-0.0971 6.75403,-3.00739 15.00895,-6.4673 l 15.00895,-6.29076 1.49735,-1.49401 c 1.01589,-1.01363 1.77499,-2.07125 2.3608,-3.2892 1.52447,-3.16949 1.93383,-5.93291 2.33432,-15.75768 0.60357,-14.80664 1.07028,-20.47337 2.46229,-29.89636 1.7851,-12.084 4.78274,-23.97378 9.92735,-39.37571 9.09238,-27.22069 19.91489,-48.84339 31.20462,-62.34486 l 1.62591,-1.94448 1.3949,0.0805 c 2.4495,0.14141 9.6728,1.45126 11.6434,2.11141 2.6582,0.89045 6.2288,2.80874 8.4457,4.5374 1.0317,0.80446 1.8186,1.5199 1.7486,1.58987 -0.07,0.07 -0.5632,-0.0472 -1.0961,-0.26047 -3.3687,-1.34788 -9.261,-1.74848 -12.9057,-0.87743 -2.6247,0.62728 -6.7834,2.63472 -9.6009,4.63439 -2.69802,1.91494 -8.38818,7.51583 -11.00282,10.83026 -14.0828,17.8519 -24.47797,45.27962 -27.98888,73.84882 -1.01335,8.24594 -1.32247,13.54193 -1.33357,22.84763 -0.0131,10.99086 0.44653,17.15643 1.93537,25.96054 2.67891,15.84138 7.80593,28.20533 14.72984,35.52141 3.33799,3.52705 6.55096,5.51761 10.6528,6.59985 1.63445,0.43124 6.57921,0.46394 11.00333,0.0728 1.71712,-0.15183 3.18273,-0.21535 3.25693,-0.14117 0.2325,0.23253 -4.7306,2.59455 -7.03197,3.3466 -3.3758,1.10316 -5.90455,1.46824 -10.74907,1.55185 -2.40629,0.0415 -4.86727,0.0354 -5.46885,-0.0136 z" transform="translate(6.404,13.056)" class="img-path" />
<path id="path3482" style="stroke:#000000;stroke-width:1.5;fill:#ffffff" d="m 1044.8093,266.89452 c 0.4927,-34.90301 -8.2247,-60.6458 -24.0492,-71.01804 -4.3133,-2.82716 -7.9038,-3.99954 -15.6916,-5.12372 -1.6992,-0.24526 -3.1217,-0.47827 -3.1612,-0.51778 -0.1184,-0.11838 3.2025,-3.27711 5.0615,-4.81443 2.5206,-2.08442 5.2582,-3.87527 7.85,-5.13539 2.5539,-1.24162 4.1,-1.78735 6.6904,-2.36145 2.4695,-0.54728 6.4511,-0.54779 8.4759,-0.001 8.6559,2.33714 13.9289,11.72832 16.4107,29.22714 0.5142,3.62551 0.962,8.89776 1.2207,14.37124 0.2275,4.81558 0.1219,21.14131 -0.173,26.72568 -0.5979,11.32281 -0.6985,12.43989 -1.6632,18.47595 -0.5137,3.21395 -0.962,5.95957 -0.9962,6.10136 -0.034,0.14179 -0.023,-2.52648 0.025,-5.92949 z" transform="translate(6.404,13.056)" class="img-path" />
<path id="path3484" style="stroke:#000000;stroke-width:1.5;fill:#ffffff" d="m 1048.7131,251.59815 c 0.053,-1.13434 0.1821,-3.91862 0.2877,-6.18729 0.2655,-5.70524 0.2646,-20.97477 -0,-25.52259 -1.1866,-20.27493 -4.6346,-32.43866 -11.0152,-38.8584 -1.6586,-1.66877 -3.0615,-2.67193 -4.9695,-3.5535 l -1.3094,-0.60494 0.6009,-0.2613 c 0.3305,-0.14372 2.3024,-1.0933 4.382,-2.11019 7.1582,-3.5002 12.9532,-7.2359 17.6171,-11.35668 1.8279,-1.61509 2.6369,-2.02534 4.004,-2.03052 1.8279,-0.007 2.994,0.93186 3.4034,2.73984 0.1724,0.76141 -0.1064,11.16722 -0.449,16.76355 -1.1628,18.98833 -4.1425,39.84162 -8.2638,57.83402 -1.2808,5.59133 -3.3572,12.97909 -4.1059,14.60889 -0.267,0.58125 -0.2731,0.53196 -0.1807,-1.46089 z" transform="translate(6.404,13.056)" class="img-path" />
<path id="path3486" style="stroke:#000000;stroke-width:1.5;fill:#ffffff" d="m 1030.9811,132.87995 c -0.662,-0.70194 -1.971,-3.14997 -3.2624,-6.10136 -4.6195,-10.55701 -9.0336,-18.49391 -14.1081,-25.36748 -1.5653,-2.120209 -3.0467,-4.437572 -3.2921,-5.149691 -0.8867,-2.573901 -0.22,-3.165097 5.8751,-5.209641 2.8094,-0.942395 3.9711,-1.154582 6.3591,-1.161492 2.513,-0.0073 3.1955,0.125936 4.8777,0.952031 4.3742,2.148014 10.7688,11.319593 13.3506,19.148223 1.7245,5.229 2.7332,10.15552 2.7367,13.36592 0.01,5.56306 -1.3085,7.54644 -6.276,9.46933 -4.0209,1.55646 -4.8371,1.56352 -6.2606,0.0542 z" transform="translate(6.404,13.056)" class="img-path" />
<path id="path3488" style="stroke:#000000;stroke-width:1.5;fill:#ffffff" d="m 931.62106,299.82017 c 3.74145,-9.67587 7.39268,-22.21415 10.63551,-36.52222 1.92715,-8.50301 7.3528,-35.6916 8.46473,-42.41781 4.64375,-28.09066 5.30738,-54.3674 1.72666,-68.36789 -3.2174,-12.5799 -13.67281,-25.93437 -27.10909,-34.62584 l -2.51388,-1.62614 0.96705,-0.3449 c 11.43556,-4.07848 29.00084,-10.73853 31.14724,-11.80979 3.5141,-1.75387 6.14923,-3.7046 7.47313,-5.532205 l 1.01907,-1.406775 2.54238,0.07423 c 4.54783,0.132792 6.64576,-0.405526 28.04857,-7.197109 22.47897,-7.133065 26.33667,-8.016904 31.80097,-7.285799 5.4585,0.730349 8.8453,2.479064 13.0644,6.745569 6.8791,6.956566 11.887,18.362125 15.1078,34.408455 1.809,9.0126 2.9118,17.62563 4.4121,34.45979 0.055,0.61444 -0.063,1.11802 -0.2611,1.11907 -1.3353,0.007 -3.1385,0.96736 -5.1965,2.76721 -4.7191,4.12715 -13.4297,9.48891 -20.3059,12.49911 -2.623,1.14827 -3.0656,1.23302 -7.0467,1.34941 -3.6198,0.10584 -4.732,0.28289 -7.522,1.19747 -14.4942,4.75119 -28.8362,22.45221 -41.68527,51.44821 -8.21741,18.54392 -15.75634,41.87449 -18.99365,58.7793 -0.50687,2.64679 -0.94675,4.8426 -0.97751,4.87959 -0.0308,0.037 -1.24988,0.31386 -2.70914,0.61528 -3.49534,0.72198 -10.07844,2.84161 -16.64661,5.35987 -2.91989,1.1195 -5.39123,2.03546 -5.49188,2.03546 -0.10064,0 -0.0783,-0.2707 0.0496,-0.60155 z M 1036.1561,134.96112 c 3.8088,-1.29573 5.8951,-2.50287 7.0276,-4.0662 2.7056,-3.735 2.7007,-9.13246 -0.017,-18.59996 -1.9276,-6.71579 -4.3883,-11.50832 -8.9177,-17.369044 -3.9838,-5.154621 -6.8227,-6.759573 -11.8683,-6.709532 -3.7078,0.03677 -11.0866,2.399511 -12.8043,4.100011 -2.115,2.09376 -1.4408,4.450732 2.9895,10.451765 1.5013,2.03346 3.6104,5.14776 4.687,6.92067 2.2324,3.6764 6.9045,12.9171 9.1028,18.00425 1.9218,4.44703 3.1807,6.48488 4.5468,7.35987 1.4247,0.91253 2.3486,0.89639 5.2534,-0.0918 z" transform="translate(6.404,13.056)" class="img-path" />
<path id="path3490" style="stroke:#000000;stroke-width:1.5;fill:#ffffff" d="m 964.11003,95.605752 c -0.0497,-0.04972 -0.0526,-0.813032 -0.006,-1.696253 0.10216,-1.953173 -0.25202,-3.748391 -1.04744,-5.308982 l -0.54581,-1.070883 2.06243,-0.0178 c 2.7495,-0.02373 3.74481,-0.191665 11.08557,-1.87046 12.60137,-2.88187 19.86292,-4.074988 27.15532,-4.461798 1.6906,-0.08967 2.0531,-0.04345 5.7356,0.731174 l 3.9309,0.826897 -2.556,0.743023 c -3.582,1.041303 -7.349,2.216716 -16.56328,5.168202 -14.41627,4.617786 -20.32501,6.37021 -22.87094,6.783099 -1.51782,0.246152 -6.18057,0.373159 -6.37995,0.17378 z" transform="translate(6.404,13.056)" class="img-path" />
<path id="path3492" style="stroke:#000000;stroke-width:1.5;fill:#ffffff" d="m 920.44209,114.74548 c -0.50793,-0.67721 -1.42271,-2.31721 -1.56852,-2.81202 -0.0894,-0.30357 0.0677,-0.41093 1.22874,-0.83952 2.75529,-1.01707 18.50883,-7.07378 22.47123,-8.63944 2.26868,-0.89641 4.78226,-1.98377 5.58575,-2.41634 2.34308,-1.26144 4.94991,-3.116462 6.46252,-4.598741 3.04866,-2.987523 4.07245,-5.798322 3.16911,-8.700751 -0.18524,-0.595165 -0.30525,-1.113666 -0.26669,-1.152224 0.17188,-0.171875 2.31118,1.22735 3.0224,1.97682 1.02215,1.077116 1.25596,1.474445 1.68496,2.863395 1.59755,5.172272 -0.65346,8.633727 -8.05687,12.389331 -1.56504,0.79391 -6.30169,2.61821 -17.44474,6.71875 -8.413,3.09591 -15.42269,5.66385 -15.57709,5.70652 -0.1746,0.0483 -0.44332,-0.13917 -0.7108,-0.49578 z" transform="translate(6.404,13.056)" class="img-path" />
<path id="path3494" style="stroke:#000000;stroke-width:1.5;fill:#ffffff" d="m 863.68049,128.48161 c -0.72947,-0.96968 -1.56781,-2.05236 -1.86299,-2.40597 l -0.53668,-0.64291 0.40209,-0.15132 c 7.30687,-2.74976 35.23703,-12.76099 39.15862,-14.03593 6.10872,-1.98601 7.67377,-2.40638 9.88249,-2.65445 2.32757,-0.26142 6.67492,-0.21777 8.44205,0.0848 2.15057,0.36818 2.18772,0.39944 1.01076,0.85027 -4.49991,1.72368 -30.22736,11.39977 -41.1627,15.48128 -7.42045,2.76962 -13.60775,5.08104 -13.74954,5.1365 -0.18072,0.0707 -0.65434,-0.42629 -1.5841,-1.66223 z" transform="translate(6.404,13.056)" class="img-path" />
<path id="path3496" style="stroke:#000000;stroke-width:1.5;fill:#ffffff" d="m 866.77423,133.21493 c -0.52199,-0.92622 -0.93477,-1.70201 -0.91729,-1.72397 0.0175,-0.022 6.33,-2.39101 14.02783,-5.26453 7.69783,-2.87353 19.27786,-7.21562 25.7334,-9.6491 6.45554,-2.43347 11.75415,-4.39554 11.77471,-4.36015 0.0205,0.0354 0.28345,0.56707 0.58422,1.18151 0.30077,0.61443 0.74022,1.43093 0.97656,1.81444 l 0.4297,0.69729 -7.16551,2.63068 c -29.13708,10.6971 -43.85638,16.106 -44.22005,16.24953 -0.2102,0.083 -0.49683,-0.28616 -1.22357,-1.5757 z" transform="translate(6.404,13.056)" class="img-path" />
<path id="path3498" style="stroke:#000000;stroke-width:1.5;fill:#ffffff" d="m 870.17784,118.33993 c -0.30879,-6.11116 -1.02533,-9.81263 -2.51489,-12.99126 -1.26181,-2.69263 -2.78948,-4.49962 -5.49201,-6.496155 -1.82791,-1.3504 -3.51894,-3.090241 -4.73884,-4.875619 l -0.81628,-1.194676 0.71835,-1.024081 c 0.39509,-0.563245 0.98515,-1.589781 1.31124,-2.281192 1.08402,-2.298439 1.16936,-2.841591 1.25065,-7.960015 0.18419,-11.597745 -1.41258,-20.089726 -5.19412,-27.62356 -2.48563,-4.952036 -4.97219,-7.720941 -7.97408,-8.879527 -1.04182,-0.402094 -1.37997,-0.442478 -3.84411,-0.459106 l -2.70181,-0.01823 -2.02459,-1.965716 c -3.734,-3.625392 -7.07635,-5.454468 -12.55317,-6.869621 -5.28903,-1.366629 -9.11521,-1.536904 -13.36127,-0.594612 l -0.5156,0.114425 0.5156,-0.449457 c 0.95197,-0.829832 3.57955,-2.519936 5.12233,-3.294768 10.69652,-5.372113 25.03747,-6.636565 36.38411,-3.208015 4.05025,1.223842 7.08535,2.663374 10.64403,5.048413 8.64758,5.795627 14.66843,14.341663 18.03497,25.598964 1.36784,4.573897 2.14751,8.174824 3.97072,18.338955 0.47822,2.665968 1.10042,5.864439 1.38267,7.107712 0.97204,4.28163 1.22466,7.584992 0.85358,11.161493 -0.40704,3.923045 -1.57651,8.09171 -2.9344,10.45988 -1.64957,2.87688 -2.46169,5.80973 -2.35674,8.51103 l 0.0526,1.35431 -6.53103,2.38062 c -3.59207,1.30934 -6.54044,2.38207 -6.55195,2.38385 -0.0115,0.002 -0.0727,-1.02154 -0.13598,-2.27404 z" transform="translate(6.404,13.056)" class="img-path" />
<path id="path3500" style="stroke:#000000;stroke-width:1.5;fill:#ffffff" d="m 855.31381,90.146806 c -1.28465,-2.856145 -2.32765,-6.832903 -3.36778,-12.840672 -1.05793,-6.110637 -1.6474,-8.922499 -2.60752,-12.438434 -0.51295,-1.878413 -0.90981,-3.437456 -0.88191,-3.464539 0.10865,-0.105457 7.75319,0.764567 7.87587,0.896352 0.30918,0.332135 1.19917,4.672995 1.62513,7.926463 0.66764,5.099333 0.77735,14.437295 0.19406,16.517175 -0.31081,1.108249 -1.45931,3.536886 -1.95812,4.140658 l -0.35498,0.429673 -0.52475,-1.166676 z" transform="translate(6.404,13.056)" class="img-path" />
<path id="path3502" style="stroke:#000000;stroke-width:1.5;fill:#ffffff" d="m 851.35825,60.225799 -3.50825,-0.364398 -0.56575,-1.68856 -0.56575,-1.68856 1.06629,0.100982 c 1.48698,0.140824 5.78297,0.438751 6.33877,0.439596 0.41509,6.3e-4 0.51056,0.131405 0.97489,1.335457 0.2831,0.734118 0.5678,1.5462 0.63266,1.804628 0.14236,0.567207 0.45955,0.562793 -4.37286,0.06086 z" transform="translate(6.404,13.056)" class="img-path" />
<path id="path3504" style="stroke:#000000;stroke-width:1.5;fill:#ffffff" d="m 961.5114,85.918176 c -0.33085,-0.05748 -0.91091,-0.305858 -1.28902,-0.551949 -0.89292,-0.581147 -1.90922,-1.095997 -3.54841,-1.7976 -0.7295,-0.31224 -1.75669,-0.918207 -2.28263,-1.346593 -1.16789,-0.951262 -3.66186,-2.43432 -5.51249,-3.278042 -1.49776,-0.682845 -6.66018,-2.328642 -11.94476,-3.808029 -9.63585,-2.697496 -22.11524,-5.507931 -34.60757,-7.793838 -5.20531,-0.952493 -16.03025,-2.754318 -16.54729,-2.754318 -0.26919,0 -0.4159,-0.370579 -0.8967,-2.26506 -0.31616,-1.245783 -0.60882,-2.353614 -0.65036,-2.461848 -0.0551,-0.143645 0.23961,-0.161406 1.09138,-0.06577 26.95875,3.026937 50.94977,7.243587 107.63605,18.918064 l 6.09749,1.255771 -1.88669,0.220449 c -6.34259,0.741093 -12.34727,1.854483 -21.90946,4.06246 -3.07216,0.709384 -6.32049,1.408684 -7.21851,1.554001 -1.60552,0.259803 -5.31494,0.323587 -6.53103,0.112301 z" transform="translate(6.404,13.056)" class="img-path" />
<path id="path3506" style="stroke:#000000;stroke-width:1.5;fill:#ffffff" d="m 884.85769,113.78831 c 0,-2.41003 0.84716,-5.10097 2.40082,-7.62598 1.04079,-1.6915 2.35815,-6.505867 2.76768,-10.114631 0.25139,-2.215263 0.1183,-7.285983 -0.24154,-9.202819 -0.14197,-0.756225 -0.4536,-2.225707 -0.69253,-3.265516 -0.23892,-1.03981 -0.93896,-4.674845 -1.55564,-8.077857 -0.61668,-3.403012 -1.27222,-6.921702 -1.45676,-7.819311 -0.18454,-0.897608 -0.3223,-1.644786 -0.30614,-1.660395 0.0485,-0.04685 13.93515,2.280723 16.52884,2.770441 17.74155,3.3498 30.47375,6.391279 41.85018,9.997207 9.09793,2.883724 13.76037,7.302523 12.24125,11.60156 -1.08151,3.060621 -5.07844,6.584164 -10.17882,8.973252 -3.5475,1.661699 -22.62497,8.939029 -23.10128,8.812269 -0.19738,-0.0525 -1.08557,-0.29114 -1.97374,-0.53024 -3.81866,-1.028 -9.67393,-0.95386 -14.15628,0.17924 -3.20576,0.81039 -15.77741,5.06658 -21.9112,7.41813 -0.162,0.0621 -0.21484,-0.29583 -0.21484,-1.45535 z" transform="translate(6.404,13.056)" class="img-path" />
<path id="path3508" style="stroke:#000000;stroke-width:1.5;fill:#ffffff" d="m 781.68461,152.10652 c -0.38832,-0.72558 -1.24473,-10.47275 -1.77008,-20.14595 -0.30017,-5.52681 -0.29919,-22.75281 0.001,-26.38194 0.1253,-1.51245 0.79868,-6.230259 1.49638,-10.484024 0.6977,-4.253765 1.54419,-9.62296 1.88108,-11.931544 0.3369,-2.308585 0.67912,-4.280785 0.7605,-4.382667 0.0814,-0.101883 0.73354,-2.118771 1.44925,-4.481973 2.27851,-7.523397 3.65892,-11.247998 5.79653,-15.640106 2.42864,-4.990077 6.13552,-10.583976 9.59994,-14.486873 2.30777,-2.59985 6.22251,-5.52204 8.89952,-6.643129 4.61114,-1.931071 8.59546,-2.101821 14.58297,-0.624959 5.34975,1.319557 8.02133,2.598818 11.48342,5.498737 1.73698,1.454932 4.39718,4.381302 5.48153,6.030001 2.15,3.268936 4.70405,9.790258 6.65012,16.979873 0.9279,3.428062 1.41776,5.739491 2.24754,10.605149 1.46038,8.563308 2.50138,12.353072 4.45788,16.228876 1.50642,2.984201 4.18441,6.110951 6.80012,7.939639 3.70567,2.59069 5.73946,6.29135 6.69484,12.18184 0.35316,2.17744 0.72506,8.54663 0.51042,8.74155 -0.0899,0.0816 -2.03565,0.82586 -4.32389,1.65382 l -4.16043,1.50538 -1.54789,-1.33777 c -1.97235,-1.70462 -3.6273,-2.82775 -5.68459,-3.85782 -4.30745,-2.15673 -7.55005,-2.8244 -15.03939,-3.0967 -2.55226,-0.0928 -6.9607,-0.29195 -9.79655,-0.44256 -12.7746,-0.67844 -19.37353,-0.22263 -23.8686,1.64867 -2.6921,1.12072 -4.30603,2.53468 -5.88275,5.15385 -1.42591,2.36865 -4.68897,8.80821 -5.88052,11.60505 -2.07195,4.86331 -4.33534,11.43005 -5.4553,15.8274 l -0.31133,1.22238 -1.9875,0.71374 c -2.1829,0.78393 -2.83486,0.8689 -3.08471,0.40206 z m 40.16176,-56.677336 c 2.77525,-0.559274 4.94634,-2.037005 6.17306,-4.201637 1.13066,-1.995136 2.3711,-6.416119 2.81035,-10.016231 0.33222,-2.722891 0.12134,-7.980919 -0.42312,-10.549537 -1.12546,-5.309752 -3.57752,-10.545723 -5.91004,-12.619929 -1.0075,-0.895932 -2.88894,-1.810842 -4.24728,-2.065376 -3.04229,-0.57008 -6.98301,0.63904 -9.95846,3.055525 -2.08521,1.693489 -4.97432,6.725419 -6.50503,11.329762 -1.50641,4.531227 -2.31832,9.941033 -2.13497,14.225501 0.14821,3.463161 0.90584,5.681715 2.52494,7.393671 1.53403,1.622011 3.56117,2.407904 8.24689,3.197193 2.64005,0.444705 2.80103,0.458699 5.64254,0.490517 1.6404,0.01837 2.89644,-0.06118 3.78112,-0.239459 z" transform="translate(6.404,13.056)" class="img-path" />
<path id="path3510" style="stroke:#000000;stroke-width:1.5;fill:#ffffff" d="m 814.57765,94.058606 c -2.08286,-0.271382 -5.01707,-0.853871 -6.1873,-1.228281 -2.74207,-0.877321 -4.32582,-2.603061 -4.98032,-5.426866 -1.19632,-5.16135 0.44557,-14.825923 3.57687,-21.054461 2.2308,-4.437326 3.90354,-6.394692 6.64433,-7.774882 3.97095,-1.999673 7.61564,-1.687644 10.18068,0.871589 l 0.98452,0.982303 -0.8428,1.786737 c -1.51268,3.206899 -2.89266,7.691998 -3.55925,11.568069 -0.42796,2.488445 -0.42831,7.593527 -6.9e-4,9.452811 0.81881,3.559908 2.94684,6.14644 5.73347,6.968789 l 0.72177,0.213 -0.50158,0.729021 c -1.84081,2.675569 -5.89211,3.677976 -11.7697,2.912171 z" transform="translate(6.404,13.056)" class="img-path" />
<path id="path3512" style="stroke:#000000;stroke-width:1.5;fill:#ffffff" d="m 826.33046,88.755967 c -2.25482,-0.805761 -3.89526,-2.948645 -4.56729,-5.966181 -0.34868,-1.565656 -0.38954,-5.967727 -0.074,-7.975756 0.3515,-2.237048 1.02097,-5.081977 1.65943,-7.051801 0.74946,-2.31228 2.12086,-5.580593 2.34165,-5.580593 0.25182,0 1.59299,2.941494 2.28714,5.016232 2.17378,6.497213 2.19464,13.132343 0.063,20.033718 -0.58833,1.90474 -0.60469,1.919321 -1.70988,1.524381 z" transform="translate(6.404,13.056)" class="img-path" />
<path id="path3514" style="stroke:#000000;stroke-width:1.5;fill:#ffffff" d="m 784.84284,70.345428 c 0.0496,-0.661697 0.17542,-2.363203 0.27967,-3.781125 0.10425,-1.417921 0.19346,-4.95628 0.19825,-7.86302 l 0.009,-5.284981 1.56203,0.02261 c 0.85911,0.01244 2.42334,0.07044 3.47606,0.128902 l 1.91404,0.106291 -0.94263,1.718693 c -2.01507,3.67406 -3.79708,7.878422 -5.57274,13.148001 l -1.0135,3.007713 0.0901,-1.203085 z" transform="translate(6.404,13.056)" class="img-path" />
<path id="path3516" style="stroke:#000000;stroke-width:1.5;fill:#ffffff" d="m 748.85639,177.56717 c -0.19399,-0.2423 -0.96572,-1.06057 -1.71494,-1.81839 l -1.36221,-1.37784 0.41684,-0.12201 c 0.22926,-0.0671 0.71762,-0.20858 1.08525,-0.31439 4.75066,-1.36738 16.43999,-5.35036 32.8941,-11.20821 2.31717,-0.82493 4.22564,-1.48728 4.24105,-1.47187 0.0606,0.0606 -0.96058,4.39253 -1.05856,4.49043 -0.13785,0.13773 -33.87948,12.26283 -34.12491,12.26283 -0.0131,0 -0.18262,-0.19825 -0.37662,-0.44055 z" transform="translate(6.404,13.056)" class="img-path" />
<path id="path3518" style="stroke:#000000;stroke-width:1.5;fill:#ffffff" d="m 347.76656,125.56455 c 0,-0.0454 0.11512,-0.62973 0.25582,-1.2986 0.33704,-1.60223 0.64802,-5.72397 0.50953,-6.75328 l -0.10957,-0.81435 0.70889,0.25012 c 1.07404,0.37894 3.45048,0.64604 5.15224,0.57909 l 1.52139,-0.0599 -0.71066,0.85238 c -5.74608,6.89188 -5.90153,7.05945 -6.68531,7.20649 -0.35328,0.0663 -0.64233,0.0834 -0.64233,0.038 z" transform="translate(6.404,13.056)" class="img-path" />
<path id="path3520" style="stroke:#000000;stroke-width:1.5;fill:#ffffff" d="m 350.55017,115.83713 c -0.31231,-0.0739 -0.90922,-0.26484 -1.32647,-0.42419 -0.88397,-0.33759 -0.7675,0.091 -1.30981,-4.82004 l -0.37958,-3.43739 -1.47505,-1.46089 c -1.6861,-1.6699 -2.4315,-2.83696 -3.11934,-4.88389 -2.61562,-7.783671 1.17422,-18.071404 9.59874,-26.05636 3.78294,-3.585556 6.8746,-5.452967 10.57858,-6.389624 1.28007,-0.323704 1.74634,-0.344088 5.95226,-0.260219 3.65203,0.07282 4.87231,0.158682 6.11021,0.429908 2.68363,0.587983 4.34781,1.428618 6.14483,3.103957 1.14934,1.071509 1.51739,2.281261 1.62891,5.354061 0.079,2.175221 -0.24627,6.291177 -0.60053,7.60028 -0.0696,0.257238 -1.45281,2.041035 -3.07378,3.963993 -3.86965,4.590588 -9.46593,11.446134 -16.55549,20.280774 l -5.75315,7.16928 -2.92624,-0.0176 c -1.60944,-0.01 -3.18178,-0.0781 -3.49409,-0.15206 z" transform="translate(6.404,13.056)" class="img-path" />
<path id="path3528" style="stroke:#000000;stroke-width:1.5;fill:#ffffff" d="m 733.68923,173.33154 c 1.70628,-1.50192 3.68295,-4.95712 4.53175,-7.92136 0.68905,-2.40647 6.24854,-30.08507 8.27726,-41.20939 1.5144,-8.30415 5.3255,-31.975451 6.67502,-41.459745 1.49633,-10.516023 2.43797,-21.092103 2.43305,-27.327218 -0.008,-9.496841 -3.61634,-15.147455 -12.21014,-19.118035 -3.95148,-1.825696 -17.82165,-5.154894 -32.63836,-7.834053 -23.43277,-4.237113 -68.0176,-8.899289 -113.6056,-11.879587 -34.918,-2.28275 -78.55093,-4.41371 -96.24681,-4.700535 -14.32393,-0.232171 -29.37966,0.26721 -33.34264,1.105936 -7.62009,1.612717 -12.83775,4.936169 -25.21434,16.060575 -10.99069,9.878713 -22.38173,21.685433 -40.80863,42.297804 -3.86181,4.319835 -8.70124,9.733717 -10.75428,12.03085 -5.97946,6.69038 -16.89236,19.881288 -26.31051,31.802688 -10.61693,13.4388 -14.00499,17.55026 -14.67384,17.80692 -0.48665,0.18675 -2.83613,-0.56268 -3.91393,-1.24844 -0.40709,-0.25902 0.0377,-0.88827 2.24503,-3.1763 3.87225,-4.01373 5.28224,-5.692 16.98103,-20.21208 16.40808,-20.365058 20.89827,-25.568641 41.16425,-47.704331 24.61888,-26.890181 41.28608,-43.1057 51.28728,-49.897384 l 1.94489,-1.3207476 8.06545,-0.4273638 c 9.98564,-0.5291085 43.38064,-0.5346497 57.90755,-0.00961 28.92403,1.045391 70.97859,3.507193 100.37167,5.875585 32.00319,2.578705 65.56538,6.281697 90.40325,9.974395 19.68515,2.926635 31.90856,6.353282 38.29385,10.73511 5.61662,3.854352 9.41583,10.353569 9.88891,16.916824 0.71739,9.952542 -3.27088,38.040192 -10.38726,73.152561 -4.58668,22.63082 -6.43984,31.40448 -8.40592,39.79704 -0.77101,3.29117 -1.49245,6.40933 -1.6032,6.92923 -0.11075,0.51991 -0.22515,0.94528 -0.25423,0.94528 -0.0292,0 -2.21398,0.30695 -4.85531,0.6821 -2.64135,0.37516 -5.24961,0.68452 -5.79612,0.68748 l -0.99368,0.005 1.54456,-1.35957 0,1e-5 z" transform="translate(6.404,13.056)" class="img-path" />
<path id="path3530" style="stroke:#000000;stroke-width:1.5;fill:#ffffff" d="m 745.59421,172.69904 c 0,-0.0973 0.37635,-1.6745 0.83633,-3.50479 3.04433,-12.11364 12.7132,-59.9991 15.1085,-74.82544 2.94446,-18.225535 3.67486,-23.930561 4.35677,-34.03012 0.41672,-6.172026 0.28353,-9.003906 -0.58201,-12.374589 -1.88011,-7.321783 -8.48158,-14.184428 -16.66832,-17.327762 -9.25267,-3.552601 -21.2603,-6.005748 -44.64364,-9.120654 C 654.57956,14.932121 597.47621,10.35138 529.55451,7.5217912 518.64581,7.0673399 478.48149,6.9180559 468.88465,7.2962918 l -6.01543,0.237083 2.872,-1.3662141 c 6.05057,-2.8782725 11.10905,-3.8526656 23.16675,-4.4625086 22.76583,-1.15142915 92.92159,2.1709408 153.56467,7.2723701 30.8338,2.5938078 79.20202,8.0450728 94.42247,10.6417378 9.2137,1.571892 22.37329,4.649832 27.60626,6.456923 6.34686,2.191741 11.85058,6.305076 15.14753,11.320849 2.99509,4.556557 3.73452,8.010023 4.00211,18.691652 0.27454,10.95919 -0.54901,19.531817 -3.69401,38.452496 -1.0886,6.54912 -1.47303,9.98836 -1.72901,15.46824 -0.45744,9.79282 0.15751,26.1747 1.45713,38.81692 0.53992,5.25214 1.31197,6.00215 4.75886,4.62298 0.76789,-0.30725 1.46261,-0.49219 1.54382,-0.41099 0.0812,0.0812 -0.1959,1.59071 -0.6158,3.35445 l -0.76346,3.20679 -8.59346,3.04791 c -16.11491,5.71561 -30.42087,10.44277 -30.42087,10.05206 z" transform="translate(6.404,13.056)" class="img-path" />
<path id="path3532" style="stroke:#000000;stroke-width:1.5;fill:#ffffff" d="m 693.17408,175.29919 c -2.45773,-0.1618 -7.56225,-0.611 -11.34338,-0.99823 -3.78112,-0.38723 -14.68623,-1.40419 -24.23357,-2.25991 -28.31157,-2.53754 -45.32717,-4.28809 -59.98238,-6.17093 -3.59207,-0.46149 -21.68991,-2.7041 -40.21742,-4.98357 -18.52751,-2.27947 -40.64708,-5.00126 -49.15461,-6.04842 -8.50753,-1.04715 -43.77511,-5.67391 -78.3724,-10.28168 -34.59729,-4.60778 -63.83226,-8.47439 -64.96659,-8.59249 -5.15962,-0.53716 -12.2828,-1.70497 -12.98684,-2.12912 -0.14768,-0.089 0.48734,-1.03908 1.41116,-2.11136 0.92382,-1.07228 6.27364,-7.75018 11.88849,-14.83979 15.35421,-19.387044 18.90717,-23.593813 37.49164,-44.390775 19.52193,-21.84602 30.73904,-33.396915 42.97411,-44.252859 13.53465,-12.009027 17.59838,-13.856035 31.96769,-14.529633 8.71062,-0.408332 33.57605,-0.197788 44.68602,0.378371 3.78112,0.196088 14.76357,0.746886 24.40544,1.223995 76.36598,3.778823 133.48111,9.049294 167.9163,15.494981 6.9958,1.309498 20.75889,4.445077 24.0617,5.481861 8.16565,2.563284 12.98201,6.834182 14.65261,12.993189 0.58109,2.142227 0.64145,10.595999 0.11993,16.793286 -0.79376,9.431995 -3.12021,25.626761 -7.07654,49.260754 -1.92157,11.47892 -8.83408,46.42333 -9.80803,49.58191 -1.43487,4.65348 -3.44725,7.27383 -7.3458,9.56516 l -1.71367,1.00719 -14.95263,0.0511 c -8.22395,0.0281 -16.9635,-0.0812 -19.42123,-0.24305 z" transform="translate(6.404,13.056)" class="img-path" />
</g>
</g>
</svg>
