<?xml version="1.0" standalone="no"?>
<!--Created with Sketsa SVG Editor (http://www.kiyut.com)-->
<svg contentScriptType="text/ecmascript" width="850.0px" xmlns:xlink="http://www.w3.org/1999/xlink"
    baseProfile="full" zoomAndPan="magnify" contentStyleType="text/css" height="700.0px"
    preserveAspectRatio="xMidYMid meet" xmlns="http://www.w3.org/2000/svg" version="1.0">
    <g id="layer1" transform="matrix(0.6693069 0.0 0.0 0.6693069 -4.099489 -74.44004)">
        <path d="m 725.29584 960.30676 c 0.0 0.0 91.83911 51.123535 99.20172 57.082703 c 7.362671 
            5.9592285 10.075195 12.231995 2.7125854 18.504822 c -7.362671 6.272949 -42.625793 
            12.545654 -50.763428 21.954956 c -8.137634 9.40918 -12.012695 19.445679 -3.1000977 
            25.091309 c 8.912659 5.645508 22.475464 12.231934 36.038147 10.350098 c 13.562744 
            -1.8818359 95.71423 -48.61438 95.71423 -48.61438 c 0.0 0.0 15.500244 23.523071 37.200623 
            23.836792 c 21.700378 0.31359863 30.613037 -22.582153 30.613037 -22.582153 c 14.725281 
            0.31359863 25.962952 -5.645508 25.962952 -5.645508 c 0.0 0.0 8.5251465 6.9000244 
            25.96289 7.5273438 c 17.437866 0.62719727 31.388062 -10.35022 32.93811 -17.250366 c 
            1.5500488 -6.9000854 0.38757324 -21.641235 -4.262451 -28.227722 c -4.6501465 -6.586426 
            -18.600342 -49.2417 -36.813232 -54.573547 c -18.21283 -5.331909 -32.163086 -2.1955566 
            -32.163086 -2.1955566 c 0.0 0.0 -6.3099365 -10.899475 -21.312866 -14.113831 c -13.175232 
            -2.822815 -24.071045 -3.298767 -41.850708 1.8818359 c -9.687683 2.822754 -20.925354 
            11.604797 -20.925354 11.604797 c 0.0 0.0 -16.662842 -5.64563 -27.900513 0.62719727 c 
            -11.237732 6.272888 -22.475403 15.995728 -22.475403 15.995728 l -75.951355 -38.57788 c 
            0.0 0.0 -23.250427 4.70459 -34.488037 16.936646 c -11.237732 12.231995 -14.337769 
            20.386719 -14.337769 20.386719 z" id="path3119" style=
            "fill:#000000;stroke:#000000;stroke-width:6.27555799;stroke-linecap:butt;stroke-linejoin:round;stroke-miterlimit:4;stroke-opacity:1;stroke-dasharray:none;"
            class="img-path"/>
        <path d="m 774.12164 929.56995 l 70.91376 36.696045 l -17.825256 31.050476 c 0.0 0.0 
            36.81311 -49.55536 60.063538 -49.55536 c 23.250427 0.0 42.23828 10.977478 56.188538 
            42.655273 c 13.950134 31.677795 25.575378 35.127808 23.250305 49.86902 c -2.3250122 
            14.741089 -10.850159 25.404907 -23.250305 24.46399 c -12.400269 -0.94091797 -27.12555 
            -7.5273438 -46.500854 -44.85077 c -19.375366 -37.323303 -27.900513 -36.382385 -27.900513 
            -36.382385 l 17.050293 30.10962 c -3.6812744 4.0772705 -20.537903 6.586426 -20.537903 
            6.586426 c 0.0 0.0 18.794128 2.6659546 25.5755 0.6272583 l 11.237732 17.877625 c 0.0 0.0 
            -75.56384 47.046265 -92.614136 49.2417 c -17.050354 2.1954346 -36.42566 -7.213745 
            -32.93811 -18.504883 c 3.4875488 -11.291016 24.025452 -16.622925 33.713135 -19.132202 c 
            9.687622 -2.5090332 25.57544 -9.40918 27.125488 -19.7594 c 1.5499878 -10.350098 
            -12.787781 -19.759338 -23.63794 -25.091248 c -10.85022 -5.331848 -79.05139 -47.359863 
            -79.05139 -47.359863 c 1.8386841 -9.401489 17.460815 -22.575928 39.138123 -28.54132 z"
            id="path3105" style="fill:#ffffff;fill-opacity:1;stroke:none;" onClick="javascript:onPathClick('path3105');"
            class="img-path"/>
        <path d="m 908.9741 945.8793 c 0.0 0.0 13.3689575 2.5091553 20.344055 12.388855 c 6.9751587 
            9.8797 15.112793 18.191162 19.18164 29.32544 c 4.0687866 11.134338 18.60028 33.089172 
            21.312805 38.26422 c 2.7125854 5.175171 2.5188599 15.525269 2.5188599 15.525269 c 0.0 
            0.0 17.050293 -0.15673828 29.062927 -8.781982 c 12.012756 -8.625061 16.662842 -14.27063 
            14.531555 -23.052551 c -2.1312866 -8.782043 -16.275269 -26.502747 -23.444153 -39.2052 c 
            -7.1688843 -12.702515 -13.175232 -28.698242 -24.800476 -32.305115 c -11.625183 
            -3.6068115 -25.769165 -5.4886475 -36.619324 -1.2545166 c -10.85022 4.234192 -22.08789 
            9.095581 -22.08789 9.095581 z" id="path3107" style=
            "fill:#ffffff;fill-opacity:1;stroke:none;" onClick="javascript:onPathClick('path3107');"
            class="img-path"/>
        <path d="m 988.41296 950.8975 c 0.0 0.0 11.622009 20.38147 17.437866 29.795898 c 7.1688232 
            11.604675 15.112732 20.229858 16.275269 30.423218 c 1.1398926 9.9953 -5.2313843 
            16.466125 -9.88147 20.07306 c -4.6500854 3.6068115 -7.750122 5.4886475 -7.750122 
            5.4886475 c 0.0 0.0 8.5251465 7.8410645 23.444214 5.3320312 c 14.919067 -2.5092773 
            24.412842 -8.154785 25.187866 -18.504883 c 0.7750244 -10.350159 -10.268799 -32.148315 
            -15.500244 -40.930237 c -5.2313232 -8.781921 -11.4313965 -25.091309 -21.894165 -29.6391 
            c -10.4627075 -4.5477905 -27.319214 -2.0386353 -27.319214 -2.0386353 z" id="path3109"
            style="fill:#ffffff;fill-opacity:1;stroke:none;" onClick="javascript:onPathClick('path3109');"
            class="img-path"/>
        <path d="m 1158.5284 111.279366 c 9.815796 -0.15872192 18.600342 0.3136444 24.800537 
            12.859291 c 6.2000732 12.545654 6.5509033 38.929123 -5.812744 62.414658 c -18.98767 
            36.06877 -60.063477 75.901245 -60.063477 75.901245 c 0.0 0.0 11.625244 -52.0645 7.750122 
            -73.70575 c -3.875122 -21.641266 -12.012817 -33.559647 -8.91272 -44.850723 c 3.1000977 
            -11.291092 6.9803467 -32.04857 42.23828 -32.61872 z" id="path3103" style=
            "fill:#000000;stroke:none;" class="img-path"/>
        <path d="m 134.49007 531.5215 c 0.0 0.0 -55.897766 -50.010925 -60.2819 -97.02783 c 
            -4.3841476 -47.016937 35.073112 -71.41254 47.677498 -76.73517 c 12.604401 -5.3226624 
            42.235 -11.720001 54.253754 -5.3226624 c 20.64801 10.9904785 29.044907 53.670258 
            57.541794 90.48541 c 28.496918 36.815125 70.694244 81.170746 99.73917 98.02585 c 
            29.044922 16.855164 72.33832 39.03296 97.54709 69.19476 c 25.208801 30.161743 54.49237 
            79.403564 56.44577 130.849 c 1.6440735 43.29779 -43.293335 66.97693 -65.21405 79.396484 
            c -21.920715 12.419617 -84.394684 52.783142 -170.98145 48.347656 c -86.586716 -4.435608 
            -89.3268 -16.411621 -94.80698 -37.70227 c -5.480179 -21.29071 9.5903015 -37.924072 
            24.112762 -45.68628 c -21.9207 -2.2177734 -99.760056 -14.872253 -126.04399 -56.775146 c 
            -27.126856 -43.246765 4.38414 -61.654297 21.37268 -69.1947 c 16.988533 -7.5405273 
            45.485435 -1.774231 45.485435 -1.774231 c 0.0 0.0 -88.56813 -43.707886 -100.56119 
            -60.101868 c -12.330385 -16.855103 -11.782368 -38.367615 -6.3021936 -53.89209 c 5.480176 
            -15.524414 17.01736 -37.20273 40.553288 -38.145782 c 27.674877 -1.1088867 37.53918 
            7.9840393 48.225536 14.193817 c 9.464386 5.499695 31.236984 11.865051 31.236984 
            11.865051 z" id="path3097" style=
            "fill:#000000;stroke:#000000;stroke-width:6.27555799;stroke-linecap:butt;stroke-linejoin:round;stroke-miterlimit:4;stroke-opacity:1;stroke-dasharray:none;"
            class="img-path"/>
        <path d="m 730.502 642.45807 c -6.8026733 -35.492737 -6.7561646 -67.30298 8.74408 -82.98511 
            c 15.500244 -15.682007 40.30072 -29.4823 58.901062 -31.991394 c 18.60028 -2.5091553 
            37.200623 0.0 52.700867 -9.409241 c 15.500244 -9.40921 53.475952 -37.636963 85.251526 
            -85.310455 c 31.775513 -47.673492 35.650635 -132.98398 39.525696 -143.02054 c 3.875061 
            -10.0364685 44.950806 -19.44577 62.776 -16.309326 c 17.825317 3.136383 35.650757 
            13.800201 41.075806 29.48227 c 5.425049 15.682068 -3.1000977 85.31052 -3.1000977 
            85.31052 c 0.0 0.0 30.225586 -43.90982 41.075806 -65.864716 c 10.85022 -21.954926 
            44.950806 -25.718597 58.125977 -20.07306 c 13.175293 5.6455383 34.87549 17.563904 
            33.325684 60.846436 c -1.5500488 43.2825 -21.70044 71.510254 -41.075806 104.12897 c 
            -19.375366 32.618713 -34.100586 48.30075 -34.100586 48.30075 c 0.0 0.0 23.250488 
            1.2545776 42.625732 -8.781952 c 19.375366 -10.03653 56.575928 -25.091309 65.8761 
            -24.46405 c 9.300171 0.62731934 26.930176 12.721893 29.122314 40.22232 c 2.1920166 
            27.50055 -9.316284 39.920044 -23.838745 57.21881 c -14.522461 17.298645 -38.031616 
            39.802673 -74.97302 54.11377 c -22.539917 8.731995 -49.152954 17.298706 -49.152954 
            17.298706 c 0.0 0.0 37.284546 -7.708435 46.60083 -7.2648926 c 9.316406 0.44360352 
            29.025513 6.5995483 28.203491 26.116028 c -0.8220215 19.516418 -5.80249 35.447205 
            -36.99121 49.456482 c -28.023438 12.587585 -63.79834 22.52295 -90.1488 19.072876 c 0.0 
            0.0 -0.8220215 21.512512 -36.717163 39.4765 c -35.89514 17.96405 -69.598206 26.391602 
            -108.781494 22.621338 c -39.183228 -3.7702026 -87.134766 -29.052856 -111.79553 
            -51.230713 c -57.484253 -54.369934 -80.27875 -91.42877 -83.255554 -106.96033 z" id="path3095"
            style=
            "fill:#000000;stroke:#000000;stroke-width:6.27555799;stroke-linecap:butt;stroke-linejoin:round;stroke-miterlimit:4;stroke-opacity:1;stroke-dasharray:none;"
            class="img-path"/>
        <path d="M 476.51648 712.53 C 468.8915 678.6938 438.54083 610.9102 368.01456 569.5095 C 
            297.48837 528.1088 248.66249 482.3172 219.98697 437.7801 C 191.31148 393.243 185.88638 
            358.7425 168.06107 356.23334 c -17.825302 -2.5091553 -77.50135 10.663788 -85.25149 
            63.35553 c -7.750145 52.691772 75.95132 124.829285 75.95132 124.829285 c 0.0 0.0 
            -27.900482 -4.390991 -51.925903 -15.682007 c -24.025414 -11.291077 -32.550568 -21.954926 
            -59.676044 -15.05481 c -27.125479 6.9000854 -34.875618 60.846436 -21.700382 78.4104 c 
            13.175228 17.563843 132.52731 77.15576 132.52731 77.15576 c 1.5258789E-5 0.0 -46.500793 
            -11.918335 -69.751205 -6.272888 c -23.250412 5.64563 -47.275837 26.345886 -34.100605 
            49.55542 c 13.175228 23.209473 27.900486 39.5188 68.20119 53.31897 c 40.30072 13.800293 
            98.42673 13.800293 98.42673 13.800293 c 0.0 0.0 -43.01326 3.7636719 -53.86345 29.4823 c 
            -10.850189 25.718567 0.3875122 42.341553 26.737976 47.98712 c 26.350464 5.645569 
            72.85129 10.036499 103.85181 4.704651 c 31.00055 -5.33197 90.28912 -26.032288 141.05252 
            -58.96466 c 50.763367 -32.932312 42.68445 -69.433105 37.975647 -90.328674 z" id="path3089"
            style="fill:#ffffff;fill-opacity:1;stroke:none;" onClick="javascript:onPathClick('path3089');"
            class="img-path"/>
        <path d="m 288.9632 596.7963 c 0.0 0.0 -97.3869 -91.8761 -144.15253 -56.455444 c -41.22235 
            31.222107 -17.853569 61.861572 3.875061 79.97858 c 19.316177 16.105469 75.95134 
            46.732544 75.95134 46.732544 c 0.0 0.0 -70.526215 7.213806 -66.26367 37.323303 c 
            4.2625885 30.10962 27.512985 42.655273 60.45108 47.987183 c 32.93808 5.331909 82.92641 
            1.2545776 82.92641 1.2545776 c 0.0 0.0 -12.4001465 18.81842 -0.7749939 26.032227 c 
            11.625214 7.213745 37.588196 23.836731 66.26367 16.622925 c 28.675537 -7.213684 
            27.900513 -18.191162 27.900513 -18.191162 c 0.0 0.0 -31.00058 23.209473 -64.71365 
            9.722839 c -33.713104 -13.486572 -28.288025 -25.404907 -15.500275 -37.323303 c 12.78772 
            -11.918396 16.66278 -10.663757 24.800446 -12.545593 c -28.288055 0.31359863 -39.525726 
            13.800171 -91.0641 10.350159 c -40.85936 -2.7351685 -81.376434 -9.095642 -81.76396 
            -44.53711 c -0.38749695 -35.44153 98.81424 -32.932373 98.81424 -32.932373 c 0.0 0.0 
            -34.1006 -1.5681763 -79.05138 -33.87329 c -44.95079 -32.305054 -59.288536 -41.400635 
            -53.86345 -66.49194 c 6.7360687 -31.154602 39.913193 -33.55963 62.0011 -26.659485 c 
            22.087875 6.9000854 94.164154 53.00531 94.164154 53.00531 z" id="path3091" style=
            "fill:#000000;stroke:none;" class="img-path"/>
        <path d="m 1152.745 116.751396 c -22.010132 0.82354736 -29.499023 24.224892 -29.499023 
            32.163933 c 0.0 8.4683075 5.8320312 18.82634 8.544434 36.39026 c 2.7126465 17.563904 
            -2.7124023 55.216568 -2.7124023 55.216568 c 0.0 0.0 13.562622 -14.451035 24.412842 
            -27.937607 c 10.85022 -13.486572 25.963013 -40.749863 27.125488 -57.686493 c 1.1625977 
            -16.936646 2.3153076 -35.472855 -23.260132 -37.981995 c -1.5983887 -0.1568222 -3.143921 
            -0.21955872 -4.611206 -0.16466522 z M 1027.493 279.4921 c -7.319519 0.07626343 
            -14.016174 1.3947449 -19.462585 2.415039 c -11.826477 2.2154846 -22.570984 3.920288 
            -24.684143 9.5503845 c -3.3345337 8.884247 -3.234375 82.27963 -32.279297 131.07077 c 
            -29.044922 48.79117 -59.18451 78.071686 -81.105225 92.26541 c -21.920654 14.193848 
            -30.505737 14.876282 -39.46753 15.533142 c -104.13257 7.6324463 -94.86548 53.859314 
            -95.07483 99.40082 c -0.13293457 28.95929 105.821655 186.35327 229.14246 165.15576 c 
            49.794617 -9.566101 65.730835 -20.723877 76.96863 -27.937683 c 11.237549 -7.213684 
            19.719849 -15.982178 21.089966 -36.829285 c 0.0 0.0 15.694092 10.459961 63.744873 
            -4.28125 c 48.050903 -14.74115 68.75342 -33.551758 64.490845 -58.01581 c -4.2625732 
            -24.46405 -32.153442 -17.23462 -40.48474 -16.13684 c -8.331421 1.0977783 -30.613037 
            7.0804443 -40.688232 5.982666 c -10.075195 -1.0977173 -16.071777 -3.0187988 -16.071777 
            -3.0187988 c 0.0 0.0 91.99866 -24.085938 128.16785 -57.796265 c 36.169067 -33.710266 
            51.507324 -60.78943 41.095093 -85.18497 c -10.412476 -24.39563 -20.033325 -24.403412 
            -30.719727 -21.076721 c -10.686157 3.3266296 -46.325684 19.993713 -58.930054 23.985687 c 
            -12.60437 3.9920044 -36.9718 13.494202 -55.878418 8.836914 c 0.0 0.0 92.32019 -105.76221 
            83.00391 -171.85205 c -9.316284 -66.08978 -60.797485 -41.2724 -70.661865 -30.627075 c 
            -9.864258 10.645355 -39.446167 70.802795 -66.32178 95.39404 c 0.0 0.0 24.147583 
            -97.58615 3.322876 -119.76395 c -13.015381 -13.861145 -26.997192 -17.196991 -39.19629 
            -17.069946 z" id="path3085" style="fill:#ffffff;fill-opacity:1;stroke:none;" onClick="javascript:onPathClick('path3085');"
            class="img-path"/>
        <path d="m 361.64325 575.1009 l -21.098663 25.726257 c 0.0 0.0 5.2061462 -52.783142 
            30.688965 -85.60632 c 25.482819 -32.82312 50.69162 -60.323578 52.061676 -74.29559 c 
            1.3700256 -13.972015 -13.152435 -55.66626 -24.112762 -88.04587 c -10.960358 -32.379547 
            -4.384186 -45.68628 4.932129 -48.347595 c 9.316284 -2.6613464 27.400879 12.641357 
            51.239624 18.629364 c 23.838745 5.9880066 63.022003 10.867126 63.022003 10.867126 c 0.0 
            0.0 17.262573 -8.871124 50.417603 -11.310699 c 33.15503 -2.4395752 101.38324 1.7742004 
            120.56384 -1.7742004 c 19.180603 -3.548462 50.143555 -16.41159 78.91449 -44.577362 c 
            28.770874 -28.165833 27.126892 -24.395615 30.688965 -23.952057 c 3.5620728 0.443573 
            20.002625 14.859131 13.700439 40.141846 c -6.302185 25.282684 -29.866943 73.85205 
            -40.553345 97.13876 c -10.686279 23.286652 -12.056335 32.379578 -8.494202 42.58136 c 
            3.5620728 10.201782 23.838745 46.351593 31.510986 50.121796 c 7.672241 3.7702332 
            21.098633 11.310699 26.30481 21.734253 c 5.2061768 10.423584 12.878418 42.137817 
            12.878418 42.137817 l -7.672241 -8.205811 c 0.0 0.0 9.590332 14.193848 4.932129 
            32.157837 c -4.658081 17.96405 -15.070435 43.91211 -15.070435 43.91211 c 0.0 0.0 
            28.496887 13.084839 40.82727 34.81909 c 12.330383 21.734192 22.742737 58.77118 22.742737 
            58.77118 l -12.330383 -6.875183 c 0.0 0.0 20.276672 32.157837 12.0563965 95.586365 c 
            -8.220276 63.428528 -41.649353 149.03479 -55.34973 172.09967 c -13.7005005 23.064941 
            -56.44586 68.30762 -96.45111 78.953 c -40.00525 10.645264 -129.33209 21.73413 -192.9021 
            -12.419556 c -63.570007 -34.15381 -123.8519 -100.24365 -133.16821 -117.9859 c -9.316284 
            -17.742249 -24.660797 -81.170715 -19.728607 -112.219666 c 4.932129 -31.04889 14.248413 
            -73.18671 20.824615 -87.38049 c 6.5762024 -14.193848 -0.54797363 -47.46051 -8.220245 
            -54.557434 c -7.672241 -7.096924 -22.133636 -32.88269 -22.133636 -32.88269 l -6.5876465 
            11.604736 c 0.0 0.0 -14.508942 -29.22284 -4.4337463 -66.54614 z" id="path3093" style=
            "fill:#000000;stroke:#000000;stroke-width:6.27555799;stroke-linecap:butt;stroke-linejoin:round;stroke-miterlimit:4;stroke-opacity:1;stroke-dasharray:none;"
            class="img-path"/>
        <path d="m 892.6988 616.55566 c 0.0 0.0 36.038147 20.700378 34.48816 50.809937 c -1.4487915 
            28.142273 -11.237732 38.57794 -32.93811 42.341614 c -21.700378 3.763733 -21.312866 
            -0.94091797 -21.312866 -0.94091797 c 0.0 0.0 8.5251465 9.7229 34.4881 3.4500122 c 
            25.962952 -6.272766 30.613037 -37.323303 29.4505 -49.2417 c -1.1624756 -11.918335 
            -17.825256 -34.97101 -17.825256 -34.97101 c 0.0 0.0 52.700867 24.62085 118.9646 
            -14.897949 c 66.26367 -39.5188 25.187866 -85.310486 12.4001465 -88.1333 c -12.78772 
            -2.822754 -18.600342 -2.1954346 -18.600342 -2.1954346 c 0.0 0.0 55.026123 -29.795929 
            35.650757 -65.864716 c -19.375366 -36.068756 -67.42627 -19.44574 -74.78894 -15.682098 c 
            -7.36261 3.7637024 -16.66278 18.191223 -16.66278 18.191223 c 0.0 0.0 25.962952 -24.15039 
            53.476013 -19.13211 c 27.51294 5.0182495 35.26306 17.563934 32.93799 38.57788 c 
            -2.3250732 21.014008 -52.894653 51.750824 -52.894653 51.750824 c 0.0 0.0 34.29431 
            -7.8410034 44.369507 4.704651 c 10.075195 12.545593 18.21289 34.50055 0.38757324 
            54.887207 c -17.825317 20.386719 -55.576782 36.410522 -80.21399 38.57794 c -24.590881 
            2.16333 -40.739746 -5.730713 -81.3764 -12.232056 z" id="path3087" style=
            "fill:#000000;stroke:none;" class="img-path"/>
        <path d="m 640.2049 534.3594 c 0.0 0.0 -5.19812 42.99115 -29.998535 58.04596 c -24.800415 
            15.05481 -59.676086 23.523132 -83.70148 27.286804 c -24.025421 3.763733 -54.63849 
            33.87323 -54.63849 33.87323 c 0.0 0.0 -66.651184 -40.146057 -44.17575 -97.85608 c 
            22.475403 -57.710052 104.23935 -37.323303 115.08951 -33.55963 c 10.850159 3.763733 
            34.100586 18.818481 57.738525 11.291077 c 23.63794 -7.5273438 45.72577 -35.755127 
            62.0011 -31.677795 c 16.275269 4.077362 29.4505 13.800232 17.437805 61.473755 c 
            -12.012756 47.673523 -17.825317 96.6015 -29.06305 100.99255 c -11.237671 4.390991 
            -27.125427 -4.704651 -41.850708 -15.05481 c -14.725281 -10.350159 -40.30072 -32.932373 
            -40.30072 -32.932373 l 8.5251465 -3.1364136 c 0.0 0.0 44.175842 34.50055 58.707336 
            31.207397 c 14.531433 -3.293335 20.731567 -31.364197 18.212769 -61.630554 c -2.5187988 
            -30.26648 -7.9244385 -36.87982 -7.9244385 -36.87982 l 3.6618652 -14.243774 c 12.0563965 
            -1.7741699 16.27533 10.663818 16.27533 10.663818 c 0.0 0.0 6.393799 -14.42749 -6.5876465 
            -17.563965 c -12.981506 -3.1364136 -23.344421 3.633789 -28.221497 7.056946 c -4.953186 
            3.4766235 -11.110413 14.584351 -11.110413 14.584351 c 0.0 0.0 12.799072 -11.053528 
            19.92334 -11.940674 z" id="path3127" style="fill:#ffffff;fill-opacity:1;stroke:none;"
            onClick="javascript:onPathClick('path3127');" class="img-path"/>
        <path d="m 582.7683 611.1398 c 0.0 0.0 38.49823 28.720276 49.18451 29.940063 c 10.686401 
            1.2197876 18.084595 -25.615356 17.810608 -38.367615 c -0.27404785 -12.752197 -2.0551147 
            -29.7182 -3.0140991 -35.595337 c -0.9590454 -5.877075 -3.8361816 -12.973999 -3.8361816 
            -12.973999 l -7.1241455 19.960022 c 2.3290405 21.17981 -7.672241 52.3396 -7.672241 
            52.3396 c 0.0 0.0 -14.11145 -21.955994 -23.29071 -25.060913 z" id="path3129" style=
            "fill:#ffffff;stroke:none;" onClick="javascript:onPathClick('path3129');" class="img-path"/>
        <path d="m 609.6211 599.0529 c 0.0 0.0 13.974487 -5.877075 21.509705 -20.181763 c 
            -0.54803467 19.960022 -4.658203 38.811157 -4.658203 38.811157 c 0.0 0.0 -6.713196 
            -14.082947 -16.851501 -18.629395 z" id="path3131" style="fill:#ffffff;stroke:none;"
            onClick="javascript:onPathClick('path3131');" class="img-path"/>
        <path d="m 429.3234 414.7554 c 0.0 0.0 -37.265198 -82.723175 -26.30484 -98.24765 c 10.960388 
            -15.524445 16.988556 4.87912 45.75946 11.532471 c 28.770905 6.6533203 47.67749 10.645325 
            62.19998 10.645325 c -17.810577 5.100891 -31.785034 16.41159 -31.785034 16.41159 c 0.0 
            0.0 51.60141 -22.508606 85.76474 -26.613373 c 38.86078 -4.6691284 101.93121 1.3306885 
            125.221985 -2.4395752 c 23.290771 -3.7702026 53.70569 -18.407562 64.94006 -29.052887 c 
            11.234375 -10.645355 36.443115 -39.47647 41.92328 -38.145844 c 5.4801636 1.3306885 
            12.330383 16.41159 9.042297 37.036957 c -3.288086 20.625336 -51.239624 103.34854 
            -50.69159 124.41745 c 0.54803467 21.068909 28.496887 61.210693 36.443176 65.86804 c 
            7.946228 4.6573486 20.824646 14.859161 24.386719 20.403564 c 3.5621338 5.5444946 
            10.138367 25.94806 10.138367 25.94806 c 0.0 0.0 -15.504517 -25.02478 -27.12976 
            -29.337372 c 0.0 0.0 29.04779 27.784882 27.403748 54.398285 c -1.644043 26.613342 
            -19.728638 59.436462 -19.728638 59.436462 c 0.0 0.0 32.881042 15.524475 44.93744 35.9281 
            c 12.0563965 20.403564 18.358582 43.911987 18.358582 43.911987 c 0.0 0.0 -11.645325 
            -15.857056 -25.756775 -21.955994 c 0.0 0.0 35.621094 36.815125 31.510986 92.25964 c 
            -4.1101685 55.44452 -35.07312 159.23657 -54.253723 189.17657 c -19.180664 29.940063 
            -53.70569 70.969055 -89.05286 82.501526 c -35.347107 11.532349 -64.81531 15.1875 
            -110.63025 12.397217 c -51.785828 -3.1540527 -84.30737 -22.626709 -102.82245 -34.796875 
            c -29.207611 -19.198486 -98.64316 -81.39252 -108.23349 -102.90497 c -9.5903015 
            -21.512512 -23.564697 -76.51343 -18.632599 -120.425476 c 4.93219 -43.91205 19.180634 
            -66.75519 20.276672 -91.5943 c 1.0960388 -24.839111 -11.045837 -40.0437 -18.906616 
            -48.347595 c -12.415375 -13.115173 -20.550629 -41.02893 -20.550629 -41.02893 l 
            -4.6581726 13.528503 c 0.0 0.0 -11.511688 -20.589539 2.8260498 -66.694885 c -11.241699 
            6.0668335 -20.636597 20.786804 -20.636597 20.786804 c 0.0 0.0 4.8456116 -44.92975 
            74.20932 -122.39917 c 0.0 24.15039 14.295502 49.877747 14.295502 49.877747 c -6.2001343 
            0.0 -10.960358 3.3266907 -10.960358 3.3266907 c 0.0 0.0 19.263245 2.4414368 30.30716 
            8.557465 c 0.0 0.0 -6.8793945 1.5334473 -11.811584 4.8601074 c 0.0 0.0 -22.8797 
            -8.981995 -30.277954 -0.7762451 c -7.398224 8.205811 4.110138 31.936035 4.110138 
            31.936035 c 0.0 0.0 -7.497284 21.730774 -3.0141296 38.145813 c 11.508392 42.13788 
            56.171783 68.97296 56.171783 68.97296 c 0.0 0.0 27.400879 -30.827087 40.827362 -34.15381 
            c 13.426392 -3.3265991 49.047546 -10.201782 49.047546 -10.201782 c 0.0 0.0 55.86682 
            51.838745 81.88147 52.993774 c 23.512085 1.0439453 25.529907 -45.009766 28.817993 
            -60.31244 c 3.288086 -15.302673 15.986572 -55.792603 18.084595 -79.61835 c 1.328186 
            -15.083313 -9.042236 -31.048859 -22.05774 -33.931976 c -13.166809 -2.9166565 -26.167786 
            2.8831177 -26.167786 2.8831177 c 0.0 0.0 13.700378 -14.859161 32.881042 -19.73825 c 
            19.180603 -4.87912 29.044922 -7.0968933 29.044922 -7.0968933 l -6.576233 -3.3266602 c 
            0.0 0.0 19.728638 -51.674286 -13.974426 -85.16275 c -33.703125 -33.488464 -88.18005 
            -37.123596 -106.8634 -32.60138 c -19.241638 4.6573486 -41.687927 11.310669 -65.48804 
            45.464478 c 0.0 0.0 -15.974701 -26.661743 -35.621185 -25.060883 c -12.935455 1.0540161 
            -31.220673 7.0682983 -48.225525 42.35959 z" id="path3133" style=
            "fill:#ffffff;fill-opacity:1;stroke:none;" onClick="javascript:onPathClick('path3133');"
            class="img-path"/>
        <path d="m 462.95374 515.5631 c 0.0 0.0 -12.206451 -11.291046 -12.787689 -39.51877 c 
            -0.5812683 -28.227722 12.977539 -41.58853 27.706726 -42.812042 c 15.496155 -1.287262 
            32.970703 15.739929 35.263092 40.146088 c 2.5188599 26.816376 -4.2625732 38.73471 
            -4.2625732 38.73471 c 32.35681 1.7250366 41.463257 8.938782 41.463257 8.938782 c 0.0 0.0 
            -19.956604 -29.48227 -11.81897 -60.062317 c 8.137634 -30.580048 31.390747 -51.03784 
            58.126038 -50.496277 c 29.457214 0.5967102 53.863403 27.286804 56.96344 44.69388 c 
            3.1000366 17.407104 0.96881104 29.168701 0.96881104 29.168701 c 19.762878 -11.134277 
            37.588135 -12.702515 37.588135 -12.702515 c 0.0 0.0 22.66919 -59.1214 -17.437744 
            -88.91733 c -40.106995 -29.79596 -75.96765 -29.222076 -92.614136 -27.443634 c -43.959106 
            4.696411 -70.526276 53.94632 -70.526276 53.94632 c 0.0 0.0 -14.337738 -35.755096 
            -35.84439 -33.24597 c -21.506592 2.5091553 -44.369507 32.461884 -45.532043 63.35556 c 
            -1.1625366 30.893677 2.1313171 39.5188 15.112793 69.15793 c 5.012146 1.3064575 12.186615 
            4.9398804 17.63153 7.056885 z" id="path3135" style=
            "fill:#ffffff;fill-opacity:1;stroke:none;" onClick="javascript:onPathClick('path3135');"
            class="img-path"/>
        <path d="m 423.5692 550.5945 c 0.0 0.0 5.7541504 -14.859192 18.084564 -23.619385 c 0.0 0.0 
            -16.851532 -5.211792 -20.824646 -0.110839844 c -3.9731445 5.100891 2.7400818 23.730286 
            2.7400818 23.730286 z" id="path3137" style="fill:#ffffff;fill-opacity:1;stroke:none;"
            onClick="javascript:onPathClick('path3137');" class="img-path"/>
        <path d="m 555.3674 521.8742 c 0.0 0.0 17.53656 9.092834 31.785034 8.871094 c 14.248413 
            -0.22180176 38.08722 -15.746216 43.567383 -21.734253 c 5.4801636 -5.9880066 17.536499 
            -19.73825 19.180603 -25.282684 c 1.644043 -5.544464 1.0960083 -43.246704 -27.40094 
            -60.32361 c -28.496826 -17.076935 -53.979614 0.22174072 -58.911804 5.100891 c -4.932129 
            4.87912 -21.920715 24.173828 -21.920715 47.68225 c 0.0 23.508484 13.7005005 45.68631 
            13.7005005 45.68631 z" id="path3139" style="fill:#ffffff;stroke:none;" onClick="javascript:onPathClick('path3139');"
            class="img-path"/>
        <path d="m 468.23264 514.55554 c 16.44049 -3.992035 36.717194 -2.2177734 36.717194 
            -2.2177734 c 0.0 0.0 11.868103 -51.889343 -15.344482 -70.08188 c -24.130219 -16.131866 
            -34.525116 18.842072 -34.525116 29.718231 c 0.0 27.944061 13.152405 42.58142 13.152405 
            42.58142 z" id="path3141" style="fill:#ffffff;stroke:none;" onClick="javascript:onPathClick('path3141');"
            class="img-path"/>
        <path d="m 565.538 341.82254 c 0.0 16.687622 -12.706543 30.215668 -28.38086 30.215668 c 
            -15.674316 0.0 -28.38086 -13.528046 -28.38086 -30.215668 c 0.0 -16.687653 12.706543 
            -30.215668 28.38086 -30.215668 c 15.674316 0.0 28.38086 13.528015 28.38086 30.215668 z"
            id="path3143" style="fill:#000000;stroke:none;" class="img-path" transform="matrix(1.2551116,0,0,1.2551116,-64.297065,55.146484)"/>
        <path d="m 593.096 353.39316 c 0.0 16.687683 -12.706543 30.215668 -28.38086 30.215668 c 
            -15.674316 0.0 -28.38086 -13.527985 -28.38086 -30.215668 c 0.0 -16.687622 12.706543 
            -30.215668 28.38086 -30.215668 c 15.674316 0.0 28.38086 13.528046 28.38086 30.215668 z"
            id="path3913" style="fill:#ffffff;fill-opacity:1;stroke:none;" onClick="javascript:onPathClick('path3913');"
            class="img-path" transform="matrix(1.1044636,0,0,1.1044636,-13.812193,93.862013)"/>
        <path d="m 840.00916 456.519 c 0.0 16.687653 -12.706543 30.215668 -28.380798 30.215668 c 
            -15.674377 0.0 -28.38086 -13.528015 -28.38086 -30.215668 c 0.0 -16.687653 12.706482 
            -30.215668 28.38086 -30.215668 c 15.674255 0.0 28.380798 13.528015 28.380798 30.215668 
            z" id="path3915" style="fill:#000000;stroke:none;" class="img-path" transform="matrix(0.53774017,0,0,0.53774017,179.75217,241.56641)"/>
        <path d="m 821.48535 427.91196 c 0.0 16.687622 -12.706543 30.215668 -28.380798 30.215668 c 
            -15.674316 0.0 -28.38092 -13.528046 -28.38092 -30.215668 c 0.0 -16.687653 12.706604 
            -30.215668 28.38092 -30.215668 c 15.674255 0.0 28.380798 13.528015 28.380798 30.215668 
            z" id="path3917" style="fill:#ffffff;stroke:none;" onClick="javascript:onPathClick('path3917');"
            class="img-path" transform="matrix(0.5419584,0,0,0.60612336,167.32409,214.74025)"/>
        <path d="m 656.52875 368.4385 c 0.0 16.687622 -12.706543 30.215668 -28.380798 30.215668 c 
            -15.674377 0.0 -28.38092 -13.528046 -28.38092 -30.215668 c 0.0 -16.687653 12.706543 
            -30.215668 28.38092 -30.215668 c 15.674255 0.0 28.380798 13.528015 28.380798 30.215668 
            z" id="path3919" style="fill:#000000;stroke:none;" class="img-path" transform="matrix(0.69303355,0,0,0.95933464,54.785844,132.26856)"/>
        <path d="m 696.4978 383.63953 c 0.0 16.687653 -12.706543 30.215668 -28.38086 30.215668 c 
            -15.674255 0.0 -28.38086 -13.528015 -28.38086 -30.215668 c 0.0 -16.687622 12.706604 
            -30.215668 28.38086 -30.215668 c 15.674316 0.0 28.38086 13.528046 28.38086 30.215668 z"
            id="path3921" style="fill:#ffffff;fill-opacity:1;stroke:none;" onClick="javascript:onPathClick('path3921');"
            class="img-path" transform="matrix(0.60985043,0,0,0.84418803,82.662025,161.86047)"/>
        <path d="m 1052.386 518.64197 c 0.0 16.687622 -12.706543 30.215698 -28.38086 30.215698 c 
            -15.674255 0.0 -28.38086 -13.528076 -28.38086 -30.215698 c 0.0 -16.687653 12.706604 
            -30.215668 28.38086 -30.215668 c 15.674316 0.0 28.38086 13.528015 28.38086 30.215668 z"
            id="path3923" style="fill:#000000;stroke:none;" class="img-path" transform="matrix(0.29692338,0,0,0.41101746,189.54224,274.75716)"/>
        <path d="m 1032.2091 483.02612 c 0.0 16.687622 -12.706482 30.215637 -28.38086 30.215637 c 
            -15.674255 0.0 -28.380798 -13.528015 -28.380798 -30.215637 c 0.0 -16.687653 12.706543 
            -30.215668 28.380798 -30.215668 c 15.674377 0.0 28.38086 13.528015 28.38086 30.215668 z"
            id="path3925" style="fill:#ffffff;stroke:none;" onClick="javascript:onPathClick('path3925');"
            class="img-path" transform="matrix(0.29925255,0,0,0.46328561,182.67983,254.25279)"/>
        <path d="m 572.61816 1040.5989 c 0.0 0.0 15.112793 -15.368408 27.900513 -13.800171 c 
            12.78772 1.5681152 17.050293 5.0183105 20.15039 8.468384 c 3.1000366 3.4499512 7.750122 
            11.291016 7.750122 11.291016 c 0.0 0.0 13.950195 -13.486572 27.125427 -11.604736 c 
            13.175232 1.8818359 22.475403 6.586426 27.513 26.973267 c 5.0375977 20.386597 3.875061 
            52.37805 -2.7125244 65.551025 c -6.5876465 13.172974 -17.437866 21.013916 -32.93811 
            19.7594 c -15.500244 -1.2546387 -26.737915 -12.232056 -26.737915 -12.232056 c 0.0 0.0 
            -12.012756 17.877563 -33.713135 17.250244 c -21.700378 -0.62719727 -26.737976 -21.013916 
            -26.737976 -21.013916 c 0.0 0.0 -8.137634 18.504883 -28.675476 18.818481 c -20.537903 
            0.31359863 -31.775543 -18.191162 -34.100616 -30.423218 c -2.3250427 -12.232056 -1.9375 
            -58.02368 -0.3874817 -78.41028 c 1.5500183 -20.38678 22.475403 -28.541443 37.200623 
            -28.227844 c 14.72522 0.31365967 24.412964 6.9001465 27.900513 11.291077 c 3.4875488 
            4.390991 10.4626465 16.309326 10.4626465 16.309326 z" id="path3117" style=
            "fill:#000000;stroke:#000000;stroke-width:6.27555799;stroke-linecap:butt;stroke-linejoin:round;stroke-miterlimit:4;stroke-opacity:1;stroke-dasharray:none;"
            class="img-path"/>
        <path d="m 564.48047 1125.9095 c 0.0 0.0 5.42511 20.072876 19.375366 21.327515 c 13.950256 
            1.2546387 29.450562 -7.5273438 34.100647 -18.50476 c 4.6500854 -10.977539 13.950256 
            -47.359985 7.36261 -68.0603 c -6.5876465 -20.700317 -15.500244 -28.54126 -27.125488 
            -28.227783 c -11.625244 0.3137207 -23.63794 18.504883 -23.63794 18.504883 c 0.0 0.0 
            6.2001343 17.250244 4.6500854 37.636963 c -1.5500488 20.38684 -14.725281 37.323486 
            -14.725281 37.323486 z" id="path3111" style="fill:#ffffff;fill-opacity:1;stroke:none;"
            onClick="javascript:onPathClick('path3111');" class="img-path"/>
        <path d="m 630.35675 1053.7719 c 0.0 0.0 5.6188354 21.798096 3.4875488 37.950684 c 
            -2.1313477 16.152588 -10.268982 38.26416 -10.268982 38.26416 c 0.0 0.0 13.75647 
            13.172974 31.388062 11.134277 c 17.63153 -2.0386963 24.60669 -28.54126 24.412964 
            -47.046265 c -0.19378662 -18.50476 -3.2938843 -48.30066 -18.019104 -53.00525 c 
            -14.725281 -4.704712 -31.000488 12.702393 -31.000488 12.702393 z" id="path3113" style=
            "fill:#ffffff;fill-opacity:1;stroke:none;" onClick="javascript:onPathClick('path3113');"
            class="img-path"/>
        <path d="m 544.71765 1021.62366 c -18.403015 -4.6536255 -30.419312 -0.62731934 -36.619415 
            9.252441 c -6.2000732 9.879639 -5.229004 55.60791 -4.8437805 71.35339 c 0.3875122 
            15.838867 5.425049 40.30298 27.513 42.498413 c 17.32483 1.7220459 34.681824 -29.168701 
            36.81305 -35.44153 c 2.1313477 -6.272705 8.212219 -27.464966 1.937561 -50.809937 c 
            -4.111206 -15.295776 -7.2072754 -32.40393 -24.800415 -36.852783 z" id="path3115" style=
            "fill:#ffffff;fill-opacity:1;stroke:none;" onClick="javascript:onPathClick('path3115');"
            class="img-path"/>
        <path d="m 526.01074 669.1367 c -0.6392822 9.571655 -9.725708 25.14038 -15.361664 33.60077 c 
            0.99905396 -6.482666 0.725647 -8.379822 0.09628296 -16.08667 c -14.976868 20.672607 
            -19.794373 63.107117 -19.11621 89.8454 c 1.101532 14.816589 6.974518 38.098145 12.816772 
            52.150696 c -6.2970886 -5.930969 -15.630829 -15.236023 -18.648773 -28.110107 c 
            -1.6506958 17.255493 3.7529602 34.22888 12.070862 49.947388 c -11.47818 -13.64801 
            -8.23584 -2.4282837 -5.49292 7.0255737 c 11.785278 35.531433 25.785736 71.143616 
            45.63858 104.230835 c 20.844116 33.17639 64.29822 53.524902 109.451355 57.30237 c 
            27.978943 3.770874 59.88159 4.4924927 82.461426 -11.636169 c 32.48694 -22.070923 
            47.38806 -56.063354 60.421997 -87.70972 c 8.708496 -32.40796 5.170471 -66.72223 
            -2.4417725 -98.94928 c -1.1912231 -3.772766 -3.685608 -5.98999 -5.4246216 -2.5059204 c 
            -0.59832764 -8.127808 -4.6566772 -26.302551 -11.286133 -33.95172 c -4.050171 8.158997 
            -1.8816528 4.0040283 -6.180725 10.452087 c -1.0570679 -13.056641 -7.0849 -21.936157 
            -12.099915 -27.3573 c -1.5790405 5.0270386 -1.6990967 10.617249 -5.2894287 15.0390625 c 
            -0.44384766 -9.48938 -3.1973877 -18.995483 -11.32489 -26.236145 c 1.8436279 10.684753 
            -0.7149048 21.498169 -7.9439087 24.793396 c -0.02319336 -11.03949 -2.9989624 -29.061035 
            -8.873901 -39.173767 c 0.89038086 11.107361 -1.7959595 23.456299 -6.0160522 30.548584 c 
            -0.7668457 -13.662781 -10.29364 -34.4093 -20.770386 -45.03888 c 3.736206 11.365356 
            6.670349 22.76123 1.8213501 35.66101 c -6.0942383 -28.524414 -16.53595 -36.420776 
            -27.929565 -47.46173 c -1.1237793 5.8999634 -2.8045654 -5.6539307 -6.2388916 -7.7940063 
            c -8.908936 -10.835754 -22.78479 -17.684692 -36.144714 -24.534607 c 5.727844 8.785767 
            -9.468262 -2.628296 -13.698364 -2.9089966 c -9.311707 -3.8354492 -19.00824 -6.9155884 
            -29.431152 -8.123352 c 1.6574097 3.1964111 -1.9013672 11.866455 -5.3573 5.3240967 c 
            -4.7561646 -4.772156 -11.993286 -7.0776978 -18.784363 -9.440674 c 1.3256836 3.7321167 
            4.2266846 10.138367 0.61035156 12.843689 c -4.041321 -6.005127 -12.290527 -8.484741 
            -19.259155 -11.636108 c 3.843689 7.0028687 -3.5054932 -3.1452026 -6.901184 -3.8566284 c 
            -7.819458 -5.989807 -4.3065186 -2.2928467 -5.373047 3.7468262 z" id="path3123" style=
            "fill:#000000;stroke:none;" class="img-path"/>
        <path d="m 530.37994 669.2475 c 11.237671 7.213745 14.3377075 23.523071 14.3377075 23.523071 
            c 0.0 0.0 5.0375977 -10.03656 1.5500488 -15.995728 c 8.137634 3.4501343 10.4627075 
            11.291138 10.4627075 11.291138 c 0.0 0.0 8.912659 -6.9001465 6.5875854 -13.800232 c 
            8.137634 2.5090942 14.337769 11.291077 14.337769 11.291077 c 0.0 0.0 7.750122 -3.763733 
            7.750122 -9.095642 c 17.437805 2.1955566 48.825928 18.818542 48.825928 18.818542 l 
            -1.5500488 -3.4500732 c 0.0 0.0 22.475342 10.977417 27.51294 23.523132 c 5.0375977 
            12.545654 5.812561 21.327576 5.812561 21.327576 l 3.1000977 -13.172913 c 0.0 0.0 
            13.175232 13.800232 15.112732 21.954895 c 1.937561 8.154663 3.4876099 20.386658 
            3.4876099 20.386658 c 0.0 0.0 9.687683 -9.095581 9.300171 -26.973083 c 12.4002075 
            14.11377 10.075195 38.57782 10.075195 38.57782 c 0.0 0.0 11.237671 -13.486572 12.78772 
            -24.46405 c 3.875061 13.486572 2.3250122 32.305054 2.3250122 32.305054 c 0.0 0.0 
            12.012756 -10.350098 15.500305 -21.013855 c 6.5875244 6.272766 5.812561 27.600342 
            5.812561 27.600342 c 0.0 0.0 9.687622 -6.272766 11.625183 -15.682007 c 8.137634 9.409241 
            6.9751587 30.423218 6.9751587 30.423218 l 9.30011 -14.741211 c 11.237732 15.05481 
            4.6500854 53.31909 4.6500854 53.31909 c 0.0 0.0 8.137695 -7.8410034 8.5251465 -22.268555 
            c 0.0 0.0 15.112793 66.492004 -1.1624756 103.18799 c -16.27533 36.696106 -43.013245 
            93.46521 -104.23938 91.58331 c -61.226013 -1.8818359 -118.57703 -14.42749 -148.02753 
            -76.21484 c -29.450531 -61.787354 -35.263153 -87.50598 -35.263153 -87.50598 c 6.5876465 
            6.272888 13.175232 7.527405 13.175232 7.527405 c 0.0 0.0 -17.437775 -25.404968 
            -18.987823 -49.2417 c 8.137665 13.172974 22.475403 20.386719 22.475403 20.386719 c 0.0 
            0.0 -21.700378 -34.18695 -15.887787 -81.546814 c 5.812622 -47.359863 13.175201 -54.25995 
            13.175201 -54.25995 l 0.7750244 10.977478 c 0.0 0.0 19.375366 -22.895874 19.762878 
            -38.57788 z" id="path3121" style="fill:#ffffff;fill-opacity:1;stroke:none;" onClick="javascript:onPathClick('path3121');"
            class="img-path"/>
        <path d="m 600.5788 537.6205 c -20.824646 4.435547 -40.553284 -0.887146 -61.651978 
            -11.532471 c -21.098633 -10.645325 -63.843994 -9.9800415 -85.216675 4.213745 c -18.47287 
            12.268005 -31.784973 34.37555 -24.112732 61.210754 c 7.6722107 26.835144 39.73123 
            55.444458 39.73123 55.444458 c 0.0 0.0 25.756805 -25.060852 42.471375 -28.387512 c 
            16.714508 -3.3267212 53.705658 -10.645386 67.680145 -17.520508 c 13.974426 -6.875122 
            21.098633 -63.428467 21.098633 -63.428467 z" id="path3899" style=
            "fill:#ffffff;fill-opacity:1;stroke:none;" onClick="javascript:onPathClick('path3899');"
            class="img-path"/>
        <path d="m 652.0764 531.3697 c -0.69317627 0.007019043 -1.4165039 0.053710938 -2.170044 
            0.16461182 l -3.6619263 14.27063 c 0.0 0.0 5.4154053 6.617798 7.934204 36.884277 c 
            2.5187988 30.266357 -3.6425781 58.345154 -18.174072 61.638367 c -14.531433 3.293213 
            -58.726685 -31.230896 -58.726685 -31.230896 l -8.544495 3.128662 c 0.0 0.0 25.556091 
            22.582153 40.281372 32.932312 c 14.725281 10.350159 30.671143 19.484924 41.908813 
            15.093994 c 10.565186 -4.128235 16.286743 -47.62262 26.922058 -92.430176 l -11.3927 
            -30.242798 c -0.14953613 0.40057373 -0.27124023 0.65856934 -0.27124023 0.65856934 c 0.0 
            0.0 -3.7076416 -10.963013 -14.105286 -10.867615 z" id="path3918" style=
            "fill:#ffffff;fill-opacity:1;stroke:none;" onClick="javascript:onPathClick('path3918');"
            class="img-path"/>
        <path d="m 645.4694 498.9402 c 0.0 0.0 43.107056 -31.467072 89.12659 -21.327637 c 49.424194 
            10.889648 60.838562 24.15039 73.23877 41.087036 c 12.400269 16.936646 13.175232 30.10962 
            11.237732 46.418945 c -1.937561 16.309326 -32.5506 76.5285 -32.5506 76.5285 l -110.43945 
            -36.382385 c 0.0 0.0 23.250427 -70.25574 14.337769 -90.328735 c -8.912659 -20.07306 
            -24.025452 -19.4458 -25.5755 -19.7594 c -1.5499878 -0.31365967 -19.375305 3.7637024 
            -19.375305 3.7637024 z" id="path3957" style="fill:#ffffff;fill-opacity:1;stroke:none;"
            onClick="javascript:onPathClick('path3957');" class="img-path"/>
        <path d="m 465.66632 372.8563 c 0.0 0.0 27.900482 -25.718567 69.75116 -34.81418 c 41.85077 
            -9.095581 119.35211 -9.095581 149.57764 -7.213745 c 30.225586 1.8818665 67.81372 
            -23.523102 75.951355 -32.305054 c 8.137634 -8.781982 29.838013 -35.12787 34.87561 
            -35.441498 c 5.0375977 -0.31362915 5.812622 13.486572 4.2625732 31.991455 c -1.5499878 
            18.504791 -48.050842 90.015076 -49.21338 106.01077 c -1.1625366 15.995728 -3.1000366 
            33.24597 6.5876465 48.61441 c 9.687683 15.368439 -43.013245 1.5682373 -55.413452 
            -38.26425 c -12.400269 -39.83246 -66.651184 -61.473724 -94.164185 -61.160065 c -27.51294 
            0.31362915 -56.57599 3.136383 -76.338806 25.404938 c -19.762878 22.268555 -18.600342 
            22.582184 -18.600342 22.582184 c 0.0 0.0 -14.337738 -25.718567 -27.51297 -26.032227 c 
            -13.175232 -0.31362915 -19.762878 0.6272583 -19.762878 0.6272583 z" id="path3967" style=
            "fill:#ffffff;fill-opacity:1;stroke:none;" onClick="javascript:onPathClick('path3967');"
            class="img-path"/>
        <path d="m 424.7843 457.06906 c -71.88251 82.17404 -73.82007 122.47696 -73.82007 122.47696 c 
            0.0 0.0 13.950287 -18.348022 20.15039 -20.386658 c -14.531525 43.28253 -3.1000671 
            65.864624 -3.1000671 65.864624 l 5.42511 -13.172913 c 5.8125916 30.266418 29.062988 
            52.064514 29.062988 52.064514 l 56.188477 -13.172913 c 0.0 0.0 -34.87561 -30.10962 
            -41.075714 -52.378174 c -6.2001038 -22.268494 2.3250732 -42.968872 2.3250732 -42.968872 
            c 0.0 0.0 -11.237732 -26.973145 -3.2938232 -32.461853 c 7.943878 -5.4887085 16.66278 
            -2.5875244 18.794067 -2.2739258 c 2.1313171 0.31365967 11.237732 3.1364136 11.237732 
            3.1364136 l 11.818909 -4.78302 c -12.303314 -7.213745 -30.225525 -8.781952 -30.225525 
            -8.781952 l 10.656464 -2.9796143 c 0.0 0.0 -8.663849 -12.591278 -14.144012 -50.182617 z"
            id="path3977" style="fill:#ffffff;fill-opacity:1;stroke:none;" onClick="javascript:onPathClick('path3977');"
            class="img-path"/>
    </g>
</svg>