<?xml version="1.0" standalone="no"?>
<!--Created with Sketsa SVG Editor (http://www.kiyut.com)-->
<svg contentScriptType="text/ecmascript" width="600.0px" xmlns:xlink="http://www.w3.org/1999/xlink"
    baseProfile="full" zoomAndPan="magnify" contentStyleType="text/css" height="800.0px"
    preserveAspectRatio="xMidYMid meet" xmlns="http://www.w3.org/2000/svg" version="1.0">
    <g id="layer1" stroke-dashoffset="1.5" transform="matrix(3.9077764 0.0 0.0 3.9077764 -925.95734 -1942.4774)"
        stroke="#000" stroke-linejoin="round" stroke-linecap="round">
        <path fill="#fff" stroke-width="2" d="m 279.88434 540.9255 c -8.906006 3.001892 -6.9581604 
            12.308289 0.84484863 11.919128 l -0.84484863 -11.919128 z" id="path3350"/>
        <path fill="#fff" stroke-width="2" d="m 347.98758 549.98706 c 8.999847 -2.7351074 7.357147 
            -12.097046 -0.44589233 -11.930237 l 0.44589233 11.930237 z" id="path3352"/>
        <path fill="#fff" stroke-width="2" d="m 281.13986 544.5056 l -1.3728638 24.683289 c 
            -0.51626587 7.338257 -1.0443115 8.283447 -1.5605774 11.84137 c 17.10794 3.9804688 
            35.823425 2.5683594 58.19989 0.5336914 c 5.491394 -0.5114746 9.269684 -1.979187 
            13.8811035 -3.3132935 l -1.290741 -11.752441 l -2.8982239 -30.331665 l -64.95859 8.33905 
            z" id="path3354"/>
        <path fill="#fff" stroke-width="2" d="m 303.77448 581.0303 c -0.70401 4.7698975 -3.9073792 
            20.258118 -4.611389 25.016968 c 8.096344 8.138794 22.07135 5.114563 30.167694 0.8005371 
            c -0.55145264 -6.270874 -4.470581 -23.782715 -5.0220947 -28.986267 l -20.53421 3.1687622 
            z" id="path3356"/>
        <path fill="#fff" stroke-width="2" d="m 348.6095 544.8948 c 0.4810791 18.190063 -11.417023 
            33.266907 -30.554932 36.924988 c -15.4652405 2.0012817 -28.595398 -11.485596 -35.40103 
            -24.883545 c -4.177246 -13.553589 -3.5905762 -30.109192 8.553986 -38.448242 c 12.203186 
            -8.917114 30.261566 -9.951111 43.22751 -1.8678589 c 10.607361 6.326477 14.444336 
            16.288757 14.174469 28.274658 z" id="path3358"/>
        <path d="m 152.934 492.8595 a 2.0953128 2.3826103 0.0 1 1 -4.18898 0.0 a 2.0953128 2.3826103 
            0.0 1 1 4.18898 0.0 z" id="path3360" stroke-width="9.2192" transform="matrix(.19497 0 0 .24138 287.08 422.36)"/>
        <path fill="#fff" stroke-width="2" d="m 280.4241 537.46747 c 8.4366455 -1.4898071 17.025787 
            -3.8358765 24.91092 -7.4605103 c 7.169403 -3.2911377 19.079254 -7.2938843 23.8432 
            -11.896973 c 7.1928406 8.272278 8.600922 12.430664 19.020538 17.656433 c -2.1472473 
            -34.145325 -35.741272 -38.192505 -55.665344 -23.860565 c -8.119812 5.848419 -12.203217 
            13.253387 -12.109314 25.561615 z" id="path3362"/>
        <path fill="#fff" stroke-width="2" d="m 378.90628 518.6326 c -2.0534058 0.3334961 -2.4875793 
            0.68927 -3.2502747 2.3237305 l -2.722229 14.387573 l -5.3154297 -4.9367065 c -1.8656616 
            -0.45593262 -2.7691956 0.83380127 -2.8513489 2.0235596 l 6.359741 12.708557 l 
            -0.51626587 2.72406 l 12.332245 5.8929443 l 6.72348 -15.643921 c -1.3493958 -3.7357788 
            -5.385803 -5.714966 -10.313995 -5.7817383 l 2.4875488 -10.562622 c -0.11734009 -2.334961 
            -1.1968689 -2.7352905 -2.9334412 -3.135437 z" id="path3364"/>
        <path fill="#fff" stroke-width="2" d="m 369.56613 546.9072 l -10.184998 31.376709 c 
            -6.8642883 3.9694214 -13.716858 7.9387817 -20.569397 11.919189 l -10.314087 1.2119751 c 
            -8.342743 16.18872 -16.603363 21.25879 -28.067352 0.0 c -5.479706 -0.40026855 -12.238403 
            0.83392334 -18.821106 2.5349731 c -8.706482 17.178345 -13.834198 35.790955 -18.89148 
            54.20337 h 86.66617 l -1.6544495 -36.13556 c 9.516174 -4.2807007 17.366089 -10.017883 
            25.767548 -17.478455 c 4.3884583 -13.776062 8.917725 -27.529724 11.147095 -41.305664 l 
            -15.077942 -6.326538 z" id="path3366"/>
        <path fill="#fff" stroke-width="2" d="m 281.5623 594.9286 z" id="path3368"/>
        <path id="path3370" stroke-width="2" d="m 287.00677 616.7766 l -3.766571 29.775757"/>
        <path fill="#fff" stroke-width="1.6" d="m 311.34277 565.8644 c 7.333679 9.59552 14.115814 
            7.394043 18.445618 -1.0339355 c -5.5149536 1.567688 -11.839447 1.5900269 -18.445618 
            1.0339355 z" id="path3372"/>
        <path fill="#fff" stroke-width="2" d="m 259.0685 636.27875 l 98.411804 -1.2897339 l 20.8862 
            46.95398 l -141.09949 0.88946533 l 21.801483 -46.55371 z" id="path3374"/>
        <path d="m 160.75978 492.69266 a 2.0953128 2.3826103 0.0 1 1 -4.1889954 0.0 a 2.0953128 
            2.3826103 0.0 1 1 4.1889954 0.0 z" id="path3376" stroke-width="9.2192" transform="matrix(.19497 0 0 .24138 295.88 422)"/>
        <path fill="#fff" stroke-width="1.5" d="m 319.62686 551.4881 c 1.0443115 1.7901001 4.6114197 
            1.9457397 6.8525696 -0.3112793" id="path3378"/>
        <path fill="#fff" stroke-width="2" d="m 237.60727 682.5101 l 0.88005066 18.545837 l 
            139.28075 -0.5114746 l 0.6453552 -19.057312 l -140.80615 1.0229492 z" id="path2525"/>
        <path fill="#fff" stroke-width="2" d="m 295.4317 643.4837 l -10.055908 32.555237 l 49.44641 
            -0.7894287 l -7.5331116 -32.566406 l -31.857391 0.80059814 z" id="path2531"/>
    </g>
</svg>