<?xml version="1.0" standalone="no"?>
<!--Created with Sketsa SVG Editor (http://www.kiyut.com)-->
<svg contentScriptType="text/ecmascript" width="700.0px" xmlns:xlink="http://www.w3.org/1999/xlink"
    baseProfile="full" zoomAndPan="magnify" contentStyleType="text/css" height="700.0px"
    preserveAspectRatio="xMidYMid meet" xmlns="http://www.w3.org/2000/svg" version="1.0">
    <g id="layer1" transform="matrix(0.7300545 0.0 0.0 0.7300545 -21.703125 -146.0109)">
        <!-- transform="translate(-30.548182,-212.51783)"-->
        <path style="fill:#000000;fill-opacity:0.35686275;stroke:none;" id="path4458" d="m 628.3546 
            803.7414 c -21.632874 4.05719 -67.064575 30.866821 -76.272156 19.753296 c 5.883667 
            -23.950745 -42.0784 -6.701233 -49.870758 -24.782776 c -50.02771 -6.57489 -99.9035 
            4.9902344 -141.11865 27.023254 c -40.59024 12.315369 -76.798584 -21.556396 -115.59776 
            -25.60968 c -34.346878 -0.113342285 -40.74237 43.14923 -13.089447 59.14972 c -45.89145 
            -12.513794 -15.981766 35.55847 11.689484 37.809387 c -1.0932617 26.425354 56.01094 
            33.440674 82.85689 40.03839 c 18.46933 4.802124 70.32074 8.213806 66.335175 10.947449 c 
            -35.585907 7.958679 -72.87427 10.469299 -107.0025 22.011292 c -35.706467 -6.0268555 
            -72.03491 -16.626526 -108.87526 -18.907715 c -43.2715 -2.3388672 -96.72367 -4.4921875 
            -127.08031 24.452454 c -15.9019165 24.155884 11.408325 48.897095 39.169624 52.062134 c 
            80.36881 25.055054 164.77094 26.095947 247.2038 36.882324 c 26.279083 -0.28845215 
            59.536316 -5.0596924 59.31189 26.650635 c 18.84262 40.779785 72.90045 41.960083 
            111.82245 34.027466 c 25.789154 -5.0634766 43.971405 30.837402 75.83664 21.400513 c 
            36.36322 5.373169 96.29138 -10.486938 63.69806 -52.266113 c -13.864197 -13.240601 
            -25.72931 -19.742432 2.1708374 -19.26184 c 81.561584 -7.764282 164.87659 3.8544922 
            247.17572 9.965332 c 36.006348 8.178589 89.75403 4.6395264 86.518616 -37.839355 c 
            3.2947388 -32.581543 -43.26117 -41.91388 -71.105774 -40.94934 c -32.147156 -8.619324 
            -56.45526 10.777588 -59.525818 31.877441 c -47.472656 -5.5562744 -94.45148 -15.449036 
            -141.23999 -25.659363 c -12.797852 -20.61261 -80.5871 -34.62268 -54.825623 -57.646423 c 
            43.32831 -26.755981 96.97803 -37.210083 146.10999 -53.691284 c 25.780579 -2.893921 
            69.1543 -3.815979 68.58685 -34.570374 c -22.638184 -26.685364 -80.1889 -24.21051 
            -114.65198 -18.85846 c -19.468018 4.2042236 -19.821106 30.594238 -40.810608 13.446045 c 
            -17.596191 -1.7318726 -67.54309 10.766052 -64.78436 0.021118164 c 31.347534 -16.184326 
            12.885437 -57.73163 -22.63501 -57.475525 z"/>
        <path style=
            "fill:#000000;stroke:#000000;stroke-width:3;stroke-linejoin:round;stroke-miterlimit:4;stroke-opacity:1;stroke-dasharray:none;"
            id="path3967" d="m 593.47015 230.77957 c -12.447937 17.37622 -28.91925 32.154724 -45.625 
            46.568695 c -0.3972168 -0.31747437 -0.77960205 -0.6463928 -1.1843872 -0.9578247 c 
            -5.5444336 -4.3719788 -13.373352 -5.0164795 -20.134766 -4.971588 C 521.95056 267.03796 
            515.2623 265.1865 508.86304 264.1667 c 7.8206177 -11.08168 19.726318 -19.777023 
            33.266052 -25.04036 c -24.10254 -13.159164 -59.311554 -9.414337 -78.22162 7.5258026 c 
            5.76593 -15.8124695 19.548218 -27.857346 33.83252 -37.85704 c -6.282257 -0.5383301 
            -12.572418 -1.2760315 -18.898804 -1.0034485 c -33.391724 0.87457275 -64.93921 17.094666 
            -83.525696 41.23224 c -28.400085 28.474777 -30.814423 57.42903 -66.04666 69.296005 c 
            -24.700836 -10.086243 -46.24933 -23.054413 -62.228607 -43.02411 c -7.086731 -8.856506 
            -17.276382 -20.216187 -30.639816 -18.016296 c -14.258896 2.347229 -19.520203 18.14502 
            -23.069962 29.32779 c -12.893631 40.61841 3.255066 83.590546 25.438766 118.99878 c 
            5.165024 8.24411 12.323685 16.627502 20.90718 22.66861 c -21.006378 -1.9648743 
            -40.740814 -9.63739 -59.631775 -17.879456 c 3.7786865 36.94156 22.498749 75.47458 
            60.507202 94.00406 c 5.6565857 2.7575989 11.488373 5.122528 17.61142 6.932831 c 
            -14.931122 1.84729 -30.280289 1.7543335 -45.41899 1.7332153 c 6.5447845 17.577576 
            30.672653 33.180786 46.05165 44.43805 c -3.1551514 -0.21154785 -11.021149 -1.0881958 
            -15.272064 -1.427002 c 4.335663 3.7073975 11.964386 8.099487 15.926788 10.353699 c 
            19.863983 10.177734 41.442078 19.482605 64.72986 20.75293 c 34.54248 11.257507 71.90906 
            15.131592 108.50101 11.950073 c -6.5921326 2.1306763 -13.379272 3.6619873 -20.546722 
            3.8312988 c -19.112732 1.8195801 -30.537598 17.845459 -45.31604 27.001648 c -20.075653 
            16.582458 -43.2041 29.704163 -67.25308 41.460327 c -25.124176 12.281616 -31.755676 
            27.455017 -33.941742 45.46753 c -36.306152 -20.460205 -56.496414 -26.975159 -83.00444 
            -33.97351 c -20.749588 -4.3426514 -32.69081 -6.13562 -50.465576 -5.7470093 c -32.913116 
            0.7194824 -65.35887 14.440613 -83.47418 39.042908 c -22.187466 30.13263 -35.959827 
            68.93317 -24.25438 104.40338 c 8.413982 25.496216 30.833008 44.997437 49.689728 
            56.180725 c 18.856735 11.1831665 34.090256 19.181702 51.040283 23.380615 c 16.950012 
            4.1987915 34.94557 5.763916 50.300797 8.907654 c 15.355255 3.1436768 30.20694 4.1048584 
            47.41739 6.860718 c 17.210464 2.7559204 36.61583 5.1815186 52.37529 6.8738403 c 15.75946 
            1.6923218 29.184357 2.3930664 43.86728 2.489624 c 14.682953 0.09661865 31.367432 
            -2.350769 46.775818 -8.089355 c -1.8529053 29.638245 0.068359375 59.366272 8.960236 
            88.074646 c 6.2354736 20.13208 7.2565613 42.542847 20.598175 60.297485 c 12.611237 
            13.9157715 35.717773 10.672607 53.29782 8.118774 c 20.173553 -4.4136963 37.57611 
            -15.380981 53.14334 -27.54895 c -2.3960571 13.981445 -7.3217773 29.798462 1.3903809 
            42.5094 c 20.028442 17.198608 41.253296 20.624634 62.875244 14.683838 c 26.60559 
            0.85913086 36.372925 -15.497559 45.213806 -28.00232 c 13.386902 -18.934814 7.0825195 
            -43.55188 4.9435425 -64.94989 c -2.6796265 -26.806396 -7.828186 -58.290405 -33.987 
            -75.25787 c -2.819458 -1.8288574 -6.442566 -2.461914 -9.938599 -2.3717651 c 12.4401245 
            -10.888794 24.819641 -22.180481 40.42395 -29.282288 c 42.54315 -19.362244 91.97937 
            -25.11499 139.8617 -22.121277 c 36.898254 2.3070068 76.70624 2.4093018 110.30328 
            3.3752441 c 19.901184 11.411926 49.766785 5.853943 64.832886 -9.851929 c 17.973267 
            -19.26233 11.489563 -45.946655 15.397095 -68.8725 c 0.97351074 -22.074402 6.3067627 
            -44.838196 0.5665283 -66.63745 c -4.08374 -13.307861 -16.353455 -23.0083 -29.197937 
            -29.738281 c -4.8203735 -5.5895996 -11.99939 -9.851257 -20.443726 -9.259033 c -9.73114 
            0.6824951 -20.664917 4.6875 -28.219604 6.6591797 c -17.836365 -1.8764038 -28.674133 
            14.907593 -32.44214 28.05072 c -6.333618 21.840637 2.5344849 44.166748 6.385437 65.81653 
            c -48.69525 -3.909729 -87.95422 -18.497253 -128.48126 -34.801147 c -11.382202 -4.5790405 
            -22.998718 -9.016846 -34.4505 -13.683228 c -7.4421997 -26.937988 -28.570496 -47.896606 
            -41.556824 -72.65814 c -12.112061 -20.678528 -22.192017 -42.200806 -32.390686 -63.67285 
            c 16.653625 -35.87085 33.410583 -72.4115 60.91919 -102.806946 c 12.295227 -12.4661255 
            24.74701 -25.781067 36.870728 -38.404327 c 23.38379 -24.75531 47.822144 -51.542236 
            67.56213 -73.57037 c 20.641235 -0.30969238 37.141785 -14.98056 49.64154 -28.278748 c 
            14.527649 -15.2734375 16.227966 -36.354156 17.920532 -55.508423 c 0.91204834 -12.95578 
            -6.1308594 -29.094635 -23.430481 -28.598053 c -4.031616 0.5276184 -7.6499023 1.7472534 
            -11.02002 3.3752136 c -4.170166 -5.3080444 -10.824097 -8.204895 -18.435364 -7.4345703 c 
            -4.0754395 0.4072876 -7.8342285 1.459198 -11.277588 3.0103455 c -3.3979492 -5.1528625 
            -9.574524 -8.8246765 -16.581482 -8.164398 c -20.401794 2.797699 -34.56244 20.894653 
            -36.973816 38.221924 c -0.678772 1.8059692 -1.041565 3.0713806 -1.1843872 3.9681396 c 
            -3.2774658 4.1015015 -5.899109 8.83078 -8.754211 12.634216 c -3.8891602 10.049438 
            -3.255127 20.7547 -1.5448608 31.24347 l -1.2359009 1.8700562 c -6.0499268 9.135956 
            -12.414734 18.09555 -19.104858 26.864807 c 8.971497 -16.839539 14.730286 -40.888885 
            3.0657349 -59.3078 c -31.03418 24.497284 -63.788757 33.13968 -88.39374 21.405151 c 
            -1.3103027 -0.65670776 -2.5700073 -1.3390503 -3.810669 -2.0524902 c 26.734802 -34.564484 
            39.630066 -78.43497 28.78601 -119.81979 c -3.1009521 -11.834213 -5.3045044 -31.594986 
            -22.14215 -33.675293 c -16.837646 -2.0802765 -22.874634 19.225723 -30.38324 29.707077 z 
            M 411.43356 742.3057 c -1.2268982 17.92218 -3.4727478 35.729614 -6.2309265 53.455933 c 
            -16.269073 -7.876831 -45.32498 -29.42163 -45.32498 -29.42163 c 28.71408 -10.504944 
            37.76587 -13.901123 51.55591 -24.034302 z"/>
        <path id="path3050" d="m 480.90097 210.66522 c -20.650604 0.19662476 -44.30655 7.3079224 
            -60.76468 19.110947 c -38.74872 27.789047 -55.931427 84.9796 -85.94595 89.671036 l 
            -0.10296631 0.91223145 c 0.39126587 0.15518188 0.7929077 0.30230713 1.1843872 0.4560547 
            c 13.748047 17.517822 12.315521 41.23816 6.9003906 61.301025 c -5.663391 27.421387 
            -31.077545 53.246796 -64.00891 53.68402 c -4.758423 -0.63653564 -9.100494 -2.1322327 
            -13.079834 -4.1961975 c -16.091263 -0.58361816 -36.09088 -5.3622437 -60.970673 
            -16.237457 c 12.947449 88.61545 87.69681 95.91971 87.69681 95.91971 c 0.0 0.0 -8.238464 
            5.066498 -54.430695 4.6979065 c 2.5753937 7.7557983 23.683807 28.639648 58.086914 
            47.298462 l -21.010162 -3.010315 c 0.0 0.0 40.011993 23.18335 66.78961 23.44403 c 
            0.64627075 0.005859375 1.3520813 0.035705566 2.0083618 0.04547119 c 45.203735 14.675903 
            102.08475 20.634583 165.14603 1.5508423 L 494.8563 578.517 c 0.0 0.0 23.09549 4.8563232 
            32.59665 2.8278198 c 23.802185 -5.081726 36.651978 -22.90387 54.48224 -37.765747 C 
            618.45056 513.14264 668.42065 495.19888 696.71857 457.60257 l -17.044983 1.003418 c 0.0 
            0.0 27.653076 -18.28833 27.653076 -41.14099 c -15.813538 10.689117 -29.455383 8.84848 
            -29.455383 8.84848 c 0.0 0.0 49.58069 -45.10843 30.02185 -86.022125 C 655.4586 378.25632 
            622.37494 367.6226 597.8472 343.4385 C 573.1696 319.10663 554.7308 272.52664 530.74866 
            274.6117 c 1.9126587 3.257904 1.9052734 6.9328613 1.9052734 6.9328613 c -29.425964 
            1.4334717 -52.52536 11.858795 -52.52536 11.858795 c 0.0 0.0 22.400513 -13.683258 
            47.118317 -14.595459 c -4.70813 -19.286896 -57.10843 -10.946594 -57.10843 -10.946594 c 
            0.0 0.0 19.413788 -8.894165 35.892334 -5.24527 c 0.0 0.0 10.593353 -15.625 28.837433 
            -23.444 c -4.119568 -2.0850677 -46.478333 -17.208328 -75.9043 17.195312 c 0.0 0.0 
            -2.368805 -20.837677 30.588318 -45.337234 c -2.7955017 -0.26062012 -5.701172 -0.39297485 
            -8.651276 -0.36488342 z" style="fill:#ffffff;fill-opacity:1;stroke:none;" onClick="javascript:onPathClick('path3050');"
            class="img-path"/>
        <path id="path4244" d="m 572.82043 311.4653 c -35.761536 25.55664 -90.84485 41.961975 
            -152.63263 41.961975 c -26.55603 0.0 -51.848877 -3.0505066 -74.925934 -8.529236 c 
            1.8566284 12.33374 0.09790039 25.408264 -3.0897217 37.218475 c -5.663391 27.421387 
            -31.077545 53.246796 -64.00891 53.68402 c -4.758423 -0.63653564 -9.100494 -2.1322327 
            -13.079834 -4.1961975 c -16.091263 -0.58361816 -36.09088 -5.3622437 -60.970673 
            -16.237457 c 12.947449 88.61545 87.69681 95.91971 87.69681 95.91971 c 0.0 0.0 -8.238464 
            5.066498 -54.430695 4.6979065 c 2.5753937 7.7557983 23.683807 28.639648 58.086914 
            47.298462 l -21.010162 -3.010315 c 0.0 0.0 40.011993 23.18335 66.78961 23.44403 c 
            0.64627075 0.005859375 1.3520813 0.035705566 2.0083618 0.04547119 c 45.203735 14.675903 
            102.08475 20.634583 165.14603 1.5508423 L 494.8563 578.517 c 0.0 0.0 23.09549 4.8563232 
            32.59665 2.8278198 c 23.802185 -5.081726 36.651978 -22.90387 54.48224 -37.765747 C 
            618.45056 513.14264 668.42065 495.19888 696.71857 457.60257 l -17.044983 1.003418 c 0.0 
            0.0 27.653076 -18.28833 27.653076 -41.14099 c -15.813538 10.689117 -29.455383 8.84848 
            -29.455383 8.84848 c 0.0 0.0 49.58069 -45.10843 30.02185 -86.022125 C 655.4586 378.25632 
            622.37494 367.6226 597.8472 343.4385 C 588.8675 334.5846 580.71576 322.79428 572.82043 
            311.4653 z" style="fill:#ffffff;fill-opacity:1;stroke:none;" onClick="javascript:onPathClick('path4244');"
            class="img-path"/>
        <path id="path4179" d="m 534.8168 316.93857 l -42.741272 4.880371 c 13.386108 10.106812 
            22.296387 35.90509 27.807556 58.29071 c -3.1496582 -6.4059143 -7.935852 -11.943848 
            -15.397156 -15.598907 c -3.4938354 -1.599884 -7.348938 -2.3144226 -11.277496 -2.2805786 
            c -0.56121826 0.004425049 -1.1365662 0.010253906 -1.6993408 0.045562744 c -4.773529 
            0.08886719 -8.867584 1.6819458 -12.152924 4.1506042 l 44.904053 68.735596 l 44.183105 
            -21.893219 l -1.1843872 -4.9715576 l -12.358887 2.0980835 c 0.0 0.0 -13.56543 -39.59677 
            -19.156372 -66.1814 c -2.4575195 -11.685333 -2.3648071 -20.72287 -0.9268799 -27.2753 z"
            style="fill:#ffffff;fill-opacity:1;stroke:none;" onClick="javascript:onPathClick('path4179');"
            class="img-path"/>
        <path id="path3119" d="m 545.5793 303.39212 c -0.4567871 0.01171875 -0.88275146 0.055511475 
            -1.2873535 0.13677979 c -6.473694 1.3031616 -14.139221 14.100311 -8.548279 40.684937 c 
            5.5909424 26.584625 19.156372 66.1814 19.156372 66.1814 l 25.902222 -4.4242554 l 
            2.3172607 -2.5998535 c 0.0 0.0 -1.765564 -15.651001 -10.299072 -55.006714 c -8.000183 
            -36.895935 -20.38855 -45.1575 -27.24115 -44.97232 z" style=
            "fill:#ffffff;fill-opacity:1;stroke:none;" onClick="javascript:onPathClick('path3119');"
            class="img-path"/>
        <path id="path3052" d="m 333.2118 323.1829 c 0.0 0.0 -42.44696 -15.849487 -59.92508 
            -36.12201 c -17.32605 -20.09607 -24.552658 -26.538574 -35.788605 -26.907166 c -11.235962 
            -0.36862183 -39.117767 39.4393 -16.645859 100.99408 c 22.471909 61.55481 46.608414 
            68.558044 53.26674 71.13818 c 6.6583557 2.5801697 49.105255 -1.4743652 63.254242 
            -45.33676 c 14.148987 -43.862396 -4.161438 -63.766327 -4.161438 -63.766327 z" style=
            "fill:#ffffff;stroke:none;" onClick="javascript:onPathClick('path3052');" class="img-path"/>
        <path id="path3054" d="m 622.77106 204.14287 c -13.219849 0.8501282 -19.122314 20.102402 
            -34.038513 38.31314 c -9.799988 11.964447 -27.121582 27.284561 -38.467163 36.899216 c 
            25.078125 21.686523 35.188354 55.13022 64.16345 73.57034 c 8.038025 -10.263794 20.686218 
            -29.425446 27.961975 -55.918945 c 11.235962 -40.913666 -4.131897 -92.49516 -18.280884 
            -92.863754 c -0.44213867 -0.011672974 -0.91241455 -0.027450562 -1.3388672 0.0 z" style=
            "fill:#ffffff;fill-opacity:1;stroke:none;" onClick="javascript:onPathClick('path3054');"
            class="img-path"/>
        <path style="fill:#000000;stroke:none;" id="path3068" d="m 238.46024 281.54456 c -9.353806 
            2.5020752 -2.3471375 13.503693 -2.9131622 20.277283 c 1.8374939 25.662048 8.41037 
            46.52899 19.121704 70.47748 c 9.895096 19.508026 16.911118 32.819153 36.38307 40.865204 
            c -0.3003235 -2.5211182 0.68811035 -4.7414246 0.8435974 -6.2786865 c -6.039215 
            -3.8410645 -8.419373 -10.503052 -10.642456 -16.513733 c 4.8680725 1.8674316 10.189575 
            2.1884155 15.397156 2.8735046 c -7.301483 -10.681427 -13.995941 -25.691711 -11.535004 
            -36.89923 c 13.838867 8.798279 32.146454 9.8284 48.560272 7.252136 c -28.280579 
            -23.966156 -60.367126 -44.859406 -82.486145 -73.75867 c -3.3015442 -3.3795776 -6.934601 
            -8.601654 -12.729034 -8.295288 z"/>
        <path id="path3066" d="m 289.30835 413.11926 c 0.0 0.0 -33.291718 -12.163513 -44.527664 
            -51.234253 c -11.235977 -39.07071 -13.732849 -74.455505 -6.8664246 -77.21997 c 6.8664246 
            -2.7644348 17.061996 18.982513 40.158127 37.78067 c 23.09613 18.798157 48.06491 39.07071 
            48.06491 39.07071 c 0.0 0.0 -27.673737 3.685913 -43.903473 -11.242035 c -4.993744 
            18.982452 8.322937 39.255005 8.322937 39.255005 c 0.0 0.0 -7.906769 -0.55288696 
            -14.357025 -5.160309 c 4.161438 17.876709 11.235962 23.036987 11.235962 23.036987 l 
            -5.617981 -0.18429565 c 3.0228882 2.1506042 4.688324 2.582489 7.490631 5.8974915 z"
            style="fill:#ffffff;fill-opacity:1;stroke:none;" onClick="javascript:onPathClick('path3066');"
            class="img-path"/>
        <path id="path3074" d="m 451.0115 310.65735 c 0.35134888 -0.8251953 0.8767395 -2.5697937 
            0.8161926 -4.115448 c -4.4009094 1.5168152 -17.77414 8.380066 -23.297607 10.761597 c 
            -13.924957 6.0038147 -25.802124 34.24588 -20.392212 62.25885 c 5.1236877 26.530975 
            16.25772 54.20764 17.45697 57.15045 c 14.215637 -3.0478516 29.786285 -1.0845947 
            42.535248 7.2065125 c 5.268982 -2.4568787 10.588257 -4.9211426 15.912079 -7.343384 c 
            -10.349152 -14.608978 -13.317841 -32.534027 -13.234314 -49.670227 c 0.0 0.0 -2.1186523 
            -11.311493 -10.505096 -16.78482 c 8.239288 -1.4334717 14.676239 0.6841736 14.676239 
            0.6841736 c 3.5917664 -4.908264 9.321869 -8.3949585 16.53006 -8.529236 c 0.56277466 
            -0.035308838 1.1381226 -0.041290283 1.6993408 -0.04550171 c 3.9285583 -0.03390503 
            7.783661 0.68063354 11.277496 2.2805176 c 7.4613037 3.6550598 12.247498 9.192993 
            15.397156 15.598907 c -5.8320923 -23.689148 -15.453308 -51.19336 -30.176361 -59.887115 c 
            -12.874542 -7.602173 -24.662811 -11.558624 -38.69519 -9.565216 z" style=
            "fill:#ffffff;fill-opacity:1;stroke:none;" onClick="javascript:onPathClick('path3074');"
            class="img-path"/>
        <path style="fill:#000000;stroke:none;" id="path3076" d="m 408.59518 355.98752 l -1.2484131 
            -27.460083 l 2.704956 6.0817566 l 3.537201 -17.139496 l 2.2887878 7.5561523 l 4.161499 
            -9.583405 l 1.7150574 9.171661 l 6.399811 -15.437714 l 1.6645508 5.5288696 l 5.4099426 
            -9.214813 l -2.2888489 7.0032654 l 12.068268 -10.504883 l -3.9533691 7.187561 l 
            16.645813 -6.081787 l -5.6179504 6.8189697 l 18.726593 -3.1330566 l -5.617981 4.054535 l 
            15.189331 -0.3685913 l -2.9129944 2.0272522 l 14.773163 4.0545044 l -5.82605 2.7644348 l 
            7.490631 2.7644653 l -6.658325 0.36853027 l -6.6583557 -3.8701782 l 4.161438 -1.8429565 
            l -15.813507 -1.2900696 l 3.7453003 -2.5801392 l -14.565155 2.0272522 l 3.537262 
            -4.6073914 l -16.229706 3.685913 l 5.82605 -6.450348 l -12.900543 5.344574 l -5.409912 
            5.7131653 l -0.62420654 -3.3173218 l -3.1210938 8.661926 l -1.2484436 -4.607422 l 
            -5.617981 15.296539 l -5.4098816 -6.6346436 l -2.0807495 14.190796 l -1.8726501 
            -5.5288696 l -1.6646118 7.924713 z"/>
        <path style="fill:#000000;stroke:none;" id="path3078" d="m 535.24567 327.7998 l -1.4713745 
            -17.723083 l 2.7955322 7.68869 l -0.44140625 -11.598206 l 2.5012207 15.377411 l 
            -2.0598145 -1.5638123 z"/>
        <path style="fill:#000000;stroke:none;" id="path3080" d="m 542.08496 306.67697 l 1.3241577 
            -6.3855286 c 0.0 0.0 0.2942505 3.2579346 0.88275146 2.997284 c 0.588562 -0.2605896 
            3.0897827 -2.6063232 3.0897827 -2.6063232 l 0.44140625 4.430786 l 3.9724731 -3.6488647 l 
            0.73565674 4.0398254 l 3.2368774 -1.0425415 l 1.4713135 4.4307556 l 1.7655029 -1.9547424 
            c 0.0 0.0 7.7979126 16.810883 8.827881 24.369263 c 1.0298462 7.558319 1.0298462 
            12.119415 1.0298462 12.119415 c 0.0 0.0 -0.14709473 -10.164673 -5.4438477 -21.241608 c 
            -5.296631 -11.076935 -5.5908813 -11.598206 -5.5908813 -11.598206 l -2.0598145 1.3031616 
            l -1.6184082 -4.821686 l -2.7954712 2.6062927 l -0.588562 -4.6914062 l -3.0897217 
            3.7792053 l -1.9126587 -4.3004456 l -1.177063 3.6488647 z"/>
        <path style="fill:#000000;stroke:none;" id="path3082" d="m 554.797 349.50476 c -0.29785156 
            0.0058288574 -0.5734253 0.007293701 -0.8753662 0.045532227 c -11.540344 3.2506409 
            -9.022278 17.095154 -8.342346 25.35965 c 1.5731812 11.917847 5.9349365 23.360382 
            12.307434 33.888885 c -10.433289 2.7519226 -20.666626 6.106659 -30.742798 9.806366 c 
            0.0115356445 -1.3718262 -0.14465332 -2.782196 -0.41192627 -4.241852 c -1.4916992 
            -17.64505 -2.583496 -40.22055 -22.246094 -49.85269 c -3.4938354 -1.599884 -7.348938 
            -2.3144531 -11.277496 -2.2805176 c -0.56121826 0.0043640137 -1.1365662 0.010223389 
            -1.6993408 0.04550171 c -7.20813 0.13430786 -12.938293 3.6210327 -16.53006 8.529236 c 
            0.0 0.0 -6.43692 -2.1175842 -14.676178 -0.68411255 c 8.386383 5.4732666 10.505035 
            16.78479 10.505035 16.78479 c -0.08352661 17.13623 2.8852234 35.06128 13.234375 
            49.670258 c -5.323883 2.4221802 -10.643097 4.886444 -15.91214 7.3433228 c -23.18277 
            -15.076569 -55.731415 -9.301147 -72.40262 9.669525 c -9.8663025 11.227142 7.5004883 
            13.913452 21.85614 16.120209 c 39.173737 -13.869415 64.66672 -12.899231 98.54761 
            -11.252869 c 48.681213 2.365509 79.33954 -21.283325 91.85126 -42.3815 c 7.225403 
            -12.184082 7.7816772 -26.352997 -3.6983032 -25.793732 c -12.671387 0.61727905 -15.430603 
            7.3587036 -24.35736 13.683258 c -0.31054688 0.054138184 -0.6168213 0.12713623 -0.9268799 
            0.18240356 c -0.017700195 -0.26690674 -0.045837402 -0.5272522 -0.103027344 -0.8209839 c 
            -1.2050781 -14.271942 -2.7456055 -30.228882 -10.71106 -42.874207 L 567.41345 350.87308 L 
            564.0662 354.88687 c -1.0893555 -1.2401123 -2.2316284 -2.4652405 -3.501709 -3.6032715 c 
            -1.6855469 -1.0927429 -3.682373 -1.8163147 -5.767517 -1.7788391 z"/>
        <path id="path3089" d="m 554.74554 352.42386 c -5.4438477 0.52127075 -8.254028 8.19043 
            -5.458557 25.131561 c 0.020141602 0.12219238 0.030700684 0.24304199 0.051452637 
            0.3649292 c 0.79052734 -4.943939 3.0640259 -8.164337 6.385437 -8.164337 c 5.4622803 0.0 
            11.670715 8.722778 13.852295 19.47583 c 1.5128784 7.457306 0.7130127 13.924866 
            -1.7508545 17.195282 c 2.5980835 -0.5832825 5.1955566 -1.1349182 7.8272705 -1.6419678 c 
            -0.008239746 -1.7473755 -0.19989014 -13.019745 -3.8621216 -26.956024 c -3.9725342 
            -15.11676 -11.601196 -25.926544 -17.045044 -25.405273 z" style=
            "fill:#ffffff;stroke:none;" onClick="javascript:onPathClick('path3089');" class="img-path"/>
        <path id="path3098" d="m 401.04367 482.41446 l -18.310455 -12.532135 c 1.6645813 -1.1058044 
            17.518524 -24.157318 43.854797 -29.630646 c 26.336243 -5.4733276 41.19638 7.16745 
            41.19638 7.16745 c 0.0 0.0 46.19876 -22.5448 78.56741 -32.188263 c 32.36859 -9.643433 
            35.60547 -8.3403015 35.60547 -8.3403015 c 0.0 0.0 13.010559 -12.56955 22.58197 -15.51828 
            c 9.57135 -2.9487 19.142761 20.641113 21.639587 44.96817 c 2.4968872 24.327057 
            -13.940857 44.415283 -50.561768 48.46985 c -38.7016 18.798157 -75.53055 11.979218 
            -90.92798 8.293274 c -15.3974 -3.685913 -31.627136 -18.798157 -31.627136 -18.798157 l 
            -13.316681 8.109039 z" style="fill:#ffffff;fill-opacity:1;stroke:none;" onClick="javascript:onPathClick('path3098');"
            class="img-path"/>
        <path style="fill:#000000;stroke:none;" id="path3138" d="m 621.17474 429.87115 c 0.0 0.0 
            6.034851 22.115479 -5.201111 36.306244 c -1.0533447 1.3303833 -2.2608032 2.5634155 
            -3.5531616 3.6944885 c -0.01763916 0.015319824 -0.033935547 0.030212402 -0.0513916 
            0.045532227 l -6.4884644 4.1506042 c -1.4575806 0.9376221 -2.977539 1.7973022 -4.531555 
            2.599823 c -0.032836914 0.016906738 -0.070251465 0.028747559 -0.103027344 0.045532227 c 
            -11.313965 4.9680786 -23.327454 6.0662537 -23.327454 6.0662537 l 8.084778 -17.14972 c 
            0.0 0.0 -9.12854 11.818085 -12.87384 15.87262 c -3.7453003 4.0545044 -10.4021 13.628387 
            -51.392517 14.549866 c -40.990417 0.92144775 -63.69992 -20.661774 -63.69992 -20.661774 l 
            13.337311 -6.0661926 c 0.0 0.0 -6.2641296 -3.3340454 -18.332397 1.6419983 c -12.068207 
            4.975952 -13.491791 16.054993 -13.491791 16.054993 l 12.87384 -9.760742 c 18.934723 
            17.139557 40.788116 21.743439 71.16678 23.033508 c 2.8850708 0.12246704 5.718689 
            0.091796875 8.445251 -0.04550171 c -0.23486328 0.585022 -0.45843506 1.19281 -0.72088623 
            1.9156189 c -9.364746 18.956177 -22.39151 39.426514 -17.405457 60.70813 c 2.7659302 
            11.1311035 19.254272 9.609619 26.983582 3.7400513 c 23.877502 -13.972534 40.77008 
            -35.207092 52.010437 -58.29068 c 6.836853 0.7866211 9.41571 -8.738525 11.94696 
            -13.090332 c 3.0599976 -7.1218567 4.80072 -14.65863 7.5183716 -21.938843 c 0.006591797 
            -0.018249512 0.0446167 -0.027282715 0.0513916 -0.045562744 c 1.7047119 -1.3079529 
            3.3799438 -2.7189941 4.995056 -4.287384 c 17.27008 -16.770935 3.7592163 -39.08853 
            3.7592163 -39.08853 z m -54.79126 62.213196 c -0.03491211 0.093170166 -0.070007324 
            0.17849731 -0.10296631 0.27371216 c -7.82251 9.504303 -14.60907 20.128448 -23.73944 
            28.415558 c -4.480957 -0.23223877 -4.494507 -7.6573486 -5.3554688 -10.90097 c 
            -0.43640137 -2.881134 -0.6121216 -6.932068 -0.9784546 -9.943176 c 12.601074 -1.2099609 
            23.099854 -4.7616577 30.17633 -7.8451233 z"/>
        <path style="fill:#000000;stroke:none;" id="path3142" d="m 583.84045 404.78516 c -17.527039 
            1.4460449 -40.924744 4.4388733 -47.530273 21.482727 c -3.2922974 7.506378 8.445251 
            10.654846 13.749268 14.5954895 c 9.604431 5.2590027 20.23462 8.845734 31.309204 
            10.718536 c 10.871521 -12.32135 17.79132 -29.223938 13.543335 -44.789886 c -2.8851318 
            -2.5280457 -7.343384 -2.1392517 -11.071533 -2.0068665 z"/>
        <path id="path3140" d="m 538.84814 429.95673 c 0.0 0.0 0.3731079 -14.897705 27.0719 
            -19.808167 c 26.924805 -4.952057 26.483398 -1.1728821 26.483398 -1.1728821 c 3.531128 
            22.15387 -12.358887 39.355713 -12.358887 39.355713 c 0.0 0.0 -21.628113 -2.9973145 
            -41.19641 -18.374664 z" style="fill:#ffffff;fill-opacity:1;stroke:none;" onClick="javascript:onPathClick('path3140');"
            class="img-path"/>
        <path id="path3146" d="m 566.17755 492.1756 c -7.1419067 3.0924377 -17.69043 6.635071 
            -30.330872 7.799469 c 0.5263672 4.4417114 2.55542 20.218536 5.35553 21.345856 c 
            2.4677734 0.9935913 17.764832 -19.338806 24.975342 -29.145325 z" style=
            "fill:#ffffff;fill-opacity:1;stroke:none;" onClick="javascript:onPathClick('path3146');"
            class="img-path"/>
        <path id="path3148" d="m 607.83734 476.43985 c -6.1643066 3.8804321 -12.427551 6.375183 
            -17.76587 7.93631 c 2.6282349 9.4878845 0.45239258 18.460999 2.9352417 21.02658 c 
            2.6483154 2.7366943 9.835632 -11.976074 11.895386 -19.795105 c 1.116272 -4.2374268 
            2.1864014 -7.226776 2.9352417 -9.167786 z" style=
            "fill:#ffffff;fill-opacity:1;stroke:none;" onClick="javascript:onPathClick('path3148');"
            class="img-path"/>
        <path id="path3150" d="m 587.13617 485.19717 c -6.4241943 1.6083679 -10.917053 1.8244019 
            -10.917053 1.8244019 c 0.0 0.0 -1.5636597 1.0290527 -4.428589 2.508606 c -4.4020996 
            7.7912292 -11.152039 14.562561 -16.37561 21.984467 c -4.6763916 3.9142456 -8.205994 
            14.045959 -16.066528 12.223694 c -4.699402 -5.0512085 -5.357422 -11.86261 -6.0249634 
            -18.518005 c -3.0700073 5.5970764 -7.171692 13.496216 -10.608093 21.710754 c 0.19854736 
            0.045959473 0.354187 0.09674072 0.5664673 0.13677979 c 15.638794 1.9501343 30.044128 
            15.2994995 27.086609 29.419006 c 9.138794 -6.9626465 19.316528 -16.491333 26.159729 
            -26.727966 c 5.7681274 -8.62854 10.299377 -16.682922 13.646301 -23.170319 c -3.4126587 
            -6.4826355 -1.4182739 -14.289215 -3.038269 -21.39151 z" style=
            "fill:#ffffff;fill-opacity:1;stroke:none;" onClick="javascript:onPathClick('path3150');"
            class="img-path"/>
        <path id="path3181" d="m 521.6339 529.7134 c -2.970398 7.510681 -5.2889404 15.109009 
            -5.612976 21.300232 c -1.0299072 19.677856 8.562927 17.605835 15.036621 16.693604 c 
            2.5612183 -0.36090088 8.151184 -3.3185425 14.779236 -7.9362793 c 1.5283203 -3.574463 
            3.3079834 -10.663513 -2.265747 -18.19873 c -6.1657715 -8.335449 -17.29187 -11.059814 
            -21.937134 -11.858826 z" style="fill:#ffffff;stroke:none;" onClick="javascript:onPathClick('path3181');"
            class="img-path"/>
        <path id="path3072" d="m 493.92935 365.14926 c -4.580475 -0.07556152 -8.975647 1.1636963 
            -12.564911 3.3752136 c -9.57135 5.8974915 -8.326294 25.233002 -4.789093 42.372528 c 
            3.0481567 14.76947 8.755646 22.450073 10.350616 24.401825 c 1.7655945 -0.7973938 
            3.5323486 -1.5840759 5.304016 -2.3717651 c -5.8096313 -4.264984 -10.650116 -13.280273 
            -12.049927 -23.763245 c -1.9475098 -14.585022 3.4668274 -26.408722 12.101471 -26.408722 
            c 8.634552 0.0 17.20877 11.8237 19.156311 26.408722 c 0.8022156 6.0075073 0.37780762 
            11.52655 -1.0299377 15.963776 c 4.3685303 -1.793457 8.7526245 -3.5287476 13.182861 
            -5.1996155 c -0.105651855 -8.049469 -1.0765381 -29.7547 -8.2907715 -41.64273 c -5.59198 
            -9.214813 -13.736542 -13.009979 -21.370636 -13.135986 z" style=
            "fill:#ffffff;stroke:none;" onClick="javascript:onPathClick('path3072');" class="img-path"/>
        <path id="path3961" d="m 493.0539 386.76883 c -6.740448 0.0 -10.943939 10.033936 -9.423645 
            22.394989 c 1.3489075 10.967163 6.75412 20.06604 12.667908 21.984436 c 2.96167 
            -1.2980042 5.92511 -2.6186523 8.908722 -3.8769531 c 2.5552063 -4.067749 3.7490234 
            -10.653687 2.8322449 -18.107483 c -1.5203247 -12.361053 -8.24472 -22.394989 -14.9852295 
            -22.394989 z" style="fill:#ffffff;fill-opacity:1;stroke:none;" onClick="javascript:onPathClick('path3961');"
            class="img-path"/>
        <path id="path3963" d="m 717.99603 474.95142 c 0.2043457 14.351471 -6.0578003 25.985687 
            -13.9869995 25.985687 c -7.929199 0.0 -14.522766 -11.634216 -14.727051 -25.985687 c 
            -0.20440674 -14.351532 6.0578003 -25.985718 13.986938 -25.985718 c 7.929199 0.0 
            14.522766 11.634186 14.727112 25.985718 z" style="fill:#000000;stroke:none;" transform="matrix(0.41388723,0,0.04568298,0.45688352,183.04375,192.81099)"/>
        <path id="path3965" d="m 753.3442 473.67996 c -0.11273193 14.351532 -6.631958 25.985718 
            -14.561157 25.985718 c -7.929199 0.0 -14.265686 -11.634186 -14.152954 -25.985718 c 
            0.11273193 -14.351501 6.631958 -25.985718 14.561157 -25.985718 c 7.929199 0.0 14.265686 
            11.634216 14.152954 25.985718 z" style="fill:#ffffff;stroke:none;" onClick="javascript:onPathClick('path3965');"
            class="img-path" transform="matrix(0.39105203,0,-0.02380493,0.43247196,211.71436,194.26919)"/>
        <path id="path3969" d="m 556.4964 372.7207 c -4.0011597 0.0 -6.013489 6.5375977 -4.7890625 
            14.869141 c 2.0462646 6.525299 4.617981 11.959778 6.5913696 15.644531 c 1.4888916 
            1.5761719 3.0860596 2.4629822 4.58313 2.4629822 c 4.264038 0.0 6.2980957 -7.352173 
            4.531616 -16.465515 c -1.7665405 -9.113373 -6.653015 -16.511139 -10.917053 -16.511139 z"
            style="fill:#ffffff;fill-opacity:1;stroke:none;" onClick="javascript:onPathClick('path3969');"
            class="img-path"/>
        <path id="path3971" d="m 1018.97125 497.24356 c 0.39074707 14.351532 -5.720459 25.985687 
            -13.649597 25.985687 c -7.929199 0.0 -14.673767 -11.634155 -15.064453 -25.985687 c 
            -0.39068604 -14.351501 5.720459 -25.985687 13.649658 -25.985687 c 7.929199 0.0 14.673767 
            11.634186 15.064392 25.985687 z" style="fill:#000000;stroke:none;" transform="matrix(0.26182667,0,0.05524453,0.33684451,269.30612,222.20502)"/>
        <path id="path3973" d="m 1075.6111 497.23044 c 0.07397461 14.351501 -6.2940674 25.985687 
            -14.223145 25.985687 c -7.929199 0.0 -14.416992 -11.634186 -14.490967 -25.985687 c 
            -0.07397461 -14.351501 6.2939453 -25.985657 14.223145 -25.985657 c 7.929199 0.0 
            14.416992 11.634155 14.490967 25.985657 z" style="fill:#ffffff;stroke:none;" onClick="javascript:onPathClick('path3973');"
            class="img-path" transform="matrix(0.24738104,0,0.00987857,0.3188467,287.52735,223.2801)"/>
        <path id="path3019" d="m 703.722 450.3048 c -3.0488892 -0.1887207 -8.500488 2.6875305 
            -13.337341 4.60672 c 1.7130127 0.8239136 10.199036 -1.0812073 12.87384 -0.6385803 c 
            -25.282104 36.89038 -70.65137 56.14154 -107.31659 82.37323 c -23.76294 15.55426 
            -39.668518 43.80072 -71.16675 48.02832 c -4.418335 0.59295654 -9.889465 0.4401245 
            -19.053345 -0.09124756 c -4.853607 0.89294434 -9.445465 1.7722778 -13.955261 2.6454468 c 
            -18.76892 7.1710815 -35.375122 13.872498 -40.784454 15.735718 c -7.4906006 2.5801392 
            -21.64743 1.8292847 -29.970367 5.88385 c -8.3229065 4.0545044 -45.894623 35.183105 
            -63.648407 46.066956 c -33.561493 20.574768 -62.255707 22.842163 -67.51059 60.480103 c 
            -3.6618958 26.228455 10.919403 45.32605 36.30432 46.431824 c 1.8552856 0.08087158 
            3.9179688 -0.24041748 6.179474 -0.91223145 c -18.50473 -1.4213257 -30.836182 -13.05835 
            -34.965454 -31.106628 c -4.9720154 -14.753662 31.278229 -27.171997 40.629944 -38.997314 
            c 15.640076 -7.607483 53.196686 -17.630798 73.38104 -24.447388 c 6.085663 -18.928955 
            16.269623 -37.286316 38.312683 -40.411255 c 11.975372 -9.119568 24.9617 -21.075684 
            42.27777 -22.166931 c 4.9037476 -0.0904541 9.88678 -0.047973633 14.727722 0.63861084 c 
            10.498932 0.1383667 17.912079 9.053101 15.809113 18.06189 c 1.1691895 2.5602417 
            -3.8182983 7.916504 0.5664673 8.118774 c 13.428284 1.6989746 17.85028 16.450195 
            11.586487 25.906982 c -3.94812 3.1192627 1.1273193 3.4036255 3.038208 5.6101074 c 
            10.471558 10.530457 0.8921509 25.535889 -8.033264 34.253784 c -20.327667 21.118652 
            -55.42807 24.54956 -84.96756 26.63678 c -11.03833 5.050232 -21.330536 12.622131 
            -29.918884 18.609192 c -1.8027039 20.090881 -4.0684204 41.948547 -6.642914 58.5188 c 
            -6.2421875 40.176453 -30.81131 123.854614 -13.749298 189.83246 c 17.061981 65.97803 
            15.372803 84.02637 53.658264 82.920654 c 26.747711 -0.772583 41.927856 -6.095581 
            79.30307 -34.345093 l 19.310852 -22.531738 l -16.787537 4.515503 c 0.0 0.0 15.441284 
            -9.519653 21.473572 -15.64447 l -17.199463 1.0946045 c 0.0 0.0 17.48639 -4.86084 
            20.134766 -10.855408 c -4.708191 3.1276245 -21.473694 2.0981445 -21.473694 2.0981445 c 
            0.0 0.0 15.748901 -5.3894043 28.065063 -13.5008545 C 552.94135 988.28326 538.5245 
            986.41516 538.5245 986.41516 c 0.0 0.0 21.466248 -11.624329 27.498535 -18.791687 l 
            -15.706116 2.7822266 c -11.100037 8.668518 -19.877258 15.142883 -19.877258 15.142883 c 
            0.0 0.0 67.86505 -65.98389 94.082275 -81.09619 c 26.217224 -15.112244 87.359314 
            -28.753357 126.06091 -26.910461 c 12.454102 0.59313965 32.72339 1.2747192 54.121826 
            1.9613037 c 1.9291992 -1.7936401 3.9544678 -3.5253296 6.1794434 -5.062805 c -4.3189697 
            0.43988037 -12.356689 3.203125 -17.920471 4.2874146 c 5.7455444 -6.9904175 12.02771 
            -13.609863 19.825806 -18.882874 c -7.604065 0.8291626 -15.234253 -0.083740234 -22.50354 
            -2.1437378 c 7.043335 -3.920166 14.043762 -7.913513 19.774292 -13.318359 c -6.6276245 
            0.8980713 -18.68457 0.20550537 -26.571716 -2.4174194 c 8.385498 -2.742859 17.416748 
            -4.463806 24.769287 -9.167786 c -4.623474 -0.9178467 -13.438721 -3.3886108 -18.486816 
            -6.9328003 c 7.1741333 -1.677185 16.909607 -5.99292 22.760986 -10.216858 c -5.345276 
            -4.0376587 -11.017029 -7.2331543 -13.543274 -11.311462 c 1.8682251 -0.9172363 5.2891846 
            -1.196228 8.342224 -2.006958 c -0.37835693 -0.67022705 -2.380249 -3.729187 -4.3255615 
            -6.7504272 C 775.19446 787.2853 700.2718 756.9924 700.2718 756.9924 l 1.2359009 28.05072 
            c 0.0 0.0 -4.9919434 -39.810364 -25.799255 -67.823425 c -20.807373 -28.01294 -38.696655 
            -64.14459 -46.603455 -80.7312 L 605.3656 586.727 L 621.99866 610.3078 c 0.0 0.0 
            31.468689 -72.00531 60.76465 -100.252716 c 9.894226 -9.54007 23.879517 -24.18808 
            38.467102 -39.8183 c 0.17852783 -3.2500916 -6.142334 1.6983948 -11.483459 3.3295593 c 
            2.6124878 -4.485626 5.076111 -8.904358 5.6644897 -12.67981 c -2.393982 0.6351929 
            -10.484741 5.2286987 -15.036682 6.339905 c 2.345459 -5.2535706 4.5059814 -10.771454 
            4.89209 -16.374298 c -0.39691162 -0.33465576 -0.9161377 -0.50842285 -1.5448608 
            -0.54733276 z" style="fill:#ffffff;fill-opacity:1;stroke:none;" onClick="javascript:onPathClick('path3019');"
            class="img-path"/>
        <path id="path3026" d="m 728.28534 369.16306 c -4.4779663 6.771637 -21.693115 32.279846 
            -41.247925 53.68402 c 8.878052 -1.5481262 16.498291 -6.300598 23.5849 -11.083466 c 
            1.6685791 14.421112 -5.732849 27.853516 -16.22107 38.450012 l 13.182861 -4.8804016 c 
            2.942627 4.430786 -1.4418335 16.419922 -1.4418335 16.419922 c 0.0 0.0 10.608093 
            -3.3947754 14.727661 -11.995636 c -0.29418945 8.600861 -4.428589 17.468933 -4.428589 
            17.468933 c 0.0 0.0 7.3638306 -3.629303 9.423645 -9.623871 c 0.31115723 2.2966614 
            -0.14941406 5.4275513 -0.8239136 8.529236 C 757.8649 430.8225 792.6547 391.74045 
            792.6547 391.74045 l -17.707153 -7.5062866 c -4.946411 2.5973206 -10.667603 3.5897217 
            -13.602173 2.215393 c -10.711426 -1.9345703 -17.021729 -7.6216736 -27.601562 -11.767578 
            c -2.2162476 0.34750366 -4.076111 -1.8834534 -5.458496 -5.518921 z" style=
            "fill:#ffffff;fill-opacity:1;stroke:none;" onClick="javascript:onPathClick('path3026');"
            class="img-path"/>
        <path id="path3036" d="m 731.88 375.89145 c 0.0 0.0 -7.9067993 -31.698853 1.2484131 
            -43.30951 c 9.155212 -11.610657 12.484436 -18.798157 22.888062 -16.770905 c 10.403687 
            2.0272522 16.645874 8.477631 24.344543 8.109039 c 7.6987305 -0.3685913 16.854004 
            -5.713196 21.015442 0.18429565 c 4.161377 5.8974304 1.0403442 16.586609 -9.987549 
            20.641113 c -11.027893 4.054474 -35.788574 4.054474 -35.788574 4.054474 c 0.0 0.0 
            8.322876 3.3173523 28.297974 1.105835 c 0.0 0.0 5.0670166 5.336334 4.5775757 12.532074 c 
            -1.0404053 15.29657 -29.130249 26.35431 -29.130249 26.35431 z" style=
            "fill:#ffffff;fill-opacity:1;stroke:none;" onClick="javascript:onPathClick('path3036');"
            class="img-path"/>
        <path id="path3038" d="m 832.6667 291.8526 c -13.636536 0.67596436 -27.261536 16.85904 
            -34.347473 27.001648 c 1.3769531 0.31210327 2.7252197 0.8461914 4.0166016 1.7331848 c 
            10.39978 10.086578 -0.5657959 26.560974 -14.418701 28.278778 c 0.0713501 0.467865 
            0.1984253 0.9161072 0.30889893 1.3683167 c 0.77020264 1.478302 1.7800903 3.2533264 
            2.5233154 5.108429 c 0.7939453 0.93270874 1.7617188 1.7963562 2.9353027 2.508606 c 
            11.235901 6.8189087 33.07599 -12.9157715 36.61328 -21.209076 c 3.5372314 -8.293304 
            8.960144 -19.703918 8.960144 -19.703918 c 0.0 0.0 -3.329712 16.184906 -10.196045 
            25.952606 c -6.866455 9.7677 -19.585632 18.787994 -28.116577 19.156586 c -3.3336182 
            0.14407349 -6.3654785 0.098083496 -9.112549 -1.3572083 c 0.96881104 13.418762 -12.444458 
            21.658081 -25.02893 27.90274 l 8.13623 8.483612 c 0.0 0.0 16.657959 3.7063293 29.558472 
            -2.0068665 c 12.900574 -5.7131653 38.6828 -25.805573 42.844177 -44.97232 c 4.161499 
            -19.16681 12.298096 -48.674713 -7.260803 -56.968018 c -2.4448853 -1.0366516 -4.931885 
            -1.4002075 -7.415344 -1.2770996 z" style="fill:#ffffff;fill-opacity:1;stroke:none;"
            onClick="javascript:onPathClick('path3038');" class="img-path"/>
        <path id="path3045" d="m 804.0867 287.74762 c -9.463379 0.29244995 -20.7984 6.0276184 
            -31.618225 22.349335 c -1.7144775 2.5863037 -3.020996 4.9217834 -4.0166626 7.0240784 c 
            0.75494385 0.35342407 1.5263062 0.69918823 2.265808 1.0490417 c 7.1688232 5.8844604 
            15.999023 0.49282837 24.0484 0.31930542 c 6.5164185 -8.858093 13.72937 -18.692749 
            23.636414 -24.58432 c -1.7752686 -2.4858704 -4.348633 -4.7041016 -8.084778 -5.5644836 c 
            -1.9506226 -0.44921875 -4.047058 -0.6604309 -6.230957 -0.59295654 z" style=
            "fill:#ffffff;fill-opacity:1;stroke:none;" onClick="javascript:onPathClick('path3045');"
            class="img-path"/>
        <path id="path3047" d="m 775.3007 282.6392 c -10.699829 0.56625366 -22.389282 10.239807 
            -28.63153 20.433685 c -2.6209106 4.280121 -4.097168 9.381348 -4.9435425 14.002533 c 
            2.6950073 -2.2258606 5.824646 -3.8873901 9.681152 -4.469879 c 5.008362 -0.28048706 
            9.718201 1.2667236 14.161255 3.19281 c 5.2615967 -9.976685 12.678589 -20.470642 
            23.172974 -26.363129 C 786.90186 286.25433 783.5052 283.03558 777.4635 282.6392 c 
            -0.7022705 -0.04611206 -1.4494629 -0.03778076 -2.1627808 0.0 z" style=
            "fill:#ffffff;fill-opacity:1;stroke:none;" onClick="javascript:onPathClick('path3047');"
            class="img-path"/>
        <path id="path3075" d="m 152.30829 680.09247 c -19.274582 0.58935547 -36.485367 4.8009033 
            -51.289505 12.406189 c -41.61464 21.378296 -69.11976 88.48065 -52.473904 129.76294 c 
            7.9971466 19.83319 24.301113 37.070496 44.38911 50.49121 c -16.117157 -43.957886 
            -13.047012 -93.78516 7.724327 -136.0116 c 10.794716 -22.102905 28.746025 -43.063354 
            51.64997 -56.648743 z m 72.09369 12.269348 c -46.015152 14.091064 -74.33913 55.687317 
            -84.71008 96.1933 c -8.93512 35.455383 -6.989441 74.48657 7.775818 108.690735 c 
            6.1733093 1.6455688 12.314438 2.9422607 18.435394 3.8770142 c 7.6852417 1.173584 
            17.311417 2.753418 27.601578 4.4241943 c -10.593216 -47.26764 -7.70961 -97.180725 
            13.2343445 -141.7586 c 10.688889 -22.652649 29.468216 -44.9151 54.43074 -56.192627 c 
            -12.632233 -6.133484 -24.921204 -11.185974 -36.76779 -15.234009 z M 290.3677 745.31604 c 
            -4.783386 3.7998047 -9.12973 8.022705 -12.873901 12.588562 c -35.272247 42.270203 
            -41.714462 97.9823 -35.06842 148.87396 c 0.3251953 2.1867065 0.7017517 4.376587 
            1.0814209 6.567993 c 16.792358 2.421753 34.08795 4.5976562 50.620056 6.203003 c 
            -12.44635 -28.855713 -14.7854 -61.23407 -4.4801025 -90.58319 c 8.99881 -27.786682 
            33.06079 -52.2489 63.54541 -62.304443 c -5.4100037 0.9130249 -10.8923645 1.4196777 
            -16.478546 1.4138794 c -18.607239 0.5687256 -38.270905 -7.859131 -46.345917 -22.759766 z 
            m 99.128784 44.516235 c -15.972137 6.9978027 -29.702179 18.100952 -38.72458 31.882019 c 
            -20.340637 30.282593 -22.685974 67.10565 -11.277527 100.34387 c 10.8186035 -0.07305908 
            20.366547 -0.8494873 27.85907 -2.508606 c 6.5225525 -1.4442139 12.78891 -3.3736572 
            18.744354 -5.6100464 c 1.2992249 -18.096558 3.9319763 -36.16638 7.2093506 -53.91217 c 
            4.2084656 -20.414612 8.219208 -40.804993 11.48349 -61.301025 c -5.241699 -2.8703613 
            -10.300903 -5.8378296 -15.242645 -8.894043 c -0.013183594 0.005859375 -0.037719727 
            -0.005859375 -0.05142212 0.0 z" style="fill:#ffffff;fill-opacity:1;stroke:none;"
            onClick="javascript:onPathClick('path3075');" class="img-path"/>
        <path id="path3077" d="M 365.9641 683.6249 L 301.5937 698.79297 c 0.0 0.0 -4.1640625 
            5.130371 -9.990112 16.556702 c -5.82605 11.426331 -3.768341 47.918518 43.256195 
            49.761475 c 19.777222 0.7751465 42.44632 -7.100525 62.052063 -16.511108 c 2.3671265 
            -5.6622925 4.8879395 -11.329468 5.5615234 -17.377747 c -6.089508 3.2752075 -13.551514 
            2.6390991 -20.289215 1.8244629 c 6.636139 -5.5548096 12.477753 -11.686096 17.45697 
            -18.518127 c -9.714233 0.54644775 -22.732727 -0.6782837 -32.957092 -4.333008 c 9.471191 
            -4.882263 19.735504 -9.566711 26.726166 -17.05841 c -9.694916 -0.53741455 -22.964264 
            -6.630066 -27.446075 -9.512329 z" style="fill:#ffffff;fill-opacity:1;stroke:none;"
            onClick="javascript:onPathClick('path3077');" class="img-path"/>
        <path id="path3086" d="m 370.38434 682.7713 l 43.844727 -14.856079 c 0.0 0.0 10.299103 
            -31.276123 27.6604 -37.01001 c 17.36139 -5.7339478 22.216644 0.78186035 22.216644 
            0.78186035 c -5.738037 3.5185547 -22.216644 8.861572 -22.216644 8.861572 c 0.0 0.0 
            17.067078 -1.5637817 27.36621 -7.5584106 c 10.299103 -5.994568 17.361328 -16.680542 
            17.361328 -16.680542 c 0.0 0.0 -16.03714 13.031677 -18.53836 13.162048 c -4.1196594 
            -4.170166 -12.358948 -3.7792358 -12.358948 -3.7792358 c 0.0 0.0 18.832642 -19.026245 
            38.253815 -19.026245 c 19.421143 0.0 25.600586 2.8670044 25.306335 13.813599 c 
            -0.2942505 10.946655 -3.531128 12.249756 -3.531128 12.249756 c 0.0 0.0 15.595825 
            -0.52124023 17.94983 10.164734 c 2.354126 10.685974 -6.473694 17.983704 -6.473694 
            17.983704 c 0.0 0.0 10.887634 0.26062012 11.770386 11.207275 c 0.8828125 10.946594 
            -14.124451 29.190979 -35.311157 37.79187 c -21.186737 8.600891 -60.911804 10.164673 
            -60.911804 10.164673 L 402.16437 744.2809 c 0.0 0.0 5.2967224 -11.728516 3.5311584 
            -20.590088 c -4.119629 8.340271 -16.184326 7.0371704 -16.184326 7.0371704 c 0.0 0.0 
            14.713043 -14.07428 15.890076 -20.590149 c -14.712982 3.909546 -30.603027 -0.78186035 
            -30.603027 -0.78186035 c 0.0 0.0 20.598175 -9.3828125 25.012085 -20.068787 c -14.713013 
            3.3882446 -29.425995 -6.515808 -29.425995 -6.515808 z" style=
            "fill:#ffffff;fill-opacity:1;stroke:none;" onClick="javascript:onPathClick('path3086');"
            class="img-path"/>
        <path style="fill:#000000;stroke:none;" id="path3105" d="m 572.6793 729.34875 c 0.0 0.0 
            -2.142456 24.37384 -9.524963 35.190796 c -7.3825073 10.817078 -16.442932 25.507019 
            -16.442932 25.507019 l 11.35791 -6.377136 c 0.0 0.0 -4.10437 6.741211 -6.659851 
            12.829407 c -3.7925415 9.035156 -4.362488 14.25531 -4.362488 14.25531 c 0.0 0.0 
            2.6381836 -3.5305176 8.678467 -7.4661865 c -7.7181396 11.149353 -3.6397705 20.556213 
            -3.6397705 20.556213 c 0.0 0.0 1.6727295 -5.4090576 5.0284424 -8.731995 c -7.046997 
            15.452454 7.062256 43.209167 7.062256 43.209167 c 0.27703857 -7.9609375 -0.109436035 
            -14.207397 2.0083008 -22.579529 c 0.0 0.0 3.695984 25.40216 19.834778 34.83795 c 
            15.7717285 9.22113 25.58728 11.308899 38.12079 -4.3374023 c 12.7052 -15.860718 13.128479 
            -32.87793 4.119629 -49.392883 l 8.807434 5.7333984 c 0.0 0.0 -17.03656 -48.681946 
            -46.90222 -63.817993 l 4.1972046 16.825256 c 0.0 0.0 -2.5917358 -14.362549 -12.323242 
            -16.99945 c 0.0 0.0 2.4417725 -13.636658 -9.359741 -29.241943 z"/>
        <path id="path3096" d="m 574.30646 727.3396 c 0.0 0.0 -0.588562 28.409119 -7.062256 37.27063 
            c -6.473694 8.861572 -14.418762 20.068848 -14.418762 20.068848 l 13.830261 -9.122192 c 
            0.0 0.0 -6.1794434 7.819031 -9.710571 15.37738 c -3.531128 7.5584106 -3.8253784 
            12.249817 -3.8253784 12.249817 c 0.0 0.0 4.119629 -7.2978516 9.416321 -10.164795 c 
            -6.7680054 9.122192 -7.062256 21.89325 -7.062256 21.89325 c 0.0 0.0 3.531189 -6.255188 
            6.473755 -8.861511 c -6.1795044 13.031677 0.0 40.398193 0.0 40.398193 c 1.2750854 
            -8.340271 0.42010498 -9.133728 3.8253784 -25.020813 c 0.0 0.0 5.5632935 34.955017 
            19.715393 45.0896 c 13.8302 9.904053 23.835083 14.334839 36.78247 3.3881836 c 12.947449 
            -10.946533 11.770447 -43.004517 0.0 -59.163757 l 8.239319 4.9519653 c 0.0 0.0 -12.358948 
            -34.924866 -38.548096 -51.60547 l 2.6483154 12.771118 c 0.0 0.0 -5.885132 -13.292297 
            -14.418701 -16.680542 c 0.0 0.0 -1.4713135 -10.946655 -5.885132 -32.839905 z" style=
            "fill:#ffffff;fill-opacity:1;stroke:none;" onClick="javascript:onPathClick('path3096');"
            class="img-path"/>
        <path style="fill:#000000;stroke:none;" id="path3099" d="m 596.67017 811.785 c 0.0 0.0 
            -6.473694 29.4516 0.29431152 38.05249 c 6.7680054 8.600952 11.181824 -9.904053 11.181824 
            -9.904053 c 0.0 0.0 -5.0023804 10.946655 -7.650757 7.5584106 c -2.6483154 -3.3883057 
            -3.8253784 -35.70685 -3.8253784 -35.70685 z"/>
        <path id="path3107" d="m 158.43625 680.0468 c -42.646378 22.790222 -72.40266 74.09192 
            -72.40266 133.7312 c 0.0 22.127686 4.107399 43.09485 11.432007 61.89392 c 14.193306 
            8.835022 30.022118 15.815796 46.088463 20.47931 c -8.022659 -19.503723 -12.564911 
            -41.450745 -12.564911 -64.67627 c 0.0 -66.925964 37.41716 -123.3363 88.52075 -140.75519 
            c -21.955261 -7.0477905 -42.406982 -10.503479 -61.073654 -10.672974 z m 106.2352 
            29.282227 c -48.426483 20.202026 -79.577866 85.89752 -72.86612 163.87988 c 0.96858215 
            11.253723 2.72081 22.24292 5.098053 32.885437 c 13.28331 2.1530762 27.703003 4.4976807 
            43.10173 6.7504272 c -1.023468 -6.2405396 -1.8157196 -12.593567 -2.368805 -19.019775 c 
            -5.6662292 -65.83484 15.562988 -122.94202 51.444016 -151.29126 c -0.700531 -1.6542969 
            -1.2885437 -3.3619385 -1.6993713 -5.1539917 c -1.8587646 -5.4940186 -2.5357666 -10.57489 
            -2.1481018 -16.999817 c -3.7579956 -2.1550293 -6.2520447 -3.6123657 -10.262329 -5.76001 
            c -3.4572144 -1.8516235 -6.89328 -3.5934448 -10.299072 -5.2908936 z m 93.05234 59.111694 
            c -46.606384 13.110107 -76.78284 58.9209 -70.39435 113.434265 c 1.5611877 13.321533 
            5.198242 26.109436 10.505096 38.03949 c 13.611694 1.2513428 26.59671 2.0718384 38.209656 
            2.1437378 c -2.797821 -8.377136 -4.769989 -17.09259 -5.8189697 -26.043823 c -5.714752 
            -48.763977 17.804932 -90.53949 56.18158 -108.18909 c -9.758728 -6.166443 -19.216766 
            -12.657471 -28.683014 -19.384583 z" style="fill:#ffffff;fill-opacity:1;stroke:none;"
            onClick="javascript:onPathClick('path3107');" class="img-path"/>
        <path id="path3154" d="m 874.2021 843.2657 c 0.0 0.0 -22.471924 -78.51007 -19.558899 
            -98.41394 c 2.913086 -19.903992 14.981323 -36.12207 29.546387 -35.016296 c 14.5651245 
            1.1057739 22.471924 14.375122 24.968811 26.170044 c 2.4968872 11.794983 2.4968872 
            22.115479 2.4968872 22.115479 c 0.0 0.0 3.6984863 -15.40387 -0.7154541 -28.305237 c 
            -4.4138184 -12.901367 -17.508484 -21.89331 -17.508484 -21.89331 c 0.0 0.0 21.922424 
            -8.079529 30.455933 -2.9971924 c 8.533508 5.0823364 10.74054 8.99176 12.358887 17.853394 
            c 1.6184082 8.861511 1.177063 27.496826 1.177063 27.496826 c 0.0 0.0 5.4960938 
            -22.338806 0.2942505 -35.055176 c 0.0 0.0 24.291565 10.464661 25.12384 37.371887 c 
            0.8322754 26.907166 -4.9937744 66.346436 -4.9937744 81.45874 c 0.0 15.112183 -2.913025 
            42.01941 -32.45941 50.86566 c -29.546448 8.846191 -44.52765 -5.1603394 -44.52765 
            -5.1603394 z" style="fill:#ffffff;fill-opacity:1;stroke:none;" onClick="javascript:onPathClick('path3154');"
            class="img-path"/>
        <path id="path3158" d="m 896.29425 826.2932 c 0.0 17.914001 -5.729187 32.436035 -12.796448 
            32.436035 c -7.067322 0.0 -12.79657 -14.522034 -12.79657 -32.436035 c 0.0 -17.91388 
            5.729248 -32.436035 12.79657 -32.436035 c 7.0672607 0.0 12.796448 14.522156 12.796448 
            32.436035 z" style="fill:#000000;stroke:none;" transform="matrix(1.1483181,0,0,0.97595355,-88.836168,16.753621)"/>
        <path id="path3156" d="m 937.38 844.15924 c 0.0 17.914001 -5.729248 32.436035 -12.796509 
            32.436035 c -7.067322 0.0 -12.796448 -14.522034 -12.796448 -32.436035 c 0.0 -17.91388 
            5.729126 -32.436035 12.796448 -32.436035 c 7.0672607 0.0 12.796509 14.522156 12.796509 
            32.436035 z" style="fill:#ffffff;fill-opacity:1;stroke:none;" onClick="javascript:onPathClick('path3156');"
            class="img-path" transform="matrix(1.0034296,0,0,0.89324386,-2.0541642,70.611728)"/>
        <path id="path3160" d="m 806.6615 796.5827 l 4.686096 8.346741 l -6.231018 0.72979736 l 
            12.513367 9.578247 C 809.53784 823.9687 798.0617 826.6858 798.0617 826.6858 c 0.0 0.0 
            8.276001 4.378662 18.280884 2.5542603 c -4.8552246 8.079651 -20.804138 12.178101 
            -20.804138 12.178101 c 0.0 0.0 12.998901 2.43042 23.739319 -3.694458 c -4.4138184 
            9.643433 -20.804138 18.791687 -20.804138 18.791687 c 0.0 0.0 13.3741455 2.8148804 
            29.558472 -2.9191284 c 0.0 0.0 -18.906189 10.894531 -26.262695 19.886353 c 0.0 0.0 
            16.088623 -4.8999023 21.679626 -2.5542603 c -5.720154 2.098999 -10.8220825 5.794861 
            -14.264282 8.711731 c 28.214783 0.8937378 52.954468 1.6002808 70.65173 2.0980835 c 
            -0.59710693 -0.4335327 -1.1774902 -0.8543701 -1.7508545 -1.3226929 c 31.42633 -0.411438 
            -10.363525 -49.65503 -17.559875 -76.48944 c -16.890808 -1.2061768 -38.579163 -3.3777466 
            -53.864258 -7.3433228 z" style="fill:#ffffff;stroke:none;" onClick="javascript:onPathClick('path3160');"
            class="img-path"/>
        <path id="path3175" d="m 592.4917 935.69586 c -1.460144 0.045959473 -2.8078613 0.27178955 
            -4.0166016 0.5473633 c -1.5823364 1.4110718 -4.814453 5.966614 -6.385498 7.388916 l 0.0 
            0.18243408 c -7.9766235 7.4903564 -18.196411 15.898865 -27.498596 23.261536 L 571.63605 
            964.2482 c -2.6483765 7.5584106 -21.473633 19.567078 -21.473633 19.567078 c 0.0 0.0 
            16.79486 -2.6258545 24.151428 -8.620422 c -5.0024414 8.861511 -27.962097 19.293396 
            -27.962097 19.293396 c 0.0 0.0 10.585999 -0.7949219 15.294189 -3.9225464 C 558.99756 
            996.56036 548.41156 1002.8351 548.41156 1002.8351 l 6.7459106 -0.27368164 c -1.7655029 
            5.4732666 -11.432007 11.722046 -11.432007 11.722046 l 12.049927 -3.8769531 l -17.405457 
            19.658325 c 9.763306 -7.631653 21.564636 -17.148315 34.501953 -27.685852 c -4.3480835 
            5.4663696 -12.158569 14.328308 -23.069946 23.17035 c -8.42926 6.8305664 -17.031311 
            13.2677 -24.20288 18.517944 c -2.4160156 10.875732 -4.808838 25.200562 -3.2442017 
            34.755615 c 2.720642 16.61438 28.676147 22.196655 30.073364 22.486084 c -0.42913818 
            -0.23669434 -1.6743164 -1.4530029 -5.35553 -6.887207 c -5.296692 -7.8189697 3.0897217 
            -39.45337 3.0897217 -39.45337 c 0.0 0.0 -5.1275024 33.21765 2.5233154 42.600586 c 
            7.650696 9.38269 28.837463 4.059326 28.837463 4.059326 c 0.0 0.0 -5.304077 0.64501953 
            -10.453613 -12.907959 c -5.149536 -13.552856 6.6429443 -34.937866 6.6429443 -34.937866 c 
            0.0 0.0 -3.3839722 8.8811035 -4.119629 23.215942 c -0.7357178 14.334839 6.0028687 
            23.978271 18.950317 23.717651 c 12.947449 -0.26062012 22.680115 -11.741577 34.45044 
            -24.903564 c 11.770447 -13.161987 9.247192 -45.36328 3.65625 -82.37329 c -5.5909424 
            -37.009888 -22.05481 -50.686646 -29.55841 -55.508423 c -2.8139038 -1.8081665 -5.8583374 
            -2.321228 -8.5997925 -2.2349243 z" style="fill:#ffffff;fill-opacity:1;stroke:none;"
            onClick="javascript:onPathClick('path3175');" class="img-path"/>
        <path id="path4264" d="m 621.3495 517.542 c 0.0 3.5625 -7.406006 6.1417236 -16.54181 
            5.7608643 c -9.135803 -0.38079834 -16.54181 -3.5774536 -16.54181 -7.1398926 c 0.0 
            -3.562439 7.406006 -6.1416626 16.54181 -5.760803 c 9.135803 0.38082886 16.54181 
            3.5774536 16.54181 7.1398315 z" style="fill:#ffffff;fill-opacity:1;stroke:none;"
            onClick="javascript:onPathClick('path4264');" class="img-path" transform="matrix(0.81321708,-0.30803336,0,0.84443629,65.15239,169.52947)"/>
        <path id="path4276" d="m 523.6937 533.499 c -3.1427612 9.57196 -7.7183228 21.691895 
            -1.5963745 30.833008 c 7.6674805 3.3114624 17.024841 -2.7422485 21.370667 -7.6625977 c 
            3.7053223 -11.189636 -8.391907 -21.89679 -19.774292 -23.17041 z" style=
            "fill:#ffffff;fill-opacity:1;stroke:none;" onClick="javascript:onPathClick('path4276');"
            class="img-path"/>
        <path id="path4355" d="m 522.6639 623.4437 c -0.0017089844 2.7406616 -3.487976 6.981018 
            0.41192627 7.1609497 c 0.97558594 0.12347412 1.9008789 0.33874512 2.7807617 0.59295654 c 
            -0.24450684 -3.3259277 -1.2033081 -5.8568115 -3.192688 -7.7539062 z m 14.3671875 
            27.503418 c -0.44244385 1.9591675 -1.2299194 3.8450317 -2.3687744 5.564514 c -3.94812 
            3.1192627 1.1273193 3.4036255 3.038208 5.6101074 c 2.2906494 2.3035278 3.6342163 
            4.8154297 4.2226562 7.4345703 c 1.2366333 -3.0498657 1.892395 -6.7455444 0.9269409 
            -10.901001 c -0.83636475 -3.5998535 -3.0739136 -6.030945 -5.819031 -7.708191 z M 
            540.8932 680.0012 c -2.2149048 6.123535 -6.786133 12.03772 -11.225952 16.374329 c 
            -20.327667 21.118652 -55.42807 24.54956 -84.96756 26.63678 c -11.03833 5.050232 
            -21.330536 12.622131 -29.918884 18.609192 c -0.46810913 5.217346 -0.9654846 10.540527 
            -1.4933777 15.87262 L 436.09988 744.5862 c 0.0 0.0 46.64386 -1.7331543 71.52728 
            -11.311462 c 24.883392 -9.578247 42.490692 -29.908264 41.453888 -42.098816 c -0.56378174 
            -6.628601 -4.6205444 -9.716492 -8.187866 -11.174683 z" style=
            "fill:#ffffff;fill-opacity:1;stroke:none;" onClick="javascript:onPathClick('path4355');"
            class="img-path"/>
        <path id="path4437" d="m 480.90097 210.66522 c -20.650604 0.19662476 -44.30655 7.3079224 
            -60.76468 19.110947 c -18.123047 12.997147 -31.460938 32.37178 -43.66815 49.852707 c 
            1.751648 0.9686279 3.5198975 1.8716125 5.4070435 2.6454468 c 22.471863 9.214783 
            98.665344 10.672943 98.665344 10.672943 l 1.1844177 -0.45611572 c 5.3334656 -2.9859009 
            24.516846 -12.908081 45.521942 -13.683258 c -4.70813 -19.286896 -57.10843 -10.946594 
            -57.10843 -10.946594 c 0.0 0.0 19.413788 -8.894165 35.892334 -5.24527 c 0.0 0.0 
            10.593353 -15.625 28.837433 -23.444 c -4.119568 -2.0850677 -46.478333 -17.208328 
            -75.9043 17.195312 c 0.0 0.0 -2.368805 -20.837677 30.588318 -45.337234 c -2.7955017 
            -0.26062012 -5.701172 -0.39297485 -8.651276 -0.36488342 z" style=
            "fill:#ffffff;fill-opacity:1;stroke:none;" onClick="javascript:onPathClick('path4437');"
            class="img-path"/>
    </g>
</svg>