<?xml version="1.0" standalone="no"?>
<!--Created with Sketsa SVG Editor (http://www.kiyut.com)-->
<svg contentScriptType="text/ecmascript" width="600.0px" xmlns:xlink="http://www.w3.org/1999/xlink"
    baseProfile="full" zoomAndPan="magnify" contentStyleType="text/css" height="800.0px"
    preserveAspectRatio="xMidYMid meet" xmlns="http://www.w3.org/2000/svg" version="1.0">
    <g  id="layer1" transform="matrix(1.0 0.0 0.0 1.0 -801.5378 180.44052)"
        >
        <g style="stroke:#000000;fill:#ffffff" id="g6007" transform="matrix(3,0,0,3,2704.9442,-3269.9505)">
            <path  d="m -576.8845 1210.644 c 0.0 0.0 -3.0444946 11.741699 0.5623779 16.5177 c 11.049438 14.630981 
                23.729614 16.537598 29.806702 26.31665 c 2.1484985 3.4572754 0.28118896 7.2790527 
                0.28118896 7.2790527 l 19.402405 0.0 c 0.0 0.0 6.9491577 -13.062256 8.435852 
                -19.877441 c 2.168396 -9.940308 0.28118896 -29.676025 0.28118896 -29.676025" id="path5277"
                style=
                "fill:#ffffff;fill-opacity:1;stroke:#000000;stroke-width:1.25000000000000000;stroke-linecap:round;stroke-linejoin:round;stroke-miterlimit:4;stroke-opacity:1;stroke-dasharray:none;stroke-dashoffset:1.50000000000000000"/>
            <path  id="path5279" d="m -542.8599 1213.1637 c 0.0 0.0 -3.0444946 11.741699 0.5623779 16.5177 c 11.0494995 14.6311035 23.729614 16.537598 
                29.80664 26.316528 c 2.14859 3.4573975 0.28118896 7.2790527 0.28118896 7.2790527 l 
                19.402496 0.0 c 0.0 0.0 6.949127 -13.062134 8.435852 -19.87732 c 2.168396 -9.940186 
                0.28118896 -29.676147 0.28118896 -29.676147"  style="fill:#ffffff;fill-opacity:1;stroke:#000000;stroke-width:1.25000000000000000;stroke-linecap:round;stroke-linejoin:round;stroke-miterlimit:4;stroke-opacity:1;stroke-dasharray:none;stroke-dashoffset:1.50000000000000000"/>
            <rect  id="rect5281"
                style="fill:#ffffff;fill-opacity:1;stroke:#000000;stroke-width:1.25000000000000000;stroke-linecap:round;stroke-linejoin:round;stroke-miterlimit:4;stroke-opacity:1;stroke-dasharray:none;stroke-dashoffset:1.50000000000000000"/>
            <path   d="m -547.49963 1255.1581 c 0.5623779 0.0 24.745178 0.5600586 24.745178 0.5600586 l -1.2654419 
                37.934814 l -50.89624 0.0 c -1.9770508 0.0 -2.480774 -2.718628 0.14056396 -3.2194824 
                c 8.486084 -1.621582 17.305847 -2.5098877 26.994751 -6.859009 z" id="path5283"
                style=
                "fill:#ffffff;stroke:#000000;stroke-width:1.25000000000000000;stroke-linecap:round;stroke-linejoin:round;stroke-miterlimit:4;stroke-opacity:1;stroke-dasharray:none;stroke-dashoffset:1.50000000000000000"/>
            <path  id="path5285" d="m -512.2097 1257.1179 c 0.56243896 
                0.0 24.745209 0.5599365 24.745209 0.5599365 l -1.2653809 37.934937 l -50.89633 0.0 c 
                -1.9769897 0.0 -2.480713 -2.718628 0.140625 -3.2194824 c 8.486084 -1.621582 
                17.305847 -2.5098877 26.994751 -6.859131 z"  style=
                "fill:#ffffff;stroke:#000000;stroke-width:1.25000000000000000;stroke-linecap:round;stroke-linejoin:round;stroke-miterlimit:4;stroke-opacity:1;stroke-dasharray:none;stroke-dashoffset:1.50000000000000000"/>
            <path   d="m-619.00555 1180.1959 c -5.974243 1.664917 -10.424988 5.6052246 -13.274414 10.570679 
                c 0.0 0.0 -1.138916 2.0306396 -0.7030029 2.9394531 c 0.5148926 1.0736084 3.2337646 
                1.539917 3.2337646 1.539917 c 0.0 0.0 -1.1541138 2.2185059 -0.5623779 3.0795898 c 
                2.4222412 3.5250244 4.9208984 0.2800293 4.9208984 0.2800293 c 0.33294678 0.0 
                -5.211487 4.6676025 -8.857605 8.398804 c -0.7843628 0.8027344 -0.75738525 2.5316162 
                0.0 3.3596191 c 1.0141602 1.1088867 3.340454 1.3782959 4.4990845 0.41992188 c 
                3.0371704 -2.5124512 12.144775 -10.968628 12.653748 -10.778564 l -2.1089478 2.659668 
                c 1.8771362 1.744751 4.7785034 1.0047607 6.889282 -0.5599365 c 0.7974243 -0.59106445 
                4.6870117 -4.001343 5.9051514 -6.719116 c 0.6347656 -1.4163818 0.031921387 
                -3.1611328 0.5623169 -4.619385 c 0.32312012 -0.88842773 1.5466309 -2.3796387 
                1.5466309 -2.3796387 l -10.966675 -10.918701 c 0.0 0.0 -2.380188 2.3493652 -3.737854 
                2.7276611 z" id="path5287" style=
                "fill:#ffffff;fill-opacity:1;stroke:#000000;stroke-width:1.25000000000000000;stroke-linecap:round;stroke-linejoin:round;stroke-miterlimit:4;stroke-opacity:1;stroke-dasharray:none;stroke-dashoffset:1.50000000000000000"/>
            <path  d="m -565.0743 1165.2899 c -12.207214 6.5985107 -26.324585 18.902222 -39.929688 29.676147 l 
                -14.341003 -17.357666 c 0.8126221 0.0 35.988464 -33.889526 49.490356 -44.79419 c 
                6.3796387 -5.152466 23.620361 -6.9990234 23.620361 -6.9990234" id="path5289" style=
                "fill:#ffffff;fill-opacity:1;stroke:#000000;stroke-width:1.25000000000000000;stroke-linecap:round;stroke-linejoin:round;stroke-miterlimit:4;stroke-opacity:1;stroke-dasharray:none;stroke-dashoffset:1.50000000000000000"/>
            <path  d="m -622.1569 1177.8883 l 17.434082 18.757568 l 7.311035 -5.599243 l -17.996399 -19.317505 z" id="path5291"
                style=
                "fill:#ffffff;stroke:#000000;stroke-width:1.25000000000000000;stroke-linecap:round;stroke-linejoin:round;stroke-miterlimit:4;stroke-opacity:1;stroke-dasharray:none;stroke-dashoffset:1.50000000000000000"/>
            <path   d="m -565.9179 1143.1729 c -12.842346 19.061401 -22.966125 56.693848 -26.994751 71.670654 c 
                49.65979 10.794067 106.40387 16.350586 131.31805 2.7995605 c 0.0 0.0 -2.681305 
                -50.404663 -11.528992 -73.63037 c -2.093048 -5.4942627 -3.9072876 -11.166016 
                -9.560608 -14.838013 c -10.367279 -6.7335205 -36.27417 -4.479248 -36.27417 -4.479248 
                l -26.432373 1.119751 c 0.0 0.0 -15.242371 9.513794 -20.52716 17.357666 z" id="path5293"
                style=
                "fill:#ffffff;fill-opacity:1;stroke:#000000;stroke-width:1.25000000000000000;stroke-linecap:round;stroke-linejoin:round;stroke-miterlimit:4;stroke-opacity:1;stroke-dasharray:none;stroke-dashoffset:1.50000000000000000"/>
            <path  id="path5363" d="m -535.02985 1127.9996 c -14.278564 
                30.498535 -16.000671 62.133667 -22.931763 93.29712" 
                style=
                "fill:#ffffff;stroke:#000000;stroke-width:1.25000000000000000;stroke-miterlimit:4;stroke-dasharray:none"/>
            <path id="path5295" d="m -536.49286 1125.42 l -8.907837 0.38110352 c 0.0 0.0 -0.87384033 
                0.588501 -1.4614258 0.9700928 c 2.6237183 15.240967 14.074951 53.9989 61.10199 
                76.597046 l 22.861023 -3.048584 c -0.18582153 -1.993042 -0.43023682 -4.1119385 
                -0.6611328 -6.305176 c -49.51233 -22.560303 -59.455627 -44.981934 -72.93262 
                -68.59448 z"  style=
                "fill:#ffffff;fill-opacity:1;stroke:#000000;stroke-width:1.25000000000000000;stroke-linecap:round;stroke-linejoin:round;stroke-miterlimit:4;stroke-opacity:1;stroke-dasharray:none;stroke-dashoffset:1.50000000000000000"/>
            <path id="path5297" d="m -585.24225 1188.2982 c -1.3041382 4.121216 -2.5202637 8.100586 
                -3.5839844 11.779053 c 39.351257 7.866699 81.155914 11.126221 126.51868 7.62146 c 
                -0.26184082 -3.2982178 -0.56848145 -7.100708 -1.0090942 -11.467041 c -45.13736 
                2.7890625 -85.7063 0.05871582 -121.9256 -7.9334717 z" 
                style=
                "fill:#ffffff;fill-opacity:1;stroke:#000000;stroke-width:1.25000000000000000;stroke-linecap:round;stroke-linejoin:round;stroke-miterlimit:4;stroke-opacity:1;stroke-dasharray:none;stroke-dashoffset:1.50000000000000000"/>
            <path   d="m-456.25192 1203.6449 c 1.0615845 2.60083 1.1390686 5.53833 2.2495422 8.1188965 c 
                0.64572144 1.5006104 1.0312805 3.5390625 2.5307617 4.199463 c 0.874176 0.38500977 
                2.8119507 -0.5599365 2.8119507 -0.5599365 l -1.9683838 -6.719116 l 4.2179565 
                9.797363 c 0.09674072 -0.12402344 1.1968994 2.8311768 2.1330566 4.6433105 c 
                0.30316162 0.586792 1.8063354 1.310669 2.3660278 0.9572754 c 0.6687317 -0.4222412 
                1.4265747 -1.1960449 1.3065796 -1.9752197 c -0.22021484 -1.4300537 -1.7211609 
                -6.0861816 -1.6871643 -6.126709 l -1.5877686 -7.855957 l 1.4059753 7.2790527 c 
                0.24212646 1.25354 2.5307617 -1.095581 2.5307617 -3.079712 l 0.0 -3.9194336 l 
                0.24853516 4.001587 c 1.4539795 -0.65808105 1.1554565 -3.2843018 1.4386597 -5.12146 
                c 0.17062378 -1.1068115 0.0 -3.359497 0.0 -3.359497 l 0.28115845 4.199463 c 
                2.0278625 -2.3330078 2.4624329 -4.895508 1.4059753 -6.9990234 c 0.0 0.0 -1.9948425 
                -5.648926 -3.936737 -7.8389893 c -1.5655823 -1.7657471 -5.90506 -3.9195557 -5.90506 
                -3.9195557 l -12.934967 8.678955 c 0.0 0.0 2.2876587 3.6258545 3.0931396 5.599243 z"
                id="path5299" style=
                "fill:#ffffff;fill-opacity:1;stroke:#000000;stroke-width:1.25000000000000000;stroke-linecap:round;stroke-linejoin:round;stroke-miterlimit:4;stroke-opacity:1;stroke-dasharray:none;stroke-dashoffset:1.50000000000000000"/>
            <path d="m -493.06738 1151.4182 c 0.6052551 1.1334229 30.412994 46.443848 31.217072 47.51123 l 19.883484 
                -11.67981 c -2.1122437 -0.9012451 -15.338074 -29.115356 -20.082336 -34.841675 c 
                -7.8069763 -9.422852 -11.886444 -19.918457 -20.678802 -24.745361 c -6.0762024 
                -3.3356934 -19.883484 -3.9593506 -19.883484 -3.9593506" id="path5301" style=
                "fill:#ffffff;fill-opacity:1;stroke:#000000;stroke-width:1.25000000000000000;stroke-linecap:round;stroke-linejoin:round;stroke-miterlimit:4;stroke-opacity:1;stroke-dasharray:none;stroke-dashoffset:1.50000000000000000"/>
            <path id="path5303" d="m -462.04916 1196.95 l 4.970886 8.314453 l 17.895142 -11.481812 l 
                -4.7720337 -8.116699 z"  style=
                "fill:#ffffff;stroke:#000000;stroke-width:1.25000000000000000;stroke-linecap:round;stroke-linejoin:round;stroke-miterlimit:4;stroke-opacity:1;stroke-dasharray:none;stroke-dashoffset:1.50000000000000000"/>
            <path  d="m -565.4432 1104.1049 c 19.0542 19.939209 63.423615 28.188354 96.23602 8.314453 c -14.718445 
                -17.904053 -10.246246 -54.249023 -39.766907 -55.825684 c -40.173706 -2.145752 
                -39.28607 41.016846 -56.469116 47.51123 z" id="path5305" style=
                "fill:#ffffff;fill-opacity:1;stroke:#000000;stroke-width:1.25000000000000000;stroke-linecap:round;stroke-linejoin:round;stroke-miterlimit:4;stroke-opacity:1;stroke-dasharray:none;stroke-dashoffset:1.50000000000000000"/>
            <path   d="m -503.00912 1110.6378 l -0.19882202 17.420776 c -15.919434 2.677002 -22.266968 4.6466064 
                -37.367676 -2.463745 l -0.60980225 -13.571411 c 13.211548 4.840576 25.01831 3.316162 
                38.1763 -1.3856201 z" id="path5307" style=
                "fill:#ffffff;fill-opacity:1;stroke:#000000;stroke-width:1.25000000000000000;stroke-linecap:round;stroke-linejoin:round;stroke-miterlimit:4;stroke-opacity:1;stroke-dasharray:none;stroke-dashoffset:1.50000000000000000"/>
            <path   d="m -473.79672  1135.1852 c 0.0 2.6149902 -6.624817 4.7349854 -14.7969055 4.7349854 c -8.172089 0.0 
                -14.796875 -2.119995 -14.796875 -4.7349854 c 0.0 -1.4169922 0.4119568 -4.869507 
                0.77905273 -7.720459 c 0.34439087 -2.6745605 27.126007 -3.659668 27.836853 0.0 c 
                0.45736694 2.3546143 0.97787476 5.105591 0.97787476 7.720459 z" id="path5309" style=
                "fill:#ffffff;fill-opacity:1;stroke:#000000;stroke-width:1.25000000000000000;stroke-linecap:round;stroke-linejoin:round;stroke-miterlimit:4;stroke-opacity:1;stroke-dasharray:none;stroke-dashoffset:1.50000000000000000"/>
            <path transform="translate(-877.78518,251.46702)" style=
                "fill:#ffffff;fill-opacity:1;stroke:#000000;stroke-width:1.25000000000000000;stroke-linecap:round;stroke-linejoin:round;stroke-miterlimit:4;stroke-opacity:1;stroke-dasharray:none;stroke-dashoffset:1.50000000000000000"
                id="path5311" d="m403.0106 875.9977 c 0.0 2.6239624 -6.2315063 4.7510986 -13.9184265 4.7510986 c 
                -7.6869507 0.0 -13.918457 -2.1271362 -13.918457 -4.7510986 c 0.0 -2.6239624 
                6.2315063 -4.7511597 13.918457 -4.7511597 c 7.68692 0.0 13.9184265 2.1271973 
                13.9184265 4.7511597 z" />
            <path id="path5313" d="m -499.62872 1130.404 l -0.7095947 7.661621"
                 style=
                "fill:#ffffff;stroke:#000000;stroke-width:1.25000000000000000;stroke-linecap:round;stroke-linejoin:round;stroke-miterlimit:4;stroke-opacity:1;stroke-dasharray:none;stroke-dashoffset:1.50000000000000000"/>
            <path  d="m -495.31018 1131.6455 
                l -0.4729309 7.679077" id="path5315" style=
                "fill:#ffffff;stroke:#000000;stroke-width:1.25000000000000000;stroke-linecap:round;stroke-linejoin:round;stroke-miterlimit:4;stroke-opacity:1;stroke-dasharray:none;stroke-dashoffset:1.50000000000000000"/>
            <path   d="m -490.13718 1132.1906 
                l -0.33007812 7.6918945" id="path5317" style=
                "fill:#ffffff;stroke:#000000;stroke-width:1.25000000000000000;stroke-linecap:round;stroke-linejoin:round;stroke-miterlimit:4;stroke-opacity:1;stroke-dasharray:none;stroke-dashoffset:1.50000000000000000"/>
            <path id="path5319" d="m -484.9179 1132.039 l 0.3600769 7.703003"
                 style=
                "fill:#ffffff;stroke:#000000;stroke-width:1.25000000000000000;stroke-linecap:round;stroke-linejoin:round;stroke-miterlimit:4;stroke-opacity:1;stroke-dasharray:none;stroke-dashoffset:1.50000000000000000"/>
            <path id="path5321" d="m -480.11694 1131.207 l 1.1997375 7.560425"
                 style=
                "fill:#ffffff;stroke:#000000;stroke-width:1.25000000000000000;stroke-linecap:round;stroke-linejoin:round;stroke-miterlimit:4;stroke-opacity:1;stroke-dasharray:none;stroke-dashoffset:1.50000000000000000"/>
            <path   d="m -476.8163 1129.9432 l 1.657074 7.229248" id="path5323" style=
                "fill:#ffffff;stroke:#000000;stroke-width:1.25000000000000000;stroke-linecap:round;stroke-linejoin:round;stroke-miterlimit:4;stroke-opacity:1;stroke-dasharray:none;stroke-dashoffset:1.50000000000000000"/>
            <path  id="path5325" d="m -545.8843 1134.4918 c 0.0 2.6149902 
                -6.624756 4.7348633 -14.796875 4.7348633 c -8.172119 0.0 -14.796875 -2.119873 
                -14.796875 -4.7348633 c 0.0 -1.4169922 0.41192627 -4.869629 0.77905273 -7.720581 c 
                0.34436035 -2.6745605 27.125977 -3.65979 27.836853 0.0 c 0.45733643 2.3546143 
                0.97784424 5.1054688 0.97784424 7.720581 z"  style=
                "fill:#ffffff;fill-opacity:1;stroke:#000000;stroke-width:1.25000000000000000;stroke-linecap:round;stroke-linejoin:round;stroke-miterlimit:4;stroke-opacity:1;stroke-dasharray:none;stroke-dashoffset:1.50000000000000000"/>
            <path transform="translate(-942.52623,250.84147)" style=
                "fill:#ffffff;fill-opacity:1;stroke:#000000;stroke-width:1.25000000000000000;stroke-linecap:round;stroke-linejoin:round;stroke-miterlimit:4;stroke-opacity:1;stroke-dasharray:none;stroke-dashoffset:1.50000000000000000"
                 id="path5327" d="m 395.6641 875.9297 c 0.0 2.6240234 -6.2315063 4.7511597 -13.918457 4.7511597 c -7.6869507 0.0 
                -13.918457 -2.1271362 -13.918457 -4.7511597 c 0.0 -2.6239014 6.2315063 -4.7510376 
                13.918457 -4.7510376 c 7.6869507 0.0 13.918457 2.1271362 13.918457 4.7510376 z"
                />
            <path d="m -571.7163 1129.7104 l -0.7095947 7.661743" id="path5329"
                 style=
                "fill:#ffffff;stroke:#000000;stroke-width:1.25000000000000000;stroke-linecap:round;stroke-linejoin:round;stroke-miterlimit:4;stroke-opacity:1;stroke-dasharray:none;stroke-dashoffset:1.50000000000000000"/>
            <path  id="path5331" d="m -567.3977 1130.9521 l -0.4729004 
                7.679077"  style=
                "fill:#ffffff;stroke:#000000;stroke-width:1.25000000000000000;stroke-linecap:round;stroke-linejoin:round;stroke-miterlimit:4;stroke-opacity:1;stroke-dasharray:none;stroke-dashoffset:1.50000000000000000"/>
            <path  id="path5333" d="m -562.2247 1131.497 l -0.33007812 
                7.6921387"  style=
                "fill:#ffffff;stroke:#000000;stroke-width:1.25000000000000000;stroke-linecap:round;stroke-linejoin:round;stroke-miterlimit:4;stroke-opacity:1;stroke-dasharray:none;stroke-dashoffset:1.50000000000000000"/>
            <path d="m -557.00543 1131.3456 l 0.36010742 7.702759" id="path5335"
                 style=
                "fill:#ffffff;stroke:#000000;stroke-width:1.25000000000000000;stroke-linecap:round;stroke-linejoin:round;stroke-miterlimit:4;stroke-opacity:1;stroke-dasharray:none;stroke-dashoffset:1.50000000000000000"/>
            <path d="m -552.2044 1130.5135 l 1.199707 7.560425" id="path5337"
                 style=
                "fill:#ffffff;stroke:#000000;stroke-width:1.25000000000000000;stroke-linecap:round;stroke-linejoin:round;stroke-miterlimit:4;stroke-opacity:1;stroke-dasharray:none;stroke-dashoffset:1.50000000000000000"/>
            <path  id="path5339" d="m -548.9038 1129.2498 l 1.6570435 
                7.229248"  style=
                "fill:#ffffff;stroke:#000000;stroke-width:1.25000000000000000;stroke-linecap:round;stroke-linejoin:round;stroke-miterlimit:4;stroke-opacity:1;stroke-dasharray:none;stroke-dashoffset:1.50000000000000000"/>
            <path transform="matrix(1.1491941,0.12686316,-0.14464534,1.120823,-380.57233,589.52808)"
                style=
                "fill:#ffffff;fill-opacity:1;stroke:#000000;stroke-width:1.09363663000000000;stroke-linecap:round;stroke-linejoin:round;stroke-miterlimit:4;stroke-opacity:1;stroke-dasharray:none;stroke-dashoffset:1.50000000000000000"
                 id="path5341"
                d="m -45.842587 459.82648 c -0.007194519 13.182129 -8.510437 23.872498 -18.992527 
                23.877625 c -10.482079 0.005126953 -18.973656 -10.676941 -18.966454 -23.85907 c 
                0.0072021484 -13.182098 8.510437 -23.872467 18.99253 -23.877594 c 10.482079 
                -0.005126953 18.973652 10.676941 18.96645 23.85904 z" />
            <path transform="matrix(1.3904073,0.38205174,-0.38205174,1.3904073,-240.50424,420.83019)"
                style="fill:#ffffff;stroke:#000000" 
                id="path5343" d="m -73.65311 504.21198 c -0.0010375977 0.92803955 -0.7570267 
                1.6811523 -1.68853 1.68219 c -0.93151855 0.0010681152 -1.6858139 -0.7503662 
                -1.6847687 -1.6784058 c 0.001045227 -0.92800903 0.7570267 -1.6811218 1.6885376 
                -1.68219 c 0.93151855 -0.0010070801 1.6858063 0.75042725 1.684761 1.6784058 z"
                />
            <path transform="matrix(1.3335877,0.36643905,-0.36643905,1.3335877,-232.42015,451.78738)"
                style="fill:#ffffff;stroke:#000000" 
                id="path5345"  d="m -72.07765 502.5736 c -0.001045227 
                0.92800903 -0.7570267 1.6811218 -1.6885452 1.68219 c -0.9315033 0.0010375977 
                -1.6858063 -0.7503967 -1.684761 -1.6784058 c 0.001045227 -0.92803955 0.7570267 
                -1.6811523 1.6885452 -1.68219 c 0.9315033 -0.0010375977 1.6857986 0.75042725 
                1.684761 1.6784058 z" />
            <path  d="m -543.4129 1102.7709 c 6.2579956 8.272095 11.418518 0.7005615 17.002808 -0.7525635 c 5.325989 
                4.529785 10.5720825 11.522949 16.254578 5.048706 c -4.53479 12.236084 -11.034912 
                1.7596436 -16.95752 -1.5491943 c -10.831909 5.4664307 -15.190918 3.7009277 
                -16.299866 -2.7469482 z" id="path5347" style=
                "fill:#ffffff;stroke:#000000;stroke-width:1.25000000000000000;stroke-linecap:round;stroke-linejoin:round;stroke-miterlimit:4;stroke-opacity:1;stroke-dasharray:none;stroke-dashoffset:1.50000000000000000"/>
            <path d="m -500.13095 1083.5358 c -6.7618713 24.597412 -16.606537 33.460938 -28.532806 39.320557 c 
                0.92266846 0.27526855 1.8728638 0.47680664 2.8532715 0.58898926 c 8.18457 0.9375 
                15.019318 -4.862549 20.529694 -12.6102295 c 5.984314 -8.41394 8.834839 -18.340698 
                12.054352 -25.092041 z" id="path5349" style=
                "fill:#ffffff;fill-opacity:1;stroke:#000000;stroke-width:1.25000000000000000;stroke-linecap:round;stroke-linejoin:round;stroke-miterlimit:4;stroke-opacity:1;stroke-dasharray:none;stroke-dashoffset:1.50000000000000000"/>
            <path  id="path5351" d="m -565.4432 1104.1049 c 15.731934 
                -6.36499 20.23993 -11.189941 24.37445 -18.69397 c 5.6549683 12.52771 19.537659 
                12.647339 38.03833 -1.095581 c 6.5473022 28.947266 24.676819 27.522095 33.823242 
                28.104004 c -14.718445 -17.904053 -10.246246 -54.249023 -39.767 -55.825684 c 
                -40.173615 -2.145752 -39.28604 41.016846 -56.469025 47.51123 z"
                 style=
                "fill:#ffffff;fill-opacity:1;stroke:#000000;stroke-width:1.25000000000000000;stroke-linecap:round;stroke-linejoin:round;stroke-miterlimit:4;stroke-opacity:1;stroke-dasharray:none;stroke-dashoffset:1.50000000000000000"/>
            <path   d="m -539.7936 1083.8137 c 4.180908 -1.2298584 8.787598 -2.9698486 13.520813 -2.9696045 c 7.6068726 
                7.324219E-4 9.329651 0.8087158 14.316101 3.1674805 c 1.0238647 0.484375 2.8833008 
                0.1661377 3.2807922 -0.8907471 c 0.41897583 -1.1141357 -1.005127 -2.293579 
                -1.9883728 -2.9694824 c -4.504822 -3.097046 -10.531738 -3.678833 -16.006226 
                -3.6623535 c -4.324402 0.013183594 -8.895691 0.79125977 -12.625977 2.9694824 c 
                -0.93066406 0.54345703 -2.1669312 1.3015137 -2.1871338 2.3753662 c -0.016296387 
                0.8659668 0.85583496 2.2250977 1.6900024 1.9798584 z" id="path5353" style=
                "fill:#ffffff;fill-opacity:1;stroke:#000000;stroke-width:1.25000000000000000;stroke-linecap:round;stroke-linejoin:round;stroke-miterlimit:4;stroke-opacity:1;stroke-dasharray:none;stroke-dashoffset:1.50000000000000000"/>
            <path d="m -484.9251 1074.9789 c 0.13589478 0.011108398 0.28268433 0.026611328 0.4175415 0.034423828 c 
                9.791138 -41.832153 -35.47766 -44.81714 -39.38916 -6.3398438 c 4.746887 -5.1185303 
                8.7323 -13.078735 17.36322 -11.8654785 c 11.592651 1.6297607 17.52127 8.863892 
                21.608398 18.170654 z" id="path5355" style=
                "fill:#ffffff;fill-opacity:1;stroke:#000000;stroke-width:1.25000000000000000;stroke-linecap:round;stroke-linejoin:round;stroke-miterlimit:4;stroke-opacity:1;stroke-dasharray:none;stroke-dashoffset:1.50000000000000000"/>
            <path id="path5357" d="m-523.89667 1068.6738 c 2.0441284 -20.10791 15.382751 -28.892334 26.255615 -26.726807 
                l -6.5078735 -0.81030273 c -10.872864 -2.1655273 -24.211548 6.6190186 -26.255676 
                26.726685" style=
                "fill:#ffffff;fill-opacity:1;stroke:#000000;stroke-width:1.25000000000000000;stroke-linecap:round;stroke-linejoin:round;stroke-miterlimit:4;stroke-opacity:1;stroke-dasharray:none;stroke-dashoffset:1.50000000000000000"/>
            <path transform="translate(37.413033,205)" style=
                "fill:#ffffff;fill-opacity:1;stroke:#000000" 
                id="path5359" d="m -639.3591 985.4167 c 0.0 0.86987305 -0.7081299 1.5747681 
                -1.5817261 1.5747681 c -0.87353516 0.0 -1.5817261 -0.704895 -1.5817261 -1.5747681 c 
                0.0 -0.86968994 0.7081909 -1.5747681 1.5817261 -1.5747681 c 0.8735962 0.0 1.5817261 
                0.7050781 1.5817261 1.5747681 z" 
                />
            <path transform="translate(169.5536,214.02825)" style=
                "fill:#ffffff;fill-opacity:1;stroke:#000000" 
                id="path5361" d="m -624.3644 986.39716 c 0.0 0.869812 -0.7081299 1.5747681 
                -1.5817261 1.5747681 c -0.87353516 0.0 -1.5817261 -0.70495605 -1.5817261 -1.5747681 
                c 0.0 -0.86968994 0.7081909 -1.5747681 1.5817261 -1.5747681 c 0.8735962 0.0 
                1.5817261 0.7050781 1.5817261 1.5747681 z" />
            <path transform="matrix(1.1178511,0,0,1.1178511,-474.9444,587.10794)" style=
                "fill:#ffffff;fill-opacity:1;stroke:#000000" d="m -64.60458 500.6501 c 0.0 0.9277344 -0.7553711 1.679779 
                -1.6871796 1.679779 c -0.9317932 0.0 -1.6871643 -0.7520447 -1.6871643 -1.679779 c 
                0.0 -0.92770386 0.7553711 -1.679779 1.6871643 -1.679779 c 0.9318085 0.0 1.6871796 
                0.7520752 1.6871796 1.679779 z" id="path5365" />
            <path transform="matrix(1.2357023,0,0,1.2357023,-471.97171,542.88144)" style=
                "fill:#ffffff;fill-opacity:1;stroke:#000000" 
                id="path5367" d="m -65.78648 505.59778 c 0.0 0.92770386 
                -0.7553711 1.679779 -1.6871643 1.679779 c -0.93180084 0.0 -1.6871719 -0.7520752 
                -1.6871719 -1.679779 c 0.0 -0.9277344 0.7553711 -1.679779 1.6871719 -1.679779 c 
                0.9317932 0.0 1.6871643 0.7520447 1.6871643 1.679779 z" />
            <path transform="matrix(1.3535534,0,0,1.3535534,-466.73361,497.50955)" style=
                "fill:#ffffff;fill-opacity:1;stroke:#000000" 
                id="path5369" d="m -66.57265 509.59195 c 0.0 0.92770386 -0.75536346 1.679779 
                -1.6871719 1.679779 c -0.9317932 0.0 -1.6871643 -0.7520752 -1.6871643 -1.679779 c 
                0.0 -0.92770386 0.7553711 -1.679779 1.6871643 -1.679779 c 0.9318085 0.0 1.6871719 
                0.7520752 1.6871719 1.679779 z" />
        </g>
    </g>
</svg>