<?xml version="1.0" standalone="no"?>
<!--Created with Sketsa SVG Editor (http://www.kiyut.com)-->
<svg contentScriptType="text/ecmascript" width="800.0px" xmlns:xlink="http://www.w3.org/1999/xlink"
    baseProfile="full" zoomAndPan="magnify" contentStyleType="text/css" height="600.0px"
    preserveAspectRatio="xMidYMid meet" xmlns="http://www.w3.org/2000/svg" version="1.0">
    <g style="stroke:#000000;fill:#ffffff" id="g703" transform="matrix(4.85 0.0 0.0 4.85 -1229.7533 -4310.4346)">
        <path d="m 345.31644 1001.7777 c -21.977844 10.246216 -24.277374 -3.078308 -24.277374 
            -3.078308 c -4.4344788 -12.6466675 -6.351349 -21.726746 -6.894562 -28.235962 c 
            0.0010681152 0.005065918 0.0010681152 0.010192871 0.0016479492 0.014221191 c -7.2028503 
            0.59173584 -11.851685 -0.07128906 -15.116821 -1.2389526 c -4.694092 3.6547852 -9.424622 
            8.418518 -9.424622 8.418518 c 5.0628357 14.470581 2.7364502 14.970154 2.7364502 
            14.970154 c -8.620026 7.1099243 -23.945557 0.37384033 -23.945557 0.37384033 c 0.0 0.0 
            -1.6421204 -15.718384 0.68429565 -19.710876 c 1.5855713 -2.7207642 9.718811 -9.730347 
            14.737488 -13.918213 c -0.12704468 -0.6524048 0.03579712 -1.2329102 0.17572021 
            -1.5767212 c -24.981812 -8.633728 -30.460342 -33.34192 -29.003998 -50.32788 c 
            -0.011749268 -0.21374512 -0.022918701 -0.42687988 -0.022918701 -0.6422119 c 0.0 
            -8.939758 10.297394 -16.186096 22.999481 -16.186096 c 12.702057 0.0 22.99887 7.246338 
            22.99887 16.186096 c 0.0 7.780884 -7.801483 14.275391 -18.198425 15.830627 c 1.3869629 
            3.2043457 4.4518433 6.908142 11.103027 9.328491 c -0.2987671 -0.43865967 -1.3349609 
            -2.125 -1.0747986 -4.098999 c 0.30215454 -2.298523 7.464203 -2.206665 7.464203 -2.206665 
            c 12.407806 -25.199463 38.231537 -27.314758 38.231537 -27.314758 c 0.0 0.0 53.964996 
            -8.278198 61.96402 39.75421 c 4.1917114 2.4835815 10.442322 5.1708374 16.365631 
            3.8093262 c 0.0 0.0 1.1704712 -0.2835083 0.9874878 0.5223999 c -0.16720581 0.73602295 
            -1.8513184 7.4681396 -16.373474 7.296753 c 0.0011901855 0.04034424 0.0022583008 
            0.079589844 0.0022583008 0.119384766 c 0.0 0.0 2.420929 1.961731 2.6906128 3.4334717 c 
            0.0 0.0 1.2006531 2.369751 -0.8711853 5.4033203 c 5.9177856 6.94635 9.929871 14.042236 
            11.251373 16.376404 c 2.1517334 3.8011475 0.94107056 15.695801 0.94107056 15.695801 c 
            -9.011169 6.6209106 -22.057861 1.961853 -23.805725 0.98046875 c -1.7495422 -0.98046875 
            3.4967957 -9.687134 1.0753174 -15.450012 c -1.0216675 -2.4331665 -5.4963684 -5.45697 
            -10.326508 -8.138977 c -3.3300781 0.66619873 -7.14917 1.2644043 -11.53717 1.7699585 c 
            0.3501892 14.740662 -0.9416504 14.738953 -0.9416504 14.738953 c 0.0 0.0 -2.1741638 
            0.8009033 -13.987213 0.49127197 c -8.838257 -0.23199463 -7.248749 -8.125732 -5.940094 
            -13.920837 c -7.4675293 0.023010254 -13.62973 -0.5447998 -18.718842 -1.5460815 c 
            -1.3925781 7.359619 5.809143 15.380249 11.346466 21.828186 c 3.1493225 3.6680908 
            3.995819 6.420044 4.2140503 7.809021 c 5.79834E-4 0.0 0.26239014 1.7061768 -1.5100708 
            2.4406738 z" id="path705" style=
            "fill:#ffffff;stroke:#000000"/>
        <g style="stroke:#000000;fill:#ffffff" id="g707">
            <path d="m 404.12042 953.2994 c -0.26794434 -1.4716187 -2.6894226 -3.4337769 -2.6894226 
                -3.4337769 c -0.60595703 -61.066345 -62.946472 -51.502197 -62.946472 -51.502197 c 
                0.0 0.0 -25.823822 2.1153564 -38.23105 27.314697 c 0.0 0.0 -7.1625977 -0.09240723 
                -7.4653015 2.2072144 c -0.3020935 2.2994385 1.1559753 4.213318 1.1559753 4.213318 c 
                0.0 0.0 9.609711 3.0247803 11.512573 9.349915 c 0.96118164 3.1956177 0.7167053 
                9.38562 4.10553 15.300598 c -4.6404114 1.8944702 -12.871002 3.6149902 -25.416534 
                0.71868896 c 0.0 0.0 -2.1512146 3.43396 3.7665405 4.9055176 c 5.9042664 1.4685669 
                5.919403 9.7717285 26.227203 8.103821 c -0.27975464 -3.338562 -0.19805908 -6.000183 
                0.09060669 -8.11969 c 7.120636 6.0961914 20.93164 10.465515 48.46353 8.354309 c 
                48.38748 -3.7098389 41.42682 -17.412415 41.42682 -17.412415 z" id="path709"
                 style="fill:#ffffff;stroke:#000000"/>
            <path d="m 282.19037 896.40466 c 0.506958 1.751709 2.0298767 2.9528809 3.3978271 
                2.676941 c 1.3640137 -0.27648926 2.061676 -1.9194946 1.5542297 -3.6726685 c 
                -0.50964355 -1.7521362 -2.028717 -2.951355 -3.3971558 -2.6763306 c -1.3668823 
                0.27386475 -2.062317 1.9199219 -1.5549011 3.672058 z" id="path711"
                 style="fill:#ffffff;stroke:#000000"/>
            <path d="m 274.21652 898.31244 c 0.6350403 1.93573 2.347107 3.178833 3.8213196 2.7763672 
                c 1.4759216 -0.40704346 2.155182 -2.3081665 1.5190125 -4.244446 c -0.6366577 
                -1.9434204 -2.348175 -3.1834717 -3.8207397 -2.7789307 c -1.474823 0.40655518 
                -2.1568604 2.3065796 -1.5195923 4.2470093 z" id="path713"
                 style="fill:#ffffff;stroke:#000000"/>
            <path d="m 330.88385 1004.0823 c 0.0 0.0 -0.7720337 -4.9779053 2.239624 -5.044739 c 
                3.0162048 -0.06628418 2.9362183 4.966736 2.9362183 4.966736 c 0.0 0.0 -2.480774 
                1.126709 -5.1758423 0.07800293 z" id="path715" 
                style="fill:#ffffff;stroke:#000000"/>
            <path d="m 337.30792 1002.801 c 0.0 0.0 -1.1715393 -4.215454 1.1290588 -4.5949097 c 0.0 
                0.0 3.1112976 -0.2489624 3.0772095 4.0491333 c 0.0 0.0 -1.2611084 1.3746948 
                -4.2062683 0.54577637 z" id="path717"  style=
                "fill:#ffffff;stroke:#000000"/>
            <path d="m 329.37717 1003.55383 c 0.0 0.0 0.59472656 -4.7142334 -1.8155823 -4.77948 c 
                0.0 0.0 -3.1140747 0.053588867 -2.596527 4.100586 c 5.493164E-4 0.0 1.1508484 
                1.2022095 4.4121094 0.67889404 z" id="path719" 
                style="fill:#ffffff;stroke:#000000"/>
            <path d="m 272.73 993.3183 c 0.0 0.0 0.060394287 -4.6967773 2.6883545 -4.4121094 c 
                2.6307373 0.2845459 1.8211365 4.9345093 1.8211365 4.9345093 c 0.0 0.0 -2.321289 
                0.7581177 -4.509491 -0.5223999 z" id="path721" 
                style="fill:#ffffff;stroke:#000000"/>
            <path d="m 278.35287 994.43243 c 0.0 0.0 -0.6876526 -4.650757 1.5923157 -4.7943115 c 0.0 
                0.0 2.9496155 -0.049438477 2.566925 3.9798584 c 0.0 -5.493164E-4 -1.0585327 
                1.2275391 -4.1592407 0.8144531 z" id="path723" 
                style="fill:#ffffff;stroke:#000000"/>
            <path d="m 296.90442 914.2813 c 0.0 0.0 -9.920288 7.5879517 -17.149475 -1.7032471 c 0.0 
                0.0 -0.3496704 -0.2750244 -0.15725708 -0.5442505 c 0.24005127 -0.33618164 0.47787476 
                -0.20965576 0.47787476 -0.20965576 c 6.7490845 9.155029 16.53009 2.0639038 16.53009 
                2.0639038 c 0.0 0.0 0.26742554 -0.21887207 0.41906738 -0.06945801 c 0.14993286 
                0.1494751 0.1913147 0.31420898 -0.12030029 0.46270752 z" id="path725"
                 style="fill:#ffffff;stroke:#000000"/>
            <path d="m 296.78186 901.48773 c 0.17123413 0.65393066 0.71676636 1.0890503 1.2180481 
                0.96917725 c 0.5013428 -0.12036133 0.76986694 -0.74780273 0.5991821 -1.4017944 c 
                -0.17120361 -0.6549072 -0.7166748 -1.0879517 -1.2185364 -0.9691162 c -0.50183105 
                0.12036133 -0.7692871 0.74835205 -0.59869385 1.4017334 z" id="path727"
                 style="fill:#ffffff;stroke:#000000"/>
            <path d="m 294.20483 902.8991 c 0.5774231 0.5967407 1.381958 0.8100586 1.7931824 
                0.4758911 c 0.41067505 -0.33258057 0.27581787 -1.0864258 -0.30325317 -1.6828003 c 
                -0.5774231 -0.5961914 -1.380249 -0.8099365 -1.7915039 -0.47686768 c -0.41064453 
                0.335083 -0.27752686 1.088562 0.3015747 1.6837769 z" id="path729"
                 style="fill:#ffffff;stroke:#000000"/>
            <path d="m 356.93704 984.2726 c 0.0 0.0 -0.49179077 -4.6760254 2.1540222 -4.649475 c 
                2.6486206 0.026062012 2.3901062 4.7285767 2.3901062 4.7285767 c 0.0 0.0 -2.2183228 
                0.97979736 -4.5441284 -0.07910156 z" id="path731" 
                style="fill:#ffffff;stroke:#000000"/>
            <path d="m 366.61957 984.36633 c 0.0 0.0 -0.32110596 -4.6708984 -2.4885864 -4.4575195 c 
                0.0 0.0 -2.776764 0.40960693 -1.5816956 4.3030396 c -5.493164E-4 0.0 1.246521 
                1.0421143 4.070282 0.15447998 z" id="path733" 
                style="fill:#ffffff;stroke:#000000"/>
            <path d="m 355.81467 984.15424 c 0.0 0.0 0.7631531 -4.6280518 -1.4054565 -4.835205 c 0.0 
                0.0 -2.809143 -0.13153076 -2.5383606 3.9038086 c 0.0 0.0 0.97857666 1.2576904 
                3.9438171 0.9313965 z" id="path735"  style=
                "fill:#ffffff;stroke:#000000"/>
            <path d="m 399.67477 993.03644 c 0.0 0.0 -0.5387573 -4.672058 2.107605 -4.6672974 c 
                2.6480713 0.0049438477 2.436554 4.708618 2.436554 4.708618 c 0.0 0.0 -2.2088623 
                0.9991455 -4.544159 -0.0413208 z" id="path737" 
                style="fill:#ffffff;stroke:#000000"/>
            <path d="m 406.02213 992.56146 c 0.0 0.0 -1.059082 -4.588684 1.163147 -4.894348 c 0.0 
                0.0 2.8858948 -0.2590332 2.8445435 3.7833252 c 0.0 0.0 -0.93496704 1.3013916 
                -4.0076904 1.111023 z" id="path739"  style=
                "fill:#ffffff;stroke:#000000"/>
            <path d="m 397.5045 992.1285 c 0.0 0.0 0.5404358 -4.6549683 -1.6365356 -4.774414 c 0.0 
                0.0 -2.8130798 -0.018981934 -2.348175 4.001526 c 0.0 0.0 1.0384216 1.2166748 
                3.9847107 0.7728882 z" id="path741"  style=
                "fill:#ffffff;stroke:#000000"/>
            <path d="m 271.40567 992.5773 c 0.0 0.0 0.47052002 -4.6606445 -1.7075806 -4.7529907 c 
                0.0 0.0 -0.9041748 0.0065307617 -1.5922852 0.74316406 c 0.109069824 1.7526855 
                0.23217773 3.1517944 0.2992859 3.8624878 c 0.6356201 0.22338867 1.6035156 0.37591553 
                3.0005798 0.14733887 z" id="path743"  style=
                "fill:#ffffff;stroke:#000000"/>
        </g>
    </g>
</svg>