<?xml version="1.0" standalone="no"?>
<!--Created with Sketsa SVG Editor (http://www.kiyut.com)-->
<svg contentScriptType="text/ecmascript" width="600.0px" xmlns:xlink="http://www.w3.org/1999/xlink"
    baseProfile="full" zoomAndPan="magnify" contentStyleType="text/css" height="820.0px"
    preserveAspectRatio="xMidYMid meet" xmlns="http://www.w3.org/2000/svg" version="1.0">
    <path d="m 544.87915 620.4222 c 0.04034424 98.237 -109.77301 177.8894 -245.24872 177.8894 c 
        -135.47571 0.0 -245.28912 -79.65234 -245.24875 -177.8894 c -0.04032135 -98.23706 109.77304 
        -177.8894 245.24875 -177.8894 c 135.47571 0.0 245.28912 79.65234 245.24872 177.8894 z" id="path2383"
         style=
        "fill:#ffffff;fill-opacity:1;fill-rule:nonzero;stroke:#000000;stroke-width:4;stroke-linecap:round;stroke-linejoin:round;stroke-miterlimit:4;stroke-opacity:1;stroke-dasharray:none"/>
    <path d="m 158.81181 700.4826 a 40.750134 17.179653 60.049515 0 1 -34.294075 14.328674 a 
        40.750134 17.179653 60.049515 1 1 34.294075 -14.328674 z" id="path3242"
         style=
        "fill:#ffffff;fill-opacity:1;fill-rule:nonzero;stroke:#000000"/>
    <path d="m 530.0521 559.40845 c 0.17199707 2.7301025 0.2798462 5.509094 0.2798462 8.269836 c 0.0 
        98.16571 -109.8591 177.82745 -245.23639 177.82745 c -105.81828 0.0 -196.1135 -48.704712 
        -230.4733 -116.843506 c 5.9411087 94.346985 113.456406 169.60834 245.02652 169.60834 c 
        135.37735 0.0 245.23645 -79.661804 245.23645 -177.82751 c 0.0 -21.434143 -5.2350464 
        -42.000793 -14.83313 -61.034607 z" id="path3221"  style=
        "fill:#000000;fill-opacity:0.31372549;fill-rule:nonzero;stroke:none"/>
    <path d="m 317.94574 799.9355 c 0.0 14.759216 32.835144 15.230957 73.292725 15.230957 c 40.45758 
        0.0 73.292755 1.1258545 73.292755 -15.230957 c 0.0 -28.76239 -32.835175 -52.105774 
        -73.292755 -52.105774 c -40.45758 0.0 -73.292725 23.343384 -73.292725 52.105774 z" id="path3172"
        style=
        "fill:#ffffff;fill-opacity:1;fill-rule:nonzero;stroke:#000000;stroke-width:3.99999976000000010;stroke-linecap:round;stroke-linejoin:round;stroke-miterlimit:4;stroke-opacity:1"/>
    <path d="m 419.42798 814.19073 c 0.0 -26.573242 -21.14215 -42.926025 -21.14215 -42.926025 c 0.0 
        0.0 8.456879 22.485107 7.047394 42.926025 l 14.094757 0.0 z" id="path3174"
         style=
        "fill:#000000;fill-opacity:0.31372549;fill-rule:evenodd;stroke:#000000;stroke-width:4;stroke-linecap:butt;stroke-linejoin:round;stroke-miterlimit:4;stroke-opacity:1;stroke-dasharray:none"/>
    <path d="m 182.00258 501.31796 c 54.854584 -61.533447 44.779266 -209.00159 44.779266 -209.00159 
        l 134.33778 -5.304596 c 0.0 0.0 -3.358429 148.52905 52.61563 211.12341" id="path2399"
         style=
        "fill:#ffffff;fill-opacity:1;fill-rule:evenodd;stroke:#000000;stroke-width:4;stroke-linecap:round;stroke-linejoin:round;stroke-miterlimit:4;stroke-opacity:1;stroke-dasharray:none"/>
    <path d="m 355.07513 353.28238 a 23.55573 24.108227 0.0 0 1 -47.11148 0.0 a 23.55573 24.108227 
        0.0 1 1 47.11148 0.0 z" id="path3244"  style=
        "fill:#ffffff;fill-opacity:1;fill-rule:nonzero;stroke:#000000"/>
    <path d="m 361.0985 287.00296 l -38.4122 1.5220642 L 226.76071 292.33017 c 0.0 0.0 0.5398407 
        7.8814697 0.6996918 20.3956 c 29.462418 13.404419 59.153183 21.207397 79.972946 21.207397 c 
        7.4519653 0.0 15.908447 -0.9291382 24.978455 -2.6889648 c 13.850891 54.13022 39.556915 
        130.43869 80.67264 166.41199 l -2.2389526 0.55810547 l 2.8686523 -0.05065918 c -38.52585 
        -43.08249 -48.88446 -126.882416 -51.636078 -174.93555 c -0.31155396 -5.440796 -0.54940796 
        -10.449219 -0.69970703 -14.8654785 c -0.11416626 -3.5292358 -0.16812134 -6.6520386 
        -0.20974731 -9.386047 c -0.03829956 -2.2030334 -0.060913086 -3.8589783 -0.06985474 
        -5.4794006 c -0.011230469 -2.516693 -0.013458252 -2.83786 0.0 -3.9066162 c 0.0044555664 
        -1.6958618 0.0 -2.5875244 0.0 -2.5875244 z" id="path3214" 
        style="fill:#000000;fill-opacity:0.31372549;fill-rule:evenodd;stroke:none"/>
    <path d="m 299.6181 48.71168 c -51.025604 0.0 -92.42003 11.312557 -122.8631 30.187542 c 
        -1.2776947 -0.6920929 -3.0077972 -1.3075943 -5.247589 -2.0294113 c -124.28009 -17.220173 
        -167.03873 40.739525 -168.6219 49.9236 c -1.5831934 9.184082 86.23445 23.516296 132.93845 
        -10.350014 c 0.6061859 -0.43956757 1.0176697 -0.73828125 1.6092529 -1.1669159 c -13.81736 
        19.520927 -21.06025 42.162697 -21.06025 66.311134 c 0.0 73.34221 125.662926 132.87592 
        183.24515 132.87592 c 59.817505 0.0 183.24515 -59.533707 183.24515 -132.87592 c 0.0 
        -24.419922 -7.7536316 -47.301666 -22.249695 -66.97069 c 0.91311646 0.6613083 1.5700073 
        1.1384506 2.5188293 1.8264694 c 46.70398 33.86631 134.5216 19.534096 132.93848 10.350014 c 
        -1.5831909 -9.184074 -44.27191 -67.14377 -168.552 -49.9236 c -2.625885 0.8462601 -4.667755 
        1.5458908 -5.947235 2.3845596 c -30.753174 -19.06942 -72.11023 -30.54269 -121.95352 
        -30.54269 z" id="path3155"  style=
        "fill:#ffffff;fill-opacity:1;fill-rule:nonzero;stroke:#000000;stroke-width:4;stroke-linecap:round;stroke-linejoin:round;stroke-miterlimit:4;stroke-opacity:1"/>
    <path d="m 291.50406 162.11113 c 0.00894165 20.32492 -22.71167 36.804703 -50.741104 36.804703 c 
        -28.02948 0.0 -50.749496 -16.479782 -50.741135 -36.804703 c -0.008956909 -20.32489 22.711655 
        -36.80468 50.741135 -36.80468 c 28.029434 0.0 50.749466 16.47979 50.741104 36.80468 z" id="path3157"
         style=
        "fill:#ffffff;fill-opacity:1;fill-rule:nonzero;stroke:#000000;stroke-width:3.99999952;stroke-linecap:round;stroke-linejoin:round;stroke-miterlimit:4;stroke-opacity:1;stroke-dasharray:none"/>
    <path d="m 409.5695 162.11113 c 0.00894165 20.32492 -22.71167 36.804703 -50.74109 36.804703 c 
        -28.02948 0.0 -50.74951 -16.479782 -50.74115 -36.804703 c -0.00894165 -20.32489 22.71167 
        -36.80468 50.74115 -36.80468 c 28.029419 0.0 50.74945 16.47979 50.74109 36.80468 z" id="path3159"
         style=
        "fill:#ffffff;fill-opacity:1;fill-rule:nonzero;stroke:#000000;stroke-width:3.99999952;stroke-linecap:round;stroke-linejoin:round;stroke-miterlimit:4;stroke-opacity:1;stroke-dasharray:none"/>
    <path d="m 364.4663 168.60526 c 0.0022277832 6.7749786 -7.5705566 12.2682495 -16.913727 
        12.2682495 c -9.343109 0.0 -16.916473 -5.493271 -16.913666 -12.2682495 c -0.0022583008 
        -6.7749634 7.5705566 -12.268204 16.913666 -12.268204 c 9.34317 0.0 16.916504 5.4932404 
        16.913727 12.268204 z" id="path3161"  style=
        "fill:#000000;fill-opacity:1;fill-rule:nonzero;stroke:none"/>
    <path d="m 270.3619 168.60526 c 0.0022277832 6.7749786 -7.5705566 12.2682495 -16.913696 
        12.2682495 c -9.343155 0.0 -16.916489 -5.493271 -16.913696 -12.2682495 c -0.002243042 
        -6.7749634 7.5705414 -12.268204 16.913696 -12.268204 c 9.34314 0.0 16.916473 5.4932404 
        16.913696 12.268204 z" id="path3163"  style=
        "fill:#000000;fill-opacity:1;fill-rule:nonzero;stroke:none"/>
    <path d="m 466.24167 118.40066 c 3.9285278 12.391487 5.877289 25.525993 5.877289 39.1677 c 0.0 
        73.342224 -123.42764 132.87595 -183.24515 132.87595 c -46.35956 3.0517578E-5 -136.79333 
        -38.56807 -170.30115 -91.88176 c 17.051529 65.34111 128.0058 115.87959 181.07614 115.87959 c 
        59.817505 0.0 183.24515 -59.533783 183.24515 -132.87595 c 0.0 -22.860153 -5.401886 -44.37433 
        -16.652283 -63.165535 z" id="path3231"  style=
        "fill:#000000;fill-opacity:0.31372549;fill-rule:nonzero;stroke:none"/>
    <path d="m 284.36624 799.9355 c 0.0 14.759216 -32.83516 15.230957 -73.292725 15.230957 c 
        -40.457565 0.0 -73.292725 1.1258545 -73.292725 -15.230957 c 0.0 -28.76239 32.83516 
        -52.105774 73.292725 -52.105774 c 40.457565 0.0 73.292725 23.343384 73.292725 52.105774 z"
        id="path3329"  style=
        "fill:#ffffff;fill-opacity:1;fill-rule:nonzero;stroke:#000000;stroke-width:3.99999976000000010;stroke-linecap:round;stroke-linejoin:round;stroke-miterlimit:4;stroke-opacity:1"/>
    <path d="m 182.884 814.19073 c 0.0 -26.573242 21.142136 -42.926025 21.142136 -42.926025 c 0.0 
        0.0 -8.456833 22.485107 -7.0473785 42.926025 l -14.094757 0.0 z" id="path3331"
         style=
        "fill:#000000;fill-opacity:0.31372549;fill-rule:evenodd;stroke:#000000;stroke-width:4;stroke-linecap:butt;stroke-linejoin:round;stroke-miterlimit:4;stroke-opacity:1;stroke-dasharray:none"/>
    <path d="m 336.78702 267.04218 c -5.133362 6.4504395 -14.553833 9.4791565 -21.039062 6.764099 c 
        -6.4852295 -2.7150574 -7.578247 -10.145294 -2.441101 -16.594086 c 5.1333313 -6.45047 
        14.553833 -9.479187 21.039062 -6.7641296 c 6.485199 2.715042 7.5782166 10.145294 2.441101 
        16.594116 z" id="path2398"  style=
        "fill:#000000;fill-opacity:1;fill-rule:nonzero;stroke:none"/>
    <path d="m 263.48996 267.04218 c 5.133301 6.4504395 14.5538025 9.4791565 21.039032 6.764099 c 
        6.485199 -2.7150574 7.5782166 -10.145294 2.441101 -16.594086 c -5.133362 -6.45047 -14.553833 
        -9.479187 -21.039062 -6.7641296 c -6.4852295 2.715042 -7.578247 10.145294 -2.4410706 
        16.594116 z" id="path2412"  style=
        "fill:#000000;fill-opacity:1;fill-rule:nonzero;stroke:none"/>
    <path d="M 224.05421 74.555954 C 236.7197 57.909798 210.59712 37.819614 210.59712 37.819614 l 
        38.788055 -6.8880596 c 0.0 0.0 -5.541153 25.256212 15.040268 34.4403" id="path3224"
         style=
        "fill:#ffffff;fill-opacity:1;fill-rule:evenodd;stroke:#000000;stroke-width:4;stroke-linecap:round;stroke-linejoin:miter;stroke-miterlimit:4;stroke-opacity:1;stroke-dasharray:none"/>
    <path d="m 261.2125 27.397484 a 34.434303 24.96923 0.0 0 1 -68.86862 0.0 a 34.434303 24.96923 
        0.0 1 1 68.86862 0.0 z" id="path3186" style=
        "fill:#ffffff;fill-opacity:1;fill-rule:nonzero;stroke:#000000;stroke-width:4;stroke-linecap:round;stroke-linejoin:round;stroke-miterlimit:4;stroke-opacity:1;stroke-dasharray:none"/>
    <path d="m 450.3448 87.57355 c 80.11371 -7.4154663 117.59808 27.543152 120.538086 32.839905 c 
        2.9399414 5.2967377 -78.64377 16.419952 -120.538086 -32.839905 z" id="path3190"
         style=
        "fill:#ffffff;fill-opacity:1;fill-rule:evenodd;stroke:#000000;stroke-width:3.99999976000000010;stroke-linecap:butt;stroke-linejoin:round;stroke-miterlimit:4;stroke-opacity:1;stroke-dasharray:none"/>
    <path d="m 374.4569 74.555954 c -12.665497 -16.646152 13.457092 -36.73634 13.457092 -36.73634 l 
        -38.788086 -6.8880596 c 0.0 0.0 5.541168 25.256212 -15.040283 34.4403" id="path3228"
         style=
        "fill:#ffffff;fill-opacity:1;fill-rule:evenodd;stroke:#000000;stroke-width:4;stroke-linecap:round;stroke-linejoin:miter;stroke-miterlimit:4;stroke-opacity:1;stroke-dasharray:none"/>
    <path d="m 404.50613 27.397484 a 34.43431 24.969234 0.0 0 1 -68.86862 0.0 a 34.43431 24.969234 
        0.0 1 1 68.86862 0.0 z" id="path3222"  style=
        "fill:#ffffff;fill-opacity:1;fill-rule:nonzero;stroke:#000000;stroke-width:4;stroke-linecap:round;stroke-linejoin:round;stroke-miterlimit:4;stroke-opacity:1;stroke-dasharray:none"/>
    <path d="m 151.09024 576.80176 a 30.080538 34.440315 13.77586 0 1 -58.43052 -10.388062 a 
        30.080538 34.440315 13.77586 1 1 58.43052 10.388062 z" id="path3230"
         style=
        "fill:#ffffff;fill-opacity:1;fill-rule:nonzero;stroke:#000000"/>
    <path d="m 315.02368 631.8783 a 54.619923 41.902378 0.0 0 1 -109.23984 0.0 a 54.619923 41.902378 
        0.0 1 1 109.23984 0.0 z" id="path3232"  style=
        "fill:#ffffff;fill-opacity:1;fill-rule:nonzero;stroke:#000000"/>
    <path d="m 488.19928 553.4752 a 41.077507 17.0208 71.56505 0 1 -36.04663 8.712769 a 41.077507 
        17.0208 71.56505 0 1 36.04663 -8.712769 z" id="path3234"
        style="fill:#ffffff;fill-opacity:1;fill-rule:nonzero;stroke:#000000"/>
    <path d="m 456.4239 668.6793 a 26.914165 24.10822 0.0 0 1 -53.82831 0.0 a 26.914165 24.10822 0.0 
        1 1 53.82831 0.0 z" id="path3236"  style=
        "fill:#ffffff;fill-opacity:1;fill-rule:nonzero;stroke:#000000"/>
    <path d="m 398.93253 540.61145 a 42.746025 34.44031 0.0 0 1 -85.492035 0.0 a 42.746025 34.44031 
        0.0 1 1 85.492035 0.0 z" id="path3238"  style=
        "fill:#ffffff;fill-opacity:1;fill-rule:nonzero;stroke:#000000"/>
    <path d="m 289.6927 425.30112 a 29.288948 34.440315 0.0 0 1 -58.577896 0.0 a 29.288948 34.440315 
        0.0 1 1 58.577896 0.0 z" id="path3240"  style=
        "fill:#ffffff;fill-opacity:1;fill-rule:nonzero;stroke:#000000"/>
    <path d="M 147.79616 87.57355 C 67.68245 80.15808 30.198044 115.11669 27.258106 120.41345 C 
        24.318144 125.71019 105.90182 136.8334 147.79616 87.57355 z" id="path3246"
         style=
        "fill:#ffffff;fill-opacity:1;fill-rule:evenodd;stroke:#000000;stroke-width:3.99999976000000010;stroke-linecap:butt;stroke-linejoin:round;stroke-miterlimit:4;stroke-opacity:1;stroke-dasharray:none"/>
</svg>